<?plantuml 1.2026.2?><svg xmlns="http://www.w3.org/2000/svg" xmlns:xlink="http://www.w3.org/1999/xlink" contentStyleType="text/css" data-diagram-type="DESCRIPTION" height="1850px" preserveAspectRatio="none" style="width:1751px;height:1850px;background:#0D1117;" version="1.1" viewBox="0 0 1751 1850" width="1751px" zoomAndPan="magnify"><title>Component &#8212; Layered Architecture &amp; CI Pipeline (Sprint 1)</title><defs/><g><rect fill="#0D1117" height="1850" style="stroke:none;stroke-width:1;" width="1751" x="0" y="0"/><g class="header" data-source-line="17"><text fill="#E6EDF3" font-family="'Segoe UI, Inter, sans-serif'" font-size="10" lengthAdjust="spacing" textLength="226.2012" x="1501.7515" y="20.791">Clinic Management System - Architecture Overview</text></g><g class="title" data-source-line="14"><text fill="#E6EDF3" font-family="'Segoe UI, Inter, sans-serif'" font-size="14" font-weight="bold" lengthAdjust="spacing" textLength="391.4668" x="673.2429" y="69.4082">Component &#8212; Layered Architecture &amp; CI Pipeline (Sprint 1)</text></g><!--cluster GITHUB--><g class="cluster" data-qualified-name="GITHUB" data-source-line="26" id="ent0002"><path d="M27.8853,1205.0314 C32.5516,1192.9315 40.5276,1193.0878 48.3328,1201.9729 C54.3656,1192.8301 61.0672,1191.1199 68.1975,1200.8156 C72.2692,1190.8327 80.8473,1186.7049 89.3092,1196.0105 C95.6524,1184.7 103.3934,1183.7662 111.5095,1194.2005 C119.8069,1186.2734 130.0119,1188.2194 134.1966,1199.1488 C141.7278,1190.3234 151.2247,1189.7533 156.6977,1201.41 C161.763,1192.0854 171.1847,1193.5616 176.0727,1201.6078 C188.7867,1190.8571 197.321,1195.8095 202.9527,1209.4219 C204.153,1209.4615 204.4529,1210.3742 203.8573,1211.2855 C213.8286,1214.6964 214.5524,1221.7443 207.8375,1228.9211 C217.0721,1235.15 217.2627,1243.8365 207.8982,1250.1187 C216.667,1254.2128 216.6223,1260.3127 208.9832,1265.5597 C218.4982,1271.0268 218.6761,1280.5907 208.9492,1286.0258 C219.5228,1290.0572 221.3546,1299.1686 211.4737,1305.8101 C220.9998,1309.9319 222.4104,1317.7534 213.6507,1324.0568 C221.2132,1329.3654 220.3818,1335.2457 213.3759,1340.3079 C222.6284,1346.5324 222.9651,1354.3062 214.6664,1361.5947 C223.061,1368.4214 222.24,1373.8885 213.3784,1379.4718 C219.7434,1386.745 220.0531,1394.2488 209.01,1397.2428 C216.4605,1401.7008 218.35,1410.133 208.9955,1414.577 C217.2664,1420.5833 216.0267,1428.9273 207.0049,1433.0725 C215.0621,1438.7469 217.1556,1449.067 205.7784,1453.5791 C212.443,1465.5872 208.6465,1472.7408 195.9527,1476.4219 C196.3484,1475.8215 196.9408,1475.6784 197.3342,1476.4243 C191.5369,1486.2841 185.4007,1488.2034 176.5465,1479.9283 C169.6331,1490.8891 161.6049,1489.2838 155.5768,1479.0523 C150.8757,1490.4602 140.5015,1489.5177 134.1311,1480.8341 C126.8808,1489.8636 120.1418,1492.1026 112.5698,1481.1819 C106.3323,1494.2866 97.4532,1494.2286 89.5152,1482.7785 C81.6266,1491.2211 74.342,1489.7162 69.9113,1479.2025 C62.3844,1491.8472 54.3397,1491.106 46.8623,1479.156 C33.7142,1488.1761 22.0899,1487.1636 17.9527,1469.4219 C18.9398,1469.5316 19.3113,1470.0693 18.7192,1470.964 C10.9702,1465.7729 11.0433,1457.3366 19.6531,1452.9958 C9.5034,1448.4362 8.4863,1441.2654 17.5323,1434.5043 C8.0914,1427.6831 9.0903,1421.8752 17.6192,1415.1346 C9.3778,1409.8204 9.5256,1403.7444 16.9069,1397.7887 C6.6136,1392.2839 9.3028,1383.3752 17.3209,1378.2585 C9.6166,1373.9528 6.5766,1366.3377 15.4708,1360.3201 C6,1355.1846 6.7734,1347.2553 15.7496,1342.407 C6.381,1335.5468 8.1403,1328.7316 17.4313,1323.5341 C8.5637,1319.2969 7.1717,1310.1994 16.377,1304.9377 C8.2432,1298.7434 8.447,1289.1154 18.1572,1284.4734 C11.0431,1279.2372 10.977,1273.4025 17.6631,1267.7585 C7.9076,1262.3094 8.5533,1253.5786 18.2463,1248.7255 C8.8477,1242.611 11.5272,1233.7433 20.1286,1229.3801 C10.3483,1219.779 9.9536,1207.5889 24.9527,1202.4219 C26.9993,1201.6771 28.206,1203.1158 27.8853,1205.0314" fill="#161B22" style="stroke:#30363D;stroke-width:1;"/><path d="M49.3314,1224.3763 C47.9197,1224.3763 46.6831,1225.3796 46.4147,1226.7096 C45.1314,1226.7096 44.0814,1227.7596 44.0814,1229.043 C44.0814,1230.3263 45.1314,1231.3763 46.4147,1231.3763 L51.6647,1231.3763 C52.6331,1231.3763 53.4147,1230.5946 53.4147,1229.6263 C53.4147,1228.868 52.9247,1228.1213 52.2481,1227.8763 L52.2481,1227.293 C52.2481,1225.683 50.9414,1224.3763 49.3314,1224.3763" fill="#E6EDF3"/><text fill="#E6EDF3" font-family="'Segoe UI, Inter, sans-serif'" font-size="14" font-weight="bold" lengthAdjust="spacing" textLength="119.5469" x="58.277" y="1232.5293">GitHub Ecosystem</text></g><!--cluster ClinicManagementAPI System--><g class="cluster" data-qualified-name="ClinicManagementAPI System" data-source-line="32" id="ent0007"><path d="M350.9527,215.4219 L590.648,215.4219 A9,9 0 0 1 596.648,221.4219 L603.648,262.7031 L1335.9527,262.7031 A6,6 0 0 1 1341.9527,268.7031 L1341.9527,1797.4219 A6,6 0 0 1 1335.9527,1803.4219 L350.9527,1803.4219 A6,6 0 0 1 344.9527,1797.4219 L344.9527,221.4219 A6,6 0 0 1 350.9527,215.4219" fill="#0D1117" style="stroke:#30363D;stroke-width:1.5;"/><line style="stroke:#30363D;stroke-width:1.5;" x1="344.9527" x2="603.648" y1="262.7031" y2="262.7031"/><text fill="#58A6FF" font-family="'Segoe UI, Inter, sans-serif'" font-size="16" font-weight="bold" lengthAdjust="spacing" textLength="225.6953" x="358.9527" y="244.6875">ClinicManagementAPI System</text></g><!--cluster API--><g class="cluster" data-qualified-name="ClinicManagementAPI System.API" data-source-line="34" id="ent0008"><path d="M382.9527,291.4219 L571.1662,291.4219 A9,9 0 0 1 577.1662,297.4219 L584.1662,338.7031 L919.9527,338.7031 A6,6 0 0 1 925.9527,344.7031 L925.9527,717.4219 A6,6 0 0 1 919.9527,723.4219 L382.9527,723.4219 A6,6 0 0 1 376.9527,717.4219 L376.9527,297.4219 A6,6 0 0 1 382.9527,291.4219" fill="#161B22" style="stroke:#30363D;stroke-width:1.5;"/><line style="stroke:#30363D;stroke-width:1.5;" x1="376.9527" x2="584.1662" y1="338.7031" y2="338.7031"/><path d="M391.9527,310.0365 L391.9527,311.3698 L402.6193,311.3698 L402.6193,310.0365 L391.9527,310.0365 M391.9527,312.7031 L391.9527,320.5831 C391.9527,320.6498 392.006,320.7031 392.0727,320.7031 L402.486,320.7031 C402.5527,320.7031 402.606,320.6498 402.606,320.5831 L402.606,312.7031 L398.646,312.7031 L398.646,314.0765 L395.9393,314.0765 L395.9393,312.7031 L391.9393,312.7031" fill="#58A6FF"/><text fill="#58A6FF" font-family="'Segoe UI, Inter, sans-serif'" font-size="16" font-weight="bold" lengthAdjust="spacing" textLength="157.1328" x="408.0334" y="320.6875">Api Project (.NET 10)</text><text fill="#58A6FF" font-family="'Segoe UI, Inter, sans-serif'" font-size="16" font-weight="bold" lengthAdjust="spacing" textLength="59.0156" x="625.9449" y="367.9688">&#171;Layer&#187;</text></g><!--cluster CORE--><g class="cluster" data-qualified-name="ClinicManagementAPI System.CORE" data-source-line="40" id="ent0012"><path d="M741.4527,755.4219 L938.7365,755.4219 A9,9 0 0 1 944.7365,761.4219 L951.7365,802.7031 L1311.9527,802.7031 A6,6 0 0 1 1317.9527,808.7031 L1317.9527,1301.4219 A6,6 0 0 1 1311.9527,1307.4219 L741.4527,1307.4219 A6,6 0 0 1 735.4527,1301.4219 L735.4527,761.4219 A6,6 0 0 1 741.4527,755.4219" fill="#161B22" style="stroke:#30363D;stroke-width:1.5;"/><line style="stroke:#30363D;stroke-width:1.5;" x1="735.4527" x2="951.7365" y1="802.7031" y2="802.7031"/><path d="M750.4527,774.0365 L750.4527,775.3698 L761.1193,775.3698 L761.1193,774.0365 L750.4527,774.0365 M750.4527,776.7031 L750.4527,784.5831 C750.4527,784.6498 750.506,784.7031 750.5727,784.7031 L760.986,784.7031 C761.0527,784.7031 761.106,784.6498 761.106,784.5831 L761.106,776.7031 L757.146,776.7031 L757.146,778.0765 L754.4393,778.0765 L754.4393,776.7031 L750.4393,776.7031" fill="#58A6FF"/><text fill="#58A6FF" font-family="'Segoe UI, Inter, sans-serif'" font-size="16" font-weight="bold" lengthAdjust="spacing" textLength="166.2031" x="766.5334" y="784.6875">Core Project (.NET 10)</text><text fill="#58A6FF" font-family="'Segoe UI, Inter, sans-serif'" font-size="16" font-weight="bold" lengthAdjust="spacing" textLength="59.0156" x="1001.1949" y="831.9688">&#171;Layer&#187;</text></g><!--cluster DATA_FOLDER--><g class="cluster" data-qualified-name="ClinicManagementAPI System.CORE.DATA_FOLDER" data-source-line="44" id="ent0015"><path d="M1100.9527,864.4219 L1145.7896,864.4219 A9,9 0 0 1 1151.7896,870.4219 L1158.7896,909.043 L1287.9527,909.043 A6,6 0 0 1 1293.9527,915.043 L1293.9527,1277.4219 A6,6 0 0 1 1287.9527,1283.4219 L1100.9527,1283.4219 A6,6 0 0 1 1094.9527,1277.4219 L1094.9527,870.4219 A6,6 0 0 1 1100.9527,864.4219" fill="#161B22" style="stroke:#30363D;stroke-width:1.5;"/><line style="stroke:#30363D;stroke-width:1.5;" x1="1094.9527" x2="1158.7896" y1="909.043" y2="909.043"/><text fill="#E6EDF3" font-family="'Segoe UI, Inter, sans-serif'" font-size="14" font-weight="bold" lengthAdjust="spacing" textLength="30.8369" x="1108.9527" y="891.5293">Data</text></g><!--cluster TESTS--><g class="cluster" data-qualified-name="ClinicManagementAPI System.TESTS" data-source-line="51" id="ent0019"><path d="M1112.4527,1339.4219 L1222.2886,1339.4219 A9,9 0 0 1 1228.2886,1345.4219 L1235.2886,1386.7031 L1276.4527,1386.7031 A6,6 0 0 1 1282.4527,1392.7031 L1282.4527,1765.4219 A6,6 0 0 1 1276.4527,1771.4219 L1112.4527,1771.4219 A6,6 0 0 1 1106.4527,1765.4219 L1106.4527,1345.4219 A6,6 0 0 1 1112.4527,1339.4219" fill="#161B22" style="stroke:#30363D;stroke-width:1.5;"/><line style="stroke:#30363D;stroke-width:1.5;" x1="1106.4527" x2="1235.2886" y1="1386.7031" y2="1386.7031"/><text fill="#58A6FF" font-family="'Segoe UI, Inter, sans-serif'" font-size="16" font-weight="bold" lengthAdjust="spacing" textLength="95.8359" x="1120.4527" y="1368.6875">Tests Project</text><text fill="#58A6FF" font-family="'Segoe UI, Inter, sans-serif'" font-size="16" font-weight="bold" lengthAdjust="spacing" textLength="59.0156" x="1168.9449" y="1415.9688">&#171;Layer&#187;</text></g><!--cluster External Infrastructure--><g class="cluster" data-qualified-name="External Infrastructure" data-source-line="58" id="ent0022"><polygon fill="#161B22" points="1490.9527,905.4219,1500.9527,895.4219,1734.9527,895.4219,1734.9527,1245.4219,1724.9527,1255.4219,1490.9527,1255.4219,1490.9527,905.4219" style="stroke:#30363D;stroke-width:1;"/><line style="stroke:#30363D;stroke-width:1;" x1="1724.9527" x2="1734.9527" y1="905.4219" y2="895.4219"/><line style="stroke:#30363D;stroke-width:1;" x1="1490.9527" x2="1724.9527" y1="905.4219" y2="905.4219"/><line style="stroke:#30363D;stroke-width:1;" x1="1724.9527" x2="1724.9527" y1="905.4219" y2="1255.4219"/><text fill="#E6EDF3" font-family="'Segoe UI, Inter, sans-serif'" font-size="14" font-weight="bold" lengthAdjust="spacing" textLength="148.4287" x="1534.7383" y="933.5293">External Infrastructure</text></g><!--entity CI--><g class="entity" data-qualified-name="GITHUB.CI" data-source-line="27" id="ent0003"><rect fill="#0D1117" height="107.2422" rx="6" ry="6" style="stroke:#58A6FF;stroke-width:1.5;" width="168.5335" x="25.9527" y="1360.9219"/><rect fill="#0D1117" height="10" style="stroke:#58A6FF;stroke-width:1.5;" width="15" x="174.4862" y="1365.9219"/><rect fill="#0D1117" height="2" style="stroke:#58A6FF;stroke-width:1.5;" width="4" x="172.4862" y="1367.9219"/><rect fill="#0D1117" height="2" style="stroke:#58A6FF;stroke-width:1.5;" width="4" x="172.4862" y="1371.9219"/><text fill="#E6EDF3" font-family="'Segoe UI, Inter, sans-serif'" font-size="14" font-style="italic" lengthAdjust="spacing" textLength="51.5293" x="79.4548" y="1406.0293">&#171;CI/CD&#187;</text><path d="M56.036,1435.3307 L55.4527,1436.7191 C55.336,1436.7541 55.231,1436.8124 55.126,1436.8707 L53.7377,1436.2874 L52.8977,1437.1274 L53.481,1438.5157 C53.4227,1438.6324 53.376,1438.7257 53.3293,1438.8424 L51.941,1439.4257 L51.941,1440.5924 L53.3293,1441.1757 C53.376,1441.2924 53.4227,1441.3857 53.481,1441.5024 L52.8977,1442.8907 L53.7377,1443.7307 L55.126,1443.1474 C55.231,1443.1941 55.336,1443.2524 55.4527,1443.2991 L56.036,1444.6874 L57.2027,1444.6874 L57.786,1443.2991 C57.891,1443.2524 58.0077,1443.2057 58.1127,1443.1474 L59.501,1443.7307 L60.341,1442.8907 L59.7577,1441.5024 C59.8043,1441.3974 59.8627,1441.2807 59.9093,1441.1757 L61.2977,1440.5924 L61.2977,1439.4257 L59.9093,1438.8424 C59.8743,1438.7374 59.816,1438.6207 59.7577,1438.5157 L60.341,1437.1274 L59.501,1436.2874 L58.1127,1436.8707 C58.0077,1436.8241 57.891,1436.7657 57.786,1436.7191 L57.2027,1435.3307 L56.036,1435.3307 M56.6193,1438.2474 C57.5877,1438.2474 58.3693,1439.0291 58.3693,1439.9974 C58.3693,1440.9657 57.5877,1441.7474 56.6193,1441.7474 C55.651,1441.7474 54.8693,1440.9657 54.8693,1439.9974 C54.8693,1439.0291 55.651,1438.2474 56.6193,1438.2474" fill="#58A6FF"/><text fill="#E6EDF3" font-family="'Segoe UI, Inter, sans-serif'" font-size="14" lengthAdjust="spacing" textLength="93.3652" x="66.121" y="1444.6504">GitHub Actions</text></g><g class="entity" data-qualified-name="GITHUB.GMN4" data-source-line="28" id="ent0005"><path d="M45.4527,1257.9219 L45.4527,1305.1836 A6,6 0 0 0 51.4527,1311.1836 L106.4527,1311.1836 L110.4527,1360.9119 L114.4527,1311.1836 L169.1187,1311.1836 A6,6 0 0 0 175.1187,1305.1836 L175.1187,1261.9219 L165.1187,1251.9219 L51.4527,1251.9219 A6,6 0 0 0 45.4527,1257.9219" fill="#21262D" style="stroke:#F85149;stroke-width:0.5;"/><path d="M165.1187,1251.9219 L165.1187,1258.9219 A3,3 0 0 0 168.1187,1261.9219 L175.1187,1261.9219 L165.1187,1251.9219" fill="#21262D" style="stroke:#F85149;stroke-width:0.5;"/><text fill="#C9D1D9" font-family="'Segoe UI, Inter, sans-serif'" font-size="11" lengthAdjust="spacing" textLength="72.8374" x="61.4527" y="1278.792">Build, Lint, Test</text><text fill="#C9D1D9" font-family="'Segoe UI, Inter, sans-serif'" font-size="11" lengthAdjust="spacing" textLength="88.666" x="61.4527" y="1293.4229">(dotnet build/test)</text></g><!--entity ENDP--><g class="entity" data-qualified-name="ClinicManagementAPI System.API.ENDP" data-source-line="35" id="ent0009"><rect fill="#0D1117" height="107.2422" rx="6" ry="6" style="stroke:#58A6FF;stroke-width:1.5;" width="166.4691" x="401.9527" y="400.9219"/><rect fill="#0D1117" height="10" style="stroke:#58A6FF;stroke-width:1.5;" width="15" x="548.4217" y="405.9219"/><rect fill="#0D1117" height="2" style="stroke:#58A6FF;stroke-width:1.5;" width="4" x="546.4217" y="407.9219"/><rect fill="#0D1117" height="2" style="stroke:#58A6FF;stroke-width:1.5;" width="4" x="546.4217" y="411.9219"/><text fill="#E6EDF3" font-family="'Segoe UI, Inter, sans-serif'" font-size="14" font-style="italic" lengthAdjust="spacing" textLength="74.7236" x="442.8254" y="446.0293">&#171;Controller&#187;</text><path d="M432.6193,475.3307 L432.3977,475.4357 L428.3143,477.1507 L427.9527,477.3024 L427.9527,477.6641 C427.9527,479.6007 428.7343,481.3041 429.6677,482.5524 C430.1343,483.1707 430.636,483.6841 431.126,484.0457 C431.616,484.4074 432.0943,484.6641 432.6193,484.6641 C433.156,484.6641 433.6227,484.4074 434.1127,484.0457 C434.6027,483.6841 435.1043,483.1707 435.571,482.5524 C436.5043,481.3041 437.286,479.6007 437.286,477.6641 L437.286,477.3024 L436.9243,477.1507 L432.841,475.4357 L432.6193,475.3307 M432.6193,476.6024 L432.6193,483.4974 C432.5727,483.4974 432.2343,483.4157 431.8493,483.1357 C431.4643,482.8557 431.021,482.4007 430.6127,481.8641 C429.866,480.8724 429.2827,479.4957 429.1893,478.0374 L432.6193,476.6141" fill="#F85149"/><text fill="#E6EDF3" font-family="'Segoe UI, Inter, sans-serif'" font-size="14" lengthAdjust="spacing" textLength="91.3008" x="442.121" y="484.6504">AuthEndpoints</text></g><!--entity MW--><g class="entity" data-qualified-name="ClinicManagementAPI System.API.MW" data-source-line="36" id="ent0010"><rect fill="#0D1117" height="107.2422" rx="6" ry="6" style="stroke:#58A6FF;stroke-width:1.5;" width="167.6175" x="400.9527" y="557.9219"/><rect fill="#0D1117" height="10" style="stroke:#58A6FF;stroke-width:1.5;" width="15" x="548.5702" y="562.9219"/><rect fill="#0D1117" height="2" style="stroke:#58A6FF;stroke-width:1.5;" width="4" x="546.5702" y="564.9219"/><rect fill="#0D1117" height="2" style="stroke:#58A6FF;stroke-width:1.5;" width="4" x="546.5702" y="568.9219"/><text fill="#E6EDF3" font-family="'Segoe UI, Inter, sans-serif'" font-size="14" font-style="italic" lengthAdjust="spacing" textLength="84.54" x="437.4914" y="603.0293">&#171;Middleware&#187;</text><path d="M431.6193,632.3307 L431.3977,632.4357 L427.3143,634.1507 L426.9527,634.3024 L426.9527,634.6641 C426.9527,636.6007 427.7343,638.3041 428.6677,639.5524 C429.1343,640.1707 429.636,640.6841 430.126,641.0457 C430.616,641.4074 431.0943,641.6641 431.6193,641.6641 C432.156,641.6641 432.6227,641.4074 433.1127,641.0457 C433.6027,640.6841 434.1043,640.1707 434.571,639.5524 C435.5043,638.3041 436.286,636.6007 436.286,634.6641 L436.286,634.3024 L435.9243,634.1507 L431.841,632.4357 L431.6193,632.3307 M431.6193,633.6024 L431.6193,640.4974 C431.5727,640.4974 431.2343,640.4157 430.8493,640.1357 C430.4643,639.8557 430.021,639.4007 429.6127,638.8641 C428.866,637.8724 428.2827,636.4957 428.1893,635.0374 L431.6193,633.6141" fill="#F85149"/><text fill="#E6EDF3" font-family="'Segoe UI, Inter, sans-serif'" font-size="14" lengthAdjust="spacing" textLength="92.4492" x="441.121" y="641.6504">JwtMiddleware</text></g><!--entity FILT--><g class="entity" data-qualified-name="ClinicManagementAPI System.API.FILT" data-source-line="37" id="ent0011"><rect fill="#0D1117" height="107.2422" rx="6" ry="6" style="stroke:#58A6FF;stroke-width:1.5;" width="152.7773" x="748.9527" y="556.9219"/><rect fill="#0D1117" height="10" style="stroke:#58A6FF;stroke-width:1.5;" width="15" x="881.73" y="561.9219"/><rect fill="#0D1117" height="2" style="stroke:#58A6FF;stroke-width:1.5;" width="4" x="879.73" y="563.9219"/><rect fill="#0D1117" height="2" style="stroke:#58A6FF;stroke-width:1.5;" width="4" x="879.73" y="567.9219"/><text fill="#E6EDF3" font-family="'Segoe UI, Inter, sans-serif'" font-size="14" font-style="italic" lengthAdjust="spacing" textLength="83.2549" x="778.7139" y="602.0293">&#171;ActionFilter&#187;</text><text fill="#E6EDF3" font-family="'Segoe UI, Inter, sans-serif'" font-size="14" lengthAdjust="spacing" textLength="92.7773" x="773.9527" y="640.6504">ValidationFilter</text></g><!--entity SVC--><g class="entity" data-qualified-name="ClinicManagementAPI System.CORE.SVC" data-source-line="41" id="ent0013"><rect fill="#0D1117" height="107.2422" rx="6" ry="6" style="stroke:#58A6FF;stroke-width:1.5;" width="148.2992" x="751.4527" y="1158.9219"/><rect fill="#0D1117" height="10" style="stroke:#58A6FF;stroke-width:1.5;" width="15" x="879.7518" y="1163.9219"/><rect fill="#0D1117" height="2" style="stroke:#58A6FF;stroke-width:1.5;" width="4" x="877.7518" y="1165.9219"/><rect fill="#0D1117" height="2" style="stroke:#58A6FF;stroke-width:1.5;" width="4" x="877.7518" y="1169.9219"/><text fill="#E6EDF3" font-family="'Segoe UI, Inter, sans-serif'" font-size="14" font-style="italic" lengthAdjust="spacing" textLength="56.3076" x="792.4484" y="1204.0293">&#171;Service&#187;</text><path d="M781.536,1233.3307 L780.9527,1234.7191 C780.836,1234.7541 780.731,1234.8124 780.626,1234.8707 L779.2377,1234.2874 L778.3977,1235.1274 L778.981,1236.5157 C778.9227,1236.6324 778.876,1236.7257 778.8293,1236.8424 L777.441,1237.4257 L777.441,1238.5924 L778.8293,1239.1757 C778.876,1239.2924 778.9227,1239.3857 778.981,1239.5024 L778.3977,1240.8907 L779.2377,1241.7307 L780.626,1241.1474 C780.731,1241.1941 780.836,1241.2524 780.9527,1241.2991 L781.536,1242.6874 L782.7027,1242.6874 L783.286,1241.2991 C783.391,1241.2524 783.5077,1241.2057 783.6127,1241.1474 L785.001,1241.7307 L785.841,1240.8907 L785.2577,1239.5024 C785.3043,1239.3974 785.3627,1239.2807 785.4093,1239.1757 L786.7977,1238.5924 L786.7977,1237.4257 L785.4093,1236.8424 C785.3743,1236.7374 785.316,1236.6207 785.2577,1236.5157 L785.841,1235.1274 L785.001,1234.2874 L783.6127,1234.8707 C783.5077,1234.8241 783.391,1234.7657 783.286,1234.7191 L782.7027,1233.3307 L781.536,1233.3307 M782.1193,1236.2474 C783.0877,1236.2474 783.8693,1237.0291 783.8693,1237.9974 C783.8693,1238.9657 783.0877,1239.7474 782.1193,1239.7474 C781.151,1239.7474 780.3693,1238.9657 780.3693,1237.9974 C780.3693,1237.0291 781.151,1236.2474 782.1193,1236.2474" fill="#3FB950"/><text fill="#E6EDF3" font-family="'Segoe UI, Inter, sans-serif'" font-size="14" lengthAdjust="spacing" textLength="73.1309" x="791.621" y="1242.6504">AuthService</text></g><!--entity INTF--><g class="entity" data-qualified-name="ClinicManagementAPI System.CORE.INTF" data-source-line="42" id="ent0014"><ellipse cx="825.4527" cy="964.4219" fill="#161B22" rx="8" ry="8" style="stroke:#A371F7;stroke-width:0.5;"/><text fill="#E6EDF3" font-family="'Segoe UI, Inter, sans-serif'" font-size="14" lengthAdjust="spacing" textLength="76.8564" x="787.0244" y="1006.5293">IAuthService</text><text fill="#E6EDF3" font-family="'Segoe UI, Inter, sans-serif'" font-size="14" font-style="italic" lengthAdjust="spacing" textLength="66.9375" x="791.9839" y="933.9082">&#171;Interface&#187;</text></g><!--entity DATA--><g class="entity" data-qualified-name="ClinicManagementAPI System.CORE.DATA_FOLDER.DATA" data-source-line="45" id="ent0016"><rect fill="#0D1117" height="107.2422" rx="6" ry="6" style="stroke:#58A6FF;stroke-width:1.5;" width="166.7357" x="1110.9527" y="1040.9219"/><rect fill="#0D1117" height="10" style="stroke:#58A6FF;stroke-width:1.5;" width="15" x="1257.6883" y="1045.9219"/><rect fill="#0D1117" height="2" style="stroke:#58A6FF;stroke-width:1.5;" width="4" x="1255.6883" y="1047.9219"/><rect fill="#0D1117" height="2" style="stroke:#58A6FF;stroke-width:1.5;" width="4" x="1255.6883" y="1051.9219"/><text fill="#E6EDF3" font-family="'Segoe UI, Inter, sans-serif'" font-size="14" font-style="italic" lengthAdjust="spacing" textLength="81.0469" x="1148.7971" y="1086.0293">&#171;Persistence&#187;</text><path d="M1137.1743,1115.3307 C1137.046,1115.3307 1136.9527,1115.4241 1136.9527,1115.5524 L1136.9527,1119.4141 C1136.9527,1119.7407 1137.2093,1119.9974 1137.536,1119.9974 L1144.536,1119.9974 C1144.8627,1119.9974 1145.1193,1119.7407 1145.1193,1119.4141 L1145.1193,1115.5524 C1145.1193,1115.4241 1145.026,1115.3307 1144.8977,1115.3307 L1137.1627,1115.3307 M1136.9527,1121.0591 L1136.9527,1124.4541 C1136.9527,1124.5824 1137.046,1124.6757 1137.1743,1124.6757 L1144.9093,1124.6757 C1145.0377,1124.6757 1145.131,1124.5824 1145.131,1124.4541 L1145.131,1121.0591 C1144.9443,1121.1291 1144.7577,1121.1641 1144.5477,1121.1641 L1137.5477,1121.1641 C1137.3377,1121.1641 1137.151,1121.1174 1136.9643,1121.0591 M1143.3693,1122.3307 C1143.696,1122.3307 1143.9527,1122.5874 1143.9527,1122.9141 C1143.9527,1123.2407 1143.696,1123.4974 1143.3693,1123.4974 C1143.0427,1123.4974 1142.786,1123.2407 1142.786,1122.9141 C1142.786,1122.5874 1143.0427,1122.3307 1143.3693,1122.3307" fill="#D29922"/><text fill="#E6EDF3" font-family="'Segoe UI, Inter, sans-serif'" font-size="14" lengthAdjust="spacing" textLength="91.5674" x="1151.121" y="1124.6504">AppDbContext</text></g><!--entity DTO--><g class="entity" data-qualified-name="ClinicManagementAPI System.CORE.DATA_FOLDER.DTO" data-source-line="46" id="ent0017"><rect fill="#0D1117" height="68.6211" rx="6" ry="6" style="stroke:#58A6FF;stroke-width:1.5;" width="93.6465" x="1147.4527" y="921.9219"/><rect fill="#0D1117" height="10" style="stroke:#58A6FF;stroke-width:1.5;" width="15" x="1221.0991" y="926.9219"/><rect fill="#0D1117" height="2" style="stroke:#58A6FF;stroke-width:1.5;" width="4" x="1219.0991" y="928.9219"/><rect fill="#0D1117" height="2" style="stroke:#58A6FF;stroke-width:1.5;" width="4" x="1219.0991" y="932.9219"/><text fill="#E6EDF3" font-family="'Segoe UI, Inter, sans-serif'" font-size="14" lengthAdjust="spacing" textLength="33.6465" x="1172.4527" y="967.0293">DTOs</text></g><!--entity MOD--><g class="entity" data-qualified-name="ClinicManagementAPI System.CORE.DATA_FOLDER.MOD" data-source-line="47" id="ent0018"><rect fill="#0D1117" height="68.6211" rx="6" ry="6" style="stroke:#58A6FF;stroke-width:1.5;" width="105.6709" x="1141.4527" y="1197.9219"/><rect fill="#0D1117" height="10" style="stroke:#58A6FF;stroke-width:1.5;" width="15" x="1227.1236" y="1202.9219"/><rect fill="#0D1117" height="2" style="stroke:#58A6FF;stroke-width:1.5;" width="4" x="1225.1236" y="1204.9219"/><rect fill="#0D1117" height="2" style="stroke:#58A6FF;stroke-width:1.5;" width="4" x="1225.1236" y="1208.9219"/><text fill="#E6EDF3" font-family="'Segoe UI, Inter, sans-serif'" font-size="14" lengthAdjust="spacing" textLength="45.6709" x="1166.4527" y="1243.0293">Models</text></g><!--entity UT--><g class="entity" data-qualified-name="ClinicManagementAPI System.TESTS.UT" data-source-line="52" id="ent0020"><rect fill="#0D1117" height="107.2422" rx="6" ry="6" style="stroke:#58A6FF;stroke-width:1.5;" width="120.792" x="1133.9527" y="1448.9219"/><rect fill="#0D1117" height="10" style="stroke:#58A6FF;stroke-width:1.5;" width="15" x="1234.7447" y="1453.9219"/><rect fill="#0D1117" height="2" style="stroke:#58A6FF;stroke-width:1.5;" width="4" x="1232.7447" y="1455.9219"/><rect fill="#0D1117" height="2" style="stroke:#58A6FF;stroke-width:1.5;" width="4" x="1232.7447" y="1459.9219"/><text fill="#E6EDF3" font-family="'Segoe UI, Inter, sans-serif'" font-size="14" font-style="italic" lengthAdjust="spacing" textLength="46.4297" x="1166.1338" y="1494.0293">&#171;xUnit&#187;</text><text fill="#E6EDF3" font-family="'Segoe UI, Inter, sans-serif'" font-size="14" lengthAdjust="spacing" textLength="60.792" x="1158.9527" y="1532.6504">Unit Tests</text></g><!--entity IT--><g class="entity" data-qualified-name="ClinicManagementAPI System.TESTS.IT" data-source-line="53" id="ent0021"><rect fill="#0D1117" height="107.2422" rx="6" ry="6" style="stroke:#58A6FF;stroke-width:1.5;" width="128.209" x="1130.4527" y="1605.9219"/><rect fill="#0D1117" height="10" style="stroke:#58A6FF;stroke-width:1.5;" width="15" x="1238.6616" y="1610.9219"/><rect fill="#0D1117" height="2" style="stroke:#58A6FF;stroke-width:1.5;" width="4" x="1236.6616" y="1612.9219"/><rect fill="#0D1117" height="2" style="stroke:#58A6FF;stroke-width:1.5;" width="4" x="1236.6616" y="1616.9219"/><text fill="#E6EDF3" font-family="'Segoe UI, Inter, sans-serif'" font-size="14" font-style="italic" lengthAdjust="spacing" textLength="46.4297" x="1166.3423" y="1651.0293">&#171;xUnit&#187;</text><text fill="#E6EDF3" font-family="'Segoe UI, Inter, sans-serif'" font-size="14" lengthAdjust="spacing" textLength="68.209" x="1155.4527" y="1689.6504">Integration</text></g><!--entity DB--><g class="entity" data-qualified-name="External Infrastructure.DB" data-source-line="59" id="ent0023"><path d="M1551.9527,1143.4219 C1551.9527,1133.4219 1613.0056,1133.4219 1613.0056,1133.4219 C1613.0056,1133.4219 1674.0585,1133.4219 1674.0585,1143.4219 L1674.0585,1229.6641 C1674.0585,1239.6641 1613.0056,1239.6641 1613.0056,1239.6641 C1613.0056,1239.6641 1551.9527,1239.6641 1551.9527,1229.6641 L1551.9527,1143.4219" fill="#0D1117" style="stroke:#D29922;stroke-width:0.5;"/><path d="M1551.9527,1143.4219 C1551.9527,1153.4219 1613.0056,1153.4219 1613.0056,1153.4219 C1613.0056,1153.4219 1674.0585,1153.4219 1674.0585,1143.4219" fill="none" style="stroke:#D29922;stroke-width:0.5;"/><text fill="#E6EDF3" font-family="'Segoe UI, Inter, sans-serif'" font-size="14" font-style="italic" lengthAdjust="spacing" textLength="71.5859" x="1577.2126" y="1182.5293">&#171;Database&#187;</text><path d="M1573.1743,1211.8307 C1573.046,1211.8307 1572.9527,1211.9241 1572.9527,1212.0524 L1572.9527,1215.9141 C1572.9527,1216.2407 1573.2093,1216.4974 1573.536,1216.4974 L1580.536,1216.4974 C1580.8627,1216.4974 1581.1193,1216.2407 1581.1193,1215.9141 L1581.1193,1212.0524 C1581.1193,1211.9241 1581.026,1211.8307 1580.8977,1211.8307 L1573.1627,1211.8307 M1572.9527,1217.5591 L1572.9527,1220.9541 C1572.9527,1221.0824 1573.046,1221.1757 1573.1743,1221.1757 L1580.9093,1221.1757 C1581.0377,1221.1757 1581.131,1221.0824 1581.131,1220.9541 L1581.131,1217.5591 C1580.9443,1217.6291 1580.7577,1217.6641 1580.5477,1217.6641 L1573.5477,1217.6641 C1573.3377,1217.6641 1573.151,1217.6174 1572.9643,1217.5591 M1579.3693,1218.8307 C1579.696,1218.8307 1579.9527,1219.0874 1579.9527,1219.4141 C1579.9527,1219.7407 1579.696,1219.9974 1579.3693,1219.9974 C1579.0427,1219.9974 1578.786,1219.7407 1578.786,1219.4141 C1578.786,1219.0874 1579.0427,1218.8307 1579.3693,1218.8307" fill="#D29922"/><text fill="#E6EDF3" font-family="'Segoe UI, Inter, sans-serif'" font-size="14" lengthAdjust="spacing" textLength="66.9375" x="1587.121" y="1221.1504">SQL Server</text></g><!--entity IDENTITY--><g class="entity" data-qualified-name="External Infrastructure.IDENTITY" data-source-line="60" id="ent0024"><rect fill="#0D1117" height="125.8633" rx="6" ry="6" style="stroke:#58A6FF;stroke-width:1.5;" width="160.2962" x="1532.9527" y="957.4219"/><rect fill="#0D1117" height="10" style="stroke:#58A6FF;stroke-width:1.5;" width="15" x="1673.2489" y="962.4219"/><rect fill="#0D1117" height="2" style="stroke:#58A6FF;stroke-width:1.5;" width="4" x="1671.2489" y="964.4219"/><rect fill="#0D1117" height="2" style="stroke:#58A6FF;stroke-width:1.5;" width="4" x="1671.2489" y="968.4219"/><text fill="#E6EDF3" font-family="'Segoe UI, Inter, sans-serif'" font-size="14" font-style="italic" lengthAdjust="spacing" textLength="64.9961" x="1575.6027" y="1002.5293">&#171;Package&#187;</text><path d="M1563.6193,1031.8307 L1563.3977,1031.9357 L1559.3143,1033.6507 L1558.9527,1033.8024 L1558.9527,1034.1641 C1558.9527,1036.1007 1559.7343,1037.8041 1560.6677,1039.0524 C1561.1343,1039.6707 1561.636,1040.1841 1562.126,1040.5457 C1562.616,1040.9074 1563.0943,1041.1641 1563.6193,1041.1641 C1564.156,1041.1641 1564.6227,1040.9074 1565.1127,1040.5457 C1565.6027,1040.1841 1566.1043,1039.6707 1566.571,1039.0524 C1567.5043,1037.8041 1568.286,1036.1007 1568.286,1034.1641 L1568.286,1033.8024 L1567.9243,1033.6507 L1563.841,1031.9357 L1563.6193,1031.8307 M1563.6193,1033.1024 L1563.6193,1039.9974 C1563.5727,1039.9974 1563.2343,1039.9157 1562.8493,1039.6357 C1562.4643,1039.3557 1562.021,1038.9007 1561.6127,1038.3641 C1560.866,1037.3724 1560.2827,1035.9957 1560.1893,1034.5374 L1563.6193,1033.1141" fill="#A371F7"/><text fill="#E6EDF3" font-family="'Segoe UI, Inter, sans-serif'" font-size="14" lengthAdjust="spacing" textLength="85.1279" x="1573.121" y="1041.1504">ASP.NET Core</text><text fill="#E6EDF3" font-family="'Segoe UI, Inter, sans-serif'" font-size="14" lengthAdjust="spacing" textLength="46.8672" x="1557.9527" y="1059.7715">Identity</text></g><!--entity CLIENT--><g class="entity" data-qualified-name="CLIENT" data-source-line="64" id="ent0025"><ellipse cx="485.1846" cy="115.9219" fill="#3FB950" rx="16" ry="16" style="stroke:#3FB950;stroke-width:0.5;"/><path d="M485.1846,135.9219 C489.1846,135.9219 492.1846,135.9219 496.1846,131.9219 C504.1846,131.9219 512.1846,139.9219 512.1846,147.9219 L512.1846,151.9219 C512.1846,155.9219 508.1846,159.9219 504.1846,159.9219 L466.1846,159.9219 C462.1846,159.9219 458.1846,155.9219 458.1846,151.9219 L458.1846,147.9219 C458.1846,139.9219 466.1846,131.9219 474.1846,131.9219 C478.1846,135.9219 481.1846,135.9219 485.1846,135.9219" fill="#3FB950"/><text fill="#0D1117" font-family="'Segoe UI, Inter, sans-serif'" font-size="14" lengthAdjust="spacing" textLength="116.4639" x="426.9527" y="185.5293">Web/Mobile Client</text></g><!--link CI to API--><g class="link" data-entity-1="ent0003" data-entity-2="ent0008" data-link-type="dependency" data-source-line="69" id="lnk26"><path d="M194.2727,1360.9119 C203.2727,1353.0419 211.7527,1344.4919 218.9527,1335.4219 C311.3277,1218.9419 377.2677,1065.4444 420.2677,940.3244 C441.7677,877.7644 457.5327,822.2987 467.9995,782.1019 C473.233,762.0034 477.1419,745.7222 479.7809,734.2799 C480.4406,731.4194 481.021,728.8612 481.5228,726.6215 C481.7738,725.5016 480.7108,730.3201 480.9226,729.3615" fill="none" id="CI-to-API" style="stroke:#39C5CF;stroke-width:1.5;"/><polygon fill="#39C5CF" points="482.2169,723.5027,476.3697,731.428,481.1383,728.385,484.1813,733.1537,482.2169,723.5027" style="stroke:#39C5CF;stroke-width:1.5;"/><text fill="#C9D1D9" font-family="'Segoe UI, Inter, sans-serif'" font-size="12" lengthAdjust="spacing" textLength="73.9629" x="241.2398" y="1151.3711">(1) Deploys to</text></g><!--link CI to TESTS--><g class="link" data-entity-1="ent0003" data-entity-2="ent0019" data-link-type="dependency" data-source-line="70" id="lnk27"><path d="M195.2427,1443.1219 C363.5427,1500.4819 754.9627,1632.4319 1086.9527,1733.4219 C1092.7414,1735.1831 1098.7181,1736.9652 1104.7489,1738.7362 C1105.1258,1738.8469 1105.503,1738.9575 1105.8803,1739.0681 C1106.0689,1739.1234 1100.4995,1737.4925 1100.6882,1737.5477" fill="none" id="CI-to-TESTS" style="stroke:#3FB950;stroke-width:1.5;"/><polygon fill="#3FB950" points="1106.4464,1739.234,1098.9333,1732.8658,1101.6479,1737.8288,1096.685,1740.5434,1106.4464,1739.234" style="stroke:#3FB950;stroke-width:1.5;"/><text fill="#C9D1D9" font-family="'Segoe UI, Inter, sans-serif'" font-size="12" lengthAdjust="spacing" textLength="62.6191" x="622.2398" y="1567.3711">(2) Executes</text></g><!--link CLIENT to ENDP--><g class="link" data-entity-1="ent0025" data-entity-2="ent0009" data-link-type="dependency" data-source-line="73" id="lnk28"><path d="M484.9527,199.6719 C484.9527,255.0619 484.9527,337.8219 484.9527,394.5919" fill="none" id="CLIENT-to-ENDP" style="stroke:#58A6FF;stroke-width:1.5;"/><polygon fill="#58A6FF" points="484.9527,400.5919,488.9527,391.5919,484.9527,395.5919,480.9527,391.5919,484.9527,400.5919" style="stroke:#58A6FF;stroke-width:1.5;"/><text fill="#C9D1D9" font-family="'Segoe UI, Inter, sans-serif'" font-size="12" lengthAdjust="spacing" textLength="95.9355" x="415.7398" y="305.6211">(3) HTTP Requests</text></g><!--link ENDP to FILT--><g class="link" data-entity-1="ent0009" data-entity-2="ent0011" data-link-type="dependency" data-source-line="74" id="lnk29"><path d="M568.1527,493.3819 C576.8627,497.4619 585.5827,501.5419 593.9527,505.4219 C645.5127,529.3419 698.2974,553.3958 743.3474,573.8058" fill="none" id="ENDP-to-FILT" style="stroke:#58A6FF;stroke-width:1.5;"/><polygon fill="#58A6FF" points="748.8127,576.2819,742.2655,568.9243,744.2583,574.2185,738.9641,576.2113,748.8127,576.2819" style="stroke:#58A6FF;stroke-width:1.5;"/><text fill="#C9D1D9" font-family="'Segoe UI, Inter, sans-serif'" font-size="12" lengthAdjust="spacing" textLength="48.2754" x="629.7398" y="492.3711">(4) Filters</text></g><!--link FILT to DTO--><g class="link" data-entity-1="ent0011" data-entity-2="ent0017" data-link-type="dependency" data-source-line="75" id="lnk30"><path d="M888.5527,664.0219 C940.3727,709.2719 1015.7027,776.2719 1078.9527,837.4219 C1107.5027,865.0219 1134.5666,893.2169 1157.1666,917.2969" fill="none" id="FILT-to-DTO" style="stroke:#58A6FF;stroke-width:1.5;"/><polygon fill="#58A6FF" points="1161.2727,921.6719,1158.0302,912.3721,1157.8509,918.0261,1152.1969,917.8468,1161.2727,921.6719" style="stroke:#58A6FF;stroke-width:1.5;"/><text fill="#C9D1D9" font-family="'Segoe UI, Inter, sans-serif'" font-size="12" lengthAdjust="spacing" textLength="64.9746" x="982.2398" y="711.3711">(5) Validates</text></g><!--link ENDP to DTO--><g class="link" data-entity-1="ent0009" data-entity-2="ent0017" data-link-type="dependency" data-source-line="76" id="lnk31"><path d="M568.2127,450.2619 C664.8627,449.2319 826.6627,459.8719 941.9527,531.4219 C1090.1927,623.4319 1160.0827,831.9364 1183.1727,915.9564" fill="none" id="ENDP-to-DTO" style="stroke:#58A6FF;stroke-width:1.5;"/><polygon fill="#58A6FF" points="1184.7627,921.7419,1186.2347,912.0037,1183.4377,916.9206,1178.5207,914.1236,1184.7627,921.7419" style="stroke:#58A6FF;stroke-width:1.5;"/><text fill="#C9D1D9" font-family="'Segoe UI, Inter, sans-serif'" font-size="12" lengthAdjust="spacing" textLength="46.0254" x="802.7398" y="448.3711">(6) Maps</text></g><!--link ENDP to INTF--><g class="link" data-entity-1="ent0009" data-entity-2="ent0014" data-link-type="dependency" data-source-line="79" id="lnk32"><path d="M549.8927,508.0419 C556.9227,515.7419 563.5027,523.9419 568.9527,532.4219 C587.7227,561.6319 578.8827,575.1419 593.9527,606.4219 C665.3327,754.6019 783.0876,910.8914 813.6476,950.5014" fill="none" id="ENDP-to-INTF" style="stroke:#58A6FF;stroke-width:1.5;"/><polygon fill="#58A6FF" points="817.3127,955.2519,814.982,945.6828,814.2584,951.2931,808.648,950.5696,817.3127,955.2519" style="stroke:#58A6FF;stroke-width:1.5;"/><text fill="#C9D1D9" font-family="'Segoe UI, Inter, sans-serif'" font-size="12" lengthAdjust="spacing" textLength="50.8652" x="628.2398" y="593.3711">(7) Injects</text></g><!--reverse link INTF to SVC--><g class="link" data-entity-1="ent0014" data-entity-2="ent0013" data-link-type="extension" data-source-line="80" id="lnk34"><path d="M825.4527,991.4919 C825.4527,1021.0119 825.4527,1097.9719 825.4527,1158.9119" fill="none" id="INTF-backto-SVC" style="stroke:#3FB950;stroke-width:1.5;stroke-dasharray:7,7;"/><polygon fill="none" points="825.4527,973.4919,819.4527,991.4919,831.4527,991.4919,825.4527,973.4919" style="stroke:#3FB950;stroke-width:1.5;"/><text fill="#C9D1D9" font-family="'Segoe UI, Inter, sans-serif'" font-size="12" lengthAdjust="spacing" textLength="79.3242" x="764.7398" y="1071.6211">(8) Implements</text></g><!--link MW to SVC--><g class="link" data-entity-1="ent0010" data-entity-2="ent0013" data-link-type="dependency" data-source-line="81" id="lnk35"><path d="M566.9527,665.3419 C567.6427,666.3519 568.3127,667.3819 568.9527,668.4219 C612.8527,739.8619 564.9527,776.7419 593.9527,855.4219 C637.3927,973.2719 721.2177,1087.6082 775.0377,1154.0982" fill="none" id="MW-to-SVC" style="stroke:#58A6FF;stroke-width:1.5;"/><polygon fill="#58A6FF" points="778.8127,1158.7619,776.2593,1149.2498,775.6669,1154.8755,770.0411,1154.283,778.8127,1158.7619" style="stroke:#58A6FF;stroke-width:1.5;"/><text fill="#C9D1D9" font-family="'Segoe UI, Inter, sans-serif'" font-size="12" lengthAdjust="spacing" textLength="91.3359" x="608.2398" y="842.3711">(9) Authorizes via</text></g><!--link SVC to DATA--><g class="link" data-entity-1="ent0013" data-entity-2="ent0016" data-link-type="dependency" data-source-line="84" id="lnk36"><path d="M899.5327,1187.9719 C916.1027,1182.4819 933.6227,1176.7119 949.9527,1171.4219 C1003.4127,1154.0919 1057.8984,1136.85 1105.0784,1122.03" fill="none" id="SVC-to-DATA" style="stroke:#3FB950;stroke-width:1.5;"/><polygon fill="#3FB950" points="1110.8027,1120.2319,1101.0176,1119.1128,1106.0325,1121.7303,1103.415,1126.7451,1110.8027,1120.2319" style="stroke:#3FB950;stroke-width:1.5;"/><text fill="#C9D1D9" font-family="'Segoe UI, Inter, sans-serif'" font-size="12" lengthAdjust="spacing" textLength="80.9297" x="974.2398" y="1118.3711">(10) Persists via</text></g><!--link SVC to MOD--><g class="link" data-entity-1="ent0013" data-entity-2="ent0018" data-link-type="dependency" data-source-line="85" id="lnk37"><path d="M899.8427,1216.4219 C971.2727,1220.3119 1072.0515,1225.8057 1135.2315,1229.2457" fill="none" id="SVC-to-MOD" style="stroke:#3FB950;stroke-width:1.5;"/><polygon fill="#3FB950" points="1141.2227,1229.5719,1132.4534,1225.0885,1136.2301,1229.3,1132.0185,1233.0767,1141.2227,1229.5719" style="stroke:#3FB950;stroke-width:1.5;"/><text fill="#C9D1D9" font-family="'Segoe UI, Inter, sans-serif'" font-size="12" lengthAdjust="spacing" textLength="88.3359" x="970.7398" y="1207.3711">(11) Manipulates</text></g><!--link DATA to DB--><g class="link" data-entity-1="ent0016" data-entity-2="ent0023" data-link-type="dependency" data-source-line="86" id="lnk38"><path d="M1278.2327,1112.7119 C1359.0127,1130.5519 1474.0838,1155.9681 1546.0438,1171.8581" fill="none" id="DATA-to-DB" style="stroke:#A371F7;stroke-width:1.5;"/><polygon fill="#A371F7" points="1551.9027,1173.1519,1543.9769,1167.3054,1547.0203,1172.0738,1542.2519,1175.1172,1551.9027,1173.1519" style="stroke:#A371F7;stroke-width:1.5;"/><text fill="#C9D1D9" font-family="'Segoe UI, Inter, sans-serif'" font-size="12" lengthAdjust="spacing" textLength="79.8164" x="1376.7398" y="1119.3711">(12) EF Core 10</text></g><!--link DATA to IDENTITY--><g class="link" data-entity-1="ent0016" data-entity-2="ent0024" data-link-type="dependency" data-source-line="87" id="lnk39"><path d="M1278.2327,1079.7119 C1352.2527,1066.5619 1454.0752,1048.4717 1526.9452,1035.5217" fill="none" id="DATA-to-IDENTITY" style="stroke:#A371F7;stroke-width:1.5;"/><polygon fill="#A371F7" points="1532.8527,1034.4719,1523.2916,1032.1083,1527.9298,1035.3467,1524.6914,1039.9849,1532.8527,1034.4719" style="stroke:#A371F7;stroke-width:1.5;"/><text fill="#C9D1D9" font-family="'Segoe UI, Inter, sans-serif'" font-size="12" lengthAdjust="spacing" textLength="88.6406" x="1372.2398" y="1034.3711">(13) Stores Users</text></g><!--reverse link SVC to UT--><g class="link" data-entity-1="ent0013" data-entity-2="ent0020" data-link-type="dependency" data-source-line="90" id="lnk41"><path d="M904.7626,1253.5331 C968.2326,1287.5031 1049.2327,1332.7919 1078.9527,1358.4219 C1109.3127,1384.6019 1137.4227,1419.7219 1158.1927,1448.7219" fill="none" id="SVC-backto-UT" style="stroke:#F85149;stroke-width:1.5;stroke-dasharray:7,7;"/><polygon fill="#F85149" points="899.4727,1250.7019,905.5201,1258.4754,903.881,1253.0613,909.2952,1251.4221,899.4727,1250.7019" style="stroke:#F85149;stroke-width:1.5;"/><text fill="#C9D1D9" font-family="'Segoe UI, Inter, sans-serif'" font-size="12" lengthAdjust="spacing" textLength="100.8633" x="964.2398" y="1268.3711">(14) Mocks &amp; Tests</text></g><!--reverse link ENDP to IT--><g class="link" data-entity-1="ent0009" data-entity-2="ent0021" data-link-type="dependency" data-source-line="91" id="lnk43"><path d="M556.9159,512.9278 C563.1359,520.4178 564.8127,523.8819 568.9527,532.4219 C596.8027,589.8219 583.3527,755.5119 593.9527,818.4219 C634.3227,1057.9519 587.3927,1149.9519 727.4527,1348.4219 C754.7227,1387.0619 1009.5527,1546.5119 1130.4127,1620.8919" fill="none" id="ENDP-backto-IT" style="stroke:#F85149;stroke-width:1.5;stroke-dasharray:7,7;"/><polygon fill="#F85149" points="553.0827,508.3119,555.7552,517.7912,556.277,512.1584,561.9098,512.6802,553.0827,508.3119" style="stroke:#F85149;stroke-width:1.5;"/><text fill="#C9D1D9" font-family="'Segoe UI, Inter, sans-serif'" font-size="12" lengthAdjust="spacing" textLength="146.6953" x="752.2398" y="1335.3711">(15) WebApplicationFactory</text></g><g class="footer" data-source-line="18"><text fill="#E6EDF3" font-family="'Segoe UI, Inter, sans-serif'" font-size="10" lengthAdjust="spacing" textLength="137.3877" x="800.2825" y="1830.2129">Architecture Overview Diagram</text></g><?plantuml-src fLR_Rjf84FwVfvWIgOsbyiCGaXAbaGYs6qwGq61QdLfKBVO2sonUdxrEmjr5keUu9xmdkTbT6sWWkhQNFvfqT-QRcMzcllKhgFpSJ-aLU8pJKmZ4CXOHZMGrpfOSZtyUS9WbiKWf09n2ju25V_xw6_faHHCQGYS95apIG6O9XPVGxS6GnPIpYAAxDWBGxeu8KZWS3_eMNdGokH29kHY81Lag9CxmffjG8l5_wgPHRnnNwisAVOGNepXX65jVs3g5OIA-Oc0OKPd56DiJMHGIoKJqFseklGZf3BE7ySZzqXsF_El15__I7RYb5omAU1PIg5PhWOXcR5vBvOfJmt99Cidf3vC4XtbTjbN2hD--VGkNb8GqgNb2I2GFJqeBVG9TT60134X4vdIfOenMgQHBg7mRuFgE9dUCtfTc1cBl9JYCp1EoBA9YgYBJN4eMpLCTbzEP12aWOVE5X90bYA7OJMzP51DqXaY4DAKnjEfRXmc9RlF37Dnzm3mYmcjOkPa91HzmaOLGFWi45ydfWNliEbxp_EobFZy_g-dpStZ7v6Ks1JSGgIwt32I5Tpt_Sdm11_QnVT5em1ybDHZhmT-0jjvqZZrFWOhv3cH7bvDgGCpix0p_hNKTE3-7WxfZs_Q9XesGHPWAASKIn0njJk4YOpny3Ntit6lmQIe_HuUXa16LC5LNDObdLkcn8A0Jnvm5UZQBfYa6OXBSOY-XR5gxwMndsCljoaKgMAFEPkspK-9KF6nAxCHilI27rIlN1xjkwKeLDfPg-e2b6kwUuSzxqxAFsWYUBXZbMrrH6-n6OIoG0iEWU-KCDOSYaedWNAF_5FOlztB0mf3JUv9GZJtug90tXyyWVo2S6GL09SIHqxvUh-yhRzDjSr7uF_uGfrs1aVUJshs-SR-VrQPtqMxLdqwbedIajZCmHOy-T1LaVhHTCd9Eand1mtBlgLVlolUKMszji-Mu_cCck9AKiaCaqMvEn-zyyQxxZdkpbVip-JkDThlHmFmN90ahOSBkwFRanSvK3G5za6jebT6G9Yd3cOw-pUb93CU_DlE4VpndCq3PuSPgSEsihHxtzbIjPrgqJVluxiWV_NUtnX6JUhbDfB6UeWTzkd_y5EMegMhCJ2jsFHutcj2BPWb9PP8POTxeeX9LA1UQ-SIk_4JpSDp9bAJqEvipUj_N0vNlXdEXCdGAZ3p9FHtlD4zixsIV3eo6UX7KRdoEUY5wCRaovJlkbT_pVzMzpxk14TO431DyEo9fLD6KVrXKRMacI23nAw7yaKvh0p5bwdtb35tColLxY5-0tL2kWJ2_sBnUUF79hZGcIjfdNDoNy7Vbqq6ptMrrlKaexgFAkHR3KoZ3eMs1GsCkLgbwySg5iLxKmjZCZJPlMFYeqI13dKTZ5QfPEPvW5hzbE33WeWIkyANV25B9fAj0ZRXCzAkAg5etDMZJWalV7nOe2bbVRdpoHBIaQPSZ2uoYAMDzl1i05yaOjwmY8VeyzjhwsC9FZRWexwJIdk2pb-8tIvf2NynPy0o05Y2DS6BXyAgjKo1ApQfhHjMdHVNFRUCtQBoCkNx-b3rA_Wwqmj36RIl_X6I_OobtZEHPslMAtPpeWKRsjmH7Xzzfg5Ocq_wwLPWNU7izK6vo1rlH4x4uupcT6WmTpAgiGrpazcfYFFE4sFLTyw9PwwKnNZWI8zm1331EJPDrcKSLkpM1znbsKwwWawOPVdHXbQXHoB5vM2TPNDsYpCPH6OZWDaLY_7owUZlccs6qSLfmyRQ-N3ozZYlq-nS0?></g></svg>