<?plantuml 1.2026.2?><svg xmlns="http://www.w3.org/2000/svg" xmlns:xlink="http://www.w3.org/1999/xlink" contentStyleType="text/css" data-diagram-type="CLASS" height="1856px" preserveAspectRatio="none" style="width:4839px;height:1856px;background:#0D1117;" version="1.1" viewBox="0 0 4839 1856" width="4839px" zoomAndPan="magnify"><title>Class Diagram &#8212; Appointment Domain Architecture (Sprint 5)</title><defs/><g><rect fill="#0D1117" height="1856" style="stroke:none;stroke-width:1;" width="4839" x="0" y="0"/><g class="header" data-source-line="17"><text fill="#E6EDF3" font-family="'Segoe UI, Inter, sans-serif'" font-size="10" lengthAdjust="spacing" textLength="194.9121" x="4620.6597" y="20.791">Clinic Management System - Domain Model</text></g><g class="title" data-source-line="14"><text fill="#E6EDF3" font-family="'Segoe UI, Inter, sans-serif'" font-size="14" font-weight="bold" lengthAdjust="spacing" textLength="409.4316" x="2208.0701" y="69.4082">Class Diagram &#8212; Appointment Domain Architecture (Sprint 5)</text></g><!--cluster ClinicManagementAPI--><g class="cluster" data-qualified-name="ClinicManagementAPI" data-source-line="29" id="ent0004"><path d="M833,99.9219 L1014.125,99.9219 A9,9 0 0 1 1020.125,105.9219 L1027.125,147.2031 L4645,147.2031 A6,6 0 0 1 4651,153.2031 L4651,1802.9219 A6,6 0 0 1 4645,1808.9219 L833,1808.9219 A6,6 0 0 1 827,1802.9219 L827,105.9219 A6,6 0 0 1 833,99.9219" fill="#161B22" style="stroke:#30363D;stroke-width:1.5;"/><line style="stroke:#30363D;stroke-width:1.5;" x1="827" x2="1027.125" y1="147.2031" y2="147.2031"/><text fill="#58A6FF" font-family="'Segoe UI, Inter, sans-serif'" font-size="16" font-weight="bold" lengthAdjust="spacing" textLength="167.125" x="841" y="129.1875">ClinicManagementAPI</text></g><!--cluster Core--><g class="cluster" data-qualified-name="ClinicManagementAPI.Core" data-source-line="29" id="ent0005"><path d="M857,167.9219 L905.7891,167.9219 A9,9 0 0 1 911.7891,173.9219 L918.7891,215.2031 L4621,215.2031 A6,6 0 0 1 4627,221.2031 L4627,1778.9219 A6,6 0 0 1 4621,1784.9219 L857,1784.9219 A6,6 0 0 1 851,1778.9219 L851,173.9219 A6,6 0 0 1 857,167.9219" fill="#161B22" style="stroke:#30363D;stroke-width:1.5;"/><line style="stroke:#30363D;stroke-width:1.5;" x1="851" x2="918.7891" y1="215.2031" y2="215.2031"/><text fill="#58A6FF" font-family="'Segoe UI, Inter, sans-serif'" font-size="16" font-weight="bold" lengthAdjust="spacing" textLength="34.7891" x="865" y="197.1875">Core</text></g><!--cluster Interfaces--><g class="cluster" data-qualified-name="ClinicManagementAPI.Core.Interfaces" data-source-line="27" id="ent0002"><path d="M881,854.4219 L969.1172,854.4219 A9,9 0 0 1 975.1172,860.4219 L982.1172,901.7031 L1717,901.7031 A6,6 0 0 1 1723,907.7031 L1723,1380.4219 A6,6 0 0 1 1717,1386.4219 L881,1386.4219 A6,6 0 0 1 875,1380.4219 L875,860.4219 A6,6 0 0 1 881,854.4219" fill="#161B22" style="stroke:#30363D;stroke-width:1.5;"/><line style="stroke:#30363D;stroke-width:1.5;" x1="875" x2="982.1172" y1="901.7031" y2="901.7031"/><text fill="#58A6FF" font-family="'Segoe UI, Inter, sans-serif'" font-size="16" font-weight="bold" lengthAdjust="spacing" textLength="74.1172" x="889" y="883.6875">Interfaces</text></g><!--cluster Models--><g class="cluster" data-qualified-name="ClinicManagementAPI.Core.Models" data-source-line="41" id="ent0006"><path d="M3787,235.9219 L3856.2422,235.9219 A9,9 0 0 1 3862.2422,241.9219 L3869.2422,283.2031 L4597,283.2031 A6,6 0 0 1 4603,289.2031 L4603,1474.9219 A6,6 0 0 1 4597,1480.9219 L3787,1480.9219 A6,6 0 0 1 3781,1474.9219 L3781,241.9219 A6,6 0 0 1 3787,235.9219" fill="#0D1117" style="stroke:#30363D;stroke-width:1.5;"/><line style="stroke:#30363D;stroke-width:1.5;" x1="3781" x2="3869.2422" y1="283.2031" y2="283.2031"/><text fill="#58A6FF" font-family="'Segoe UI, Inter, sans-serif'" font-size="16" font-weight="bold" lengthAdjust="spacing" textLength="55.2422" x="3795" y="265.1875">Models</text></g><!--cluster DTOs--><g class="cluster" data-qualified-name="ClinicManagementAPI.Core.DTOs" data-source-line="96" id="ent0014"><path d="M2042,255.4219 L2096.3438,255.4219 A9,9 0 0 1 2102.3438,261.4219 L2109.3438,302.7031 L3751,302.7031 A6,6 0 0 1 3757,308.7031 L3757,1500.9219 A6,6 0 0 1 3751,1506.9219 L2042,1506.9219 A6,6 0 0 1 2036,1500.9219 L2036,261.4219 A6,6 0 0 1 2042,255.4219" fill="#161B22" style="stroke:#30363D;stroke-width:1.5;"/><line style="stroke:#30363D;stroke-width:1.5;" x1="2036" x2="2109.3438" y1="302.7031" y2="302.7031"/><text fill="#58A6FF" font-family="'Segoe UI, Inter, sans-serif'" font-size="16" font-weight="bold" lengthAdjust="spacing" textLength="40.3438" x="2050" y="284.6875">DTOs</text></g><!--cluster Appointments--><g class="cluster" data-qualified-name="ClinicManagementAPI.Core.DTOs.Appointments" data-source-line="94" id="ent0012"><path d="M2066,757.9219 L2187.5859,757.9219 A9,9 0 0 1 2193.5859,763.9219 L2200.5859,805.2031 L3727,805.2031 A6,6 0 0 1 3733,811.2031 L3733,1476.9219 A6,6 0 0 1 3727,1482.9219 L2066,1482.9219 A6,6 0 0 1 2060,1476.9219 L2060,763.9219 A6,6 0 0 1 2066,757.9219" fill="#161B22" style="stroke:#30363D;stroke-width:1.5;"/><line style="stroke:#30363D;stroke-width:1.5;" x1="2060" x2="2200.5859" y1="805.2031" y2="805.2031"/><text fill="#58A6FF" font-family="'Segoe UI, Inter, sans-serif'" font-size="16" font-weight="bold" lengthAdjust="spacing" textLength="107.5859" x="2074" y="787.1875">Appointments</text></g><!--cluster Services--><g class="cluster" data-qualified-name="ClinicManagementAPI.Core.Services" data-source-line="171" id="ent0031"><path d="M1201,1575.9219 L1275.5859,1575.9219 A9,9 0 0 1 1281.5859,1581.9219 L1288.5859,1623.2031 L1397,1623.2031 A6,6 0 0 1 1403,1629.2031 L1403,1754.9219 A6,6 0 0 1 1397,1760.9219 L1201,1760.9219 A6,6 0 0 1 1195,1754.9219 L1195,1581.9219 A6,6 0 0 1 1201,1575.9219" fill="#161B22" style="stroke:#30363D;stroke-width:1.5;"/><line style="stroke:#30363D;stroke-width:1.5;" x1="1195" x2="1288.5859" y1="1623.2031" y2="1623.2031"/><text fill="#58A6FF" font-family="'Segoe UI, Inter, sans-serif'" font-size="16" font-weight="bold" lengthAdjust="spacing" textLength="60.5859" x="1209" y="1605.1875">Services</text></g><!--class IAppointmentService--><g class="entity" data-qualified-name="ClinicManagementAPI.Core.Interfaces.IAppointmentService" data-source-line="29" id="ent0003"><rect fill="#161B22" height="412.2109" rx="6" ry="6" style="stroke:#A371F7;stroke-width:0.5;" width="815.6221" x="891" y="958.4219"/><ellipse cx="1222.6177" cy="1002.043" fill="#A371F7" rx="10" ry="10" style="stroke:#181818;stroke-width:1;"/><path d="M1223.5239,999.1523 L1223.5239,1004.6367 L1224.9302,1004.6367 Q1225.4458,1004.6367 1225.6489,1004.8398 Q1225.8677,1005.0273 1225.8677,1005.3398 Q1225.8677,1005.6523 1225.6489,1005.8555 Q1225.4458,1006.043 1224.9302,1006.043 L1220.6958,1006.043 Q1220.1958,1006.043 1219.9771,1005.8555 Q1219.7739,1005.6523 1219.7739,1005.3398 Q1219.7739,1005.0273 1219.9771,1004.8398 Q1220.1958,1004.6367 1220.6958,1004.6367 L1222.1177,1004.6367 L1222.1177,999.1523 L1220.6958,999.1523 Q1220.1958,999.1523 1219.9771,998.9648 Q1219.7739,998.7617 1219.7739,998.4492 Q1219.7739,998.1367 1219.9771,997.9492 Q1220.1958,997.7461 1220.6958,997.7461 L1224.9302,997.7617 Q1225.4458,997.7617 1225.6489,997.9492 Q1225.8677,998.1367 1225.8677,998.4492 Q1225.8677,998.7617 1225.6489,998.9648 Q1225.4458,999.1523 1224.9302,999.1523 L1223.5239,999.1523 Z " fill="#E6EDF3"/><text fill="#E6EDF3" font-family="Segoe UI, Inter, sans-serif" font-size="14" font-style="italic" lengthAdjust="spacing" textLength="66.9375" x="1280.3423" y="988.5293">&#171;Interface&#187;</text><text fill="#C9D1D9" font-family="'Segoe UI, Inter, sans-serif'" font-size="14" font-style="italic" lengthAdjust="spacing" textLength="124.3867" x="1251.6177" y="1027.1504">IAppointmentService</text><line style="stroke:#A371F7;stroke-width:0.5;" x1="892" x2="1705.6221" y1="1045.6641" y2="1045.6641"/><line style="stroke:#A371F7;stroke-width:0.5;" x1="892" x2="1705.6221" y1="1053.6641" y2="1053.6641"/><g data-visibility-modifier="PUBLIC_METHOD"><ellipse cx="902" cy="1078.4746" fill="#84BE84" rx="3" ry="3" style="stroke:#038048;stroke-width:1;"/></g><text fill="#C9D1D9" font-family="'Segoe UI, Inter, sans-serif'" font-size="14" lengthAdjust="spacing" textLength="651.5469" x="920" y="1082.7715">GetAllAsync(filter: AppointmentFilterRequest) : Task&lt;Result&lt;PagedResponse&lt;AppointmentResponse&gt;&gt;&gt;</text><g data-visibility-modifier="PUBLIC_METHOD"><ellipse cx="902" cy="1117.0957" fill="#84BE84" rx="3" ry="3" style="stroke:#038048;stroke-width:1;"/></g><text fill="#C9D1D9" font-family="'Segoe UI, Inter, sans-serif'" font-size="14" lengthAdjust="spacing" textLength="770.6221" x="920" y="1121.3926">GetByPatientAsync(patientId: int, pagination: PaginationRequest) : Task&lt;Result&lt;PagedResponse&lt;AppointmentResponse&gt;&gt;&gt;</text><g data-visibility-modifier="PUBLIC_METHOD"><ellipse cx="902" cy="1155.7168" fill="#84BE84" rx="3" ry="3" style="stroke:#038048;stroke-width:1;"/></g><text fill="#C9D1D9" font-family="'Segoe UI, Inter, sans-serif'" font-size="14" lengthAdjust="spacing" textLength="767.0879" x="920" y="1160.0137">GetByDoctorAsync(doctorId: int, pagination: PaginationRequest) : Task&lt;Result&lt;PagedResponse&lt;AppointmentResponse&gt;&gt;&gt;</text><g data-visibility-modifier="PUBLIC_METHOD"><ellipse cx="902" cy="1194.3379" fill="#84BE84" rx="3" ry="3" style="stroke:#038048;stroke-width:1;"/></g><text fill="#C9D1D9" font-family="'Segoe UI, Inter, sans-serif'" font-size="14" lengthAdjust="spacing" textLength="382.7031" x="920" y="1198.6348">GetByIdAsync(id: int) : Task&lt;Result&lt;AppointmentResponse&gt;&gt;</text><g data-visibility-modifier="PUBLIC_METHOD"><ellipse cx="902" cy="1232.959" fill="#84BE84" rx="3" ry="3" style="stroke:#038048;stroke-width:1;"/></g><text fill="#C9D1D9" font-family="'Segoe UI, Inter, sans-serif'" font-size="14" lengthAdjust="spacing" textLength="564.6895" x="920" y="1237.2559">CreateAsync(request: CreateAppointmentRequest) : Task&lt;Result&lt;AppointmentResponse&gt;&gt;</text><g data-visibility-modifier="PUBLIC_METHOD"><ellipse cx="902" cy="1271.5801" fill="#84BE84" rx="3" ry="3" style="stroke:#038048;stroke-width:1;"/></g><text fill="#C9D1D9" font-family="'Segoe UI, Inter, sans-serif'" font-size="14" lengthAdjust="spacing" textLength="616.5947" x="920" y="1275.877">UpdateAsync(id: int, request: UpdateAppointmentRequest) : Task&lt;Result&lt;AppointmentResponse&gt;&gt;</text><g data-visibility-modifier="PUBLIC_METHOD"><ellipse cx="902" cy="1310.2012" fill="#84BE84" rx="3" ry="3" style="stroke:#038048;stroke-width:1;"/></g><text fill="#C9D1D9" font-family="'Segoe UI, Inter, sans-serif'" font-size="14" lengthAdjust="spacing" textLength="692.4189" x="920" y="1314.498">UpdateStatusAsync(id: int, request: UpdateAppointmentStatusRequest) : Task&lt;Result&lt;AppointmentResponse&gt;&gt;</text><g data-visibility-modifier="PUBLIC_METHOD"><ellipse cx="902" cy="1348.8223" fill="#84BE84" rx="3" ry="3" style="stroke:#038048;stroke-width:1;"/></g><text fill="#C9D1D9" font-family="'Segoe UI, Inter, sans-serif'" font-size="14" lengthAdjust="spacing" textLength="261.1533" x="920" y="1353.1191">DeleteAsync(id: int) : Task&lt;Result&lt;bool&gt;&gt;</text></g><!--class <color:#3FB950><&box></color> Result<T>--><g class="entity" data-qualified-name="ClinicManagementAPI.Core.Models..color..3FB950...box...color. Result.T." data-source-line="43" id="ent0007"><rect fill="#161B22" height="334.9688" rx="6" ry="6" style="stroke:#A371F7;stroke-width:0.5;" width="301.3271" x="3797.5" y="339.9219"/><ellipse cx="3894.4881" cy="383.543" fill="#3FB950" rx="10" ry="10" style="stroke:#181818;stroke-width:1;"/><path d="M3892.6444,387.1836 Q3892.4569,387.4023 3892.3475,387.4648 Q3892.2381,387.5273 3892.0662,387.5273 Q3891.7537,387.5273 3891.5506,387.3242 Q3891.3631,387.1055 3891.3631,386.6055 L3891.3631,385.6523 Q3891.3631,385.1523 3891.5506,384.9336 Q3891.7537,384.7148 3892.0662,384.7148 Q3892.3162,384.7148 3892.4725,384.8555 Q3892.6444,384.9805 3892.7381,385.293 Q3892.8319,385.5898 3892.9256,385.6992 Q3893.1131,385.9023 3893.6131,386.1211 Q3894.1287,386.3398 3894.7381,386.3398 Q3895.6756,386.3398 3896.2694,385.9023 Q3896.66,385.6367 3896.66,385.2461 Q3896.66,384.9961 3896.4725,384.7617 Q3896.285,384.5273 3895.8631,384.3867 Q3895.5975,384.2773 3894.6444,384.1055 Q3893.5037,383.8867 3892.91,383.5898 Q3892.3162,383.293 3891.9725,382.7461 Q3891.6444,382.1992 3891.6444,381.5586 Q3891.6444,380.5586 3892.4725,379.8086 Q3893.3162,379.043 3894.66,379.043 Q3895.2069,379.043 3895.66,379.168 Q3896.1287,379.2773 3896.5037,379.5273 Q3896.785,379.2617 3897.0506,379.2617 Q3897.3631,379.2617 3897.5506,379.4805 Q3897.7537,379.6992 3897.7537,380.1992 L3897.7537,381.2461 Q3897.7537,381.7461 3897.5506,381.9648 Q3897.3631,382.1836 3897.0506,382.1836 Q3896.785,382.1836 3896.5975,382.0273 Q3896.4569,381.9023 3896.3787,381.5586 Q3896.3006,381.2148 3896.1756,381.0586 Q3895.9881,380.8086 3895.5819,380.6367 Q3895.1912,380.4492 3894.6756,380.4492 Q3893.91,380.4492 3893.4725,380.8086 Q3893.035,381.1523 3893.035,381.5273 Q3893.035,381.793 3893.2069,382.043 Q3893.3944,382.2773 3893.7381,382.418 Q3893.9725,382.5117 3895.0506,382.7305 Q3896.1287,382.9336 3896.7069,383.1836 Q3897.285,383.4336 3897.66,383.9805 Q3898.0506,384.5273 3898.0506,385.2617 Q3898.0506,386.3086 3897.3162,386.9336 Q3896.3475,387.7461 3894.8475,387.7461 Q3894.2694,387.7461 3893.7069,387.6055 Q3893.16,387.4648 3892.6444,387.1836 Z " fill="#E6EDF3"/><text fill="#E6EDF3" font-family="Segoe UI, Inter, sans-serif" font-size="14" font-style="italic" lengthAdjust="spacing" textLength="68.8926" x="3928.7173" y="370.0293">&#171;Structure&#187;</text><path d="M3924.4881,399.3307 L3924.4881,400.4974 L3933.8215,400.4974 L3933.8215,399.3307 L3924.4881,399.3307 M3924.4881,401.6641 L3924.4881,408.5591 C3924.4881,408.6174 3924.5348,408.6641 3924.5931,408.6641 L3933.7048,408.6641 C3933.7631,408.6641 3933.8098,408.6174 3933.8098,408.5591 L3933.8098,401.6641 L3930.3448,401.6641 L3930.3448,402.8657 L3927.9765,402.8657 L3927.9765,401.6641 L3924.4765,401.6641" fill="#3FB950"/><text fill="#C9D1D9" font-family="'Segoe UI, Inter, sans-serif'" font-size="14" lengthAdjust="spacing" textLength="64.1826" x="3938.6564" y="408.6504">Result&lt;T&gt;</text><line style="stroke:#A371F7;stroke-width:0.5;" x1="3798.5" x2="4097.8271" y1="427.1641" y2="427.1641"/><g data-visibility-modifier="PUBLIC_FIELD"><ellipse cx="3808.5" cy="451.9746" fill="none" rx="3" ry="3" style="stroke:#038048;stroke-width:1;"/></g><text fill="#C9D1D9" font-family="'Segoe UI, Inter, sans-serif'" font-size="14" lengthAdjust="spacing" textLength="95.8945" x="3826.5" y="456.2715">IsSuccess : bool</text><g data-visibility-modifier="PUBLIC_FIELD"><ellipse cx="3808.5" cy="490.5957" fill="none" rx="3" ry="3" style="stroke:#038048;stroke-width:1;"/></g><text fill="#C9D1D9" font-family="'Segoe UI, Inter, sans-serif'" font-size="14" lengthAdjust="spacing" textLength="52.4932" x="3826.5" y="494.8926">Value : T</text><g data-visibility-modifier="PUBLIC_FIELD"><ellipse cx="3808.5" cy="529.2168" fill="none" rx="3" ry="3" style="stroke:#038048;stroke-width:1;"/></g><text fill="#C9D1D9" font-family="'Segoe UI, Inter, sans-serif'" font-size="14" lengthAdjust="spacing" textLength="75.7012" x="3826.5" y="533.5137">Error : string</text><g data-visibility-modifier="PUBLIC_FIELD"><ellipse cx="3808.5" cy="567.8379" fill="none" rx="3" ry="3" style="stroke:#038048;stroke-width:1;"/></g><text fill="#C9D1D9" font-family="'Segoe UI, Inter, sans-serif'" font-size="14" lengthAdjust="spacing" textLength="97.1113" x="3826.5" y="572.1348">StatusCode : int</text><line style="stroke:#A371F7;stroke-width:0.5;" x1="3798.5" x2="4097.8271" y1="589.6484" y2="589.6484"/><g data-visibility-modifier="PUBLIC_METHOD"><ellipse cx="3808.5" cy="614.459" fill="#84BE84" rx="3" ry="3" style="stroke:#038048;stroke-width:1;"/></g><text fill="#C9D1D9" font-family="'Segoe UI, Inter, sans-serif'" font-size="14" lengthAdjust="spacing" text-decoration="underline" textLength="177.502" x="3826.5" y="618.7559">Success(value: T) : Result&lt;T&gt;</text><g data-visibility-modifier="PUBLIC_METHOD"><ellipse cx="3808.5" cy="653.0801" fill="#84BE84" rx="3" ry="3" style="stroke:#038048;stroke-width:1;"/></g><text fill="#C9D1D9" font-family="'Segoe UI, Inter, sans-serif'" font-size="14" lengthAdjust="spacing" text-decoration="underline" textLength="256.3271" x="3826.5" y="657.377">Failure(error: string, code: int) : Result&lt;T&gt;</text></g><!--class <color:#A371F7><&list></color> AppointmentStatus--><g class="entity" data-qualified-name="ClinicManagementAPI.Core.Models..color..A371F7...list...color. AppointmentStatus" data-source-line="52" id="ent0008"><rect fill="#161B22" height="219.1055" rx="6" ry="6" style="stroke:#A371F7;stroke-width:0.5;" width="184.8792" x="4158.5" y="397.9219"/><ellipse cx="4172.5" cy="441.543" fill="#EB937F" rx="10" ry="10" style="stroke:#181818;stroke-width:1;"/><path d="M4171.7656,442.0898 L4171.7656,444.1367 L4175.3438,444.1367 L4175.3438,443.3867 Q4175.3438,442.8711 4175.5313,442.668 Q4175.7344,442.4492 4176.0469,442.4492 Q4176.3438,442.4492 4176.5313,442.668 Q4176.7344,442.8711 4176.7344,443.3867 L4176.7344,445.543 L4170.1406,445.543 Q4169.6406,445.543 4169.4219,445.3555 Q4169.2031,445.1523 4169.2031,444.8398 Q4169.2031,444.5273 4169.4219,444.3398 Q4169.6406,444.1367 4170.1406,444.1367 L4170.3594,444.1367 L4170.3594,438.6523 L4170.1406,438.6523 Q4169.6406,438.6523 4169.4219,438.4648 Q4169.2031,438.2617 4169.2031,437.9492 Q4169.2031,437.6367 4169.4219,437.4492 Q4169.6406,437.2461 4170.1406,437.2461 L4176.4375,437.2617 L4176.4375,439.3867 Q4176.4375,439.8867 4176.2344,440.1055 Q4176.0469,440.3242 4175.7344,440.3242 Q4175.4219,440.3242 4175.2188,440.1211 Q4175.0313,439.9023 4175.0313,439.3867 L4175.0313,438.6523 L4171.7656,438.6523 L4171.7656,440.6836 L4173,440.6836 Q4173,440.1367 4173.0938,439.9805 Q4173.3125,439.6367 4173.7031,439.6367 Q4174,439.6367 4174.1875,439.8555 Q4174.3906,440.0742 4174.3906,440.5742 L4174.3906,442.1992 Q4174.3906,442.6523 4174.2813,442.8086 Q4174.0625,443.1367 4173.7031,443.1367 Q4173.3125,443.1367 4173.0938,442.793 Q4173,442.6367 4173,442.0898 L4171.7656,442.0898 Z " fill="#E6EDF3"/><text fill="#E6EDF3" font-family="Segoe UI, Inter, sans-serif" font-size="14" font-style="italic" lengthAdjust="spacing" textLength="49.0752" x="4238.402" y="428.0293">&#171;Enum&#187;</text><path d="M4197.0833,457.3307 C4196.7567,457.3307 4196.5,457.5874 4196.5,457.9141 C4196.5,458.2407 4196.7567,458.4974 4197.0833,458.4974 C4197.41,458.4974 4197.6667,458.2407 4197.6667,457.9141 C4197.6667,457.5874 4197.41,457.3307 4197.0833,457.3307 M4198.8333,457.3307 L4198.8333,458.4974 L4205.8333,458.4974 L4205.8333,457.3307 L4198.8333,457.3307 M4197.0833,459.6641 C4196.7567,459.6641 4196.5,459.9207 4196.5,460.2474 C4196.5,460.5741 4196.7567,460.8307 4197.0833,460.8307 C4197.41,460.8307 4197.6667,460.5741 4197.6667,460.2474 C4197.6667,459.9207 4197.41,459.6641 4197.0833,459.6641 M4198.8333,459.6641 L4198.8333,460.8307 L4205.8333,460.8307 L4205.8333,459.6641 L4198.8333,459.6641 M4197.0833,461.9974 C4196.7567,461.9974 4196.5,462.2541 4196.5,462.5807 C4196.5,462.9074 4196.7567,463.1641 4197.0833,463.1641 C4197.41,463.1641 4197.6667,462.9074 4197.6667,462.5807 C4197.6667,462.2541 4197.41,461.9974 4197.0833,461.9974 M4198.8333,461.9974 L4198.8333,463.1641 L4205.8333,463.1641 L4205.8333,461.9974 L4198.8333,461.9974 M4197.0833,464.3307 C4196.7567,464.3307 4196.5,464.5874 4196.5,464.9141 C4196.5,465.2407 4196.7567,465.4974 4197.0833,465.4974 C4197.41,465.4974 4197.6667,465.2407 4197.6667,464.9141 C4197.6667,464.5874 4197.41,464.3307 4197.0833,464.3307 M4198.8333,464.3307 L4198.8333,465.4974 L4205.8333,465.4974 L4205.8333,464.3307 L4198.8333,464.3307" fill="#A371F7"/><text fill="#C9D1D9" font-family="'Segoe UI, Inter, sans-serif'" font-size="14" lengthAdjust="spacing" textLength="119.7109" x="4210.6683" y="466.6504">AppointmentStatus</text><line style="stroke:#A371F7;stroke-width:0.5;" x1="4159.5" x2="4342.3792" y1="485.1641" y2="485.1641"/><text fill="#C9D1D9" font-family="'Segoe UI, Inter, sans-serif'" font-size="14" lengthAdjust="spacing" textLength="89.0654" x="4174.5" y="514.2715">Scheduled = 0</text><text fill="#C9D1D9" font-family="'Segoe UI, Inter, sans-serif'" font-size="14" lengthAdjust="spacing" textLength="92.9756" x="4174.5" y="552.8926">Completed = 1</text><text fill="#C9D1D9" font-family="'Segoe UI, Inter, sans-serif'" font-size="14" lengthAdjust="spacing" textLength="84.6426" x="4174.5" y="591.5137">Cancelled = 2</text><line style="stroke:#A371F7;stroke-width:0.5;" x1="4159.5" x2="4342.3792" y1="609.0273" y2="609.0273"/></g><!--class <color:#58A6FF><&medical-cross></color> Patient--><g class="entity" data-qualified-name="ClinicManagementAPI.Core.Models..color..58A6FF...medical-cross...color. Patient" data-source-line="58" id="ent0009"><rect fill="#161B22" height="330.9688" rx="6" ry="6" style="stroke:#A371F7;stroke-width:0.5;" width="183.0244" x="4403.5" y="341.9219"/><ellipse cx="4451.8846" cy="385.543" fill="#D29922" rx="10" ry="10" style="stroke:#181818;stroke-width:1;"/><path d="M4451.1502,386.0898 L4451.1502,388.1367 L4454.7284,388.1367 L4454.7284,387.3867 Q4454.7284,386.8711 4454.9159,386.668 Q4455.119,386.4492 4455.4315,386.4492 Q4455.7284,386.4492 4455.9159,386.668 Q4456.119,386.8711 4456.119,387.3867 L4456.119,389.543 L4449.5252,389.543 Q4449.0252,389.543 4448.8065,389.3555 Q4448.5877,389.1523 4448.5877,388.8398 Q4448.5877,388.5273 4448.8065,388.3398 Q4449.0252,388.1367 4449.5252,388.1367 L4449.744,388.1367 L4449.744,382.6523 L4449.5252,382.6523 Q4449.0252,382.6523 4448.8065,382.4648 Q4448.5877,382.2617 4448.5877,381.9492 Q4448.5877,381.6367 4448.8065,381.4492 Q4449.0252,381.2461 4449.5252,381.2461 L4455.8221,381.2617 L4455.8221,383.3867 Q4455.8221,383.8867 4455.619,384.1055 Q4455.4315,384.3242 4455.119,384.3242 Q4454.8065,384.3242 4454.6034,384.1211 Q4454.4159,383.9023 4454.4159,383.3867 L4454.4159,382.6523 L4451.1502,382.6523 L4451.1502,384.6836 L4452.3846,384.6836 Q4452.3846,384.1367 4452.4784,383.9805 Q4452.6971,383.6367 4453.0877,383.6367 Q4453.3846,383.6367 4453.5721,383.8555 Q4453.7752,384.0742 4453.7752,384.5742 L4453.7752,386.1992 Q4453.7752,386.6523 4453.6659,386.8086 Q4453.4471,387.1367 4453.0877,387.1367 Q4452.6971,387.1367 4452.4784,386.793 Q4452.3846,386.6367 4452.3846,386.0898 L4451.1502,386.0898 Z " fill="#E6EDF3"/><text fill="#E6EDF3" font-family="Segoe UI, Inter, sans-serif" font-size="14" font-style="italic" lengthAdjust="spacing" textLength="48.6992" x="4485.6626" y="372.0293">&#171;Entity&#187;</text><path d="M4484.2179,401.3307 L4484.2179,403.6641 L4481.8846,403.6641 L4481.8846,408.3307 L4484.2179,408.3307 L4484.2179,410.6641 L4488.8846,410.6641 L4488.8846,408.3307 L4491.2179,408.3307 L4491.2179,403.6641 L4488.8846,403.6641 L4488.8846,401.3307 L4484.2179,401.3307" fill="#58A6FF"/><text fill="#C9D1D9" font-family="'Segoe UI, Inter, sans-serif'" font-size="14" lengthAdjust="spacing" textLength="43.0869" x="4496.0529" y="410.6504">Patient</text><line style="stroke:#A371F7;stroke-width:0.5;" x1="4404.5" x2="4585.5244" y1="429.1641" y2="429.1641"/><g data-visibility-modifier="PUBLIC_FIELD"><ellipse cx="4414.5" cy="453.9746" fill="none" rx="3" ry="3" style="stroke:#038048;stroke-width:1;"/></g><text fill="#C9D1D9" font-family="'Segoe UI, Inter, sans-serif'" font-size="14" lengthAdjust="spacing" textLength="38.7324" x="4432.5" y="458.2715">Id : int</text><g data-visibility-modifier="PUBLIC_FIELD"><ellipse cx="4414.5" cy="492.5957" fill="none" rx="3" ry="3" style="stroke:#038048;stroke-width:1;"/></g><text fill="#C9D1D9" font-family="'Segoe UI, Inter, sans-serif'" font-size="14" lengthAdjust="spacing" textLength="104.3301" x="4432.5" y="496.8926">FullName : string</text><g data-visibility-modifier="PUBLIC_FIELD"><ellipse cx="4414.5" cy="531.2168" fill="none" rx="3" ry="3" style="stroke:#038048;stroke-width:1;"/></g><text fill="#C9D1D9" font-family="'Segoe UI, Inter, sans-serif'" font-size="14" lengthAdjust="spacing" textLength="78.8594" x="4432.5" y="535.5137">Email : string</text><g data-visibility-modifier="PUBLIC_FIELD"><ellipse cx="4414.5" cy="612.459" fill="none" rx="3" ry="3" style="stroke:#038048;stroke-width:1;"/></g><text fill="#C9D1D9" font-family="'Segoe UI, Inter, sans-serif'" font-size="14" lengthAdjust="spacing" textLength="96.5576" x="4432.5" y="616.7559">IsDeleted : bool</text><g data-visibility-modifier="PUBLIC_FIELD"><ellipse cx="4414.5" cy="651.0801" fill="none" rx="3" ry="3" style="stroke:#038048;stroke-width:1;"/></g><text fill="#C9D1D9" font-family="'Segoe UI, Inter, sans-serif'" font-size="14" lengthAdjust="spacing" textLength="138.0244" x="4432.5" y="655.377">DeletedAt : DateTime?</text><line style="stroke:#A371F7;stroke-width:1;" x1="4404.5" x2="4441.4365" y1="572.3379" y2="572.3379"/><text fill="#C9D1D9" font-family="'Segoe UI, Inter, sans-serif'" font-size="14" lengthAdjust="spacing" textLength="87.1514" x="4451.4365" y="577.6348">ISoftDeletable</text><line style="stroke:#A371F7;stroke-width:1;" x1="4548.5879" x2="4585.5244" y1="572.3379" y2="572.3379"/></g><!--class <color:#3FB950><&stethoscope></color> Doctor--><g class="entity" data-qualified-name="ClinicManagementAPI.Core.Models..color..3FB950...stethoscope...color. Doctor" data-source-line="67" id="ent0010"><rect fill="#161B22" height="369.5898" rx="6" ry="6" style="stroke:#A371F7;stroke-width:0.5;" width="183.0244" x="3856.5" y="979.4219"/><ellipse cx="3910.9443" cy="1023.043" fill="#D29922" rx="10" ry="10" style="stroke:#181818;stroke-width:1;"/><path d="M3910.21,1023.5898 L3910.21,1025.6367 L3913.7881,1025.6367 L3913.7881,1024.8867 Q3913.7881,1024.3711 3913.9756,1024.168 Q3914.1787,1023.9492 3914.4912,1023.9492 Q3914.7881,1023.9492 3914.9756,1024.168 Q3915.1787,1024.3711 3915.1787,1024.8867 L3915.1787,1027.043 L3908.585,1027.043 Q3908.085,1027.043 3907.8662,1026.8555 Q3907.6475,1026.6523 3907.6475,1026.3398 Q3907.6475,1026.0273 3907.8662,1025.8398 Q3908.085,1025.6367 3908.585,1025.6367 L3908.8037,1025.6367 L3908.8037,1020.1523 L3908.585,1020.1523 Q3908.085,1020.1523 3907.8662,1019.9648 Q3907.6475,1019.7617 3907.6475,1019.4492 Q3907.6475,1019.1367 3907.8662,1018.9492 Q3908.085,1018.7461 3908.585,1018.7461 L3914.8818,1018.7617 L3914.8818,1020.8867 Q3914.8818,1021.3867 3914.6787,1021.6055 Q3914.4912,1021.8242 3914.1787,1021.8242 Q3913.8662,1021.8242 3913.6631,1021.6211 Q3913.4756,1021.4023 3913.4756,1020.8867 L3913.4756,1020.1523 L3910.21,1020.1523 L3910.21,1022.1836 L3911.4443,1022.1836 Q3911.4443,1021.6367 3911.5381,1021.4805 Q3911.7568,1021.1367 3912.1475,1021.1367 Q3912.4443,1021.1367 3912.6318,1021.3555 Q3912.835,1021.5742 3912.835,1022.0742 L3912.835,1023.6992 Q3912.835,1024.1523 3912.7256,1024.3086 Q3912.5068,1024.6367 3912.1475,1024.6367 Q3911.7568,1024.6367 3911.5381,1024.293 Q3911.4443,1024.1367 3911.4443,1023.5898 L3910.21,1023.5898 Z " fill="#E6EDF3"/><text fill="#E6EDF3" font-family="Segoe UI, Inter, sans-serif" font-size="14" font-style="italic" lengthAdjust="spacing" textLength="48.6992" x="3938.6626" y="1009.5293">&#171;Entity&#187;</text><text fill="#C9D1D9" font-family="'Segoe UI, Inter, sans-serif'" font-size="14" lengthAdjust="spacing" textLength="42.3008" x="3943.7793" y="1048.1504">Doctor</text><line style="stroke:#A371F7;stroke-width:0.5;" x1="3857.5" x2="4038.5244" y1="1066.6641" y2="1066.6641"/><g data-visibility-modifier="PUBLIC_FIELD"><ellipse cx="3867.5" cy="1091.4746" fill="none" rx="3" ry="3" style="stroke:#038048;stroke-width:1;"/></g><text fill="#C9D1D9" font-family="'Segoe UI, Inter, sans-serif'" font-size="14" lengthAdjust="spacing" textLength="38.7324" x="3885.5" y="1095.7715">Id : int</text><g data-visibility-modifier="PUBLIC_FIELD"><ellipse cx="3867.5" cy="1130.0957" fill="none" rx="3" ry="3" style="stroke:#038048;stroke-width:1;"/></g><text fill="#C9D1D9" font-family="'Segoe UI, Inter, sans-serif'" font-size="14" lengthAdjust="spacing" textLength="104.3301" x="3885.5" y="1134.3926">FullName : string</text><g data-visibility-modifier="PUBLIC_FIELD"><ellipse cx="3867.5" cy="1168.7168" fill="none" rx="3" ry="3" style="stroke:#038048;stroke-width:1;"/></g><text fill="#C9D1D9" font-family="'Segoe UI, Inter, sans-serif'" font-size="14" lengthAdjust="spacing" textLength="130.2793" x="3885.5" y="1173.0137">Specialization : string</text><g data-visibility-modifier="PUBLIC_FIELD"><ellipse cx="3867.5" cy="1207.3379" fill="none" rx="3" ry="3" style="stroke:#038048;stroke-width:1;"/></g><text fill="#C9D1D9" font-family="'Segoe UI, Inter, sans-serif'" font-size="14" lengthAdjust="spacing" textLength="104.1045" x="3885.5" y="1211.6348">IsAvailable : bool</text><g data-visibility-modifier="PUBLIC_FIELD"><ellipse cx="3867.5" cy="1288.5801" fill="none" rx="3" ry="3" style="stroke:#038048;stroke-width:1;"/></g><text fill="#C9D1D9" font-family="'Segoe UI, Inter, sans-serif'" font-size="14" lengthAdjust="spacing" textLength="96.5576" x="3885.5" y="1292.877">IsDeleted : bool</text><g data-visibility-modifier="PUBLIC_FIELD"><ellipse cx="3867.5" cy="1327.2012" fill="none" rx="3" ry="3" style="stroke:#038048;stroke-width:1;"/></g><text fill="#C9D1D9" font-family="'Segoe UI, Inter, sans-serif'" font-size="14" lengthAdjust="spacing" textLength="138.0244" x="3885.5" y="1331.498">DeletedAt : DateTime?</text><line style="stroke:#A371F7;stroke-width:1;" x1="3857.5" x2="3894.4365" y1="1248.459" y2="1248.459"/><text fill="#C9D1D9" font-family="'Segoe UI, Inter, sans-serif'" font-size="14" lengthAdjust="spacing" textLength="87.1514" x="3904.4365" y="1253.7559">ISoftDeletable</text><line style="stroke:#A371F7;stroke-width:1;" x1="4001.5879" x2="4038.5244" y1="1248.459" y2="1248.459"/></g><!--class <color:#D29922><&calendar></color> Appointment--><g class="entity" data-qualified-name="ClinicManagementAPI.Core.Models..color..D29922...calendar...color. Appointment" data-source-line="77" id="ent0011"><rect fill="#161B22" height="601.3164" rx="6" ry="6" style="stroke:#A371F7;stroke-width:0.5;" width="261.3643" x="4099.5" y="863.9219"/><ellipse cx="4167.6986" cy="907.543" fill="#D29922" rx="10" ry="10" style="stroke:#181818;stroke-width:1;"/><path d="M4166.9642,908.0898 L4166.9642,910.1367 L4170.5423,910.1367 L4170.5423,909.3867 Q4170.5423,908.8711 4170.7298,908.668 Q4170.9329,908.4492 4171.2454,908.4492 Q4171.5423,908.4492 4171.7298,908.668 Q4171.9329,908.8711 4171.9329,909.3867 L4171.9329,911.543 L4165.3392,911.543 Q4164.8392,911.543 4164.6204,911.3555 Q4164.4017,911.1523 4164.4017,910.8398 Q4164.4017,910.5273 4164.6204,910.3398 Q4164.8392,910.1367 4165.3392,910.1367 L4165.5579,910.1367 L4165.5579,904.6523 L4165.3392,904.6523 Q4164.8392,904.6523 4164.6204,904.4648 Q4164.4017,904.2617 4164.4017,903.9492 Q4164.4017,903.6367 4164.6204,903.4492 Q4164.8392,903.2461 4165.3392,903.2461 L4171.6361,903.2617 L4171.6361,905.3867 Q4171.6361,905.8867 4171.4329,906.1055 Q4171.2454,906.3242 4170.9329,906.3242 Q4170.6204,906.3242 4170.4173,906.1211 Q4170.2298,905.9023 4170.2298,905.3867 L4170.2298,904.6523 L4166.9642,904.6523 L4166.9642,906.6836 L4168.1986,906.6836 Q4168.1986,906.1367 4168.2923,905.9805 Q4168.5111,905.6367 4168.9017,905.6367 Q4169.1986,905.6367 4169.3861,905.8555 Q4169.5892,906.0742 4169.5892,906.5742 L4169.5892,908.1992 Q4169.5892,908.6523 4169.4798,908.8086 Q4169.2611,909.1367 4168.9017,909.1367 Q4168.5111,909.1367 4168.2923,908.793 Q4168.1986,908.6367 4168.1986,908.0898 L4166.9642,908.0898 Z " fill="#E6EDF3"/><text fill="#E6EDF3" font-family="Segoe UI, Inter, sans-serif" font-size="14" font-style="italic" lengthAdjust="spacing" textLength="48.6992" x="4220.8325" y="894.0293">&#171;Entity&#187;</text><path d="M4197.6986,923.3307 L4197.6986,925.6641 L4205.8652,925.6641 L4205.8652,923.3307 L4197.6986,923.3307 M4197.6986,926.8307 L4197.6986,932.5591 C4197.6986,932.6174 4197.7452,932.6641 4197.8036,932.6641 L4205.7486,932.6641 C4205.8069,932.6641 4205.8536,932.6174 4205.8536,932.5591 L4205.8536,926.8307 L4197.6869,926.8307 M4198.8652,927.9974 L4200.0319,927.9974 L4200.0319,929.1641 L4198.8652,929.1641 L4198.8652,927.9974 M4201.1986,927.9974 L4202.3652,927.9974 L4202.3652,929.1641 L4201.1986,929.1641 L4201.1986,927.9974 M4203.5319,927.9974 L4204.6986,927.9974 L4204.6986,929.1641 L4203.5319,929.1641 L4203.5319,927.9974 M4198.8652,930.3307 L4200.0319,930.3307 L4200.0319,931.4974 L4198.8652,931.4974 L4198.8652,930.3307 M4201.1986,930.3307 L4202.3652,930.3307 L4202.3652,931.4974 L4201.1986,931.4974 L4201.1986,930.3307" fill="#D29922"/><text fill="#C9D1D9" font-family="'Segoe UI, Inter, sans-serif'" font-size="14" lengthAdjust="spacing" textLength="81.7988" x="4211.8669" y="932.6504">Appointment</text><line style="stroke:#A371F7;stroke-width:0.5;" x1="4100.5" x2="4359.8643" y1="951.1641" y2="951.1641"/><g data-visibility-modifier="PUBLIC_FIELD"><ellipse cx="4110.5" cy="975.9746" fill="none" rx="3" ry="3" style="stroke:#038048;stroke-width:1;"/></g><text fill="#C9D1D9" font-family="'Segoe UI, Inter, sans-serif'" font-size="14" lengthAdjust="spacing" textLength="38.7324" x="4128.5" y="980.2715">Id : int</text><g data-visibility-modifier="PUBLIC_FIELD"><ellipse cx="4110.5" cy="1014.5957" fill="none" rx="3" ry="3" style="stroke:#038048;stroke-width:1;"/></g><text fill="#C9D1D9" font-family="'Segoe UI, Inter, sans-serif'" font-size="14" lengthAdjust="spacing" textLength="114.7754" x="4128.5" y="1018.8926">PatientId : int &#171;FK&#187;</text><g data-visibility-modifier="PUBLIC_FIELD"><ellipse cx="4110.5" cy="1053.2168" fill="none" rx="3" ry="3" style="stroke:#038048;stroke-width:1;"/></g><text fill="#C9D1D9" font-family="'Segoe UI, Inter, sans-serif'" font-size="14" lengthAdjust="spacing" textLength="113.9893" x="4128.5" y="1057.5137">DoctorId : int &#171;FK&#187;</text><g data-visibility-modifier="PUBLIC_FIELD"><ellipse cx="4110.5" cy="1091.8379" fill="none" rx="3" ry="3" style="stroke:#038048;stroke-width:1;"/></g><text fill="#C9D1D9" font-family="'Segoe UI, Inter, sans-serif'" font-size="14" lengthAdjust="spacing" textLength="179.1563" x="4128.5" y="1096.1348">AppointmentDate : DateOnly</text><g data-visibility-modifier="PUBLIC_FIELD"><ellipse cx="4110.5" cy="1130.459" fill="none" rx="3" ry="3" style="stroke:#038048;stroke-width:1;"/></g><text fill="#C9D1D9" font-family="'Segoe UI, Inter, sans-serif'" font-size="14" lengthAdjust="spacing" textLength="181.3574" x="4128.5" y="1134.7559">AppointmentTime : TimeOnly</text><g data-visibility-modifier="PUBLIC_FIELD"><ellipse cx="4110.5" cy="1169.0801" fill="none" rx="3" ry="3" style="stroke:#038048;stroke-width:1;"/></g><text fill="#C9D1D9" font-family="'Segoe UI, Inter, sans-serif'" font-size="14" lengthAdjust="spacing" textLength="216.3643" x="4128.5" y="1173.377">DurationMinutes : int &#171;default=30&#187;</text><g data-visibility-modifier="PUBLIC_FIELD"><ellipse cx="4110.5" cy="1207.7012" fill="none" rx="3" ry="3" style="stroke:#038048;stroke-width:1;"/></g><text fill="#C9D1D9" font-family="'Segoe UI, Inter, sans-serif'" font-size="14" lengthAdjust="spacing" textLength="168.3281" x="4128.5" y="1211.998">Status : AppointmentStatus</text><g data-visibility-modifier="PUBLIC_FIELD"><ellipse cx="4110.5" cy="1246.3223" fill="none" rx="3" ry="3" style="stroke:#038048;stroke-width:1;"/></g><text fill="#C9D1D9" font-family="'Segoe UI, Inter, sans-serif'" font-size="14" lengthAdjust="spacing" textLength="88.7715" x="4128.5" y="1250.6191">Notes : string?</text><g data-visibility-modifier="PUBLIC_FIELD"><ellipse cx="4110.5" cy="1284.9434" fill="none" rx="3" ry="3" style="stroke:#038048;stroke-width:1;"/></g><text fill="#C9D1D9" font-family="'Segoe UI, Inter, sans-serif'" font-size="14" lengthAdjust="spacing" textLength="131.8789" x="4128.5" y="1289.2402">CreatedAt : DateTime</text><g data-visibility-modifier="PUBLIC_FIELD"><ellipse cx="4110.5" cy="1323.5645" fill="none" rx="3" ry="3" style="stroke:#038048;stroke-width:1;"/></g><text fill="#C9D1D9" font-family="'Segoe UI, Inter, sans-serif'" font-size="14" lengthAdjust="spacing" textLength="143.3906" x="4128.5" y="1327.8613">UpdatedAt : DateTime?</text><g data-visibility-modifier="PUBLIC_FIELD"><ellipse cx="4110.5" cy="1404.8066" fill="none" rx="3" ry="3" style="stroke:#038048;stroke-width:1;"/></g><text fill="#C9D1D9" font-family="'Segoe UI, Inter, sans-serif'" font-size="14" lengthAdjust="spacing" textLength="96.8789" x="4128.5" y="1409.1035">Patient : Patient</text><g data-visibility-modifier="PUBLIC_FIELD"><ellipse cx="4110.5" cy="1443.4277" fill="none" rx="3" ry="3" style="stroke:#038048;stroke-width:1;"/></g><text fill="#C9D1D9" font-family="'Segoe UI, Inter, sans-serif'" font-size="14" lengthAdjust="spacing" textLength="95.3066" x="4128.5" y="1447.7246">Doctor : Doctor</text><line style="stroke:#A371F7;stroke-width:1;" x1="4100.5" x2="4186.522" y1="1364.6855" y2="1364.6855"/><text fill="#C9D1D9" font-family="'Segoe UI, Inter, sans-serif'" font-size="14" lengthAdjust="spacing" textLength="67.3203" x="4196.522" y="1369.9824">Navigation</text><line style="stroke:#A371F7;stroke-width:1;" x1="4273.8423" x2="4359.8643" y1="1364.6855" y2="1364.6855"/></g><!--class PaginationRequest--><g class="entity" data-qualified-name="ClinicManagementAPI.Core.DTOs.PaginationRequest" data-source-line="144" id="ent0019"><rect fill="#161B22" height="219.1055" rx="6" ry="6" style="stroke:#A371F7;stroke-width:0.5;" width="292.5498" x="2684.5" y="397.9219"/><ellipse cx="2758.8882" cy="441.543" fill="#58A6FF" rx="10" ry="10" style="stroke:#181818;stroke-width:1;"/><path d="M2760.2944,437.6055 Q2760.4194,437.4336 2760.5757,437.3555 Q2760.7319,437.2617 2760.9038,437.2617 Q2761.2163,437.2617 2761.4038,437.4805 Q2761.6069,437.6836 2761.6069,438.1836 L2761.6069,439.3711 Q2761.6069,439.8867 2761.4038,440.1055 Q2761.2163,440.3086 2760.9038,440.3086 Q2760.6226,440.3086 2760.4507,440.1523 Q2760.2788,439.9961 2760.2007,439.5742 Q2760.1538,439.2773 2760.0132,439.1211 Q2759.7319,438.8086 2759.2163,438.6367 Q2758.7163,438.4492 2758.2163,438.4492 Q2757.5913,438.4492 2757.0601,438.7305 Q2756.5288,438.9961 2756.1226,439.6211 Q2755.7319,440.2305 2755.7319,441.0742 L2755.7319,441.9805 Q2755.7319,442.9961 2756.4663,443.668 Q2757.2007,444.3398 2758.4976,444.3398 Q2759.2788,444.3398 2759.8257,444.1367 Q2760.1382,444.0117 2760.4976,443.6523 Q2760.7163,443.4336 2760.8257,443.3711 Q2760.9507,443.293 2761.1069,443.293 Q2761.3882,443.293 2761.6069,443.5117 Q2761.8257,443.7305 2761.8257,444.0117 Q2761.8257,444.293 2761.5288,444.6211 Q2761.1069,445.1055 2760.4507,445.3711 Q2759.5757,445.7461 2758.5132,445.7461 Q2757.2632,445.7461 2756.2632,445.2305 Q2755.4663,444.8242 2754.8882,443.9492 Q2754.3257,443.0586 2754.3257,442.0117 L2754.3257,441.0586 Q2754.3257,439.9648 2754.8257,439.0273 Q2755.3413,438.0742 2756.2476,437.5586 Q2757.1538,437.043 2758.1538,437.043 Q2758.7632,437.043 2759.2944,437.1836 Q2759.8257,437.3242 2760.2944,437.6055 Z " fill="#E6EDF3"/><text fill="#E6EDF3" font-family="Segoe UI, Inter, sans-serif" font-size="14" font-style="italic" lengthAdjust="spacing" textLength="42.2803" x="2824.6348" y="428.0293">&#171;DTO&#187;</text><text fill="#C9D1D9" font-family="'Segoe UI, Inter, sans-serif'" font-size="14" lengthAdjust="spacing" textLength="115.7734" x="2787.8882" y="466.6504">PaginationRequest</text><line style="stroke:#A371F7;stroke-width:0.5;" x1="2685.5" x2="2976.0498" y1="485.1641" y2="485.1641"/><g data-visibility-modifier="PUBLIC_FIELD"><ellipse cx="2695.5" cy="509.9746" fill="none" rx="3" ry="3" style="stroke:#038048;stroke-width:1;"/></g><text fill="#C9D1D9" font-family="'Segoe UI, Inter, sans-serif'" font-size="14" lengthAdjust="spacing" textLength="124.8105" x="2713.5" y="514.2715">SearchTerm : string?</text><line style="stroke:#A371F7;stroke-width:0.5;" x1="2685.5" x2="2976.0498" y1="531.7852" y2="531.7852"/><g data-visibility-modifier="PUBLIC_METHOD"><ellipse cx="2695.5" cy="556.5957" fill="#84BE84" rx="3" ry="3" style="stroke:#038048;stroke-width:1;"/></g><text fill="#C9D1D9" font-family="'Segoe UI, Inter, sans-serif'" font-size="14" lengthAdjust="spacing" textLength="225.7021" x="2713.5" y="560.8926">Page : int &#171;default=1, Range(1,+inf)&#187;</text><g data-visibility-modifier="PUBLIC_METHOD"><ellipse cx="2695.5" cy="595.2168" fill="#84BE84" rx="3" ry="3" style="stroke:#038048;stroke-width:1;"/></g><text fill="#C9D1D9" font-family="'Segoe UI, Inter, sans-serif'" font-size="14" lengthAdjust="spacing" textLength="247.5498" x="2713.5" y="599.5137">PageSize : int &#171;default=10, Range(1,50)&#187;</text></g><!--class PagedResponse<T>--><g class="entity" data-qualified-name="ClinicManagementAPI.Core.DTOs.PagedResponse.T." data-source-line="150" id="ent0020"><rect fill="#161B22" height="296.3477" rx="6" ry="6" style="stroke:#A371F7;stroke-width:0.5;" width="240.1182" x="2052" y="359.4219"/><ellipse cx="2095.8008" cy="403.043" fill="#58A6FF" rx="10" ry="10" style="stroke:#181818;stroke-width:1;"/><path d="M2097.207,399.1055 Q2097.332,398.9336 2097.4883,398.8555 Q2097.6445,398.7617 2097.8164,398.7617 Q2098.1289,398.7617 2098.3164,398.9805 Q2098.5195,399.1836 2098.5195,399.6836 L2098.5195,400.8711 Q2098.5195,401.3867 2098.3164,401.6055 Q2098.1289,401.8086 2097.8164,401.8086 Q2097.5352,401.8086 2097.3633,401.6523 Q2097.1914,401.4961 2097.1133,401.0742 Q2097.0664,400.7773 2096.9258,400.6211 Q2096.6445,400.3086 2096.1289,400.1367 Q2095.6289,399.9492 2095.1289,399.9492 Q2094.5039,399.9492 2093.9727,400.2305 Q2093.4414,400.4961 2093.0352,401.1211 Q2092.6445,401.7305 2092.6445,402.5742 L2092.6445,403.4805 Q2092.6445,404.4961 2093.3789,405.168 Q2094.1133,405.8398 2095.4102,405.8398 Q2096.1914,405.8398 2096.7383,405.6367 Q2097.0508,405.5117 2097.4102,405.1523 Q2097.6289,404.9336 2097.7383,404.8711 Q2097.8633,404.793 2098.0195,404.793 Q2098.3008,404.793 2098.5195,405.0117 Q2098.7383,405.2305 2098.7383,405.5117 Q2098.7383,405.793 2098.4414,406.1211 Q2098.0195,406.6055 2097.3633,406.8711 Q2096.4883,407.2461 2095.4258,407.2461 Q2094.1758,407.2461 2093.1758,406.7305 Q2092.3789,406.3242 2091.8008,405.4492 Q2091.2383,404.5586 2091.2383,403.5117 L2091.2383,402.5586 Q2091.2383,401.4648 2091.7383,400.5273 Q2092.2539,399.5742 2093.1602,399.0586 Q2094.0664,398.543 2095.0664,398.543 Q2095.6758,398.543 2096.207,398.6836 Q2096.7383,398.8242 2097.207,399.1055 Z " fill="#E6EDF3"/><text fill="#E6EDF3" font-family="Segoe UI, Inter, sans-serif" font-size="14" font-style="italic" lengthAdjust="spacing" textLength="42.2803" x="2165.9189" y="389.5293">&#171;DTO&#187;</text><text fill="#C9D1D9" font-family="'Segoe UI, Inter, sans-serif'" font-size="14" lengthAdjust="spacing" textLength="124.5166" x="2124.8008" y="428.1504">PagedResponse&lt;T&gt;</text><line style="stroke:#A371F7;stroke-width:0.5;" x1="2053" x2="2291.1182" y1="446.6641" y2="446.6641"/><g data-visibility-modifier="PUBLIC_FIELD"><ellipse cx="2063" cy="471.4746" fill="none" rx="3" ry="3" style="stroke:#038048;stroke-width:1;"/></g><text fill="#C9D1D9" font-family="'Segoe UI, Inter, sans-serif'" font-size="14" lengthAdjust="spacing" textLength="147.9502" x="2081" y="475.7715">Items : IEnumerable&lt;T&gt;</text><g data-visibility-modifier="PUBLIC_FIELD"><ellipse cx="2063" cy="510.0957" fill="none" rx="3" ry="3" style="stroke:#038048;stroke-width:1;"/></g><text fill="#C9D1D9" font-family="'Segoe UI, Inter, sans-serif'" font-size="14" lengthAdjust="spacing" textLength="95.0195" x="2081" y="514.3926">TotalCount : int</text><g data-visibility-modifier="PUBLIC_FIELD"><ellipse cx="2063" cy="548.7168" fill="none" rx="3" ry="3" style="stroke:#038048;stroke-width:1;"/></g><text fill="#C9D1D9" font-family="'Segoe UI, Inter, sans-serif'" font-size="14" lengthAdjust="spacing" textLength="175.2188" x="2081" y="553.0137">TotalPages : int &#171;computed&#187;</text><g data-visibility-modifier="PUBLIC_FIELD"><ellipse cx="2063" cy="587.3379" fill="none" rx="3" ry="3" style="stroke:#038048;stroke-width:1;"/></g><text fill="#C9D1D9" font-family="'Segoe UI, Inter, sans-serif'" font-size="14" lengthAdjust="spacing" textLength="171.8896" x="2081" y="591.6348">HasNext : bool &#171;computed&#187;</text><g data-visibility-modifier="PUBLIC_FIELD"><ellipse cx="2063" cy="625.959" fill="none" rx="3" ry="3" style="stroke:#038048;stroke-width:1;"/></g><text fill="#C9D1D9" font-family="'Segoe UI, Inter, sans-serif'" font-size="14" lengthAdjust="spacing" textLength="195.1182" x="2081" y="630.2559">HasPrevious : bool &#171;computed&#187;</text><line style="stroke:#A371F7;stroke-width:0.5;" x1="2053" x2="2291.1182" y1="647.7695" y2="647.7695"/></g><!--class AppointmentFilterRequest--><g class="entity" data-qualified-name="ClinicManagementAPI.Core.DTOs.Appointments.AppointmentFilterRequest" data-source-line="96" id="ent0013"><rect fill="#161B22" height="334.9688" rx="6" ry="6" style="stroke:#A371F7;stroke-width:0.5;" width="242.9346" x="2709.5" y="996.9219"/><ellipse cx="2737.323" cy="1040.543" fill="#58A6FF" rx="10" ry="10" style="stroke:#181818;stroke-width:1;"/><path d="M2738.7292,1036.6055 Q2738.8542,1036.4336 2739.0105,1036.3555 Q2739.1667,1036.2617 2739.3386,1036.2617 Q2739.6511,1036.2617 2739.8386,1036.4805 Q2740.0417,1036.6836 2740.0417,1037.1836 L2740.0417,1038.3711 Q2740.0417,1038.8867 2739.8386,1039.1055 Q2739.6511,1039.3086 2739.3386,1039.3086 Q2739.0574,1039.3086 2738.8855,1039.1523 Q2738.7136,1038.9961 2738.6355,1038.5742 Q2738.5886,1038.2773 2738.448,1038.1211 Q2738.1667,1037.8086 2737.6511,1037.6367 Q2737.1511,1037.4492 2736.6511,1037.4492 Q2736.0261,1037.4492 2735.4949,1037.7305 Q2734.9636,1037.9961 2734.5574,1038.6211 Q2734.1667,1039.2305 2734.1667,1040.0742 L2734.1667,1040.9805 Q2734.1667,1041.9961 2734.9011,1042.668 Q2735.6355,1043.3398 2736.9324,1043.3398 Q2737.7136,1043.3398 2738.2605,1043.1367 Q2738.573,1043.0117 2738.9324,1042.6523 Q2739.1511,1042.4336 2739.2605,1042.3711 Q2739.3855,1042.293 2739.5417,1042.293 Q2739.823,1042.293 2740.0417,1042.5117 Q2740.2605,1042.7305 2740.2605,1043.0117 Q2740.2605,1043.293 2739.9636,1043.6211 Q2739.5417,1044.1055 2738.8855,1044.3711 Q2738.0105,1044.7461 2736.948,1044.7461 Q2735.698,1044.7461 2734.698,1044.2305 Q2733.9011,1043.8242 2733.323,1042.9492 Q2732.7605,1042.0586 2732.7605,1041.0117 L2732.7605,1040.0586 Q2732.7605,1038.9648 2733.2605,1038.0273 Q2733.7761,1037.0742 2734.6824,1036.5586 Q2735.5886,1036.043 2736.5886,1036.043 Q2737.198,1036.043 2737.7292,1036.1836 Q2738.2605,1036.3242 2738.7292,1036.6055 Z " fill="#E6EDF3"/><text fill="#E6EDF3" font-family="Segoe UI, Inter, sans-serif" font-size="14" font-style="italic" lengthAdjust="spacing" textLength="42.2803" x="2823.363" y="1027.0293">&#171;DTO&#187;</text><text fill="#C9D1D9" font-family="'Segoe UI, Inter, sans-serif'" font-size="14" lengthAdjust="spacing" textLength="162.2168" x="2763.3948" y="1065.6504">AppointmentFilterRequest</text><line style="stroke:#A371F7;stroke-width:0.5;" x1="2710.5" x2="2951.4346" y1="1084.1641" y2="1084.1641"/><g data-visibility-modifier="PUBLIC_FIELD"><ellipse cx="2720.5" cy="1108.9746" fill="none" rx="3" ry="3" style="stroke:#038048;stroke-width:1;"/></g><text fill="#C9D1D9" font-family="'Segoe UI, Inter, sans-serif'" font-size="14" lengthAdjust="spacing" textLength="130.416" x="2738.5" y="1113.2715">Page : int &#171;inherited&#187;</text><g data-visibility-modifier="PUBLIC_FIELD"><ellipse cx="2720.5" cy="1147.5957" fill="none" rx="3" ry="3" style="stroke:#038048;stroke-width:1;"/></g><text fill="#C9D1D9" font-family="'Segoe UI, Inter, sans-serif'" font-size="14" lengthAdjust="spacing" textLength="154.8955" x="2738.5" y="1151.8926">PageSize : int &#171;inherited&#187;</text><g data-visibility-modifier="PUBLIC_FIELD"><ellipse cx="2720.5" cy="1186.2168" fill="none" rx="3" ry="3" style="stroke:#038048;stroke-width:1;"/></g><text fill="#C9D1D9" font-family="'Segoe UI, Inter, sans-serif'" font-size="14" lengthAdjust="spacing" textLength="197.9346" x="2738.5" y="1190.5137">SearchTerm : string? &#171;inherited&#187;</text><g data-visibility-modifier="PUBLIC_FIELD"><ellipse cx="2720.5" cy="1224.8379" fill="none" rx="3" ry="3" style="stroke:#038048;stroke-width:1;"/></g><text fill="#C9D1D9" font-family="'Segoe UI, Inter, sans-serif'" font-size="14" lengthAdjust="spacing" textLength="135.5977" x="2738.5" y="1229.1348">DateFrom : DateOnly?</text><g data-visibility-modifier="PUBLIC_FIELD"><ellipse cx="2720.5" cy="1263.459" fill="none" rx="3" ry="3" style="stroke:#038048;stroke-width:1;"/></g><text fill="#C9D1D9" font-family="'Segoe UI, Inter, sans-serif'" font-size="14" lengthAdjust="spacing" textLength="119.1709" x="2738.5" y="1267.7559">DateTo : DateOnly?</text><g data-visibility-modifier="PUBLIC_FIELD"><ellipse cx="2720.5" cy="1302.0801" fill="none" rx="3" ry="3" style="stroke:#038048;stroke-width:1;"/></g><text fill="#C9D1D9" font-family="'Segoe UI, Inter, sans-serif'" font-size="14" lengthAdjust="spacing" textLength="174.6035" x="2738.5" y="1306.377">Status : AppointmentStatus?</text><line style="stroke:#A371F7;stroke-width:0.5;" x1="2710.5" x2="2951.4346" y1="1323.8906" y2="1323.8906"/></g><!--class CreateAppointmentRequest--><g class="entity" data-qualified-name="ClinicManagementAPI.Core.DTOs.Appointments.CreateAppointmentRequest" data-source-line="105" id="ent0015"><rect fill="#161B22" height="334.9688" rx="6" ry="6" style="stroke:#A371F7;stroke-width:0.5;" width="356.4385" x="3361" y="996.9219"/><ellipse cx="3439.3633" cy="1040.543" fill="#58A6FF" rx="10" ry="10" style="stroke:#181818;stroke-width:1;"/><path d="M3440.7695,1036.6055 Q3440.8945,1036.4336 3441.0508,1036.3555 Q3441.207,1036.2617 3441.3789,1036.2617 Q3441.6914,1036.2617 3441.8789,1036.4805 Q3442.082,1036.6836 3442.082,1037.1836 L3442.082,1038.3711 Q3442.082,1038.8867 3441.8789,1039.1055 Q3441.6914,1039.3086 3441.3789,1039.3086 Q3441.0977,1039.3086 3440.9258,1039.1523 Q3440.7539,1038.9961 3440.6758,1038.5742 Q3440.6289,1038.2773 3440.4883,1038.1211 Q3440.207,1037.8086 3439.6914,1037.6367 Q3439.1914,1037.4492 3438.6914,1037.4492 Q3438.0664,1037.4492 3437.5352,1037.7305 Q3437.0039,1037.9961 3436.5977,1038.6211 Q3436.207,1039.2305 3436.207,1040.0742 L3436.207,1040.9805 Q3436.207,1041.9961 3436.9414,1042.668 Q3437.6758,1043.3398 3438.9727,1043.3398 Q3439.7539,1043.3398 3440.3008,1043.1367 Q3440.6133,1043.0117 3440.9727,1042.6523 Q3441.1914,1042.4336 3441.3008,1042.3711 Q3441.4258,1042.293 3441.582,1042.293 Q3441.8633,1042.293 3442.082,1042.5117 Q3442.3008,1042.7305 3442.3008,1043.0117 Q3442.3008,1043.293 3442.0039,1043.6211 Q3441.582,1044.1055 3440.9258,1044.3711 Q3440.0508,1044.7461 3438.9883,1044.7461 Q3437.7383,1044.7461 3436.7383,1044.2305 Q3435.9414,1043.8242 3435.3633,1042.9492 Q3434.8008,1042.0586 3434.8008,1041.0117 L3434.8008,1040.0586 Q3434.8008,1038.9648 3435.3008,1038.0273 Q3435.8164,1037.0742 3436.7227,1036.5586 Q3437.6289,1036.043 3438.6289,1036.043 Q3439.2383,1036.043 3439.7695,1036.1836 Q3440.3008,1036.3242 3440.7695,1036.6055 Z " fill="#E6EDF3"/><text fill="#E6EDF3" font-family="Segoe UI, Inter, sans-serif" font-size="14" font-style="italic" lengthAdjust="spacing" textLength="42.2803" x="3533.0791" y="1027.0293">&#171;DTO&#187;</text><text fill="#C9D1D9" font-family="'Segoe UI, Inter, sans-serif'" font-size="14" lengthAdjust="spacing" textLength="171.7119" x="3468.3633" y="1065.6504">CreateAppointmentRequest</text><line style="stroke:#A371F7;stroke-width:0.5;" x1="3362" x2="3716.4385" y1="1084.1641" y2="1084.1641"/><g data-visibility-modifier="PUBLIC_FIELD"><ellipse cx="3372" cy="1108.9746" fill="none" rx="3" ry="3" style="stroke:#038048;stroke-width:1;"/></g><text fill="#C9D1D9" font-family="'Segoe UI, Inter, sans-serif'" font-size="14" lengthAdjust="spacing" textLength="155.5039" x="3390" y="1113.2715">PatientId : int &#171;Required&#187;</text><g data-visibility-modifier="PUBLIC_FIELD"><ellipse cx="3372" cy="1147.5957" fill="none" rx="3" ry="3" style="stroke:#038048;stroke-width:1;"/></g><text fill="#C9D1D9" font-family="'Segoe UI, Inter, sans-serif'" font-size="14" lengthAdjust="spacing" textLength="154.7178" x="3390" y="1151.8926">DoctorId : int &#171;Required&#187;</text><g data-visibility-modifier="PUBLIC_FIELD"><ellipse cx="3372" cy="1186.2168" fill="none" rx="3" ry="3" style="stroke:#038048;stroke-width:1;"/></g><text fill="#C9D1D9" font-family="'Segoe UI, Inter, sans-serif'" font-size="14" lengthAdjust="spacing" textLength="252.8408" x="3390" y="1190.5137">AppointmentDate : DateOnly &#171;Required&#187;</text><g data-visibility-modifier="PUBLIC_FIELD"><ellipse cx="3372" cy="1224.8379" fill="none" rx="3" ry="3" style="stroke:#038048;stroke-width:1;"/></g><text fill="#C9D1D9" font-family="'Segoe UI, Inter, sans-serif'" font-size="14" lengthAdjust="spacing" textLength="255.042" x="3390" y="1229.1348">AppointmentTime : TimeOnly &#171;Required&#187;</text><line style="stroke:#A371F7;stroke-width:0.5;" x1="3362" x2="3716.4385" y1="1246.6484" y2="1246.6484"/><g data-visibility-modifier="PUBLIC_METHOD"><ellipse cx="3372" cy="1271.459" fill="#84BE84" rx="3" ry="3" style="stroke:#038048;stroke-width:1;"/></g><text fill="#C9D1D9" font-family="'Segoe UI, Inter, sans-serif'" font-size="14" lengthAdjust="spacing" textLength="311.4385" x="3390" y="1275.7559">DurationMinutes : int &#171;Range(15,120), default=30&#187;</text><g data-visibility-modifier="PUBLIC_METHOD"><ellipse cx="3372" cy="1310.0801" fill="#84BE84" rx="3" ry="3" style="stroke:#038048;stroke-width:1;"/></g><text fill="#C9D1D9" font-family="'Segoe UI, Inter, sans-serif'" font-size="14" lengthAdjust="spacing" textLength="185.8145" x="3390" y="1314.377">Notes : string? &#171;MaxLen(500)&#187;</text></g><!--class UpdateAppointmentRequest--><g class="entity" data-qualified-name="ClinicManagementAPI.Core.DTOs.Appointments.UpdateAppointmentRequest" data-source-line="114" id="ent0016"><rect fill="#161B22" height="257.7266" rx="6" ry="6" style="stroke:#A371F7;stroke-width:0.5;" width="288.0449" x="3013" y="1035.4219"/><ellipse cx="3054.5483" cy="1079.043" fill="#58A6FF" rx="10" ry="10" style="stroke:#181818;stroke-width:1;"/><path d="M3055.9546,1075.1055 Q3056.0796,1074.9336 3056.2358,1074.8555 Q3056.3921,1074.7617 3056.564,1074.7617 Q3056.8765,1074.7617 3057.064,1074.9805 Q3057.2671,1075.1836 3057.2671,1075.6836 L3057.2671,1076.8711 Q3057.2671,1077.3867 3057.064,1077.6055 Q3056.8765,1077.8086 3056.564,1077.8086 Q3056.2827,1077.8086 3056.1108,1077.6523 Q3055.939,1077.4961 3055.8608,1077.0742 Q3055.814,1076.7773 3055.6733,1076.6211 Q3055.3921,1076.3086 3054.8765,1076.1367 Q3054.3765,1075.9492 3053.8765,1075.9492 Q3053.2515,1075.9492 3052.7202,1076.2305 Q3052.189,1076.4961 3051.7827,1077.1211 Q3051.3921,1077.7305 3051.3921,1078.5742 L3051.3921,1079.4805 Q3051.3921,1080.4961 3052.1265,1081.168 Q3052.8608,1081.8398 3054.1577,1081.8398 Q3054.939,1081.8398 3055.4858,1081.6367 Q3055.7983,1081.5117 3056.1577,1081.1523 Q3056.3765,1080.9336 3056.4858,1080.8711 Q3056.6108,1080.793 3056.7671,1080.793 Q3057.0483,1080.793 3057.2671,1081.0117 Q3057.4858,1081.2305 3057.4858,1081.5117 Q3057.4858,1081.793 3057.189,1082.1211 Q3056.7671,1082.6055 3056.1108,1082.8711 Q3055.2358,1083.2461 3054.1733,1083.2461 Q3052.9233,1083.2461 3051.9233,1082.7305 Q3051.1265,1082.3242 3050.5483,1081.4492 Q3049.9858,1080.5586 3049.9858,1079.5117 L3049.9858,1078.5586 Q3049.9858,1077.4648 3050.4858,1076.5273 Q3051.0015,1075.5742 3051.9077,1075.0586 Q3052.814,1074.543 3053.814,1074.543 Q3054.4233,1074.543 3054.9546,1074.6836 Q3055.4858,1074.8242 3055.9546,1075.1055 Z " fill="#E6EDF3"/><text fill="#E6EDF3" font-family="Segoe UI, Inter, sans-serif" font-size="14" font-style="italic" lengthAdjust="spacing" textLength="42.2803" x="3150.8823" y="1065.5293">&#171;DTO&#187;</text><text fill="#C9D1D9" font-family="'Segoe UI, Inter, sans-serif'" font-size="14" lengthAdjust="spacing" textLength="176.9482" x="3083.5483" y="1104.1504">UpdateAppointmentRequest</text><line style="stroke:#A371F7;stroke-width:0.5;" x1="3014" x2="3300.0449" y1="1122.6641" y2="1122.6641"/><g data-visibility-modifier="PUBLIC_FIELD"><ellipse cx="3024" cy="1147.4746" fill="none" rx="3" ry="3" style="stroke:#038048;stroke-width:1;"/></g><text fill="#C9D1D9" font-family="'Segoe UI, Inter, sans-serif'" font-size="14" lengthAdjust="spacing" textLength="185.4316" x="3042" y="1151.7715">AppointmentDate : DateOnly?</text><g data-visibility-modifier="PUBLIC_FIELD"><ellipse cx="3024" cy="1186.0957" fill="none" rx="3" ry="3" style="stroke:#038048;stroke-width:1;"/></g><text fill="#C9D1D9" font-family="'Segoe UI, Inter, sans-serif'" font-size="14" lengthAdjust="spacing" textLength="187.6328" x="3042" y="1190.3926">AppointmentTime : TimeOnly?</text><line style="stroke:#A371F7;stroke-width:0.5;" x1="3014" x2="3300.0449" y1="1207.9063" y2="1207.9063"/><g data-visibility-modifier="PUBLIC_METHOD"><ellipse cx="3024" cy="1232.7168" fill="#84BE84" rx="3" ry="3" style="stroke:#038048;stroke-width:1;"/></g><text fill="#C9D1D9" font-family="'Segoe UI, Inter, sans-serif'" font-size="14" lengthAdjust="spacing" textLength="243.0449" x="3042" y="1237.0137">DurationMinutes : int? &#171;Range(15,120)&#187;</text><g data-visibility-modifier="PUBLIC_METHOD"><ellipse cx="3024" cy="1271.3379" fill="#84BE84" rx="3" ry="3" style="stroke:#038048;stroke-width:1;"/></g><text fill="#C9D1D9" font-family="'Segoe UI, Inter, sans-serif'" font-size="14" lengthAdjust="spacing" textLength="185.8145" x="3042" y="1275.6348">Notes : string? &#171;MaxLen(500)&#187;</text></g><!--class UpdateAppointmentStatusRequest--><g class="entity" data-qualified-name="ClinicManagementAPI.Core.DTOs.Appointments.UpdateAppointmentStatusRequest" data-source-line="121" id="ent0017"><rect fill="#161B22" height="141.8633" rx="6" ry="6" style="stroke:#A371F7;stroke-width:0.5;" width="287.0127" x="2362.5" y="1093.4219"/><ellipse cx="2386.4686" cy="1137.043" fill="#58A6FF" rx="10" ry="10" style="stroke:#181818;stroke-width:1;"/><path d="M2387.8748,1133.1055 Q2387.9998,1132.9336 2388.1561,1132.8555 Q2388.3123,1132.7617 2388.4842,1132.7617 Q2388.7967,1132.7617 2388.9842,1132.9805 Q2389.1873,1133.1836 2389.1873,1133.6836 L2389.1873,1134.8711 Q2389.1873,1135.3867 2388.9842,1135.6055 Q2388.7967,1135.8086 2388.4842,1135.8086 Q2388.2029,1135.8086 2388.0311,1135.6523 Q2387.8592,1135.4961 2387.7811,1135.0742 Q2387.7342,1134.7773 2387.5936,1134.6211 Q2387.3123,1134.3086 2386.7967,1134.1367 Q2386.2967,1133.9492 2385.7967,1133.9492 Q2385.1717,1133.9492 2384.6404,1134.2305 Q2384.1092,1134.4961 2383.7029,1135.1211 Q2383.3123,1135.7305 2383.3123,1136.5742 L2383.3123,1137.4805 Q2383.3123,1138.4961 2384.0467,1139.168 Q2384.7811,1139.8398 2386.0779,1139.8398 Q2386.8592,1139.8398 2387.4061,1139.6367 Q2387.7186,1139.5117 2388.0779,1139.1523 Q2388.2967,1138.9336 2388.4061,1138.8711 Q2388.5311,1138.793 2388.6873,1138.793 Q2388.9686,1138.793 2389.1873,1139.0117 Q2389.4061,1139.2305 2389.4061,1139.5117 Q2389.4061,1139.793 2389.1092,1140.1211 Q2388.6873,1140.6055 2388.0311,1140.8711 Q2387.1561,1141.2461 2386.0936,1141.2461 Q2384.8436,1141.2461 2383.8436,1140.7305 Q2383.0467,1140.3242 2382.4686,1139.4492 Q2381.9061,1138.5586 2381.9061,1137.5117 L2381.9061,1136.5586 Q2381.9061,1135.4648 2382.4061,1134.5273 Q2382.9217,1133.5742 2383.8279,1133.0586 Q2384.7342,1132.543 2385.7342,1132.543 Q2386.3436,1132.543 2386.8748,1132.6836 Q2387.4061,1132.8242 2387.8748,1133.1055 Z " fill="#E6EDF3"/><text fill="#E6EDF3" font-family="Segoe UI, Inter, sans-serif" font-size="14" font-style="italic" lengthAdjust="spacing" textLength="42.2803" x="2497.9738" y="1123.5293">&#171;DTO&#187;</text><text fill="#C9D1D9" font-family="'Segoe UI, Inter, sans-serif'" font-size="14" lengthAdjust="spacing" textLength="214.8604" x="2411.6838" y="1162.1504">UpdateAppointmentStatusRequest</text><line style="stroke:#A371F7;stroke-width:0.5;" x1="2363.5" x2="2648.5127" y1="1180.6641" y2="1180.6641"/><g data-visibility-modifier="PUBLIC_FIELD"><ellipse cx="2373.5" cy="1205.4746" fill="none" rx="3" ry="3" style="stroke:#038048;stroke-width:1;"/></g><text fill="#C9D1D9" font-family="'Segoe UI, Inter, sans-serif'" font-size="14" lengthAdjust="spacing" textLength="242.0127" x="2391.5" y="1209.7715">Status : AppointmentStatus &#171;Required&#187;</text><line style="stroke:#A371F7;stroke-width:0.5;" x1="2363.5" x2="2648.5127" y1="1227.2852" y2="1227.2852"/></g><!--class AppointmentResponse--><g class="entity" data-qualified-name="ClinicManagementAPI.Core.DTOs.Appointments.AppointmentResponse" data-source-line="125" id="ent0018"><rect fill="#161B22" height="605.3164" rx="6" ry="6" style="stroke:#A371F7;stroke-width:0.5;" width="226.3574" x="2076" y="861.9219"/><ellipse cx="2105.8871" cy="905.543" fill="#58A6FF" rx="10" ry="10" style="stroke:#181818;stroke-width:1;"/><path d="M2107.2934,901.6055 Q2107.4184,901.4336 2107.5746,901.3555 Q2107.7309,901.2617 2107.9027,901.2617 Q2108.2152,901.2617 2108.4027,901.4805 Q2108.6059,901.6836 2108.6059,902.1836 L2108.6059,903.3711 Q2108.6059,903.8867 2108.4027,904.1055 Q2108.2152,904.3086 2107.9027,904.3086 Q2107.6215,904.3086 2107.4496,904.1523 Q2107.2777,903.9961 2107.1996,903.5742 Q2107.1527,903.2773 2107.0121,903.1211 Q2106.7309,902.8086 2106.2152,902.6367 Q2105.7152,902.4492 2105.2152,902.4492 Q2104.5902,902.4492 2104.059,902.7305 Q2103.5277,902.9961 2103.1215,903.6211 Q2102.7309,904.2305 2102.7309,905.0742 L2102.7309,905.9805 Q2102.7309,906.9961 2103.4652,907.668 Q2104.1996,908.3398 2105.4965,908.3398 Q2106.2777,908.3398 2106.8246,908.1367 Q2107.1371,908.0117 2107.4965,907.6523 Q2107.7152,907.4336 2107.8246,907.3711 Q2107.9496,907.293 2108.1059,907.293 Q2108.3871,907.293 2108.6059,907.5117 Q2108.8246,907.7305 2108.8246,908.0117 Q2108.8246,908.293 2108.5277,908.6211 Q2108.1059,909.1055 2107.4496,909.3711 Q2106.5746,909.7461 2105.5121,909.7461 Q2104.2621,909.7461 2103.2621,909.2305 Q2102.4652,908.8242 2101.8871,907.9492 Q2101.3246,907.0586 2101.3246,906.0117 L2101.3246,905.0586 Q2101.3246,903.9648 2101.8246,903.0273 Q2102.3402,902.0742 2103.2465,901.5586 Q2104.1527,901.043 2105.1527,901.043 Q2105.7621,901.043 2106.2934,901.1836 Q2106.8246,901.3242 2107.2934,901.6055 Z " fill="#E6EDF3"/><text fill="#E6EDF3" font-family="Segoe UI, Inter, sans-serif" font-size="14" font-style="italic" lengthAdjust="spacing" textLength="42.2803" x="2181.8038" y="892.0293">&#171;DTO&#187;</text><text fill="#C9D1D9" font-family="'Segoe UI, Inter, sans-serif'" font-size="14" lengthAdjust="spacing" textLength="141.0527" x="2132.4176" y="930.6504">AppointmentResponse</text><line style="stroke:#A371F7;stroke-width:0.5;" x1="2077" x2="2301.3574" y1="949.1641" y2="949.1641"/><g data-visibility-modifier="PUBLIC_FIELD"><ellipse cx="2087" cy="973.9746" fill="none" rx="3" ry="3" style="stroke:#038048;stroke-width:1;"/></g><text fill="#C9D1D9" font-family="'Segoe UI, Inter, sans-serif'" font-size="14" lengthAdjust="spacing" textLength="38.7324" x="2105" y="978.2715">Id : int</text><g data-visibility-modifier="PUBLIC_FIELD"><ellipse cx="2087" cy="1012.5957" fill="none" rx="3" ry="3" style="stroke:#038048;stroke-width:1;"/></g><text fill="#C9D1D9" font-family="'Segoe UI, Inter, sans-serif'" font-size="14" lengthAdjust="spacing" textLength="81.8193" x="2105" y="1016.8926">PatientId : int</text><g data-visibility-modifier="PUBLIC_FIELD"><ellipse cx="2087" cy="1051.2168" fill="none" rx="3" ry="3" style="stroke:#038048;stroke-width:1;"/></g><text fill="#C9D1D9" font-family="'Segoe UI, Inter, sans-serif'" font-size="14" lengthAdjust="spacing" textLength="125.877" x="2105" y="1055.5137">PatientName : string</text><g data-visibility-modifier="PUBLIC_FIELD"><ellipse cx="2087" cy="1089.8379" fill="none" rx="3" ry="3" style="stroke:#038048;stroke-width:1;"/></g><text fill="#C9D1D9" font-family="'Segoe UI, Inter, sans-serif'" font-size="14" lengthAdjust="spacing" textLength="81.0332" x="2105" y="1094.1348">DoctorId : int</text><g data-visibility-modifier="PUBLIC_FIELD"><ellipse cx="2087" cy="1128.459" fill="none" rx="3" ry="3" style="stroke:#038048;stroke-width:1;"/></g><text fill="#C9D1D9" font-family="'Segoe UI, Inter, sans-serif'" font-size="14" lengthAdjust="spacing" textLength="125.0908" x="2105" y="1132.7559">DoctorName : string</text><g data-visibility-modifier="PUBLIC_FIELD"><ellipse cx="2087" cy="1167.0801" fill="none" rx="3" ry="3" style="stroke:#038048;stroke-width:1;"/></g><text fill="#C9D1D9" font-family="'Segoe UI, Inter, sans-serif'" font-size="14" lengthAdjust="spacing" textLength="172.5801" x="2105" y="1171.377">DoctorSpecialization : string</text><g data-visibility-modifier="PUBLIC_FIELD"><ellipse cx="2087" cy="1205.7012" fill="none" rx="3" ry="3" style="stroke:#038048;stroke-width:1;"/></g><text fill="#C9D1D9" font-family="'Segoe UI, Inter, sans-serif'" font-size="14" lengthAdjust="spacing" textLength="179.1563" x="2105" y="1209.998">AppointmentDate : DateOnly</text><g data-visibility-modifier="PUBLIC_FIELD"><ellipse cx="2087" cy="1244.3223" fill="none" rx="3" ry="3" style="stroke:#038048;stroke-width:1;"/></g><text fill="#C9D1D9" font-family="'Segoe UI, Inter, sans-serif'" font-size="14" lengthAdjust="spacing" textLength="181.3574" x="2105" y="1248.6191">AppointmentTime : TimeOnly</text><g data-visibility-modifier="PUBLIC_FIELD"><ellipse cx="2087" cy="1282.9434" fill="none" rx="3" ry="3" style="stroke:#038048;stroke-width:1;"/></g><text fill="#C9D1D9" font-family="'Segoe UI, Inter, sans-serif'" font-size="14" lengthAdjust="spacing" textLength="130.5664" x="2105" y="1287.2402">DurationMinutes : int</text><g data-visibility-modifier="PUBLIC_FIELD"><ellipse cx="2087" cy="1321.5645" fill="none" rx="3" ry="3" style="stroke:#038048;stroke-width:1;"/></g><text fill="#C9D1D9" font-family="'Segoe UI, Inter, sans-serif'" font-size="14" lengthAdjust="spacing" textLength="83.7266" x="2105" y="1325.8613">Status : string</text><g data-visibility-modifier="PUBLIC_FIELD"><ellipse cx="2087" cy="1360.1855" fill="none" rx="3" ry="3" style="stroke:#038048;stroke-width:1;"/></g><text fill="#C9D1D9" font-family="'Segoe UI, Inter, sans-serif'" font-size="14" lengthAdjust="spacing" textLength="88.7715" x="2105" y="1364.4824">Notes : string?</text><g data-visibility-modifier="PUBLIC_FIELD"><ellipse cx="2087" cy="1398.8066" fill="none" rx="3" ry="3" style="stroke:#038048;stroke-width:1;"/></g><text fill="#C9D1D9" font-family="'Segoe UI, Inter, sans-serif'" font-size="14" lengthAdjust="spacing" textLength="131.8789" x="2105" y="1403.1035">CreatedAt : DateTime</text><g data-visibility-modifier="PUBLIC_FIELD"><ellipse cx="2087" cy="1437.4277" fill="none" rx="3" ry="3" style="stroke:#038048;stroke-width:1;"/></g><text fill="#C9D1D9" font-family="'Segoe UI, Inter, sans-serif'" font-size="14" lengthAdjust="spacing" textLength="143.3906" x="2105" y="1441.7246">UpdatedAt : DateTime?</text><line style="stroke:#A371F7;stroke-width:0.5;" x1="2077" x2="2301.3574" y1="1459.2383" y2="1459.2383"/></g><!--class AppointmentService--><g class="entity" data-qualified-name="ClinicManagementAPI.Core.Services.AppointmentService" data-source-line="171" id="ent0030"><rect fill="#161B22" height="64.6211" rx="6" ry="6" style="stroke:#A371F7;stroke-width:0.5;" width="175.3096" x="1211.5" y="1679.9219"/><ellipse cx="1225.5" cy="1704.2324" fill="#58A6FF" rx="10" ry="10" style="stroke:#181818;stroke-width:1;"/><path d="M1226.9063,1700.2949 Q1227.0313,1700.123 1227.1875,1700.0449 Q1227.3438,1699.9512 1227.5156,1699.9512 Q1227.8281,1699.9512 1228.0156,1700.1699 Q1228.2188,1700.373 1228.2188,1700.873 L1228.2188,1702.0605 Q1228.2188,1702.5762 1228.0156,1702.7949 Q1227.8281,1702.998 1227.5156,1702.998 Q1227.2344,1702.998 1227.0625,1702.8418 Q1226.8906,1702.6855 1226.8125,1702.2637 Q1226.7656,1701.9668 1226.625,1701.8105 Q1226.3438,1701.498 1225.8281,1701.3262 Q1225.3281,1701.1387 1224.8281,1701.1387 Q1224.2031,1701.1387 1223.6719,1701.4199 Q1223.1406,1701.6855 1222.7344,1702.3105 Q1222.3438,1702.9199 1222.3438,1703.7637 L1222.3438,1704.6699 Q1222.3438,1705.6855 1223.0781,1706.3574 Q1223.8125,1707.0293 1225.1094,1707.0293 Q1225.8906,1707.0293 1226.4375,1706.8262 Q1226.75,1706.7012 1227.1094,1706.3418 Q1227.3281,1706.123 1227.4375,1706.0605 Q1227.5625,1705.9824 1227.7188,1705.9824 Q1228,1705.9824 1228.2188,1706.2012 Q1228.4375,1706.4199 1228.4375,1706.7012 Q1228.4375,1706.9824 1228.1406,1707.3105 Q1227.7188,1707.7949 1227.0625,1708.0605 Q1226.1875,1708.4355 1225.125,1708.4355 Q1223.875,1708.4355 1222.875,1707.9199 Q1222.0781,1707.5137 1221.5,1706.6387 Q1220.9375,1705.748 1220.9375,1704.7012 L1220.9375,1703.748 Q1220.9375,1702.6543 1221.4375,1701.7168 Q1221.9531,1700.7637 1222.8594,1700.248 Q1223.7656,1699.7324 1224.7656,1699.7324 Q1225.375,1699.7324 1225.9063,1699.873 Q1226.4375,1700.0137 1226.9063,1700.2949 Z " fill="#E6EDF3"/><text fill="#C9D1D9" font-family="'Segoe UI, Inter, sans-serif'" font-size="14" lengthAdjust="spacing" textLength="125.3096" x="1248.5" y="1710.0293">AppointmentService</text><line style="stroke:#A371F7;stroke-width:0.5;" x1="1212.5" x2="1385.8096" y1="1728.543" y2="1728.543"/><line style="stroke:#A371F7;stroke-width:0.5;" x1="1212.5" x2="1385.8096" y1="1736.543" y2="1736.543"/></g><!--class Appointment--><g class="entity" data-qualified-name="Appointment" data-source-line="162" id="ent0021"><rect fill="#161B22" height="64.6211" rx="6" ry="6" style="stroke:#A371F7;stroke-width:0.5;" width="131.7988" x="418" y="1131.9219"/><ellipse cx="432" cy="1156.2324" fill="#58A6FF" rx="10" ry="10" style="stroke:#181818;stroke-width:1;"/><path d="M433.4063,1152.2949 Q433.5313,1152.123 433.6875,1152.0449 Q433.8438,1151.9512 434.0156,1151.9512 Q434.3281,1151.9512 434.5156,1152.1699 Q434.7188,1152.373 434.7188,1152.873 L434.7188,1154.0605 Q434.7188,1154.5762 434.5156,1154.7949 Q434.3281,1154.998 434.0156,1154.998 Q433.7344,1154.998 433.5625,1154.8418 Q433.3906,1154.6855 433.3125,1154.2637 Q433.2656,1153.9668 433.125,1153.8105 Q432.8438,1153.498 432.3281,1153.3262 Q431.8281,1153.1387 431.3281,1153.1387 Q430.7031,1153.1387 430.1719,1153.4199 Q429.6406,1153.6855 429.2344,1154.3105 Q428.8438,1154.9199 428.8438,1155.7637 L428.8438,1156.6699 Q428.8438,1157.6855 429.5781,1158.3574 Q430.3125,1159.0293 431.6094,1159.0293 Q432.3906,1159.0293 432.9375,1158.8262 Q433.25,1158.7012 433.6094,1158.3418 Q433.8281,1158.123 433.9375,1158.0605 Q434.0625,1157.9824 434.2188,1157.9824 Q434.5,1157.9824 434.7188,1158.2012 Q434.9375,1158.4199 434.9375,1158.7012 Q434.9375,1158.9824 434.6406,1159.3105 Q434.2188,1159.7949 433.5625,1160.0605 Q432.6875,1160.4355 431.625,1160.4355 Q430.375,1160.4355 429.375,1159.9199 Q428.5781,1159.5137 428,1158.6387 Q427.4375,1157.748 427.4375,1156.7012 L427.4375,1155.748 Q427.4375,1154.6543 427.9375,1153.7168 Q428.4531,1152.7637 429.3594,1152.248 Q430.2656,1151.7324 431.2656,1151.7324 Q431.875,1151.7324 432.4063,1151.873 Q432.9375,1152.0137 433.4063,1152.2949 Z " fill="#E6EDF3"/><text fill="#C9D1D9" font-family="'Segoe UI, Inter, sans-serif'" font-size="14" lengthAdjust="spacing" textLength="81.7988" x="455" y="1162.0293">Appointment</text><line style="stroke:#A371F7;stroke-width:0.5;" x1="419" x2="548.7988" y1="1180.543" y2="1180.543"/><line style="stroke:#A371F7;stroke-width:0.5;" x1="419" x2="548.7988" y1="1188.543" y2="1188.543"/></g><!--class Patient--><g class="entity" data-qualified-name="Patient" data-source-line="162" id="ent0022"><rect fill="#161B22" height="64.6211" rx="6" ry="6" style="stroke:#A371F7;stroke-width:0.5;" width="93.0869" x="156.5" y="1131.9219"/><ellipse cx="170.5" cy="1156.2324" fill="#58A6FF" rx="10" ry="10" style="stroke:#181818;stroke-width:1;"/><path d="M171.9063,1152.2949 Q172.0313,1152.123 172.1875,1152.0449 Q172.3438,1151.9512 172.5156,1151.9512 Q172.8281,1151.9512 173.0156,1152.1699 Q173.2188,1152.373 173.2188,1152.873 L173.2188,1154.0605 Q173.2188,1154.5762 173.0156,1154.7949 Q172.8281,1154.998 172.5156,1154.998 Q172.2344,1154.998 172.0625,1154.8418 Q171.8906,1154.6855 171.8125,1154.2637 Q171.7656,1153.9668 171.625,1153.8105 Q171.3438,1153.498 170.8281,1153.3262 Q170.3281,1153.1387 169.8281,1153.1387 Q169.2031,1153.1387 168.6719,1153.4199 Q168.1406,1153.6855 167.7344,1154.3105 Q167.3438,1154.9199 167.3438,1155.7637 L167.3438,1156.6699 Q167.3438,1157.6855 168.0781,1158.3574 Q168.8125,1159.0293 170.1094,1159.0293 Q170.8906,1159.0293 171.4375,1158.8262 Q171.75,1158.7012 172.1094,1158.3418 Q172.3281,1158.123 172.4375,1158.0605 Q172.5625,1157.9824 172.7188,1157.9824 Q173,1157.9824 173.2188,1158.2012 Q173.4375,1158.4199 173.4375,1158.7012 Q173.4375,1158.9824 173.1406,1159.3105 Q172.7188,1159.7949 172.0625,1160.0605 Q171.1875,1160.4355 170.125,1160.4355 Q168.875,1160.4355 167.875,1159.9199 Q167.0781,1159.5137 166.5,1158.6387 Q165.9375,1157.748 165.9375,1156.7012 L165.9375,1155.748 Q165.9375,1154.6543 166.4375,1153.7168 Q166.9531,1152.7637 167.8594,1152.248 Q168.7656,1151.7324 169.7656,1151.7324 Q170.375,1151.7324 170.9063,1151.873 Q171.4375,1152.0137 171.9063,1152.2949 Z " fill="#E6EDF3"/><text fill="#C9D1D9" font-family="'Segoe UI, Inter, sans-serif'" font-size="14" lengthAdjust="spacing" textLength="43.0869" x="193.5" y="1162.0293">Patient</text><line style="stroke:#A371F7;stroke-width:0.5;" x1="157.5" x2="248.5869" y1="1180.543" y2="1180.543"/><line style="stroke:#A371F7;stroke-width:0.5;" x1="157.5" x2="248.5869" y1="1188.543" y2="1188.543"/></g><!--class Doctor--><g class="entity" data-qualified-name="Doctor" data-source-line="165" id="ent0025"><rect fill="#161B22" height="64.6211" rx="6" ry="6" style="stroke:#A371F7;stroke-width:0.5;" width="92.3008" x="719" y="1131.9219"/><ellipse cx="733" cy="1156.2324" fill="#58A6FF" rx="10" ry="10" style="stroke:#181818;stroke-width:1;"/><path d="M734.4063,1152.2949 Q734.5313,1152.123 734.6875,1152.0449 Q734.8438,1151.9512 735.0156,1151.9512 Q735.3281,1151.9512 735.5156,1152.1699 Q735.7188,1152.373 735.7188,1152.873 L735.7188,1154.0605 Q735.7188,1154.5762 735.5156,1154.7949 Q735.3281,1154.998 735.0156,1154.998 Q734.7344,1154.998 734.5625,1154.8418 Q734.3906,1154.6855 734.3125,1154.2637 Q734.2656,1153.9668 734.125,1153.8105 Q733.8438,1153.498 733.3281,1153.3262 Q732.8281,1153.1387 732.3281,1153.1387 Q731.7031,1153.1387 731.1719,1153.4199 Q730.6406,1153.6855 730.2344,1154.3105 Q729.8438,1154.9199 729.8438,1155.7637 L729.8438,1156.6699 Q729.8438,1157.6855 730.5781,1158.3574 Q731.3125,1159.0293 732.6094,1159.0293 Q733.3906,1159.0293 733.9375,1158.8262 Q734.25,1158.7012 734.6094,1158.3418 Q734.8281,1158.123 734.9375,1158.0605 Q735.0625,1157.9824 735.2188,1157.9824 Q735.5,1157.9824 735.7188,1158.2012 Q735.9375,1158.4199 735.9375,1158.7012 Q735.9375,1158.9824 735.6406,1159.3105 Q735.2188,1159.7949 734.5625,1160.0605 Q733.6875,1160.4355 732.625,1160.4355 Q731.375,1160.4355 730.375,1159.9199 Q729.5781,1159.5137 729,1158.6387 Q728.4375,1157.748 728.4375,1156.7012 L728.4375,1155.748 Q728.4375,1154.6543 728.9375,1153.7168 Q729.4531,1152.7637 730.3594,1152.248 Q731.2656,1151.7324 732.2656,1151.7324 Q732.875,1151.7324 733.4063,1151.873 Q733.9375,1152.0137 734.4063,1152.2949 Z " fill="#E6EDF3"/><text fill="#C9D1D9" font-family="'Segoe UI, Inter, sans-serif'" font-size="14" lengthAdjust="spacing" textLength="42.3008" x="756" y="1162.0293">Doctor</text><line style="stroke:#A371F7;stroke-width:0.5;" x1="720" x2="810.3008" y1="1180.543" y2="1180.543"/><line style="stroke:#A371F7;stroke-width:0.5;" x1="720" x2="810.3008" y1="1188.543" y2="1188.543"/></g><!--class AppointmentStatus--><g class="entity" data-qualified-name="AppointmentStatus" data-source-line="168" id="ent0027"><rect fill="#161B22" height="64.6211" rx="6" ry="6" style="stroke:#A371F7;stroke-width:0.5;" width="169.7109" x="7" y="474.9219"/><ellipse cx="21" cy="499.2324" fill="#58A6FF" rx="10" ry="10" style="stroke:#181818;stroke-width:1;"/><path d="M22.4063,495.2949 Q22.5313,495.123 22.6875,495.0449 Q22.8438,494.9512 23.0156,494.9512 Q23.3281,494.9512 23.5156,495.1699 Q23.7188,495.373 23.7188,495.873 L23.7188,497.0605 Q23.7188,497.5762 23.5156,497.7949 Q23.3281,497.998 23.0156,497.998 Q22.7344,497.998 22.5625,497.8418 Q22.3906,497.6855 22.3125,497.2637 Q22.2656,496.9668 22.125,496.8105 Q21.8438,496.498 21.3281,496.3262 Q20.8281,496.1387 20.3281,496.1387 Q19.7031,496.1387 19.1719,496.4199 Q18.6406,496.6855 18.2344,497.3105 Q17.8438,497.9199 17.8438,498.7637 L17.8438,499.6699 Q17.8438,500.6855 18.5781,501.3574 Q19.3125,502.0293 20.6094,502.0293 Q21.3906,502.0293 21.9375,501.8262 Q22.25,501.7012 22.6094,501.3418 Q22.8281,501.123 22.9375,501.0605 Q23.0625,500.9824 23.2188,500.9824 Q23.5,500.9824 23.7188,501.2012 Q23.9375,501.4199 23.9375,501.7012 Q23.9375,501.9824 23.6406,502.3105 Q23.2188,502.7949 22.5625,503.0605 Q21.6875,503.4355 20.625,503.4355 Q19.375,503.4355 18.375,502.9199 Q17.5781,502.5137 17,501.6387 Q16.4375,500.748 16.4375,499.7012 L16.4375,498.748 Q16.4375,497.6543 16.9375,496.7168 Q17.4531,495.7637 18.3594,495.248 Q19.2656,494.7324 20.2656,494.7324 Q20.875,494.7324 21.4063,494.873 Q21.9375,495.0137 22.4063,495.2949 Z " fill="#E6EDF3"/><text fill="#C9D1D9" font-family="'Segoe UI, Inter, sans-serif'" font-size="14" lengthAdjust="spacing" textLength="119.7109" x="44" y="505.0293">AppointmentStatus</text><line style="stroke:#A371F7;stroke-width:0.5;" x1="8" x2="175.7109" y1="523.543" y2="523.543"/><line style="stroke:#A371F7;stroke-width:0.5;" x1="8" x2="175.7109" y1="531.543" y2="531.543"/></g><!--class Result<T>--><g class="entity" data-qualified-name="Result.T." data-source-line="174" id="ent0034"><rect fill="#161B22" height="64.6211" rx="6" ry="6" style="stroke:#A371F7;stroke-width:0.5;" width="114.1826" x="4667" y="1131.9219"/><ellipse cx="4681" cy="1156.2324" fill="#58A6FF" rx="10" ry="10" style="stroke:#181818;stroke-width:1;"/><path d="M4682.4063,1152.2949 Q4682.5313,1152.123 4682.6875,1152.0449 Q4682.8438,1151.9512 4683.0156,1151.9512 Q4683.3281,1151.9512 4683.5156,1152.1699 Q4683.7188,1152.373 4683.7188,1152.873 L4683.7188,1154.0605 Q4683.7188,1154.5762 4683.5156,1154.7949 Q4683.3281,1154.998 4683.0156,1154.998 Q4682.7344,1154.998 4682.5625,1154.8418 Q4682.3906,1154.6855 4682.3125,1154.2637 Q4682.2656,1153.9668 4682.125,1153.8105 Q4681.8438,1153.498 4681.3281,1153.3262 Q4680.8281,1153.1387 4680.3281,1153.1387 Q4679.7031,1153.1387 4679.1719,1153.4199 Q4678.6406,1153.6855 4678.2344,1154.3105 Q4677.8438,1154.9199 4677.8438,1155.7637 L4677.8438,1156.6699 Q4677.8438,1157.6855 4678.5781,1158.3574 Q4679.3125,1159.0293 4680.6094,1159.0293 Q4681.3906,1159.0293 4681.9375,1158.8262 Q4682.25,1158.7012 4682.6094,1158.3418 Q4682.8281,1158.123 4682.9375,1158.0605 Q4683.0625,1157.9824 4683.2188,1157.9824 Q4683.5,1157.9824 4683.7188,1158.2012 Q4683.9375,1158.4199 4683.9375,1158.7012 Q4683.9375,1158.9824 4683.6406,1159.3105 Q4683.2188,1159.7949 4682.5625,1160.0605 Q4681.6875,1160.4355 4680.625,1160.4355 Q4679.375,1160.4355 4678.375,1159.9199 Q4677.5781,1159.5137 4677,1158.6387 Q4676.4375,1157.748 4676.4375,1156.7012 L4676.4375,1155.748 Q4676.4375,1154.6543 4676.9375,1153.7168 Q4677.4531,1152.7637 4678.3594,1152.248 Q4679.2656,1151.7324 4680.2656,1151.7324 Q4680.875,1151.7324 4681.4063,1151.873 Q4681.9375,1152.0137 4682.4063,1152.2949 Z " fill="#E6EDF3"/><text fill="#C9D1D9" font-family="'Segoe UI, Inter, sans-serif'" font-size="14" lengthAdjust="spacing" textLength="64.1826" x="4704" y="1162.0293">Result&lt;T&gt;</text><line style="stroke:#A371F7;stroke-width:0.5;" x1="4668" x2="4780.1826" y1="1180.543" y2="1180.543"/><line style="stroke:#A371F7;stroke-width:0.5;" x1="4668" x2="4780.1826" y1="1188.543" y2="1188.543"/></g><g class="entity" data-qualified-name="GMN43" data-source-line="197" id="ent0044"><path d="M473,398.4219 L473,616.3457 A6,6 0 0 0 479,622.3457 L566.71,622.3457 L489.05,1131.8919 L574.71,622.3457 L699.2056,622.3457 A6,6 0 0 0 705.2056,616.3457 L705.2056,402.4219 L695.2056,392.4219 L479,392.4219 A6,6 0 0 0 473,398.4219" fill="#21262D" style="stroke:#F85149;stroke-width:0.5;"/><path d="M695.2056,392.4219 L695.2056,399.4219 A3,3 0 0 0 698.2056,402.4219 L705.2056,402.4219 L695.2056,392.4219" fill="#21262D" style="stroke:#F85149;stroke-width:0.5;"/><text fill="#C9D1D9" font-family="'Segoe UI, Inter, sans-serif'" font-size="11" font-weight="bold" lengthAdjust="spacing" textLength="76.2427" x="489" y="419.292">No Soft Delete</text><text fill="#C9D1D9" font-family="'Segoe UI, Inter, sans-serif'" font-size="11" lengthAdjust="spacing" textLength="111.9497" x="568.2559" y="419.292">&#8212; uses Status lifecycle.</text><text fill="#C9D1D9" font-family="'Segoe UI, Inter, sans-serif'" font-size="11" lengthAdjust="spacing" textLength="85.6206" x="489" y="433.9229">Status transitions:</text><ellipse cx="494.5" cy="443.0195" fill="#C9D1D9" rx="2.5" ry="2.5"/><text fill="#C9D1D9" font-family="'Segoe UI, Inter, sans-serif'" font-size="11" lengthAdjust="spacing" textLength="135.4375" x="501" y="448.1025">Scheduled -&gt; Completed &#9989;</text><ellipse cx="494.5" cy="456.8555" fill="#C9D1D9" rx="2.5" ry="2.5"/><text fill="#C9D1D9" font-family="'Segoe UI, Inter, sans-serif'" font-size="11" lengthAdjust="spacing" textLength="131.1621" x="501" y="461.9385">Scheduled -&gt; Cancelled &#9989;</text><ellipse cx="494.5" cy="470.6914" fill="#C9D1D9" rx="2.5" ry="2.5"/><text fill="#C9D1D9" font-family="'Segoe UI, Inter, sans-serif'" font-size="11" lengthAdjust="spacing" textLength="60.21" x="501" y="475.7744">Others -&gt; &#10060;</text><line style="stroke:#F85149;stroke-width:1;" x1="474" x2="704.2056" y1="488.1914" y2="488.1914"/><text fill="#C9D1D9" font-family="'Segoe UI, Inter, sans-serif'" font-size="11" lengthAdjust="spacing" textLength="22.5049" x="489" y="514.0615">Only</text><text fill="#C9D1D9" font-family="'Segoe UI, Inter, sans-serif'" font-size="11" font-weight="bold" lengthAdjust="spacing" textLength="49.6826" x="514.5181" y="514.0615">Cancelled</text><text fill="#C9D1D9" font-family="'Segoe UI, Inter, sans-serif'" font-size="11" lengthAdjust="spacing" textLength="67.4395" x="567.2139" y="514.0615">appointments</text><text fill="#C9D1D9" font-family="'Segoe UI, Inter, sans-serif'" font-size="11" lengthAdjust="spacing" textLength="32.1353" x="489" y="528.6924">can be</text><text fill="#C9D1D9" font-family="'Segoe UI, Inter, sans-serif'" font-size="11" font-weight="bold" lengthAdjust="spacing" textLength="65.6455" x="524.1484" y="528.6924">hard deleted</text><text fill="#C9D1D9" font-family="'Segoe UI, Inter, sans-serif'" font-size="11" lengthAdjust="spacing" textLength="2.3848" x="589.7939" y="528.6924">.</text><line style="stroke:#F85149;stroke-width:1;" x1="474" x2="704.2056" y1="545.4531" y2="545.4531"/><text fill="#C9D1D9" font-family="'Segoe UI, Inter, sans-serif'" font-size="11" font-weight="bold" lengthAdjust="spacing" textLength="86.1309" x="489" y="571.3232">Overlap Formula</text><text fill="#C9D1D9" font-family="'Segoe UI, Inter, sans-serif'" font-size="11" lengthAdjust="spacing" textLength="2.3848" x="575.1309" y="571.3232">:</text><text fill="#C9D1D9" font-family="'Segoe UI, Inter, sans-serif'" font-size="11" lengthAdjust="spacing" textLength="111.6919" x="489" y="585.9541">existingStart &lt; newEnd</text><text fill="#C9D1D9" font-family="'Segoe UI, Inter, sans-serif'" font-size="11" lengthAdjust="spacing" textLength="137.7417" x="489" y="600.585">AND newStart &lt; existingEnd</text></g><g class="entity" data-qualified-name="GMN46" data-source-line="212" id="ent0047"><path d="M4667,1645.4219 L4667,1779.207 A6,6 0 0 0 4673,1785.207 L4826.5718,1785.207 A6,6 0 0 0 4832.5718,1779.207 L4832.5718,1649.4219 L4822.5718,1639.4219 L4673,1639.4219 A6,6 0 0 0 4667,1645.4219" fill="#21262D" style="stroke:#F85149;stroke-width:0.5;"/><path d="M4822.5718,1639.4219 L4822.5718,1646.4219 A3,3 0 0 0 4825.5718,1649.4219 L4832.5718,1649.4219 L4822.5718,1639.4219" fill="#21262D" style="stroke:#F85149;stroke-width:1;"/><text fill="#C9D1D9" font-family="'Segoe UI, Inter, sans-serif'" font-size="11" lengthAdjust="spacing" textLength="101.0786" x="4683" y="1666.292">All fields optional for</text><text fill="#C9D1D9" font-family="'Segoe UI, Inter, sans-serif'" font-size="11" font-weight="bold" lengthAdjust="spacing" textLength="73.0415" x="4683" y="1680.9229">partial update</text><text fill="#C9D1D9" font-family="'Segoe UI, Inter, sans-serif'" font-size="11" lengthAdjust="spacing" textLength="39.585" x="4756.0415" y="1680.9229">. Service</text><text fill="#C9D1D9" font-family="'Segoe UI, Inter, sans-serif'" font-size="11" lengthAdjust="spacing" textLength="124.5718" x="4683" y="1695.5537">rejects if all fields are null.</text><line style="stroke:#F85149;stroke-width:1;" x1="4668" x2="4831.5718" y1="1708.3145" y2="1708.3145"/><text fill="#C9D1D9" font-family="'Segoe UI, Inter, sans-serif'" font-size="11" lengthAdjust="spacing" textLength="121.8862" x="4683" y="1734.1846">No PatientId/DoctorId &#8212;</text><text fill="#C9D1D9" font-family="'Segoe UI, Inter, sans-serif'" font-size="11" lengthAdjust="spacing" textLength="114.0229" x="4683" y="1748.8154">cannot change who the</text><text fill="#C9D1D9" font-family="'Segoe UI, Inter, sans-serif'" font-size="11" lengthAdjust="spacing" textLength="120.0547" x="4683" y="1763.4463">appointment belongs to.</text></g><g class="entity" data-qualified-name="GMN49" data-source-line="222" id="ent0050"><path d="M237,463.4219 L237,503.4219 L177.1,507.4219 L237,511.4219 L237,551.3965 A6,6 0 0 0 243,557.3965 L407.4375,557.3965 A6,6 0 0 0 413.4375,551.3965 L413.4375,467.4219 L403.4375,457.4219 L243,457.4219 A6,6 0 0 0 237,463.4219" fill="#21262D" style="stroke:#F85149;stroke-width:0.5;"/><path d="M403.4375,457.4219 L403.4375,464.4219 A3,3 0 0 0 406.4375,467.4219 L413.4375,467.4219 L403.4375,457.4219" fill="#21262D" style="stroke:#F85149;stroke-width:0.5;"/><text fill="#C9D1D9" font-family="'Segoe UI, Inter, sans-serif'" font-size="11" font-weight="bold" lengthAdjust="spacing" textLength="92.1626" x="253" y="484.292">Status Transitions</text><text fill="#C9D1D9" font-family="'Segoe UI, Inter, sans-serif'" font-size="11" lengthAdjust="spacing" textLength="2.3848" x="345.1626" y="484.292">:</text><text fill="#C9D1D9" font-family="'Segoe UI, Inter, sans-serif'" font-size="11" lengthAdjust="spacing" textLength="135.4375" x="253" y="498.4717">Scheduled -&gt; Completed &#9989;</text><text fill="#C9D1D9" font-family="'Segoe UI, Inter, sans-serif'" font-size="11" lengthAdjust="spacing" textLength="131.1621" x="253" y="512.3076">Scheduled -&gt; Cancelled &#9989;</text><text fill="#C9D1D9" font-family="'Segoe UI, Inter, sans-serif'" font-size="11" lengthAdjust="spacing" textLength="125.0391" x="253" y="526.1436">Completed -&gt; anything &#10060;</text><text fill="#C9D1D9" font-family="'Segoe UI, Inter, sans-serif'" font-size="11" lengthAdjust="spacing" textLength="120.7637" x="253" y="539.9795">Cancelled -&gt; anything &#10060;</text></g><!--reverse link Patient to Appointment--><g class="link" data-entity-1="ent0022" data-entity-2="ent0021" data-link-type="dependency" data-source-line="162" id="lnk24"><path codeLine="162" d="M255.72,1164.4219 C301.68,1164.4219 366.28,1164.4219 417.97,1164.4219" fill="none" id="Patient-backto-Appointment" style="stroke:#58A6FF;stroke-width:1.5;"/><polygon fill="#58A6FF" points="249.72,1164.4219,258.72,1168.4219,254.72,1164.4219,258.72,1160.4219,249.72,1164.4219" style="stroke:#58A6FF;stroke-width:1.5;"/><text fill="#C9D1D9" font-family="'Segoe UI, Inter, sans-serif'" font-size="12" lengthAdjust="spacing" textLength="80.2969" x="295.4092" y="1132.3711">(1) FK PatientId</text><text fill="#C9D1D9" font-family="'Segoe UI, Inter, sans-serif'" font-size="12" lengthAdjust="spacing" textLength="84.041" x="290.25" y="1148.332">(Restrict Delete)</text></g><!--link Appointment to Doctor--><g class="link" data-entity-1="ent0021" data-entity-2="ent0025" data-link-type="dependency" data-source-line="165" id="lnk26"><path codeLine="165" d="M550.24,1164.4219 C602.16,1164.4219 667.07,1164.4219 712.95,1164.4219" fill="none" id="Appointment-to-Doctor" style="stroke:#3FB950;stroke-width:1.5;"/><polygon fill="#3FB950" points="718.95,1164.4219,709.95,1160.4219,713.95,1164.4219,709.95,1168.4219,718.95,1164.4219" style="stroke:#3FB950;stroke-width:1.5;"/><text fill="#C9D1D9" font-family="'Segoe UI, Inter, sans-serif'" font-size="12" lengthAdjust="spacing" textLength="79.623" x="596.4961" y="1132.3711">(2) FK DoctorId</text><text fill="#C9D1D9" font-family="'Segoe UI, Inter, sans-serif'" font-size="12" lengthAdjust="spacing" textLength="84.041" x="591" y="1148.332">(Restrict Delete)</text></g><!--reverse link AppointmentStatus to Appointment--><g class="link" data-entity-1="ent0027" data-entity-2="ent0021" data-link-type="dependency" data-source-line="168" id="lnk29"><path codeLine="168" d="M114.9816,545.2436 C136.8316,579.5736 170.56,630.2919 207,674.9219 C236.22,710.7119 252.43,712.1219 279,749.9219 C371.26,881.1919 444.62,1060.1119 472.19,1131.8119" fill="none" id="AppointmentStatus-backto-Appointment" style="stroke:#A371F7;stroke-width:1.5;"/><polygon fill="#A371F7" points="111.76,540.1819,113.218,549.9222,114.4447,544.4,119.9669,545.6267,111.76,540.1819" style="stroke:#A371F7;stroke-width:1.5;"/><text fill="#C9D1D9" font-family="'Segoe UI, Inter, sans-serif'" font-size="12" lengthAdjust="spacing" textLength="49.4941" x="287.2871" y="728.8711">(3) Status</text></g><!--reverse link IAppointmentService to AppointmentService--><g class="link" data-entity-1="ent0003" data-entity-2="ent0030" data-link-type="extension" data-source-line="171" id="lnk33"><path codeLine="171" d="M1299,1388.6719 C1299,1504.5119 1299,1619.7219 1299,1679.4919" fill="none" id="IAppointmentService-backto-AppointmentService" style="stroke:#8B949E;stroke-width:1.5;stroke-dasharray:7,7;"/><polygon fill="none" points="1299,1370.6719,1293,1388.6719,1305,1388.6719,1299,1370.6719" style="stroke:#8B949E;stroke-width:1.5;"/><text fill="#C9D1D9" font-family="'Segoe UI, Inter, sans-serif'" font-size="12" lengthAdjust="spacing" textLength="59.1621" x="1313.2871" y="1546.8711">(4) Realizes</text></g><!--link IAppointmentService to Result<T>--><g class="link" data-entity-1="ent0003" data-entity-2="ent0034" data-link-type="dependency" data-source-line="174" id="lnk35"><path codeLine="174" d="M1629.79,958.3319 C1757.15,890.2819 1907.09,823.2419 2053,788.9219 C2191.28,756.3919 4495.89,704.3119 4610,788.9219 C4720.27,870.6919 4727.7304,1050.3738 4725.8404,1125.7338" fill="none" id="IAppointmentService-to-Result&lt;T&gt;" style="stroke:#3FB950;stroke-width:1.5;"/><polygon fill="#3FB950" points="4725.69,1131.7319,4729.9144,1122.835,4725.8154,1126.7334,4721.9169,1122.6344,4725.69,1131.7319" style="stroke:#3FB950;stroke-width:1.5;"/><text fill="#C9D1D9" font-family="'Segoe UI, Inter, sans-serif'" font-size="12" lengthAdjust="spacing" textLength="50.6309" x="1954.7871" y="728.8711">(5) Wraps</text></g><!--link CreateAppointmentRequest to IAppointmentService--><g class="link" data-entity-1="ent0015" data-entity-2="ent0003" data-link-type="dependency" data-source-line="177" id="lnk36"><path codeLine="177" d="M3490.1,996.5619 C3458.15,918.9519 3407.73,834.1319 3331,788.9219 C3086.32,644.7419 2329.45,723.8919 2053,788.9219 C1907.09,823.2419 1762.442,887.4543 1635.082,955.5043" fill="none" id="CreateAppointmentRequest-to-IAppointmentService" style="stroke:#58A6FF;stroke-width:1.5;"/><polygon fill="#58A6FF" points="1629.79,958.3319,1639.613,957.6185,1634.2,955.9756,1635.8429,950.5626,1629.79,958.3319" style="stroke:#58A6FF;stroke-width:1.5;"/><text fill="#C9D1D9" font-family="'Segoe UI, Inter, sans-serif'" font-size="12" lengthAdjust="spacing" textLength="44.8945" x="1720.7871" y="728.8711">(6) Input</text></g><!--link UpdateAppointmentRequest to IAppointmentService--><g class="link" data-entity-1="ent0016" data-entity-2="ent0003" data-link-type="dependency" data-source-line="180" id="lnk37"><path codeLine="180" d="M3134.05,1034.9619 C3111.39,949.1519 3067.32,842.7819 2983,788.9219 C2808.83,677.6719 2254.18,741.6019 2053,788.9219 C1907.09,823.2419 1762.442,887.4543 1635.082,955.5043" fill="none" id="UpdateAppointmentRequest-to-IAppointmentService" style="stroke:#58A6FF;stroke-width:1.5;"/><polygon fill="#58A6FF" points="1629.79,958.3319,1639.613,957.6185,1634.2,955.9756,1635.8429,950.5626,1629.79,958.3319" style="stroke:#58A6FF;stroke-width:1.5;"/><text fill="#C9D1D9" font-family="'Segoe UI, Inter, sans-serif'" font-size="12" lengthAdjust="spacing" textLength="44.8945" x="1876.7871" y="728.8711">(7) Input</text></g><!--link IAppointmentService to AppointmentResponse--><g class="link" data-entity-1="ent0003" data-entity-2="ent0018" data-link-type="dependency" data-source-line="183" id="lnk38"><path codeLine="183" d="M1707.21,1164.4219 C1842.3,1164.4219 1975.94,1164.4219 2069.88,1164.4219" fill="none" id="IAppointmentService-to-AppointmentResponse" style="stroke:#58A6FF;stroke-width:1.5;"/><polygon fill="#58A6FF" points="2075.88,1164.4219,2066.88,1160.4219,2070.88,1164.4219,2066.88,1168.4219,2075.88,1164.4219" style="stroke:#58A6FF;stroke-width:1.5;"/><text fill="#C9D1D9" font-family="'Segoe UI, Inter, sans-serif'" font-size="12" lengthAdjust="spacing" textLength="54.8145" x="1864.2871" y="1148.3711">(8) Output</text></g><!--link AppointmentFilterRequest to IAppointmentService--><g class="link" data-entity-1="ent0013" data-entity-2="ent0003" data-link-type="dependency" data-source-line="186" id="lnk39"><path codeLine="186" d="M2806.95,996.6419 C2786.62,919.8119 2749.14,835.6319 2680,788.9219 C2564.55,710.9119 2188.63,757.0219 2053,788.9219 C1907.09,823.2419 1762.442,887.4543 1635.082,955.5043" fill="none" id="AppointmentFilterRequest-to-IAppointmentService" style="stroke:#58A6FF;stroke-width:1.5;"/><polygon fill="#58A6FF" points="1629.79,958.3319,1639.613,957.6185,1634.2,955.9756,1635.8429,950.5626,1629.79,958.3319" style="stroke:#58A6FF;stroke-width:1.5;"/><text fill="#C9D1D9" font-family="'Segoe UI, Inter, sans-serif'" font-size="12" lengthAdjust="spacing" textLength="44.8945" x="1798.7871" y="728.8711">(9) Input</text></g><!--reverse link PaginationRequest to AppointmentFilterRequest--><g class="link" data-entity-1="ent0019" data-entity-2="ent0013" data-link-type="extension" data-source-line="189" id="lnk41"><path codeLine="189" d="M2831,634.9519 C2831,738.3819 2831,877.6019 2831,996.8919" fill="none" id="PaginationRequest-backto-AppointmentFilterRequest" style="stroke:#8B949E;stroke-width:1.5;"/><polygon fill="none" points="2831,616.9519,2825,634.9519,2837,634.9519,2831,616.9519" style="stroke:#8B949E;stroke-width:1.5;"/><text fill="#C9D1D9" font-family="'Segoe UI, Inter, sans-serif'" font-size="12" lengthAdjust="spacing" textLength="64.3359" x="2845.2871" y="728.8711">(10) Extends</text></g><!--link IAppointmentService to PagedResponse<T>--><g class="link" data-entity-1="ent0003" data-entity-2="ent0020" data-link-type="dependency" data-source-line="192" id="lnk42"><path codeLine="192" d="M1378.43,958.4219 C1421.95,869.6019 1483.98,771.0419 1566,704.9219 C1708.5,590.0319 1914.0974,542.4685 2045.8374,522.5585" fill="none" id="IAppointmentService-to-PagedResponse&lt;T&gt;" style="stroke:#58A6FF;stroke-width:1.5;"/><polygon fill="#58A6FF" points="2051.77,521.6619,2042.2733,519.0517,2046.8261,522.409,2043.4688,526.9619,2051.77,521.6619" style="stroke:#58A6FF;stroke-width:1.5;"/><text fill="#C9D1D9" font-family="'Segoe UI, Inter, sans-serif'" font-size="12" lengthAdjust="spacing" textLength="98.2031" x="1580.2871" y="728.8711">(11) Wraps Output</text></g><!--link UpdateAppointmentRequest to GMN46--><g class="link" data-entity-1="ent0016" data-entity-2="ent0047" data-link-type="association" data-source-line="212" id="lnk48"><path d="M3188.21,1293.5019 C3213.69,1370.0219 3257.8,1462.3019 3331,1514.9219 C3547.46,1670.5119 4396.46,1703.3119 4666.82,1709.8619" fill="none" id="UpdateAppointmentRequest-GMN46" style="stroke:#8B949E;stroke-width:1.5;stroke-dasharray:7,7;"/></g><g class="footer" data-source-line="18"><text fill="#E6EDF3" font-family="'Segoe UI, Inter, sans-serif'" font-size="10" lengthAdjust="spacing" textLength="173.6279" x="2325.9719" y="1835.7129">Appointment Module Structural Design</text></g><?plantuml-src lLbRSnev5dxdLsX8rGI8mO0NUqpPk8Y13JNnfGpPVTXDJScD06s4r2kf7JCphfgNUTl7VTpzS_abUoHrDtsrdMmoUKcZ8vrFvzEvINw9cb_sh_8IJIWZVUGnh5JB3pOCXhvSsNKWVQ48GgYFperADA9u9V46VVhjtsZe-u9olI5Sev7OOChHzsX6v1tr21fARqqryNGW2MXwYxT48cGrZOIdKEtTnTiw28Q1NWlf11TYZJTaWOQCWkHS4gpXbv5qszt3PlkWsUc1OEPBW7LBUjcTAFGAlGuKvGHs-rQigFT_C53vRa6Me0gzcur_EdytcrzT_3H_CxuOLxwZt6F1Wg1MQzyJV4bN-qfl6N6SLpJLZ3oFiYHHg1RQrgjNODkdfwVe3S4B8lSdGcWW44OgQpi2oYcd7hh07A-8LJZRAaqsg1bflX0BmYfBjpA93880jZVJCZ2mcA4HKNJ58qmuB160Fg8rvIjbKTK7odrix5X94VXJlYQIQipXgBi98GTCHNnqs4uCIim_X8CXmZNsFi2sdUgAxtwXghDfPzBmUjew5vAqfXniM6AFg2fwqJdilEvsqI-LYl416ebGTPemClJ3AZevGV5gD1Z0CXJ-UuN-JFIGiQ7QSg-sf0nczPD4JUpG3VbdG9IkWxVDiVfmSaDKmFJ9DUnn0T--u8gS95P5OuF180trUdkDDJLcMK3V_PWk-iQ6FUJZ5UKm9dWV-8c-lo8wn9qMqe4lxFSVXprTE5pg4BCg2vKaTBXSu5H8jwj-D9XSMhZVfvI_ynUnSXen4gE4qg-4CjDO1-hPM6xw5oAE22CPkx8gReLWuPg7oiDp8j4c5HE5xL6dqpcAej0M75GzyGGJil_YOFBwkDSUd7n_A-u79_jsT812qFd0HcLjjXVEgyUfA1UXKpKBFC_ayZuocqs8_e9PG8mzYR6nb51C-aXfIAEhXC0HUGwRHvQ8MFIB0Wdr7imSXrIxCuf1ho4htdBHWWcc3FPS8mOr0jr37g34RASLF3Ys20ysExA61qUToH6GnQZIExPoRc1P6vkbAP9ctfgOVBv0fwWTZvwBZM-EtunsTgCcOJCtjvlSKURyUZyC3oSJs1AKO-fXrlIaK6gtjp2HkNCSxxqOTO-Fkzqwx0ugtpPtY8iCwK1TmDWb5FkYinf3zM9vGRE9fZEnrDQjyIqKCAZGIKzn_hx8Uqee66hJV420pUc6d3rYVUozK4-XEr6UyCdETfT6lutfCvzu53Fwiys_HJEcQdW7z5ZxCuR-SGGvcu4WS0t25rWMUksNKtGTbKOd0JsJ7zEfBInVPVB4BemzeLbNd6sB9nc3JIg1_pAJHj0VcREue3pGHCM0q1XY2EpJWtOAs4KgwkUZDp7fKZXDxd3FSdKkVH2v6b9qJk7vN-8xkdA-aphxa53KZxvoNBg-73u-fnYCvbUgbMo-SzrPw3XbJPLr4T2IzGdJOiHKKzThaaMAQJDbHdz-QjgCO6YmvqHkTeINJZQSJgJO9FpbB2EUYn9X-SaNHL9Pxr9EI3OYp08gimPauw9mLdbqF6D59bHATr8IDpUOhqYjqzlhTDlrFLGIHfa8WNKN-FujuRLUkrqV30e8BMlJoWWjv-3iMNQVFMNhMTROhsrWgZSiCxFSA_C7zr0Mib5tMGRoT0RFIyegODg3SuB7bprTFhznOIXYFhU7Rv3-FoDVbwNetBNlMRavYj_E7WgTVUyLvSlwuwawNjNUBUjb8gGeSHUuQVeo6bujYdnKauqXVMeQQ29DUvJiwb-XkT2OdOl0LidqKLhHjNslY2pmeBqEikNZ3LQNv5w7_TKZiwubkQCYKAKpxNcwfv8Rmkofg3Nrm_UIbwZMgQTUT2HP4acWjrTnWK-ActyBE_htZ2nrSv3e1wfMr-J7NSJ-dTU0Jo3Sqs5ZM4TL2zej1GrRXmocwwFVIxfQ6z2uqQXQLO0P1Nivv44QSerL65XPB7U9UX_upOARayCyg4T1wNJ_AQKxUhYavjxaNX8BtfCgvS4LpaWrHF4hL2lmMxyEYZIwlS5UReZ9N2JQNQzUE5iIk2PpbRXN5itAarzDNBuj8kZ_gyH-17TOZvzkFN0sY15L-i1IAHCa72t2BRKO0ASSV3x4Foh0BwlfbJB1v-0VfV5_sE5751TKm3AoGz25-CZJ_XSjT9W0SXNe7UXnWT5bhNAbJF0vHX-dZUwqwwLuA6oHLVv1y96jGFpzEiYl21CDm8tlDTmO8w_hTFAqfpBwymWlg08Ei1CvUP9sarLT3RRPbCCdqi97Ofaam-RXHkDI87Ed3jDIes6VyGD5eZo465qIR-inqh8hmb4jCLVKvks-qvHufu4TxvvdFltdzy89yKlDRiALXXDHHlhfl_-gk2jVUCsphNYZ4Q-2ZUB4lSnLJCpHBO5PQomNq7bR_4QZbTRKQ5pT4ScmZoP2RWA66mrd0Rcdolmz02oKK08H9n_7V655mykH-Hb9efb638UD3CCXpxT2QxXV0TMbmMqLCeQMb31m5E4R5Z7y3k-cZOOFCD3ceS2g00iY7x9oIVv1F71RkaHufmPBWdZ0MCPQEDwuyEt7lIUSSSGOx1fvQzEZe8zhWU04h2H1Bd3AXFapYHQjhBas83EEbNWEQ3H2Tvdlt2MY-mbtUS9PTWj0ZFbMh-4yOhVPpSzAu_t_3m00?></g></svg>