<?plantuml 1.2026.2?><svg xmlns="http://www.w3.org/2000/svg" xmlns:xlink="http://www.w3.org/1999/xlink" contentStyleType="text/css" data-diagram-type="DESCRIPTION" height="1860px" preserveAspectRatio="none" style="width:2237px;height:1860px;background:#0D1117;" version="1.1" viewBox="0 0 2237 1860" width="2237px" zoomAndPan="magnify"><title>Component &#8212; Appointment CRUD &amp; Architecture Overview (Sprint 5)</title><defs/><g><rect fill="#0D1117" height="1860" style="stroke:none;stroke-width:1;" width="2237" x="0" y="0"/><g class="header" data-source-line="17"><text fill="#E6EDF3" font-family="'Segoe UI, Inter, sans-serif'" font-size="10" lengthAdjust="spacing" textLength="226.2012" x="1987.2826" y="20.791">Clinic Management System - Architecture Overview</text></g><g class="title" data-source-line="14"><text fill="#E6EDF3" font-family="'Segoe UI, Inter, sans-serif'" font-size="14" font-weight="bold" lengthAdjust="spacing" textLength="461.8018" x="880.841" y="69.4082">Component &#8212; Appointment CRUD &amp; Architecture Overview (Sprint 5)</text></g><!--cluster GITHUB--><g class="cluster" data-qualified-name="GITHUB" data-source-line="26" id="ent0002"><path d="M28.3135,357.6378 C31.979,347.3923 41.9581,343.7864 49.4074,353.6732 C55.8346,342.3225 62.408,343.5277 70.3492,352.0803 C77.3745,340.8823 84.1438,340.0015 92.5072,350.728 C98.2315,339.7786 107.3735,339.3679 115.3537,348.1107 C122.5534,339.6817 132.0431,342.0696 136.0275,351.776 C142.2475,341.7455 148.5561,340.813 155.9759,350.5663 C163.5977,339.7403 171.9817,342.7963 177.6009,352.6596 C189.1821,340.762 201.3063,345.4769 204.4838,360.9219 C206.5841,360.1359 207.5411,360.9297 207.8603,363.0158 C217.936,368.3953 216.5449,374.7774 209.2579,381.4718 C220.7474,387.6206 219.7885,397.1449 208.9911,403.0176 C218.1071,406.4491 218.8143,413.8297 212.5019,420.3808 C223.598,427.0451 223.3672,436.1626 212.0892,442.4077 C221.5441,446.2128 221.718,453.1536 215.1517,459.7826 C225.3605,466.5776 225.225,474.9718 215.2902,481.8929 C224.7919,486.7562 226.5498,493.5143 218.0419,500.9748 C225.5559,507.6694 225.1509,514.1161 215.7988,518.673 C225.4421,524.6232 225.0096,533.359 215.1582,538.6851 C225.0159,545.6866 222.42,553.7316 213.0593,558.7197 C222.1638,565.2712 219.352,573.1961 210.6706,577.4833 C221.473,583.0904 220.8333,592.4619 210.4971,597.8893 C220.3374,604.952 219.4982,613.454 209.9729,620.0587 C217.0915,634.1357 213.1983,641.3175 197.4838,642.9219 C198.2323,642.2573 198.7487,642.596 199.0439,643.4026 C194.4932,655.3596 185.3792,655.8316 177.6282,646.644 C168.9029,657.2231 161.8948,655.7642 155.2093,644.546 C149.9976,654.8421 141.9399,655.7218 134.79,646.5823 C130.0064,657.035 119.5368,659.2187 112.7986,648.6246 C104.6337,658.3299 95.9493,657.0243 91.7346,644.8259 C85.9129,655.4875 75.8492,655.7522 69.3518,645.5508 C63.895,656.1012 55.326,656.8584 48.2794,647.2093 C33.8395,658.2695 23.3849,651.7475 19.4838,635.9219 C20.803,634.4954 22.1128,634.9273 22.6372,636.7043 C12.9694,633.2458 12.912,625.1893 20.5101,619.5854 C10.3452,613.6871 9.3509,603.8045 20.5327,597.9284 C9.718,593.3859 10.5503,583.8291 19.3323,578.1002 C10.0389,572.6467 9.7641,566.3246 16.8128,558.7438 C6.896,552.4019 8.8282,545.4376 17.4332,539.6992 C9.7898,534.643 7.4297,525.7523 17.4112,520.6757 C6.4374,514.1811 8.1341,506.9862 16.5758,499.7177 C8.6713,493.5632 8.5391,487.354 16.7072,481.3143 C8.4797,475.6427 8.8175,466.6769 17.4338,461.6269 C8.3569,455.3617 7.9316,448.8688 16.4931,441.7681 C6,434.8092 7.2684,424.4289 19.2796,420.4055 C9.0318,415.1273 8.8564,406.2264 18.9119,400.5719 C11.2672,393.8003 10.7799,387.7903 20.5759,382.6369 C8.9332,371.7639 10.7377,359.1598 26.4838,353.9219 C28.8308,354.1087 29.3809,355.7698 28.3135,357.6378" fill="#161B22" style="stroke:#30363D;stroke-width:1;"/><path d="M50.8626,375.8763 C49.4509,375.8763 48.2142,376.8796 47.9459,378.2096 C46.6626,378.2096 45.6126,379.2596 45.6126,380.543 C45.6126,381.8263 46.6626,382.8763 47.9459,382.8763 L53.1959,382.8763 C54.1642,382.8763 54.9459,382.0946 54.9459,381.1263 C54.9459,380.368 54.4559,379.6213 53.7792,379.3763 L53.7792,378.793 C53.7792,377.183 52.4726,375.8763 50.8626,375.8763" fill="#E6EDF3"/><text fill="#E6EDF3" font-family="'Segoe UI, Inter, sans-serif'" font-size="14" font-weight="bold" lengthAdjust="spacing" textLength="119.5469" x="59.8082" y="384.0293">GitHub Ecosystem</text></g><!--cluster ClinicManagementAPI System--><g class="cluster" data-qualified-name="ClinicManagementAPI System" data-source-line="32" id="ent0007"><path d="M372.4838,101.9219 L612.1791,101.9219 A9,9 0 0 1 618.1791,107.9219 L625.1791,149.2031 L1821.4838,149.2031 A6,6 0 0 1 1827.4838,155.2031 L1827.4838,1664.9219 A6,6 0 0 1 1821.4838,1670.9219 L372.4838,1670.9219 A6,6 0 0 1 366.4838,1664.9219 L366.4838,107.9219 A6,6 0 0 1 372.4838,101.9219" fill="#0D1117" style="stroke:#30363D;stroke-width:1.5;"/><line style="stroke:#30363D;stroke-width:1.5;" x1="366.4838" x2="625.1791" y1="149.2031" y2="149.2031"/><text fill="#58A6FF" font-family="'Segoe UI, Inter, sans-serif'" font-size="16" font-weight="bold" lengthAdjust="spacing" textLength="225.6953" x="380.4838" y="131.1875">ClinicManagementAPI System</text></g><!--cluster API--><g class="cluster" data-qualified-name="ClinicManagementAPI System.API" data-source-line="34" id="ent0008"><path d="M404.4838,834.9219 L592.6974,834.9219 A9,9 0 0 1 598.6974,840.9219 L605.6974,882.2031 L1047.4838,882.2031 A6,6 0 0 1 1053.4838,888.2031 L1053.4838,1574.9219 A6,6 0 0 1 1047.4838,1580.9219 L404.4838,1580.9219 A6,6 0 0 1 398.4838,1574.9219 L398.4838,840.9219 A6,6 0 0 1 404.4838,834.9219" fill="#161B22" style="stroke:#30363D;stroke-width:1.5;"/><line style="stroke:#30363D;stroke-width:1.5;" x1="398.4838" x2="605.6974" y1="882.2031" y2="882.2031"/><path d="M413.4838,853.5365 L413.4838,854.8698 L424.1505,854.8698 L424.1505,853.5365 L413.4838,853.5365 M413.4838,856.2031 L413.4838,864.0831 C413.4838,864.1498 413.5372,864.2031 413.6038,864.2031 L424.0172,864.2031 C424.0838,864.2031 424.1372,864.1498 424.1372,864.0831 L424.1372,856.2031 L420.1772,856.2031 L420.1772,857.5765 L417.4705,857.5765 L417.4705,856.2031 L413.4705,856.2031" fill="#58A6FF"/><text fill="#58A6FF" font-family="'Segoe UI, Inter, sans-serif'" font-size="16" font-weight="bold" lengthAdjust="spacing" textLength="157.1328" x="429.5645" y="864.1875">Api Project (.NET 10)</text><text fill="#58A6FF" font-family="'Segoe UI, Inter, sans-serif'" font-size="16" font-weight="bold" lengthAdjust="spacing" textLength="59.0156" x="700.476" y="911.4688">&#171;Layer&#187;</text></g><!--cluster CORE--><g class="cluster" data-qualified-name="ClinicManagementAPI System.CORE" data-source-line="44" id="ent0016"><path d="M1213.4838,641.9219 L1410.7677,641.9219 A9,9 0 0 1 1416.7677,647.9219 L1423.7677,689.2031 L1797.4838,689.2031 A6,6 0 0 1 1803.4838,695.2031 L1803.4838,1640.9219 A6,6 0 0 1 1797.4838,1646.9219 L1213.4838,1646.9219 A6,6 0 0 1 1207.4838,1640.9219 L1207.4838,647.9219 A6,6 0 0 1 1213.4838,641.9219" fill="#161B22" style="stroke:#30363D;stroke-width:1.5;"/><line style="stroke:#30363D;stroke-width:1.5;" x1="1207.4838" x2="1423.7677" y1="689.2031" y2="689.2031"/><path d="M1222.4838,660.5365 L1222.4838,661.8698 L1233.1505,661.8698 L1233.1505,660.5365 L1222.4838,660.5365 M1222.4838,663.2031 L1222.4838,671.0831 C1222.4838,671.1498 1222.5372,671.2031 1222.6038,671.2031 L1233.0172,671.2031 C1233.0838,671.2031 1233.1372,671.1498 1233.1372,671.0831 L1233.1372,663.2031 L1229.1772,663.2031 L1229.1772,664.5765 L1226.4705,664.5765 L1226.4705,663.2031 L1222.4705,663.2031" fill="#58A6FF"/><text fill="#58A6FF" font-family="'Segoe UI, Inter, sans-serif'" font-size="16" font-weight="bold" lengthAdjust="spacing" textLength="166.2031" x="1238.5645" y="671.1875">Core Project (.NET 10)</text><text fill="#58A6FF" font-family="'Segoe UI, Inter, sans-serif'" font-size="16" font-weight="bold" lengthAdjust="spacing" textLength="59.0156" x="1479.976" y="718.4688">&#171;Layer&#187;</text></g><!--cluster DATA_FOLDER--><g class="cluster" data-qualified-name="ClinicManagementAPI System.CORE.DATA_FOLDER" data-source-line="54" id="ent0025"><path d="M1586.4838,750.9219 L1631.3207,750.9219 A9,9 0 0 1 1637.3207,756.9219 L1644.3207,795.543 L1773.4838,795.543 A6,6 0 0 1 1779.4838,801.543 L1779.4838,1163.9219 A6,6 0 0 1 1773.4838,1169.9219 L1586.4838,1169.9219 A6,6 0 0 1 1580.4838,1163.9219 L1580.4838,756.9219 A6,6 0 0 1 1586.4838,750.9219" fill="#161B22" style="stroke:#30363D;stroke-width:1.5;"/><line style="stroke:#30363D;stroke-width:1.5;" x1="1580.4838" x2="1644.3207" y1="795.543" y2="795.543"/><text fill="#E6EDF3" font-family="'Segoe UI, Inter, sans-serif'" font-size="14" font-weight="bold" lengthAdjust="spacing" textLength="30.8369" x="1594.4838" y="778.0293">Data</text></g><!--cluster TESTS--><g class="cluster" data-qualified-name="ClinicManagementAPI System.TESTS" data-source-line="61" id="ent0029"><path d="M1597.9838,177.9219 L1707.8198,177.9219 A9,9 0 0 1 1713.8198,183.9219 L1720.8198,225.2031 L1761.9838,225.2031 A6,6 0 0 1 1767.9838,231.2031 L1767.9838,603.9219 A6,6 0 0 1 1761.9838,609.9219 L1597.9838,609.9219 A6,6 0 0 1 1591.9838,603.9219 L1591.9838,183.9219 A6,6 0 0 1 1597.9838,177.9219" fill="#161B22" style="stroke:#30363D;stroke-width:1.5;"/><line style="stroke:#30363D;stroke-width:1.5;" x1="1591.9838" x2="1720.8198" y1="225.2031" y2="225.2031"/><text fill="#58A6FF" font-family="'Segoe UI, Inter, sans-serif'" font-size="16" font-weight="bold" lengthAdjust="spacing" textLength="95.8359" x="1605.9838" y="207.1875">Tests Project</text><text fill="#58A6FF" font-family="'Segoe UI, Inter, sans-serif'" font-size="16" font-weight="bold" lengthAdjust="spacing" textLength="59.0156" x="1654.476" y="254.4688">&#171;Layer&#187;</text></g><!--cluster External Infrastructure--><g class="cluster" data-qualified-name="External Infrastructure" data-source-line="68" id="ent0032"><polygon fill="#161B22" points="1976.4838,910.9219,1986.4838,900.9219,2220.4838,900.9219,2220.4838,1250.9219,2210.4838,1260.9219,1976.4838,1260.9219,1976.4838,910.9219" style="stroke:#30363D;stroke-width:1;"/><line style="stroke:#30363D;stroke-width:1;" x1="2210.4838" x2="2220.4838" y1="910.9219" y2="900.9219"/><line style="stroke:#30363D;stroke-width:1;" x1="1976.4838" x2="2210.4838" y1="910.9219" y2="910.9219"/><line style="stroke:#30363D;stroke-width:1;" x1="2210.4838" x2="2210.4838" y1="910.9219" y2="1260.9219"/><text fill="#E6EDF3" font-family="'Segoe UI, Inter, sans-serif'" font-size="14" font-weight="bold" lengthAdjust="spacing" textLength="148.4287" x="2020.2695" y="939.0293">External Infrastructure</text></g><!--entity CI--><g class="entity" data-qualified-name="GITHUB.CI" data-source-line="27" id="ent0003"><rect fill="#0D1117" height="107.2422" rx="6" ry="6" style="stroke:#58A6FF;stroke-width:1.5;" width="168.5335" x="27.4838" y="527.4219"/><rect fill="#0D1117" height="10" style="stroke:#58A6FF;stroke-width:1.5;" width="15" x="176.0173" y="532.4219"/><rect fill="#0D1117" height="2" style="stroke:#58A6FF;stroke-width:1.5;" width="4" x="174.0173" y="534.4219"/><rect fill="#0D1117" height="2" style="stroke:#58A6FF;stroke-width:1.5;" width="4" x="174.0173" y="538.4219"/><text fill="#E6EDF3" font-family="'Segoe UI, Inter, sans-serif'" font-size="14" font-style="italic" lengthAdjust="spacing" textLength="51.5293" x="80.9859" y="572.5293">&#171;CI/CD&#187;</text><path d="M57.5672,601.8307 L56.9838,603.2191 C56.8672,603.2541 56.7622,603.3124 56.6572,603.3707 L55.2688,602.7874 L54.4288,603.6274 L55.0122,605.0157 C54.9538,605.1324 54.9072,605.2257 54.8605,605.3424 L53.4722,605.9257 L53.4722,607.0924 L54.8605,607.6757 C54.9072,607.7924 54.9538,607.8857 55.0122,608.0024 L54.4288,609.3907 L55.2688,610.2307 L56.6572,609.6474 C56.7622,609.6941 56.8672,609.7524 56.9838,609.7991 L57.5672,611.1874 L58.7338,611.1874 L59.3172,609.7991 C59.4222,609.7524 59.5388,609.7057 59.6438,609.6474 L61.0322,610.2307 L61.8722,609.3907 L61.2888,608.0024 C61.3355,607.8974 61.3938,607.7807 61.4405,607.6757 L62.8288,607.0924 L62.8288,605.9257 L61.4405,605.3424 C61.4055,605.2374 61.3472,605.1207 61.2888,605.0157 L61.8722,603.6274 L61.0322,602.7874 L59.6438,603.3707 C59.5388,603.3241 59.4222,603.2657 59.3172,603.2191 L58.7338,601.8307 L57.5672,601.8307 M58.1505,604.7474 C59.1188,604.7474 59.9005,605.5291 59.9005,606.4974 C59.9005,607.4657 59.1188,608.2474 58.1505,608.2474 C57.1822,608.2474 56.4005,607.4657 56.4005,606.4974 C56.4005,605.5291 57.1822,604.7474 58.1505,604.7474" fill="#58A6FF"/><text fill="#E6EDF3" font-family="'Segoe UI, Inter, sans-serif'" font-size="14" lengthAdjust="spacing" textLength="93.3652" x="67.6521" y="611.1504">GitHub Actions</text></g><g class="entity" data-qualified-name="GITHUB.GMN4" data-source-line="28" id="ent0005"><path d="M46.9838,408.9219 L46.9838,470.8145 A6,6 0 0 0 52.9838,476.8145 L107.9838,476.8145 L111.9838,527.2219 L115.9838,476.8145 L170.6498,476.8145 A6,6 0 0 0 176.6498,470.8145 L176.6498,412.9219 L166.6498,402.9219 L52.9838,402.9219 A6,6 0 0 0 46.9838,408.9219" fill="#21262D" style="stroke:#F85149;stroke-width:0.5;"/><path d="M166.6498,402.9219 L166.6498,409.9219 A3,3 0 0 0 169.6498,412.9219 L176.6498,412.9219 L166.6498,402.9219" fill="#21262D" style="stroke:#F85149;stroke-width:0.5;"/><text fill="#C9D1D9" font-family="'Segoe UI, Inter, sans-serif'" font-size="11" lengthAdjust="spacing" textLength="72.8374" x="62.9838" y="429.792">Build, Lint, Test</text><text fill="#C9D1D9" font-family="'Segoe UI, Inter, sans-serif'" font-size="11" lengthAdjust="spacing" textLength="88.666" x="62.9838" y="444.4229">(dotnet build/test)</text><text fill="#C9D1D9" font-family="'Segoe UI, Inter, sans-serif'" font-size="11" lengthAdjust="spacing" textLength="43.3447" x="62.9838" y="459.0537">181 tests</text></g><!--entity AUTH_ENDP--><g class="entity" data-qualified-name="ClinicManagementAPI System.API.AUTH_ENDP" data-source-line="35" id="ent0009"><rect fill="#0D1117" height="107.2422" rx="6" ry="6" style="stroke:#58A6FF;stroke-width:1.5;" width="166.4691" x="423.4838" y="1258.4219"/><rect fill="#0D1117" height="10" style="stroke:#58A6FF;stroke-width:1.5;" width="15" x="569.9529" y="1263.4219"/><rect fill="#0D1117" height="2" style="stroke:#58A6FF;stroke-width:1.5;" width="4" x="567.9529" y="1265.4219"/><rect fill="#0D1117" height="2" style="stroke:#58A6FF;stroke-width:1.5;" width="4" x="567.9529" y="1269.4219"/><text fill="#E6EDF3" font-family="'Segoe UI, Inter, sans-serif'" font-size="14" font-style="italic" lengthAdjust="spacing" textLength="88.6553" x="457.3907" y="1303.5293">&#171;Minimal API&#187;</text><path d="M454.1505,1332.8307 L453.9288,1332.9357 L449.8455,1334.6507 L449.4838,1334.8024 L449.4838,1335.1641 C449.4838,1337.1007 450.2655,1338.8041 451.1988,1340.0524 C451.6655,1340.6707 452.1672,1341.1841 452.6572,1341.5457 C453.1472,1341.9074 453.6255,1342.1641 454.1505,1342.1641 C454.6872,1342.1641 455.1538,1341.9074 455.6438,1341.5457 C456.1338,1341.1841 456.6355,1340.6707 457.1022,1340.0524 C458.0355,1338.8041 458.8172,1337.1007 458.8172,1335.1641 L458.8172,1334.8024 L458.4555,1334.6507 L454.3722,1332.9357 L454.1505,1332.8307 M454.1505,1334.1024 L454.1505,1340.9974 C454.1038,1340.9974 453.7655,1340.9157 453.3805,1340.6357 C452.9955,1340.3557 452.5522,1339.9007 452.1438,1339.3641 C451.3972,1338.3724 450.8138,1336.9957 450.7205,1335.5374 L454.1505,1334.1141" fill="#F85149"/><text fill="#E6EDF3" font-family="'Segoe UI, Inter, sans-serif'" font-size="14" lengthAdjust="spacing" textLength="91.3008" x="463.6521" y="1342.1504">AuthEndpoints</text></g><!--entity PAT_ENDP--><g class="entity" data-qualified-name="ClinicManagementAPI System.API.PAT_ENDP" data-source-line="36" id="ent0010"><rect fill="#0D1117" height="107.2422" rx="6" ry="6" style="stroke:#58A6FF;stroke-width:1.5;" width="179.9359" x="829.9838" y="1415.4219"/><rect fill="#0D1117" height="10" style="stroke:#58A6FF;stroke-width:1.5;" width="15" x="989.9197" y="1420.4219"/><rect fill="#0D1117" height="2" style="stroke:#58A6FF;stroke-width:1.5;" width="4" x="987.9197" y="1422.4219"/><rect fill="#0D1117" height="2" style="stroke:#58A6FF;stroke-width:1.5;" width="4" x="987.9197" y="1426.4219"/><text fill="#E6EDF3" font-family="'Segoe UI, Inter, sans-serif'" font-size="14" font-style="italic" lengthAdjust="spacing" textLength="88.6553" x="870.6241" y="1460.5293">&#171;Minimal API&#187;</text><path d="M860.6505,1489.8307 L860.4288,1489.9357 L856.3455,1491.6507 L855.9838,1491.8024 L855.9838,1492.1641 C855.9838,1494.1007 856.7655,1495.8041 857.6988,1497.0524 C858.1655,1497.6707 858.6672,1498.1841 859.1572,1498.5457 C859.6472,1498.9074 860.1255,1499.1641 860.6505,1499.1641 C861.1872,1499.1641 861.6538,1498.9074 862.1438,1498.5457 C862.6338,1498.1841 863.1355,1497.6707 863.6022,1497.0524 C864.5355,1495.8041 865.3172,1494.1007 865.3172,1492.1641 L865.3172,1491.8024 L864.9555,1491.6507 L860.8722,1489.9357 L860.6505,1489.8307 M860.6505,1491.1024 L860.6505,1497.9974 C860.6038,1497.9974 860.2655,1497.9157 859.8805,1497.6357 C859.4955,1497.3557 859.0522,1496.9007 858.6438,1496.3641 C857.8972,1495.3724 857.3138,1493.9957 857.2205,1492.5374 L860.6505,1491.1141" fill="#F85149"/><text fill="#E6EDF3" font-family="'Segoe UI, Inter, sans-serif'" font-size="14" lengthAdjust="spacing" textLength="104.7676" x="870.1521" y="1499.1504">PatientEndpoints</text></g><!--entity DOC_ENDP--><g class="entity" data-qualified-name="ClinicManagementAPI System.API.DOC_ENDP" data-source-line="37" id="ent0011"><rect fill="#0D1117" height="107.2422" rx="6" ry="6" style="stroke:#58A6FF;stroke-width:1.5;" width="179.1497" x="830.4838" y="1258.4219"/><rect fill="#0D1117" height="10" style="stroke:#58A6FF;stroke-width:1.5;" width="15" x="989.6336" y="1263.4219"/><rect fill="#0D1117" height="2" style="stroke:#58A6FF;stroke-width:1.5;" width="4" x="987.6336" y="1265.4219"/><rect fill="#0D1117" height="2" style="stroke:#58A6FF;stroke-width:1.5;" width="4" x="987.6336" y="1269.4219"/><text fill="#E6EDF3" font-family="'Segoe UI, Inter, sans-serif'" font-size="14" font-style="italic" lengthAdjust="spacing" textLength="88.6553" x="870.7311" y="1303.5293">&#171;Minimal API&#187;</text><path d="M861.1505,1332.8307 L860.9288,1332.9357 L856.8455,1334.6507 L856.4838,1334.8024 L856.4838,1335.1641 C856.4838,1337.1007 857.2655,1338.8041 858.1988,1340.0524 C858.6655,1340.6707 859.1672,1341.1841 859.6572,1341.5457 C860.1472,1341.9074 860.6255,1342.1641 861.1505,1342.1641 C861.6872,1342.1641 862.1538,1341.9074 862.6438,1341.5457 C863.1338,1341.1841 863.6355,1340.6707 864.1022,1340.0524 C865.0355,1338.8041 865.8172,1337.1007 865.8172,1335.1641 L865.8172,1334.8024 L865.4555,1334.6507 L861.3722,1332.9357 L861.1505,1332.8307 M861.1505,1334.1024 L861.1505,1340.9974 C861.1038,1340.9974 860.7655,1340.9157 860.3805,1340.6357 C859.9955,1340.3557 859.5522,1339.9007 859.1438,1339.3641 C858.3972,1338.3724 857.8138,1336.9957 857.7205,1335.5374 L861.1505,1334.1141" fill="#F85149"/><text fill="#E6EDF3" font-family="'Segoe UI, Inter, sans-serif'" font-size="14" lengthAdjust="spacing" textLength="103.9814" x="870.6521" y="1342.1504">DoctorEndpoints</text></g><!--entity APT_ENDP--><g class="entity" data-qualified-name="ClinicManagementAPI System.API.APT_ENDP" data-source-line="38" id="ent0012"><rect fill="#0D1117" height="107.2422" rx="6" ry="6" style="stroke:#58A6FF;stroke-width:1.5;" width="218.6478" x="810.4838" y="1101.4219"/><rect fill="#0D1117" height="10" style="stroke:#58A6FF;stroke-width:1.5;" width="15" x="1009.1316" y="1106.4219"/><rect fill="#0D1117" height="2" style="stroke:#58A6FF;stroke-width:1.5;" width="4" x="1007.1316" y="1108.4219"/><rect fill="#0D1117" height="2" style="stroke:#58A6FF;stroke-width:1.5;" width="4" x="1007.1316" y="1112.4219"/><text fill="#E6EDF3" font-family="'Segoe UI, Inter, sans-serif'" font-size="14" font-style="italic" lengthAdjust="spacing" textLength="88.6553" x="870.4801" y="1146.5293">&#171;Minimal API&#187;</text><path d="M841.1505,1175.8307 L840.9288,1175.9357 L836.8455,1177.6507 L836.4838,1177.8024 L836.4838,1178.1641 C836.4838,1180.1007 837.2655,1181.8041 838.1988,1183.0524 C838.6655,1183.6707 839.1672,1184.1841 839.6572,1184.5457 C840.1472,1184.9074 840.6255,1185.1641 841.1505,1185.1641 C841.6872,1185.1641 842.1538,1184.9074 842.6438,1184.5457 C843.1338,1184.1841 843.6355,1183.6707 844.1022,1183.0524 C845.0355,1181.8041 845.8172,1180.1007 845.8172,1178.1641 L845.8172,1177.8024 L845.4555,1177.6507 L841.3722,1175.9357 L841.1505,1175.8307 M841.1505,1177.1024 L841.1505,1183.9974 C841.1038,1183.9974 840.7655,1183.9157 840.3805,1183.6357 C839.9955,1183.3557 839.5522,1182.9007 839.1438,1182.3641 C838.3972,1181.3724 837.8138,1179.9957 837.7205,1178.5374 L841.1505,1177.1141" fill="#D29922"/><text fill="#E6EDF3" font-family="'Segoe UI, Inter, sans-serif'" font-size="14" lengthAdjust="spacing" textLength="143.4795" x="850.6521" y="1185.1504">AppointmentEndpoints</text></g><!--entity USR_ENDP--><g class="entity" data-qualified-name="ClinicManagementAPI System.API.USR_ENDP" data-source-line="39" id="ent0013"><rect fill="#0D1117" height="107.2422" rx="6" ry="6" style="stroke:#58A6FF;stroke-width:1.5;" width="164.596" x="423.9838" y="1101.4219"/><rect fill="#0D1117" height="10" style="stroke:#58A6FF;stroke-width:1.5;" width="15" x="568.5798" y="1106.4219"/><rect fill="#0D1117" height="2" style="stroke:#58A6FF;stroke-width:1.5;" width="4" x="566.5798" y="1108.4219"/><rect fill="#0D1117" height="2" style="stroke:#58A6FF;stroke-width:1.5;" width="4" x="566.5798" y="1112.4219"/><text fill="#E6EDF3" font-family="'Segoe UI, Inter, sans-serif'" font-size="14" font-style="italic" lengthAdjust="spacing" textLength="88.6553" x="456.9542" y="1146.5293">&#171;Minimal API&#187;</text><path d="M454.6505,1175.8307 L454.4288,1175.9357 L450.3455,1177.6507 L449.9838,1177.8024 L449.9838,1178.1641 C449.9838,1180.1007 450.7655,1181.8041 451.6988,1183.0524 C452.1655,1183.6707 452.6672,1184.1841 453.1572,1184.5457 C453.6472,1184.9074 454.1255,1185.1641 454.6505,1185.1641 C455.1872,1185.1641 455.6538,1184.9074 456.1438,1184.5457 C456.6338,1184.1841 457.1355,1183.6707 457.6022,1183.0524 C458.5355,1181.8041 459.3172,1180.1007 459.3172,1178.1641 L459.3172,1177.8024 L458.9555,1177.6507 L454.8722,1175.9357 L454.6505,1175.8307 M454.6505,1177.1024 L454.6505,1183.9974 C454.6038,1183.9974 454.2655,1183.9157 453.8805,1183.6357 C453.4955,1183.3557 453.0522,1182.9007 452.6438,1182.3641 C451.8972,1181.3724 451.3138,1179.9957 451.2205,1178.5374 L454.6505,1177.1141" fill="#F85149"/><text fill="#E6EDF3" font-family="'Segoe UI, Inter, sans-serif'" font-size="14" lengthAdjust="spacing" textLength="89.4277" x="464.1521" y="1185.1504">UserEndpoints</text></g><!--entity MW--><g class="entity" data-qualified-name="ClinicManagementAPI System.API.MW" data-source-line="40" id="ent0014"><rect fill="#0D1117" height="107.2422" rx="6" ry="6" style="stroke:#58A6FF;stroke-width:1.5;" width="167.6175" x="422.4838" y="1415.4219"/><rect fill="#0D1117" height="10" style="stroke:#58A6FF;stroke-width:1.5;" width="15" x="570.1013" y="1420.4219"/><rect fill="#0D1117" height="2" style="stroke:#58A6FF;stroke-width:1.5;" width="4" x="568.1013" y="1422.4219"/><rect fill="#0D1117" height="2" style="stroke:#58A6FF;stroke-width:1.5;" width="4" x="568.1013" y="1426.4219"/><text fill="#E6EDF3" font-family="'Segoe UI, Inter, sans-serif'" font-size="14" font-style="italic" lengthAdjust="spacing" textLength="84.54" x="459.0226" y="1460.5293">&#171;Middleware&#187;</text><path d="M453.1505,1489.8307 L452.9288,1489.9357 L448.8455,1491.6507 L448.4838,1491.8024 L448.4838,1492.1641 C448.4838,1494.1007 449.2655,1495.8041 450.1988,1497.0524 C450.6655,1497.6707 451.1672,1498.1841 451.6572,1498.5457 C452.1472,1498.9074 452.6255,1499.1641 453.1505,1499.1641 C453.6872,1499.1641 454.1538,1498.9074 454.6438,1498.5457 C455.1338,1498.1841 455.6355,1497.6707 456.1022,1497.0524 C457.0355,1495.8041 457.8172,1494.1007 457.8172,1492.1641 L457.8172,1491.8024 L457.4555,1491.6507 L453.3722,1489.9357 L453.1505,1489.8307 M453.1505,1491.1024 L453.1505,1497.9974 C453.1038,1497.9974 452.7655,1497.9157 452.3805,1497.6357 C451.9955,1497.3557 451.5522,1496.9007 451.1438,1496.3641 C450.3972,1495.3724 449.8138,1493.9957 449.7205,1492.5374 L453.1505,1491.1141" fill="#F85149"/><text fill="#E6EDF3" font-family="'Segoe UI, Inter, sans-serif'" font-size="14" lengthAdjust="spacing" textLength="92.4492" x="462.6521" y="1499.1504">JwtMiddleware</text></g><!--entity FILT--><g class="entity" data-qualified-name="ClinicManagementAPI System.API.FILT" data-source-line="41" id="ent0015"><rect fill="#0D1117" height="107.2422" rx="6" ry="6" style="stroke:#58A6FF;stroke-width:1.5;" width="160.335" x="426.4838" y="944.4219"/><rect fill="#0D1117" height="10" style="stroke:#58A6FF;stroke-width:1.5;" width="15" x="566.8188" y="949.4219"/><rect fill="#0D1117" height="2" style="stroke:#58A6FF;stroke-width:1.5;" width="4" x="564.8188" y="951.4219"/><rect fill="#0D1117" height="2" style="stroke:#58A6FF;stroke-width:1.5;" width="4" x="564.8188" y="955.4219"/><text fill="#E6EDF3" font-family="'Segoe UI, Inter, sans-serif'" font-size="14" font-style="italic" lengthAdjust="spacing" textLength="98.335" x="452.4838" y="989.5293">&#171;EndpointFilter&#187;</text><text fill="#E6EDF3" font-family="'Segoe UI, Inter, sans-serif'" font-size="14" lengthAdjust="spacing" textLength="92.7773" x="455.2626" y="1028.1504">ValidationFilter</text></g><!--entity AUTH_SVC--><g class="entity" data-qualified-name="ClinicManagementAPI System.CORE.AUTH_SVC" data-source-line="45" id="ent0017"><rect fill="#0D1117" height="107.2422" rx="6" ry="6" style="stroke:#58A6FF;stroke-width:1.5;" width="148.2992" x="1249.4838" y="900.4219"/><rect fill="#0D1117" height="10" style="stroke:#58A6FF;stroke-width:1.5;" width="15" x="1377.783" y="905.4219"/><rect fill="#0D1117" height="2" style="stroke:#58A6FF;stroke-width:1.5;" width="4" x="1375.783" y="907.4219"/><rect fill="#0D1117" height="2" style="stroke:#58A6FF;stroke-width:1.5;" width="4" x="1375.783" y="911.4219"/><text fill="#E6EDF3" font-family="'Segoe UI, Inter, sans-serif'" font-size="14" font-style="italic" lengthAdjust="spacing" textLength="56.3076" x="1290.4796" y="945.5293">&#171;Service&#187;</text><path d="M1279.5672,974.8307 L1278.9838,976.2191 C1278.8672,976.2541 1278.7622,976.3124 1278.6572,976.3707 L1277.2688,975.7874 L1276.4288,976.6274 L1277.0122,978.0157 C1276.9538,978.1324 1276.9072,978.2257 1276.8605,978.3424 L1275.4722,978.9257 L1275.4722,980.0924 L1276.8605,980.6757 C1276.9072,980.7924 1276.9538,980.8857 1277.0122,981.0024 L1276.4288,982.3907 L1277.2688,983.2307 L1278.6572,982.6474 C1278.7622,982.6941 1278.8672,982.7524 1278.9838,982.7991 L1279.5672,984.1874 L1280.7338,984.1874 L1281.3172,982.7991 C1281.4222,982.7524 1281.5388,982.7057 1281.6438,982.6474 L1283.0322,983.2307 L1283.8722,982.3907 L1283.2888,981.0024 C1283.3355,980.8974 1283.3938,980.7807 1283.4405,980.6757 L1284.8288,980.0924 L1284.8288,978.9257 L1283.4405,978.3424 C1283.4055,978.2374 1283.3472,978.1207 1283.2888,978.0157 L1283.8722,976.6274 L1283.0322,975.7874 L1281.6438,976.3707 C1281.5388,976.3241 1281.4222,976.2657 1281.3172,976.2191 L1280.7338,974.8307 L1279.5672,974.8307 M1280.1505,977.7474 C1281.1188,977.7474 1281.9005,978.5291 1281.9005,979.4974 C1281.9005,980.4657 1281.1188,981.2474 1280.1505,981.2474 C1279.1822,981.2474 1278.4005,980.4657 1278.4005,979.4974 C1278.4005,978.5291 1279.1822,977.7474 1280.1505,977.7474" fill="#3FB950"/><text fill="#E6EDF3" font-family="'Segoe UI, Inter, sans-serif'" font-size="14" lengthAdjust="spacing" textLength="73.1309" x="1289.6521" y="984.1504">AuthService</text></g><!--entity PAT_SVC--><g class="entity" data-qualified-name="ClinicManagementAPI System.CORE.PAT_SVC" data-source-line="46" id="ent0018"><rect fill="#0D1117" height="107.2422" rx="6" ry="6" style="stroke:#58A6FF;stroke-width:1.5;" width="161.766" x="1242.4838" y="743.4219"/><rect fill="#0D1117" height="10" style="stroke:#58A6FF;stroke-width:1.5;" width="15" x="1384.2498" y="748.4219"/><rect fill="#0D1117" height="2" style="stroke:#58A6FF;stroke-width:1.5;" width="4" x="1382.2498" y="750.4219"/><rect fill="#0D1117" height="2" style="stroke:#58A6FF;stroke-width:1.5;" width="4" x="1382.2498" y="754.4219"/><text fill="#E6EDF3" font-family="'Segoe UI, Inter, sans-serif'" font-size="14" font-style="italic" lengthAdjust="spacing" textLength="56.3076" x="1290.213" y="788.5293">&#171;Service&#187;</text><path d="M1272.5672,817.8307 L1271.9838,819.2191 C1271.8672,819.2541 1271.7622,819.3124 1271.6572,819.3707 L1270.2688,818.7874 L1269.4288,819.6274 L1270.0122,821.0157 C1269.9538,821.1324 1269.9072,821.2257 1269.8605,821.3424 L1268.4722,821.9257 L1268.4722,823.0924 L1269.8605,823.6757 C1269.9072,823.7924 1269.9538,823.8857 1270.0122,824.0024 L1269.4288,825.3907 L1270.2688,826.2307 L1271.6572,825.6474 C1271.7622,825.6941 1271.8672,825.7524 1271.9838,825.7991 L1272.5672,827.1874 L1273.7338,827.1874 L1274.3172,825.7991 C1274.4222,825.7524 1274.5388,825.7057 1274.6438,825.6474 L1276.0322,826.2307 L1276.8722,825.3907 L1276.2888,824.0024 C1276.3355,823.8974 1276.3938,823.7807 1276.4405,823.6757 L1277.8288,823.0924 L1277.8288,821.9257 L1276.4405,821.3424 C1276.4055,821.2374 1276.3472,821.1207 1276.2888,821.0157 L1276.8722,819.6274 L1276.0322,818.7874 L1274.6438,819.3707 C1274.5388,819.3241 1274.4222,819.2657 1274.3172,819.2191 L1273.7338,817.8307 L1272.5672,817.8307 M1273.1505,820.7474 C1274.1188,820.7474 1274.9005,821.5291 1274.9005,822.4974 C1274.9005,823.4657 1274.1188,824.2474 1273.1505,824.2474 C1272.1822,824.2474 1271.4005,823.4657 1271.4005,822.4974 C1271.4005,821.5291 1272.1822,820.7474 1273.1505,820.7474" fill="#3FB950"/><text fill="#E6EDF3" font-family="'Segoe UI, Inter, sans-serif'" font-size="14" lengthAdjust="spacing" textLength="86.5977" x="1282.6521" y="827.1504">PatientService</text></g><!--entity DOC_SVC--><g class="entity" data-qualified-name="ClinicManagementAPI System.CORE.DOC_SVC" data-source-line="47" id="ent0019"><rect fill="#0D1117" height="107.2422" rx="6" ry="6" style="stroke:#58A6FF;stroke-width:1.5;" width="160.9798" x="1242.9838" y="1057.4219"/><rect fill="#0D1117" height="10" style="stroke:#58A6FF;stroke-width:1.5;" width="15" x="1383.9636" y="1062.4219"/><rect fill="#0D1117" height="2" style="stroke:#58A6FF;stroke-width:1.5;" width="4" x="1381.9636" y="1064.4219"/><rect fill="#0D1117" height="2" style="stroke:#58A6FF;stroke-width:1.5;" width="4" x="1381.9636" y="1068.4219"/><text fill="#E6EDF3" font-family="'Segoe UI, Inter, sans-serif'" font-size="14" font-style="italic" lengthAdjust="spacing" textLength="56.3076" x="1290.3199" y="1102.5293">&#171;Service&#187;</text><path d="M1273.0672,1131.8307 L1272.4838,1133.2191 C1272.3672,1133.2541 1272.2622,1133.3124 1272.1572,1133.3707 L1270.7688,1132.7874 L1269.9288,1133.6274 L1270.5122,1135.0157 C1270.4538,1135.1324 1270.4072,1135.2257 1270.3605,1135.3424 L1268.9722,1135.9257 L1268.9722,1137.0924 L1270.3605,1137.6757 C1270.4072,1137.7924 1270.4538,1137.8857 1270.5122,1138.0024 L1269.9288,1139.3907 L1270.7688,1140.2307 L1272.1572,1139.6474 C1272.2622,1139.6941 1272.3672,1139.7524 1272.4838,1139.7991 L1273.0672,1141.1874 L1274.2338,1141.1874 L1274.8172,1139.7991 C1274.9222,1139.7524 1275.0388,1139.7057 1275.1438,1139.6474 L1276.5322,1140.2307 L1277.3722,1139.3907 L1276.7888,1138.0024 C1276.8355,1137.8974 1276.8938,1137.7807 1276.9405,1137.6757 L1278.3288,1137.0924 L1278.3288,1135.9257 L1276.9405,1135.3424 C1276.9055,1135.2374 1276.8472,1135.1207 1276.7888,1135.0157 L1277.3722,1133.6274 L1276.5322,1132.7874 L1275.1438,1133.3707 C1275.0388,1133.3241 1274.9222,1133.2657 1274.8172,1133.2191 L1274.2338,1131.8307 L1273.0672,1131.8307 M1273.6505,1134.7474 C1274.6188,1134.7474 1275.4005,1135.5291 1275.4005,1136.4974 C1275.4005,1137.4657 1274.6188,1138.2474 1273.6505,1138.2474 C1272.6822,1138.2474 1271.9005,1137.4657 1271.9005,1136.4974 C1271.9005,1135.5291 1272.6822,1134.7474 1273.6505,1134.7474" fill="#3FB950"/><text fill="#E6EDF3" font-family="'Segoe UI, Inter, sans-serif'" font-size="14" lengthAdjust="spacing" textLength="85.8115" x="1283.1521" y="1141.1504">DoctorService</text></g><!--entity APT_SVC--><g class="entity" data-qualified-name="ClinicManagementAPI System.CORE.APT_SVC" data-source-line="48" id="ent0020"><rect fill="#0D1117" height="107.2422" rx="6" ry="6" style="stroke:#58A6FF;stroke-width:1.5;" width="200.4779" x="1223.4838" y="1283.4219"/><rect fill="#0D1117" height="10" style="stroke:#58A6FF;stroke-width:1.5;" width="15" x="1403.9617" y="1288.4219"/><rect fill="#0D1117" height="2" style="stroke:#58A6FF;stroke-width:1.5;" width="4" x="1401.9617" y="1290.4219"/><rect fill="#0D1117" height="2" style="stroke:#58A6FF;stroke-width:1.5;" width="4" x="1401.9617" y="1294.4219"/><text fill="#E6EDF3" font-family="'Segoe UI, Inter, sans-serif'" font-size="14" font-style="italic" lengthAdjust="spacing" textLength="56.3076" x="1290.5689" y="1328.5293">&#171;Service&#187;</text><path d="M1253.5672,1357.8307 L1252.9838,1359.2191 C1252.8672,1359.2541 1252.7622,1359.3124 1252.6572,1359.3707 L1251.2688,1358.7874 L1250.4288,1359.6274 L1251.0122,1361.0157 C1250.9538,1361.1324 1250.9072,1361.2257 1250.8605,1361.3424 L1249.4722,1361.9257 L1249.4722,1363.0924 L1250.8605,1363.6757 C1250.9072,1363.7924 1250.9538,1363.8857 1251.0122,1364.0024 L1250.4288,1365.3907 L1251.2688,1366.2307 L1252.6572,1365.6474 C1252.7622,1365.6941 1252.8672,1365.7524 1252.9838,1365.7991 L1253.5672,1367.1874 L1254.7338,1367.1874 L1255.3172,1365.7991 C1255.4222,1365.7524 1255.5388,1365.7057 1255.6438,1365.6474 L1257.0322,1366.2307 L1257.8722,1365.3907 L1257.2888,1364.0024 C1257.3355,1363.8974 1257.3938,1363.7807 1257.4405,1363.6757 L1258.8288,1363.0924 L1258.8288,1361.9257 L1257.4405,1361.3424 C1257.4055,1361.2374 1257.3472,1361.1207 1257.2888,1361.0157 L1257.8722,1359.6274 L1257.0322,1358.7874 L1255.6438,1359.3707 C1255.5388,1359.3241 1255.4222,1359.2657 1255.3172,1359.2191 L1254.7338,1357.8307 L1253.5672,1357.8307 M1254.1505,1360.7474 C1255.1188,1360.7474 1255.9005,1361.5291 1255.9005,1362.4974 C1255.9005,1363.4657 1255.1188,1364.2474 1254.1505,1364.2474 C1253.1822,1364.2474 1252.4005,1363.4657 1252.4005,1362.4974 C1252.4005,1361.5291 1253.1822,1360.7474 1254.1505,1360.7474" fill="#D29922"/><text fill="#E6EDF3" font-family="'Segoe UI, Inter, sans-serif'" font-size="14" lengthAdjust="spacing" textLength="125.3096" x="1263.6521" y="1367.1504">AppointmentService</text></g><!--entity AUTH_INTF--><g class="entity" data-qualified-name="ClinicManagementAPI System.CORE.AUTH_INTF" data-source-line="49" id="ent0021"><ellipse cx="1323.4838" cy="1223.9219" fill="#161B22" rx="8" ry="8" style="stroke:#A371F7;stroke-width:0.5;"/><text fill="#E6EDF3" font-family="'Segoe UI, Inter, sans-serif'" font-size="14" lengthAdjust="spacing" textLength="76.8564" x="1285.0556" y="1266.0293">IAuthService</text><text fill="#E6EDF3" font-family="'Segoe UI, Inter, sans-serif'" font-size="14" font-style="italic" lengthAdjust="spacing" textLength="66.9375" x="1290.0151" y="1193.4082">&#171;Interface&#187;</text></g><!--entity PAT_INTF--><g class="entity" data-qualified-name="ClinicManagementAPI System.CORE.PAT_INTF" data-source-line="50" id="ent0022"><ellipse cx="1323.4838" cy="1621.9219" fill="#161B22" rx="8" ry="8" style="stroke:#A371F7;stroke-width:0.5;"/><text fill="#E6EDF3" font-family="'Segoe UI, Inter, sans-serif'" font-size="14" lengthAdjust="spacing" textLength="90.3232" x="1278.3222" y="1664.0293">IPatientService</text><text fill="#E6EDF3" font-family="'Segoe UI, Inter, sans-serif'" font-size="14" font-style="italic" lengthAdjust="spacing" textLength="66.9375" x="1290.0151" y="1591.4082">&#171;Interface&#187;</text></g><!--entity DOC_INTF--><g class="entity" data-qualified-name="ClinicManagementAPI System.CORE.DOC_INTF" data-source-line="51" id="ent0023"><ellipse cx="1323.4838" cy="1553.9219" fill="#161B22" rx="8" ry="8" style="stroke:#A371F7;stroke-width:0.5;"/><text fill="#E6EDF3" font-family="'Segoe UI, Inter, sans-serif'" font-size="14" lengthAdjust="spacing" textLength="89.5371" x="1278.7153" y="1596.0293">IDoctorService</text><text fill="#E6EDF3" font-family="'Segoe UI, Inter, sans-serif'" font-size="14" font-style="italic" lengthAdjust="spacing" textLength="66.9375" x="1290.0151" y="1523.4082">&#171;Interface&#187;</text></g><!--entity APT_INTF--><g class="entity" data-qualified-name="ClinicManagementAPI System.CORE.APT_INTF" data-source-line="52" id="ent0024"><ellipse cx="1323.4838" cy="1485.9219" fill="#161B22" rx="8" ry="8" style="stroke:#A371F7;stroke-width:0.5;"/><text fill="#E6EDF3" font-family="'Segoe UI, Inter, sans-serif'" font-size="14" lengthAdjust="spacing" textLength="129.0352" x="1258.9662" y="1528.0293">IAppointmentService</text><text fill="#E6EDF3" font-family="'Segoe UI, Inter, sans-serif'" font-size="14" font-style="italic" lengthAdjust="spacing" textLength="66.9375" x="1290.0151" y="1455.4082">&#171;Interface&#187;</text></g><!--entity DATA--><g class="entity" data-qualified-name="ClinicManagementAPI System.CORE.DATA_FOLDER.DATA" data-source-line="55" id="ent0026"><rect fill="#0D1117" height="107.2422" rx="6" ry="6" style="stroke:#58A6FF;stroke-width:1.5;" width="166.7357" x="1596.4838" y="1046.4219"/><rect fill="#0D1117" height="10" style="stroke:#58A6FF;stroke-width:1.5;" width="15" x="1743.2195" y="1051.4219"/><rect fill="#0D1117" height="2" style="stroke:#58A6FF;stroke-width:1.5;" width="4" x="1741.2195" y="1053.4219"/><rect fill="#0D1117" height="2" style="stroke:#58A6FF;stroke-width:1.5;" width="4" x="1741.2195" y="1057.4219"/><text fill="#E6EDF3" font-family="'Segoe UI, Inter, sans-serif'" font-size="14" font-style="italic" lengthAdjust="spacing" textLength="81.0469" x="1634.3282" y="1091.5293">&#171;Persistence&#187;</text><path d="M1622.7055,1120.8307 C1622.5772,1120.8307 1622.4838,1120.9241 1622.4838,1121.0524 L1622.4838,1124.9141 C1622.4838,1125.2407 1622.7405,1125.4974 1623.0672,1125.4974 L1630.0672,1125.4974 C1630.3938,1125.4974 1630.6505,1125.2407 1630.6505,1124.9141 L1630.6505,1121.0524 C1630.6505,1120.9241 1630.5572,1120.8307 1630.4288,1120.8307 L1622.6938,1120.8307 M1622.4838,1126.5591 L1622.4838,1129.9541 C1622.4838,1130.0824 1622.5772,1130.1757 1622.7055,1130.1757 L1630.4405,1130.1757 C1630.5688,1130.1757 1630.6622,1130.0824 1630.6622,1129.9541 L1630.6622,1126.5591 C1630.4755,1126.6291 1630.2888,1126.6641 1630.0788,1126.6641 L1623.0788,1126.6641 C1622.8688,1126.6641 1622.6822,1126.6174 1622.4955,1126.5591 M1628.9005,1127.8307 C1629.2272,1127.8307 1629.4838,1128.0874 1629.4838,1128.4141 C1629.4838,1128.7407 1629.2272,1128.9974 1628.9005,1128.9974 C1628.5738,1128.9974 1628.3172,1128.7407 1628.3172,1128.4141 C1628.3172,1128.0874 1628.5738,1127.8307 1628.9005,1127.8307" fill="#D29922"/><text fill="#E6EDF3" font-family="'Segoe UI, Inter, sans-serif'" font-size="14" lengthAdjust="spacing" textLength="91.5674" x="1636.6521" y="1130.1504">AppDbContext</text></g><!--entity DTO--><g class="entity" data-qualified-name="ClinicManagementAPI System.CORE.DATA_FOLDER.DTO" data-source-line="56" id="ent0027"><rect fill="#0D1117" height="68.6211" rx="6" ry="6" style="stroke:#58A6FF;stroke-width:1.5;" width="93.6465" x="1632.9838" y="808.4219"/><rect fill="#0D1117" height="10" style="stroke:#58A6FF;stroke-width:1.5;" width="15" x="1706.6303" y="813.4219"/><rect fill="#0D1117" height="2" style="stroke:#58A6FF;stroke-width:1.5;" width="4" x="1704.6303" y="815.4219"/><rect fill="#0D1117" height="2" style="stroke:#58A6FF;stroke-width:1.5;" width="4" x="1704.6303" y="819.4219"/><text fill="#E6EDF3" font-family="'Segoe UI, Inter, sans-serif'" font-size="14" lengthAdjust="spacing" textLength="33.6465" x="1657.9838" y="853.5293">DTOs</text></g><!--entity MOD--><g class="entity" data-qualified-name="ClinicManagementAPI System.CORE.DATA_FOLDER.MOD" data-source-line="57" id="ent0028"><rect fill="#0D1117" height="68.6211" rx="6" ry="6" style="stroke:#58A6FF;stroke-width:1.5;" width="105.6709" x="1626.9838" y="927.4219"/><rect fill="#0D1117" height="10" style="stroke:#58A6FF;stroke-width:1.5;" width="15" x="1712.6547" y="932.4219"/><rect fill="#0D1117" height="2" style="stroke:#58A6FF;stroke-width:1.5;" width="4" x="1710.6547" y="934.4219"/><rect fill="#0D1117" height="2" style="stroke:#58A6FF;stroke-width:1.5;" width="4" x="1710.6547" y="938.4219"/><text fill="#E6EDF3" font-family="'Segoe UI, Inter, sans-serif'" font-size="14" lengthAdjust="spacing" textLength="45.6709" x="1651.9838" y="972.5293">Models</text></g><!--entity UT--><g class="entity" data-qualified-name="ClinicManagementAPI System.TESTS.UT" data-source-line="62" id="ent0030"><rect fill="#0D1117" height="107.2422" rx="6" ry="6" style="stroke:#58A6FF;stroke-width:1.5;" width="120.792" x="1619.4838" y="478.4219"/><rect fill="#0D1117" height="10" style="stroke:#58A6FF;stroke-width:1.5;" width="15" x="1720.2758" y="483.4219"/><rect fill="#0D1117" height="2" style="stroke:#58A6FF;stroke-width:1.5;" width="4" x="1718.2758" y="485.4219"/><rect fill="#0D1117" height="2" style="stroke:#58A6FF;stroke-width:1.5;" width="4" x="1718.2758" y="489.4219"/><text fill="#E6EDF3" font-family="'Segoe UI, Inter, sans-serif'" font-size="14" font-style="italic" lengthAdjust="spacing" textLength="46.4297" x="1651.665" y="523.5293">&#171;xUnit&#187;</text><text fill="#E6EDF3" font-family="'Segoe UI, Inter, sans-serif'" font-size="14" lengthAdjust="spacing" textLength="60.792" x="1644.4838" y="562.1504">Unit Tests</text></g><!--entity IT--><g class="entity" data-qualified-name="ClinicManagementAPI System.TESTS.IT" data-source-line="63" id="ent0031"><rect fill="#0D1117" height="107.2422" rx="6" ry="6" style="stroke:#58A6FF;stroke-width:1.5;" width="128.209" x="1615.9838" y="321.4219"/><rect fill="#0D1117" height="10" style="stroke:#58A6FF;stroke-width:1.5;" width="15" x="1724.1928" y="326.4219"/><rect fill="#0D1117" height="2" style="stroke:#58A6FF;stroke-width:1.5;" width="4" x="1722.1928" y="328.4219"/><rect fill="#0D1117" height="2" style="stroke:#58A6FF;stroke-width:1.5;" width="4" x="1722.1928" y="332.4219"/><text fill="#E6EDF3" font-family="'Segoe UI, Inter, sans-serif'" font-size="14" font-style="italic" lengthAdjust="spacing" textLength="46.4297" x="1651.8735" y="366.5293">&#171;xUnit&#187;</text><text fill="#E6EDF3" font-family="'Segoe UI, Inter, sans-serif'" font-size="14" lengthAdjust="spacing" textLength="68.209" x="1640.9838" y="405.1504">Integration</text></g><!--entity DB--><g class="entity" data-qualified-name="External Infrastructure.DB" data-source-line="69" id="ent0033"><path d="M2037.4838,1148.9219 C2037.4838,1138.9219 2098.5367,1138.9219 2098.5367,1138.9219 C2098.5367,1138.9219 2159.5896,1138.9219 2159.5896,1148.9219 L2159.5896,1235.1641 C2159.5896,1245.1641 2098.5367,1245.1641 2098.5367,1245.1641 C2098.5367,1245.1641 2037.4838,1245.1641 2037.4838,1235.1641 L2037.4838,1148.9219" fill="#0D1117" style="stroke:#D29922;stroke-width:0.5;"/><path d="M2037.4838,1148.9219 C2037.4838,1158.9219 2098.5367,1158.9219 2098.5367,1158.9219 C2098.5367,1158.9219 2159.5896,1158.9219 2159.5896,1148.9219" fill="none" style="stroke:#D29922;stroke-width:0.5;"/><text fill="#E6EDF3" font-family="'Segoe UI, Inter, sans-serif'" font-size="14" font-style="italic" lengthAdjust="spacing" textLength="71.5859" x="2062.7437" y="1188.0293">&#171;Database&#187;</text><path d="M2058.7055,1217.3307 C2058.5772,1217.3307 2058.4838,1217.4241 2058.4838,1217.5524 L2058.4838,1221.4141 C2058.4838,1221.7407 2058.7405,1221.9974 2059.0672,1221.9974 L2066.0672,1221.9974 C2066.3938,1221.9974 2066.6505,1221.7407 2066.6505,1221.4141 L2066.6505,1217.5524 C2066.6505,1217.4241 2066.5572,1217.3307 2066.4288,1217.3307 L2058.6938,1217.3307 M2058.4838,1223.0591 L2058.4838,1226.4541 C2058.4838,1226.5824 2058.5772,1226.6757 2058.7055,1226.6757 L2066.4405,1226.6757 C2066.5688,1226.6757 2066.6622,1226.5824 2066.6622,1226.4541 L2066.6622,1223.0591 C2066.4755,1223.1291 2066.2888,1223.1641 2066.0788,1223.1641 L2059.0788,1223.1641 C2058.8688,1223.1641 2058.6822,1223.1174 2058.4955,1223.0591 M2064.9005,1224.3307 C2065.2272,1224.3307 2065.4838,1224.5874 2065.4838,1224.9141 C2065.4838,1225.2407 2065.2272,1225.4974 2064.9005,1225.4974 C2064.5738,1225.4974 2064.3172,1225.2407 2064.3172,1224.9141 C2064.3172,1224.5874 2064.5738,1224.3307 2064.9005,1224.3307" fill="#D29922"/><text fill="#E6EDF3" font-family="'Segoe UI, Inter, sans-serif'" font-size="14" lengthAdjust="spacing" textLength="66.9375" x="2072.6521" y="1226.6504">SQL Server</text></g><!--entity IDENTITY--><g class="entity" data-qualified-name="External Infrastructure.IDENTITY" data-source-line="70" id="ent0034"><rect fill="#0D1117" height="125.8633" rx="6" ry="6" style="stroke:#58A6FF;stroke-width:1.5;" width="160.2962" x="2018.4838" y="962.9219"/><rect fill="#0D1117" height="10" style="stroke:#58A6FF;stroke-width:1.5;" width="15" x="2158.78" y="967.9219"/><rect fill="#0D1117" height="2" style="stroke:#58A6FF;stroke-width:1.5;" width="4" x="2156.78" y="969.9219"/><rect fill="#0D1117" height="2" style="stroke:#58A6FF;stroke-width:1.5;" width="4" x="2156.78" y="973.9219"/><text fill="#E6EDF3" font-family="'Segoe UI, Inter, sans-serif'" font-size="14" font-style="italic" lengthAdjust="spacing" textLength="64.9961" x="2061.1339" y="1008.0293">&#171;Package&#187;</text><path d="M2049.1505,1037.3307 L2048.9288,1037.4357 L2044.8455,1039.1507 L2044.4838,1039.3024 L2044.4838,1039.6641 C2044.4838,1041.6007 2045.2655,1043.3041 2046.1988,1044.5524 C2046.6655,1045.1707 2047.1672,1045.6841 2047.6572,1046.0457 C2048.1472,1046.4074 2048.6255,1046.6641 2049.1505,1046.6641 C2049.6872,1046.6641 2050.1538,1046.4074 2050.6438,1046.0457 C2051.1338,1045.6841 2051.6355,1045.1707 2052.1022,1044.5524 C2053.0355,1043.3041 2053.8172,1041.6007 2053.8172,1039.6641 L2053.8172,1039.3024 L2053.4555,1039.1507 L2049.3722,1037.4357 L2049.1505,1037.3307 M2049.1505,1038.6024 L2049.1505,1045.4974 C2049.1038,1045.4974 2048.7655,1045.4157 2048.3805,1045.1357 C2047.9955,1044.8557 2047.5522,1044.4007 2047.1438,1043.8641 C2046.3972,1042.8724 2045.8138,1041.4957 2045.7205,1040.0374 L2049.1505,1038.6141" fill="#A371F7"/><text fill="#E6EDF3" font-family="'Segoe UI, Inter, sans-serif'" font-size="14" lengthAdjust="spacing" textLength="85.1279" x="2058.6521" y="1046.6504">ASP.NET Core</text><text fill="#E6EDF3" font-family="'Segoe UI, Inter, sans-serif'" font-size="14" lengthAdjust="spacing" textLength="46.8672" x="2043.4838" y="1065.2715">Identity</text></g><!--entity CLIENT--><g class="entity" data-qualified-name="CLIENT" data-source-line="74" id="ent0035"><ellipse cx="506.7158" cy="1703.4219" fill="#3FB950" rx="16" ry="16" style="stroke:#3FB950;stroke-width:0.5;"/><path d="M506.7158,1723.4219 C510.7158,1723.4219 513.7158,1723.4219 517.7158,1719.4219 C525.7158,1719.4219 533.7158,1727.4219 533.7158,1735.4219 L533.7158,1739.4219 C533.7158,1743.4219 529.7158,1747.4219 525.7158,1747.4219 L487.7158,1747.4219 C483.7158,1747.4219 479.7158,1743.4219 479.7158,1739.4219 L479.7158,1735.4219 C479.7158,1727.4219 487.7158,1719.4219 495.7158,1719.4219 C499.7158,1723.4219 502.7158,1723.4219 506.7158,1723.4219" fill="#3FB950"/><text fill="#0D1117" font-family="'Segoe UI, Inter, sans-serif'" font-size="14" lengthAdjust="spacing" textLength="116.4639" x="448.4838" y="1773.0293">Web/Mobile Client</text></g><!--link CI to API--><g class="link" data-entity-1="ent0003" data-entity-2="ent0008" data-link-type="dependency" data-source-line="79" id="lnk36"><path d="M132.6738,634.5619 C179.7738,765.5519 298.8838,1113.0419 350.4838,1413.9219 C352.9138,1428.0719 349.0638,1532.0819 358.4838,1542.9219 C363.8676,1549.1131 370.1521,1554.235 377.0342,1558.4569 C380.4753,1560.5679 384.0657,1562.4538 387.7677,1564.136 C389.6186,1564.9771 391.4975,1565.7672 393.3995,1566.509 C394.3504,1566.8799 395.3072,1567.2387 396.2692,1567.5858 C396.7502,1567.7594 397.2325,1567.93 397.716,1568.0977 C397.9577,1568.1816 392.5192,1566.333 392.7616,1566.4154" fill="none" id="CI-to-API" style="stroke:#39C5CF;stroke-width:1.5;"/><polygon fill="#39C5CF" points="398.4421,1568.3471,391.2091,1561.6625,393.7083,1566.7374,388.6335,1569.2366,398.4421,1568.3471" style="stroke:#39C5CF;stroke-width:1.5;"/><text fill="#C9D1D9" font-family="'Segoe UI, Inter, sans-serif'" font-size="12" lengthAdjust="spacing" textLength="73.9629" x="252.7709" y="922.8711">(1) Deploys to</text></g><!--link CI to TESTS--><g class="link" data-entity-1="ent0003" data-entity-2="ent0029" data-link-type="dependency" data-source-line="82" id="lnk37"><path d="M191.3938,527.2619 C201.5438,519.1919 211.5138,510.6319 220.4838,501.9219 C368.1238,358.5219 299.6638,136.9219 505.4838,136.9219 C505.4838,136.9219 505.4838,136.9219 1324.4838,136.9219 C1407.3838,136.9219 1494.5563,169.3819 1561.7126,202.3494 C1570.1071,206.4703 1578.1889,210.5992 1585.9105,214.6736 C1587.8409,215.6922 1584.4613,213.8714 1586.3459,214.8823" fill="none" id="CI-to-TESTS" style="stroke:#3FB950;stroke-width:1.5;"/><polygon fill="#3FB950" points="1591.6334,217.7182,1585.5927,209.9393,1587.2271,215.3549,1581.8115,216.9893,1591.6334,217.7182" style="stroke:#3FB950;stroke-width:1.5;"/><text fill="#C9D1D9" font-family="'Segoe UI, Inter, sans-serif'" font-size="12" lengthAdjust="spacing" textLength="62.6191" x="888.7709" y="123.8711">(2) Executes</text></g><!--link CLIENT to PAT_ENDP--><g class="link" data-entity-1="ent0035" data-entity-2="ent0010" data-link-type="dependency" data-source-line="85" id="lnk38"><path d="M574.5338,1768.5419 C634.5938,1791.8019 722.6338,1812.9119 785.4838,1771.9219 C870.3438,1716.5719 900.6956,1599.7481 911.9556,1528.6281" fill="none" id="CLIENT-to-PAT_ENDP" style="stroke:#58A6FF;stroke-width:1.5;"/><polygon fill="#58A6FF" points="912.8938,1522.7019,907.5356,1530.9656,912.1119,1527.6404,915.4372,1532.2167,912.8938,1522.7019" style="stroke:#58A6FF;stroke-width:1.5;"/><text fill="#C9D1D9" font-family="'Segoe UI, Inter, sans-serif'" font-size="12" lengthAdjust="spacing" textLength="88.4824" x="656.2709" y="1758.8711">(3) Patient CRUD</text></g><!--link CLIENT to AUTH_ENDP--><g class="link" data-entity-1="ent0035" data-entity-2="ent0009" data-link-type="dependency" data-source-line="88" id="lnk39"><path d="M438.1338,1696.8319 C348.8838,1639.1419 211.0738,1528.4319 274.4838,1426.4219 C306.9138,1374.2519 365.1476,1346.8786 417.7276,1331.0786" fill="none" id="CLIENT-to-AUTH_ENDP" style="stroke:#58A6FF;stroke-width:1.5;"/><polygon fill="#58A6FF" points="423.4738,1329.3519,413.7034,1328.1111,418.6853,1330.7908,416.0057,1335.7727,423.4738,1329.3519" style="stroke:#58A6FF;stroke-width:1.5;"/><text fill="#C9D1D9" font-family="'Segoe UI, Inter, sans-serif'" font-size="12" lengthAdjust="spacing" textLength="93.5098" x="242.7709" y="1450.3711">(4) Auth Requests</text></g><!--link CLIENT to USR_ENDP--><g class="link" data-entity-1="ent0035" data-entity-2="ent0013" data-link-type="dependency" data-source-line="91" id="lnk40"><path d="M438.3438,1723.5419 C385.7038,1709.2419 316.3138,1680.8319 282.4838,1626.4219 C267.5038,1602.3319 237.1238,1393.2619 358.4838,1232.9219 C375.0438,1211.0319 394.167,1197.3243 418.487,1185.3943" fill="none" id="CLIENT-to-USR_ENDP" style="stroke:#58A6FF;stroke-width:1.5;"/><polygon fill="#58A6FF" points="423.8738,1182.7519,414.032,1183.1244,419.3848,1184.9539,417.5553,1190.3067,423.8738,1182.7519" style="stroke:#58A6FF;stroke-width:1.5;"/><text fill="#C9D1D9" font-family="'Segoe UI, Inter, sans-serif'" font-size="12" lengthAdjust="spacing" textLength="78.3633" x="250.7709" y="1613.3711">(5) Assign Role</text></g><!--link CLIENT to DOC_ENDP--><g class="link" data-entity-1="ent0035" data-entity-2="ent0011" data-link-type="dependency" data-source-line="94" id="lnk41"><path d="M574.7838,1727.3919 C652.4938,1715.7419 771.5038,1695.6319 785.4838,1679.9219 C828.4838,1631.6019 778.5238,1446.1619 810.4838,1389.9219 C815.7538,1380.6419 818.3637,1376.3968 826.1037,1368.7568" fill="none" id="CLIENT-to-DOC_ENDP" style="stroke:#3FB950;stroke-width:1.5;"/><polygon fill="#3FB950" points="830.3738,1364.5419,821.1586,1368.0176,826.8154,1368.0543,826.7786,1373.7111,830.3738,1364.5419" style="stroke:#3FB950;stroke-width:1.5;"/><text fill="#C9D1D9" font-family="'Segoe UI, Inter, sans-serif'" font-size="12" lengthAdjust="spacing" textLength="87.8086" x="658.6313" y="1650.8711">(6) Doctor CRUD</text><text fill="#C9D1D9" font-family="'Segoe UI, Inter, sans-serif'" font-size="12" lengthAdjust="spacing" textLength="145.5293" x="626.4838" y="1666.832">(GET=Public, Write=Admin)</text></g><!--link CLIENT to APT_ENDP--><g class="link" data-entity-1="ent0035" data-entity-2="ent0012" data-link-type="dependency" data-source-line="97" id="lnk42"><path d="M544.8338,1686.7419 C563.9538,1663.7119 588.8038,1637.4719 615.4838,1618.9219 C682.4338,1572.3719 737.3138,1615.7119 785.4838,1549.9219 C827.2238,1492.9019 775.7938,1294.4819 810.4838,1232.9219 C815.4938,1224.0319 817.7614,1220.1547 825.0814,1212.7647" fill="none" id="CLIENT-to-APT_ENDP" style="stroke:#D29922;stroke-width:1.5;"/><polygon fill="#D29922" points="829.3038,1208.5019,820.1284,1212.0811,825.7851,1212.0542,825.8121,1217.711,829.3038,1208.5019" style="stroke:#D29922;stroke-width:1.5;"/><text fill="#C9D1D9" font-family="'Segoe UI, Inter, sans-serif'" font-size="12" lengthAdjust="spacing" textLength="121.6641" x="641.7709" y="1504.8711">(7) Appointment CRUD</text><text fill="#C9D1D9" font-family="'Segoe UI, Inter, sans-serif'" font-size="12" lengthAdjust="spacing" textLength="121.0313" x="640.4438" y="1520.832">(Admin + Receptionist,</text><text fill="#C9D1D9" font-family="'Segoe UI, Inter, sans-serif'" font-size="12" lengthAdjust="spacing" textLength="108.7207" x="644.9555" y="1536.793">Delete=Admin Only)</text></g><!--link MW to PAT_ENDP--><g class="link" data-entity-1="ent0014" data-entity-2="ent0010" data-link-type="dependency" data-source-line="100" id="lnk43"><path d="M590.7538,1468.9219 C660.1538,1468.9219 752.7838,1468.9219 823.7738,1468.9219" fill="none" id="MW-to-PAT_ENDP" style="stroke:#58A6FF;stroke-width:1.5;"/><polygon fill="#58A6FF" points="829.7738,1468.9219,820.7738,1464.9219,824.7738,1468.9219,820.7738,1472.9219,829.7738,1468.9219" style="stroke:#58A6FF;stroke-width:1.5;"/><text fill="#C9D1D9" font-family="'Segoe UI, Inter, sans-serif'" font-size="12" lengthAdjust="spacing" textLength="112.2422" x="644.7709" y="1455.8711">(8) JWT + Role Check</text></g><!--link MW to DOC_ENDP--><g class="link" data-entity-1="ent0014" data-entity-2="ent0011" data-link-type="dependency" data-source-line="101" id="lnk44"><path d="M590.6138,1430.3619 C598.9738,1426.7419 607.3738,1423.2019 615.4838,1419.9219 C686.9138,1391.0619 763.6729,1363.9225 824.5829,1343.2225" fill="none" id="MW-to-DOC_ENDP" style="stroke:#58A6FF;stroke-width:1.5;"/><polygon fill="#58A6FF" points="830.2638,1341.2919,820.4554,1340.4006,825.5297,1342.9007,823.0296,1347.9751,830.2638,1341.2919" style="stroke:#58A6FF;stroke-width:1.5;"/><text fill="#C9D1D9" font-family="'Segoe UI, Inter, sans-serif'" font-size="12" lengthAdjust="spacing" textLength="103.7578" x="648.7709" y="1345.8711">(8) JWT (Write only)</text></g><!--link MW to APT_ENDP--><g class="link" data-entity-1="ent0014" data-entity-2="ent0012" data-link-type="dependency" data-source-line="102" id="lnk45"><path d="M571.1938,1415.1119 C578.3538,1407.1819 585.0238,1398.7019 590.4838,1389.9219 C610.1638,1358.2919 591.4638,1338.3919 615.4838,1309.9219 C665.9338,1250.1119 739.6291,1212.8206 804.5291,1188.7206" fill="none" id="MW-to-APT_ENDP" style="stroke:#D29922;stroke-width:1.5;"/><polygon fill="#D29922" points="810.1538,1186.6319,800.3243,1186.0151,805.4666,1188.3724,803.1092,1193.5147,810.1538,1186.6319" style="stroke:#D29922;stroke-width:1.5;"/><text fill="#C9D1D9" font-family="'Segoe UI, Inter, sans-serif'" font-size="12" lengthAdjust="spacing" textLength="112.2422" x="644.7709" y="1185.8711">(8) JWT + Role Check</text></g><!--link FILT to DTO--><g class="link" data-entity-1="ent0015" data-entity-2="ent0027" data-link-type="dependency" data-source-line="105" id="lnk46"><path d="M543.0238,944.3319 C633.6338,813.2119 888.2738,478.0519 1199.4838,355.9219 C1363.7038,291.4719 1494.1738,350.1219 1564.4838,511.9219 C1581.1938,550.3719 1561.9638,565.3319 1572.4838,605.9219 C1592.0638,681.4619 1630.8992,757.8974 1655.9192,802.9174" fill="none" id="FILT-to-DTO" style="stroke:#58A6FF;stroke-width:1.5;"/><polygon fill="#58A6FF" points="1658.8338,808.1619,1657.9582,798.352,1656.4049,803.7915,1650.9655,802.2382,1658.8338,808.1619" style="stroke:#58A6FF;stroke-width:1.5;"/><text fill="#C9D1D9" font-family="'Segoe UI, Inter, sans-serif'" font-size="12" lengthAdjust="spacing" textLength="64.9746" x="1102.2709" y="346.8711">(9) Validates</text></g><!--link PAT_ENDP to PAT_INTF--><g class="link" data-entity-1="ent0010" data-entity-2="ent0022" data-link-type="dependency" data-source-line="108" id="lnk47"><path d="M1010.0838,1510.6119 C1064.1638,1535.0019 1134.9738,1565.3319 1199.4838,1587.9219 C1241.9338,1602.7819 1288.5585,1614.0984 1308.4685,1618.7084" fill="none" id="PAT_ENDP-to-PAT_INTF" style="stroke:#58A6FF;stroke-width:1.5;"/><polygon fill="#58A6FF" points="1314.3138,1620.0619,1306.4481,1614.1348,1309.4427,1618.934,1304.6435,1621.9286,1314.3138,1620.0619" style="stroke:#58A6FF;stroke-width:1.5;"/><text fill="#C9D1D9" font-family="'Segoe UI, Inter, sans-serif'" font-size="12" lengthAdjust="spacing" textLength="57.334" x="1106.2709" y="1529.8711">(10) Injects</text></g><!--reverse link PAT_INTF to PAT_SVC--><g class="link" data-entity-1="ent0022" data-entity-2="ent0018" data-link-type="extension" data-source-line="111" id="lnk49"><path d="M1296.4589,1622.7675 C1273.6289,1623.3075 1231.1638,1620.9419 1199.4838,1587.9219 C1068.8838,1451.7619 1085.7338,1359.1919 1112.4838,1172.4219 C1132.0138,1036.0519 1116.4538,984.8519 1199.4838,874.9219 C1210.9838,859.7019 1226.3838,846.7019 1242.4138,835.9319" fill="none" id="PAT_INTF-backto-PAT_SVC" style="stroke:#3FB950;stroke-width:1.5;stroke-dasharray:7,7;"/><polygon fill="none" points="1314.4538,1622.3419,1296.317,1616.7692,1296.6007,1628.7658,1314.4538,1622.3419" style="stroke:#3FB950;stroke-width:1.5;"/><text fill="#C9D1D9" font-family="'Segoe UI, Inter, sans-serif'" font-size="12" lengthAdjust="spacing" textLength="85.793" x="1091.7709" y="1196.3711">(11) Implements</text></g><!--link DOC_ENDP to DOC_INTF--><g class="link" data-entity-1="ent0011" data-entity-2="ent0023" data-link-type="dependency" data-source-line="114" id="lnk50"><path d="M1009.6338,1354.3619 C1029.8038,1365.1419 1050.7938,1377.2719 1069.4838,1389.9219 C1128.4938,1429.8419 1152.3338,1434.3919 1191.4838,1493.9219 C1198.1238,1504.0219 1190.8138,1511.4919 1199.4838,1519.9219 C1232.3738,1551.8819 1286.4941,1554.4396 1308.3041,1554.2296" fill="none" id="DOC_ENDP-to-DOC_INTF" style="stroke:#58A6FF;stroke-width:1.5;"/><polygon fill="#58A6FF" points="1314.3038,1554.1719,1305.2657,1550.2587,1309.3041,1554.22,1305.3427,1558.2583,1314.3038,1554.1719" style="stroke:#58A6FF;stroke-width:1.5;"/><text fill="#C9D1D9" font-family="'Segoe UI, Inter, sans-serif'" font-size="12" lengthAdjust="spacing" textLength="57.334" x="1106.2709" y="1383.8711">(12) Injects</text></g><!--reverse link DOC_INTF to DOC_SVC--><g class="link" data-entity-1="ent0023" data-entity-2="ent0019" data-link-type="extension" data-source-line="117" id="lnk52"><path d="M1296.3639,1554.0279 C1273.8539,1553.9479 1233.0438,1550.7019 1199.4838,1519.9219 C1105.7938,1433.9819 1052.2738,1359.3919 1112.4838,1247.4219 C1139.9138,1196.4119 1195.6338,1161.6019 1242.9238,1139.9019" fill="none" id="DOC_INTF-backto-DOC_SVC" style="stroke:#3FB950;stroke-width:1.5;stroke-dasharray:7,7;"/><polygon fill="none" points="1314.3638,1554.0919,1296.3853,1548.0279,1296.3426,1560.0279,1314.3638,1554.0919" style="stroke:#3FB950;stroke-width:1.5;"/><text fill="#C9D1D9" font-family="'Segoe UI, Inter, sans-serif'" font-size="12" lengthAdjust="spacing" textLength="85.793" x="1091.7709" y="1271.3711">(13) Implements</text></g><!--link APT_ENDP to APT_INTF--><g class="link" data-entity-1="ent0012" data-entity-2="ent0024" data-link-type="dependency" data-source-line="120" id="lnk53"><path d="M1029.5138,1124.9019 C1085.2738,1116.5519 1150.0338,1119.0019 1191.4838,1159.9219 C1211.6538,1179.8319 1184.9238,1390.6019 1199.4838,1414.9219 C1225.9438,1459.1419 1285.3539,1477.0636 1308.4139,1482.6736" fill="none" id="APT_ENDP-to-APT_INTF" style="stroke:#D29922;stroke-width:1.5;"/><polygon fill="#D29922" points="1314.2438,1484.0919,1306.4444,1478.0778,1309.3855,1482.91,1304.5533,1485.8511,1314.2438,1484.0919" style="stroke:#D29922;stroke-width:1.5;"/><text fill="#C9D1D9" font-family="'Segoe UI, Inter, sans-serif'" font-size="12" lengthAdjust="spacing" textLength="57.334" x="1106.2709" y="1108.8711">(14) Injects</text></g><!--reverse link APT_INTF to APT_SVC--><g class="link" data-entity-1="ent0024" data-entity-2="ent0020" data-link-type="extension" data-source-line="123" id="lnk55"><path d="M1323.4838,1458.6019 C1323.4838,1441.5919 1323.4838,1422.3319 1323.4838,1390.5819" fill="none" id="APT_INTF-backto-APT_SVC" style="stroke:#D29922;stroke-width:1.5;stroke-dasharray:7,7;"/><polygon fill="none" points="1323.4838,1476.6019,1329.4838,1458.6019,1317.4838,1458.6019,1323.4838,1476.6019" style="stroke:#D29922;stroke-width:1.5;"/><text fill="#C9D1D9" font-family="'Segoe UI, Inter, sans-serif'" font-size="12" lengthAdjust="spacing" textLength="85.793" x="1259.2709" y="1439.1211">(15) Implements</text></g><!--link AUTH_ENDP to AUTH_INTF--><g class="link" data-entity-1="ent0009" data-entity-2="ent0021" data-link-type="dependency" data-source-line="126" id="lnk56"><path d="M571.2738,1258.1619 C578.4238,1250.2219 585.0638,1241.7319 590.4838,1232.9219 C610.6638,1200.1019 589.2138,1178.1019 615.4838,1149.9219 C762.1438,992.6019 864.1738,1033.4219 1077.4838,1005.9219 C1102.6138,1002.6819 1173.1838,988.4019 1191.4838,1005.9219 C1206.1838,1019.9919 1186.8638,1172.9519 1199.4838,1188.9219 C1228.2538,1225.3319 1286.0313,1225.9208 1308.4813,1224.8008" fill="none" id="AUTH_ENDP-to-AUTH_INTF" style="stroke:#58A6FF;stroke-width:1.5;"/><polygon fill="#58A6FF" points="1314.4738,1224.5019,1305.2857,1220.9553,1309.48,1224.751,1305.6843,1228.9453,1314.4738,1224.5019" style="stroke:#58A6FF;stroke-width:1.5;"/><text fill="#C9D1D9" font-family="'Segoe UI, Inter, sans-serif'" font-size="12" lengthAdjust="spacing" textLength="57.334" x="891.7709" y="994.8711">(16) Injects</text></g><!--link USR_ENDP to AUTH_INTF--><g class="link" data-entity-1="ent0013" data-entity-2="ent0021" data-link-type="dependency" data-source-line="129" id="lnk57"><path d="M571.4138,1101.2419 C578.5338,1093.2919 585.1338,1084.7719 590.4838,1075.9219 C611.5038,1041.1219 585.4138,1015.2819 615.4838,987.9219 C765.1938,851.6919 869.1538,922.9819 1069.4838,951.9219 C1125.4338,960.0019 1156.7438,943.3219 1191.4838,987.9219 C1205.2238,1005.5519 1185.6638,1171.3519 1199.4838,1188.9219 C1228.1738,1225.3919 1286.0115,1225.9459 1308.4815,1224.8059" fill="none" id="USR_ENDP-to-AUTH_INTF" style="stroke:#58A6FF;stroke-width:1.5;"/><polygon fill="#58A6FF" points="1314.4738,1224.5019,1305.2827,1220.963,1309.4802,1224.7552,1305.6881,1228.9528,1314.4738,1224.5019" style="stroke:#58A6FF;stroke-width:1.5;"/><text fill="#C9D1D9" font-family="'Segoe UI, Inter, sans-serif'" font-size="12" lengthAdjust="spacing" textLength="57.334" x="891.7709" y="894.8711">(17) Injects</text></g><!--reverse link AUTH_INTF to AUTH_SVC--><g class="link" data-entity-1="ent0021" data-entity-2="ent0017" data-link-type="extension" data-source-line="132" id="lnk59"><path d="M1296.4124,1222.568 C1274.4324,1221.328 1235.5738,1216.4719 1199.4838,1188.9219 C1128.3738,1134.6419 1057.5538,1078.0219 1112.4838,1007.4219 C1144.2238,966.6319 1202.2538,954.1519 1249.4438,951.3819" fill="none" id="AUTH_INTF-backto-AUTH_SVC" style="stroke:#3FB950;stroke-width:1.5;stroke-dasharray:7,7;"/><polygon fill="none" points="1314.3838,1223.5819,1296.7503,1216.5775,1296.0744,1228.5585,1314.3838,1223.5819" style="stroke:#3FB950;stroke-width:1.5;"/><text fill="#C9D1D9" font-family="'Segoe UI, Inter, sans-serif'" font-size="12" lengthAdjust="spacing" textLength="85.793" x="1091.7709" y="1031.3711">(18) Implements</text></g><!--link PAT_SVC to DATA--><g class="link" data-entity-1="ent0018" data-entity-2="ent0026" data-link-type="dependency" data-source-line="135" id="lnk60"><path d="M1404.5238,850.1319 C1411.8338,857.7019 1418.3938,865.9819 1423.4838,874.9219 C1465.2038,948.1619 1389.6938,1002.5219 1448.4838,1062.9219 C1468.7638,1083.7619 1532.7481,1092.4481 1590.3281,1096.4281" fill="none" id="PAT_SVC-to-DATA" style="stroke:#3FB950;stroke-width:1.5;"/><polygon fill="#3FB950" points="1596.3138,1096.8419,1587.6111,1092.2308,1591.3257,1096.4971,1587.0594,1100.2117,1596.3138,1096.8419" style="stroke:#3FB950;stroke-width:1.5;"/><text fill="#C9D1D9" font-family="'Segoe UI, Inter, sans-serif'" font-size="12" lengthAdjust="spacing" textLength="80.9297" x="1466.2709" y="1049.8711">(19) Persists via</text></g><!--link DOC_SVC to DATA--><g class="link" data-entity-1="ent0019" data-entity-2="ent0026" data-link-type="dependency" data-source-line="136" id="lnk61"><path d="M1399.6338,1164.6119 C1408.2538,1172.5319 1416.4638,1181.0419 1423.4838,1189.9219 C1439.6338,1210.3519 1426.4838,1228.9719 1448.4838,1242.9219 C1492.0238,1270.5219 1518.0138,1265.2419 1564.4838,1242.9219 C1603.0438,1224.4019 1629.6057,1191.0061 1649.0557,1158.6061" fill="none" id="DOC_SVC-to-DATA" style="stroke:#3FB950;stroke-width:1.5;"/><polygon fill="#3FB950" points="1652.1438,1153.4619,1644.0821,1159.1195,1649.5704,1157.7488,1650.9411,1163.237,1652.1438,1153.4619" style="stroke:#3FB950;stroke-width:1.5;"/><text fill="#C9D1D9" font-family="'Segoe UI, Inter, sans-serif'" font-size="12" lengthAdjust="spacing" textLength="80.9297" x="1466.2709" y="1229.8711">(19) Persists via</text></g><!--link APT_SVC to DATA--><g class="link" data-entity-1="ent0020" data-entity-2="ent0026" data-link-type="dependency" data-source-line="137" id="lnk62"><path d="M1423.6038,1346.4119 C1469.9038,1346.0419 1523.6738,1338.2919 1564.4838,1310.9219 C1618.8238,1274.4719 1647.7764,1209.0932 1663.4264,1159.5532" fill="none" id="APT_SVC-to-DATA" style="stroke:#D29922;stroke-width:1.5;"/><polygon fill="#D29922" points="1665.2338,1153.8319,1658.7085,1161.2089,1663.7277,1158.5996,1666.3369,1163.6188,1665.2338,1153.8319" style="stroke:#D29922;stroke-width:1.5;"/><text fill="#C9D1D9" font-family="'Segoe UI, Inter, sans-serif'" font-size="12" lengthAdjust="spacing" textLength="80.9297" x="1466.2709" y="1297.8711">(19) Persists via</text></g><!--link PAT_SVC to MOD--><g class="link" data-entity-1="ent0018" data-entity-2="ent0028" data-link-type="dependency" data-source-line="140" id="lnk63"><path d="M1404.9238,834.3619 C1472.9538,866.0219 1562.9843,907.9297 1621.4143,935.1297" fill="none" id="PAT_SVC-to-MOD" style="stroke:#3FB950;stroke-width:1.5;"/><polygon fill="#3FB950" points="1626.8538,937.6619,1620.3827,930.2373,1622.3209,935.5517,1617.0065,937.49,1626.8538,937.6619" style="stroke:#3FB950;stroke-width:1.5;"/><text fill="#C9D1D9" font-family="'Segoe UI, Inter, sans-serif'" font-size="12" lengthAdjust="spacing" textLength="88.3359" x="1462.7709" y="842.8711">(20) Manipulates</text></g><!--link DOC_SVC to MOD--><g class="link" data-entity-1="ent0019" data-entity-2="ent0028" data-link-type="dependency" data-source-line="141" id="lnk64"><path d="M1391.9638,1057.1419 C1419.1038,1035.6919 1444.9038,1015.6219 1448.4838,1013.9219 C1506.1238,986.5819 1572.8335,974.0427 1621.0035,967.8027" fill="none" id="DOC_SVC-to-MOD" style="stroke:#3FB950;stroke-width:1.5;"/><polygon fill="#3FB950" points="1626.9538,967.0319,1617.5145,964.2212,1621.9953,967.6742,1618.5423,972.1549,1626.9538,967.0319" style="stroke:#3FB950;stroke-width:1.5;"/><text fill="#C9D1D9" font-family="'Segoe UI, Inter, sans-serif'" font-size="12" lengthAdjust="spacing" textLength="88.3359" x="1462.7709" y="965.8711">(20) Manipulates</text></g><!--link APT_SVC to MOD--><g class="link" data-entity-1="ent0020" data-entity-2="ent0028" data-link-type="dependency" data-source-line="142" id="lnk65"><path d="M1400.2738,1283.3019 C1408.7438,1275.4019 1416.7338,1266.8719 1423.4838,1257.9219 C1440.8738,1234.8519 1428.5538,1218.8319 1448.4838,1197.9219 C1487.8538,1156.6219 1532.4238,1190.1119 1564.4838,1142.9219 C1579.7538,1120.4519 1557.9338,1043.8619 1572.4838,1020.9219 C1584.9338,1001.2819 1600.8847,990.0993 1621.2547,980.9093" fill="none" id="APT_SVC-to-MOD" style="stroke:#D29922;stroke-width:1.5;"/><polygon fill="#D29922" points="1626.7238,978.4419,1616.8751,978.4969,1622.1662,980.4981,1620.165,985.7891,1626.7238,978.4419" style="stroke:#D29922;stroke-width:1.5;"/><text fill="#C9D1D9" font-family="'Segoe UI, Inter, sans-serif'" font-size="12" lengthAdjust="spacing" textLength="88.3359" x="1462.7709" y="1129.8711">(20) Manipulates</text></g><!--link DATA to DB--><g class="link" data-entity-1="ent0026" data-entity-2="ent0033" data-link-type="dependency" data-source-line="145" id="lnk66"><path d="M1763.7638,1118.2119 C1844.5438,1136.0519 1959.615,1161.4681 2031.575,1177.3581" fill="none" id="DATA-to-DB" style="stroke:#A371F7;stroke-width:1.5;"/><polygon fill="#A371F7" points="2037.4338,1178.6519,2029.508,1172.8054,2032.5514,1177.5738,2027.783,1180.6172,2037.4338,1178.6519" style="stroke:#A371F7;stroke-width:1.5;"/><text fill="#C9D1D9" font-family="'Segoe UI, Inter, sans-serif'" font-size="12" lengthAdjust="spacing" textLength="79.8164" x="1862.2709" y="1124.8711">(21) EF Core 10</text></g><!--link DATA to IDENTITY--><g class="link" data-entity-1="ent0026" data-entity-2="ent0034" data-link-type="dependency" data-source-line="148" id="lnk67"><path d="M1763.7638,1085.2119 C1837.7838,1072.0619 1939.6064,1053.9717 2012.4764,1041.0217" fill="none" id="DATA-to-IDENTITY" style="stroke:#A371F7;stroke-width:1.5;"/><polygon fill="#A371F7" points="2018.3838,1039.9719,2008.8228,1037.6083,2013.461,1040.8467,2010.2225,1045.4849,2018.3838,1039.9719" style="stroke:#A371F7;stroke-width:1.5;"/><text fill="#C9D1D9" font-family="'Segoe UI, Inter, sans-serif'" font-size="12" lengthAdjust="spacing" textLength="88.6406" x="1857.7709" y="1039.8711">(22) Stores Users</text></g><!--reverse link PAT_SVC to UT--><g class="link" data-entity-1="ent0018" data-entity-2="ent0030" data-link-type="dependency" data-source-line="151" id="lnk69"><path d="M1352.7491,738.084 C1374.0891,698.284 1405.1838,650.5619 1448.4838,616.9219 C1499.0038,577.6719 1569.4638,555.2419 1619.1438,543.3819" fill="none" id="PAT_SVC-backto-UT" style="stroke:#F85149;stroke-width:1.5;stroke-dasharray:7,7;"/><polygon fill="#F85149" points="1349.9138,743.3719,1357.6919,737.3303,1352.2765,738.9653,1350.6415,733.5499,1349.9138,743.3719" style="stroke:#F85149;stroke-width:1.5;"/><text fill="#C9D1D9" font-family="'Segoe UI, Inter, sans-serif'" font-size="12" lengthAdjust="spacing" textLength="50.2793" x="1481.7709" y="547.8711">(23) Tests</text></g><!--reverse link DOC_SVC to UT--><g class="link" data-entity-1="ent0019" data-entity-2="ent0030" data-link-type="dependency" data-source-line="152" id="lnk71"><path d="M1408.2372,1053.8322 C1415.8372,1045.8722 1418.4338,1041.4419 1423.4838,1031.9219 C1457.0038,968.7119 1405.8038,768.3419 1448.4838,710.9219 C1481.4738,666.5419 1519.3738,697.9119 1564.4838,665.9219 C1595.0638,644.2319 1622.5938,612.6219 1642.9938,585.5419" fill="none" id="DOC_SVC-backto-UT" style="stroke:#F85149;stroke-width:1.5;stroke-dasharray:7,7;"/><polygon fill="#F85149" points="1404.0938,1058.1719,1413.202,1054.4247,1407.5466,1054.5555,1407.4158,1048.9002,1404.0938,1058.1719" style="stroke:#F85149;stroke-width:1.5;"/><text fill="#C9D1D9" font-family="'Segoe UI, Inter, sans-serif'" font-size="12" lengthAdjust="spacing" textLength="50.2793" x="1481.7709" y="652.8711">(23) Tests</text></g><!--reverse link APT_SVC to UT--><g class="link" data-entity-1="ent0020" data-entity-2="ent0030" data-link-type="dependency" data-source-line="153" id="lnk73"><path d="M1409.3131,1278.9112 C1416.5031,1271.1912 1418.7438,1267.1019 1423.4838,1257.9219 C1469.5038,1168.7219 1390.1138,888.5819 1448.4838,806.9219 C1480.8338,761.6719 1523.6038,797.6419 1564.4838,759.9219 C1615.9238,712.4619 1647.4838,636.7419 1664.1038,585.7119" fill="none" id="APT_SVC-backto-UT" style="stroke:#F85149;stroke-width:1.5;stroke-dasharray:7,7;"/><polygon fill="#F85149" points="1405.2238,1283.3019,1414.2848,1279.442,1408.6315,1279.643,1408.4306,1273.9897,1405.2238,1283.3019" style="stroke:#F85149;stroke-width:1.5;"/><text fill="#C9D1D9" font-family="'Segoe UI, Inter, sans-serif'" font-size="12" lengthAdjust="spacing" textLength="50.2793" x="1481.7709" y="746.8711">(23) Tests</text></g><!--reverse link PAT_ENDP to IT--><g class="link" data-entity-1="ent0010" data-entity-2="ent0031" data-link-type="dependency" data-source-line="156" id="lnk75"><path d="M1015.4948,1437.538 C1038.6648,1425.678 1055.6338,1412.0919 1069.4838,1389.9219 C1083.0338,1368.2319 1060.2938,1178.8519 1077.4838,1159.9219 C1111.8438,1122.0919 1157.4238,1183.0219 1191.4838,1144.9219 C1207.1138,1127.4419 1188.1538,743.4519 1199.4838,722.9219 C1257.0438,618.6819 1348.4938,668.4219 1423.4838,575.9219 C1442.7138,552.2019 1428.7338,535.2119 1448.4838,511.9219 C1493.5038,458.8519 1564.5538,421.0419 1615.8738,398.7719" fill="none" id="PAT_ENDP-backto-IT" style="stroke:#F85149;stroke-width:1.5;stroke-dasharray:7,7;"/><polygon fill="#F85149" points="1010.1538,1440.2719,1019.9879,1439.7317,1014.6046,1437.9936,1016.3427,1432.6104,1010.1538,1440.2719" style="stroke:#F85149;stroke-width:1.5;"/><text fill="#C9D1D9" font-family="'Segoe UI, Inter, sans-serif'" font-size="12" lengthAdjust="spacing" textLength="146.6953" x="1250.2709" y="562.8711">(24) WebApplicationFactory</text></g><!--reverse link DOC_ENDP to IT--><g class="link" data-entity-1="ent0011" data-entity-2="ent0031" data-link-type="dependency" data-source-line="157" id="lnk77"><path d="M1014.8991,1280.6065 C1038.1991,1268.7265 1055.3938,1255.1019 1069.4838,1232.9219 C1079.0238,1217.8919 1066.0938,1086.6019 1077.4838,1072.9219 C1110.7938,1032.9019 1158.8738,1086.5119 1191.4838,1045.9219 C1209.5438,1023.4419 1182.2738,550.0619 1199.4838,526.9219 C1297.3538,395.3719 1509.5738,375.0219 1615.7838,373.5219" fill="none" id="DOC_ENDP-backto-IT" style="stroke:#F85149;stroke-width:1.5;stroke-dasharray:7,7;"/><polygon fill="#F85149" points="1009.5538,1283.3319,1019.3887,1282.8073,1014.0082,1281.0607,1015.7548,1275.6802,1009.5538,1283.3319" style="stroke:#F85149;stroke-width:1.5;"/><text fill="#C9D1D9" font-family="'Segoe UI, Inter, sans-serif'" font-size="12" lengthAdjust="spacing" textLength="146.6953" x="1250.2709" y="384.8711">(24) WebApplicationFactory</text></g><!--reverse link APT_ENDP to IT--><g class="link" data-entity-1="ent0012" data-entity-2="ent0031" data-link-type="dependency" data-source-line="158" id="lnk79"><path d="M1024.3711,1097.6141 C1044.3711,1081.8941 1058.0438,1066.4519 1069.4838,1043.9219 C1078.8138,1025.5419 1062.8338,316.4219 1077.4838,301.9219 C1222.5638,158.4019 1493.1838,274.3219 1615.7638,338.8919" fill="none" id="APT_ENDP-backto-IT" style="stroke:#F85149;stroke-width:1.5;stroke-dasharray:7,7;"/><polygon fill="#F85149" points="1019.6538,1101.3219,1029.2015,1098.9051,1023.5849,1098.2321,1024.2579,1092.6154,1019.6538,1101.3219" style="stroke:#F85149;stroke-width:1.5;"/><text fill="#C9D1D9" font-family="'Segoe UI, Inter, sans-serif'" font-size="12" lengthAdjust="spacing" textLength="146.6953" x="1250.2709" y="220.8711">(24) WebApplicationFactory</text></g><g class="footer" data-source-line="18"><text fill="#E6EDF3" font-family="'Segoe UI, Inter, sans-serif'" font-size="10" lengthAdjust="spacing" textLength="292.8516" x="965.3161" y="1839.7029">Sprint 5 &#8212; Appointments + Business Logic (Admin + Receptionist)</text></g><?plantuml-src hPZhJkD6583_-obcWxHDL20a8Tm4aKBiB5ab92NEeggia6DFaYcEnxKdNDGYzI7wX7sIdhdOZYy1biAF1OtdVESoPyuvip-XdVVzQ3-XBd7n2RBfqgSUzjYklrgwiFn-u6WL-3J42A4Jr8cmwD-__q4Jtx4OTb0xi1U4OPkj0emU25kWjkzJuh4btzcvckY0wLjFE418O7HgXwWy6VGhyA6zOWiQo0y3kh2MdEWI-D89iE3pB_Mz-i7ENcEdreGFOpy0kXHf2bFM58RePtI-2ec7mn3rwPpO_yDzxPE3Pu12ax5nsvcCpU7Wrhmm1eRsYNYskt8msjsjsjIRaNarP4ykbW7N664kpiGh6nNqEHswuJqExWb-G6NbOBEYWUrdPsVe0biE3gfTIXb44LQqXLX17PTun4O3oxFcM937Jo73IxHJpDPc4X5fU3rwgDnsbiI3zIjiOvyHwf6GnPR1kT8LQCMC4MyU2jjSF6E8KHIG-O8XXmHW18XfuHtnV2kmbiYZ3WwnZvfxQuk1vTsfHGKt7i5MptAhdPvA88wtNRfoKEdKfYuDJhQC0qFlDbgddyLwwxGgrble2s4NgoaoR1gAa9IG5Q8lFVDYSewsQWUryteT_QdnB8flIm9j7hKFkbqEfVCSiYtS2GKGB3izXN-h7HsrMcXhJw_LQeS2wq6aqPGoHfU8pc3F2OIMkCuswaEqjv69GtRZbHtAFCpGb7-gCbYht7YrenhYVuRQSnGBE2INs1RN79qn3uPlsNTmzAWaCo59XFQef_QL8gl0NM5OB9FpTaeV4s_RFa6ZWFuEfuVAkvU6YMfx5U4qPuFNyaZ0Qnd63Q7i7ZLh-yS03nS4ksi7n6--uJaYzsGmsnFpujQur4USFW1_bfOhbBLQxz8mWd31phIIKTlyI1rGp1WDqYhqOUSTAlJwyN6zNXIev7vcuZNwK5Sc8SuuCXbVVQI2hmziG1p7nGzMW8M2mRL4HuiRoDyibpWYzw6_GKqGijrUt-JIaSdoKqHu_g5Sxr3GNPpidU6LyVPiRtJFZvjxsSB1KttCAx2DaqGVV-jmhbf_9QR5N9NWwsYUtXz0bccz3kP9_KFWE9_JeKYIEHMHqKjcWm0EPXOibdg5iUnTcbqksuitRf3U4B4tonV7vStYBtXVo8WXC-hoVb_IBMP9jMspVTiTzdNZQYqZNpkAXHKuEqv0xd7gHFHfXuBQHnQZkIKZ78JGwx6NzYUZGpU7gkgPmqrx1j3lNRbhCDJZNS-5DvNtnJ2wZ4B6DCRc-FKxEF484rrL5IzH7Hx5Qd6cyb3F0r5NX4GlB_6STE2UDmkia0KhEL8b0mcVPb0f6bOo-qgPOGFAc3MrGlp6mnd_qXSNGjKy_PnRg4SCPMJ1YRSRXxNkOL4p6Oz4UUCLxyRhEI15s9DqNpSkpPxvgpXxTHgW8Gx0A82XpMDo1f7kboElAo8I5hySg7IDfzK1dH8-0hlykib2sky1Fu9TOLU0m3vVZetmeLohy8bgvj873Nxl_BRLEEuqEztl3dtmTbgYzvoWajYdOz-bJo4VD4j2jYvavTYaX4LfYuHb5Wbns6eyOdi5cvLmen8LK_bYaSPoY6mOtyKm2vHuV12WZ9Y2xLT4nGSV_rX9SpRHaeb7uBA2YjU4vJ0aSmzTKHTlfiNjMi3IKWfrK56bFUkcYbM4YaSOWKfBmT3wnJ3FHgifJAJRw3g0PyQPU2LKb9R3IluDcAYI2P_4OBGUqG9Hq5Vq1jc-yNJiuaWt6dhkKsJ0KGLzlJQv07Uziy3sdGQpHX8obHFfqooG0bwHN3eyIgui8e6eiaFAAMVZ17vT7xV_k8BKp8D3JGmwUHFCeQIixrNYCBj06UBrCuppK_KRBNQvC1YY2yahjiPGLBXrlQNlOlbIB0Bp5huR9nD_2Ex-bGEdCOfTJxIfL8kuSQmBJs6DMyyPt4XfAk0MsvlXDehitK-KhUTh18yFkZ05rk3xEQERANMRuCfonOuipy2RHPOVh5dEYqrCZMjHBj39Z2Mv1pcZ3pT0uvBqAlCmnpnA1o9dQ_7XPRb7HJ60EwEccn3T4olEtLpJ4BEG16La01Lbq8z9HQUNoumNfKI7Woi9BtpYhrnH63PQ3KEMQdHfYPTiVa5ceyKlo0XxuQORNVcugkrfmZzWoDaazlfS8LAR8mBSwJ5SMa3orscOPKGz91vT92eZ5S7W8W-eVHUYpt9Cr614X0IIxzNlAt-t5J-V90S4JDM7yrkZIBvXQnJ0t5PX5fG0c9ZM_eEdA-Qe9wrNQ5xIFpPA0hbNQEzxPTDzwoNP_m00?></g></svg>