<?plantuml 1.2026.2?><svg xmlns="http://www.w3.org/2000/svg" xmlns:xlink="http://www.w3.org/1999/xlink" contentStyleType="text/css" data-diagram-type="CLASS" height="1538px" preserveAspectRatio="none" style="width:2006px;height:1538px;background:#0D1117;" version="1.1" viewBox="0 0 2006 1538" width="2006px" zoomAndPan="magnify"><title>Class Diagram &#8212; Error Consistency Architecture (Sprint 6)</title><defs/><g><rect fill="#0D1117" height="1538" style="stroke:none;stroke-width:1;" width="2006" x="0" y="0"/><g class="header" data-source-line="17"><text fill="#E6EDF3" font-family="'Segoe UI, Inter, sans-serif'" font-size="10" lengthAdjust="spacing" textLength="224.4727" x="1758.1924" y="20.791">Clinic Management System - Error Handling Model</text></g><g class="title" data-source-line="14"><text fill="#E6EDF3" font-family="'Segoe UI, Inter, sans-serif'" font-size="14" font-weight="bold" lengthAdjust="spacing" textLength="380.2969" x="806.1841" y="69.4082">Class Diagram &#8212; Error Consistency Architecture (Sprint 6)</text></g><!--cluster ClinicManagementAPI--><g class="cluster" data-qualified-name="ClinicManagementAPI" data-source-line="29" id="ent0004"><path d="M281.5,99.9219 L462.625,99.9219 A9,9 0 0 1 468.625,105.9219 L475.625,147.2031 L1521.5,147.2031 A6,6 0 0 1 1527.5,153.2031 L1527.5,804.9219 A6,6 0 0 1 1521.5,810.9219 L281.5,810.9219 A6,6 0 0 1 275.5,804.9219 L275.5,105.9219 A6,6 0 0 1 281.5,99.9219" fill="#161B22" style="stroke:#30363D;stroke-width:1.5;"/><line style="stroke:#30363D;stroke-width:1.5;" x1="275.5" x2="475.625" y1="147.2031" y2="147.2031"/><text fill="#58A6FF" font-family="'Segoe UI, Inter, sans-serif'" font-size="16" font-weight="bold" lengthAdjust="spacing" textLength="167.125" x="289.5" y="129.1875">ClinicManagementAPI</text></g><!--cluster Core--><g class="cluster" data-qualified-name="ClinicManagementAPI.Core" data-source-line="29" id="ent0005"><path d="M1127.5,167.9219 L1176.2891,167.9219 A9,9 0 0 1 1182.2891,173.9219 L1189.2891,215.2031 L1497.5,215.2031 A6,6 0 0 1 1503.5,221.2031 L1503.5,780.9219 A6,6 0 0 1 1497.5,786.9219 L1127.5,786.9219 A6,6 0 0 1 1121.5,780.9219 L1121.5,173.9219 A6,6 0 0 1 1127.5,167.9219" fill="#161B22" style="stroke:#30363D;stroke-width:1.5;"/><line style="stroke:#30363D;stroke-width:1.5;" x1="1121.5" x2="1189.2891" y1="215.2031" y2="215.2031"/><text fill="#58A6FF" font-family="'Segoe UI, Inter, sans-serif'" font-size="16" font-weight="bold" lengthAdjust="spacing" textLength="34.7891" x="1135.5" y="197.1875">Core</text></g><!--cluster Models--><g class="cluster" data-qualified-name="ClinicManagementAPI.Core.Models" data-source-line="27" id="ent0002"><path d="M1151.5,235.9219 L1220.7422,235.9219 A9,9 0 0 1 1226.7422,241.9219 L1233.7422,283.2031 L1473.5,283.2031 A6,6 0 0 1 1479.5,289.2031 L1479.5,756.9219 A6,6 0 0 1 1473.5,762.9219 L1151.5,762.9219 A6,6 0 0 1 1145.5,756.9219 L1145.5,241.9219 A6,6 0 0 1 1151.5,235.9219" fill="#161B22" style="stroke:#30363D;stroke-width:1.5;"/><line style="stroke:#30363D;stroke-width:1.5;" x1="1145.5" x2="1233.7422" y1="283.2031" y2="283.2031"/><text fill="#58A6FF" font-family="'Segoe UI, Inter, sans-serif'" font-size="16" font-weight="bold" lengthAdjust="spacing" textLength="55.2422" x="1159.5" y="265.1875">Models</text></g><!--cluster Api--><g class="cluster" data-qualified-name="ClinicManagementAPI.Api" data-source-line="44" id="ent0008"><path d="M305.5,303.4219 L345.2188,303.4219 A9,9 0 0 1 351.2188,309.4219 L358.2188,350.7031 L1091.5,350.7031 A6,6 0 0 1 1097.5,356.7031 L1097.5,645.4219 A6,6 0 0 1 1091.5,651.4219 L305.5,651.4219 A6,6 0 0 1 299.5,645.4219 L299.5,309.4219 A6,6 0 0 1 305.5,303.4219" fill="#161B22" style="stroke:#30363D;stroke-width:1.5;"/><line style="stroke:#30363D;stroke-width:1.5;" x1="299.5" x2="358.2188" y1="350.7031" y2="350.7031"/><text fill="#58A6FF" font-family="'Segoe UI, Inter, sans-serif'" font-size="16" font-weight="bold" lengthAdjust="spacing" textLength="25.7188" x="313.5" y="332.6875">Api</text></g><!--cluster Middleware--><g class="cluster" data-qualified-name="ClinicManagementAPI.Api.Middleware" data-source-line="42" id="ent0006"><path d="M729.5,371.4219 L832.7656,371.4219 A9,9 0 0 1 838.7656,377.4219 L845.7656,418.7031 L1067.5,418.7031 A6,6 0 0 1 1073.5,424.7031 L1073.5,621.4219 A6,6 0 0 1 1067.5,627.4219 L729.5,627.4219 A6,6 0 0 1 723.5,621.4219 L723.5,377.4219 A6,6 0 0 1 729.5,371.4219" fill="#0D1117" style="stroke:#30363D;stroke-width:1.5;"/><line style="stroke:#30363D;stroke-width:1.5;" x1="723.5" x2="845.7656" y1="418.7031" y2="418.7031"/><text fill="#58A6FF" font-family="'Segoe UI, Inter, sans-serif'" font-size="16" font-weight="bold" lengthAdjust="spacing" textLength="89.2656" x="737.5" y="400.6875">Middleware</text></g><!--cluster Extensions--><g class="cluster" data-qualified-name="ClinicManagementAPI.Api.Extensions" data-source-line="64" id="ent0013"><path d="M329.5,390.4219 L423.5,390.4219 A9,9 0 0 1 429.5,396.4219 L436.5,437.7031 L689.5,437.7031 A6,6 0 0 1 695.5,443.7031 L695.5,602.4219 A6,6 0 0 1 689.5,608.4219 L329.5,608.4219 A6,6 0 0 1 323.5,602.4219 L323.5,396.4219 A6,6 0 0 1 329.5,390.4219" fill="#0D1117" style="stroke:#30363D;stroke-width:1.5;"/><line style="stroke:#30363D;stroke-width:1.5;" x1="323.5" x2="436.5" y1="437.7031" y2="437.7031"/><text fill="#58A6FF" font-family="'Segoe UI, Inter, sans-serif'" font-size="16" font-weight="bold" lengthAdjust="spacing" textLength="80" x="337.5" y="419.6875">Extensions</text></g><!--cluster Microsoft--><g class="cluster" data-qualified-name="Microsoft" data-source-line="53" id="ent0011"><path d="M1441.5,895.9219 L1528.3672,895.9219 A9,9 0 0 1 1534.3672,901.9219 L1541.3672,943.2031 L1845.5,943.2031 A6,6 0 0 1 1851.5,949.2031 L1851.5,1484.9219 A6,6 0 0 1 1845.5,1490.9219 L1441.5,1490.9219 A6,6 0 0 1 1435.5,1484.9219 L1435.5,901.9219 A6,6 0 0 1 1441.5,895.9219" fill="#161B22" style="stroke:#30363D;stroke-width:1.5;"/><line style="stroke:#30363D;stroke-width:1.5;" x1="1435.5" x2="1541.3672" y1="943.2031" y2="943.2031"/><text fill="#58A6FF" font-family="'Segoe UI, Inter, sans-serif'" font-size="16" font-weight="bold" lengthAdjust="spacing" textLength="72.8672" x="1449.5" y="925.1875">Microsoft</text></g><!--cluster AspNetCore--><g class="cluster" data-qualified-name="Microsoft.AspNetCore" data-source-line="53" id="ent0012"><path d="M1465.5,963.9219 L1570.0234,963.9219 A9,9 0 0 1 1576.0234,969.9219 L1583.0234,1011.2031 L1821.5,1011.2031 A6,6 0 0 1 1827.5,1017.2031 L1827.5,1460.9219 A6,6 0 0 1 1821.5,1466.9219 L1465.5,1466.9219 A6,6 0 0 1 1459.5,1460.9219 L1459.5,969.9219 A6,6 0 0 1 1465.5,963.9219" fill="#161B22" style="stroke:#30363D;stroke-width:1.5;"/><line style="stroke:#30363D;stroke-width:1.5;" x1="1459.5" x2="1583.0234" y1="1011.2031" y2="1011.2031"/><text fill="#58A6FF" font-family="'Segoe UI, Inter, sans-serif'" font-size="16" font-weight="bold" lengthAdjust="spacing" textLength="90.5234" x="1473.5" y="993.1875">AspNetCore</text></g><!--cluster Mvc--><g class="cluster" data-qualified-name="Microsoft.AspNetCore.Mvc" data-source-line="51" id="ent0009"><path d="M1489.5,1031.9219 L1535.1641,1031.9219 A9,9 0 0 1 1541.1641,1037.9219 L1548.1641,1079.2031 L1797.5,1079.2031 A6,6 0 0 1 1803.5,1085.2031 L1803.5,1436.9219 A6,6 0 0 1 1797.5,1442.9219 L1489.5,1442.9219 A6,6 0 0 1 1483.5,1436.9219 L1483.5,1037.9219 A6,6 0 0 1 1489.5,1031.9219" fill="#161B22" style="stroke:#30363D;stroke-width:1.5;"/><line style="stroke:#30363D;stroke-width:1.5;" x1="1483.5" x2="1548.1641" y1="1079.2031" y2="1079.2031"/><text fill="#58A6FF" font-family="'Segoe UI, Inter, sans-serif'" font-size="16" font-weight="bold" lengthAdjust="spacing" textLength="31.6641" x="1497.5" y="1061.1875">Mvc</text></g><!--class <color:#3FB950><&box></color> Result<T>--><g class="entity" data-qualified-name="ClinicManagementAPI.Core.Models..color..3FB950...box...color. Result.T." data-source-line="29" id="ent0003"><rect fill="#161B22" height="450.832" rx="6" ry="6" style="stroke:#A371F7;stroke-width:0.5;" width="301.3271" x="1162" y="295.9219"/><ellipse cx="1258.9881" cy="339.543" fill="#3FB950" rx="10" ry="10" style="stroke:#181818;stroke-width:1;"/><path d="M1257.1444,343.1836 Q1256.9569,343.4023 1256.8475,343.4648 Q1256.7381,343.5273 1256.5662,343.5273 Q1256.2537,343.5273 1256.0506,343.3242 Q1255.8631,343.1055 1255.8631,342.6055 L1255.8631,341.6523 Q1255.8631,341.1523 1256.0506,340.9336 Q1256.2537,340.7148 1256.5662,340.7148 Q1256.8162,340.7148 1256.9725,340.8555 Q1257.1444,340.9805 1257.2381,341.293 Q1257.3319,341.5898 1257.4256,341.6992 Q1257.6131,341.9023 1258.1131,342.1211 Q1258.6287,342.3398 1259.2381,342.3398 Q1260.1756,342.3398 1260.7694,341.9023 Q1261.16,341.6367 1261.16,341.2461 Q1261.16,340.9961 1260.9725,340.7617 Q1260.785,340.5273 1260.3631,340.3867 Q1260.0975,340.2773 1259.1444,340.1055 Q1258.0037,339.8867 1257.41,339.5898 Q1256.8162,339.293 1256.4725,338.7461 Q1256.1444,338.1992 1256.1444,337.5586 Q1256.1444,336.5586 1256.9725,335.8086 Q1257.8162,335.043 1259.16,335.043 Q1259.7069,335.043 1260.16,335.168 Q1260.6287,335.2773 1261.0037,335.5273 Q1261.285,335.2617 1261.5506,335.2617 Q1261.8631,335.2617 1262.0506,335.4805 Q1262.2537,335.6992 1262.2537,336.1992 L1262.2537,337.2461 Q1262.2537,337.7461 1262.0506,337.9648 Q1261.8631,338.1836 1261.5506,338.1836 Q1261.285,338.1836 1261.0975,338.0273 Q1260.9569,337.9023 1260.8787,337.5586 Q1260.8006,337.2148 1260.6756,337.0586 Q1260.4881,336.8086 1260.0819,336.6367 Q1259.6912,336.4492 1259.1756,336.4492 Q1258.41,336.4492 1257.9725,336.8086 Q1257.535,337.1523 1257.535,337.5273 Q1257.535,337.793 1257.7069,338.043 Q1257.8944,338.2773 1258.2381,338.418 Q1258.4725,338.5117 1259.5506,338.7305 Q1260.6287,338.9336 1261.2069,339.1836 Q1261.785,339.4336 1262.16,339.9805 Q1262.5506,340.5273 1262.5506,341.2617 Q1262.5506,342.3086 1261.8162,342.9336 Q1260.8475,343.7461 1259.3475,343.7461 Q1258.7694,343.7461 1258.2069,343.6055 Q1257.66,343.4648 1257.1444,343.1836 Z " fill="#E6EDF3"/><text fill="#E6EDF3" font-family="Segoe UI, Inter, sans-serif" font-size="14" font-style="italic" lengthAdjust="spacing" textLength="68.8926" x="1293.2173" y="326.0293">&#171;Structure&#187;</text><path d="M1288.9881,355.3307 L1288.9881,356.4974 L1298.3215,356.4974 L1298.3215,355.3307 L1288.9881,355.3307 M1288.9881,357.6641 L1288.9881,364.5591 C1288.9881,364.6174 1289.0348,364.6641 1289.0931,364.6641 L1298.2048,364.6641 C1298.2631,364.6641 1298.3098,364.6174 1298.3098,364.5591 L1298.3098,357.6641 L1294.8448,357.6641 L1294.8448,358.8657 L1292.4765,358.8657 L1292.4765,357.6641 L1288.9765,357.6641" fill="#3FB950"/><text fill="#C9D1D9" font-family="'Segoe UI, Inter, sans-serif'" font-size="14" lengthAdjust="spacing" textLength="64.1826" x="1303.1564" y="364.6504">Result&lt;T&gt;</text><line style="stroke:#A371F7;stroke-width:0.5;" x1="1163" x2="1462.3271" y1="383.1641" y2="383.1641"/><g data-visibility-modifier="PUBLIC_FIELD"><ellipse cx="1173" cy="407.9746" fill="none" rx="3" ry="3" style="stroke:#038048;stroke-width:1;"/></g><text fill="#C9D1D9" font-family="'Segoe UI, Inter, sans-serif'" font-size="14" lengthAdjust="spacing" textLength="95.8945" x="1191" y="412.2715">IsSuccess : bool</text><g data-visibility-modifier="PUBLIC_FIELD"><ellipse cx="1173" cy="446.5957" fill="none" rx="3" ry="3" style="stroke:#038048;stroke-width:1;"/></g><text fill="#C9D1D9" font-family="'Segoe UI, Inter, sans-serif'" font-size="14" lengthAdjust="spacing" textLength="89.25" x="1191" y="450.8926">IsFailure : bool</text><g data-visibility-modifier="PUBLIC_FIELD"><ellipse cx="1173" cy="485.2168" fill="none" rx="3" ry="3" style="stroke:#038048;stroke-width:1;"/></g><text fill="#C9D1D9" font-family="'Segoe UI, Inter, sans-serif'" font-size="14" lengthAdjust="spacing" textLength="52.4932" x="1191" y="489.5137">Value : T</text><g data-visibility-modifier="PUBLIC_FIELD"><ellipse cx="1173" cy="523.8379" fill="none" rx="3" ry="3" style="stroke:#038048;stroke-width:1;"/></g><text fill="#C9D1D9" font-family="'Segoe UI, Inter, sans-serif'" font-size="14" lengthAdjust="spacing" textLength="75.7012" x="1191" y="528.1348">Error : string</text><g data-visibility-modifier="PUBLIC_FIELD"><ellipse cx="1173" cy="562.459" fill="none" rx="3" ry="3" style="stroke:#038048;stroke-width:1;"/></g><text fill="#C9D1D9" font-family="'Segoe UI, Inter, sans-serif'" font-size="14" lengthAdjust="spacing" textLength="97.1113" x="1191" y="566.7559">StatusCode : int</text><line style="stroke:#A371F7;stroke-width:0.5;" x1="1163" x2="1462.3271" y1="584.2695" y2="584.2695"/><g data-visibility-modifier="PUBLIC_METHOD"><ellipse cx="1173" cy="609.0801" fill="#84BE84" rx="3" ry="3" style="stroke:#038048;stroke-width:1;"/></g><text fill="#C9D1D9" font-family="'Segoe UI, Inter, sans-serif'" font-size="14" lengthAdjust="spacing" text-decoration="underline" textLength="177.502" x="1191" y="613.377">Success(value: T) : Result&lt;T&gt;</text><g data-visibility-modifier="PUBLIC_METHOD"><ellipse cx="1173" cy="647.7012" fill="#84BE84" rx="3" ry="3" style="stroke:#038048;stroke-width:1;"/></g><text fill="#C9D1D9" font-family="'Segoe UI, Inter, sans-serif'" font-size="14" lengthAdjust="spacing" text-decoration="underline" textLength="256.3271" x="1191" y="651.998">Failure(error: string, code: int) : Result&lt;T&gt;</text><g data-visibility-modifier="PUBLIC_METHOD"><ellipse cx="1173" cy="686.3223" fill="#84BE84" rx="3" ry="3" style="stroke:#038048;stroke-width:1;"/></g><text fill="#C9D1D9" font-family="'Segoe UI, Inter, sans-serif'" font-size="14" lengthAdjust="spacing" text-decoration="underline" textLength="214.1084" x="1191" y="690.6191">NotFound(msg: string) : Result&lt;T&gt;</text><g data-visibility-modifier="PUBLIC_METHOD"><ellipse cx="1173" cy="724.9434" fill="#84BE84" rx="3" ry="3" style="stroke:#038048;stroke-width:1;"/></g><text fill="#C9D1D9" font-family="'Segoe UI, Inter, sans-serif'" font-size="14" lengthAdjust="spacing" text-decoration="underline" textLength="224.8203" x="1191" y="729.2402">BadRequest(msg: string) : Result&lt;T&gt;</text></g><!--class <color:#F85149><&shield></color> GlobalExceptionHandler--><g class="entity" data-qualified-name="ClinicManagementAPI.Api.Middleware..color..F85149...shield...color. GlobalExceptionHandler" data-source-line="44" id="ent0007"><rect fill="#161B22" height="180.4844" rx="6" ry="6" style="stroke:#A371F7;stroke-width:0.5;" width="316.6738" x="740" y="431.4219"/><ellipse cx="802.4837" cy="475.043" fill="#58A6FF" rx="10" ry="10" style="stroke:#181818;stroke-width:1;"/><path d="M803.89,471.1055 Q804.015,470.9336 804.1712,470.8555 Q804.3275,470.7617 804.4993,470.7617 Q804.8118,470.7617 804.9993,470.9805 Q805.2025,471.1836 805.2025,471.6836 L805.2025,472.8711 Q805.2025,473.3867 804.9993,473.6055 Q804.8118,473.8086 804.4993,473.8086 Q804.2181,473.8086 804.0462,473.6523 Q803.8743,473.4961 803.7962,473.0742 Q803.7493,472.7773 803.6087,472.6211 Q803.3275,472.3086 802.8118,472.1367 Q802.3118,471.9492 801.8118,471.9492 Q801.1868,471.9492 800.6556,472.2305 Q800.1243,472.4961 799.7181,473.1211 Q799.3275,473.7305 799.3275,474.5742 L799.3275,475.4805 Q799.3275,476.4961 800.0618,477.168 Q800.7962,477.8398 802.0931,477.8398 Q802.8743,477.8398 803.4212,477.6367 Q803.7337,477.5117 804.0931,477.1523 Q804.3118,476.9336 804.4212,476.8711 Q804.5462,476.793 804.7025,476.793 Q804.9837,476.793 805.2025,477.0117 Q805.4212,477.2305 805.4212,477.5117 Q805.4212,477.793 805.1243,478.1211 Q804.7025,478.6055 804.0462,478.8711 Q803.1712,479.2461 802.1087,479.2461 Q800.8587,479.2461 799.8587,478.7305 Q799.0618,478.3242 798.4837,477.4492 Q797.9212,476.5586 797.9212,475.5117 L797.9212,474.5586 Q797.9212,473.4648 798.4212,472.5273 Q798.9368,471.5742 799.8431,471.0586 Q800.7493,470.543 801.7493,470.543 Q802.3587,470.543 802.89,470.6836 Q803.4212,470.8242 803.89,471.1055 Z " fill="#E6EDF3"/><text fill="#E6EDF3" font-family="Segoe UI, Inter, sans-serif" font-size="14" font-style="italic" lengthAdjust="spacing" textLength="123.8604" x="851.4067" y="461.5293">&#171;IExceptionHandler&#187;</text><path d="M837.1504,490.8307 L836.9287,490.9357 L832.8454,492.6507 L832.4837,492.8024 L832.4837,493.1641 C832.4837,495.1007 833.2654,496.8041 834.1987,498.0524 C834.6654,498.6707 835.1671,499.1841 835.6571,499.5457 C836.1471,499.9074 836.6254,500.1641 837.1504,500.1641 C837.6871,500.1641 838.1537,499.9074 838.6437,499.5457 C839.1337,499.1841 839.6354,498.6707 840.1021,498.0524 C841.0354,496.8041 841.8171,495.1007 841.8171,493.1641 L841.8171,492.8024 L841.4554,492.6507 L837.3721,490.9357 L837.1504,490.8307 M837.1504,492.1024 L837.1504,498.9974 C837.1037,498.9974 836.7654,498.9157 836.3804,498.6357 C835.9954,498.3557 835.5521,497.9007 835.1437,497.3641 C834.3971,496.3724 833.8137,494.9957 833.7204,493.5374 L837.1504,492.1141" fill="#F85149"/><text fill="#C9D1D9" font-family="'Segoe UI, Inter, sans-serif'" font-size="14" lengthAdjust="spacing" textLength="148.5381" x="846.652" y="500.1504">GlobalExceptionHandler</text><line style="stroke:#A371F7;stroke-width:0.5;" x1="741" x2="1055.6738" y1="518.6641" y2="518.6641"/><g data-visibility-modifier="PRIVATE_FIELD"><rect fill="none" height="6" style="stroke:#C82930;stroke-width:1;" width="6" x="748" y="540.4746"/></g><text fill="#C9D1D9" font-family="'Segoe UI, Inter, sans-serif'" font-size="14" lengthAdjust="spacing" textLength="271.6738" x="769" y="547.7715">_logger : ILogger&lt;GlobalExceptionHandler&gt;</text><line style="stroke:#A371F7;stroke-width:0.5;" x1="741" x2="1055.6738" y1="565.2852" y2="565.2852"/><g data-visibility-modifier="PUBLIC_METHOD"><ellipse cx="751" cy="590.0957" fill="#84BE84" rx="3" ry="3" style="stroke:#038048;stroke-width:1;"/></g><text fill="#C9D1D9" font-family="'Segoe UI, Inter, sans-serif'" font-size="14" lengthAdjust="spacing" textLength="236.3047" x="769" y="594.3926">TryHandleAsync(...) : ValueTask&lt;bool&gt;</text></g><!--class ResultExtensions--><g class="entity" data-qualified-name="ClinicManagementAPI.Api.Extensions.ResultExtensions" data-source-line="66" id="ent0014"><rect fill="#161B22" height="141.8633" rx="6" ry="6" style="stroke:#A371F7;stroke-width:0.5;" width="339.752" x="339.5" y="450.4219"/><ellipse cx="444.0825" cy="494.043" fill="#58A6FF" rx="10" ry="10" style="stroke:#181818;stroke-width:1;"/><path d="M445.4888,490.1055 Q445.6138,489.9336 445.77,489.8555 Q445.9263,489.7617 446.0981,489.7617 Q446.4106,489.7617 446.5981,489.9805 Q446.8013,490.1836 446.8013,490.6836 L446.8013,491.8711 Q446.8013,492.3867 446.5981,492.6055 Q446.4106,492.8086 446.0981,492.8086 Q445.8169,492.8086 445.645,492.6523 Q445.4731,492.4961 445.395,492.0742 Q445.3481,491.7773 445.2075,491.6211 Q444.9263,491.3086 444.4106,491.1367 Q443.9106,490.9492 443.4106,490.9492 Q442.7856,490.9492 442.2544,491.2305 Q441.7231,491.4961 441.3169,492.1211 Q440.9263,492.7305 440.9263,493.5742 L440.9263,494.4805 Q440.9263,495.4961 441.6606,496.168 Q442.395,496.8398 443.6919,496.8398 Q444.4731,496.8398 445.02,496.6367 Q445.3325,496.5117 445.6919,496.1523 Q445.9106,495.9336 446.02,495.8711 Q446.145,495.793 446.3013,495.793 Q446.5825,495.793 446.8013,496.0117 Q447.02,496.2305 447.02,496.5117 Q447.02,496.793 446.7231,497.1211 Q446.3013,497.6055 445.645,497.8711 Q444.77,498.2461 443.7075,498.2461 Q442.4575,498.2461 441.4575,497.7305 Q440.6606,497.3242 440.0825,496.4492 Q439.52,495.5586 439.52,494.5117 L439.52,493.5586 Q439.52,492.4648 440.02,491.5273 Q440.5356,490.5742 441.4419,490.0586 Q442.3481,489.543 443.3481,489.543 Q443.9575,489.543 444.4888,489.6836 Q445.02,489.8242 445.4888,490.1055 Z " fill="#E6EDF3"/><text fill="#E6EDF3" font-family="Segoe UI, Inter, sans-serif" font-size="14" font-style="italic" lengthAdjust="spacing" textLength="47.7217" x="500.5151" y="480.5293">&#171;Static&#187;</text><text fill="#C9D1D9" font-family="'Segoe UI, Inter, sans-serif'" font-size="14" lengthAdjust="spacing" textLength="102.5869" x="473.0825" y="519.1504">ResultExtensions</text><line style="stroke:#A371F7;stroke-width:0.5;" x1="340.5" x2="678.252" y1="537.6641" y2="537.6641"/><line style="stroke:#A371F7;stroke-width:0.5;" x1="340.5" x2="678.252" y1="545.6641" y2="545.6641"/><g data-visibility-modifier="PUBLIC_METHOD"><ellipse cx="350.5" cy="570.4746" fill="#84BE84" rx="3" ry="3" style="stroke:#038048;stroke-width:1;"/></g><text fill="#C9D1D9" font-family="'Segoe UI, Inter, sans-serif'" font-size="14" lengthAdjust="spacing" text-decoration="underline" textLength="294.752" x="368.5" y="574.7715">ToHttpResponse&lt;T&gt;(result: Result&lt;T&gt;) : IResult</text></g><!--class ProblemDetails--><g class="entity" data-qualified-name="Microsoft.AspNetCore.Mvc.ProblemDetails" data-source-line="53" id="ent0010"><rect fill="#161B22" height="334.9688" rx="6" ry="6" style="stroke:#A371F7;stroke-width:0.5;" width="286.5137" x="1500" y="1091.9219"/><ellipse cx="1582.4375" cy="1135.543" fill="#58A6FF" rx="10" ry="10" style="stroke:#181818;stroke-width:1;"/><path d="M1583.8438,1131.6055 Q1583.9688,1131.4336 1584.125,1131.3555 Q1584.2813,1131.2617 1584.4531,1131.2617 Q1584.7656,1131.2617 1584.9531,1131.4805 Q1585.1563,1131.6836 1585.1563,1132.1836 L1585.1563,1133.3711 Q1585.1563,1133.8867 1584.9531,1134.1055 Q1584.7656,1134.3086 1584.4531,1134.3086 Q1584.1719,1134.3086 1584,1134.1523 Q1583.8281,1133.9961 1583.75,1133.5742 Q1583.7031,1133.2773 1583.5625,1133.1211 Q1583.2813,1132.8086 1582.7656,1132.6367 Q1582.2656,1132.4492 1581.7656,1132.4492 Q1581.1406,1132.4492 1580.6094,1132.7305 Q1580.0781,1132.9961 1579.6719,1133.6211 Q1579.2813,1134.2305 1579.2813,1135.0742 L1579.2813,1135.9805 Q1579.2813,1136.9961 1580.0156,1137.668 Q1580.75,1138.3398 1582.0469,1138.3398 Q1582.8281,1138.3398 1583.375,1138.1367 Q1583.6875,1138.0117 1584.0469,1137.6523 Q1584.2656,1137.4336 1584.375,1137.3711 Q1584.5,1137.293 1584.6563,1137.293 Q1584.9375,1137.293 1585.1563,1137.5117 Q1585.375,1137.7305 1585.375,1138.0117 Q1585.375,1138.293 1585.0781,1138.6211 Q1584.6563,1139.1055 1584,1139.3711 Q1583.125,1139.7461 1582.0625,1139.7461 Q1580.8125,1139.7461 1579.8125,1139.2305 Q1579.0156,1138.8242 1578.4375,1137.9492 Q1577.875,1137.0586 1577.875,1136.0117 L1577.875,1135.0586 Q1577.875,1133.9648 1578.375,1133.0273 Q1578.8906,1132.0742 1579.7969,1131.5586 Q1580.7031,1131.043 1581.7031,1131.043 Q1582.3125,1131.043 1582.8438,1131.1836 Q1583.375,1131.3242 1583.8438,1131.6055 Z " fill="#E6EDF3"/><text fill="#E6EDF3" font-family="Segoe UI, Inter, sans-serif" font-size="14" font-style="italic" lengthAdjust="spacing" textLength="45.6162" x="1635.4487" y="1122.0293">&#171;Class&#187;</text><text fill="#C9D1D9" font-family="'Segoe UI, Inter, sans-serif'" font-size="14" lengthAdjust="spacing" textLength="93.6387" x="1611.4375" y="1160.6504">ProblemDetails</text><line style="stroke:#A371F7;stroke-width:0.5;" x1="1501" x2="1785.5137" y1="1179.1641" y2="1179.1641"/><g data-visibility-modifier="PUBLIC_FIELD"><ellipse cx="1511" cy="1203.9746" fill="none" rx="3" ry="3" style="stroke:#038048;stroke-width:1;"/></g><text fill="#C9D1D9" font-family="'Segoe UI, Inter, sans-serif'" font-size="14" lengthAdjust="spacing" textLength="75.4756" x="1529" y="1208.2715">Type : string</text><g data-visibility-modifier="PUBLIC_FIELD"><ellipse cx="1511" cy="1242.5957" fill="none" rx="3" ry="3" style="stroke:#038048;stroke-width:1;"/></g><text fill="#C9D1D9" font-family="'Segoe UI, Inter, sans-serif'" font-size="14" lengthAdjust="spacing" textLength="71.9961" x="1529" y="1246.8926">Title : string</text><g data-visibility-modifier="PUBLIC_FIELD"><ellipse cx="1511" cy="1281.2168" fill="none" rx="3" ry="3" style="stroke:#038048;stroke-width:1;"/></g><text fill="#C9D1D9" font-family="'Segoe UI, Inter, sans-serif'" font-size="14" lengthAdjust="spacing" textLength="70.9502" x="1529" y="1285.5137">Status : int?</text><g data-visibility-modifier="PUBLIC_FIELD"><ellipse cx="1511" cy="1319.8379" fill="none" rx="3" ry="3" style="stroke:#038048;stroke-width:1;"/></g><text fill="#C9D1D9" font-family="'Segoe UI, Inter, sans-serif'" font-size="14" lengthAdjust="spacing" textLength="81.6006" x="1529" y="1324.1348">Detail : string</text><g data-visibility-modifier="PUBLIC_FIELD"><ellipse cx="1511" cy="1358.459" fill="none" rx="3" ry="3" style="stroke:#038048;stroke-width:1;"/></g><text fill="#C9D1D9" font-family="'Segoe UI, Inter, sans-serif'" font-size="14" lengthAdjust="spacing" textLength="96.9814" x="1529" y="1362.7559">Instance : string</text><g data-visibility-modifier="PUBLIC_FIELD"><ellipse cx="1511" cy="1397.0801" fill="none" rx="3" ry="3" style="stroke:#038048;stroke-width:1;"/></g><text fill="#C9D1D9" font-family="'Segoe UI, Inter, sans-serif'" font-size="14" lengthAdjust="spacing" textLength="241.5137" x="1529" y="1401.377">Extensions : IDictionary&lt;string, object&gt;</text><line style="stroke:#A371F7;stroke-width:0.5;" x1="1501" x2="1785.5137" y1="1418.8906" y2="1418.8906"/></g><!--class GlobalExceptionHandler--><g class="entity" data-qualified-name="GlobalExceptionHandler" data-source-line="75" id="ent0015"><rect fill="#161B22" height="64.6211" rx="6" ry="6" style="stroke:#A371F7;stroke-width:0.5;" width="198.5381" x="1544" y="488.9219"/><ellipse cx="1558" cy="513.2324" fill="#58A6FF" rx="10" ry="10" style="stroke:#181818;stroke-width:1;"/><path d="M1559.4063,509.2949 Q1559.5313,509.123 1559.6875,509.0449 Q1559.8438,508.9512 1560.0156,508.9512 Q1560.3281,508.9512 1560.5156,509.1699 Q1560.7188,509.373 1560.7188,509.873 L1560.7188,511.0605 Q1560.7188,511.5762 1560.5156,511.7949 Q1560.3281,511.998 1560.0156,511.998 Q1559.7344,511.998 1559.5625,511.8418 Q1559.3906,511.6855 1559.3125,511.2637 Q1559.2656,510.9668 1559.125,510.8105 Q1558.8438,510.498 1558.3281,510.3262 Q1557.8281,510.1387 1557.3281,510.1387 Q1556.7031,510.1387 1556.1719,510.4199 Q1555.6406,510.6855 1555.2344,511.3105 Q1554.8438,511.9199 1554.8438,512.7637 L1554.8438,513.6699 Q1554.8438,514.6855 1555.5781,515.3574 Q1556.3125,516.0293 1557.6094,516.0293 Q1558.3906,516.0293 1558.9375,515.8262 Q1559.25,515.7012 1559.6094,515.3418 Q1559.8281,515.123 1559.9375,515.0605 Q1560.0625,514.9824 1560.2188,514.9824 Q1560.5,514.9824 1560.7188,515.2012 Q1560.9375,515.4199 1560.9375,515.7012 Q1560.9375,515.9824 1560.6406,516.3105 Q1560.2188,516.7949 1559.5625,517.0605 Q1558.6875,517.4355 1557.625,517.4355 Q1556.375,517.4355 1555.375,516.9199 Q1554.5781,516.5137 1554,515.6387 Q1553.4375,514.748 1553.4375,513.7012 L1553.4375,512.748 Q1553.4375,511.6543 1553.9375,510.7168 Q1554.4531,509.7637 1555.3594,509.248 Q1556.2656,508.7324 1557.2656,508.7324 Q1557.875,508.7324 1558.4063,508.873 Q1558.9375,509.0137 1559.4063,509.2949 Z " fill="#E6EDF3"/><text fill="#C9D1D9" font-family="'Segoe UI, Inter, sans-serif'" font-size="14" lengthAdjust="spacing" textLength="148.5381" x="1581" y="519.0293">GlobalExceptionHandler</text><line style="stroke:#A371F7;stroke-width:0.5;" x1="1545" x2="1741.5381" y1="537.543" y2="537.543"/><line style="stroke:#A371F7;stroke-width:0.5;" x1="1545" x2="1741.5381" y1="545.543" y2="545.543"/></g><!--class Result<T>--><g class="entity" data-qualified-name="Result.T." data-source-line="78" id="ent0017"><rect fill="#161B22" height="64.6211" rx="6" ry="6" style="stroke:#A371F7;stroke-width:0.5;" width="114.1826" x="41.5" y="488.9219"/><ellipse cx="55.5" cy="513.2324" fill="#58A6FF" rx="10" ry="10" style="stroke:#181818;stroke-width:1;"/><path d="M56.9063,509.2949 Q57.0313,509.123 57.1875,509.0449 Q57.3438,508.9512 57.5156,508.9512 Q57.8281,508.9512 58.0156,509.1699 Q58.2188,509.373 58.2188,509.873 L58.2188,511.0605 Q58.2188,511.5762 58.0156,511.7949 Q57.8281,511.998 57.5156,511.998 Q57.2344,511.998 57.0625,511.8418 Q56.8906,511.6855 56.8125,511.2637 Q56.7656,510.9668 56.625,510.8105 Q56.3438,510.498 55.8281,510.3262 Q55.3281,510.1387 54.8281,510.1387 Q54.2031,510.1387 53.6719,510.4199 Q53.1406,510.6855 52.7344,511.3105 Q52.3438,511.9199 52.3438,512.7637 L52.3438,513.6699 Q52.3438,514.6855 53.0781,515.3574 Q53.8125,516.0293 55.1094,516.0293 Q55.8906,516.0293 56.4375,515.8262 Q56.75,515.7012 57.1094,515.3418 Q57.3281,515.123 57.4375,515.0605 Q57.5625,514.9824 57.7188,514.9824 Q58,514.9824 58.2188,515.2012 Q58.4375,515.4199 58.4375,515.7012 Q58.4375,515.9824 58.1406,516.3105 Q57.7188,516.7949 57.0625,517.0605 Q56.1875,517.4355 55.125,517.4355 Q53.875,517.4355 52.875,516.9199 Q52.0781,516.5137 51.5,515.6387 Q50.9375,514.748 50.9375,513.7012 L50.9375,512.748 Q50.9375,511.6543 51.4375,510.7168 Q51.9531,509.7637 52.8594,509.248 Q53.7656,508.7324 54.7656,508.7324 Q55.375,508.7324 55.9063,508.873 Q56.4375,509.0137 56.9063,509.2949 Z " fill="#E6EDF3"/><text fill="#C9D1D9" font-family="'Segoe UI, Inter, sans-serif'" font-size="14" lengthAdjust="spacing" textLength="64.1826" x="78.5" y="519.0293">Result&lt;T&gt;</text><line style="stroke:#A371F7;stroke-width:0.5;" x1="42.5" x2="154.6826" y1="537.543" y2="537.543"/><line style="stroke:#A371F7;stroke-width:0.5;" x1="42.5" x2="154.6826" y1="545.543" y2="545.543"/></g><g class="entity" data-qualified-name="GMN20" data-source-line="83" id="ent0021"><path d="M1803,475.9219 L1803,517.4219 L1743.02,521.4219 L1803,525.4219 L1803,567.0762 A6,6 0 0 0 1809,573.0762 L1993.665,573.0762 A6,6 0 0 0 1999.665,567.0762 L1999.665,479.9219 L1989.665,469.9219 L1809,469.9219 A6,6 0 0 0 1803,475.9219" fill="#21262D" style="stroke:#F85149;stroke-width:0.5;"/><path d="M1989.665,469.9219 L1989.665,476.9219 A3,3 0 0 0 1992.665,479.9219 L1999.665,479.9219 L1989.665,469.9219" fill="#21262D" style="stroke:#F85149;stroke-width:0.5;"/><text fill="#C9D1D9" font-family="'Segoe UI, Inter, sans-serif'" font-size="11" lengthAdjust="spacing" textLength="57.1323" x="1819" y="496.792">Implements</text><text fill="#C9D1D9" font-family="'Segoe UI, Inter, sans-serif'" font-size="11" font-weight="bold" lengthAdjust="spacing" textLength="95.5195" x="1879.1455" y="496.792">IExceptionHandler</text><text fill="#C9D1D9" font-family="'Segoe UI, Inter, sans-serif'" font-size="11" lengthAdjust="spacing" textLength="115.6987" x="1819" y="511.4229">Catches system crashes,</text><text fill="#C9D1D9" font-family="'Segoe UI, Inter, sans-serif'" font-size="11" lengthAdjust="spacing" textLength="132.1235" x="1819" y="526.0537">logs securely, and returns a</text><text fill="#C9D1D9" font-family="'Segoe UI, Inter, sans-serif'" font-size="11" lengthAdjust="spacing" textLength="154.3975" x="1819" y="540.6846">clean 500 ProblemDetails JSON.</text><text fill="#C9D1D9" font-family="'Segoe UI, Inter, sans-serif'" font-size="11" lengthAdjust="spacing" textLength="132.2417" x="1819" y="555.3154">Never exposes stack traces.</text></g><g class="entity" data-qualified-name="GMN23" data-source-line="91" id="ent0024"><path d="M6,1228.4219 L6,1290.3145 A6,6 0 0 0 12,1296.3145 L184.9399,1296.3145 A6,6 0 0 0 190.9399,1290.3145 L190.9399,1232.4219 L180.9399,1222.4219 L102.5,1222.4219 L98.5,554.0419 L94.5,1222.4219 L12,1222.4219 A6,6 0 0 0 6,1228.4219" fill="#21262D" style="stroke:#F85149;stroke-width:0.5;"/><path d="M180.9399,1222.4219 L180.9399,1229.4219 A3,3 0 0 0 183.9399,1232.4219 L190.9399,1232.4219 L180.9399,1222.4219" fill="#21262D" style="stroke:#F85149;stroke-width:0.5;"/><text fill="#C9D1D9" font-family="'Segoe UI, Inter, sans-serif'" font-size="11" lengthAdjust="spacing" textLength="131.189" x="22" y="1249.292">Used internally by Services.</text><text fill="#C9D1D9" font-family="'Segoe UI, Inter, sans-serif'" font-size="11" lengthAdjust="spacing" textLength="143.9399" x="22" y="1263.9229">Explicitly tracks business logic</text><text fill="#C9D1D9" font-family="'Segoe UI, Inter, sans-serif'" font-size="11" lengthAdjust="spacing" textLength="132.4673" x="22" y="1278.5537">errors (e.g. Validation, 404).</text></g><!--link GlobalExceptionHandler to ProblemDetails--><g class="link" data-entity-1="ent0015" data-entity-2="ent0010" data-link-type="dependency" data-source-line="75" id="lnk16"><path codeLine="75" d="M1643.5,554.0419 C1643.5,645.2619 1643.5,907.6319 1643.5,1085.5319" fill="none" id="GlobalExceptionHandler-to-ProblemDetails" style="stroke:#F85149;stroke-width:1.5;"/><polygon fill="#F85149" points="1643.5,1091.5319,1647.5,1082.5319,1643.5,1086.5319,1639.5,1082.5319,1643.5,1091.5319" style="stroke:#F85149;stroke-width:1.5;"/><text fill="#C9D1D9" font-family="'Segoe UI, Inter, sans-serif'" font-size="12" lengthAdjust="spacing" textLength="56.5254" x="1685.8096" y="850.8711">Creates on</text><text fill="#C9D1D9" font-family="'Segoe UI, Inter, sans-serif'" font-size="12" lengthAdjust="spacing" textLength="112.5703" x="1654.5" y="866.832">Unhandled Exception</text></g><!--reverse link Result<T> to ResultExtensions--><g class="link" data-entity-1="ent0017" data-entity-2="ent0014" data-link-type="dependency" data-source-line="78" id="lnk19"><path codeLine="78" d="M161.65,521.4219 C209.29,521.4219 273.71,521.4219 339.22,521.4219" fill="none" id="Result&lt;T&gt;-backto-ResultExtensions" style="stroke:#58A6FF;stroke-width:1.5;stroke-dasharray:7,7;"/><polygon fill="#58A6FF" points="155.65,521.4219,164.65,525.4219,160.65,521.4219,164.65,517.4219,155.65,521.4219" style="stroke:#58A6FF;stroke-width:1.5;"/><text fill="#C9D1D9" font-family="'Segoe UI, Inter, sans-serif'" font-size="12" lengthAdjust="spacing" textLength="95.8242" x="199.7871" y="505.3711">Extension Method</text></g><g class="footer" data-source-line="18"><text fill="#E6EDF3" font-family="'Segoe UI, Inter, sans-serif'" font-size="10" lengthAdjust="spacing" textLength="191.6064" x="900.5293" y="1517.7129">Sprint 6 &#8212; Result Pattern &amp; ProblemDetails</text></g><?plantuml-src dLRXJkD64FxlfvWBqbsWn2GSf0SAgK98IYh2HIJqp_M4DkiXsRBPTNVN7DO9gG_H9-oJTBnsmEII8k5VzipEDplVV3lh3r1xsnDyWBwGU0nSCcl3E5b8ChqTR9IOM5i4W6FePf1m9jZCi0Ny-_S_q3D66pXdAf92pQ1Z-5muv2unIB4NB4K3u6FFDBTGlHvUR9EZaxYvDhbZgETiWH5qf21Fro1pz9LvzklxpLhzOwrnH8vnR8HoUKZJvnvfAUmStiCLMcUIPTAtbXgyY_1MA8JhSU-cUpsUV1xUJCvxmrxmJYWkamWX3FUuLhTYjcTTAZ4dDt32ITp8JLShAwn3nTCNz42rgAYv7T2kJqvEu1nPX6QlhxKZsiWIpBs5i8KI78PCiHaka8B6AK4keBRQWA6EK0QtES8oWTyDaPH81oFcoAM8jP7HKucBCtHCIBlS0xLC9uIFpX6UzRkmTqB5B2jhPdGI3zGSZN1CSOJzabDHReinDEibes7ghZ0M6KQCtr4PENGGvrzGoMjyBh4p6eHTRJ3q9TaAR3MQZTFzVVWU19aAlBoXqk9QQdEyzR5_UdHORxVUJ_L3kxNdhUsYwDQaNO5MYnZVBTPjmtYf66Yt2HAAvoSOs772EHBsCKorbYzSVQ8gY_d1zJkJIMQUb6nvQuw1n4bKbXnZnrnYkrGNUQb3JwxlbZo2FsPhyarKxpDWmjscfK_Lh0iejbR5BEiowIvmokAJl0fmgLrV9oggBkni6Vzgq2cBhl2lX0xW_uSz1e-lzBeJYt0eeaZYDsQGsbq_QpGQFszeT__JOUFWYDfjvm9bzDpnNwMUCjbxu1WxePK_66Xy-mUhrfUjhy6DrBCPPYqRNFYtrdgqTgcN4vFcrevD5Q-6OPWLx-KmOVQkbUbaIS4B3eQ26strhGixDhv4bslzdcyI-ilZwWlAHywAVYTfZEj4D_5JQgCQSoN-KhBdcTP539JDJ_yQN--1HfqbhZB4mPdW6M_CfAsb8FNqJng0QodP98jdp4sooCLMNaVqZBrAN_9Jakv4dpiNKsHC0KX2hHgFKf9krif1_bNQRpx6hb2oh3OIO5pCiW_mB618B8subHcxNavG-rBe-MkalwbQUoMCDb4fxaKBMlsXhjNSHqRm10MLB7rFHR6cDbfOi7WvyPs6yyba1AQeD5Wb2y8lMuUVEir-_wj4qcDxoQUVcrdofxKmHBguepnRnW8DZUKaL_GAHipc3lJjXdFeMHmiOkdxQs5dvuT3kRFZ5tMPutE2jlb5nmspzBdhVNHCoO6SnfrCTu7Yg3YQvLGAArI1JC5XlRxAv6_ZpvUXNtA9zyGyFcJ_DWJcI8FW3AEP6mP8W5arHKrJxPnUP4MLUF4WrvPwG7pJXSgaJ66QqiLfxeL7oHRq7c8fE9syr8FVMPWcblunIBDKXE1-aP_Oz6-4uIpC9eU8lB1suQ1-i5tQpNy0?></g></svg>