<?plantuml 1.2026.2?><svg xmlns="http://www.w3.org/2000/svg" xmlns:xlink="http://www.w3.org/1999/xlink" contentStyleType="text/css" data-diagram-type="DESCRIPTION" height="2377px" preserveAspectRatio="none" style="width:2012px;height:2377px;background:#0D1117;" version="1.1" viewBox="0 0 2012 2377" width="2012px" zoomAndPan="magnify"><title>Component &#8212; Final Architecture Overview (Sprint 6)</title><defs/><g><rect fill="#0D1117" height="2377" style="stroke:none;stroke-width:1;" width="2012" x="0" y="0"/><g class="header" data-source-line="17"><text fill="#E6EDF3" font-family="'Segoe UI, Inter, sans-serif'" font-size="10" lengthAdjust="spacing" textLength="226.2012" x="1762.2515" y="20.791">Clinic Management System - Architecture Overview</text></g><g class="title" data-source-line="14"><text fill="#E6EDF3" font-family="'Segoe UI, Inter, sans-serif'" font-size="14" font-weight="bold" lengthAdjust="spacing" textLength="347.1221" x="825.6653" y="69.4082">Component &#8212; Final Architecture Overview (Sprint 6)</text></g><!--cluster GITHUB--><g class="cluster" data-qualified-name="GITHUB" data-source-line="26" id="ent0002"><path d="M27.8853,1810.0314 C32.5516,1797.9315 40.5276,1798.0878 48.3328,1806.9729 C54.3656,1797.8301 61.0672,1796.1199 68.1975,1805.8156 C72.2692,1795.8327 80.8473,1791.7049 89.3092,1801.0105 C95.6524,1789.7 103.3934,1788.7662 111.5095,1799.2005 C119.8069,1791.2734 130.0119,1793.2194 134.1966,1804.1488 C141.7278,1795.3234 151.2247,1794.7533 156.6977,1806.41 C161.763,1797.0854 171.1847,1798.5616 176.0727,1806.6078 C188.7867,1795.8571 197.321,1800.8095 202.9527,1814.4219 C204.153,1814.4615 204.4529,1815.3742 203.8573,1816.2855 C213.8286,1819.6964 214.5524,1826.7443 207.8375,1833.9211 C217.0721,1840.15 217.2627,1848.8365 207.8982,1855.1187 C216.667,1859.2128 216.6223,1865.3127 208.9832,1870.5597 C218.4982,1876.0268 218.6761,1885.5907 208.9492,1891.0258 C219.5228,1895.0572 221.3546,1904.1686 211.4737,1910.8101 C220.9998,1914.9319 222.4104,1922.7534 213.6507,1929.0568 C221.2132,1934.3654 220.3818,1940.2457 213.3759,1945.3079 C222.6284,1951.5324 222.9651,1959.3062 214.6664,1966.5947 C223.061,1973.4214 222.24,1978.8885 213.3784,1984.4718 C219.7434,1991.745 220.0531,1999.2488 209.01,2002.2428 C216.4605,2006.7008 218.35,2015.133 208.9955,2019.577 C217.2664,2025.5833 216.0267,2033.9273 207.0049,2038.0725 C215.0621,2043.7469 217.1556,2054.067 205.7784,2058.5791 C212.443,2070.5872 208.6465,2077.7408 195.9527,2081.4219 C196.3484,2080.8215 196.9408,2080.6784 197.3342,2081.4243 C191.5369,2091.2841 185.4007,2093.2034 176.5465,2084.9283 C169.6331,2095.8891 161.6049,2094.2838 155.5768,2084.0523 C150.8757,2095.4602 140.5015,2094.5177 134.1311,2085.8341 C126.8808,2094.8636 120.1418,2097.1026 112.5698,2086.1819 C106.3323,2099.2866 97.4532,2099.2286 89.5152,2087.7785 C81.6266,2096.2211 74.342,2094.7162 69.9113,2084.2025 C62.3844,2096.8472 54.3397,2096.106 46.8623,2084.156 C33.7142,2093.1761 22.0899,2092.1636 17.9527,2074.4219 C18.9398,2074.5316 19.3113,2075.0693 18.7192,2075.964 C10.9702,2070.7729 11.0433,2062.3366 19.6531,2057.9958 C9.5034,2053.4362 8.4863,2046.2654 17.5323,2039.5043 C8.0914,2032.6831 9.0903,2026.8752 17.6192,2020.1346 C9.3778,2014.8204 9.5256,2008.7444 16.9069,2002.7887 C6.6136,1997.2839 9.3028,1988.3752 17.3209,1983.2585 C9.6166,1978.9528 6.5766,1971.3377 15.4708,1965.3201 C6,1960.1846 6.7734,1952.2553 15.7496,1947.407 C6.381,1940.5468 8.1403,1933.7316 17.4313,1928.5341 C8.5637,1924.2969 7.1717,1915.1994 16.377,1909.9377 C8.2432,1903.7434 8.447,1894.1154 18.1572,1889.4734 C11.0431,1884.2372 10.977,1878.4025 17.6631,1872.7585 C7.9076,1867.3094 8.5533,1858.5786 18.2463,1853.7255 C8.8477,1847.611 11.5272,1838.7433 20.1286,1834.3801 C10.3483,1824.779 9.9536,1812.5889 24.9527,1807.4219 C26.9993,1806.6771 28.206,1808.1158 27.8853,1810.0314" fill="#161B22" style="stroke:#30363D;stroke-width:1;"/><path d="M49.3314,1829.3763 C47.9197,1829.3763 46.6831,1830.3796 46.4147,1831.7096 C45.1314,1831.7096 44.0814,1832.7596 44.0814,1834.043 C44.0814,1835.3263 45.1314,1836.3763 46.4147,1836.3763 L51.6647,1836.3763 C52.6331,1836.3763 53.4147,1835.5946 53.4147,1834.6263 C53.4147,1833.868 52.9247,1833.1213 52.2481,1832.8763 L52.2481,1832.293 C52.2481,1830.683 50.9414,1829.3763 49.3314,1829.3763" fill="#E6EDF3"/><text fill="#E6EDF3" font-family="'Segoe UI, Inter, sans-serif'" font-size="14" font-weight="bold" lengthAdjust="spacing" textLength="119.5469" x="58.277" y="1837.5293">GitHub Ecosystem</text></g><!--cluster ClinicManagementAPI.slnx Solution--><g class="cluster" data-qualified-name="ClinicManagementAPI.slnx Solution" data-source-line="32" id="ent0007"><path d="M374.9527,365.4219 L658.1402,365.4219 A9,9 0 0 1 664.1402,371.4219 L671.1402,412.7031 L1612.4527,412.7031 A6,6 0 0 1 1618.4527,418.7031 L1618.4527,2146.4219 A6,6 0 0 1 1612.4527,2152.4219 L374.9527,2152.4219 A6,6 0 0 1 368.9527,2146.4219 L368.9527,371.4219 A6,6 0 0 1 374.9527,365.4219" fill="#0D1117" style="stroke:#30363D;stroke-width:1.5;"/><line style="stroke:#30363D;stroke-width:1.5;" x1="368.9527" x2="671.1402" y1="412.7031" y2="412.7031"/><text fill="#58A6FF" font-family="'Segoe UI, Inter, sans-serif'" font-size="16" font-weight="bold" lengthAdjust="spacing" textLength="269.1875" x="382.9527" y="394.6875">ClinicManagementAPI.slnx Solution</text></g><!--cluster SRC_FOLDER--><g class="cluster" data-qualified-name="ClinicManagementAPI.slnx Solution.SRC_FOLDER" data-source-line="34" id="ent0008"><path d="M398.9527,997.4219 L445.5464,997.4219 A9,9 0 0 1 451.5464,1003.4219 L458.5464,1044.7031 L1564.9527,1044.7031 A6,6 0 0 1 1570.9527,1050.7031 L1570.9527,2122.4219 A6,6 0 0 1 1564.9527,2128.4219 L398.9527,2128.4219 A6,6 0 0 1 392.9527,2122.4219 L392.9527,1003.4219 A6,6 0 0 1 398.9527,997.4219" fill="#161B22" style="stroke:#30363D;stroke-width:1.5;"/><line style="stroke:#30363D;stroke-width:1.5;" x1="392.9527" x2="458.5464" y1="1044.7031" y2="1044.7031"/><text fill="#58A6FF" font-family="'Segoe UI, Inter, sans-serif'" font-size="16" font-weight="bold" lengthAdjust="spacing" textLength="32.5938" x="406.9527" y="1026.6875">src /</text></g><!--cluster API--><g class="cluster" data-qualified-name="ClinicManagementAPI.slnx Solution.SRC_FOLDER.API" data-source-line="35" id="ent0009"><path d="M430.9527,1507.4219 L659.2131,1507.4219 A9,9 0 0 1 665.2131,1513.4219 L672.2131,1554.7031 L1094.4527,1554.7031 A6,6 0 0 1 1100.4527,1560.7031 L1100.4527,2090.4219 A6,6 0 0 1 1094.4527,2096.4219 L430.9527,2096.4219 A6,6 0 0 1 424.9527,2090.4219 L424.9527,1513.4219 A6,6 0 0 1 430.9527,1507.4219" fill="#161B22" style="stroke:#30363D;stroke-width:1.5;"/><line style="stroke:#30363D;stroke-width:1.5;" x1="424.9527" x2="672.2131" y1="1554.7031" y2="1554.7031"/><path d="M439.9527,1526.0365 L439.9527,1527.3698 L450.6193,1527.3698 L450.6193,1526.0365 L439.9527,1526.0365 M439.9527,1528.7031 L439.9527,1536.5831 C439.9527,1536.6498 440.006,1536.7031 440.0727,1536.7031 L450.486,1536.7031 C450.5527,1536.7031 450.606,1536.6498 450.606,1536.5831 L450.606,1528.7031 L446.646,1528.7031 L446.646,1530.0765 L443.9393,1530.0765 L443.9393,1528.7031 L439.9393,1528.7031" fill="#58A6FF"/><text fill="#58A6FF" font-family="'Segoe UI, Inter, sans-serif'" font-size="16" font-weight="bold" lengthAdjust="spacing" textLength="197.1797" x="456.0334" y="1536.6875">ClinicManagementAPI.Api</text><text fill="#58A6FF" font-family="'Segoe UI, Inter, sans-serif'" font-size="16" font-weight="bold" lengthAdjust="spacing" textLength="59.0156" x="737.1949" y="1583.9688">&#171;Layer&#187;</text></g><!--cluster CORE--><g class="cluster" data-qualified-name="ClinicManagementAPI.slnx Solution.SRC_FOLDER.CORE" data-source-line="42" id="ent0014"><path d="M855.9527,1073.4219 L1093.2834,1073.4219 A9,9 0 0 1 1099.2834,1079.4219 L1106.2834,1120.7031 L1532.9527,1120.7031 A6,6 0 0 1 1538.9527,1126.7031 L1538.9527,1461.4219 A6,6 0 0 1 1532.9527,1467.4219 L855.9527,1467.4219 A6,6 0 0 1 849.9527,1461.4219 L849.9527,1079.4219 A6,6 0 0 1 855.9527,1073.4219" fill="#161B22" style="stroke:#30363D;stroke-width:1.5;"/><line style="stroke:#30363D;stroke-width:1.5;" x1="849.9527" x2="1106.2834" y1="1120.7031" y2="1120.7031"/><path d="M864.9527,1092.0365 L864.9527,1093.3698 L875.6193,1093.3698 L875.6193,1092.0365 L864.9527,1092.0365 M864.9527,1094.7031 L864.9527,1102.5831 C864.9527,1102.6498 865.006,1102.7031 865.0727,1102.7031 L875.486,1102.7031 C875.5527,1102.7031 875.606,1102.6498 875.606,1102.5831 L875.606,1094.7031 L871.646,1094.7031 L871.646,1096.0765 L868.9393,1096.0765 L868.9393,1094.7031 L864.9393,1094.7031" fill="#58A6FF"/><text fill="#58A6FF" font-family="'Segoe UI, Inter, sans-serif'" font-size="16" font-weight="bold" lengthAdjust="spacing" textLength="206.25" x="881.0334" y="1102.6875">ClinicManagementAPI.Core</text><text fill="#58A6FF" font-family="'Segoe UI, Inter, sans-serif'" font-size="16" font-weight="bold" lengthAdjust="spacing" textLength="59.0156" x="1168.9449" y="1149.9688">&#171;Layer&#187;</text></g><!--cluster TESTS_FOLDER--><g class="cluster" data-qualified-name="ClinicManagementAPI.slnx Solution.TESTS_FOLDER" data-source-line="49" id="ent0018"><path d="M1274.4527,433.4219 L1335.148,433.4219 A9,9 0 0 1 1341.148,439.4219 L1348.148,480.7031 L1588.4527,480.7031 A6,6 0 0 1 1594.4527,486.7031 L1594.4527,967.4219 A6,6 0 0 1 1588.4527,973.4219 L1274.4527,973.4219 A6,6 0 0 1 1268.4527,967.4219 L1268.4527,439.4219 A6,6 0 0 1 1274.4527,433.4219" fill="#161B22" style="stroke:#30363D;stroke-width:1.5;"/><line style="stroke:#30363D;stroke-width:1.5;" x1="1268.4527" x2="1348.148" y1="480.7031" y2="480.7031"/><text fill="#58A6FF" font-family="'Segoe UI, Inter, sans-serif'" font-size="16" font-weight="bold" lengthAdjust="spacing" textLength="46.6953" x="1282.4527" y="462.6875">tests /</text></g><!--cluster TESTS--><g class="cluster" data-qualified-name="ClinicManagementAPI.slnx Solution.TESTS_FOLDER.TESTS" data-source-line="50" id="ent0019"><path d="M1306.4527,509.4219 L1547.3303,509.4219 A9,9 0 0 1 1553.3303,515.4219 L1560.3303,556.7031 L1556.4527,556.7031 A6,6 0 0 1 1562.4527,562.7031 L1562.4527,935.4219 A6,6 0 0 1 1556.4527,941.4219 L1306.4527,941.4219 A6,6 0 0 1 1300.4527,935.4219 L1300.4527,515.4219 A6,6 0 0 1 1306.4527,509.4219" fill="#161B22" style="stroke:#30363D;stroke-width:1.5;"/><line style="stroke:#30363D;stroke-width:1.5;" x1="1300.4527" x2="1560.3303" y1="556.7031" y2="556.7031"/><path d="M1315.4527,528.0365 L1315.4527,529.3698 L1326.1193,529.3698 L1326.1193,528.0365 L1315.4527,528.0365 M1315.4527,530.7031 L1315.4527,538.5831 C1315.4527,538.6498 1315.506,538.7031 1315.5727,538.7031 L1325.986,538.7031 C1326.0527,538.7031 1326.106,538.6498 1326.106,538.5831 L1326.106,530.7031 L1322.146,530.7031 L1322.146,532.0765 L1319.4393,532.0765 L1319.4393,530.7031 L1315.4393,530.7031" fill="#58A6FF"/><text fill="#58A6FF" font-family="'Segoe UI, Inter, sans-serif'" font-size="16" font-weight="bold" lengthAdjust="spacing" textLength="209.7969" x="1331.5334" y="538.6875">ClinicManagementAPI.Tests</text><text fill="#58A6FF" font-family="'Segoe UI, Inter, sans-serif'" font-size="16" font-weight="bold" lengthAdjust="spacing" textLength="59.0156" x="1405.9449" y="585.9688">&#171;Layer&#187;</text></g><!--cluster External Infrastructure--><g class="cluster" data-qualified-name="External Infrastructure" data-source-line="58" id="ent0022"><polygon fill="#161B22" points="1751.4527,1165.4219,1761.4527,1155.4219,1995.4527,1155.4219,1995.4527,1505.4219,1985.4527,1515.4219,1751.4527,1515.4219,1751.4527,1165.4219" style="stroke:#30363D;stroke-width:1;"/><line style="stroke:#30363D;stroke-width:1;" x1="1985.4527" x2="1995.4527" y1="1165.4219" y2="1155.4219"/><line style="stroke:#30363D;stroke-width:1;" x1="1751.4527" x2="1985.4527" y1="1165.4219" y2="1165.4219"/><line style="stroke:#30363D;stroke-width:1;" x1="1985.4527" x2="1985.4527" y1="1165.4219" y2="1515.4219"/><text fill="#E6EDF3" font-family="'Segoe UI, Inter, sans-serif'" font-size="14" font-weight="bold" lengthAdjust="spacing" textLength="148.4287" x="1795.2383" y="1193.5293">External Infrastructure</text></g><!--entity CI--><g class="entity" data-qualified-name="GITHUB.CI" data-source-line="27" id="ent0003"><rect fill="#0D1117" height="107.2422" rx="6" ry="6" style="stroke:#58A6FF;stroke-width:1.5;" width="168.5335" x="25.9527" y="1965.9219"/><rect fill="#0D1117" height="10" style="stroke:#58A6FF;stroke-width:1.5;" width="15" x="174.4862" y="1970.9219"/><rect fill="#0D1117" height="2" style="stroke:#58A6FF;stroke-width:1.5;" width="4" x="172.4862" y="1972.9219"/><rect fill="#0D1117" height="2" style="stroke:#58A6FF;stroke-width:1.5;" width="4" x="172.4862" y="1976.9219"/><text fill="#E6EDF3" font-family="'Segoe UI, Inter, sans-serif'" font-size="14" font-style="italic" lengthAdjust="spacing" textLength="51.5293" x="79.4548" y="2011.0293">&#171;CI/CD&#187;</text><path d="M56.036,2040.3307 L55.4527,2041.7191 C55.336,2041.7541 55.231,2041.8124 55.126,2041.8707 L53.7377,2041.2874 L52.8977,2042.1274 L53.481,2043.5157 C53.4227,2043.6324 53.376,2043.7257 53.3293,2043.8424 L51.941,2044.4257 L51.941,2045.5924 L53.3293,2046.1757 C53.376,2046.2924 53.4227,2046.3857 53.481,2046.5024 L52.8977,2047.8907 L53.7377,2048.7307 L55.126,2048.1474 C55.231,2048.1941 55.336,2048.2524 55.4527,2048.2991 L56.036,2049.6874 L57.2027,2049.6874 L57.786,2048.2991 C57.891,2048.2524 58.0077,2048.2057 58.1127,2048.1474 L59.501,2048.7307 L60.341,2047.8907 L59.7577,2046.5024 C59.8043,2046.3974 59.8627,2046.2807 59.9093,2046.1757 L61.2977,2045.5924 L61.2977,2044.4257 L59.9093,2043.8424 C59.8743,2043.7374 59.816,2043.6207 59.7577,2043.5157 L60.341,2042.1274 L59.501,2041.2874 L58.1127,2041.8707 C58.0077,2041.8241 57.891,2041.7657 57.786,2041.7191 L57.2027,2040.3307 L56.036,2040.3307 M56.6193,2043.2474 C57.5877,2043.2474 58.3693,2044.0291 58.3693,2044.9974 C58.3693,2045.9657 57.5877,2046.7474 56.6193,2046.7474 C55.651,2046.7474 54.8693,2045.9657 54.8693,2044.9974 C54.8693,2044.0291 55.651,2043.2474 56.6193,2043.2474" fill="#58A6FF"/><text fill="#E6EDF3" font-family="'Segoe UI, Inter, sans-serif'" font-size="14" lengthAdjust="spacing" textLength="93.3652" x="66.121" y="2049.6504">GitHub Actions</text></g><g class="entity" data-qualified-name="GITHUB.GMN4" data-source-line="28" id="ent0005"><path d="M45.4527,1862.9219 L45.4527,1910.1836 A6,6 0 0 0 51.4527,1916.1836 L106.4527,1916.1836 L110.4527,1965.9119 L114.4527,1916.1836 L169.1187,1916.1836 A6,6 0 0 0 175.1187,1910.1836 L175.1187,1866.9219 L165.1187,1856.9219 L51.4527,1856.9219 A6,6 0 0 0 45.4527,1862.9219" fill="#21262D" style="stroke:#F85149;stroke-width:0.5;"/><path d="M165.1187,1856.9219 L165.1187,1863.9219 A3,3 0 0 0 168.1187,1866.9219 L175.1187,1866.9219 L165.1187,1856.9219" fill="#21262D" style="stroke:#F85149;stroke-width:0.5;"/><text fill="#C9D1D9" font-family="'Segoe UI, Inter, sans-serif'" font-size="11" lengthAdjust="spacing" textLength="72.8374" x="61.4527" y="1883.792">Build, Lint, Test</text><text fill="#C9D1D9" font-family="'Segoe UI, Inter, sans-serif'" font-size="11" lengthAdjust="spacing" textLength="88.666" x="61.4527" y="1898.4229">(dotnet build/test)</text></g><!--entity ENDP--><g class="entity" data-qualified-name="ClinicManagementAPI.slnx Solution.SRC_FOLDER.API.ENDP" data-source-line="36" id="ent0010"><rect fill="#0D1117" height="107.2422" rx="6" ry="6" style="stroke:#58A6FF;stroke-width:1.5;" width="254.1126" x="448.9527" y="1650.9219"/><rect fill="#0D1117" height="10" style="stroke:#58A6FF;stroke-width:1.5;" width="15" x="683.0653" y="1655.9219"/><rect fill="#0D1117" height="2" style="stroke:#58A6FF;stroke-width:1.5;" width="4" x="681.0653" y="1657.9219"/><rect fill="#0D1117" height="2" style="stroke:#58A6FF;stroke-width:1.5;" width="4" x="681.0653" y="1661.9219"/><text fill="#E6EDF3" font-family="'Segoe UI, Inter, sans-serif'" font-size="14" font-style="italic" lengthAdjust="spacing" textLength="88.6553" x="526.6813" y="1696.0293">&#171;Minimal API&#187;</text><path d="M479.6193,1725.3307 L479.3977,1725.4357 L475.3143,1727.1507 L474.9527,1727.3024 L474.9527,1727.6641 C474.9527,1729.6007 475.7343,1731.3041 476.6677,1732.5524 C477.1343,1733.1707 477.636,1733.6841 478.126,1734.0457 C478.616,1734.4074 479.0943,1734.6641 479.6193,1734.6641 C480.156,1734.6641 480.6227,1734.4074 481.1127,1734.0457 C481.6027,1733.6841 482.1043,1733.1707 482.571,1732.5524 C483.5043,1731.3041 484.286,1729.6007 484.286,1727.6641 L484.286,1727.3024 L483.9243,1727.1507 L479.841,1725.4357 L479.6193,1725.3307 M479.6193,1726.6024 L479.6193,1733.4974 C479.5727,1733.4974 479.2343,1733.4157 478.8493,1733.1357 C478.4643,1732.8557 478.021,1732.4007 477.6127,1731.8641 C476.866,1730.8724 476.2827,1729.4957 476.1893,1728.0374 L479.6193,1726.6141" fill="#F85149"/><text fill="#E6EDF3" font-family="'Segoe UI, Inter, sans-serif'" font-size="14" lengthAdjust="spacing" textLength="178.9443" x="489.121" y="1734.6504">Endpoints (Auth, Patient, etc)</text></g><!--entity EH--><g class="entity" data-qualified-name="ClinicManagementAPI.slnx Solution.SRC_FOLDER.API.EH" data-source-line="37" id="ent0011"><rect fill="#0D1117" height="107.2422" rx="6" ry="6" style="stroke:#58A6FF;stroke-width:1.5;" width="223.7064" x="852.4527" y="1650.9219"/><rect fill="#0D1117" height="10" style="stroke:#58A6FF;stroke-width:1.5;" width="15" x="1056.159" y="1655.9219"/><rect fill="#0D1117" height="2" style="stroke:#58A6FF;stroke-width:1.5;" width="4" x="1054.159" y="1657.9219"/><rect fill="#0D1117" height="2" style="stroke:#58A6FF;stroke-width:1.5;" width="4" x="1054.159" y="1661.9219"/><text fill="#E6EDF3" font-family="'Segoe UI, Inter, sans-serif'" font-size="14" font-style="italic" lengthAdjust="spacing" textLength="84.54" x="917.0358" y="1696.0293">&#171;Middleware&#187;</text><path d="M883.1193,1725.3307 L882.8977,1725.4357 L878.8143,1727.1507 L878.4527,1727.3024 L878.4527,1727.6641 C878.4527,1729.6007 879.2343,1731.3041 880.1677,1732.5524 C880.6343,1733.1707 881.136,1733.6841 881.626,1734.0457 C882.116,1734.4074 882.5943,1734.6641 883.1193,1734.6641 C883.656,1734.6641 884.1227,1734.4074 884.6127,1734.0457 C885.1027,1733.6841 885.6043,1733.1707 886.071,1732.5524 C887.0043,1731.3041 887.786,1729.6007 887.786,1727.6641 L887.786,1727.3024 L887.4243,1727.1507 L883.341,1725.4357 L883.1193,1725.3307 M883.1193,1726.6024 L883.1193,1733.4974 C883.0727,1733.4974 882.7343,1733.4157 882.3493,1733.1357 C881.9643,1732.8557 881.521,1732.4007 881.1127,1731.8641 C880.366,1730.8724 879.7827,1729.4957 879.6893,1728.0374 L883.1193,1726.6141" fill="#F85149"/><text fill="#E6EDF3" font-family="'Segoe UI, Inter, sans-serif'" font-size="14" lengthAdjust="spacing" textLength="148.5381" x="892.621" y="1734.6504">GlobalExceptionHandler</text></g><!--entity MW--><g class="entity" data-qualified-name="ClinicManagementAPI.slnx Solution.SRC_FOLDER.API.MW" data-source-line="38" id="ent0012"><rect fill="#0D1117" height="107.2422" rx="6" ry="6" style="stroke:#58A6FF;stroke-width:1.5;" width="167.6175" x="491.9527" y="1964.9219"/><rect fill="#0D1117" height="10" style="stroke:#58A6FF;stroke-width:1.5;" width="15" x="639.5702" y="1969.9219"/><rect fill="#0D1117" height="2" style="stroke:#58A6FF;stroke-width:1.5;" width="4" x="637.5702" y="1971.9219"/><rect fill="#0D1117" height="2" style="stroke:#58A6FF;stroke-width:1.5;" width="4" x="637.5702" y="1975.9219"/><text fill="#E6EDF3" font-family="'Segoe UI, Inter, sans-serif'" font-size="14" font-style="italic" lengthAdjust="spacing" textLength="84.54" x="528.4914" y="2010.0293">&#171;Middleware&#187;</text><path d="M522.6193,2039.3307 L522.3977,2039.4357 L518.3143,2041.1507 L517.9527,2041.3024 L517.9527,2041.6641 C517.9527,2043.6007 518.7343,2045.3041 519.6677,2046.5524 C520.1343,2047.1707 520.636,2047.6841 521.126,2048.0457 C521.616,2048.4074 522.0943,2048.6641 522.6193,2048.6641 C523.156,2048.6641 523.6227,2048.4074 524.1127,2048.0457 C524.6027,2047.6841 525.1043,2047.1707 525.571,2046.5524 C526.5043,2045.3041 527.286,2043.6007 527.286,2041.6641 L527.286,2041.3024 L526.9243,2041.1507 L522.841,2039.4357 L522.6193,2039.3307 M522.6193,2040.6024 L522.6193,2047.4974 C522.5727,2047.4974 522.2343,2047.4157 521.8493,2047.1357 C521.4643,2046.8557 521.021,2046.4007 520.6127,2045.8641 C519.866,2044.8724 519.2827,2043.4957 519.1893,2042.0374 L522.6193,2040.6141" fill="#F85149"/><text fill="#E6EDF3" font-family="'Segoe UI, Inter, sans-serif'" font-size="14" lengthAdjust="spacing" textLength="92.4492" x="532.121" y="2048.6504">JwtMiddleware</text></g><!--entity SCALAR--><g class="entity" data-qualified-name="ClinicManagementAPI.slnx Solution.SRC_FOLDER.API.SCALAR" data-source-line="39" id="ent0013"><rect fill="#0D1117" height="107.2422" rx="6" ry="6" style="stroke:#58A6FF;stroke-width:1.5;" width="129.8467" x="510.9527" y="1807.9219"/><rect fill="#0D1117" height="10" style="stroke:#58A6FF;stroke-width:1.5;" width="15" x="620.7993" y="1812.9219"/><rect fill="#0D1117" height="2" style="stroke:#58A6FF;stroke-width:1.5;" width="4" x="618.7993" y="1814.9219"/><rect fill="#0D1117" height="2" style="stroke:#58A6FF;stroke-width:1.5;" width="4" x="618.7993" y="1818.9219"/><text fill="#E6EDF3" font-family="'Segoe UI, Inter, sans-serif'" font-size="14" font-style="italic" lengthAdjust="spacing" textLength="67.8467" x="536.9527" y="1853.0293">&#171;OpenAPI&#187;</text><path d="M538.6651,1882.3307 C538.5834,1882.3307 538.5134,1882.3424 538.4434,1882.3657 C537.9884,1882.4591 537.6267,1882.8207 537.5334,1883.2757 C537.4984,1883.3457 537.4984,1883.4157 537.4984,1883.4974 L537.4984,1889.9141 C537.4984,1890.8824 538.2801,1891.6641 539.2484,1891.6641 L545.6651,1891.6641 L545.6651,1890.4974 L539.2484,1890.4974 C538.9217,1890.4974 538.6651,1890.2407 538.6651,1889.9141 C538.6651,1889.5874 538.9217,1889.3307 539.2484,1889.3307 L545.6651,1889.3307 L545.6651,1882.9141 C545.6651,1882.5874 545.4084,1882.3307 545.0817,1882.3307 L544.4984,1882.3307 L544.4984,1885.8307 L543.3317,1884.6641 L542.1651,1885.8307 L542.1651,1882.3307 L538.6651,1882.3307" fill="#3FB950"/><text fill="#E6EDF3" font-family="'Segoe UI, Inter, sans-serif'" font-size="14" lengthAdjust="spacing" textLength="53.5869" x="551.6667" y="1891.6504">Scalar UI</text></g><!--entity SVC--><g class="entity" data-qualified-name="ClinicManagementAPI.slnx Solution.SRC_FOLDER.CORE.SVC" data-source-line="43" id="ent0015"><rect fill="#0D1117" height="107.2422" rx="6" ry="6" style="stroke:#58A6FF;stroke-width:1.5;" width="180.8587" x="873.9527" y="1216.9219"/><rect fill="#0D1117" height="10" style="stroke:#58A6FF;stroke-width:1.5;" width="15" x="1034.8114" y="1221.9219"/><rect fill="#0D1117" height="2" style="stroke:#58A6FF;stroke-width:1.5;" width="4" x="1032.8114" y="1223.9219"/><rect fill="#0D1117" height="2" style="stroke:#58A6FF;stroke-width:1.5;" width="4" x="1032.8114" y="1227.9219"/><text fill="#E6EDF3" font-family="'Segoe UI, Inter, sans-serif'" font-size="14" font-style="italic" lengthAdjust="spacing" textLength="61.8379" x="928.4631" y="1262.0293">&#171;Services&#187;</text><path d="M904.036,1291.3307 L903.4527,1292.7191 C903.336,1292.7541 903.231,1292.8124 903.126,1292.8707 L901.7377,1292.2874 L900.8977,1293.1274 L901.481,1294.5157 C901.4227,1294.6324 901.376,1294.7257 901.3293,1294.8424 L899.941,1295.4257 L899.941,1296.5924 L901.3293,1297.1757 C901.376,1297.2924 901.4227,1297.3857 901.481,1297.5024 L900.8977,1298.8907 L901.7377,1299.7307 L903.126,1299.1474 C903.231,1299.1941 903.336,1299.2524 903.4527,1299.2991 L904.036,1300.6874 L905.2027,1300.6874 L905.786,1299.2991 C905.891,1299.2524 906.0077,1299.2057 906.1127,1299.1474 L907.501,1299.7307 L908.341,1298.8907 L907.7577,1297.5024 C907.8043,1297.3974 907.8627,1297.2807 907.9093,1297.1757 L909.2977,1296.5924 L909.2977,1295.4257 L907.9093,1294.8424 C907.8743,1294.7374 907.816,1294.6207 907.7577,1294.5157 L908.341,1293.1274 L907.501,1292.2874 L906.1127,1292.8707 C906.0077,1292.8241 905.891,1292.7657 905.786,1292.7191 L905.2027,1291.3307 L904.036,1291.3307 M904.6193,1294.2474 C905.5877,1294.2474 906.3693,1295.0291 906.3693,1295.9974 C906.3693,1296.9657 905.5877,1297.7474 904.6193,1297.7474 C903.651,1297.7474 902.8693,1296.9657 902.8693,1295.9974 C902.8693,1295.0291 903.651,1294.2474 904.6193,1294.2474" fill="#3FB950"/><text fill="#E6EDF3" font-family="'Segoe UI, Inter, sans-serif'" font-size="14" lengthAdjust="spacing" textLength="105.6904" x="914.121" y="1300.6504">Business Services</text></g><!--entity DATA--><g class="entity" data-qualified-name="ClinicManagementAPI.slnx Solution.SRC_FOLDER.CORE.DATA" data-source-line="44" id="ent0016"><rect fill="#0D1117" height="107.2422" rx="6" ry="6" style="stroke:#58A6FF;stroke-width:1.5;" width="166.7357" x="1347.9527" y="1216.9219"/><rect fill="#0D1117" height="10" style="stroke:#58A6FF;stroke-width:1.5;" width="15" x="1494.6883" y="1221.9219"/><rect fill="#0D1117" height="2" style="stroke:#58A6FF;stroke-width:1.5;" width="4" x="1492.6883" y="1223.9219"/><rect fill="#0D1117" height="2" style="stroke:#58A6FF;stroke-width:1.5;" width="4" x="1492.6883" y="1227.9219"/><text fill="#E6EDF3" font-family="'Segoe UI, Inter, sans-serif'" font-size="14" font-style="italic" lengthAdjust="spacing" textLength="81.0469" x="1385.7971" y="1262.0293">&#171;Persistence&#187;</text><path d="M1374.1743,1291.3307 C1374.046,1291.3307 1373.9527,1291.4241 1373.9527,1291.5524 L1373.9527,1295.4141 C1373.9527,1295.7407 1374.2093,1295.9974 1374.536,1295.9974 L1381.536,1295.9974 C1381.8627,1295.9974 1382.1193,1295.7407 1382.1193,1295.4141 L1382.1193,1291.5524 C1382.1193,1291.4241 1382.026,1291.3307 1381.8977,1291.3307 L1374.1627,1291.3307 M1373.9527,1297.0591 L1373.9527,1300.4541 C1373.9527,1300.5824 1374.046,1300.6757 1374.1743,1300.6757 L1381.9093,1300.6757 C1382.0377,1300.6757 1382.131,1300.5824 1382.131,1300.4541 L1382.131,1297.0591 C1381.9443,1297.1291 1381.7577,1297.1641 1381.5477,1297.1641 L1374.5477,1297.1641 C1374.3377,1297.1641 1374.151,1297.1174 1373.9643,1297.0591 M1380.3693,1298.3307 C1380.696,1298.3307 1380.9527,1298.5874 1380.9527,1298.9141 C1380.9527,1299.2407 1380.696,1299.4974 1380.3693,1299.4974 C1380.0427,1299.4974 1379.786,1299.2407 1379.786,1298.9141 C1379.786,1298.5874 1380.0427,1298.3307 1380.3693,1298.3307" fill="#D29922"/><text fill="#E6EDF3" font-family="'Segoe UI, Inter, sans-serif'" font-size="14" lengthAdjust="spacing" textLength="91.5674" x="1388.121" y="1300.6504">AppDbContext</text></g><!--entity DTO_MOD--><g class="entity" data-qualified-name="ClinicManagementAPI.slnx Solution.SRC_FOLDER.CORE.DTO_MOD" data-source-line="45" id="ent0017"><rect fill="#0D1117" height="68.6211" rx="6" ry="6" style="stroke:#58A6FF;stroke-width:1.5;" width="158.1914" x="885.4527" y="1373.9219"/><rect fill="#0D1117" height="10" style="stroke:#58A6FF;stroke-width:1.5;" width="15" x="1023.6441" y="1378.9219"/><rect fill="#0D1117" height="2" style="stroke:#58A6FF;stroke-width:1.5;" width="4" x="1021.6441" y="1380.9219"/><rect fill="#0D1117" height="2" style="stroke:#58A6FF;stroke-width:1.5;" width="4" x="1021.6441" y="1384.9219"/><text fill="#E6EDF3" font-family="'Segoe UI, Inter, sans-serif'" font-size="14" lengthAdjust="spacing" textLength="98.1914" x="910.4527" y="1419.0293">DTOs &amp; Models</text></g><!--entity UT--><g class="entity" data-qualified-name="ClinicManagementAPI.slnx Solution.TESTS_FOLDER.TESTS.UT" data-source-line="51" id="ent0020"><rect fill="#0D1117" height="107.2422" rx="6" ry="6" style="stroke:#58A6FF;stroke-width:1.5;" width="120.792" x="1370.9527" y="775.9219"/><rect fill="#0D1117" height="10" style="stroke:#58A6FF;stroke-width:1.5;" width="15" x="1471.7447" y="780.9219"/><rect fill="#0D1117" height="2" style="stroke:#58A6FF;stroke-width:1.5;" width="4" x="1469.7447" y="782.9219"/><rect fill="#0D1117" height="2" style="stroke:#58A6FF;stroke-width:1.5;" width="4" x="1469.7447" y="786.9219"/><text fill="#E6EDF3" font-family="'Segoe UI, Inter, sans-serif'" font-size="14" font-style="italic" lengthAdjust="spacing" textLength="46.4297" x="1403.1338" y="821.0293">&#171;xUnit&#187;</text><text fill="#E6EDF3" font-family="'Segoe UI, Inter, sans-serif'" font-size="14" lengthAdjust="spacing" textLength="60.792" x="1395.9527" y="859.6504">Unit Tests</text></g><!--entity IT--><g class="entity" data-qualified-name="ClinicManagementAPI.slnx Solution.TESTS_FOLDER.TESTS.IT" data-source-line="52" id="ent0021"><rect fill="#0D1117" height="107.2422" rx="6" ry="6" style="stroke:#58A6FF;stroke-width:1.5;" width="128.209" x="1367.4527" y="618.9219"/><rect fill="#0D1117" height="10" style="stroke:#58A6FF;stroke-width:1.5;" width="15" x="1475.6616" y="623.9219"/><rect fill="#0D1117" height="2" style="stroke:#58A6FF;stroke-width:1.5;" width="4" x="1473.6616" y="625.9219"/><rect fill="#0D1117" height="2" style="stroke:#58A6FF;stroke-width:1.5;" width="4" x="1473.6616" y="629.9219"/><text fill="#E6EDF3" font-family="'Segoe UI, Inter, sans-serif'" font-size="14" font-style="italic" lengthAdjust="spacing" textLength="46.4297" x="1403.3423" y="664.0293">&#171;xUnit&#187;</text><text fill="#E6EDF3" font-family="'Segoe UI, Inter, sans-serif'" font-size="14" lengthAdjust="spacing" textLength="68.209" x="1392.4527" y="702.6504">Integration</text></g><!--entity DB--><g class="entity" data-qualified-name="External Infrastructure.DB" data-source-line="59" id="ent0023"><path d="M1812.4527,1227.4219 C1812.4527,1217.4219 1873.5056,1217.4219 1873.5056,1217.4219 C1873.5056,1217.4219 1934.5585,1217.4219 1934.5585,1227.4219 L1934.5585,1313.6641 C1934.5585,1323.6641 1873.5056,1323.6641 1873.5056,1323.6641 C1873.5056,1323.6641 1812.4527,1323.6641 1812.4527,1313.6641 L1812.4527,1227.4219" fill="#0D1117" style="stroke:#D29922;stroke-width:0.5;"/><path d="M1812.4527,1227.4219 C1812.4527,1237.4219 1873.5056,1237.4219 1873.5056,1237.4219 C1873.5056,1237.4219 1934.5585,1237.4219 1934.5585,1227.4219" fill="none" style="stroke:#D29922;stroke-width:0.5;"/><text fill="#E6EDF3" font-family="'Segoe UI, Inter, sans-serif'" font-size="14" font-style="italic" lengthAdjust="spacing" textLength="71.5859" x="1837.7126" y="1266.5293">&#171;Database&#187;</text><path d="M1833.6743,1295.8307 C1833.546,1295.8307 1833.4527,1295.9241 1833.4527,1296.0524 L1833.4527,1299.9141 C1833.4527,1300.2407 1833.7093,1300.4974 1834.036,1300.4974 L1841.036,1300.4974 C1841.3627,1300.4974 1841.6193,1300.2407 1841.6193,1299.9141 L1841.6193,1296.0524 C1841.6193,1295.9241 1841.526,1295.8307 1841.3977,1295.8307 L1833.6627,1295.8307 M1833.4527,1301.5591 L1833.4527,1304.9541 C1833.4527,1305.0824 1833.546,1305.1757 1833.6743,1305.1757 L1841.4093,1305.1757 C1841.5377,1305.1757 1841.631,1305.0824 1841.631,1304.9541 L1841.631,1301.5591 C1841.4443,1301.6291 1841.2577,1301.6641 1841.0477,1301.6641 L1834.0477,1301.6641 C1833.8377,1301.6641 1833.651,1301.6174 1833.4643,1301.5591 M1839.8693,1302.8307 C1840.196,1302.8307 1840.4527,1303.0874 1840.4527,1303.4141 C1840.4527,1303.7407 1840.196,1303.9974 1839.8693,1303.9974 C1839.5427,1303.9974 1839.286,1303.7407 1839.286,1303.4141 C1839.286,1303.0874 1839.5427,1302.8307 1839.8693,1302.8307" fill="#D29922"/><text fill="#E6EDF3" font-family="'Segoe UI, Inter, sans-serif'" font-size="14" lengthAdjust="spacing" textLength="66.9375" x="1847.621" y="1305.1504">SQL Server</text></g><!--entity IDENTITY--><g class="entity" data-qualified-name="External Infrastructure.IDENTITY" data-source-line="60" id="ent0024"><rect fill="#0D1117" height="125.8633" rx="6" ry="6" style="stroke:#58A6FF;stroke-width:1.5;" width="160.2962" x="1793.4527" y="1373.4219"/><rect fill="#0D1117" height="10" style="stroke:#58A6FF;stroke-width:1.5;" width="15" x="1933.7489" y="1378.4219"/><rect fill="#0D1117" height="2" style="stroke:#58A6FF;stroke-width:1.5;" width="4" x="1931.7489" y="1380.4219"/><rect fill="#0D1117" height="2" style="stroke:#58A6FF;stroke-width:1.5;" width="4" x="1931.7489" y="1384.4219"/><text fill="#E6EDF3" font-family="'Segoe UI, Inter, sans-serif'" font-size="14" font-style="italic" lengthAdjust="spacing" textLength="64.9961" x="1836.1027" y="1418.5293">&#171;Package&#187;</text><path d="M1824.1193,1447.8307 L1823.8977,1447.9357 L1819.8143,1449.6507 L1819.4527,1449.8024 L1819.4527,1450.1641 C1819.4527,1452.1007 1820.2343,1453.8041 1821.1677,1455.0524 C1821.6343,1455.6707 1822.136,1456.1841 1822.626,1456.5457 C1823.116,1456.9074 1823.5943,1457.1641 1824.1193,1457.1641 C1824.656,1457.1641 1825.1227,1456.9074 1825.6127,1456.5457 C1826.1027,1456.1841 1826.6043,1455.6707 1827.071,1455.0524 C1828.0043,1453.8041 1828.786,1452.1007 1828.786,1450.1641 L1828.786,1449.8024 L1828.4243,1449.6507 L1824.341,1447.9357 L1824.1193,1447.8307 M1824.1193,1449.1024 L1824.1193,1455.9974 C1824.0727,1455.9974 1823.7343,1455.9157 1823.3493,1455.6357 C1822.9643,1455.3557 1822.521,1454.9007 1822.1127,1454.3641 C1821.366,1453.3724 1820.7827,1451.9957 1820.6893,1450.5374 L1824.1193,1449.1141" fill="#A371F7"/><text fill="#E6EDF3" font-family="'Segoe UI, Inter, sans-serif'" font-size="14" lengthAdjust="spacing" textLength="85.1279" x="1833.621" y="1457.1504">ASP.NET Core</text><text fill="#E6EDF3" font-family="'Segoe UI, Inter, sans-serif'" font-size="14" lengthAdjust="spacing" textLength="46.8672" x="1818.4527" y="1475.7715">Identity</text></g><!--entity CLIENT--><g class="entity" data-qualified-name="CLIENT" data-source-line="64" id="ent0025"><ellipse cx="576.1846" cy="265.9219" fill="#3FB950" rx="16" ry="16" style="stroke:#3FB950;stroke-width:0.5;"/><path d="M576.1846,285.9219 C580.1846,285.9219 583.1846,285.9219 587.1846,281.9219 C595.1846,281.9219 603.1846,289.9219 603.1846,297.9219 L603.1846,301.9219 C603.1846,305.9219 599.1846,309.9219 595.1846,309.9219 L557.1846,309.9219 C553.1846,309.9219 549.1846,305.9219 549.1846,301.9219 L549.1846,297.9219 C549.1846,289.9219 557.1846,281.9219 565.1846,281.9219 C569.1846,285.9219 572.1846,285.9219 576.1846,285.9219" fill="#3FB950"/><text fill="#0D1117" font-family="'Segoe UI, Inter, sans-serif'" font-size="14" lengthAdjust="spacing" textLength="116.4639" x="517.9527" y="335.5293">Web/Mobile Client</text></g><!--entity DEV--><g class="entity" data-qualified-name="DEV" data-source-line="65" id="ent0026"><ellipse cx="576.0415" cy="115.9219" fill="#3FB950" rx="16" ry="16" style="stroke:#3FB950;stroke-width:0.5;"/><path d="M576.0415,135.9219 C580.0415,135.9219 583.0415,135.9219 587.0415,131.9219 C595.0415,131.9219 603.0415,139.9219 603.0415,147.9219 L603.0415,151.9219 C603.0415,155.9219 599.0415,159.9219 595.0415,159.9219 L557.0415,159.9219 C553.0415,159.9219 549.0415,155.9219 549.0415,151.9219 L549.0415,147.9219 C549.0415,139.9219 557.0415,131.9219 565.0415,131.9219 C569.0415,135.9219 572.0415,135.9219 576.0415,135.9219" fill="#3FB950"/><text fill="#0D1117" font-family="'Segoe UI, Inter, sans-serif'" font-size="14" lengthAdjust="spacing" textLength="63.1777" x="544.4527" y="185.5293">Developer</text></g><!--link CI to API--><g class="link" data-entity-1="ent0003" data-entity-2="ent0009" data-link-type="dependency" data-source-line="70" id="lnk27"><path d="M195.1527,1970.4419 C251.7227,1932.0219 321.6027,1872.8319 352.9527,1799.4219 C360.3327,1782.1319 348.2827,1644.3119 360.9527,1630.4219 C376.8802,1612.9594 397.9289,1602.275 420.6136,1596.0902 C422.0314,1595.7036 417.6295,1596.7688 419.0592,1596.4169" fill="none" id="CI-to-API" style="stroke:#39C5CF;stroke-width:1.5;"/><polygon fill="#39C5CF" points="424.8853,1594.9827,415.1901,1593.2499,420.0302,1596.1778,417.1023,1601.018,424.8853,1594.9827" style="stroke:#39C5CF;stroke-width:1.5;"/><text fill="#C9D1D9" font-family="'Segoe UI, Inter, sans-serif'" font-size="12" lengthAdjust="spacing" textLength="59.5781" x="260.2398" y="1786.3711">(1) Deploys</text></g><!--link CI to TESTS--><g class="link" data-entity-1="ent0003" data-entity-2="ent0019" data-link-type="dependency" data-source-line="73" id="lnk28"><path d="M195.1627,2061.1619 C386.1427,2149.7719 857.4827,2329.9619 1116.4527,2092.4219 C1327.2227,1899.0819 1217.8027,1747.3319 1252.4527,1463.4219 C1256.0527,1433.9619 1251.6327,1224.7619 1260.4527,1196.4219 C1280.8227,1131.0169 1322.3227,1066.2844 1359.2189,1017.4069 C1377.667,992.9681 1394.9642,972.4931 1407.8938,957.8797 C1411.1261,954.2263 1414.0855,950.9393 1416.7217,948.0483 C1418.0398,946.6028 1419.2771,945.2563 1420.4272,944.0125 C1421.0023,943.3906 1421.5557,942.7944 1422.0864,942.2243 C1422.2191,942.0818 1418.2582,946.3289 1418.3881,946.1896" fill="none" id="CI-to-TESTS" style="stroke:#3FB950;stroke-width:1.5;"/><polygon fill="#3FB950" points="1422.4802,941.8016,1413.4167,945.6555,1419.0701,945.4583,1419.2674,951.1117,1422.4802,941.8016" style="stroke:#3FB950;stroke-width:1.5;"/><text fill="#C9D1D9" font-family="'Segoe UI, Inter, sans-serif'" font-size="12" lengthAdjust="spacing" textLength="62.6191" x="745.7398" y="2194.3711">(2) Executes</text></g><!--link CLIENT to ENDP--><g class="link" data-entity-1="ent0025" data-entity-2="ent0010" data-link-type="dependency" data-source-line="76" id="lnk29"><path d="M547.2627,349.4819 C486.0727,459.4919 344.3127,732.4019 294.9527,981.9219 C237.3627,1273.0719 168.3927,1420.5919 360.9527,1646.4219 C383.1527,1672.4619 409.8889,1685.9386 442.9689,1694.3786" fill="none" id="CLIENT-to-ENDP" style="stroke:#58A6FF;stroke-width:1.5;"/><polygon fill="#58A6FF" points="448.7827,1695.8619,441.0509,1689.7611,443.9379,1694.6258,439.0732,1697.5127,448.7827,1695.8619" style="stroke:#58A6FF;stroke-width:1.5;"/><text fill="#C9D1D9" font-family="'Segoe UI, Inter, sans-serif'" font-size="12" lengthAdjust="spacing" textLength="85.7754" x="247.2398" y="1005.8711">(3) API Requests</text></g><!--link DEV to SCALAR--><g class="link" data-entity-1="ent0026" data-entity-2="ent0013" data-link-type="dependency" data-source-line="79" id="lnk30"><path d="M534.4027,150.7919 C484.2327,154.9119 401.5327,170.1119 360.9527,224.4219 C162.5927,489.8819 296.9527,1382.6319 288.9527,1713.9219 C288.5527,1730.3619 279.9527,1737.1619 288.9527,1750.9219 C337.1027,1824.5419 436.1849,1848.4614 504.9449,1856.6614" fill="none" id="DEV-to-SCALAR" style="stroke:#3FB950;stroke-width:1.5;"/><polygon fill="#3FB950" points="510.9027,1857.3719,502.4397,1852.3343,505.9378,1856.7798,501.4923,1860.278,510.9027,1857.3719" style="stroke:#3FB950;stroke-width:1.5;"/><text fill="#C9D1D9" font-family="'Segoe UI, Inter, sans-serif'" font-size="12" lengthAdjust="spacing" textLength="97.5059" x="241.2398" y="1737.8711">(4) Views OpenAPI</text></g><!--link ENDP to EH--><g class="link" data-entity-1="ent0010" data-entity-2="ent0011" data-link-type="dependency" data-source-line="82" id="lnk31"><path d="M702.9727,1704.4219 C751.1027,1704.4219 799.5927,1704.4219 846.2527,1704.4219" fill="none" id="ENDP-to-EH" style="stroke:#F85149;stroke-width:1.5;"/><polygon fill="#F85149" points="852.2527,1704.4219,843.2527,1700.4219,847.2527,1704.4219,843.2527,1708.4219,852.2527,1704.4219" style="stroke:#F85149;stroke-width:1.5;"/><text fill="#C9D1D9" font-family="'Segoe UI, Inter, sans-serif'" font-size="12" lengthAdjust="spacing" textLength="69.9082" x="742.2398" y="1691.3711">(5) Throws Ex</text></g><!--link ENDP to SVC--><g class="link" data-entity-1="ent0010" data-entity-2="ent0015" data-link-type="dependency" data-source-line="85" id="lnk32"><path d="M698.5227,1650.7019 C700.0427,1649.3119 701.5227,1647.8819 702.9527,1646.4219 C804.3727,1543.2419 738.4027,1457.0519 833.9527,1348.4219 C845.3027,1335.5119 854.3578,1327.456 868.9378,1317.626" fill="none" id="ENDP-to-SVC" style="stroke:#58A6FF;stroke-width:1.5;"/><polygon fill="#58A6FF" points="873.9127,1314.2719,864.2142,1315.9865,869.7669,1317.067,868.6864,1322.6197,873.9127,1314.2719" style="stroke:#58A6FF;stroke-width:1.5;"/><text fill="#C9D1D9" font-family="'Segoe UI, Inter, sans-serif'" font-size="12" lengthAdjust="spacing" textLength="50.8652" x="751.7398" y="1348.3711">(6) Injects</text></g><!--link SVC to DATA--><g class="link" data-entity-1="ent0015" data-entity-2="ent0016" data-link-type="dependency" data-source-line="88" id="lnk33"><path d="M1055.0927,1288.3519 C1077.6327,1292.1119 1101.8527,1295.5219 1124.4527,1297.4219 C1181.1427,1302.2019 1195.7227,1301.7019 1252.4527,1297.4219 C1283.7727,1295.0619 1312.0183,1291.3417 1341.9583,1286.5417" fill="none" id="SVC-to-DATA" style="stroke:#D29922;stroke-width:1.5;"/><polygon fill="#D29922" points="1347.8827,1285.5919,1338.3629,1283.067,1342.9457,1286.3834,1339.6293,1290.9661,1347.8827,1285.5919" style="stroke:#D29922;stroke-width:1.5;"/><text fill="#C9D1D9" font-family="'Segoe UI, Inter, sans-serif'" font-size="12" lengthAdjust="spacing" textLength="56.4141" x="1160.7398" y="1284.3711">(7) Persists</text></g><!--link DATA to DB--><g class="link" data-entity-1="ent0016" data-entity-2="ent0023" data-link-type="dependency" data-source-line="91" id="lnk34"><path d="M1514.9527,1270.4219 C1601.4227,1270.4219 1729.2027,1270.4219 1806.2327,1270.4219" fill="none" id="DATA-to-DB" style="stroke:#A371F7;stroke-width:1.5;"/><polygon fill="#A371F7" points="1812.2327,1270.4219,1803.2327,1266.4219,1807.2327,1270.4219,1803.2327,1274.4219,1812.2327,1270.4219" style="stroke:#A371F7;stroke-width:1.5;"/><text fill="#C9D1D9" font-family="'Segoe UI, Inter, sans-serif'" font-size="12" lengthAdjust="spacing" textLength="73.3477" x="1648.7398" y="1257.3711">(8) EF Core 10</text></g><!--reverse link CORE to UT--><g class="link" data-entity-1="ent0014" data-entity-2="ent0020" data-link-type="dependency" data-source-line="94" id="lnk36"><path d="M1047.9335,1068.8178 C1048.7326,1067.9443 1046.6869,1070.1913 1047.4955,1069.3113 C1050.7302,1065.7914 1054.0409,1062.2214 1057.4239,1058.6094 C1111.5527,1000.8169 1184.2077,932.2719 1260.4527,886.4219 C1294.4627,865.9719 1336.7627,851.7519 1370.6627,842.6319" fill="none" id="CORE-backto-UT" style="stroke:#F85149;stroke-width:1.5;stroke-dasharray:7,7;"/><polygon fill="#F85149" points="1043.8888,1073.2495,1052.9104,1069.2985,1047.2594,1069.5565,1047.0014,1063.9055,1043.8888,1073.2495" style="stroke:#F85149;stroke-width:1.5;"/><text fill="#C9D1D9" font-family="'Segoe UI, Inter, sans-serif'" font-size="12" lengthAdjust="spacing" textLength="99.5508" x="1138.7398" y="879.3711">(9) Tests via Mocks</text></g><!--reverse link API to IT--><g class="link" data-entity-1="ent0009" data-entity-2="ent0021" data-link-type="dependency" data-source-line="95" id="lnk38"><path d="M608.1644,1500.6189 C609.0665,1497.9661 608.0574,1500.9506 609.0008,1498.2132 C610.8874,1492.7383 612.8562,1487.0976 614.907,1481.3049 C623.11,1458.1339 632.6239,1432.53 643.4302,1405.3744 C686.6552,1296.7519 750.5577,1163.3019 833.9527,1061.4219 C985.0927,876.7819 1247.3827,749.4419 1367.3227,697.9519" fill="none" id="API-backto-IT" style="stroke:#F85149;stroke-width:1.5;stroke-dasharray:7,7;"/><polygon fill="#F85149" points="606.2325,1506.2994,612.9173,1499.0665,607.8424,1501.5656,605.3433,1496.4907,606.2325,1506.2994" style="stroke:#F85149;stroke-width:1.5;"/><text fill="#C9D1D9" font-family="'Segoe UI, Inter, sans-serif'" font-size="12" lengthAdjust="spacing" textLength="146.6953" x="891.2398" y="816.3711">(10) WebApplicationFactory</text></g><g class="footer" data-source-line="18"><text fill="#E6EDF3" font-family="'Segoe UI, Inter, sans-serif'" font-size="10" lengthAdjust="spacing" textLength="222.0361" x="888.2083" y="2356.7529">Sprint 6 &#8212; Final Polish, Restructure &amp; Deployment</text></g><?plantuml-src hLRjRjis5FslfxXrW2u6uiyqJXsa1cH9RZpOjMVPBOQr26I9iRdGf2PHiOsXm1vYJxWdsIKfMMwRRltAZoObUSwzz_3UG_q4jM_xiNw20MNa2aAnYGKdNDRZRCDm-Ti9fraIYvG0m1Ku1ItyyzVV68e73EmaN5D9Gfab1BPKhY5DmWO4F099KfasW0LxaKca6WLxaW1eAbU4APmkngCgRjYPN8l4R8p5EjYG26n6SST9I23nVsgdtMntQitpMgkB6twSKCn3RtHqEbF1QBg6fp33i4cc4_gEogqd4RcZdC32zswTXJ-VZ6_dDzxOivvG7h8i8b2lDqB1x-YgaSez8qPhIrB9oFzBDNaWoGCbMpZDI-bKBKptnOiNS4E2Y2IDWH0IzS8LQwrNm66Kqn360GzMPAF8_NqgoGPgZtDRTuQYY72KYr7hx5WibCubCHDxnLpaCjAN1pwHal9LghDXv4w2593GrLf2H1CCImMtqdlAuo09Di15H58ImqNpQ349-7s-c9DxEymEisaumxmv57t8H1P1vJeKJ2HN9rx7SmVdlUkdUhrttT3hFNX9vKss12yKgHQX0a4ABuVpcqKVJbgTLh_TXZyjrI67QIX9BvxRdS50aOhL9vIsBYVLX9ZPzJN-st1SwFNWfEcsMgrBJSjHMrWAASK6n1sUkO9-Hbbq1YDK-mpcAErRVXe9oOc4fTfgg96eMkyB0UmuPZGCLBZYAfK2SH3Uumr3nLnuUT_sT5XF6T-1BrYcK9KY8onL9tM0uXH2GvVWpvpRmMJaUhDSZm_EVQB8KknAHHvBm8wfviM_bJRcub2RalmpeW-UNxIUTJ54kgQ47LsbnwDOe6Re2CeApc2AaX2b8P5XLGVpNhbJ5MsC-MpKB67mNk-R8xvaOXamRnUIMCbuWtR5I68YtPWu4Qvi0noBxmZpyrQMH9fz_EQhsSy7_Uv5Kz-Ck2-v_J1WGGABeRbannxPCyKzYGd_I9ttre-uTqVaDJYJcVTrDtyeuODnwsSf6coAoIkx2ecPEF-reyYBjIyGo6rtk-qsig-39Af52NqWPH0SCNVf22x9Jcf-rvxRAi2K92d5aUFXVrs2Ev-aQ8nZD3HcyiELs_74FHBtIEA3lFhjomTmxlbp_uUEeBAMjEJ-iijOS2gXH2xc2hRJgv-lVuZ2hPB0U0sYXe-Z2X4EpZRaTqbGFYsbkwkd0Ig5ytzqhlAHSqU139P1IhxmhlrVHhflyabs-ofNj-38qtsaWUppozRWyf7vjVrf_PKt1zNwR_amGXILUoE4wxsQ3-U_wbRARn8Z70IO9lW2SccytPH_MbHTrKe4eSIFdieRicoCnPAgZmQcNC_Cs6Y8_CKPbpmG9kAYBkzr4ML6c8w0YSVcSSQDqrPLlLjtJ6mj_5txxUIywrmuWtUHsF9QJtld5LJqEVFYfr3HmBO6wjuja7fo2wJfDet5ezwEX1aUpi7drRm0ICWVcU7GLIWUqzllz2S34caxrpo8KldCSaZEzQmA_ZPOhL2rHkvq5fPzb571b1kVvaBKQ_piIGyUQCWkLAgvquEsUloKiNGAo6VCkwWGtLzJ8MQ-JWHoURkSfbCzcD81d9ULWvLrQJGU7VBVyREegEUoUkmtbZg8QDFC1LeRauQNfmlySonXeDlGqiSGR9hs0EuRQ7aGMiqStAsQiRTmvEk7WhEutZDMhe758NYW0TfTUAz23py1bBtJh0Asxj4Np40twnvX_m80?></g></svg>