<?plantuml 1.2026.2?><svg xmlns="http://www.w3.org/2000/svg" xmlns:xlink="http://www.w3.org/1999/xlink" contentStyleType="text/css" data-diagram-type="SEQUENCE" height="1754px" preserveAspectRatio="none" style="width:1231px;height:1754px;background:#0D1117;" version="1.1" viewBox="0 0 1231 1754" width="1231px" zoomAndPan="magnify"><title>Sequence &#8212; Error Handling &amp; Consistency (Sprint 6)</title><defs/><g><rect fill="#0D1117" height="1754" style="stroke:none;stroke-width:1;" width="1231" x="0" y="0"/><text fill="#E6EDF3" font-family="'Segoe UI, Inter, sans-serif'" font-size="14" font-weight="bold" lengthAdjust="spacing" textLength="345.2354" x="439.2515" y="74.4082">Sequence &#8212; Error Handling &amp; Consistency (Sprint 6)</text><rect fill="#161B22" height="1611.9727" rx="6" ry="6" style="stroke:#30363D;stroke-width:0.5;" width="103.417" x="1" y="99.9219"/><text fill="#E6EDF3" font-family="'Segoe UI, Inter, sans-serif'" font-size="14" font-weight="bold" lengthAdjust="spacing" textLength="77.417" x="14" y="125.0293">Client Layer</text><rect fill="#0D1117" height="1611.9727" rx="6" ry="6" style="stroke:#30363D;stroke-width:0.5;" width="444.3617" x="244.5168" y="99.9219"/><text fill="#E6EDF3" font-family="'Segoe UI, Inter, sans-serif'" font-size="14" font-weight="bold" lengthAdjust="spacing" textLength="62.1113" x="435.6419" y="125.0293">API Layer</text><rect fill="#161B22" height="1611.9727" rx="6" ry="6" style="stroke:#30363D;stroke-width:0.5;" width="317.6419" x="793.6834" y="99.9219"/><text fill="#E6EDF3" font-family="'Segoe UI, Inter, sans-serif'" font-size="14" font-weight="bold" lengthAdjust="spacing" textLength="69.6719" x="917.6685" y="125.0293">Core Layer</text><g><title>M .. Middleware ..</title><rect fill="#0D1117" height="517.5117" style="stroke:#181818;stroke-width:1;" width="10" x="375.37" y="360.7461"/></g><g><title>M .. Middleware ..</title><rect fill="#0D1117" height="596.4336" style="stroke:#181818;stroke-width:1;" width="10" x="375.37" y="994.8398"/></g><g><title>.. Minimal API ..</title><rect fill="#0D1117" height="417.5898" style="stroke:#181818;stroke-width:1;" width="10" x="598.5508" y="410.707"/></g><g><title>.. Minimal API ..</title><rect fill="#0D1117" height="319.0664" style="stroke:#181818;stroke-width:1;" width="10" x="598.5508" y="1044.8008"/></g><g><title>.. Service ..</title><rect fill="#0D1117" height="248.4063" style="stroke:#181818;stroke-width:1;" width="10" x="887.1426" y="460.668"/></g><g><title>.. Service ..</title><rect fill="#0D1117" height="219.1445" style="stroke:#181818;stroke-width:1;" width="10" x="887.1426" y="1094.7617"/></g><g><title>.color..D29922...hard-drive...color. DB</title><rect fill="#0D1117" height="49.9609" style="stroke:#181818;stroke-width:1;" width="10" x="1072.8203" y="510.6289"/></g><g><title>.color..D29922...hard-drive...color. DB</title><rect fill="#0D1117" height="119.2227" style="stroke:#181818;stroke-width:1;" width="10" x="1072.8203" y="1144.7227"/></g><g class="participant-lifeline" data-entity-uid="part1" data-qualified-name="CLIENT" id="part1-lifeline"><g><title>.color..E6EDF3...person...color. Client</title><rect fill="#000000" fill-opacity="0.00000" height="1367.1094" width="8" x="48.7085" y="242.1641"/><line style="stroke:#30363D;stroke-width:0.5;stroke-dasharray:5,5;" x1="52.4056" x2="52.4056" y1="242.1641" y2="1609.2734"/></g></g><g class="participant-lifeline" data-entity-uid="part2" data-qualified-name="EH" id="part2-lifeline"><g><title>M .. Middleware ..</title><rect fill="#000000" fill-opacity="0.00000" height="1367.1094" width="8" x="376.37" y="242.1641"/><line style="stroke:#30363D;stroke-width:0.5;stroke-dasharray:5,5;" x1="379.5168" x2="379.5168" y1="242.1641" y2="1609.2734"/></g></g><g class="participant-lifeline" data-entity-uid="part3" data-qualified-name="ENDP" id="part3-lifeline"><g><title>.. Minimal API ..</title><rect fill="#000000" fill-opacity="0.00000" height="1367.1094" width="8" x="599.5508" y="242.1641"/><line style="stroke:#30363D;stroke-width:0.5;stroke-dasharray:5,5;" x1="603.2231" x2="603.2231" y1="242.1641" y2="1609.2734"/></g></g><g class="participant-lifeline" data-entity-uid="part4" data-qualified-name="SVC" id="part4-lifeline"><g><title>.. Service ..</title><rect fill="#000000" fill-opacity="0.00000" height="1367.1094" width="8" x="888.1426" y="242.1641"/><line style="stroke:#30363D;stroke-width:0.5;stroke-dasharray:5,5;" x1="891.6834" x2="891.6834" y1="242.1641" y2="1609.2734"/></g></g><g class="participant-lifeline" data-entity-uid="part5" data-qualified-name="DB" id="part5-lifeline"><g><title>.color..D29922...hard-drive...color. DB</title><rect fill="#000000" fill-opacity="0.00000" height="1367.1094" width="8" x="1073.8203" y="242.1641"/><line style="stroke:#30363D;stroke-width:0.5;stroke-dasharray:5,5;" x1="1077.3153" x2="1077.3153" y1="242.1641" y2="1609.2734"/></g></g><g class="participant participant-head" data-entity-uid="part1" data-qualified-name="CLIENT" id="part1-head"><path d="M30.0723,219.3307 C28.7889,219.3307 27.7389,220.6374 27.7389,222.2474 C27.7389,223.8574 28.7889,225.1641 30.0723,225.1641 C31.3556,225.1641 32.4056,223.8574 32.4056,222.2474 C32.4056,220.6374 31.3556,219.3307 30.0723,219.3307 M27.6339,225.1641 C26.3973,225.2224 25.4056,226.2374 25.4056,227.4974 L25.4056,228.6641 L34.7389,228.6641 L34.7389,227.4974 C34.7389,226.2374 33.7589,225.2224 32.5106,225.1641 C31.8806,225.8757 31.0173,226.3307 30.0723,226.3307 C29.1273,226.3307 28.2639,225.8757 27.6339,225.1641" fill="#E6EDF3"/><text fill="#0D1117" font-family="'Segoe UI, Inter, sans-serif'" font-size="14" lengthAdjust="spacing" textLength="35.4375" x="39.5739" y="228.6504">Client</text><ellipse cx="52.7085" cy="159.043" fill="#3FB950" rx="16" ry="16" style="stroke:#3FB950;stroke-width:0.5;"/><path d="M52.7085,179.043 C56.7085,179.043 59.7085,179.043 63.7085,175.043 C71.7085,175.043 79.7085,183.043 79.7085,191.043 L79.7085,195.043 C79.7085,199.043 75.7085,203.043 71.7085,203.043 L33.7085,203.043 C29.7085,203.043 25.7085,199.043 25.7085,195.043 L25.7085,191.043 C25.7085,183.043 33.7085,175.043 41.7085,175.043 C45.7085,179.043 48.7085,179.043 52.7085,179.043" fill="#3FB950"/></g><g class="participant participant-tail" data-entity-uid="part1" data-qualified-name="CLIENT" id="part1-tail"><path d="M30.0723,1624.0612 C28.7889,1624.0612 27.7389,1625.3679 27.7389,1626.9779 C27.7389,1628.5879 28.7889,1629.8945 30.0723,1629.8945 C31.3556,1629.8945 32.4056,1628.5879 32.4056,1626.9779 C32.4056,1625.3679 31.3556,1624.0612 30.0723,1624.0612 M27.6339,1629.8945 C26.3973,1629.9529 25.4056,1630.9679 25.4056,1632.2279 L25.4056,1633.3945 L34.7389,1633.3945 L34.7389,1632.2279 C34.7389,1630.9679 33.7589,1629.9529 32.5106,1629.8945 C31.8806,1630.6062 31.0173,1631.0612 30.0723,1631.0612 C29.1273,1631.0612 28.2639,1630.6062 27.6339,1629.8945" fill="#E6EDF3"/><text fill="#0D1117" font-family="'Segoe UI, Inter, sans-serif'" font-size="14" lengthAdjust="spacing" textLength="35.4375" x="39.5739" y="1633.3809">Client</text><ellipse cx="52.7085" cy="1663.3945" fill="#3FB950" rx="16" ry="16" style="stroke:#3FB950;stroke-width:0.5;"/><path d="M52.7085,1683.3945 C56.7085,1683.3945 59.7085,1683.3945 63.7085,1679.3945 C71.7085,1679.3945 79.7085,1687.3945 79.7085,1695.3945 L79.7085,1699.3945 C79.7085,1703.3945 75.7085,1707.3945 71.7085,1707.3945 L33.7085,1707.3945 C29.7085,1707.3945 25.7085,1703.3945 25.7085,1699.3945 L25.7085,1695.3945 C25.7085,1687.3945 33.7085,1679.3945 41.7085,1679.3945 C45.7085,1683.3945 48.7085,1683.3945 52.7085,1683.3945" fill="#3FB950"/></g><g class="participant participant-head" data-entity-uid="part2" data-qualified-name="EH" id="part2-head"><rect fill="#161B22" height="71.2422" rx="6" ry="6" style="stroke:#58A6FF;stroke-width:0.5;" width="223.7064" x="268.5168" y="169.9219"/><ellipse cx="285.5168" cy="186.9219" fill="#F85149" rx="10" ry="10" style="stroke:#58A6FF;stroke-width:1;"/><path d="M284.0324,185.3438 L284.0324,189.5156 L284.5324,189.5156 Q285.0324,189.5156 285.2511,189.7188 Q285.4699,189.9063 285.4699,190.2188 Q285.4699,190.5313 285.2511,190.7344 Q285.0324,190.9219 284.5324,190.9219 L282.6886,190.9219 Q282.1886,190.9219 281.9699,190.7344 Q281.7511,190.5313 281.7511,190.2188 Q281.7511,189.9063 281.9699,189.7188 Q282.1886,189.5156 282.6261,189.5156 L282.6261,184.0313 Q282.2511,184 282.0636,183.8125 Q281.8761,183.625 281.8761,183.3281 Q281.8761,183.0156 282.0949,182.8281 Q282.3136,182.625 282.8136,182.625 L284.3605,182.6406 L286.2668,186.8594 L288.1418,182.625 L289.6886,182.6406 Q290.1886,182.6406 290.4074,182.8281 Q290.6261,183.0156 290.6261,183.3281 Q290.6261,183.625 290.423,183.8125 Q290.2355,184 289.8761,184.0313 L289.8761,189.5156 Q290.3293,189.5156 290.5324,189.7188 Q290.7511,189.9219 290.7511,190.2188 Q290.7511,190.5313 290.5324,190.7344 Q290.3136,190.9219 289.8136,190.9219 L287.9699,190.9219 Q287.4699,190.9219 287.2511,190.7344 Q287.0324,190.5313 287.0324,190.2188 Q287.0324,189.9063 287.2511,189.7188 Q287.4699,189.5156 287.9699,189.5156 L288.4699,189.5156 L288.4699,185.3438 L286.8761,188.9531 L285.6574,188.9531 L284.0324,185.3438 Z " fill="#E6EDF3"/><text fill="#E6EDF3" font-family="'Segoe UI, Inter, sans-serif'" font-size="14" font-style="italic" lengthAdjust="spacing" textLength="84.54" x="351.0999" y="202.0293">&#171;Middleware&#187;</text><path d="M317.1834,211.3307 L316.9618,211.4357 L312.8784,213.1507 L312.5168,213.3024 L312.5168,213.6641 C312.5168,215.6007 313.2984,217.3041 314.2318,218.5524 C314.6984,219.1707 315.2001,219.6841 315.6901,220.0457 C316.1801,220.4074 316.6584,220.6641 317.1834,220.6641 C317.7201,220.6641 318.1868,220.4074 318.6768,220.0457 C319.1668,219.6841 319.6684,219.1707 320.1351,218.5524 C321.0684,217.3041 321.8501,215.6007 321.8501,213.6641 L321.8501,213.3024 L321.4884,213.1507 L317.4051,211.4357 L317.1834,211.3307 M317.1834,212.6024 L317.1834,219.4974 C317.1368,219.4974 316.7984,219.4157 316.4134,219.1357 C316.0284,218.8557 315.5851,218.4007 315.1768,217.8641 C314.4301,216.8724 313.8468,215.4957 313.7534,214.0374 L317.1834,212.6141" fill="#F85149"/><text fill="#E6EDF3" font-family="'Segoe UI, Inter, sans-serif'" font-size="14" lengthAdjust="spacing" textLength="148.5381" x="326.6851" y="220.6504">GlobalExceptionHandler</text></g><g class="participant participant-tail" data-entity-uid="part2" data-qualified-name="EH" id="part2-tail"><rect fill="#161B22" height="71.2422" rx="6" ry="6" style="stroke:#58A6FF;stroke-width:0.5;" width="223.7064" x="268.5168" y="1608.2734"/><ellipse cx="285.5168" cy="1625.2734" fill="#F85149" rx="10" ry="10" style="stroke:#58A6FF;stroke-width:1;"/><path d="M284.0324,1623.6953 L284.0324,1627.8672 L284.5324,1627.8672 Q285.0324,1627.8672 285.2511,1628.0703 Q285.4699,1628.2578 285.4699,1628.5703 Q285.4699,1628.8828 285.2511,1629.0859 Q285.0324,1629.2734 284.5324,1629.2734 L282.6886,1629.2734 Q282.1886,1629.2734 281.9699,1629.0859 Q281.7511,1628.8828 281.7511,1628.5703 Q281.7511,1628.2578 281.9699,1628.0703 Q282.1886,1627.8672 282.6261,1627.8672 L282.6261,1622.3828 Q282.2511,1622.3516 282.0636,1622.1641 Q281.8761,1621.9766 281.8761,1621.6797 Q281.8761,1621.3672 282.0949,1621.1797 Q282.3136,1620.9766 282.8136,1620.9766 L284.3605,1620.9922 L286.2668,1625.2109 L288.1418,1620.9766 L289.6886,1620.9922 Q290.1886,1620.9922 290.4074,1621.1797 Q290.6261,1621.3672 290.6261,1621.6797 Q290.6261,1621.9766 290.423,1622.1641 Q290.2355,1622.3516 289.8761,1622.3828 L289.8761,1627.8672 Q290.3293,1627.8672 290.5324,1628.0703 Q290.7511,1628.2734 290.7511,1628.5703 Q290.7511,1628.8828 290.5324,1629.0859 Q290.3136,1629.2734 289.8136,1629.2734 L287.9699,1629.2734 Q287.4699,1629.2734 287.2511,1629.0859 Q287.0324,1628.8828 287.0324,1628.5703 Q287.0324,1628.2578 287.2511,1628.0703 Q287.4699,1627.8672 287.9699,1627.8672 L288.4699,1627.8672 L288.4699,1623.6953 L286.8761,1627.3047 L285.6574,1627.3047 L284.0324,1623.6953 Z " fill="#E6EDF3"/><text fill="#E6EDF3" font-family="'Segoe UI, Inter, sans-serif'" font-size="14" font-style="italic" lengthAdjust="spacing" textLength="84.54" x="351.0999" y="1640.3809">&#171;Middleware&#187;</text><path d="M317.1834,1649.6823 L316.9618,1649.7873 L312.8784,1651.5023 L312.5168,1651.654 L312.5168,1652.0156 C312.5168,1653.9523 313.2984,1655.6556 314.2318,1656.904 C314.6984,1657.5223 315.2001,1658.0356 315.6901,1658.3973 C316.1801,1658.759 316.6584,1659.0156 317.1834,1659.0156 C317.7201,1659.0156 318.1868,1658.759 318.6768,1658.3973 C319.1668,1658.0356 319.6684,1657.5223 320.1351,1656.904 C321.0684,1655.6556 321.8501,1653.9523 321.8501,1652.0156 L321.8501,1651.654 L321.4884,1651.5023 L317.4051,1649.7873 L317.1834,1649.6823 M317.1834,1650.954 L317.1834,1657.849 C317.1368,1657.849 316.7984,1657.7673 316.4134,1657.4873 C316.0284,1657.2073 315.5851,1656.7523 315.1768,1656.2156 C314.4301,1655.224 313.8468,1653.8473 313.7534,1652.389 L317.1834,1650.9656" fill="#F85149"/><text fill="#E6EDF3" font-family="'Segoe UI, Inter, sans-serif'" font-size="14" lengthAdjust="spacing" textLength="148.5381" x="326.6851" y="1659.002">GlobalExceptionHandler</text></g><g class="participant participant-head" data-entity-uid="part3" data-qualified-name="ENDP" id="part3-head"><rect fill="#161B22" height="71.2422" rx="6" ry="6" style="stroke:#58A6FF;stroke-width:0.5;" width="122.6553" x="542.2231" y="169.9219"/><text fill="#E6EDF3" font-family="'Segoe UI, Inter, sans-serif'" font-size="14" font-style="italic" lengthAdjust="spacing" textLength="88.6553" x="559.2231" y="202.0293">&#171;Minimal API&#187;</text><path d="M570.2096,211.3307 L569.6263,212.7191 C569.5096,212.7541 569.4046,212.8124 569.2996,212.8707 L567.9113,212.2874 L567.0713,213.1274 L567.6546,214.5157 C567.5963,214.6324 567.5496,214.7257 567.503,214.8424 L566.1146,215.4257 L566.1146,216.5924 L567.503,217.1757 C567.5496,217.2924 567.5963,217.3857 567.6546,217.5024 L567.0713,218.8907 L567.9113,219.7307 L569.2996,219.1474 C569.4046,219.1941 569.5096,219.2524 569.6263,219.2991 L570.2096,220.6874 L571.3763,220.6874 L571.9596,219.2991 C572.0646,219.2524 572.1813,219.2057 572.2863,219.1474 L573.6746,219.7307 L574.5146,218.8907 L573.9313,217.5024 C573.978,217.3974 574.0363,217.2807 574.083,217.1757 L575.4713,216.5924 L575.4713,215.4257 L574.083,214.8424 C574.048,214.7374 573.9896,214.6207 573.9313,214.5157 L574.5146,213.1274 L573.6746,212.2874 L572.2863,212.8707 C572.1813,212.8241 572.0646,212.7657 571.9596,212.7191 L571.3763,211.3307 L570.2096,211.3307 M570.793,214.2474 C571.7613,214.2474 572.543,215.0291 572.543,215.9974 C572.543,216.9657 571.7613,217.7474 570.793,217.7474 C569.8246,217.7474 569.043,216.9657 569.043,215.9974 C569.043,215.0291 569.8246,214.2474 570.793,214.2474" fill="#58A6FF"/><text fill="#E6EDF3" font-family="'Segoe UI, Inter, sans-serif'" font-size="14" lengthAdjust="spacing" textLength="61.6807" x="580.2946" y="220.6504">Endpoints</text></g><g class="participant participant-tail" data-entity-uid="part3" data-qualified-name="ENDP" id="part3-tail"><rect fill="#161B22" height="71.2422" rx="6" ry="6" style="stroke:#58A6FF;stroke-width:0.5;" width="122.6553" x="542.2231" y="1608.2734"/><text fill="#E6EDF3" font-family="'Segoe UI, Inter, sans-serif'" font-size="14" font-style="italic" lengthAdjust="spacing" textLength="88.6553" x="559.2231" y="1640.3809">&#171;Minimal API&#187;</text><path d="M570.2096,1649.6823 L569.6263,1651.0706 C569.5096,1651.1056 569.4046,1651.164 569.2996,1651.2223 L567.9113,1650.639 L567.0713,1651.479 L567.6546,1652.8673 C567.5963,1652.984 567.5496,1653.0773 567.503,1653.194 L566.1146,1653.7773 L566.1146,1654.944 L567.503,1655.5273 C567.5496,1655.644 567.5963,1655.7373 567.6546,1655.854 L567.0713,1657.2423 L567.9113,1658.0823 L569.2996,1657.499 C569.4046,1657.5456 569.5096,1657.604 569.6263,1657.6506 L570.2096,1659.039 L571.3763,1659.039 L571.9596,1657.6506 C572.0646,1657.604 572.1813,1657.5573 572.2863,1657.499 L573.6746,1658.0823 L574.5146,1657.2423 L573.9313,1655.854 C573.978,1655.749 574.0363,1655.6323 574.083,1655.5273 L575.4713,1654.944 L575.4713,1653.7773 L574.083,1653.194 C574.048,1653.089 573.9896,1652.9723 573.9313,1652.8673 L574.5146,1651.479 L573.6746,1650.639 L572.2863,1651.2223 C572.1813,1651.1756 572.0646,1651.1173 571.9596,1651.0706 L571.3763,1649.6823 L570.2096,1649.6823 M570.793,1652.599 C571.7613,1652.599 572.543,1653.3806 572.543,1654.349 C572.543,1655.3173 571.7613,1656.099 570.793,1656.099 C569.8246,1656.099 569.043,1655.3173 569.043,1654.349 C569.043,1653.3806 569.8246,1652.599 570.793,1652.599" fill="#58A6FF"/><text fill="#E6EDF3" font-family="'Segoe UI, Inter, sans-serif'" font-size="14" lengthAdjust="spacing" textLength="61.6807" x="580.2946" y="1659.002">Endpoints</text></g><g class="participant participant-head" data-entity-uid="part4" data-qualified-name="SVC" id="part4-head"><rect fill="#161B22" height="71.2422" rx="6" ry="6" style="stroke:#58A6FF;stroke-width:0.5;" width="148.9183" x="817.6834" y="169.9219"/><text fill="#E6EDF3" font-family="'Segoe UI, Inter, sans-serif'" font-size="14" font-style="italic" lengthAdjust="spacing" textLength="56.3076" x="863.9888" y="202.0293">&#171;Service&#187;</text><path d="M839.7668,211.3307 L839.1834,212.7191 C839.0668,212.7541 838.9618,212.8124 838.8568,212.8707 L837.4684,212.2874 L836.6284,213.1274 L837.2118,214.5157 C837.1534,214.6324 837.1068,214.7257 837.0601,214.8424 L835.6718,215.4257 L835.6718,216.5924 L837.0601,217.1757 C837.1068,217.2924 837.1534,217.3857 837.2118,217.5024 L836.6284,218.8907 L837.4684,219.7307 L838.8568,219.1474 C838.9618,219.1941 839.0668,219.2524 839.1834,219.2991 L839.7668,220.6874 L840.9334,220.6874 L841.5168,219.2991 C841.6218,219.2524 841.7384,219.2057 841.8434,219.1474 L843.2318,219.7307 L844.0718,218.8907 L843.4884,217.5024 C843.5351,217.3974 843.5934,217.2807 843.6401,217.1757 L845.0284,216.5924 L845.0284,215.4257 L843.6401,214.8424 C843.6051,214.7374 843.5468,214.6207 843.4884,214.5157 L844.0718,213.1274 L843.2318,212.2874 L841.8434,212.8707 C841.7384,212.8241 841.6218,212.7657 841.5168,212.7191 L840.9334,211.3307 L839.7668,211.3307 M840.3501,214.2474 C841.3184,214.2474 842.1001,215.0291 842.1001,215.9974 C842.1001,216.9657 841.3184,217.7474 840.3501,217.7474 C839.3818,217.7474 838.6001,216.9657 838.6001,215.9974 C838.6001,215.0291 839.3818,214.2474 840.3501,214.2474" fill="#3FB950"/><text fill="#E6EDF3" font-family="'Segoe UI, Inter, sans-serif'" font-size="14" lengthAdjust="spacing" textLength="99.75" x="849.8517" y="220.6504">Business Service</text></g><g class="participant participant-tail" data-entity-uid="part4" data-qualified-name="SVC" id="part4-tail"><rect fill="#161B22" height="71.2422" rx="6" ry="6" style="stroke:#58A6FF;stroke-width:0.5;" width="148.9183" x="817.6834" y="1608.2734"/><text fill="#E6EDF3" font-family="'Segoe UI, Inter, sans-serif'" font-size="14" font-style="italic" lengthAdjust="spacing" textLength="56.3076" x="863.9888" y="1640.3809">&#171;Service&#187;</text><path d="M839.7668,1649.6823 L839.1834,1651.0706 C839.0668,1651.1056 838.9618,1651.164 838.8568,1651.2223 L837.4684,1650.639 L836.6284,1651.479 L837.2118,1652.8673 C837.1534,1652.984 837.1068,1653.0773 837.0601,1653.194 L835.6718,1653.7773 L835.6718,1654.944 L837.0601,1655.5273 C837.1068,1655.644 837.1534,1655.7373 837.2118,1655.854 L836.6284,1657.2423 L837.4684,1658.0823 L838.8568,1657.499 C838.9618,1657.5456 839.0668,1657.604 839.1834,1657.6506 L839.7668,1659.039 L840.9334,1659.039 L841.5168,1657.6506 C841.6218,1657.604 841.7384,1657.5573 841.8434,1657.499 L843.2318,1658.0823 L844.0718,1657.2423 L843.4884,1655.854 C843.5351,1655.749 843.5934,1655.6323 843.6401,1655.5273 L845.0284,1654.944 L845.0284,1653.7773 L843.6401,1653.194 C843.6051,1653.089 843.5468,1652.9723 843.4884,1652.8673 L844.0718,1651.479 L843.2318,1650.639 L841.8434,1651.2223 C841.7384,1651.1756 841.6218,1651.1173 841.5168,1651.0706 L840.9334,1649.6823 L839.7668,1649.6823 M840.3501,1652.599 C841.3184,1652.599 842.1001,1653.3806 842.1001,1654.349 C842.1001,1655.3173 841.3184,1656.099 840.3501,1656.099 C839.3818,1656.099 838.6001,1655.3173 838.6001,1654.349 C838.6001,1653.3806 839.3818,1652.599 840.3501,1652.599" fill="#3FB950"/><text fill="#E6EDF3" font-family="'Segoe UI, Inter, sans-serif'" font-size="14" lengthAdjust="spacing" textLength="99.75" x="849.8517" y="1659.002">Business Service</text></g><g class="participant participant-head" data-entity-uid="part5" data-qualified-name="DB" id="part5-head"><path d="M1059.5369,219.3307 C1059.4086,219.3307 1059.3153,219.4241 1059.3153,219.5524 L1059.3153,223.4141 C1059.3153,223.7407 1059.5719,223.9974 1059.8986,223.9974 L1066.8986,223.9974 C1067.2253,223.9974 1067.4819,223.7407 1067.4819,223.4141 L1067.4819,219.5524 C1067.4819,219.4241 1067.3886,219.3307 1067.2603,219.3307 L1059.5253,219.3307 M1059.3153,225.0591 L1059.3153,228.4541 C1059.3153,228.5824 1059.4086,228.6757 1059.5369,228.6757 L1067.2719,228.6757 C1067.4003,228.6757 1067.4936,228.5824 1067.4936,228.4541 L1067.4936,225.0591 C1067.3069,225.1291 1067.1203,225.1641 1066.9103,225.1641 L1059.9103,225.1641 C1059.7003,225.1641 1059.5136,225.1174 1059.3269,225.0591 M1065.7319,226.3307 C1066.0586,226.3307 1066.3153,226.5874 1066.3153,226.9141 C1066.3153,227.2407 1066.0586,227.4974 1065.7319,227.4974 C1065.4053,227.4974 1065.1486,227.2407 1065.1486,226.9141 C1065.1486,226.5874 1065.4053,226.3307 1065.7319,226.3307" fill="#D29922"/><text fill="#E6EDF3" font-family="'Segoe UI, Inter, sans-serif'" font-size="14" lengthAdjust="spacing" textLength="17.8418" x="1073.4836" y="228.6504">DB</text><path d="M1059.8203,167.543 C1059.8203,157.543 1077.8203,157.543 1077.8203,157.543 C1077.8203,157.543 1095.8203,157.543 1095.8203,167.543 L1095.8203,193.543 C1095.8203,203.543 1077.8203,203.543 1077.8203,203.543 C1077.8203,203.543 1059.8203,203.543 1059.8203,193.543 L1059.8203,167.543" fill="#0D1117" style="stroke:#D29922;stroke-width:0.5;"/><path d="M1059.8203,167.543 C1059.8203,177.543 1077.8203,177.543 1077.8203,177.543 C1077.8203,177.543 1095.8203,177.543 1095.8203,167.543" fill="none" style="stroke:#D29922;stroke-width:0.5;"/></g><g class="participant participant-tail" data-entity-uid="part5" data-qualified-name="DB" id="part5-tail"><path d="M1059.5369,1624.0612 C1059.4086,1624.0612 1059.3153,1624.1545 1059.3153,1624.2829 L1059.3153,1628.1445 C1059.3153,1628.4712 1059.5719,1628.7279 1059.8986,1628.7279 L1066.8986,1628.7279 C1067.2253,1628.7279 1067.4819,1628.4712 1067.4819,1628.1445 L1067.4819,1624.2829 C1067.4819,1624.1545 1067.3886,1624.0612 1067.2603,1624.0612 L1059.5253,1624.0612 M1059.3153,1629.7895 L1059.3153,1633.1845 C1059.3153,1633.3129 1059.4086,1633.4062 1059.5369,1633.4062 L1067.2719,1633.4062 C1067.4003,1633.4062 1067.4936,1633.3129 1067.4936,1633.1845 L1067.4936,1629.7895 C1067.3069,1629.8595 1067.1203,1629.8945 1066.9103,1629.8945 L1059.9103,1629.8945 C1059.7003,1629.8945 1059.5136,1629.8479 1059.3269,1629.7895 M1065.7319,1631.0612 C1066.0586,1631.0612 1066.3153,1631.3179 1066.3153,1631.6445 C1066.3153,1631.9712 1066.0586,1632.2279 1065.7319,1632.2279 C1065.4053,1632.2279 1065.1486,1631.9712 1065.1486,1631.6445 C1065.1486,1631.3179 1065.4053,1631.0612 1065.7319,1631.0612" fill="#D29922"/><text fill="#E6EDF3" font-family="'Segoe UI, Inter, sans-serif'" font-size="14" lengthAdjust="spacing" textLength="17.8418" x="1073.4836" y="1633.3809">DB</text><path d="M1059.8203,1656.8945 C1059.8203,1646.8945 1077.8203,1646.8945 1077.8203,1646.8945 C1077.8203,1646.8945 1095.8203,1646.8945 1095.8203,1656.8945 L1095.8203,1682.8945 C1095.8203,1692.8945 1077.8203,1692.8945 1077.8203,1692.8945 C1077.8203,1692.8945 1059.8203,1692.8945 1059.8203,1682.8945 L1059.8203,1656.8945" fill="#0D1117" style="stroke:#D29922;stroke-width:0.5;"/><path d="M1059.8203,1656.8945 C1059.8203,1666.8945 1077.8203,1666.8945 1077.8203,1666.8945 C1077.8203,1666.8945 1095.8203,1666.8945 1095.8203,1656.8945" fill="none" style="stroke:#D29922;stroke-width:0.5;"/></g><g><title>M .. Middleware ..</title><rect fill="#0D1117" height="517.5117" style="stroke:#181818;stroke-width:1;" width="10" x="375.37" y="360.7461"/></g><g><title>M .. Middleware ..</title><rect fill="#0D1117" height="596.4336" style="stroke:#181818;stroke-width:1;" width="10" x="375.37" y="994.8398"/></g><g><title>.. Minimal API ..</title><rect fill="#0D1117" height="417.5898" style="stroke:#181818;stroke-width:1;" width="10" x="598.5508" y="410.707"/></g><g><title>.. Minimal API ..</title><rect fill="#0D1117" height="319.0664" style="stroke:#181818;stroke-width:1;" width="10" x="598.5508" y="1044.8008"/></g><g><title>.. Service ..</title><rect fill="#0D1117" height="248.4063" style="stroke:#181818;stroke-width:1;" width="10" x="887.1426" y="460.668"/></g><g><title>.. Service ..</title><rect fill="#0D1117" height="219.1445" style="stroke:#181818;stroke-width:1;" width="10" x="887.1426" y="1094.7617"/></g><g><title>.color..D29922...hard-drive...color. DB</title><rect fill="#0D1117" height="49.9609" style="stroke:#181818;stroke-width:1;" width="10" x="1072.8203" y="510.6289"/></g><g><title>.color..D29922...hard-drive...color. DB</title><rect fill="#0D1117" height="119.2227" style="stroke:#181818;stroke-width:1;" width="10" x="1072.8203" y="1144.7227"/></g><rect fill="#EEEEEE" height="3" rx="6" ry="6" style="stroke:#EEEEEE;stroke-width:1;" width="1224.7383" x="0" y="284.4746"/><line style="stroke:#000000;stroke-width:1;" x1="0" x2="1224.7383" y1="284.4746" y2="284.4746"/><line style="stroke:#000000;stroke-width:1;" x1="0" x2="1224.7383" y1="287.4746" y2="287.4746"/><rect fill="#EEEEEE" height="46.6211" rx="6" ry="6" style="stroke:#000000;stroke-width:2;" width="377.4033" x="423.6675" y="262.1641"/><text fill="#E6EDF3" font-family="'Segoe UI, Inter, sans-serif'" font-size="14" font-weight="bold" lengthAdjust="spacing" textLength="339.541" x="439.6675" y="291.2715">Scenario 1: Expected Business Error (Result Pattern)</text><g class="message" data-entity-1="part1" data-entity-2="part2" id="msg1"><polygon fill="#8B949E" points="363.37,356.7461,373.37,360.7461,363.37,364.7461,367.37,360.7461" style="stroke:#8B949E;stroke-width:1;"/><line style="stroke:#8B949E;stroke-width:1.5;" x1="52.7085" x2="369.37" y1="360.7461" y2="360.7461"/><text fill="#C9D1D9" font-family="'Segoe UI, Inter, sans-serif'" font-size="12" font-weight="bold" lengthAdjust="spacing" textLength="22.6641" x="69.7085" y="345.7344">[01]</text><text fill="#C9D1D9" font-family="'Segoe UI, Inter, sans-serif'" font-size="12" lengthAdjust="spacing" textLength="73.8457" x="116.3726" y="345.7344">HTTP Request</text></g><g class="message" data-entity-1="part2" data-entity-2="part3" id="msg2"><polygon fill="#8B949E" points="586.5508,406.707,596.5508,410.707,586.5508,414.707,590.5508,410.707" style="stroke:#8B949E;stroke-width:1;"/><line style="stroke:#8B949E;stroke-width:1.5;" x1="385.37" x2="592.5508" y1="410.707" y2="410.707"/><text fill="#C9D1D9" font-family="'Segoe UI, Inter, sans-serif'" font-size="12" font-weight="bold" lengthAdjust="spacing" textLength="22.6641" x="402.37" y="395.6953">[02]</text><text fill="#C9D1D9" font-family="'Segoe UI, Inter, sans-serif'" font-size="12" lengthAdjust="spacing" textLength="89.1094" x="449.034" y="395.6953">Forward Request</text></g><g class="message" data-entity-1="part3" data-entity-2="part4" id="msg3"><polygon fill="#8B949E" points="875.1426,456.668,885.1426,460.668,875.1426,464.668,879.1426,460.668" style="stroke:#8B949E;stroke-width:1;"/><line style="stroke:#8B949E;stroke-width:1.5;" x1="608.5508" x2="881.1426" y1="460.668" y2="460.668"/><text fill="#C9D1D9" font-family="'Segoe UI, Inter, sans-serif'" font-size="12" font-weight="bold" lengthAdjust="spacing" textLength="22.6641" x="625.5508" y="445.6563">[03]</text><text fill="#C9D1D9" font-family="'Segoe UI, Inter, sans-serif'" font-size="12" lengthAdjust="spacing" textLength="77.8945" x="672.2148" y="445.6563">Execute Action</text></g><g class="message" data-entity-1="part4" data-entity-2="part5" id="msg4"><polygon fill="#8B949E" points="1060.8203,506.6289,1070.8203,510.6289,1060.8203,514.6289,1064.8203,510.6289" style="stroke:#8B949E;stroke-width:1;"/><line style="stroke:#8B949E;stroke-width:1.5;" x1="897.1426" x2="1066.8203" y1="510.6289" y2="510.6289"/><text fill="#C9D1D9" font-family="'Segoe UI, Inter, sans-serif'" font-size="12" font-weight="bold" lengthAdjust="spacing" textLength="22.6641" x="914.1426" y="495.6172">[04]</text><text fill="#C9D1D9" font-family="'Segoe UI, Inter, sans-serif'" font-size="12" lengthAdjust="spacing" textLength="60.0703" x="960.8066" y="495.6172">Query Data</text></g><g class="message" data-entity-1="part5" data-entity-2="part4" id="msg5"><polygon fill="#8B949E" points="908.1426,556.5898,898.1426,560.5898,908.1426,564.5898,904.1426,560.5898" style="stroke:#8B949E;stroke-width:1;"/><line style="stroke:#8B949E;stroke-width:1.5;stroke-dasharray:2,2;" x1="902.1426" x2="1076.8203" y1="560.5898" y2="560.5898"/><text fill="#C9D1D9" font-family="'Segoe UI, Inter, sans-serif'" font-size="12" font-weight="bold" lengthAdjust="spacing" textLength="22.6641" x="924.1426" y="545.5781">[05]</text><text fill="#C9D1D9" font-family="'Segoe UI, Inter, sans-serif'" font-size="12" lengthAdjust="spacing" textLength="85.0137" x="970.8066" y="545.5781">Empty / Conflict</text></g><path d="M814,579.5898 L814,655.5898 A6,6 0 0 0 820,661.5898 L962,661.5898 A6,6 0 0 0 968,655.5898 L968,583.5898 L958,573.5898 L820,573.5898 A6,6 0 0 0 814,579.5898" fill="#21262D" style="stroke:#F85149;stroke-width:0.5;"/><path d="M958,573.5898 L958,580.5898 A3,3 0 0 0 961,583.5898 L968,583.5898 L958,573.5898" fill="#21262D" style="stroke:#F85149;stroke-width:0.5;"/><text fill="#D29922" font-family="'Segoe UI, Inter, sans-serif'" font-size="11" lengthAdjust="spacing" textLength="67.6436" x="830" y="600.46">Result Pattern</text><text fill="#C9D1D9" font-family="'Segoe UI, Inter, sans-serif'" font-size="11" lengthAdjust="spacing" textLength="107.814" x="830" y="615.0908">Expected errors return</text><text fill="#C9D1D9" font-family="'Segoe UI, Inter, sans-serif'" font-size="11" lengthAdjust="spacing" textLength="102.2227" x="830" y="629.7217">Result.Failure instead</text><text fill="#C9D1D9" font-family="'Segoe UI, Inter, sans-serif'" font-size="11" lengthAdjust="spacing" textLength="113.6685" x="830" y="644.3525">of throwing exceptions.</text><g class="message" data-entity-1="part4" data-entity-2="part3" id="msg6"><polygon fill="#8B949E" points="619.5508,705.0742,609.5508,709.0742,619.5508,713.0742,615.5508,709.0742" style="stroke:#8B949E;stroke-width:1;"/><line style="stroke:#8B949E;stroke-width:1.5;stroke-dasharray:2,2;" x1="613.5508" x2="891.1426" y1="709.0742" y2="709.0742"/><text fill="#C9D1D9" font-family="'Segoe UI, Inter, sans-serif'" font-size="12" font-weight="bold" lengthAdjust="spacing" textLength="22.6641" x="635.5508" y="694.0625">[06]</text><text fill="#C9D1D9" font-family="'Segoe UI, Inter, sans-serif'" font-size="12" lengthAdjust="spacing" textLength="187.9277" x="682.2148" y="694.0625">Result.Failure(ErrorDetails, 400/404)</text></g><path d="M515,728.0742 L515,775.0742 A6,6 0 0 0 521,781.0742 L684,781.0742 A6,6 0 0 0 690,775.0742 L690,732.0742 L680,722.0742 L521,722.0742 A6,6 0 0 0 515,728.0742" fill="#21262D" style="stroke:#F85149;stroke-width:0.5;"/><path d="M680,722.0742 L680,729.0742 A3,3 0 0 0 683,732.0742 L690,732.0742 L680,722.0742" fill="#21262D" style="stroke:#F85149;stroke-width:0.5;"/><text fill="#C9D1D9" font-family="'Segoe UI, Inter, sans-serif'" font-size="11" lengthAdjust="spacing" textLength="115.7202" x="531" y="748.9443">Endpoint maps IsFailure</text><text fill="#C9D1D9" font-family="'Segoe UI, Inter, sans-serif'" font-size="11" lengthAdjust="spacing" textLength="134.2827" x="531" y="763.5752">to standard JSON response.</text><g class="message" data-entity-1="part3" data-entity-2="part2" id="msg7"><polygon fill="#8B949E" points="396.37,824.2969,386.37,828.2969,396.37,832.2969,392.37,828.2969" style="stroke:#8B949E;stroke-width:1;"/><line style="stroke:#8B949E;stroke-width:1.5;stroke-dasharray:2,2;" x1="390.37" x2="602.5508" y1="828.2969" y2="828.2969"/><text fill="#C9D1D9" font-family="'Segoe UI, Inter, sans-serif'" font-size="12" font-weight="bold" lengthAdjust="spacing" textLength="22.6641" x="412.37" y="813.2852">[07]</text><text fill="#C9D1D9" font-family="'Segoe UI, Inter, sans-serif'" font-size="12" lengthAdjust="spacing" textLength="88.7754" x="459.034" y="813.2852">400 Bad Request</text></g><g class="message" data-entity-1="part2" data-entity-2="part1" id="msg8"><polygon fill="#8B949E" points="63.7085,874.2578,53.7085,878.2578,63.7085,882.2578,59.7085,878.2578" style="stroke:#8B949E;stroke-width:1;"/><line style="stroke:#8B949E;stroke-width:1.5;stroke-dasharray:2,2;" x1="57.7085" x2="379.37" y1="878.2578" y2="878.2578"/><text fill="#C9D1D9" font-family="'Segoe UI, Inter, sans-serif'" font-size="12" font-weight="bold" lengthAdjust="spacing" textLength="22.6641" x="79.7085" y="863.2461">[08]</text><text fill="#C9D1D9" font-family="'Segoe UI, Inter, sans-serif'" font-size="12" lengthAdjust="spacing" textLength="120.7441" x="126.3726" y="863.2461">400 Bad Request JSON</text></g><rect fill="#EEEEEE" height="3" rx="6" ry="6" style="stroke:#EEEEEE;stroke-width:1;" width="1224.7383" x="0" y="918.5684"/><line style="stroke:#000000;stroke-width:1;" x1="0" x2="1224.7383" y1="918.5684" y2="918.5684"/><line style="stroke:#000000;stroke-width:1;" x1="0" x2="1224.7383" y1="921.5684" y2="921.5684"/><rect fill="#EEEEEE" height="46.6211" rx="6" ry="6" style="stroke:#000000;stroke-width:2;" width="423.252" x="400.7432" y="896.2578"/><text fill="#E6EDF3" font-family="'Segoe UI, Inter, sans-serif'" font-size="14" font-weight="bold" lengthAdjust="spacing" textLength="385.3896" x="416.7432" y="925.3652">Scenario 2: Unexpected System Error (Exception Handling)</text><g class="message" data-entity-1="part1" data-entity-2="part2" id="msg9"><polygon fill="#8B949E" points="363.37,990.8398,373.37,994.8398,363.37,998.8398,367.37,994.8398" style="stroke:#8B949E;stroke-width:1;"/><line style="stroke:#8B949E;stroke-width:1.5;" x1="52.7085" x2="369.37" y1="994.8398" y2="994.8398"/><text fill="#C9D1D9" font-family="'Segoe UI, Inter, sans-serif'" font-size="12" font-weight="bold" lengthAdjust="spacing" textLength="22.6641" x="69.7085" y="979.8281">[09]</text><text fill="#C9D1D9" font-family="'Segoe UI, Inter, sans-serif'" font-size="12" lengthAdjust="spacing" textLength="73.8457" x="116.3726" y="979.8281">HTTP Request</text></g><g class="message" data-entity-1="part2" data-entity-2="part3" id="msg10"><polygon fill="#8B949E" points="586.5508,1040.8008,596.5508,1044.8008,586.5508,1048.8008,590.5508,1044.8008" style="stroke:#8B949E;stroke-width:1;"/><line style="stroke:#8B949E;stroke-width:1.5;" x1="385.37" x2="592.5508" y1="1044.8008" y2="1044.8008"/><text fill="#C9D1D9" font-family="'Segoe UI, Inter, sans-serif'" font-size="12" font-weight="bold" lengthAdjust="spacing" textLength="22.6641" x="402.37" y="1029.7891">[10]</text><text fill="#C9D1D9" font-family="'Segoe UI, Inter, sans-serif'" font-size="12" lengthAdjust="spacing" textLength="89.1094" x="449.034" y="1029.7891">Forward Request</text></g><g class="message" data-entity-1="part3" data-entity-2="part4" id="msg11"><polygon fill="#8B949E" points="875.1426,1090.7617,885.1426,1094.7617,875.1426,1098.7617,879.1426,1094.7617" style="stroke:#8B949E;stroke-width:1;"/><line style="stroke:#8B949E;stroke-width:1.5;" x1="608.5508" x2="881.1426" y1="1094.7617" y2="1094.7617"/><text fill="#C9D1D9" font-family="'Segoe UI, Inter, sans-serif'" font-size="12" font-weight="bold" lengthAdjust="spacing" textLength="22.6641" x="625.5508" y="1079.75">[11]</text><text fill="#C9D1D9" font-family="'Segoe UI, Inter, sans-serif'" font-size="12" lengthAdjust="spacing" textLength="77.8945" x="672.2148" y="1079.75">Execute Action</text></g><g class="message" data-entity-1="part4" data-entity-2="part5" id="msg12"><polygon fill="#8B949E" points="1060.8203,1140.7227,1070.8203,1144.7227,1060.8203,1148.7227,1064.8203,1144.7227" style="stroke:#8B949E;stroke-width:1;"/><line style="stroke:#8B949E;stroke-width:1.5;" x1="897.1426" x2="1066.8203" y1="1144.7227" y2="1144.7227"/><text fill="#C9D1D9" font-family="'Segoe UI, Inter, sans-serif'" font-size="12" font-weight="bold" lengthAdjust="spacing" textLength="22.6641" x="914.1426" y="1129.7109">[12]</text><text fill="#C9D1D9" font-family="'Segoe UI, Inter, sans-serif'" font-size="12" lengthAdjust="spacing" textLength="60.0703" x="960.8066" y="1129.7109">Query Data</text></g><path d="M1087,1163.7227 L1087,1210.7227 A6,6 0 0 0 1093,1216.7227 L1213,1216.7227 A6,6 0 0 0 1219,1210.7227 L1219,1167.7227 L1209,1157.7227 L1093,1157.7227 A6,6 0 0 0 1087,1163.7227" fill="#21262D" style="stroke:#F85149;stroke-width:0.5;"/><path d="M1209,1157.7227 L1209,1164.7227 A3,3 0 0 0 1212,1167.7227 L1219,1167.7227 L1209,1157.7227" fill="#21262D" style="stroke:#F85149;stroke-width:0.5;"/><text fill="#C9D1D9" font-family="'Segoe UI, Inter, sans-serif'" font-size="11" lengthAdjust="spacing" textLength="86.147" x="1103" y="1184.5928">Database timeout</text><text fill="#C9D1D9" font-family="'Segoe UI, Inter, sans-serif'" font-size="11" lengthAdjust="spacing" textLength="91.7383" x="1103" y="1199.2236">or connection loss!</text><g class="message" data-entity-1="part5" data-entity-2="part4" id="msg13"><line style="stroke:#F85149;stroke-width:2;" x1="904.1426" x2="914.1426" y1="1258.9453" y2="1268.9453"/><line style="stroke:#F85149;stroke-width:2;" x1="904.1426" x2="914.1426" y1="1268.9453" y2="1258.9453"/><line style="stroke:#F85149;stroke-width:1.5;" x1="909.1426" x2="1076.8203" y1="1263.9453" y2="1263.9453"/><text fill="#C9D1D9" font-family="'Segoe UI, Inter, sans-serif'" font-size="12" font-weight="bold" lengthAdjust="spacing" textLength="22.6641" x="924.1426" y="1248.9336">[13]</text><text fill="#C9D1D9" font-family="'Segoe UI, Inter, sans-serif'" font-size="12" lengthAdjust="spacing" textLength="71.0039" x="970.8066" y="1248.9336">SqlException!</text></g><g class="message" data-entity-1="part4" data-entity-2="part3" id="msg14"><line style="stroke:#F85149;stroke-width:2;" x1="615.5508" x2="625.5508" y1="1308.9063" y2="1318.9063"/><line style="stroke:#F85149;stroke-width:2;" x1="615.5508" x2="625.5508" y1="1318.9063" y2="1308.9063"/><line style="stroke:#F85149;stroke-width:1.5;" x1="620.5508" x2="891.1426" y1="1313.9063" y2="1313.9063"/><text fill="#C9D1D9" font-family="'Segoe UI, Inter, sans-serif'" font-size="12" font-weight="bold" lengthAdjust="spacing" textLength="22.6641" x="635.5508" y="1298.8945">[14]</text><text fill="#C9D1D9" font-family="'Segoe UI, Inter, sans-serif'" font-size="12" lengthAdjust="spacing" textLength="112.5703" x="682.2148" y="1298.8945">Unhandled Exception</text></g><g class="message" data-entity-1="part3" data-entity-2="part2" id="msg15"><line style="stroke:#F85149;stroke-width:2;" x1="392.37" x2="402.37" y1="1358.8672" y2="1368.8672"/><line style="stroke:#F85149;stroke-width:2;" x1="392.37" x2="402.37" y1="1368.8672" y2="1358.8672"/><line style="stroke:#F85149;stroke-width:1.5;" x1="397.37" x2="602.5508" y1="1363.8672" y2="1363.8672"/><text fill="#C9D1D9" font-family="'Segoe UI, Inter, sans-serif'" font-size="12" font-weight="bold" lengthAdjust="spacing" textLength="22.6641" x="412.37" y="1348.8555">[15]</text><text fill="#C9D1D9" font-family="'Segoe UI, Inter, sans-serif'" font-size="12" lengthAdjust="spacing" textLength="112.5703" x="459.034" y="1348.8555">Unhandled Exception</text></g><path d="M295,1382.8672 L295,1458.8672 A6,6 0 0 0 301,1464.8672 L457,1464.8672 A6,6 0 0 0 463,1458.8672 L463,1386.8672 L453,1376.8672 L301,1376.8672 A6,6 0 0 0 295,1382.8672" fill="#21262D" style="stroke:#F85149;stroke-width:0.5;"/><path d="M453,1376.8672 L453,1383.8672 A3,3 0 0 0 456,1386.8672 L463,1386.8672 L453,1376.8672" fill="#21262D" style="stroke:#F85149;stroke-width:0.5;"/><text fill="#F85149" font-family="'Segoe UI, Inter, sans-serif'" font-size="11" lengthAdjust="spacing" textLength="116.7085" x="311" y="1403.7373">GlobalExceptionHandler</text><text fill="#C9D1D9" font-family="'Segoe UI, Inter, sans-serif'" font-size="11" lengthAdjust="spacing" textLength="126.4785" x="311" y="1418.3682">Catches unhandled errors.</text><text fill="#C9D1D9" font-family="'Segoe UI, Inter, sans-serif'" font-size="11" lengthAdjust="spacing" textLength="122.0044" x="311" y="1432.999">Logs stack trace securely.</text><text fill="#C9D1D9" font-family="'Segoe UI, Inter, sans-serif'" font-size="11" lengthAdjust="spacing" textLength="127.8159" x="311" y="1447.6299">Generates ProblemDetails.</text><g class="message" data-entity-1="part2" data-entity-2="part2" id="msg16"><line style="stroke:#8B949E;stroke-width:1.5;" x1="385.37" x2="427.37" y1="1512.3516" y2="1512.3516"/><line style="stroke:#8B949E;stroke-width:1.5;" x1="427.37" x2="427.37" y1="1512.3516" y2="1525.3516"/><line style="stroke:#8B949E;stroke-width:1.5;" x1="386.37" x2="427.37" y1="1525.3516" y2="1525.3516"/><polygon fill="#8B949E" points="396.37,1521.3516,386.37,1525.3516,396.37,1529.3516,392.37,1525.3516" style="stroke:#8B949E;stroke-width:1;"/><text fill="#C9D1D9" font-family="'Segoe UI, Inter, sans-serif'" font-size="12" font-weight="bold" lengthAdjust="spacing" textLength="22.6641" x="402.37" y="1497.3398">[16]</text><text fill="#C9D1D9" font-family="'Segoe UI, Inter, sans-serif'" font-size="12" lengthAdjust="spacing" textLength="104.0566" x="449.034" y="1497.3398">LogError(exception)</text></g><g class="message" data-entity-1="part2" data-entity-2="part1" id="msg17"><polygon fill="#8B949E" points="63.7085,1587.2734,53.7085,1591.2734,63.7085,1595.2734,59.7085,1591.2734" style="stroke:#8B949E;stroke-width:1;"/><line style="stroke:#8B949E;stroke-width:1.5;stroke-dasharray:2,2;" x1="57.7085" x2="379.37" y1="1591.2734" y2="1591.2734"/><text fill="#C9D1D9" font-family="'Segoe UI, Inter, sans-serif'" font-size="12" font-weight="bold" lengthAdjust="spacing" textLength="22.6641" x="79.7085" y="1568.2813">[17]</text><text fill="#C9D1D9" font-family="'Segoe UI, Inter, sans-serif'" font-size="12" lengthAdjust="spacing" textLength="128.2031" x="126.3726" y="1560.3008">500 Internal Server Error</text><text fill="#C9D1D9" font-family="'Segoe UI, Inter, sans-serif'" font-size="12" lengthAdjust="spacing" textLength="222.5918" x="126.3726" y="1576.2617">(ProblemDetails JSON without stack trace)</text></g><text fill="#E6EDF3" font-family="'Segoe UI, Inter, sans-serif'" font-size="10" lengthAdjust="spacing" textLength="216.4844" x="997.2539" y="25.791">Clinic Management System - Error Handling Flow</text><text fill="#E6EDF3" font-family="'Segoe UI, Inter, sans-serif'" font-size="10" lengthAdjust="spacing" textLength="201.7139" x="511.0122" y="1733.6855">Sprint 6 &#8212; Two-Layer Error Handling Strategy</text><?plantuml-src rLPjR-964FxkNp59f1n8nvkJq0iYI07CaIhaQ25LfUDqMkm9h6fsVRlh97phZ-Wlx2_fxDhOaAIjTFtKVCCpyypCCy_CvXtKlk_FUmSZ7cC7D7vBKOHOJz9DJ5-_7s-QgaHg180Ep79K-FFtFo1GIYeOCn75NAnW5CidShzbMrG0pdqeGmsL-ybjbGpNgLbBbHacSiqs6C5rpCaoKCWC_R8Ml-ctQyspMkkI3BD4SM6oaBRBEPKnrsiuXPzH6vM69bNu7xhpZY9yu0BXVXPy7TpFvfycN-VZO19uHro4SHeXrEkDK8e7lcfeiurpFZt3JOp_ICSf3AJGN1jos48bRwLTzQZSgwih62EBK3L6KXhYYxvuQ_S51XJEGvWmmLQuGGgQRGbb0xKt6N_807RuhfJvawnbStWHCJEAc5vjTqLyZEMInTI7CMJMhWoM6YdIpPAYZxlBtkTcyqktiUmTxsAcJ1aUyeG9es6vpGTk8vVo6OwfV5kp-teC9wrsg-_xdfqX2usqcA6CfUgS1ErWE3hhTKyJL5gANhVX33t848w1QHZStWHtSmz510JkPHckfpS5V7FOQhL-SF19MLUPPFJXedL-IKdqccCSbKcopeFd41F3fN0CMKHA6eoXsuNAv7qUNOK9ZyZwn1H2h_VtoIu-NBT78qeMobMPAH1H8casEWE_6quj_8I6l27gRJE4UTZXG5AcDnXyC-lPg7zvqNoPjPzgqhNMD5lro4DqoMU_36pk_DEkbuWPjcIquGNaqB-yz7s2N3CLrIB57x547lOTrh1V5asgc8KecE8IMXq8dXCCxK8NHMGohD3Ifh4X1HcIhAYIQ3ml6p7KUfRt3epdyoajD-sLDXufXZ-IOCdaaTNwMFewC9AAfX6zuKXsppcHistNLeDXIgRhq0wwT2MhvrcNcks977zAKMrXI6oKJjGbsMebs2OnMsZOtNw8UMYy2FTzFK7B2FBHBYJvd_Wjl-qFE_22s4CUTimkH44SMhuqAAJx9XOYyw-F68_ftW4NT0zOj13o0SnQoIUxshYJigxdRPLq7SPNt3I6QEYdVW_dpMRZl7bUtM_5SLFsuc2APdQ2XWrBDDpe77OXZ0HjQ97iP7wSVRgZ-dL21I5LbCraDsNA2NrMpcylTJR1iVFDjV7Atw4V18qFHUXtu5xWZityVkOYB7Q-E8l_4o6wUIY-MXlwrN5sjxQ6Rr2cXkIWW9ugWGuVOgdraLFlv_oGVVarhsJshRnyHoybx2hP2yaxlHThToCZA49VAIRhTpzs_E-HZgbziOrVxqr-njy-skN-39W9rwWXBJ9cYrHVY5j9pnkfC_mDw0sauwTf60hZBTa-ea3xBcgOAhcCSPFlXfNjk1048JW5LOfDgxxIwGNfz4ROfNQlgdhSFS4BKJd4pXRaYTF_HAdPBwpwGjT_0G00?></g></svg>