<?plantuml 1.2026.2?><svg xmlns="http://www.w3.org/2000/svg" xmlns:xlink="http://www.w3.org/1999/xlink" contentStyleType="text/css" data-diagram-type="DESCRIPTION" height="764px" preserveAspectRatio="none" style="width:1046px;height:764px;background:#0D1117;" version="1.1" viewBox="0 0 1046 764" width="1046px" zoomAndPan="magnify"><title>Use Case &#8212; Authentication &amp; Authorization (Sprint 2)</title><defs/><g><rect fill="#0D1117" height="764" style="stroke:none;stroke-width:1;" width="1046" x="0" y="0"/><g class="header" data-source-line="17"><text fill="#E6EDF3" font-family="'Segoe UI, Inter, sans-serif'" font-size="10" lengthAdjust="spacing" textLength="195.2051" x="826.7949" y="20.791">Clinic Management System - Security Model</text></g><g class="title" data-source-line="14"><text fill="#E6EDF3" font-family="'Segoe UI, Inter, sans-serif'" font-size="14" font-weight="bold" lengthAdjust="spacing" textLength="354.5391" x="338.7305" y="69.4082">Use Case &#8212; Authentication &amp; Authorization (Sprint 2)</text></g><!--cluster ClinicManagementAPI--><g class="cluster" data-qualified-name="ClinicManagementAPI" data-source-line="32" id="ent0007"><path d="M513,255.4219 L694.125,255.4219 A9,9 0 0 1 700.125,261.4219 L707.125,302.7031 L1033,302.7031 A6,6 0 0 1 1039,308.7031 L1039,687.4219 A6,6 0 0 1 1033,693.4219 L513,693.4219 A6,6 0 0 1 507,687.4219 L507,261.4219 A6,6 0 0 1 513,255.4219" fill="#0D1117" style="stroke:#30363D;stroke-width:1.5;"/><line style="stroke:#30363D;stroke-width:1.5;" x1="507" x2="707.125" y1="302.7031" y2="302.7031"/><text fill="#58A6FF" font-family="'Segoe UI, Inter, sans-serif'" font-size="16" font-weight="bold" lengthAdjust="spacing" textLength="167.125" x="521" y="284.6875">ClinicManagementAPI</text></g><!--entity UC_REG--><g class="entity" data-qualified-name="ClinicManagementAPI.UC_REG" data-source-line="34" id="ent0008"><ellipse cx="612.5065" cy="576.6673" fill="#161B22" rx="81.0065" ry="22.2454" style="stroke:#A371F7;stroke-width:1.5;"/><text fill="#E6EDF3" font-family="'Segoe UI, Inter, sans-serif'" font-size="14" lengthAdjust="spacing" textLength="136.541" x="544.236" y="582.4778">Register New Account</text></g><!--entity UC_LOG--><g class="entity" data-qualified-name="ClinicManagementAPI.UC_LOG" data-source-line="35" id="ent0009"><ellipse cx="612.3474" cy="655.4957" fill="#161B22" rx="60.3474" ry="21.5738" style="stroke:#A371F7;stroke-width:1.5;"/><text fill="#E6EDF3" font-family="'Segoe UI, Inter, sans-serif'" font-size="14" lengthAdjust="spacing" textLength="99.2441" x="562.7253" y="661.3062">Login to System</text></g><!--entity UC_OUT--><g class="entity" data-qualified-name="ClinicManagementAPI.UC_OUT" data-source-line="36" id="ent0010"><ellipse cx="612.5247" cy="496.3606" fill="#161B22" rx="89.5247" ry="22.4387" style="stroke:#A371F7;stroke-width:1.5;"/><text fill="#E6EDF3" font-family="'Segoe UI, Inter, sans-serif'" font-size="14" lengthAdjust="spacing" textLength="151.9082" x="536.5706" y="502.1712">Logout / Revoke Session</text></g><!--entity UC_REF--><g class="entity" data-qualified-name="ClinicManagementAPI.UC_REF" data-source-line="37" id="ent0011"><ellipse cx="612.3812" cy="337.6131" fill="#161B22" rx="78.8812" ry="22.1912" style="stroke:#A371F7;stroke-width:1.5;"/><text fill="#E6EDF3" font-family="'Segoe UI, Inter, sans-serif'" font-size="14" lengthAdjust="spacing" textLength="132.7061" x="546.0282" y="343.4236">Refresh Access Token</text></g><!--entity UC_ROLE--><g class="entity" data-qualified-name="ClinicManagementAPI.UC_ROLE" data-source-line="39" id="ent0012"><ellipse cx="612.3123" cy="416.2104" fill="#161B22" rx="65.8123" ry="21.7885" style="stroke:#A371F7;stroke-width:1.5;"/><text fill="#E6EDF3" font-family="'Segoe UI, Inter, sans-serif'" font-size="14" lengthAdjust="spacing" textLength="109.1152" x="557.7547" y="422.0209">Assign User Roles</text></g><!--entity UC_TOK--><g class="entity" data-qualified-name="ClinicManagementAPI.UC_TOK" data-source-line="40" id="ent0013"><ellipse cx="933.7895" cy="471.3453" fill="#161B22" rx="88.7895" ry="22.4234" style="stroke:#A371F7;stroke-width:1.5;"/><text fill="#E6EDF3" font-family="'Segoe UI, Inter, sans-serif'" font-size="14" lengthAdjust="spacing" textLength="150.582" x="858.4984" y="477.1558">Manage Security Tokens</text></g><!--entity GUEST--><g class="entity" data-qualified-name="GUEST" data-source-line="24" id="ent0002"><ellipse cx="264.2803" cy="636.543" fill="#3FB950" rx="16" ry="16" style="stroke:#3FB950;stroke-width:0.5;"/><path d="M264.2803,656.543 C268.2803,656.543 271.2803,656.543 275.2803,652.543 C283.2803,652.543 291.2803,660.543 291.2803,668.543 L291.2803,672.543 C291.2803,676.543 287.2803,680.543 283.2803,680.543 L245.2803,680.543 C241.2803,680.543 237.2803,676.543 237.2803,672.543 L237.2803,668.543 C237.2803,660.543 245.2803,652.543 253.2803,652.543 C257.2803,656.543 260.2803,656.543 264.2803,656.543" fill="#3FB950"/><path d="M217.1667,691.043 C215.8833,691.043 214.8333,692.3496 214.8333,693.9596 C214.8333,695.5696 215.8833,696.8763 217.1667,696.8763 C218.45,696.8763 219.5,695.5696 219.5,693.9596 C219.5,692.3496 218.45,691.043 217.1667,691.043 M214.7283,696.8763 C213.4917,696.9346 212.5,697.9496 212.5,699.2096 L212.5,700.3763 L221.8333,700.3763 L221.8333,699.2096 C221.8333,697.9496 220.8533,696.9346 219.605,696.8763 C218.975,697.588 218.1117,698.043 217.1667,698.043 C216.2217,698.043 215.3583,697.588 214.7283,696.8763" fill="#E6EDF3"/><text fill="#0D1117" font-family="'Segoe UI, Inter, sans-serif'" font-size="14" lengthAdjust="spacing" textLength="105.5605" x="211.5" y="715.4837">Anonymous User</text><text fill="#0D1117" font-family="'Segoe UI, Inter, sans-serif'" font-size="14" font-style="italic" lengthAdjust="spacing" textLength="59.5889" x="234.4858" y="606.5293">&#171;Human&#187;</text></g><!--entity USER--><g class="entity" data-qualified-name="USER" data-source-line="25" id="ent0003"><ellipse cx="65.2402" cy="346.543" fill="#3FB950" rx="16" ry="16" style="stroke:#3FB950;stroke-width:0.5;"/><path d="M65.2402,366.543 C69.2402,366.543 72.2402,366.543 76.2402,362.543 C84.2402,362.543 92.2402,370.543 92.2402,378.543 L92.2402,382.543 C92.2402,386.543 88.2402,390.543 84.2402,390.543 L46.2402,390.543 C42.2402,390.543 38.2402,386.543 38.2402,382.543 L38.2402,378.543 C38.2402,370.543 46.2402,362.543 54.2402,362.543 C58.2402,366.543 61.2402,366.543 65.2402,366.543" fill="#3FB950"/><path d="M11.6667,401.043 C10.3833,401.043 9.3333,402.3496 9.3333,403.9596 C9.3333,405.5696 10.3833,406.8763 11.6667,406.8763 C12.95,406.8763 14,405.5696 14,403.9596 C14,402.3496 12.95,401.043 11.6667,401.043 M9.2283,406.8763 C7.9917,406.9346 7,407.9496 7,409.2096 L7,410.3763 L16.3333,410.3763 L16.3333,409.2096 C16.3333,407.9496 15.3533,406.9346 14.105,406.8763 C13.475,407.588 12.6117,408.043 11.6667,408.043 C10.7217,408.043 9.8583,407.588 9.2283,406.8763" fill="#3FB950"/><text fill="#0D1117" font-family="'Segoe UI, Inter, sans-serif'" font-size="14" lengthAdjust="spacing" textLength="118.4805" x="6" y="425.4837">Authenticated User</text><text fill="#0D1117" font-family="'Segoe UI, Inter, sans-serif'" font-size="14" font-style="italic" lengthAdjust="spacing" textLength="59.5889" x="35.4458" y="316.5293">&#171;Human&#187;</text></g><!--entity ADMIN--><g class="entity" data-qualified-name="ADMIN" data-source-line="26" id="ent0004"><ellipse cx="264.2632" cy="346.543" fill="#3FB950" rx="16" ry="16" style="stroke:#3FB950;stroke-width:0.5;"/><path d="M264.2632,366.543 C268.2632,366.543 271.2632,366.543 275.2632,362.543 C283.2632,362.543 291.2632,370.543 291.2632,378.543 L291.2632,382.543 C291.2632,386.543 287.2632,390.543 283.2632,390.543 L245.2632,390.543 C241.2632,390.543 237.2632,386.543 237.2632,382.543 L237.2632,378.543 C237.2632,370.543 245.2632,362.543 253.2632,362.543 C257.2632,366.543 260.2632,366.543 264.2632,366.543" fill="#3FB950"/><path d="M227.6667,401.043 L226.5,404.543 L223,404.543 L225.9167,406.8763 L224.75,410.3763 L227.6667,408.043 L230.5833,410.3763 L229.4167,406.8763 L232.3333,404.543 L228.8333,404.543 L227.6667,401.043" fill="#A371F7"/><text fill="#0D1117" font-family="'Segoe UI, Inter, sans-serif'" font-size="14" lengthAdjust="spacing" textLength="84.5264" x="222" y="425.4837">Administrator</text><text fill="#0D1117" font-family="'Segoe UI, Inter, sans-serif'" font-size="14" font-style="italic" lengthAdjust="spacing" textLength="59.5889" x="234.4688" y="316.5293">&#171;Human&#187;</text></g><g class="entity" data-qualified-name="GMN21" data-source-line="61" id="ent0022"><path d="M512,185.9219 L512,233.1836 A6,6 0 0 0 518,239.1836 L608.5,239.1836 L612.5,315.4219 L616.5,239.1836 L706.9351,239.1836 A6,6 0 0 0 712.9351,233.1836 L712.9351,189.9219 L702.9351,179.9219 L518,179.9219 A6,6 0 0 0 512,185.9219" fill="#21262D" style="stroke:#F85149;stroke-width:0.5;"/><path d="M702.9351,179.9219 L702.9351,186.9219 A3,3 0 0 0 705.9351,189.9219 L712.9351,189.9219 L702.9351,179.9219" fill="#21262D" style="stroke:#F85149;stroke-width:0.5;"/><text fill="#C9D1D9" font-family="'Segoe UI, Inter, sans-serif'" font-size="11" lengthAdjust="spacing" textLength="159.9351" x="528" y="206.792">Automatically triggered by Client</text><text fill="#C9D1D9" font-family="'Segoe UI, Inter, sans-serif'" font-size="11" lengthAdjust="spacing" textLength="86.3188" x="528" y="221.4229">when JWT expires</text></g><g class="entity" data-qualified-name="GMN24" data-source-line="66" id="ent0025"><path d="M535,105.9219 L535,138.5527 A6,6 0 0 0 541,144.5527 L683.8081,144.5527 A6,6 0 0 0 689.8081,138.5527 L689.8081,109.9219 L679.8081,99.9219 L541,99.9219 A6,6 0 0 0 535,105.9219" fill="#21262D" style="stroke:#F85149;stroke-width:0.5;"/><path d="M679.8081,99.9219 L679.8081,106.9219 A3,3 0 0 0 682.8081,109.9219 L689.8081,109.9219 L679.8081,99.9219" fill="#21262D" style="stroke:#F85149;stroke-width:1;"/><text fill="#C9D1D9" font-family="'Segoe UI, Inter, sans-serif'" font-size="11" lengthAdjust="spacing" textLength="113.8081" x="551" y="126.792">New users are assigned</text></g><!--reverse link USER to ADMIN--><g class="link" data-entity-1="ent0003" data-entity-2="ent0004" data-link-type="extension" data-source-line="29" id="lnk6"><path d="M152.24,365.4219 C177.67,365.4219 188.08,365.4219 211.78,365.4219" fill="none" id="USER-backto-ADMIN" style="stroke:#8B949E;stroke-width:1.5;"/><polygon fill="none" points="134.24,365.4219,152.24,371.4219,152.24,359.4219,134.24,365.4219" style="stroke:#8B949E;stroke-width:1.5;"/></g><!--link GUEST to UC_REG--><g class="link" data-entity-1="ent0002" data-entity-2="ent0008" data-link-type="dependency" data-source-line="46" id="lnk14"><path d="M327.6,628.4819 C339.52,623.9819 352.03,619.7119 364,616.4219 C420.97,600.7419 481.1565,591.1877 530.7265,584.9777" fill="none" id="GUEST-to-UC_REG" style="stroke:#8B949E;stroke-width:1.5;"/><polygon fill="#8B949E" points="536.68,584.2319,527.2526,581.3817,531.7188,584.8534,528.247,589.3196,536.68,584.2319" style="stroke:#8B949E;stroke-width:1.5;"/><text fill="#C9D1D9" font-family="'Segoe UI, Inter, sans-serif'" font-size="12" lengthAdjust="spacing" textLength="58.7227" x="393.7871" y="579.3711">(1) Sign Up</text></g><!--link GUEST to UC_LOG--><g class="link" data-entity-1="ent0002" data-entity-2="ent0009" data-link-type="dependency" data-source-line="47" id="lnk15"><path d="M327.76,656.8819 C339.79,657.1019 352.28,657.3019 364,657.4219 C416.44,657.9519 429.56,657.8219 482,657.4219 C504.82,657.2419 523.9008,656.9902 545.8708,656.6302" fill="none" id="GUEST-to-UC_LOG" style="stroke:#8B949E;stroke-width:1.5;"/><polygon fill="#8B949E" points="551.87,656.5319,542.8057,652.6799,546.8707,656.6138,542.9367,660.6788,551.87,656.5319" style="stroke:#8B949E;stroke-width:1.5;"/><text fill="#C9D1D9" font-family="'Segoe UI, Inter, sans-serif'" font-size="12" lengthAdjust="spacing" textLength="76.084" x="385.2871" y="644.3711">(2) Credentials</text></g><!--link USER to UC_REF--><g class="link" data-entity-1="ent0003" data-entity-2="ent0011" data-link-type="dependency" data-source-line="50" id="lnk16"><path d="M134.34,304.9819 C152.82,292.0619 173.65,280.2519 195,273.4219 C327.91,230.8819 488.4472,284.9747 564.4772,316.4847" fill="none" id="USER-to-UC_REF" style="stroke:#8B949E;stroke-width:1.5;"/><polygon fill="#8B949E" points="570.02,318.7819,563.2372,311.6409,565.401,316.8676,560.1743,319.0313,570.02,318.7819" style="stroke:#8B949E;stroke-width:1.5;"/><text fill="#C9D1D9" font-family="'Segoe UI, Inter, sans-serif'" font-size="12" lengthAdjust="spacing" textLength="110.6777" x="209.2871" y="245.3711">(3) Keep Token Fresh</text></g><!--link USER to UC_OUT--><g class="link" data-entity-1="ent0003" data-entity-2="ent0010" data-link-type="dependency" data-source-line="51" id="lnk17"><path d="M121.73,439.6219 C142.17,461.0919 167.18,481.8419 195,493.4219 C310,541.2819 452.8919,527.1379 537.9519,512.0779" fill="none" id="USER-to-UC_OUT" style="stroke:#8B949E;stroke-width:1.5;"/><polygon fill="#8B949E" points="543.86,511.0319,534.3005,508.6622,538.9366,511.9036,535.6952,516.5397,543.86,511.0319" style="stroke:#8B949E;stroke-width:1.5;"/><text fill="#C9D1D9" font-family="'Segoe UI, Inter, sans-serif'" font-size="12" lengthAdjust="spacing" textLength="79.7754" x="224.7871" y="480.3711">(4) End Session</text></g><!--link ADMIN to UC_ROLE--><g class="link" data-entity-1="ent0004" data-entity-2="ent0012" data-link-type="dependency" data-source-line="54" id="lnk18"><path d="M317.3,373.0619 C380.08,382.3119 479.7041,396.997 545.8541,406.747" fill="none" id="ADMIN-to-UC_ROLE" style="stroke:#8B949E;stroke-width:1.5;"/><polygon fill="#8B949E" points="551.79,407.6219,543.4695,402.3523,546.8434,406.8928,542.3029,410.2668,551.79,407.6219" style="stroke:#8B949E;stroke-width:1.5;"/><text fill="#C9D1D9" font-family="'Segoe UI, Inter, sans-serif'" font-size="12" lengthAdjust="spacing" textLength="89.7012" x="378.2871" y="368.3711">(5) Promote User</text></g><!--link UC_LOG to UC_TOK--><g class="link" data-entity-1="ent0009" data-entity-2="ent0013" data-link-type="dependency" data-source-line="57" id="lnk19"><path d="M656.98,640.6319 C674.72,634.0219 695.21,625.6419 713,616.4219 C785.5,578.8519 859.0314,526.7569 899.8314,496.4869" fill="none" id="UC_LOG-to-UC_TOK" style="stroke:#8B949E;stroke-width:1.5;stroke-dasharray:7,7;"/><polygon fill="#8B949E" points="904.65,492.9119,895.0387,495.062,900.6345,495.891,899.8054,501.4868,904.65,492.9119" style="stroke:#8B949E;stroke-width:1.5;"/><text fill="#C9D1D9" font-family="'Segoe UI, Inter, sans-serif'" font-size="12" lengthAdjust="spacing" textLength="50.4199" x="754" y="544.3711">&#171;include&#187;</text></g><!--link UC_REF to UC_TOK--><g class="link" data-entity-1="ent0011" data-entity-2="ent0013" data-link-type="dependency" data-source-line="58" id="lnk20"><path d="M659.7,355.1519 C676.53,361.7119 695.67,369.2919 713,376.4219 C774.36,401.6819 839.1698,429.9316 883.4498,449.4516" fill="none" id="UC_REF-to-UC_TOK" style="stroke:#8B949E;stroke-width:1.5;stroke-dasharray:7,7;"/><polygon fill="#8B949E" points="888.94,451.8719,882.3182,444.5814,884.3648,449.855,879.0912,451.9016,888.94,451.8719" style="stroke:#8B949E;stroke-width:1.5;"/><text fill="#C9D1D9" font-family="'Segoe UI, Inter, sans-serif'" font-size="12" lengthAdjust="spacing" textLength="50.4199" x="754" y="376.3711">&#171;include&#187;</text></g><!--link UC_REG to GMN24--><g class="link" data-entity-1="ent0008" data-entity-2="ent0025" data-link-type="association" data-source-line="66" id="lnk26"><path d="M531.43,574.4719 C490.04,568.8319 442.96,554.2619 416.5,518.9219 C326.19,398.3219 326.19,300.5219 416.5,179.9219 C443.71,143.5919 492.71,129.2119 534.9,123.9219" fill="none" id="UC_REG-GMN24" style="stroke:#8B949E;stroke-width:1.5;stroke-dasharray:7,7;"/></g><g class="footer" data-source-line="18"><text fill="#E6EDF3" font-family="'Segoe UI, Inter, sans-serif'" font-size="10" lengthAdjust="spacing" textLength="129.1309" x="451.4346" y="743.7747">Auth Module Documentation</text></g><?plantuml-src fLNRRXf947sVhwXWAJOF0mOIMq4O2SECxGq4n4NxifBLdYcWbPdkKNTFlBERIFc8VE5-oLRtC62oRAJD-i4stNLETPsgKvo3_tC_tZc4FC4kv1eZfh6HvMb2XpzFDyjL9ZK2G1TMz7T8hF3NrsymoCqMXU4HCrmAUEqEfE9_kC-47BC25O13ZcIauM8r6TVfeWmiBoPoorACOP1mkXagP8O-sPlsPVlAl-puhJTqiSWK5wQ4j4-a_nybUgzYN7E1i5e4ZyFLOZcTF2xlWqdWlU8YIl8OeT5eHbAi-QQfJP7iHFKCDmd-5qtWObT6k-xHWszkRk0UMOog6KffI2iwyRRk18O95po22HDiWobnmgBG1bFmOO5HhhWfIBiO4szTOcqcUvBJcqZjt69AQNQfg1qo9neqXekDTiaIN1im4XJVR0t4N67q4ZA8Z5Hb9BF_GgqNoKIgxbbm5Op2Jh_tEaEbfUZtckwY_viO22cALERQAgDgm3JShOB54dezkCzJ9g3V_vwj4zw-UtjvakqWA8t5df5QDVyHuQ1ptGglYL0RfbxInId9gerY5EwO1gF9muSZAghzGMoH56OY8YSv330Hmupqj9rW2i4K6MgGQ_Zd2xLNalfvvd_kkxTMWkvwU2jp4JDLE6Kp5dsa7aEjRFcXuuFPGmtEBaUjLkiQ_lJiyBjVEsj3ROuRgeLw_m6VgLSHiPfIdk7ZFBY3izPLwxRTFWQDvORAePwNRwdYnzD_ZxTZquGvVf8VaUP7QngH2ZTTBK_ZvhXMgBVsNOI09M75uN7X4UWOEQ046-6aXBbCKEzXqt5mEbafsi4PBjiUjvo-tyE-LAsOO-BieRSyezKqKzAzCqpaSztrXU8kMdwx3iijmbGyIQPYCWu4mb3dPfACx9MJxVlzIl8kr0XLXuMh88FQSOXLsOKGBUsws0uEIpI5sMmT_qszqfUSJmbGs1dqtBZliuGbHQSExn6pibO8dTYrer3R6nTAj07DRqLTPdjRXnTsu9_mnRAf9dYNqkhkY0X3GgMqSChsr4gtq0mAbbJJFS8C1PKMSTJUhkX6erzreclTLcrMyjkkfXz4UC8cV9B6oDHQhaIu2I3toPHPzoL90ORss0P9LtWgx0QrbTYePt8e_FBh4l3tZ7QSzkXzO4bFKzyva3LLRkti_CxSK6Bihivtc-0S5CsdJKPV8InFp87uRm00?></g></svg>