<?plantuml 1.2026.2?><svg xmlns="http://www.w3.org/2000/svg" xmlns:xlink="http://www.w3.org/1999/xlink" contentStyleType="text/css" data-diagram-type="DESCRIPTION" height="1600px" preserveAspectRatio="none" style="width:2166px;height:1600px;background:#0D1117;" version="1.1" viewBox="0 0 2166 1600" width="2166px" zoomAndPan="magnify"><title>Component &#8212; Doctor CRUD &amp; Architecture Overview (Sprint 4)</title><defs/><g><rect fill="#0D1117" height="1600" style="stroke:none;stroke-width:1;" width="2166" x="0" y="0"/><g class="header" data-source-line="17"><text fill="#E6EDF3" font-family="'Segoe UI, Inter, sans-serif'" font-size="10" lengthAdjust="spacing" textLength="226.2012" x="1916.7826" y="20.791">Clinic Management System - Architecture Overview</text></g><g class="title" data-source-line="14"><text fill="#E6EDF3" font-family="'Segoe UI, Inter, sans-serif'" font-size="14" font-weight="bold" lengthAdjust="spacing" textLength="419.002" x="866.9909" y="69.4082">Component &#8212; Doctor CRUD &amp; Architecture Overview (Sprint 4)</text></g><!--cluster GITHUB--><g class="cluster" data-qualified-name="GITHUB" data-source-line="26" id="ent0002"><path d="M28.3135,340.6378 C31.979,330.3923 41.9581,326.7864 49.4074,336.6732 C55.8346,325.3225 62.408,326.5277 70.3492,335.0803 C77.3745,323.8823 84.1438,323.0015 92.5072,333.728 C98.2315,322.7786 107.3735,322.3679 115.3537,331.1107 C122.5534,322.6817 132.0431,325.0696 136.0275,334.776 C142.2475,324.7455 148.5561,323.813 155.9759,333.5663 C163.5977,322.7403 171.9817,325.7963 177.6009,335.6596 C189.1821,323.762 201.3063,328.4769 204.4838,343.9219 C206.5841,343.1359 207.5411,343.9297 207.8603,346.0158 C217.936,351.3953 216.5449,357.7774 209.2579,364.4718 C220.7474,370.6206 219.7885,380.1449 208.9911,386.0176 C218.1071,389.4491 218.8143,396.8297 212.5019,403.3808 C223.598,410.0451 223.3672,419.1626 212.0892,425.4077 C221.5441,429.2128 221.718,436.1536 215.1517,442.7826 C225.3605,449.5776 225.225,457.9718 215.2902,464.8929 C224.7919,469.7562 226.5498,476.5143 218.0419,483.9748 C225.5559,490.6694 225.1509,497.1161 215.7988,501.673 C225.4421,507.6232 225.0096,516.359 215.1582,521.6851 C225.0159,528.6866 222.42,536.7316 213.0593,541.7197 C222.1638,548.2712 219.352,556.1961 210.6706,560.4833 C221.473,566.0904 220.8333,575.4619 210.4971,580.8893 C220.3374,587.952 219.4982,596.454 209.9729,603.0587 C217.0915,617.1357 213.1983,624.3175 197.4838,625.9219 C198.2323,625.2573 198.7487,625.596 199.0439,626.4026 C194.4932,638.3596 185.3792,638.8316 177.6282,629.644 C168.9029,640.2231 161.8948,638.7642 155.2093,627.546 C149.9976,637.8421 141.9399,638.7218 134.79,629.5823 C130.0064,640.035 119.5368,642.2187 112.7986,631.6246 C104.6337,641.3299 95.9493,640.0243 91.7346,627.8259 C85.9129,638.4875 75.8492,638.7522 69.3518,628.5508 C63.895,639.1012 55.326,639.8584 48.2794,630.2093 C33.8395,641.2695 23.3849,634.7475 19.4838,618.9219 C20.803,617.4954 22.1128,617.9273 22.6372,619.7043 C12.9694,616.2458 12.912,608.1893 20.5101,602.5854 C10.3452,596.6871 9.3509,586.8045 20.5327,580.9284 C9.718,576.3859 10.5503,566.8291 19.3323,561.1002 C10.0389,555.6467 9.7641,549.3246 16.8128,541.7438 C6.896,535.4019 8.8282,528.4376 17.4332,522.6992 C9.7898,517.643 7.4297,508.7523 17.4112,503.6757 C6.4374,497.1811 8.1341,489.9862 16.5758,482.7177 C8.6713,476.5632 8.5391,470.354 16.7072,464.3143 C8.4797,458.6427 8.8175,449.6769 17.4338,444.6269 C8.3569,438.3617 7.9316,431.8688 16.4931,424.7681 C6,417.8092 7.2684,407.4289 19.2796,403.4055 C9.0318,398.1273 8.8564,389.2264 18.9119,383.5719 C11.2672,376.8003 10.7799,370.7903 20.5759,365.6369 C8.9332,354.7639 10.7377,342.1598 26.4838,336.9219 C28.8308,337.1087 29.3809,338.7698 28.3135,340.6378" fill="#161B22" style="stroke:#30363D;stroke-width:1;"/><path d="M50.8626,358.8763 C49.4509,358.8763 48.2142,359.8796 47.9459,361.2096 C46.6626,361.2096 45.6126,362.2596 45.6126,363.543 C45.6126,364.8263 46.6626,365.8763 47.9459,365.8763 L53.1959,365.8763 C54.1642,365.8763 54.9459,365.0946 54.9459,364.1263 C54.9459,363.368 54.4559,362.6213 53.7792,362.3763 L53.7792,361.793 C53.7792,360.183 52.4726,358.8763 50.8626,358.8763" fill="#E6EDF3"/><text fill="#E6EDF3" font-family="'Segoe UI, Inter, sans-serif'" font-size="14" font-weight="bold" lengthAdjust="spacing" textLength="119.5469" x="59.8082" y="367.0293">GitHub Ecosystem</text></g><!--cluster ClinicManagementAPI System--><g class="cluster" data-qualified-name="ClinicManagementAPI System" data-source-line="32" id="ent0007"><path d="M372.4838,99.9219 L612.1791,99.9219 A9,9 0 0 1 618.1791,105.9219 L625.1791,147.2031 L1750.9838,147.2031 A6,6 0 0 1 1756.9838,153.2031 L1756.9838,1443.9219 A6,6 0 0 1 1750.9838,1449.9219 L372.4838,1449.9219 A6,6 0 0 1 366.4838,1443.9219 L366.4838,105.9219 A6,6 0 0 1 372.4838,99.9219" fill="#0D1117" style="stroke:#30363D;stroke-width:1.5;"/><line style="stroke:#30363D;stroke-width:1.5;" x1="366.4838" x2="625.1791" y1="147.2031" y2="147.2031"/><text fill="#58A6FF" font-family="'Segoe UI, Inter, sans-serif'" font-size="16" font-weight="bold" lengthAdjust="spacing" textLength="225.6953" x="380.4838" y="129.1875">ClinicManagementAPI System</text></g><!--cluster API--><g class="cluster" data-qualified-name="ClinicManagementAPI System.API" data-source-line="34" id="ent0008"><path d="M404.4838,671.9219 L592.6974,671.9219 A9,9 0 0 1 598.6974,677.9219 L605.6974,719.2031 L1008.4838,719.2031 A6,6 0 0 1 1014.4838,725.2031 L1014.4838,1411.9219 A6,6 0 0 1 1008.4838,1417.9219 L404.4838,1417.9219 A6,6 0 0 1 398.4838,1411.9219 L398.4838,677.9219 A6,6 0 0 1 404.4838,671.9219" fill="#161B22" style="stroke:#30363D;stroke-width:1.5;"/><line style="stroke:#30363D;stroke-width:1.5;" x1="398.4838" x2="605.6974" y1="719.2031" y2="719.2031"/><path d="M413.4838,690.5365 L413.4838,691.8698 L424.1505,691.8698 L424.1505,690.5365 L413.4838,690.5365 M413.4838,693.2031 L413.4838,701.0831 C413.4838,701.1498 413.5372,701.2031 413.6038,701.2031 L424.0172,701.2031 C424.0838,701.2031 424.1372,701.1498 424.1372,701.0831 L424.1372,693.2031 L420.1772,693.2031 L420.1772,694.5765 L417.4705,694.5765 L417.4705,693.2031 L413.4705,693.2031" fill="#58A6FF"/><text fill="#58A6FF" font-family="'Segoe UI, Inter, sans-serif'" font-size="16" font-weight="bold" lengthAdjust="spacing" textLength="157.1328" x="429.5645" y="701.1875">Api Project (.NET 10)</text><text fill="#58A6FF" font-family="'Segoe UI, Inter, sans-serif'" font-size="16" font-weight="bold" lengthAdjust="spacing" textLength="59.0156" x="680.976" y="748.4688">&#171;Layer&#187;</text></g><!--cluster CORE--><g class="cluster" data-qualified-name="ClinicManagementAPI System.CORE" data-source-line="43" id="ent0015"><path d="M1174.4838,639.9219 L1371.7677,639.9219 A9,9 0 0 1 1377.7677,645.9219 L1384.7677,687.2031 L1726.9838,687.2031 A6,6 0 0 1 1732.9838,693.2031 L1732.9838,1376.9219 A6,6 0 0 1 1726.9838,1382.9219 L1174.4838,1382.9219 A6,6 0 0 1 1168.4838,1376.9219 L1168.4838,645.9219 A6,6 0 0 1 1174.4838,639.9219" fill="#161B22" style="stroke:#30363D;stroke-width:1.5;"/><line style="stroke:#30363D;stroke-width:1.5;" x1="1168.4838" x2="1384.7677" y1="687.2031" y2="687.2031"/><path d="M1183.4838,658.5365 L1183.4838,659.8698 L1194.1505,659.8698 L1194.1505,658.5365 L1183.4838,658.5365 M1183.4838,661.2031 L1183.4838,669.0831 C1183.4838,669.1498 1183.5372,669.2031 1183.6038,669.2031 L1194.0172,669.2031 C1194.0838,669.2031 1194.1372,669.1498 1194.1372,669.0831 L1194.1372,661.2031 L1190.1772,661.2031 L1190.1772,662.5765 L1187.4705,662.5765 L1187.4705,661.2031 L1183.4705,661.2031" fill="#58A6FF"/><text fill="#58A6FF" font-family="'Segoe UI, Inter, sans-serif'" font-size="16" font-weight="bold" lengthAdjust="spacing" textLength="166.2031" x="1199.5645" y="669.1875">Core Project (.NET 10)</text><text fill="#58A6FF" font-family="'Segoe UI, Inter, sans-serif'" font-size="16" font-weight="bold" lengthAdjust="spacing" textLength="59.0156" x="1425.226" y="716.4688">&#171;Layer&#187;</text></g><!--cluster DATA_FOLDER--><g class="cluster" data-qualified-name="ClinicManagementAPI System.CORE.DATA_FOLDER" data-source-line="51" id="ent0022"><path d="M1515.9838,748.9219 L1560.8207,748.9219 A9,9 0 0 1 1566.8207,754.9219 L1573.8207,793.543 L1702.9838,793.543 A6,6 0 0 1 1708.9838,799.543 L1708.9838,1161.9219 A6,6 0 0 1 1702.9838,1167.9219 L1515.9838,1167.9219 A6,6 0 0 1 1509.9838,1161.9219 L1509.9838,754.9219 A6,6 0 0 1 1515.9838,748.9219" fill="#161B22" style="stroke:#30363D;stroke-width:1.5;"/><line style="stroke:#30363D;stroke-width:1.5;" x1="1509.9838" x2="1573.8207" y1="793.543" y2="793.543"/><text fill="#E6EDF3" font-family="'Segoe UI, Inter, sans-serif'" font-size="14" font-weight="bold" lengthAdjust="spacing" textLength="30.8369" x="1523.9838" y="776.0293">Data</text></g><!--cluster TESTS--><g class="cluster" data-qualified-name="ClinicManagementAPI System.TESTS" data-source-line="58" id="ent0026"><path d="M1527.4838,175.9219 L1637.3198,175.9219 A9,9 0 0 1 1643.3198,181.9219 L1650.3198,223.2031 L1691.4838,223.2031 A6,6 0 0 1 1697.4838,229.2031 L1697.4838,601.9219 A6,6 0 0 1 1691.4838,607.9219 L1527.4838,607.9219 A6,6 0 0 1 1521.4838,601.9219 L1521.4838,181.9219 A6,6 0 0 1 1527.4838,175.9219" fill="#161B22" style="stroke:#30363D;stroke-width:1.5;"/><line style="stroke:#30363D;stroke-width:1.5;" x1="1521.4838" x2="1650.3198" y1="223.2031" y2="223.2031"/><text fill="#58A6FF" font-family="'Segoe UI, Inter, sans-serif'" font-size="16" font-weight="bold" lengthAdjust="spacing" textLength="95.8359" x="1535.4838" y="205.1875">Tests Project</text><text fill="#58A6FF" font-family="'Segoe UI, Inter, sans-serif'" font-size="16" font-weight="bold" lengthAdjust="spacing" textLength="59.0156" x="1583.976" y="252.4688">&#171;Layer&#187;</text></g><!--cluster External Infrastructure--><g class="cluster" data-qualified-name="External Infrastructure" data-source-line="65" id="ent0029"><polygon fill="#161B22" points="1905.9838,908.9219,1915.9838,898.9219,2149.9838,898.9219,2149.9838,1248.9219,2139.9838,1258.9219,1905.9838,1258.9219,1905.9838,908.9219" style="stroke:#30363D;stroke-width:1;"/><line style="stroke:#30363D;stroke-width:1;" x1="2139.9838" x2="2149.9838" y1="908.9219" y2="898.9219"/><line style="stroke:#30363D;stroke-width:1;" x1="1905.9838" x2="2139.9838" y1="908.9219" y2="908.9219"/><line style="stroke:#30363D;stroke-width:1;" x1="2139.9838" x2="2139.9838" y1="908.9219" y2="1258.9219"/><text fill="#E6EDF3" font-family="'Segoe UI, Inter, sans-serif'" font-size="14" font-weight="bold" lengthAdjust="spacing" textLength="148.4287" x="1949.7695" y="937.0293">External Infrastructure</text></g><!--entity CI--><g class="entity" data-qualified-name="GITHUB.CI" data-source-line="27" id="ent0003"><rect fill="#0D1117" height="107.2422" rx="6" ry="6" style="stroke:#58A6FF;stroke-width:1.5;" width="168.5335" x="27.4838" y="510.4219"/><rect fill="#0D1117" height="10" style="stroke:#58A6FF;stroke-width:1.5;" width="15" x="176.0173" y="515.4219"/><rect fill="#0D1117" height="2" style="stroke:#58A6FF;stroke-width:1.5;" width="4" x="174.0173" y="517.4219"/><rect fill="#0D1117" height="2" style="stroke:#58A6FF;stroke-width:1.5;" width="4" x="174.0173" y="521.4219"/><text fill="#E6EDF3" font-family="'Segoe UI, Inter, sans-serif'" font-size="14" font-style="italic" lengthAdjust="spacing" textLength="51.5293" x="80.9859" y="555.5293">&#171;CI/CD&#187;</text><path d="M57.5672,584.8307 L56.9838,586.2191 C56.8672,586.2541 56.7622,586.3124 56.6572,586.3707 L55.2688,585.7874 L54.4288,586.6274 L55.0122,588.0157 C54.9538,588.1324 54.9072,588.2257 54.8605,588.3424 L53.4722,588.9257 L53.4722,590.0924 L54.8605,590.6757 C54.9072,590.7924 54.9538,590.8857 55.0122,591.0024 L54.4288,592.3907 L55.2688,593.2307 L56.6572,592.6474 C56.7622,592.6941 56.8672,592.7524 56.9838,592.7991 L57.5672,594.1874 L58.7338,594.1874 L59.3172,592.7991 C59.4222,592.7524 59.5388,592.7057 59.6438,592.6474 L61.0322,593.2307 L61.8722,592.3907 L61.2888,591.0024 C61.3355,590.8974 61.3938,590.7807 61.4405,590.6757 L62.8288,590.0924 L62.8288,588.9257 L61.4405,588.3424 C61.4055,588.2374 61.3472,588.1207 61.2888,588.0157 L61.8722,586.6274 L61.0322,585.7874 L59.6438,586.3707 C59.5388,586.3241 59.4222,586.2657 59.3172,586.2191 L58.7338,584.8307 L57.5672,584.8307 M58.1505,587.7474 C59.1188,587.7474 59.9005,588.5291 59.9005,589.4974 C59.9005,590.4657 59.1188,591.2474 58.1505,591.2474 C57.1822,591.2474 56.4005,590.4657 56.4005,589.4974 C56.4005,588.5291 57.1822,587.7474 58.1505,587.7474" fill="#58A6FF"/><text fill="#E6EDF3" font-family="'Segoe UI, Inter, sans-serif'" font-size="14" lengthAdjust="spacing" textLength="93.3652" x="67.6521" y="594.1504">GitHub Actions</text></g><g class="entity" data-qualified-name="GITHUB.GMN4" data-source-line="28" id="ent0005"><path d="M46.9838,391.9219 L46.9838,453.8145 A6,6 0 0 0 52.9838,459.8145 L107.9838,459.8145 L111.9838,510.2219 L115.9838,459.8145 L170.6498,459.8145 A6,6 0 0 0 176.6498,453.8145 L176.6498,395.9219 L166.6498,385.9219 L52.9838,385.9219 A6,6 0 0 0 46.9838,391.9219" fill="#21262D" style="stroke:#F85149;stroke-width:0.5;"/><path d="M166.6498,385.9219 L166.6498,392.9219 A3,3 0 0 0 169.6498,395.9219 L176.6498,395.9219 L166.6498,385.9219" fill="#21262D" style="stroke:#F85149;stroke-width:0.5;"/><text fill="#C9D1D9" font-family="'Segoe UI, Inter, sans-serif'" font-size="11" lengthAdjust="spacing" textLength="72.8374" x="62.9838" y="412.792">Build, Lint, Test</text><text fill="#C9D1D9" font-family="'Segoe UI, Inter, sans-serif'" font-size="11" lengthAdjust="spacing" textLength="88.666" x="62.9838" y="427.4229">(dotnet build/test)</text><text fill="#C9D1D9" font-family="'Segoe UI, Inter, sans-serif'" font-size="11" lengthAdjust="spacing" textLength="43.3447" x="62.9838" y="442.0537">118 tests</text></g><!--entity AUTH_ENDP--><g class="entity" data-qualified-name="ClinicManagementAPI System.API.AUTH_ENDP" data-source-line="35" id="ent0009"><rect fill="#0D1117" height="107.2422" rx="6" ry="6" style="stroke:#58A6FF;stroke-width:1.5;" width="166.4691" x="423.4838" y="1095.4219"/><rect fill="#0D1117" height="10" style="stroke:#58A6FF;stroke-width:1.5;" width="15" x="569.9529" y="1100.4219"/><rect fill="#0D1117" height="2" style="stroke:#58A6FF;stroke-width:1.5;" width="4" x="567.9529" y="1102.4219"/><rect fill="#0D1117" height="2" style="stroke:#58A6FF;stroke-width:1.5;" width="4" x="567.9529" y="1106.4219"/><text fill="#E6EDF3" font-family="'Segoe UI, Inter, sans-serif'" font-size="14" font-style="italic" lengthAdjust="spacing" textLength="88.6553" x="457.3907" y="1140.5293">&#171;Minimal API&#187;</text><path d="M454.1505,1169.8307 L453.9288,1169.9357 L449.8455,1171.6507 L449.4838,1171.8024 L449.4838,1172.1641 C449.4838,1174.1007 450.2655,1175.8041 451.1988,1177.0524 C451.6655,1177.6707 452.1672,1178.1841 452.6572,1178.5457 C453.1472,1178.9074 453.6255,1179.1641 454.1505,1179.1641 C454.6872,1179.1641 455.1538,1178.9074 455.6438,1178.5457 C456.1338,1178.1841 456.6355,1177.6707 457.1022,1177.0524 C458.0355,1175.8041 458.8172,1174.1007 458.8172,1172.1641 L458.8172,1171.8024 L458.4555,1171.6507 L454.3722,1169.9357 L454.1505,1169.8307 M454.1505,1171.1024 L454.1505,1177.9974 C454.1038,1177.9974 453.7655,1177.9157 453.3805,1177.6357 C452.9955,1177.3557 452.5522,1176.9007 452.1438,1176.3641 C451.3972,1175.3724 450.8138,1173.9957 450.7205,1172.5374 L454.1505,1171.1141" fill="#F85149"/><text fill="#E6EDF3" font-family="'Segoe UI, Inter, sans-serif'" font-size="14" lengthAdjust="spacing" textLength="91.3008" x="463.6521" y="1179.1504">AuthEndpoints</text></g><!--entity PAT_ENDP--><g class="entity" data-qualified-name="ClinicManagementAPI System.API.PAT_ENDP" data-source-line="36" id="ent0010"><rect fill="#0D1117" height="107.2422" rx="6" ry="6" style="stroke:#58A6FF;stroke-width:1.5;" width="179.9359" x="810.4838" y="1252.4219"/><rect fill="#0D1117" height="10" style="stroke:#58A6FF;stroke-width:1.5;" width="15" x="970.4197" y="1257.4219"/><rect fill="#0D1117" height="2" style="stroke:#58A6FF;stroke-width:1.5;" width="4" x="968.4197" y="1259.4219"/><rect fill="#0D1117" height="2" style="stroke:#58A6FF;stroke-width:1.5;" width="4" x="968.4197" y="1263.4219"/><text fill="#E6EDF3" font-family="'Segoe UI, Inter, sans-serif'" font-size="14" font-style="italic" lengthAdjust="spacing" textLength="88.6553" x="851.1241" y="1297.5293">&#171;Minimal API&#187;</text><path d="M841.1505,1326.8307 L840.9288,1326.9357 L836.8455,1328.6507 L836.4838,1328.8024 L836.4838,1329.1641 C836.4838,1331.1007 837.2655,1332.8041 838.1988,1334.0524 C838.6655,1334.6707 839.1672,1335.1841 839.6572,1335.5457 C840.1472,1335.9074 840.6255,1336.1641 841.1505,1336.1641 C841.6872,1336.1641 842.1538,1335.9074 842.6438,1335.5457 C843.1338,1335.1841 843.6355,1334.6707 844.1022,1334.0524 C845.0355,1332.8041 845.8172,1331.1007 845.8172,1329.1641 L845.8172,1328.8024 L845.4555,1328.6507 L841.3722,1326.9357 L841.1505,1326.8307 M841.1505,1328.1024 L841.1505,1334.9974 C841.1038,1334.9974 840.7655,1334.9157 840.3805,1334.6357 C839.9955,1334.3557 839.5522,1333.9007 839.1438,1333.3641 C838.3972,1332.3724 837.8138,1330.9957 837.7205,1329.5374 L841.1505,1328.1141" fill="#F85149"/><text fill="#E6EDF3" font-family="'Segoe UI, Inter, sans-serif'" font-size="14" lengthAdjust="spacing" textLength="104.7676" x="850.6521" y="1336.1504">PatientEndpoints</text></g><!--entity DOC_ENDP--><g class="entity" data-qualified-name="ClinicManagementAPI System.API.DOC_ENDP" data-source-line="37" id="ent0011"><rect fill="#0D1117" height="107.2422" rx="6" ry="6" style="stroke:#58A6FF;stroke-width:1.5;" width="179.1497" x="810.9838" y="1095.4219"/><rect fill="#0D1117" height="10" style="stroke:#58A6FF;stroke-width:1.5;" width="15" x="970.1336" y="1100.4219"/><rect fill="#0D1117" height="2" style="stroke:#58A6FF;stroke-width:1.5;" width="4" x="968.1336" y="1102.4219"/><rect fill="#0D1117" height="2" style="stroke:#58A6FF;stroke-width:1.5;" width="4" x="968.1336" y="1106.4219"/><text fill="#E6EDF3" font-family="'Segoe UI, Inter, sans-serif'" font-size="14" font-style="italic" lengthAdjust="spacing" textLength="88.6553" x="851.2311" y="1140.5293">&#171;Minimal API&#187;</text><path d="M841.6505,1169.8307 L841.4288,1169.9357 L837.3455,1171.6507 L836.9838,1171.8024 L836.9838,1172.1641 C836.9838,1174.1007 837.7655,1175.8041 838.6988,1177.0524 C839.1655,1177.6707 839.6672,1178.1841 840.1572,1178.5457 C840.6472,1178.9074 841.1255,1179.1641 841.6505,1179.1641 C842.1872,1179.1641 842.6538,1178.9074 843.1438,1178.5457 C843.6338,1178.1841 844.1355,1177.6707 844.6022,1177.0524 C845.5355,1175.8041 846.3172,1174.1007 846.3172,1172.1641 L846.3172,1171.8024 L845.9555,1171.6507 L841.8722,1169.9357 L841.6505,1169.8307 M841.6505,1171.1024 L841.6505,1177.9974 C841.6038,1177.9974 841.2655,1177.9157 840.8805,1177.6357 C840.4955,1177.3557 840.0522,1176.9007 839.6438,1176.3641 C838.8972,1175.3724 838.3138,1173.9957 838.2205,1172.5374 L841.6505,1171.1141" fill="#3FB950"/><text fill="#E6EDF3" font-family="'Segoe UI, Inter, sans-serif'" font-size="14" lengthAdjust="spacing" textLength="103.9814" x="851.1521" y="1179.1504">DoctorEndpoints</text></g><!--entity USR_ENDP--><g class="entity" data-qualified-name="ClinicManagementAPI System.API.USR_ENDP" data-source-line="38" id="ent0012"><rect fill="#0D1117" height="107.2422" rx="6" ry="6" style="stroke:#58A6FF;stroke-width:1.5;" width="164.596" x="423.9838" y="938.4219"/><rect fill="#0D1117" height="10" style="stroke:#58A6FF;stroke-width:1.5;" width="15" x="568.5798" y="943.4219"/><rect fill="#0D1117" height="2" style="stroke:#58A6FF;stroke-width:1.5;" width="4" x="566.5798" y="945.4219"/><rect fill="#0D1117" height="2" style="stroke:#58A6FF;stroke-width:1.5;" width="4" x="566.5798" y="949.4219"/><text fill="#E6EDF3" font-family="'Segoe UI, Inter, sans-serif'" font-size="14" font-style="italic" lengthAdjust="spacing" textLength="88.6553" x="456.9542" y="983.5293">&#171;Minimal API&#187;</text><path d="M454.6505,1012.8307 L454.4288,1012.9357 L450.3455,1014.6507 L449.9838,1014.8024 L449.9838,1015.1641 C449.9838,1017.1007 450.7655,1018.8041 451.6988,1020.0524 C452.1655,1020.6707 452.6672,1021.1841 453.1572,1021.5457 C453.6472,1021.9074 454.1255,1022.1641 454.6505,1022.1641 C455.1872,1022.1641 455.6538,1021.9074 456.1438,1021.5457 C456.6338,1021.1841 457.1355,1020.6707 457.6022,1020.0524 C458.5355,1018.8041 459.3172,1017.1007 459.3172,1015.1641 L459.3172,1014.8024 L458.9555,1014.6507 L454.8722,1012.9357 L454.6505,1012.8307 M454.6505,1014.1024 L454.6505,1020.9974 C454.6038,1020.9974 454.2655,1020.9157 453.8805,1020.6357 C453.4955,1020.3557 453.0522,1019.9007 452.6438,1019.3641 C451.8972,1018.3724 451.3138,1016.9957 451.2205,1015.5374 L454.6505,1014.1141" fill="#F85149"/><text fill="#E6EDF3" font-family="'Segoe UI, Inter, sans-serif'" font-size="14" lengthAdjust="spacing" textLength="89.4277" x="464.1521" y="1022.1504">UserEndpoints</text></g><!--entity MW--><g class="entity" data-qualified-name="ClinicManagementAPI System.API.MW" data-source-line="39" id="ent0013"><rect fill="#0D1117" height="107.2422" rx="6" ry="6" style="stroke:#58A6FF;stroke-width:1.5;" width="167.6175" x="422.4838" y="1252.4219"/><rect fill="#0D1117" height="10" style="stroke:#58A6FF;stroke-width:1.5;" width="15" x="570.1013" y="1257.4219"/><rect fill="#0D1117" height="2" style="stroke:#58A6FF;stroke-width:1.5;" width="4" x="568.1013" y="1259.4219"/><rect fill="#0D1117" height="2" style="stroke:#58A6FF;stroke-width:1.5;" width="4" x="568.1013" y="1263.4219"/><text fill="#E6EDF3" font-family="'Segoe UI, Inter, sans-serif'" font-size="14" font-style="italic" lengthAdjust="spacing" textLength="84.54" x="459.0226" y="1297.5293">&#171;Middleware&#187;</text><path d="M453.1505,1326.8307 L452.9288,1326.9357 L448.8455,1328.6507 L448.4838,1328.8024 L448.4838,1329.1641 C448.4838,1331.1007 449.2655,1332.8041 450.1988,1334.0524 C450.6655,1334.6707 451.1672,1335.1841 451.6572,1335.5457 C452.1472,1335.9074 452.6255,1336.1641 453.1505,1336.1641 C453.6872,1336.1641 454.1538,1335.9074 454.6438,1335.5457 C455.1338,1335.1841 455.6355,1334.6707 456.1022,1334.0524 C457.0355,1332.8041 457.8172,1331.1007 457.8172,1329.1641 L457.8172,1328.8024 L457.4555,1328.6507 L453.3722,1326.9357 L453.1505,1326.8307 M453.1505,1328.1024 L453.1505,1334.9974 C453.1038,1334.9974 452.7655,1334.9157 452.3805,1334.6357 C451.9955,1334.3557 451.5522,1333.9007 451.1438,1333.3641 C450.3972,1332.3724 449.8138,1330.9957 449.7205,1329.5374 L453.1505,1328.1141" fill="#F85149"/><text fill="#E6EDF3" font-family="'Segoe UI, Inter, sans-serif'" font-size="14" lengthAdjust="spacing" textLength="92.4492" x="462.6521" y="1336.1504">JwtMiddleware</text></g><!--entity FILT--><g class="entity" data-qualified-name="ClinicManagementAPI System.API.FILT" data-source-line="40" id="ent0014"><rect fill="#0D1117" height="107.2422" rx="6" ry="6" style="stroke:#58A6FF;stroke-width:1.5;" width="160.335" x="426.4838" y="781.4219"/><rect fill="#0D1117" height="10" style="stroke:#58A6FF;stroke-width:1.5;" width="15" x="566.8188" y="786.4219"/><rect fill="#0D1117" height="2" style="stroke:#58A6FF;stroke-width:1.5;" width="4" x="564.8188" y="788.4219"/><rect fill="#0D1117" height="2" style="stroke:#58A6FF;stroke-width:1.5;" width="4" x="564.8188" y="792.4219"/><text fill="#E6EDF3" font-family="'Segoe UI, Inter, sans-serif'" font-size="14" font-style="italic" lengthAdjust="spacing" textLength="98.335" x="452.4838" y="826.5293">&#171;EndpointFilter&#187;</text><text fill="#E6EDF3" font-family="'Segoe UI, Inter, sans-serif'" font-size="14" lengthAdjust="spacing" textLength="92.7773" x="455.2626" y="865.1504">ValidationFilter</text></g><!--entity AUTH_SVC--><g class="entity" data-qualified-name="ClinicManagementAPI System.CORE.AUTH_SVC" data-source-line="44" id="ent0016"><rect fill="#0D1117" height="107.2422" rx="6" ry="6" style="stroke:#58A6FF;stroke-width:1.5;" width="148.2992" x="1191.4838" y="898.4219"/><rect fill="#0D1117" height="10" style="stroke:#58A6FF;stroke-width:1.5;" width="15" x="1319.783" y="903.4219"/><rect fill="#0D1117" height="2" style="stroke:#58A6FF;stroke-width:1.5;" width="4" x="1317.783" y="905.4219"/><rect fill="#0D1117" height="2" style="stroke:#58A6FF;stroke-width:1.5;" width="4" x="1317.783" y="909.4219"/><text fill="#E6EDF3" font-family="'Segoe UI, Inter, sans-serif'" font-size="14" font-style="italic" lengthAdjust="spacing" textLength="56.3076" x="1232.4796" y="943.5293">&#171;Service&#187;</text><path d="M1221.5672,972.8307 L1220.9838,974.2191 C1220.8672,974.2541 1220.7622,974.3124 1220.6572,974.3707 L1219.2688,973.7874 L1218.4288,974.6274 L1219.0122,976.0157 C1218.9538,976.1324 1218.9072,976.2257 1218.8605,976.3424 L1217.4722,976.9257 L1217.4722,978.0924 L1218.8605,978.6757 C1218.9072,978.7924 1218.9538,978.8857 1219.0122,979.0024 L1218.4288,980.3907 L1219.2688,981.2307 L1220.6572,980.6474 C1220.7622,980.6941 1220.8672,980.7524 1220.9838,980.7991 L1221.5672,982.1874 L1222.7338,982.1874 L1223.3172,980.7991 C1223.4222,980.7524 1223.5388,980.7057 1223.6438,980.6474 L1225.0322,981.2307 L1225.8722,980.3907 L1225.2888,979.0024 C1225.3355,978.8974 1225.3938,978.7807 1225.4405,978.6757 L1226.8288,978.0924 L1226.8288,976.9257 L1225.4405,976.3424 C1225.4055,976.2374 1225.3472,976.1207 1225.2888,976.0157 L1225.8722,974.6274 L1225.0322,973.7874 L1223.6438,974.3707 C1223.5388,974.3241 1223.4222,974.2657 1223.3172,974.2191 L1222.7338,972.8307 L1221.5672,972.8307 M1222.1505,975.7474 C1223.1188,975.7474 1223.9005,976.5291 1223.9005,977.4974 C1223.9005,978.4657 1223.1188,979.2474 1222.1505,979.2474 C1221.1822,979.2474 1220.4005,978.4657 1220.4005,977.4974 C1220.4005,976.5291 1221.1822,975.7474 1222.1505,975.7474" fill="#3FB950"/><text fill="#E6EDF3" font-family="'Segoe UI, Inter, sans-serif'" font-size="14" lengthAdjust="spacing" textLength="73.1309" x="1231.6521" y="982.1504">AuthService</text></g><!--entity PAT_SVC--><g class="entity" data-qualified-name="ClinicManagementAPI System.CORE.PAT_SVC" data-source-line="45" id="ent0017"><rect fill="#0D1117" height="107.2422" rx="6" ry="6" style="stroke:#58A6FF;stroke-width:1.5;" width="161.766" x="1184.4838" y="741.4219"/><rect fill="#0D1117" height="10" style="stroke:#58A6FF;stroke-width:1.5;" width="15" x="1326.2498" y="746.4219"/><rect fill="#0D1117" height="2" style="stroke:#58A6FF;stroke-width:1.5;" width="4" x="1324.2498" y="748.4219"/><rect fill="#0D1117" height="2" style="stroke:#58A6FF;stroke-width:1.5;" width="4" x="1324.2498" y="752.4219"/><text fill="#E6EDF3" font-family="'Segoe UI, Inter, sans-serif'" font-size="14" font-style="italic" lengthAdjust="spacing" textLength="56.3076" x="1232.213" y="786.5293">&#171;Service&#187;</text><path d="M1214.5672,815.8307 L1213.9838,817.2191 C1213.8672,817.2541 1213.7622,817.3124 1213.6572,817.3707 L1212.2688,816.7874 L1211.4288,817.6274 L1212.0122,819.0157 C1211.9538,819.1324 1211.9072,819.2257 1211.8605,819.3424 L1210.4722,819.9257 L1210.4722,821.0924 L1211.8605,821.6757 C1211.9072,821.7924 1211.9538,821.8857 1212.0122,822.0024 L1211.4288,823.3907 L1212.2688,824.2307 L1213.6572,823.6474 C1213.7622,823.6941 1213.8672,823.7524 1213.9838,823.7991 L1214.5672,825.1874 L1215.7338,825.1874 L1216.3172,823.7991 C1216.4222,823.7524 1216.5388,823.7057 1216.6438,823.6474 L1218.0322,824.2307 L1218.8722,823.3907 L1218.2888,822.0024 C1218.3355,821.8974 1218.3938,821.7807 1218.4405,821.6757 L1219.8288,821.0924 L1219.8288,819.9257 L1218.4405,819.3424 C1218.4055,819.2374 1218.3472,819.1207 1218.2888,819.0157 L1218.8722,817.6274 L1218.0322,816.7874 L1216.6438,817.3707 C1216.5388,817.3241 1216.4222,817.2657 1216.3172,817.2191 L1215.7338,815.8307 L1214.5672,815.8307 M1215.1505,818.7474 C1216.1188,818.7474 1216.9005,819.5291 1216.9005,820.4974 C1216.9005,821.4657 1216.1188,822.2474 1215.1505,822.2474 C1214.1822,822.2474 1213.4005,821.4657 1213.4005,820.4974 C1213.4005,819.5291 1214.1822,818.7474 1215.1505,818.7474" fill="#3FB950"/><text fill="#E6EDF3" font-family="'Segoe UI, Inter, sans-serif'" font-size="14" lengthAdjust="spacing" textLength="86.5977" x="1224.6521" y="825.1504">PatientService</text></g><!--entity DOC_SVC--><g class="entity" data-qualified-name="ClinicManagementAPI System.CORE.DOC_SVC" data-source-line="46" id="ent0018"><rect fill="#0D1117" height="107.2422" rx="6" ry="6" style="stroke:#58A6FF;stroke-width:1.5;" width="160.9798" x="1184.9838" y="1055.4219"/><rect fill="#0D1117" height="10" style="stroke:#58A6FF;stroke-width:1.5;" width="15" x="1325.9636" y="1060.4219"/><rect fill="#0D1117" height="2" style="stroke:#58A6FF;stroke-width:1.5;" width="4" x="1323.9636" y="1062.4219"/><rect fill="#0D1117" height="2" style="stroke:#58A6FF;stroke-width:1.5;" width="4" x="1323.9636" y="1066.4219"/><text fill="#E6EDF3" font-family="'Segoe UI, Inter, sans-serif'" font-size="14" font-style="italic" lengthAdjust="spacing" textLength="56.3076" x="1232.3199" y="1100.5293">&#171;Service&#187;</text><path d="M1215.0672,1129.8307 L1214.4838,1131.2191 C1214.3672,1131.2541 1214.2622,1131.3124 1214.1572,1131.3707 L1212.7688,1130.7874 L1211.9288,1131.6274 L1212.5122,1133.0157 C1212.4538,1133.1324 1212.4072,1133.2257 1212.3605,1133.3424 L1210.9722,1133.9257 L1210.9722,1135.0924 L1212.3605,1135.6757 C1212.4072,1135.7924 1212.4538,1135.8857 1212.5122,1136.0024 L1211.9288,1137.3907 L1212.7688,1138.2307 L1214.1572,1137.6474 C1214.2622,1137.6941 1214.3672,1137.7524 1214.4838,1137.7991 L1215.0672,1139.1874 L1216.2338,1139.1874 L1216.8172,1137.7991 C1216.9222,1137.7524 1217.0388,1137.7057 1217.1438,1137.6474 L1218.5322,1138.2307 L1219.3722,1137.3907 L1218.7888,1136.0024 C1218.8355,1135.8974 1218.8938,1135.7807 1218.9405,1135.6757 L1220.3288,1135.0924 L1220.3288,1133.9257 L1218.9405,1133.3424 C1218.9055,1133.2374 1218.8472,1133.1207 1218.7888,1133.0157 L1219.3722,1131.6274 L1218.5322,1130.7874 L1217.1438,1131.3707 C1217.0388,1131.3241 1216.9222,1131.2657 1216.8172,1131.2191 L1216.2338,1129.8307 L1215.0672,1129.8307 M1215.6505,1132.7474 C1216.6188,1132.7474 1217.4005,1133.5291 1217.4005,1134.4974 C1217.4005,1135.4657 1216.6188,1136.2474 1215.6505,1136.2474 C1214.6822,1136.2474 1213.9005,1135.4657 1213.9005,1134.4974 C1213.9005,1133.5291 1214.6822,1132.7474 1215.6505,1132.7474" fill="#3FB950"/><text fill="#E6EDF3" font-family="'Segoe UI, Inter, sans-serif'" font-size="14" lengthAdjust="spacing" textLength="85.8115" x="1225.1521" y="1139.1504">DoctorService</text></g><!--entity AUTH_INTF--><g class="entity" data-qualified-name="ClinicManagementAPI System.CORE.AUTH_INTF" data-source-line="47" id="ent0019"><ellipse cx="1265.4838" cy="1221.9219" fill="#161B22" rx="8" ry="8" style="stroke:#A371F7;stroke-width:0.5;"/><text fill="#E6EDF3" font-family="'Segoe UI, Inter, sans-serif'" font-size="14" lengthAdjust="spacing" textLength="76.8564" x="1227.0556" y="1264.0293">IAuthService</text><text fill="#E6EDF3" font-family="'Segoe UI, Inter, sans-serif'" font-size="14" font-style="italic" lengthAdjust="spacing" textLength="66.9375" x="1232.0151" y="1191.4082">&#171;Interface&#187;</text></g><!--entity PAT_INTF--><g class="entity" data-qualified-name="ClinicManagementAPI System.CORE.PAT_INTF" data-source-line="48" id="ent0020"><ellipse cx="1265.4838" cy="1357.9219" fill="#161B22" rx="8" ry="8" style="stroke:#A371F7;stroke-width:0.5;"/><text fill="#E6EDF3" font-family="'Segoe UI, Inter, sans-serif'" font-size="14" lengthAdjust="spacing" textLength="90.3232" x="1220.3222" y="1400.0293">IPatientService</text><text fill="#E6EDF3" font-family="'Segoe UI, Inter, sans-serif'" font-size="14" font-style="italic" lengthAdjust="spacing" textLength="66.9375" x="1232.0151" y="1327.4082">&#171;Interface&#187;</text></g><!--entity DOC_INTF--><g class="entity" data-qualified-name="ClinicManagementAPI System.CORE.DOC_INTF" data-source-line="49" id="ent0021"><ellipse cx="1265.4838" cy="1289.9219" fill="#161B22" rx="8" ry="8" style="stroke:#A371F7;stroke-width:0.5;"/><text fill="#E6EDF3" font-family="'Segoe UI, Inter, sans-serif'" font-size="14" lengthAdjust="spacing" textLength="89.5371" x="1220.7153" y="1332.0293">IDoctorService</text><text fill="#E6EDF3" font-family="'Segoe UI, Inter, sans-serif'" font-size="14" font-style="italic" lengthAdjust="spacing" textLength="66.9375" x="1232.0151" y="1259.4082">&#171;Interface&#187;</text></g><!--entity DATA--><g class="entity" data-qualified-name="ClinicManagementAPI System.CORE.DATA_FOLDER.DATA" data-source-line="52" id="ent0023"><rect fill="#0D1117" height="107.2422" rx="6" ry="6" style="stroke:#58A6FF;stroke-width:1.5;" width="166.7357" x="1525.9838" y="1044.4219"/><rect fill="#0D1117" height="10" style="stroke:#58A6FF;stroke-width:1.5;" width="15" x="1672.7195" y="1049.4219"/><rect fill="#0D1117" height="2" style="stroke:#58A6FF;stroke-width:1.5;" width="4" x="1670.7195" y="1051.4219"/><rect fill="#0D1117" height="2" style="stroke:#58A6FF;stroke-width:1.5;" width="4" x="1670.7195" y="1055.4219"/><text fill="#E6EDF3" font-family="'Segoe UI, Inter, sans-serif'" font-size="14" font-style="italic" lengthAdjust="spacing" textLength="81.0469" x="1563.8282" y="1089.5293">&#171;Persistence&#187;</text><path d="M1552.2055,1118.8307 C1552.0772,1118.8307 1551.9838,1118.9241 1551.9838,1119.0524 L1551.9838,1122.9141 C1551.9838,1123.2407 1552.2405,1123.4974 1552.5672,1123.4974 L1559.5672,1123.4974 C1559.8938,1123.4974 1560.1505,1123.2407 1560.1505,1122.9141 L1560.1505,1119.0524 C1560.1505,1118.9241 1560.0572,1118.8307 1559.9288,1118.8307 L1552.1938,1118.8307 M1551.9838,1124.5591 L1551.9838,1127.9541 C1551.9838,1128.0824 1552.0772,1128.1757 1552.2055,1128.1757 L1559.9405,1128.1757 C1560.0688,1128.1757 1560.1622,1128.0824 1560.1622,1127.9541 L1560.1622,1124.5591 C1559.9755,1124.6291 1559.7888,1124.6641 1559.5788,1124.6641 L1552.5788,1124.6641 C1552.3688,1124.6641 1552.1822,1124.6174 1551.9955,1124.5591 M1558.4005,1125.8307 C1558.7272,1125.8307 1558.9838,1126.0874 1558.9838,1126.4141 C1558.9838,1126.7407 1558.7272,1126.9974 1558.4005,1126.9974 C1558.0738,1126.9974 1557.8172,1126.7407 1557.8172,1126.4141 C1557.8172,1126.0874 1558.0738,1125.8307 1558.4005,1125.8307" fill="#D29922"/><text fill="#E6EDF3" font-family="'Segoe UI, Inter, sans-serif'" font-size="14" lengthAdjust="spacing" textLength="91.5674" x="1566.1521" y="1128.1504">AppDbContext</text></g><!--entity DTO--><g class="entity" data-qualified-name="ClinicManagementAPI System.CORE.DATA_FOLDER.DTO" data-source-line="53" id="ent0024"><rect fill="#0D1117" height="68.6211" rx="6" ry="6" style="stroke:#58A6FF;stroke-width:1.5;" width="93.6465" x="1562.4838" y="806.4219"/><rect fill="#0D1117" height="10" style="stroke:#58A6FF;stroke-width:1.5;" width="15" x="1636.1303" y="811.4219"/><rect fill="#0D1117" height="2" style="stroke:#58A6FF;stroke-width:1.5;" width="4" x="1634.1303" y="813.4219"/><rect fill="#0D1117" height="2" style="stroke:#58A6FF;stroke-width:1.5;" width="4" x="1634.1303" y="817.4219"/><text fill="#E6EDF3" font-family="'Segoe UI, Inter, sans-serif'" font-size="14" lengthAdjust="spacing" textLength="33.6465" x="1587.4838" y="851.5293">DTOs</text></g><!--entity MOD--><g class="entity" data-qualified-name="ClinicManagementAPI System.CORE.DATA_FOLDER.MOD" data-source-line="54" id="ent0025"><rect fill="#0D1117" height="68.6211" rx="6" ry="6" style="stroke:#58A6FF;stroke-width:1.5;" width="105.6709" x="1556.4838" y="925.4219"/><rect fill="#0D1117" height="10" style="stroke:#58A6FF;stroke-width:1.5;" width="15" x="1642.1547" y="930.4219"/><rect fill="#0D1117" height="2" style="stroke:#58A6FF;stroke-width:1.5;" width="4" x="1640.1547" y="932.4219"/><rect fill="#0D1117" height="2" style="stroke:#58A6FF;stroke-width:1.5;" width="4" x="1640.1547" y="936.4219"/><text fill="#E6EDF3" font-family="'Segoe UI, Inter, sans-serif'" font-size="14" lengthAdjust="spacing" textLength="45.6709" x="1581.4838" y="970.5293">Models</text></g><!--entity UT--><g class="entity" data-qualified-name="ClinicManagementAPI System.TESTS.UT" data-source-line="59" id="ent0027"><rect fill="#0D1117" height="107.2422" rx="6" ry="6" style="stroke:#58A6FF;stroke-width:1.5;" width="120.792" x="1548.9838" y="476.4219"/><rect fill="#0D1117" height="10" style="stroke:#58A6FF;stroke-width:1.5;" width="15" x="1649.7758" y="481.4219"/><rect fill="#0D1117" height="2" style="stroke:#58A6FF;stroke-width:1.5;" width="4" x="1647.7758" y="483.4219"/><rect fill="#0D1117" height="2" style="stroke:#58A6FF;stroke-width:1.5;" width="4" x="1647.7758" y="487.4219"/><text fill="#E6EDF3" font-family="'Segoe UI, Inter, sans-serif'" font-size="14" font-style="italic" lengthAdjust="spacing" textLength="46.4297" x="1581.165" y="521.5293">&#171;xUnit&#187;</text><text fill="#E6EDF3" font-family="'Segoe UI, Inter, sans-serif'" font-size="14" lengthAdjust="spacing" textLength="60.792" x="1573.9838" y="560.1504">Unit Tests</text></g><!--entity IT--><g class="entity" data-qualified-name="ClinicManagementAPI System.TESTS.IT" data-source-line="60" id="ent0028"><rect fill="#0D1117" height="107.2422" rx="6" ry="6" style="stroke:#58A6FF;stroke-width:1.5;" width="128.209" x="1545.4838" y="319.4219"/><rect fill="#0D1117" height="10" style="stroke:#58A6FF;stroke-width:1.5;" width="15" x="1653.6928" y="324.4219"/><rect fill="#0D1117" height="2" style="stroke:#58A6FF;stroke-width:1.5;" width="4" x="1651.6928" y="326.4219"/><rect fill="#0D1117" height="2" style="stroke:#58A6FF;stroke-width:1.5;" width="4" x="1651.6928" y="330.4219"/><text fill="#E6EDF3" font-family="'Segoe UI, Inter, sans-serif'" font-size="14" font-style="italic" lengthAdjust="spacing" textLength="46.4297" x="1581.3735" y="364.5293">&#171;xUnit&#187;</text><text fill="#E6EDF3" font-family="'Segoe UI, Inter, sans-serif'" font-size="14" lengthAdjust="spacing" textLength="68.209" x="1570.4838" y="403.1504">Integration</text></g><!--entity DB--><g class="entity" data-qualified-name="External Infrastructure.DB" data-source-line="66" id="ent0030"><path d="M1966.9838,1146.9219 C1966.9838,1136.9219 2028.0367,1136.9219 2028.0367,1136.9219 C2028.0367,1136.9219 2089.0896,1136.9219 2089.0896,1146.9219 L2089.0896,1233.1641 C2089.0896,1243.1641 2028.0367,1243.1641 2028.0367,1243.1641 C2028.0367,1243.1641 1966.9838,1243.1641 1966.9838,1233.1641 L1966.9838,1146.9219" fill="#0D1117" style="stroke:#D29922;stroke-width:0.5;"/><path d="M1966.9838,1146.9219 C1966.9838,1156.9219 2028.0367,1156.9219 2028.0367,1156.9219 C2028.0367,1156.9219 2089.0896,1156.9219 2089.0896,1146.9219" fill="none" style="stroke:#D29922;stroke-width:0.5;"/><text fill="#E6EDF3" font-family="'Segoe UI, Inter, sans-serif'" font-size="14" font-style="italic" lengthAdjust="spacing" textLength="71.5859" x="1992.2437" y="1186.0293">&#171;Database&#187;</text><path d="M1988.2055,1215.3307 C1988.0772,1215.3307 1987.9838,1215.4241 1987.9838,1215.5524 L1987.9838,1219.4141 C1987.9838,1219.7407 1988.2405,1219.9974 1988.5672,1219.9974 L1995.5672,1219.9974 C1995.8938,1219.9974 1996.1505,1219.7407 1996.1505,1219.4141 L1996.1505,1215.5524 C1996.1505,1215.4241 1996.0572,1215.3307 1995.9288,1215.3307 L1988.1938,1215.3307 M1987.9838,1221.0591 L1987.9838,1224.4541 C1987.9838,1224.5824 1988.0772,1224.6757 1988.2055,1224.6757 L1995.9405,1224.6757 C1996.0688,1224.6757 1996.1622,1224.5824 1996.1622,1224.4541 L1996.1622,1221.0591 C1995.9755,1221.1291 1995.7888,1221.1641 1995.5788,1221.1641 L1988.5788,1221.1641 C1988.3688,1221.1641 1988.1822,1221.1174 1987.9955,1221.0591 M1994.4005,1222.3307 C1994.7272,1222.3307 1994.9838,1222.5874 1994.9838,1222.9141 C1994.9838,1223.2407 1994.7272,1223.4974 1994.4005,1223.4974 C1994.0738,1223.4974 1993.8172,1223.2407 1993.8172,1222.9141 C1993.8172,1222.5874 1994.0738,1222.3307 1994.4005,1222.3307" fill="#D29922"/><text fill="#E6EDF3" font-family="'Segoe UI, Inter, sans-serif'" font-size="14" lengthAdjust="spacing" textLength="66.9375" x="2002.1521" y="1224.6504">SQL Server</text></g><!--entity IDENTITY--><g class="entity" data-qualified-name="External Infrastructure.IDENTITY" data-source-line="67" id="ent0031"><rect fill="#0D1117" height="125.8633" rx="6" ry="6" style="stroke:#58A6FF;stroke-width:1.5;" width="160.2962" x="1947.9838" y="960.9219"/><rect fill="#0D1117" height="10" style="stroke:#58A6FF;stroke-width:1.5;" width="15" x="2088.28" y="965.9219"/><rect fill="#0D1117" height="2" style="stroke:#58A6FF;stroke-width:1.5;" width="4" x="2086.28" y="967.9219"/><rect fill="#0D1117" height="2" style="stroke:#58A6FF;stroke-width:1.5;" width="4" x="2086.28" y="971.9219"/><text fill="#E6EDF3" font-family="'Segoe UI, Inter, sans-serif'" font-size="14" font-style="italic" lengthAdjust="spacing" textLength="64.9961" x="1990.6339" y="1006.0293">&#171;Package&#187;</text><path d="M1978.6505,1035.3307 L1978.4288,1035.4357 L1974.3455,1037.1507 L1973.9838,1037.3024 L1973.9838,1037.6641 C1973.9838,1039.6007 1974.7655,1041.3041 1975.6988,1042.5524 C1976.1655,1043.1707 1976.6672,1043.6841 1977.1572,1044.0457 C1977.6472,1044.4074 1978.1255,1044.6641 1978.6505,1044.6641 C1979.1872,1044.6641 1979.6538,1044.4074 1980.1438,1044.0457 C1980.6338,1043.6841 1981.1355,1043.1707 1981.6022,1042.5524 C1982.5355,1041.3041 1983.3172,1039.6007 1983.3172,1037.6641 L1983.3172,1037.3024 L1982.9555,1037.1507 L1978.8722,1035.4357 L1978.6505,1035.3307 M1978.6505,1036.6024 L1978.6505,1043.4974 C1978.6038,1043.4974 1978.2655,1043.4157 1977.8805,1043.1357 C1977.4955,1042.8557 1977.0522,1042.4007 1976.6438,1041.8641 C1975.8972,1040.8724 1975.3138,1039.4957 1975.2205,1038.0374 L1978.6505,1036.6141" fill="#A371F7"/><text fill="#E6EDF3" font-family="'Segoe UI, Inter, sans-serif'" font-size="14" lengthAdjust="spacing" textLength="85.1279" x="1988.1521" y="1044.6504">ASP.NET Core</text><text fill="#E6EDF3" font-family="'Segoe UI, Inter, sans-serif'" font-size="14" lengthAdjust="spacing" textLength="46.8672" x="1972.9838" y="1063.2715">Identity</text></g><!--entity CLIENT--><g class="entity" data-qualified-name="CLIENT" data-source-line="71" id="ent0032"><ellipse cx="506.7158" cy="1482.4219" fill="#3FB950" rx="16" ry="16" style="stroke:#3FB950;stroke-width:0.5;"/><path d="M506.7158,1502.4219 C510.7158,1502.4219 513.7158,1502.4219 517.7158,1498.4219 C525.7158,1498.4219 533.7158,1506.4219 533.7158,1514.4219 L533.7158,1518.4219 C533.7158,1522.4219 529.7158,1526.4219 525.7158,1526.4219 L487.7158,1526.4219 C483.7158,1526.4219 479.7158,1522.4219 479.7158,1518.4219 L479.7158,1514.4219 C479.7158,1506.4219 487.7158,1498.4219 495.7158,1498.4219 C499.7158,1502.4219 502.7158,1502.4219 506.7158,1502.4219" fill="#3FB950"/><text fill="#0D1117" font-family="'Segoe UI, Inter, sans-serif'" font-size="14" lengthAdjust="spacing" textLength="116.4639" x="448.4838" y="1552.0293">Web/Mobile Client</text></g><!--link CI to API--><g class="link" data-entity-1="ent0003" data-entity-2="ent0008" data-link-type="dependency" data-source-line="76" id="lnk33"><path d="M137.9538,617.8319 C188.6338,730.1219 302.7538,998.4919 350.4838,1236.9219 C353.6038,1252.5219 348.0738,1367.8819 358.4838,1379.9219 C363.8488,1386.1294 370.1191,1391.2634 376.9907,1395.4942 C380.4265,1397.6096 384.0127,1399.4992 387.7111,1401.1843 C389.5603,1402.0268 391.4376,1402.8182 393.3383,1403.5611 C394.2886,1403.9325 395.2447,1404.2919 396.2061,1404.6394 C396.6868,1404.8132 397.1688,1404.984 397.652,1405.1519 C397.8937,1405.2359 392.4561,1403.3844 392.6983,1403.4669" fill="none" id="CI-to-API" style="stroke:#39C5CF;stroke-width:1.5;"/><polygon fill="#39C5CF" points="398.3778,1405.4016,391.1483,1398.7133,393.6449,1403.7894,388.5687,1406.2859,398.3778,1405.4016" style="stroke:#39C5CF;stroke-width:1.5;"/><text fill="#C9D1D9" font-family="'Segoe UI, Inter, sans-serif'" font-size="12" lengthAdjust="spacing" textLength="73.9629" x="252.7709" y="835.8711">(1) Deploys to</text></g><!--link CI to TESTS--><g class="link" data-entity-1="ent0003" data-entity-2="ent0026" data-link-type="dependency" data-source-line="79" id="lnk34"><path d="M187.2638,510.2119 C295.7338,432.2419 486.7138,296.9219 505.4838,296.9219 C505.4838,296.9219 505.4838,296.9219 1266.4838,296.9219 C1341.5488,296.9219 1425.5713,290.1394 1491.5488,283.2506 C1499.796,282.3895 1507.7612,281.5268 1515.3918,280.6754 C1517.2994,280.4626 1513.2242,280.9256 1515.0892,280.7144" fill="none" id="CI-to-TESTS" style="stroke:#3FB950;stroke-width:1.5;"/><polygon fill="#3FB950" points="1521.0511,280.0392,1511.6581,277.0774,1516.0829,280.6019,1512.5584,285.0266,1521.0511,280.0392" style="stroke:#3FB950;stroke-width:1.5;"/><text fill="#C9D1D9" font-family="'Segoe UI, Inter, sans-serif'" font-size="12" lengthAdjust="spacing" textLength="62.6191" x="869.2709" y="283.8711">(2) Executes</text></g><!--link CLIENT to PAT_ENDP--><g class="link" data-entity-1="ent0032" data-entity-2="ent0010" data-link-type="dependency" data-source-line="82" id="lnk35"><path d="M574.6038,1533.7519 C634.2938,1545.6319 721.7438,1552.9119 785.4838,1514.9219 C841.5738,1481.4819 870.1358,1415.4607 885.0958,1365.4007" fill="none" id="CLIENT-to-PAT_ENDP" style="stroke:#58A6FF;stroke-width:1.5;"/><polygon fill="#58A6FF" points="886.8138,1359.6519,880.4043,1367.1297,885.3822,1364.4425,888.0694,1369.4204,886.8138,1359.6519" style="stroke:#58A6FF;stroke-width:1.5;"/><text fill="#C9D1D9" font-family="'Segoe UI, Inter, sans-serif'" font-size="12" lengthAdjust="spacing" textLength="88.4824" x="656.2709" y="1501.8711">(3) Patient CRUD</text></g><!--link CLIENT to AUTH_ENDP--><g class="link" data-entity-1="ent0032" data-entity-2="ent0009" data-link-type="dependency" data-source-line="85" id="lnk36"><path d="M438.3038,1482.2019 C350.1238,1433.8819 214.5538,1340.6919 274.4838,1249.4219 C307.3138,1199.4319 365.0826,1175.5951 417.4026,1162.9151" fill="none" id="CLIENT-to-AUTH_ENDP" style="stroke:#58A6FF;stroke-width:1.5;"/><polygon fill="#58A6FF" points="423.2338,1161.5019,413.5449,1159.7342,418.3745,1162.6796,415.4292,1167.5092,423.2338,1161.5019" style="stroke:#58A6FF;stroke-width:1.5;"/><text fill="#C9D1D9" font-family="'Segoe UI, Inter, sans-serif'" font-size="12" lengthAdjust="spacing" textLength="93.5098" x="242.7709" y="1273.3711">(4) Auth Requests</text></g><!--link CLIENT to USR_ENDP--><g class="link" data-entity-1="ent0032" data-entity-2="ent0012" data-link-type="dependency" data-source-line="88" id="lnk37"><path d="M438.3338,1494.5619 C384.5538,1473.5619 313.5738,1435.6319 282.4838,1374.4219 C260.5038,1331.1619 246.2238,1208.3819 358.4838,1069.9219 C375.5838,1048.8319 394.5701,1035.4108 418.5901,1023.4808" fill="none" id="CLIENT-to-USR_ENDP" style="stroke:#58A6FF;stroke-width:1.5;"/><polygon fill="#58A6FF" points="423.9638,1020.8119,414.124,1021.2328,419.4857,1023.036,417.6826,1028.3978,423.9638,1020.8119" style="stroke:#58A6FF;stroke-width:1.5;"/><text fill="#C9D1D9" font-family="'Segoe UI, Inter, sans-serif'" font-size="12" lengthAdjust="spacing" textLength="78.3633" x="250.7709" y="1361.3711">(5) Assign Role</text></g><!--link CLIENT to DOC_ENDP--><g class="link" data-entity-1="ent0032" data-entity-2="ent0011" data-link-type="dependency" data-source-line="91" id="lnk38"><path d="M574.5338,1484.7919 C652.3338,1448.0919 771.7538,1389.7119 785.4838,1370.9219 C823.8038,1318.4719 778.6838,1283.5619 810.4838,1226.9219 C815.3138,1218.3219 817.4266,1214.6495 824.2266,1207.1395" fill="none" id="CLIENT-to-DOC_ENDP" style="stroke:#3FB950;stroke-width:1.5;"/><polygon fill="#3FB950" points="828.2538,1202.6919,819.2479,1206.6786,824.8978,1206.3983,825.1782,1212.0482,828.2538,1202.6919" style="stroke:#3FB950;stroke-width:1.5;"/><text fill="#C9D1D9" font-family="'Segoe UI, Inter, sans-serif'" font-size="12" lengthAdjust="spacing" textLength="87.8086" x="658.6313" y="1341.8711">(6) Doctor CRUD</text><text fill="#C9D1D9" font-family="'Segoe UI, Inter, sans-serif'" font-size="12" lengthAdjust="spacing" textLength="145.5293" x="626.4838" y="1357.832">(GET=Public, Write=Admin)</text></g><!--link MW to PAT_ENDP--><g class="link" data-entity-1="ent0013" data-entity-2="ent0010" data-link-type="dependency" data-source-line="94" id="lnk39"><path d="M590.6138,1305.9219 C655.1138,1305.9219 738.3538,1305.9219 804.3338,1305.9219" fill="none" id="MW-to-PAT_ENDP" style="stroke:#58A6FF;stroke-width:1.5;"/><polygon fill="#58A6FF" points="810.3338,1305.9219,801.3338,1301.9219,805.3338,1305.9219,801.3338,1309.9219,810.3338,1305.9219" style="stroke:#58A6FF;stroke-width:1.5;"/><text fill="#C9D1D9" font-family="'Segoe UI, Inter, sans-serif'" font-size="12" lengthAdjust="spacing" textLength="112.2422" x="644.7709" y="1292.8711">(7) JWT + Role Check</text></g><!--link MW to DOC_ENDP--><g class="link" data-entity-1="ent0013" data-entity-2="ent0011" data-link-type="dependency" data-source-line="95" id="lnk40"><path d="M590.6838,1267.5419 C599.0338,1263.8819 607.4038,1260.2819 615.4838,1256.9219 C680.3738,1229.8919 749.0248,1203.8188 805.3448,1183.0388" fill="none" id="MW-to-DOC_ENDP" style="stroke:#58A6FF;stroke-width:1.5;"/><polygon fill="#58A6FF" points="810.9738,1180.9619,801.1456,1180.3245,806.2829,1182.6926,803.9148,1187.83,810.9738,1180.9619" style="stroke:#58A6FF;stroke-width:1.5;"/><text fill="#C9D1D9" font-family="'Segoe UI, Inter, sans-serif'" font-size="12" lengthAdjust="spacing" textLength="103.7578" x="648.7709" y="1178.8711">(7) JWT (Write only)</text></g><!--link FILT to DTO--><g class="link" data-entity-1="ent0014" data-entity-2="ent0024" data-link-type="dependency" data-source-line="98" id="lnk41"><path d="M586.6938,816.5019 C738.9238,782.2319 1083.3938,710.1419 1377.9838,687.9219 C1429.3938,684.0419 1447.8838,664.8419 1493.9838,687.9219 C1543.0838,712.5019 1573.9877,763.8183 1591.5177,800.8683" fill="none" id="FILT-to-DTO" style="stroke:#58A6FF;stroke-width:1.5;"/><polygon fill="#58A6FF" points="1594.0838,806.2919,1593.8503,796.4458,1591.9454,801.7722,1586.6189,799.8673,1594.0838,806.2919" style="stroke:#58A6FF;stroke-width:1.5;"/><text fill="#C9D1D9" font-family="'Segoe UI, Inter, sans-serif'" font-size="12" lengthAdjust="spacing" textLength="64.9746" x="1063.2709" y="700.8711">(8) Validates</text></g><!--link PAT_ENDP to PAT_INTF--><g class="link" data-entity-1="ent0010" data-entity-2="ent0020" data-link-type="dependency" data-source-line="101" id="lnk42"><path d="M971.5038,1359.6419 C992.0038,1372.4319 1015.2038,1384.2819 1038.4838,1390.9219 C1121.2338,1414.5119 1220.5619,1376.739 1250.5819,1363.979" fill="none" id="PAT_ENDP-to-PAT_INTF" style="stroke:#58A6FF;stroke-width:1.5;"/><polygon fill="#58A6FF" points="1256.1038,1361.6319,1246.2563,1361.4712,1251.5022,1363.5878,1249.3857,1368.8337,1256.1038,1361.6319" style="stroke:#58A6FF;stroke-width:1.5;"/><text fill="#C9D1D9" font-family="'Segoe UI, Inter, sans-serif'" font-size="12" lengthAdjust="spacing" textLength="50.8652" x="1070.2709" y="1377.8711">(9) Injects</text></g><!--reverse link PAT_INTF to PAT_SVC--><g class="link" data-entity-1="ent0020" data-entity-2="ent0017" data-link-type="extension" data-source-line="104" id="lnk44"><path d="M1238.7687,1364.8272 C1206.9187,1372.8472 1118.6138,1389.7919 1069.4838,1334.4219 C1059.7338,1323.4319 1061.6638,1026.5719 1160.4838,872.9219 C1166.9938,862.8019 1175.3138,853.5219 1184.4038,845.1819" fill="none" id="PAT_INTF-backto-PAT_SVC" style="stroke:#3FB950;stroke-width:1.5;stroke-dasharray:7,7;"/><polygon fill="none" points="1256.2238,1360.4319,1237.3036,1359.0088,1240.2338,1370.6455,1256.2238,1360.4319" style="stroke:#3FB950;stroke-width:1.5;"/><text fill="#C9D1D9" font-family="'Segoe UI, Inter, sans-serif'" font-size="12" lengthAdjust="spacing" textLength="85.793" x="1052.7709" y="1321.3711">(10) Implements</text></g><!--link DOC_ENDP to DOC_INTF--><g class="link" data-entity-1="ent0011" data-entity-2="ent0021" data-link-type="dependency" data-source-line="107" id="lnk45"><path d="M990.2238,1191.6719 C1005.0538,1201.7019 1019.2438,1213.4619 1030.4838,1226.9219 C1036.8838,1234.5919 1030.8138,1241.5219 1038.4838,1247.9219 C1105.9038,1304.1619 1218.3949,1295.4625 1250.3749,1291.7025" fill="none" id="DOC_ENDP-to-DOC_INTF" style="stroke:#58A6FF;stroke-width:1.5;"/><polygon fill="#58A6FF" points="1256.3338,1291.0019,1246.9283,1288.0802,1251.368,1291.5857,1247.8625,1296.0254,1256.3338,1291.0019" style="stroke:#58A6FF;stroke-width:1.5;"/><text fill="#C9D1D9" font-family="'Segoe UI, Inter, sans-serif'" font-size="12" lengthAdjust="spacing" textLength="57.334" x="1067.2709" y="1234.8711">(11) Injects</text></g><!--reverse link DOC_INTF to DOC_SVC--><g class="link" data-entity-1="ent0021" data-entity-2="ent0018" data-link-type="extension" data-source-line="110" id="lnk47"><path d="M1238.6925,1284.7264 C1193.2625,1275.7864 1013.5538,1235.6619 1069.4838,1162.4219 C1096.1338,1127.5219 1143.2238,1113.9119 1184.5638,1109.1419" fill="none" id="DOC_INTF-backto-DOC_SVC" style="stroke:#3FB950;stroke-width:1.5;stroke-dasharray:7,7;"/><polygon fill="none" points="1256.3538,1288.2019,1239.851,1278.8393,1237.534,1290.6135,1256.3538,1288.2019" style="stroke:#3FB950;stroke-width:1.5;"/><text fill="#C9D1D9" font-family="'Segoe UI, Inter, sans-serif'" font-size="12" lengthAdjust="spacing" textLength="85.793" x="1052.7709" y="1186.3711">(12) Implements</text></g><!--link AUTH_ENDP to AUTH_INTF--><g class="link" data-entity-1="ent0009" data-entity-2="ent0019" data-link-type="dependency" data-source-line="113" id="lnk48"><path d="M589.4838,1099.7819 C725.6138,1025.2319 998.4838,906.7819 1152.4838,1051.9219 C1174.3538,1072.5319 1142.2338,1163.0419 1160.4838,1186.9219 C1184.0838,1217.8019 1230.1145,1221.5996 1250.2745,1221.9096" fill="none" id="AUTH_ENDP-to-AUTH_INTF" style="stroke:#58A6FF;stroke-width:1.5;"/><polygon fill="#58A6FF" points="1256.2738,1222.0019,1247.3364,1217.864,1251.2744,1221.925,1247.2134,1225.863,1256.2738,1222.0019" style="stroke:#58A6FF;stroke-width:1.5;"/><text fill="#C9D1D9" font-family="'Segoe UI, Inter, sans-serif'" font-size="12" lengthAdjust="spacing" textLength="57.334" x="872.2709" y="970.8711">(13) Injects</text></g><!--link USR_ENDP to AUTH_INTF--><g class="link" data-entity-1="ent0012" data-entity-2="ent0019" data-link-type="dependency" data-source-line="116" id="lnk49"><path d="M589.2638,964.1419 C693.5838,932.9519 878.6538,891.9819 1030.4838,934.9219 C1091.7338,952.2419 1120.1738,955.0819 1152.4838,1009.9219 C1162.4738,1026.8819 1148.6338,1171.2019 1160.4838,1186.9219 C1183.8738,1217.9619 1230.0243,1221.6847 1250.2443,1221.9447" fill="none" id="USR_ENDP-to-AUTH_INTF" style="stroke:#58A6FF;stroke-width:1.5;"/><polygon fill="#58A6FF" points="1256.2438,1222.0219,1247.296,1217.9065,1251.2442,1221.9576,1247.1931,1225.9058,1256.2438,1222.0219" style="stroke:#58A6FF;stroke-width:1.5;"/><text fill="#C9D1D9" font-family="'Segoe UI, Inter, sans-serif'" font-size="12" lengthAdjust="spacing" textLength="57.334" x="872.2709" y="903.8711">(14) Injects</text></g><!--reverse link AUTH_INTF to AUTH_SVC--><g class="link" data-entity-1="ent0019" data-entity-2="ent0016" data-link-type="extension" data-source-line="119" id="lnk51"><path d="M1238.5538,1216.75 C1219.5338,1213 1192.8238,1206.2219 1160.4838,1186.9219 C1102.2438,1152.1719 1035.4938,1123.1119 1069.4838,1064.4219 C1095.6338,1019.2619 1147.5138,990.6619 1191.3338,973.6019" fill="none" id="AUTH_INTF-backto-AUTH_SVC" style="stroke:#3FB950;stroke-width:1.5;stroke-dasharray:7,7;"/><polygon fill="none" points="1256.2138,1220.2319,1239.7144,1210.8633,1237.3932,1222.6367,1256.2138,1220.2319" style="stroke:#3FB950;stroke-width:1.5;"/><text fill="#C9D1D9" font-family="'Segoe UI, Inter, sans-serif'" font-size="12" lengthAdjust="spacing" textLength="85.793" x="1052.7709" y="1088.3711">(15) Implements</text></g><!--link PAT_SVC to DATA--><g class="link" data-entity-1="ent0017" data-entity-2="ent0023" data-link-type="dependency" data-source-line="122" id="lnk52"><path d="M1335.1938,848.4919 C1341.9838,856.0819 1348.1438,864.2819 1352.9838,872.9219 C1382.5938,925.7719 1339.4338,960.1819 1377.9838,1006.9219 C1383.1338,1013.1619 1456.274,1041.4201 1520.314,1065.3701" fill="none" id="PAT_SVC-to-DATA" style="stroke:#3FB950;stroke-width:1.5;"/><polygon fill="#3FB950" points="1525.9338,1067.4719,1518.9052,1060.5727,1521.2506,1065.7204,1516.1029,1068.0658,1525.9338,1067.4719" style="stroke:#3FB950;stroke-width:1.5;"/><text fill="#C9D1D9" font-family="'Segoe UI, Inter, sans-serif'" font-size="12" lengthAdjust="spacing" textLength="80.9297" x="1395.7709" y="993.8711">(16) Persists via</text></g><!--link DOC_SVC to DATA--><g class="link" data-entity-1="ent0018" data-entity-2="ent0023" data-link-type="dependency" data-source-line="123" id="lnk53"><path d="M1323.1238,1162.5419 C1339.5938,1174.9319 1358.4438,1186.3819 1377.9838,1192.9219 C1426.8738,1209.2819 1445.4838,1210.4219 1493.9838,1192.9219 C1518.0338,1184.2419 1536.1307,1172.0596 1554.7707,1155.4796" fill="none" id="DOC_SVC-to-DATA" style="stroke:#3FB950;stroke-width:1.5;"/><polygon fill="#3FB950" points="1559.2538,1151.4919,1549.8707,1154.4846,1555.5179,1154.8149,1555.1876,1160.4621,1559.2538,1151.4919" style="stroke:#3FB950;stroke-width:1.5;"/><text fill="#C9D1D9" font-family="'Segoe UI, Inter, sans-serif'" font-size="12" lengthAdjust="spacing" textLength="80.9297" x="1395.7709" y="1179.8711">(16) Persists via</text></g><!--link PAT_SVC to MOD--><g class="link" data-entity-1="ent0017" data-entity-2="ent0025" data-link-type="dependency" data-source-line="126" id="lnk54"><path d="M1330.7338,848.5119 C1338.6338,856.3319 1346.2738,864.5719 1352.9838,872.9219 C1367.0738,890.4519 1359.6638,903.8619 1377.9838,916.9219 C1430.3538,954.2519 1499.884,961.8376 1550.034,962.2076" fill="none" id="PAT_SVC-to-MOD" style="stroke:#3FB950;stroke-width:1.5;"/><polygon fill="#3FB950" points="1556.0338,962.2519,1547.0636,958.1856,1551.034,962.215,1547.0046,966.1854,1556.0338,962.2519" style="stroke:#3FB950;stroke-width:1.5;"/><text fill="#C9D1D9" font-family="'Segoe UI, Inter, sans-serif'" font-size="12" lengthAdjust="spacing" textLength="88.3359" x="1392.2709" y="903.8711">(17) Manipulates</text></g><!--link DOC_SVC to MOD--><g class="link" data-entity-1="ent0018" data-entity-2="ent0025" data-link-type="dependency" data-source-line="127" id="lnk55"><path d="M1346.2238,1129.9519 C1395.0938,1137.6819 1455.4638,1137.1219 1493.9838,1100.9219 C1507.3238,1088.3819 1491.9338,1034.2219 1501.9838,1018.9219 C1514.6838,999.5719 1530.5537,988.4692 1550.7937,979.2492" fill="none" id="DOC_SVC-to-MOD" style="stroke:#3FB950;stroke-width:1.5;"/><polygon fill="#3FB950" points="1556.2538,976.7619,1546.4054,976.8527,1551.7037,978.8346,1549.7218,984.1329,1556.2538,976.7619" style="stroke:#3FB950;stroke-width:1.5;"/><text fill="#C9D1D9" font-family="'Segoe UI, Inter, sans-serif'" font-size="12" lengthAdjust="spacing" textLength="88.3359" x="1392.2709" y="1087.8711">(17) Manipulates</text></g><!--link DATA to DB--><g class="link" data-entity-1="ent0023" data-entity-2="ent0030" data-link-type="dependency" data-source-line="130" id="lnk56"><path d="M1693.2638,1116.2119 C1774.0438,1134.0519 1889.115,1159.4681 1961.075,1175.3581" fill="none" id="DATA-to-DB" style="stroke:#A371F7;stroke-width:1.5;"/><polygon fill="#A371F7" points="1966.9338,1176.6519,1959.008,1170.8054,1962.0514,1175.5738,1957.283,1178.6172,1966.9338,1176.6519" style="stroke:#A371F7;stroke-width:1.5;"/><text fill="#C9D1D9" font-family="'Segoe UI, Inter, sans-serif'" font-size="12" lengthAdjust="spacing" textLength="79.8164" x="1791.7709" y="1122.8711">(18) EF Core 10</text></g><!--link DATA to IDENTITY--><g class="link" data-entity-1="ent0023" data-entity-2="ent0031" data-link-type="dependency" data-source-line="133" id="lnk57"><path d="M1693.2638,1083.2119 C1767.2838,1070.0619 1869.1064,1051.9717 1941.9764,1039.0217" fill="none" id="DATA-to-IDENTITY" style="stroke:#A371F7;stroke-width:1.5;"/><polygon fill="#A371F7" points="1947.8838,1037.9719,1938.3228,1035.6083,1942.961,1038.8467,1939.7225,1043.4849,1947.8838,1037.9719" style="stroke:#A371F7;stroke-width:1.5;"/><text fill="#C9D1D9" font-family="'Segoe UI, Inter, sans-serif'" font-size="12" lengthAdjust="spacing" textLength="88.6406" x="1787.2709" y="1037.8711">(19) Stores Users</text></g><!--reverse link PAT_SVC to UT--><g class="link" data-entity-1="ent0017" data-entity-2="ent0027" data-link-type="dependency" data-source-line="136" id="lnk59"><path d="M1344.1431,737.8377 C1389.0831,704.5077 1442.8938,664.0619 1493.9838,623.9219 C1511.9838,609.7819 1531.3038,594.1119 1548.8538,579.6819" fill="none" id="PAT_SVC-backto-UT" style="stroke:#F85149;stroke-width:1.5;stroke-dasharray:7,7;"/><polygon fill="#F85149" points="1339.3238,741.4119,1348.9355,739.2634,1343.3398,738.4334,1344.1699,732.8377,1339.3238,741.4119" style="stroke:#F85149;stroke-width:1.5;"/><text fill="#C9D1D9" font-family="'Segoe UI, Inter, sans-serif'" font-size="12" lengthAdjust="spacing" textLength="50.2793" x="1411.2709" y="610.8711">(20) Tests</text></g><!--reverse link DOC_SVC to UT--><g class="link" data-entity-1="ent0018" data-entity-2="ent0027" data-link-type="dependency" data-source-line="137" id="lnk61"><path d="M1338.9811,1050.6807 C1345.8911,1042.8407 1348.1638,1038.8719 1352.9838,1029.9219 C1386.6838,967.3219 1345.2938,935.0619 1377.9838,871.9219 C1411.0738,808.0019 1451.5138,817.0319 1493.9838,758.9219 C1534.3738,703.6519 1567.6038,632.0119 1587.6738,583.6919" fill="none" id="DOC_SVC-backto-UT" style="stroke:#F85149;stroke-width:1.5;stroke-dasharray:7,7;"/><polygon fill="#F85149" points="1335.0138,1055.1819,1343.9655,1051.0749,1338.3199,1051.4309,1337.9639,1045.7852,1335.0138,1055.1819" style="stroke:#F85149;stroke-width:1.5;"/><text fill="#C9D1D9" font-family="'Segoe UI, Inter, sans-serif'" font-size="12" lengthAdjust="spacing" textLength="50.2793" x="1411.2709" y="745.8711">(20) Tests</text></g><!--reverse link PAT_ENDP to IT--><g class="link" data-entity-1="ent0010" data-entity-2="ent0028" data-link-type="dependency" data-source-line="140" id="lnk63"><path d="M996.4482,1329.5043 C1012.3082,1332.6643 1022.8738,1334.2319 1038.4838,1335.9219 C1063.6738,1338.6519 1134.4538,1353.7219 1152.4838,1335.9219 C1164.6438,1323.9219 1152.8138,736.1819 1160.4838,720.9219 C1208.8338,624.7419 1268.6838,640.8619 1352.9838,573.9219 C1420.2338,520.5219 1434.2038,503.6419 1501.9838,450.9219 C1515.8238,440.1619 1530.9038,428.8619 1545.2438,418.3119" fill="none" id="PAT_ENDP-backto-IT" style="stroke:#F85149;stroke-width:1.5;stroke-dasharray:7,7;"/><polygon fill="#F85149" points="990.5638,1328.3319,998.6087,1334.0134,995.4674,1329.3089,1000.1719,1326.1676,990.5638,1328.3319" style="stroke:#F85149;stroke-width:1.5;"/><text fill="#C9D1D9" font-family="'Segoe UI, Inter, sans-serif'" font-size="12" lengthAdjust="spacing" textLength="146.6953" x="1192.2709" y="560.8711">(21) WebApplicationFactory</text></g><!--reverse link DOC_ENDP to IT--><g class="link" data-entity-1="ent0011" data-entity-2="ent0028" data-link-type="dependency" data-source-line="141" id="lnk65"><path d="M967.4533,1090.9975 C990.5733,1068.7075 1011.4938,1045.7319 1030.4838,1017.9219 C1105.4138,908.1619 1122.4038,874.3719 1152.4838,744.9219 C1158.0238,721.0919 1145.8738,544.5419 1160.4838,524.9219 C1251.2238,403.0519 1444.7738,377.9419 1545.1538,373.3919" fill="none" id="DOC_ENDP-backto-IT" style="stroke:#F85149;stroke-width:1.5;stroke-dasharray:7,7;"/><polygon fill="#F85149" points="963.1338,1095.1619,972.3893,1091.7949,966.7334,1091.6915,966.8368,1086.0356,963.1338,1095.1619" style="stroke:#F85149;stroke-width:1.5;"/><text fill="#C9D1D9" font-family="'Segoe UI, Inter, sans-serif'" font-size="12" lengthAdjust="spacing" textLength="146.6953" x="1192.2709" y="391.8711">(21) WebApplicationFactory</text></g><g class="footer" data-source-line="18"><text fill="#E6EDF3" font-family="'Segoe UI, Inter, sans-serif'" font-size="10" lengthAdjust="spacing" textLength="236.2207" x="958.3816" y="1580.3203">Sprint 4 &#8212; Doctors CRUD (Public GET + Admin Write)</text></g><?plantuml-src hPVzRk964C3_zrFi4UaEr2F44FAb18dOvk8J11hCHLNl51bx2TiOhsklyz4sKX-YJzWdwUo73GPpbqilVoJHxivlPcTcPyRlKFrrFzexr2C1Fa4UNKGqn27RZT950Ckl1uxIEA89HWYT82F3ed___WTD8jzbs4VTs9iJXZsMnXWz43P79lKOZP5nDJ61q7UVS8oG8C1EWggJGRy66zsKpMaiDmPqxYuuB22mOyHOeFbESwzvKDzhrVKsR8oZc81wiR4lh92w4g4C_OIkQ83hKpVXA84dVxYCqF1_-41xu-CP2J6QZAqROp9sXeCRvy8QMDeR4df1wcEqkzlmQ3WZjus4FGLOUbrZX0LupMahha5lYwuRtkFudk07L5MttAzfOFRPsHcwmAwFuqQFKWQkX1LjBbQG4P2GU6ZWXkujNd0buwU4uGMgbxErcKHa6ZPTM1sbqm2G7om7tDdr5oH4rp60ScCWdZG5HPWn4jucmfm0pnXY5CNaTiwGJsBGoxsUt94mScDtWKBgumH7gBstiXYxuPrQL73h4SmBtQ1Xs2fnEDuBQEgZogb70ngVx5W7bjbhTKxVYlNEQKEiTz07mYxIAR8ycWWlL92Re0-sSp4vHplwWNxURA8_DPuz-GDPGjj7tODUZqFfxGQoAwwJ221OTdeAlnk6YJeTjBDdwhf-AB0XE1TDAMDqWUWCpfoWyvG4_dlK1tU_HmvEsEUmwbCMOeQcVAl1OAtsETJr8yJ_JRJdp1VTA898YFJDmigT4RdU7KGRLMJmbx7lZcnrhf9P1TSLXkKo6xUTqiVbRRiHGQEO_WRHGzNTIqW1VQycBitPS6iP4hYrTECML_QEslh-CS2JES71Ie3uaxH2FwBW3UdCxiIvkB4kpH6d3-0-2pSGoZgTLsaOWRlWP579gEkyGaUhTtxStYlH8TzBKOKvD7xaDIO9NbCm6L_zI0KV7zY0-7w07zmO2mM3QudE5hUGFxa1yKLEGgk1jofaUtRVuTAPoN8h8pn_LmuQ57IN9w4nlB9UdeLv_0eFcgVWc1T33oyJSFp9u5or_jAyA71LugsYUThz0B9CjrKmJxRjOF0_ZcSkB5RiqjlQbqwFozhvmItIM-xqOlbooql5S_aP3NXZgvWkSwL8r-dUz8PzqxfQYVSM3vhDu-Dc4pmuTsE_xiVa7gzMjyYS6XJKFh8SpIqPuJWXK3V3ubNMT9ZEKBrrPxZjp02wN21F3OPcVkgvz1tmRf1agIva76liZB-TuPEGCD5BL6aGR-zHh9Od67VrRInUhP2mDoMUbtt73cUncx0ubRF3iWtp7eugMOjUErTPQx5G95m-YBqmEEEV-oAPLKKnpxc5PiPGHfP4lDiwr7k7PRrcF1B5WzUJpw7jWnHXJ_BwfdNfsCul8lOg6g0XTy0eXb4bPBBpokjNirlNX2TSCSLLhl6qCQ1JmiUyW3yLMQRwDl0ps1KE10ZiY-Im11jLlSRdY5b07pJuM_zrftLij8tU5vy-XFMEgEmdg2BEcJWAw5F2nwkAa6qAMJaiA65HE39XcKL278vQZzXBuR0IRjMoKYNdSsaiXyXo_4MCS439cwO0hOafs7vDr5Euu--fD6SRRTdd1MvTKF7Qi9mav3OKS_nsMjuC1QmefL07jS9do1AbV9MXyiOjK4Kf6DLW33wJ4_5xEGQVYP6ufhGSrj37QqTzTo1ZZhqx3Hhfqc8Lag8pIwI0LoPNj4x9LOKXY8R1KsR7KGsfnemJJNJZJPGpb9JLiqhyk0QFcLUX98-ogjfQRddfdKGj5zGLX6H2qqRs8Wh4Q5hEvJriDuy8_uRO_MkTkuPHR7sfJSKhu-OUA_Nb2bVVCBXPq5J2BRTtZTiiixUrL2RoFgCkdyM6kSjMBRcj3Nltjq3pr_5Dvlu6irsmVjFMSXUiSzjbFe2tfHfjWkw9csV0HlqIRLc2rcG0bSNX-wI40V1yu6E9H6aWdibM_T2v5QWeyJNjNv4Hkk7HMJqvs-fxch0L6B9vvJSuLuZ2uOm03smC2Gb8_d6Gh3EoUfRtDebQayew23og0VNk4lHMpX4Qp10GLlcvy2MDTZlvz2hx20Wugb1l7isyid5Kw8A71drovMEs9xhdasQNwboMkwsIGBPBZNYPx7y0?></g></svg>