<?plantuml 1.2026.2?><svg xmlns="http://www.w3.org/2000/svg" xmlns:xlink="http://www.w3.org/1999/xlink" contentStyleType="text/css" data-diagram-type="CLASS" height="2007px" preserveAspectRatio="none" style="width:5331px;height:2007px;background:#0D1117;" version="1.1" viewBox="0 0 5331 2007" width="5331px" zoomAndPan="magnify"><title>Class Diagram &#8212; Patient Domain Architecture (Sprint 3)</title><defs/><g><rect fill="#0D1117" height="2007" style="stroke:none;stroke-width:1;" width="5331" x="0" y="0"/><g class="header" data-source-line="17"><text fill="#E6EDF3" font-family="'Segoe UI, Inter, sans-serif'" font-size="10" lengthAdjust="spacing" textLength="194.9121" x="5112.1597" y="20.791">Clinic Management System - Domain Model</text></g><g class="title" data-source-line="14"><text fill="#E6EDF3" font-family="'Segoe UI, Inter, sans-serif'" font-size="14" font-weight="bold" lengthAdjust="spacing" textLength="368.5049" x="2474.2834" y="69.4082">Class Diagram &#8212; Patient Domain Architecture (Sprint 3)</text></g><!--cluster ClinicManagementAPI--><g class="cluster" data-qualified-name="ClinicManagementAPI" data-source-line="29" id="ent0004"><path d="M623.5,222.4819 L804.625,222.4819 A9,9 0 0 1 810.625,228.4819 L817.625,269.7631 L4903.5,269.7631 A6,6 0 0 1 4909.5,275.7631 L4909.5,1806.4819 A6,6 0 0 1 4903.5,1812.4819 L623.5,1812.4819 A6,6 0 0 1 617.5,1806.4819 L617.5,228.4819 A6,6 0 0 1 623.5,222.4819" fill="#161B22" style="stroke:#30363D;stroke-width:1.5;"/><line style="stroke:#30363D;stroke-width:1.5;" x1="617.5" x2="817.625" y1="269.7631" y2="269.7631"/><text fill="#58A6FF" font-family="'Segoe UI, Inter, sans-serif'" font-size="16" font-weight="bold" lengthAdjust="spacing" textLength="167.125" x="631.5" y="251.7475">ClinicManagementAPI</text></g><!--cluster Core--><g class="cluster" data-qualified-name="ClinicManagementAPI.Core" data-source-line="29" id="ent0005"><path d="M647.5,290.4819 L696.2891,290.4819 A9,9 0 0 1 702.2891,296.4819 L709.2891,337.7631 L4879.5,337.7631 A6,6 0 0 1 4885.5,343.7631 L4885.5,1782.4819 A6,6 0 0 1 4879.5,1788.4819 L647.5,1788.4819 A6,6 0 0 1 641.5,1782.4819 L641.5,296.4819 A6,6 0 0 1 647.5,290.4819" fill="#161B22" style="stroke:#30363D;stroke-width:1.5;"/><line style="stroke:#30363D;stroke-width:1.5;" x1="641.5" x2="709.2891" y1="337.7631" y2="337.7631"/><text fill="#58A6FF" font-family="'Segoe UI, Inter, sans-serif'" font-size="16" font-weight="bold" lengthAdjust="spacing" textLength="34.7891" x="655.5" y="319.7475">Core</text></g><!--cluster Interfaces--><g class="cluster" data-qualified-name="ClinicManagementAPI.Core.Interfaces" data-source-line="27" id="ent0002"><path d="M3350.5,503.9819 L3438.6172,503.9819 A9,9 0 0 1 3444.6172,509.9819 L3451.6172,551.2631 L4855.5,551.2631 A6,6 0 0 1 4861.5,557.2631 L4861.5,913.9819 A6,6 0 0 1 4855.5,919.9819 L3350.5,919.9819 A6,6 0 0 1 3344.5,913.9819 L3344.5,509.9819 A6,6 0 0 1 3350.5,503.9819" fill="#161B22" style="stroke:#30363D;stroke-width:1.5;"/><line style="stroke:#30363D;stroke-width:1.5;" x1="3344.5" x2="3451.6172" y1="551.2631" y2="551.2631"/><text fill="#58A6FF" font-family="'Segoe UI, Inter, sans-serif'" font-size="16" font-weight="bold" lengthAdjust="spacing" textLength="74.1172" x="3358.5" y="533.2475">Interfaces</text></g><!--cluster Models--><g class="cluster" data-qualified-name="ClinicManagementAPI.Core.Models" data-source-line="51" id="ent0008"><path d="M2819.5,484.4819 L2888.7422,484.4819 A9,9 0 0 1 2894.7422,490.4819 L2901.7422,531.7631 L3311.5,531.7631 A6,6 0 0 1 3317.5,537.7631 L3317.5,1758.4819 A6,6 0 0 1 3311.5,1764.4819 L2819.5,1764.4819 A6,6 0 0 1 2813.5,1758.4819 L2813.5,490.4819 A6,6 0 0 1 2819.5,484.4819" fill="#0D1117" style="stroke:#30363D;stroke-width:1.5;"/><line style="stroke:#30363D;stroke-width:1.5;" x1="2813.5" x2="2901.7422" y1="531.7631" y2="531.7631"/><text fill="#58A6FF" font-family="'Segoe UI, Inter, sans-serif'" font-size="16" font-weight="bold" lengthAdjust="spacing" textLength="55.2422" x="2827.5" y="513.7475">Models</text></g><!--cluster DTOs--><g class="cluster" data-qualified-name="ClinicManagementAPI.Core.DTOs" data-source-line="95" id="ent0015"><path d="M671.5,358.4819 L725.8438,358.4819 A9,9 0 0 1 731.8438,364.4819 L738.8438,405.7631 L2783.5,405.7631 A6,6 0 0 1 2789.5,411.7631 L2789.5,1015.4819 A6,6 0 0 1 2783.5,1021.4819 L671.5,1021.4819 A6,6 0 0 1 665.5,1015.4819 L665.5,364.4819 A6,6 0 0 1 671.5,358.4819" fill="#161B22" style="stroke:#30363D;stroke-width:1.5;"/><line style="stroke:#30363D;stroke-width:1.5;" x1="665.5" x2="738.8438" y1="405.7631" y2="405.7631"/><text fill="#58A6FF" font-family="'Segoe UI, Inter, sans-serif'" font-size="16" font-weight="bold" lengthAdjust="spacing" textLength="40.3438" x="679.5" y="387.7475">DTOs</text></g><!--cluster Patients--><g class="cluster" data-qualified-name="ClinicManagementAPI.Core.DTOs.Patients" data-source-line="93" id="ent0013"><path d="M1731.5,426.4819 L1806.3125,426.4819 A9,9 0 0 1 1812.3125,432.4819 L1819.3125,473.7631 L2759.5,473.7631 A6,6 0 0 1 2765.5,479.7631 L2765.5,991.4819 A6,6 0 0 1 2759.5,997.4819 L1731.5,997.4819 A6,6 0 0 1 1725.5,991.4819 L1725.5,432.4819 A6,6 0 0 1 1731.5,426.4819" fill="#161B22" style="stroke:#30363D;stroke-width:1.5;"/><line style="stroke:#30363D;stroke-width:1.5;" x1="1725.5" x2="1819.3125" y1="473.7631" y2="473.7631"/><text fill="#58A6FF" font-family="'Segoe UI, Inter, sans-serif'" font-size="16" font-weight="bold" lengthAdjust="spacing" textLength="60.8125" x="1739.5" y="455.7475">Patients</text></g><!--cluster Services--><g class="cluster" data-qualified-name="ClinicManagementAPI.Core.Services" data-source-line="161" id="ent0030"><path d="M4441.5,1289.9819 L4516.0859,1289.9819 A9,9 0 0 1 4522.0859,1295.9819 L4529.0859,1337.2631 L4599.5,1337.2631 A6,6 0 0 1 4605.5,1343.2631 L4605.5,1468.9819 A6,6 0 0 1 4599.5,1474.9819 L4441.5,1474.9819 A6,6 0 0 1 4435.5,1468.9819 L4435.5,1295.9819 A6,6 0 0 1 4441.5,1289.9819" fill="#161B22" style="stroke:#30363D;stroke-width:1.5;"/><line style="stroke:#30363D;stroke-width:1.5;" x1="4435.5" x2="4529.0859" y1="1337.2631" y2="1337.2631"/><text fill="#58A6FF" font-family="'Segoe UI, Inter, sans-serif'" font-size="16" font-weight="bold" lengthAdjust="spacing" textLength="60.5859" x="4449.5" y="1319.2475">Services</text></g><!--class <color:#A371F7><&shield></color> ISoftDeletable--><g class="entity" data-qualified-name="ClinicManagementAPI.Core.Interfaces..color..A371F7...shield...color. ISoftDeletable" data-source-line="29" id="ent0003"><rect fill="#161B22" height="180.4844" rx="6" ry="6" style="stroke:#A371F7;stroke-width:0.5;" width="183.0244" x="3361" y="665.9819"/><ellipse cx="3390.143" cy="709.603" fill="#A371F7" rx="10" ry="10" style="stroke:#181818;stroke-width:1;"/><path d="M3391.0492,706.7123 L3391.0492,712.1967 L3392.4555,712.1967 Q3392.9711,712.1967 3393.1742,712.3998 Q3393.393,712.5873 3393.393,712.8998 Q3393.393,713.2123 3393.1742,713.4155 Q3392.9711,713.603 3392.4555,713.603 L3388.2211,713.603 Q3387.7211,713.603 3387.5023,713.4155 Q3387.2992,713.2123 3387.2992,712.8998 Q3387.2992,712.5873 3387.5023,712.3998 Q3387.7211,712.1967 3388.2211,712.1967 L3389.643,712.1967 L3389.643,706.7123 L3388.2211,706.7123 Q3387.7211,706.7123 3387.5023,706.5248 Q3387.2992,706.3217 3387.2992,706.0092 Q3387.2992,705.6967 3387.5023,705.5092 Q3387.7211,705.3061 3388.2211,705.3061 L3392.4555,705.3217 Q3392.9711,705.3217 3393.1742,705.5092 Q3393.393,705.6967 3393.393,706.0092 Q3393.393,706.3217 3393.1742,706.5248 Q3392.9711,706.7123 3392.4555,706.7123 L3391.0492,706.7123 Z " fill="#E6EDF3"/><text fill="#E6EDF3" font-family="Segoe UI, Inter, sans-serif" font-size="14" font-style="italic" lengthAdjust="spacing" textLength="66.9375" x="3432.726" y="696.0893">&#171;Interface&#187;</text><path d="M3422.1747,725.3907 L3421.9531,725.4957 L3417.8697,727.2107 L3417.5081,727.3624 L3417.5081,727.7241 C3417.5081,729.6607 3418.2897,731.3641 3419.2231,732.6124 C3419.6897,733.2307 3420.1914,733.7441 3420.6814,734.1057 C3421.1714,734.4674 3421.6497,734.7241 3422.1747,734.7241 C3422.7114,734.7241 3423.1781,734.4674 3423.6681,734.1057 C3424.1581,733.7441 3424.6597,733.2307 3425.1264,732.6124 C3426.0597,731.3641 3426.8414,729.6607 3426.8414,727.7241 L3426.8414,727.3624 L3426.4797,727.2107 L3422.3964,725.4957 L3422.1747,725.3907 M3422.1747,726.6624 L3422.1747,733.5574 C3422.1281,733.5574 3421.7897,733.4757 3421.4047,733.1957 C3421.0197,732.9157 3420.5764,732.4607 3420.1681,731.9241 C3419.4214,730.9324 3418.8381,729.5557 3418.7447,728.0974 L3422.1747,726.6741" fill="#A371F7"/><text fill="#C9D1D9" font-family="'Segoe UI, Inter, sans-serif'" font-size="14" font-style="italic" lengthAdjust="spacing" textLength="84.1914" x="3431.69" y="734.7104">ISoftDeletable</text><line style="stroke:#A371F7;stroke-width:0.5;" x1="3362" x2="3543.0244" y1="753.2241" y2="753.2241"/><g data-visibility-modifier="PUBLIC_FIELD"><ellipse cx="3372" cy="778.0346" fill="none" rx="3" ry="3" style="stroke:#038048;stroke-width:1;"/></g><text fill="#C9D1D9" font-family="'Segoe UI, Inter, sans-serif'" font-size="14" lengthAdjust="spacing" textLength="96.5576" x="3390" y="782.3315">IsDeleted : bool</text><g data-visibility-modifier="PUBLIC_FIELD"><ellipse cx="3372" cy="816.6557" fill="none" rx="3" ry="3" style="stroke:#038048;stroke-width:1;"/></g><text fill="#C9D1D9" font-family="'Segoe UI, Inter, sans-serif'" font-size="14" lengthAdjust="spacing" textLength="138.0244" x="3390" y="820.9526">DeletedAt : DateTime?</text><line style="stroke:#A371F7;stroke-width:0.5;" x1="3362" x2="3543.0244" y1="838.4663" y2="838.4663"/></g><!--class IPatientService--><g class="entity" data-qualified-name="ClinicManagementAPI.Core.Interfaces.IPatientService" data-source-line="34" id="ent0006"><rect fill="#161B22" height="296.3477" rx="6" ry="6" style="stroke:#A371F7;stroke-width:0.5;" width="649.5908" x="4195.5" y="607.9819"/><ellipse cx="4461.978" cy="651.603" fill="#A371F7" rx="10" ry="10" style="stroke:#181818;stroke-width:1;"/><path d="M4462.8843,648.7123 L4462.8843,654.1967 L4464.2905,654.1967 Q4464.8062,654.1967 4465.0093,654.3998 Q4465.228,654.5873 4465.228,654.8998 Q4465.228,655.2123 4465.0093,655.4155 Q4464.8062,655.603 4464.2905,655.603 L4460.0562,655.603 Q4459.5562,655.603 4459.3374,655.4155 Q4459.1343,655.2123 4459.1343,654.8998 Q4459.1343,654.5873 4459.3374,654.3998 Q4459.5562,654.1967 4460.0562,654.1967 L4461.478,654.1967 L4461.478,648.7123 L4460.0562,648.7123 Q4459.5562,648.7123 4459.3374,648.5248 Q4459.1343,648.3217 4459.1343,648.0092 Q4459.1343,647.6967 4459.3374,647.5092 Q4459.5562,647.3061 4460.0562,647.3061 L4464.2905,647.3217 Q4464.8062,647.3217 4465.0093,647.5092 Q4465.228,647.6967 4465.228,648.0092 Q4465.228,648.3217 4465.0093,648.5248 Q4464.8062,648.7123 4464.2905,648.7123 L4462.8843,648.7123 Z " fill="#E6EDF3"/><text fill="#E6EDF3" font-family="Segoe UI, Inter, sans-serif" font-size="14" font-style="italic" lengthAdjust="spacing" textLength="66.9375" x="4501.8267" y="638.0893">&#171;Interface&#187;</text><text fill="#C9D1D9" font-family="'Segoe UI, Inter, sans-serif'" font-size="14" font-style="italic" lengthAdjust="spacing" textLength="88.6348" x="4490.978" y="676.7104">IPatientService</text><line style="stroke:#A371F7;stroke-width:0.5;" x1="4196.5" x2="4844.0908" y1="695.2241" y2="695.2241"/><line style="stroke:#A371F7;stroke-width:0.5;" x1="4196.5" x2="4844.0908" y1="703.2241" y2="703.2241"/><g data-visibility-modifier="PUBLIC_METHOD"><ellipse cx="4206.5" cy="728.0346" fill="#84BE84" rx="3" ry="3" style="stroke:#038048;stroke-width:1;"/></g><text fill="#C9D1D9" font-family="'Segoe UI, Inter, sans-serif'" font-size="14" lengthAdjust="spacing" textLength="604.5908" x="4224.5" y="732.3315">GetAllAsync(pagination: PaginationRequest) : Task&lt;Result&lt;PagedResponse&lt;PatientResponse&gt;&gt;&gt;</text><g data-visibility-modifier="PUBLIC_METHOD"><ellipse cx="4206.5" cy="766.6557" fill="#84BE84" rx="3" ry="3" style="stroke:#038048;stroke-width:1;"/></g><text fill="#C9D1D9" font-family="'Segoe UI, Inter, sans-serif'" font-size="14" lengthAdjust="spacing" textLength="343.9912" x="4224.5" y="770.9526">GetByIdAsync(id: int) : Task&lt;Result&lt;PatientResponse&gt;&gt;</text><g data-visibility-modifier="PUBLIC_METHOD"><ellipse cx="4206.5" cy="805.2768" fill="#84BE84" rx="3" ry="3" style="stroke:#038048;stroke-width:1;"/></g><text fill="#C9D1D9" font-family="'Segoe UI, Inter, sans-serif'" font-size="14" lengthAdjust="spacing" textLength="487.2656" x="4224.5" y="809.5737">CreateAsync(request: CreatePatientRequest) : Task&lt;Result&lt;PatientResponse&gt;&gt;</text><g data-visibility-modifier="PUBLIC_METHOD"><ellipse cx="4206.5" cy="843.8979" fill="#84BE84" rx="3" ry="3" style="stroke:#038048;stroke-width:1;"/></g><text fill="#C9D1D9" font-family="'Segoe UI, Inter, sans-serif'" font-size="14" lengthAdjust="spacing" textLength="539.1709" x="4224.5" y="848.1948">UpdateAsync(id: int, request: UpdatePatientRequest) : Task&lt;Result&lt;PatientResponse&gt;&gt;</text><g data-visibility-modifier="PUBLIC_METHOD"><ellipse cx="4206.5" cy="882.519" fill="#84BE84" rx="3" ry="3" style="stroke:#038048;stroke-width:1;"/></g><text fill="#C9D1D9" font-family="'Segoe UI, Inter, sans-serif'" font-size="14" lengthAdjust="spacing" textLength="261.1533" x="4224.5" y="886.8159">DeleteAsync(id: int) : Task&lt;Result&lt;bool&gt;&gt;</text></g><!--class IAuthService--><g class="entity" data-qualified-name="ClinicManagementAPI.Core.Interfaces.IAuthService" data-source-line="42" id="ent0007"><rect fill="#161B22" height="296.3477" rx="6" ry="6" style="stroke:#A371F7;stroke-width:0.5;" width="531.2334" x="3604" y="607.9819"/><ellipse cx="3818.3062" cy="651.603" fill="#A371F7" rx="10" ry="10" style="stroke:#181818;stroke-width:1;"/><path d="M3819.2124,648.7123 L3819.2124,654.1967 L3820.6187,654.1967 Q3821.1343,654.1967 3821.3374,654.3998 Q3821.5562,654.5873 3821.5562,654.8998 Q3821.5562,655.2123 3821.3374,655.4155 Q3821.1343,655.603 3820.6187,655.603 L3816.3843,655.603 Q3815.8843,655.603 3815.6655,655.4155 Q3815.4624,655.2123 3815.4624,654.8998 Q3815.4624,654.5873 3815.6655,654.3998 Q3815.8843,654.1967 3816.3843,654.1967 L3817.8062,654.1967 L3817.8062,648.7123 L3816.3843,648.7123 Q3815.8843,648.7123 3815.6655,648.5248 Q3815.4624,648.3217 3815.4624,648.0092 Q3815.4624,647.6967 3815.6655,647.5092 Q3815.8843,647.3061 3816.3843,647.3061 L3820.6187,647.3217 Q3821.1343,647.3217 3821.3374,647.5092 Q3821.5562,647.6967 3821.5562,648.0092 Q3821.5562,648.3217 3821.3374,648.5248 Q3821.1343,648.7123 3820.6187,648.7123 L3819.2124,648.7123 Z " fill="#E6EDF3"/><text fill="#E6EDF3" font-family="Segoe UI, Inter, sans-serif" font-size="14" font-style="italic" lengthAdjust="spacing" textLength="66.9375" x="3851.1479" y="638.0893">&#171;Interface&#187;</text><text fill="#C9D1D9" font-family="'Segoe UI, Inter, sans-serif'" font-size="14" font-style="italic" lengthAdjust="spacing" textLength="74.6211" x="3847.3062" y="676.7104">IAuthService</text><line style="stroke:#A371F7;stroke-width:0.5;" x1="3605" x2="4134.2334" y1="695.2241" y2="695.2241"/><line style="stroke:#A371F7;stroke-width:0.5;" x1="3605" x2="4134.2334" y1="703.2241" y2="703.2241"/><g data-visibility-modifier="PUBLIC_METHOD"><ellipse cx="3615" cy="728.0346" fill="#84BE84" rx="3" ry="3" style="stroke:#038048;stroke-width:1;"/></g><text fill="#C9D1D9" font-family="'Segoe UI, Inter, sans-serif'" font-size="14" lengthAdjust="spacing" textLength="425.0996" x="3633" y="732.3315">RegisterAsync(req: RegisterRequest) : Task&lt;Result&lt;AuthResponse&gt;&gt;</text><g data-visibility-modifier="PUBLIC_METHOD"><ellipse cx="3615" cy="766.6557" fill="#84BE84" rx="3" ry="3" style="stroke:#038048;stroke-width:1;"/></g><text fill="#C9D1D9" font-family="'Segoe UI, Inter, sans-serif'" font-size="14" lengthAdjust="spacing" textLength="393.3945" x="3633" y="770.9526">LoginAsync(req: LoginRequest) : Task&lt;Result&lt;AuthResponse&gt;&gt;</text><g data-visibility-modifier="PUBLIC_METHOD"><ellipse cx="3615" cy="805.2768" fill="#84BE84" rx="3" ry="3" style="stroke:#038048;stroke-width:1;"/></g><text fill="#C9D1D9" font-family="'Segoe UI, Inter, sans-serif'" font-size="14" lengthAdjust="spacing" textLength="408.5225" x="3633" y="809.5737">RefreshTokenAsync(token: string) : Task&lt;Result&lt;AuthResponse&gt;&gt;</text><g data-visibility-modifier="PUBLIC_METHOD"><ellipse cx="3615" cy="843.8979" fill="#84BE84" rx="3" ry="3" style="stroke:#038048;stroke-width:1;"/></g><text fill="#C9D1D9" font-family="'Segoe UI, Inter, sans-serif'" font-size="14" lengthAdjust="spacing" textLength="346.4316" x="3633" y="848.1948">RevokeTokenAsync(token: string) : Task&lt;Result&lt;bool&gt;&gt;</text><g data-visibility-modifier="PUBLIC_METHOD"><ellipse cx="3615" cy="882.519" fill="#84BE84" rx="3" ry="3" style="stroke:#038048;stroke-width:1;"/></g><text fill="#C9D1D9" font-family="'Segoe UI, Inter, sans-serif'" font-size="14" lengthAdjust="spacing" textLength="486.2334" x="3633" y="886.8159">AssignRoleAsync(userId: string, req: AssignRoleRequest) : Task&lt;Result&lt;bool&gt;&gt;</text></g><!--class <color:#58A6FF><&list></color> Gender--><g class="entity" data-qualified-name="ClinicManagementAPI.Core.Models..color..58A6FF...list...color. Gender" data-source-line="53" id="ent0009"><rect fill="#161B22" height="180.4844" rx="6" ry="6" style="stroke:#A371F7;stroke-width:0.5;" width="110.4495" x="2829.5" y="665.9819"/><ellipse cx="2843.5" cy="709.603" fill="#EB937F" rx="10" ry="10" style="stroke:#181818;stroke-width:1;"/><path d="M2842.7656,710.1498 L2842.7656,712.1967 L2846.3438,712.1967 L2846.3438,711.4467 Q2846.3438,710.9311 2846.5313,710.728 Q2846.7344,710.5092 2847.0469,710.5092 Q2847.3438,710.5092 2847.5313,710.728 Q2847.7344,710.9311 2847.7344,711.4467 L2847.7344,713.603 L2841.1406,713.603 Q2840.6406,713.603 2840.4219,713.4155 Q2840.2031,713.2123 2840.2031,712.8998 Q2840.2031,712.5873 2840.4219,712.3998 Q2840.6406,712.1967 2841.1406,712.1967 L2841.3594,712.1967 L2841.3594,706.7123 L2841.1406,706.7123 Q2840.6406,706.7123 2840.4219,706.5248 Q2840.2031,706.3217 2840.2031,706.0092 Q2840.2031,705.6967 2840.4219,705.5092 Q2840.6406,705.3061 2841.1406,705.3061 L2847.4375,705.3217 L2847.4375,707.4467 Q2847.4375,707.9467 2847.2344,708.1655 Q2847.0469,708.3842 2846.7344,708.3842 Q2846.4219,708.3842 2846.2188,708.1811 Q2846.0313,707.9623 2846.0313,707.4467 L2846.0313,706.7123 L2842.7656,706.7123 L2842.7656,708.7436 L2844,708.7436 Q2844,708.1967 2844.0938,708.0405 Q2844.3125,707.6967 2844.7031,707.6967 Q2845,707.6967 2845.1875,707.9155 Q2845.3906,708.1342 2845.3906,708.6342 L2845.3906,710.2592 Q2845.3906,710.7123 2845.2813,710.8686 Q2845.0625,711.1967 2844.7031,711.1967 Q2844.3125,711.1967 2844.0938,710.853 Q2844,710.6967 2844,710.1498 L2842.7656,710.1498 Z " fill="#E6EDF3"/><text fill="#E6EDF3" font-family="Segoe UI, Inter, sans-serif" font-size="14" font-style="italic" lengthAdjust="spacing" textLength="49.0752" x="2872.1872" y="696.0893">&#171;Enum&#187;</text><path d="M2868.0833,725.3907 C2867.7567,725.3907 2867.5,725.6474 2867.5,725.9741 C2867.5,726.3007 2867.7567,726.5574 2868.0833,726.5574 C2868.41,726.5574 2868.6667,726.3007 2868.6667,725.9741 C2868.6667,725.6474 2868.41,725.3907 2868.0833,725.3907 M2869.8333,725.3907 L2869.8333,726.5574 L2876.8333,726.5574 L2876.8333,725.3907 L2869.8333,725.3907 M2868.0833,727.7241 C2867.7567,727.7241 2867.5,727.9807 2867.5,728.3074 C2867.5,728.6341 2867.7567,728.8907 2868.0833,728.8907 C2868.41,728.8907 2868.6667,728.6341 2868.6667,728.3074 C2868.6667,727.9807 2868.41,727.7241 2868.0833,727.7241 M2869.8333,727.7241 L2869.8333,728.8907 L2876.8333,728.8907 L2876.8333,727.7241 L2869.8333,727.7241 M2868.0833,730.0574 C2867.7567,730.0574 2867.5,730.3141 2867.5,730.6407 C2867.5,730.9674 2867.7567,731.2241 2868.0833,731.2241 C2868.41,731.2241 2868.6667,730.9674 2868.6667,730.6407 C2868.6667,730.3141 2868.41,730.0574 2868.0833,730.0574 M2869.8333,730.0574 L2869.8333,731.2241 L2876.8333,731.2241 L2876.8333,730.0574 L2869.8333,730.0574 M2868.0833,732.3907 C2867.7567,732.3907 2867.5,732.6474 2867.5,732.9741 C2867.5,733.3007 2867.7567,733.5574 2868.0833,733.5574 C2868.41,733.5574 2868.6667,733.3007 2868.6667,732.9741 C2868.6667,732.6474 2868.41,732.3907 2868.0833,732.3907 M2869.8333,732.3907 L2869.8333,733.5574 L2876.8333,733.5574 L2876.8333,732.3907 L2869.8333,732.3907" fill="#58A6FF"/><text fill="#C9D1D9" font-family="'Segoe UI, Inter, sans-serif'" font-size="14" lengthAdjust="spacing" textLength="45.2813" x="2881.6683" y="734.7104">Gender</text><line style="stroke:#A371F7;stroke-width:0.5;" x1="2830.5" x2="2938.9495" y1="753.2241" y2="753.2241"/><text fill="#C9D1D9" font-family="'Segoe UI, Inter, sans-serif'" font-size="14" lengthAdjust="spacing" textLength="30.4063" x="2845.5" y="782.3315">Male</text><text fill="#C9D1D9" font-family="'Segoe UI, Inter, sans-serif'" font-size="14" lengthAdjust="spacing" textLength="44.0508" x="2845.5" y="820.9526">Female</text><line style="stroke:#A371F7;stroke-width:0.5;" x1="2830.5" x2="2938.9495" y1="838.4663" y2="838.4663"/></g><!--class <color:#3FB950><&box></color> Result<T>--><g class="entity" data-qualified-name="ClinicManagementAPI.Core.Models..color..3FB950...box...color. Result.T." data-source-line="58" id="ent0010"><rect fill="#161B22" height="334.9688" rx="6" ry="6" style="stroke:#A371F7;stroke-width:0.5;" width="301.3271" x="3000" y="588.4819"/><ellipse cx="3096.9881" cy="632.103" fill="#3FB950" rx="10" ry="10" style="stroke:#181818;stroke-width:1;"/><path d="M3095.1444,635.7436 Q3094.9569,635.9623 3094.8475,636.0248 Q3094.7381,636.0873 3094.5662,636.0873 Q3094.2537,636.0873 3094.0506,635.8842 Q3093.8631,635.6655 3093.8631,635.1655 L3093.8631,634.2123 Q3093.8631,633.7123 3094.0506,633.4936 Q3094.2537,633.2748 3094.5662,633.2748 Q3094.8162,633.2748 3094.9725,633.4155 Q3095.1444,633.5405 3095.2381,633.853 Q3095.3319,634.1498 3095.4256,634.2592 Q3095.6131,634.4623 3096.1131,634.6811 Q3096.6287,634.8998 3097.2381,634.8998 Q3098.1756,634.8998 3098.7694,634.4623 Q3099.16,634.1967 3099.16,633.8061 Q3099.16,633.5561 3098.9725,633.3217 Q3098.785,633.0873 3098.3631,632.9467 Q3098.0975,632.8373 3097.1444,632.6655 Q3096.0037,632.4467 3095.41,632.1498 Q3094.8162,631.853 3094.4725,631.3061 Q3094.1444,630.7592 3094.1444,630.1186 Q3094.1444,629.1186 3094.9725,628.3686 Q3095.8162,627.603 3097.16,627.603 Q3097.7069,627.603 3098.16,627.728 Q3098.6287,627.8373 3099.0037,628.0873 Q3099.285,627.8217 3099.5506,627.8217 Q3099.8631,627.8217 3100.0506,628.0405 Q3100.2537,628.2592 3100.2537,628.7592 L3100.2537,629.8061 Q3100.2537,630.3061 3100.0506,630.5248 Q3099.8631,630.7436 3099.5506,630.7436 Q3099.285,630.7436 3099.0975,630.5873 Q3098.9569,630.4623 3098.8787,630.1186 Q3098.8006,629.7748 3098.6756,629.6186 Q3098.4881,629.3686 3098.0819,629.1967 Q3097.6912,629.0092 3097.1756,629.0092 Q3096.41,629.0092 3095.9725,629.3686 Q3095.535,629.7123 3095.535,630.0873 Q3095.535,630.353 3095.7069,630.603 Q3095.8944,630.8373 3096.2381,630.978 Q3096.4725,631.0717 3097.5506,631.2905 Q3098.6287,631.4936 3099.2069,631.7436 Q3099.785,631.9936 3100.16,632.5405 Q3100.5506,633.0873 3100.5506,633.8217 Q3100.5506,634.8686 3099.8162,635.4936 Q3098.8475,636.3061 3097.3475,636.3061 Q3096.7694,636.3061 3096.2069,636.1655 Q3095.66,636.0248 3095.1444,635.7436 Z " fill="#E6EDF3"/><text fill="#E6EDF3" font-family="Segoe UI, Inter, sans-serif" font-size="14" font-style="italic" lengthAdjust="spacing" textLength="68.8926" x="3131.2173" y="618.5893">&#171;Structure&#187;</text><path d="M3126.9881,647.8907 L3126.9881,649.0574 L3136.3215,649.0574 L3136.3215,647.8907 L3126.9881,647.8907 M3126.9881,650.2241 L3126.9881,657.1191 C3126.9881,657.1774 3127.0348,657.2241 3127.0931,657.2241 L3136.2048,657.2241 C3136.2631,657.2241 3136.3098,657.1774 3136.3098,657.1191 L3136.3098,650.2241 L3132.8448,650.2241 L3132.8448,651.4257 L3130.4765,651.4257 L3130.4765,650.2241 L3126.9765,650.2241" fill="#3FB950"/><text fill="#C9D1D9" font-family="'Segoe UI, Inter, sans-serif'" font-size="14" lengthAdjust="spacing" textLength="64.1826" x="3141.1564" y="657.2104">Result&lt;T&gt;</text><line style="stroke:#A371F7;stroke-width:0.5;" x1="3001" x2="3300.3271" y1="675.7241" y2="675.7241"/><g data-visibility-modifier="PUBLIC_FIELD"><ellipse cx="3011" cy="700.5346" fill="none" rx="3" ry="3" style="stroke:#038048;stroke-width:1;"/></g><text fill="#C9D1D9" font-family="'Segoe UI, Inter, sans-serif'" font-size="14" lengthAdjust="spacing" textLength="95.8945" x="3029" y="704.8315">IsSuccess : bool</text><g data-visibility-modifier="PUBLIC_FIELD"><ellipse cx="3011" cy="739.1557" fill="none" rx="3" ry="3" style="stroke:#038048;stroke-width:1;"/></g><text fill="#C9D1D9" font-family="'Segoe UI, Inter, sans-serif'" font-size="14" lengthAdjust="spacing" textLength="52.4932" x="3029" y="743.4526">Value : T</text><g data-visibility-modifier="PUBLIC_FIELD"><ellipse cx="3011" cy="777.7768" fill="none" rx="3" ry="3" style="stroke:#038048;stroke-width:1;"/></g><text fill="#C9D1D9" font-family="'Segoe UI, Inter, sans-serif'" font-size="14" lengthAdjust="spacing" textLength="75.7012" x="3029" y="782.0737">Error : string</text><g data-visibility-modifier="PUBLIC_FIELD"><ellipse cx="3011" cy="816.3979" fill="none" rx="3" ry="3" style="stroke:#038048;stroke-width:1;"/></g><text fill="#C9D1D9" font-family="'Segoe UI, Inter, sans-serif'" font-size="14" lengthAdjust="spacing" textLength="97.1113" x="3029" y="820.6948">StatusCode : int</text><line style="stroke:#A371F7;stroke-width:0.5;" x1="3001" x2="3300.3271" y1="838.2084" y2="838.2084"/><g data-visibility-modifier="PUBLIC_METHOD"><ellipse cx="3011" cy="863.019" fill="#84BE84" rx="3" ry="3" style="stroke:#038048;stroke-width:1;"/></g><text fill="#C9D1D9" font-family="'Segoe UI, Inter, sans-serif'" font-size="14" lengthAdjust="spacing" text-decoration="underline" textLength="177.502" x="3029" y="867.3159">Success(value: T) : Result&lt;T&gt;</text><g data-visibility-modifier="PUBLIC_METHOD"><ellipse cx="3011" cy="901.6401" fill="#84BE84" rx="3" ry="3" style="stroke:#038048;stroke-width:1;"/></g><text fill="#C9D1D9" font-family="'Segoe UI, Inter, sans-serif'" font-size="14" lengthAdjust="spacing" text-decoration="underline" textLength="256.3271" x="3029" y="905.937">Failure(error: string, code: int) : Result&lt;T&gt;</text></g><!--class <color:#E6EDF3><&person></color> ApplicationUser--><g class="entity" data-qualified-name="ClinicManagementAPI.Core.Models..color..E6EDF3...person...color. ApplicationUser" data-source-line="67" id="ent0011"><rect fill="#161B22" height="292.3477" rx="6" ry="6" style="stroke:#A371F7;stroke-width:0.5;" width="176.8789" x="2830" y="1280.4819"/><ellipse cx="2850.2282" cy="1324.103" fill="#D29922" rx="10" ry="10" style="stroke:#181818;stroke-width:1;"/><path d="M2849.4938,1324.6498 L2849.4938,1326.6967 L2853.072,1326.6967 L2853.072,1325.9467 Q2853.072,1325.4311 2853.2595,1325.228 Q2853.4626,1325.0092 2853.7751,1325.0092 Q2854.072,1325.0092 2854.2595,1325.228 Q2854.4626,1325.4311 2854.4626,1325.9467 L2854.4626,1328.103 L2847.8688,1328.103 Q2847.3688,1328.103 2847.1501,1327.9155 Q2846.9313,1327.7123 2846.9313,1327.3998 Q2846.9313,1327.0873 2847.1501,1326.8998 Q2847.3688,1326.6967 2847.8688,1326.6967 L2848.0876,1326.6967 L2848.0876,1321.2123 L2847.8688,1321.2123 Q2847.3688,1321.2123 2847.1501,1321.0248 Q2846.9313,1320.8217 2846.9313,1320.5092 Q2846.9313,1320.1967 2847.1501,1320.0092 Q2847.3688,1319.8061 2847.8688,1319.8061 L2854.1657,1319.8217 L2854.1657,1321.9467 Q2854.1657,1322.4467 2853.9626,1322.6655 Q2853.7751,1322.8842 2853.4626,1322.8842 Q2853.1501,1322.8842 2852.947,1322.6811 Q2852.7595,1322.4623 2852.7595,1321.9467 L2852.7595,1321.2123 L2849.4938,1321.2123 L2849.4938,1323.2436 L2850.7282,1323.2436 Q2850.7282,1322.6967 2850.822,1322.5405 Q2851.0407,1322.1967 2851.4313,1322.1967 Q2851.7282,1322.1967 2851.9157,1322.4155 Q2852.1188,1322.6342 2852.1188,1323.1342 L2852.1188,1324.7592 Q2852.1188,1325.2123 2852.0095,1325.3686 Q2851.7907,1325.6967 2851.4313,1325.6967 Q2851.0407,1325.6967 2850.822,1325.353 Q2850.7282,1325.1967 2850.7282,1324.6498 L2849.4938,1324.6498 Z " fill="#E6EDF3"/><text fill="#E6EDF3" font-family="Segoe UI, Inter, sans-serif" font-size="14" font-style="italic" lengthAdjust="spacing" textLength="48.6992" x="2906.7819" y="1310.5893">&#171;Entity&#187;</text><path d="M2880.2789,1339.8907 C2878.9956,1339.8907 2877.9456,1341.1974 2877.9456,1342.8074 C2877.9456,1344.4174 2878.9956,1345.7241 2880.2789,1345.7241 C2881.5623,1345.7241 2882.6123,1344.4174 2882.6123,1342.8074 C2882.6123,1341.1974 2881.5623,1339.8907 2880.2789,1339.8907 M2877.8406,1345.7241 C2876.6039,1345.7824 2875.6123,1346.7974 2875.6123,1348.0574 L2875.6123,1349.2241 L2884.9456,1349.2241 L2884.9456,1348.0574 C2884.9456,1346.7974 2883.9656,1345.7824 2882.7173,1345.7241 C2882.0873,1346.4357 2881.2239,1346.8907 2880.2789,1346.8907 C2879.3339,1346.8907 2878.4706,1346.4357 2877.8406,1345.7241" fill="#E6EDF3"/><text fill="#C9D1D9" font-family="'Segoe UI, Inter, sans-serif'" font-size="14" lengthAdjust="spacing" textLength="97.8701" x="2889.7806" y="1349.2104">ApplicationUser</text><line style="stroke:#A371F7;stroke-width:0.5;" x1="2831" x2="3005.8789" y1="1367.7241" y2="1367.7241"/><g data-visibility-modifier="PUBLIC_FIELD"><ellipse cx="2841" cy="1392.5346" fill="none" rx="3" ry="3" style="stroke:#038048;stroke-width:1;"/></g><text fill="#C9D1D9" font-family="'Segoe UI, Inter, sans-serif'" font-size="14" lengthAdjust="spacing" textLength="104.3301" x="2859" y="1396.8315">FullName : string</text><g data-visibility-modifier="PUBLIC_FIELD"><ellipse cx="2841" cy="1431.1557" fill="none" rx="3" ry="3" style="stroke:#038048;stroke-width:1;"/></g><text fill="#C9D1D9" font-family="'Segoe UI, Inter, sans-serif'" font-size="14" lengthAdjust="spacing" textLength="131.8789" x="2859" y="1435.4526">CreatedAt : DateTime</text><g data-visibility-modifier="PUBLIC_FIELD"><ellipse cx="2841" cy="1512.3979" fill="none" rx="3" ry="3" style="stroke:#038048;stroke-width:1;"/></g><text fill="#C9D1D9" font-family="'Segoe UI, Inter, sans-serif'" font-size="14" lengthAdjust="spacing" textLength="78.8594" x="2859" y="1516.6948">Email : string</text><g data-visibility-modifier="PUBLIC_FIELD"><ellipse cx="2841" cy="1551.019" fill="none" rx="3" ry="3" style="stroke:#038048;stroke-width:1;"/></g><text fill="#C9D1D9" font-family="'Segoe UI, Inter, sans-serif'" font-size="14" lengthAdjust="spacing" textLength="110.5371" x="2859" y="1555.3159">UserName : string</text><line style="stroke:#A371F7;stroke-width:1;" x1="2831" x2="2851.7251" y1="1472.2768" y2="1472.2768"/><text fill="#C9D1D9" font-family="'Segoe UI, Inter, sans-serif'" font-size="14" lengthAdjust="spacing" textLength="113.4287" x="2861.7251" y="1477.5737">Identity Properties</text><line style="stroke:#A371F7;stroke-width:1;" x1="2985.1538" x2="3005.8789" y1="1472.2768" y2="1472.2768"/></g><!--class <color:#58A6FF><&medical-cross></color> Patient--><g class="entity" data-qualified-name="ClinicManagementAPI.Core.Models..color..58A6FF...medical-cross...color. Patient" data-source-line="75" id="ent0012"><rect fill="#161B22" height="643.9375" rx="6" ry="6" style="stroke:#A371F7;stroke-width:0.5;" width="188.3906" x="3067.5" y="1104.4819"/><ellipse cx="3118.5677" cy="1148.103" fill="#D29922" rx="10" ry="10" style="stroke:#181818;stroke-width:1;"/><path d="M3117.8333,1148.6498 L3117.8333,1150.6967 L3121.4115,1150.6967 L3121.4115,1149.9467 Q3121.4115,1149.4311 3121.599,1149.228 Q3121.8021,1149.0092 3122.1146,1149.0092 Q3122.4115,1149.0092 3122.599,1149.228 Q3122.8021,1149.4311 3122.8021,1149.9467 L3122.8021,1152.103 L3116.2083,1152.103 Q3115.7083,1152.103 3115.4896,1151.9155 Q3115.2708,1151.7123 3115.2708,1151.3998 Q3115.2708,1151.0873 3115.4896,1150.8998 Q3115.7083,1150.6967 3116.2083,1150.6967 L3116.4271,1150.6967 L3116.4271,1145.2123 L3116.2083,1145.2123 Q3115.7083,1145.2123 3115.4896,1145.0248 Q3115.2708,1144.8217 3115.2708,1144.5092 Q3115.2708,1144.1967 3115.4896,1144.0092 Q3115.7083,1143.8061 3116.2083,1143.8061 L3122.5052,1143.8217 L3122.5052,1145.9467 Q3122.5052,1146.4467 3122.3021,1146.6655 Q3122.1146,1146.8842 3121.8021,1146.8842 Q3121.4896,1146.8842 3121.2865,1146.6811 Q3121.099,1146.4623 3121.099,1145.9467 L3121.099,1145.2123 L3117.8333,1145.2123 L3117.8333,1147.2436 L3119.0677,1147.2436 Q3119.0677,1146.6967 3119.1615,1146.5405 Q3119.3802,1146.1967 3119.7708,1146.1967 Q3120.0677,1146.1967 3120.2552,1146.4155 Q3120.4583,1146.6342 3120.4583,1147.1342 L3120.4583,1148.7592 Q3120.4583,1149.2123 3120.349,1149.3686 Q3120.1302,1149.6967 3119.7708,1149.6967 Q3119.3802,1149.6967 3119.1615,1149.353 Q3119.0677,1149.1967 3119.0677,1148.6498 L3117.8333,1148.6498 Z " fill="#E6EDF3"/><text fill="#E6EDF3" font-family="Segoe UI, Inter, sans-serif" font-size="14" font-style="italic" lengthAdjust="spacing" textLength="48.6992" x="3152.3457" y="1134.5893">&#171;Entity&#187;</text><path d="M3150.901,1163.8907 L3150.901,1166.2241 L3148.5677,1166.2241 L3148.5677,1170.8907 L3150.901,1170.8907 L3150.901,1173.2241 L3155.5677,1173.2241 L3155.5677,1170.8907 L3157.901,1170.8907 L3157.901,1166.2241 L3155.5677,1166.2241 L3155.5677,1163.8907 L3150.901,1163.8907" fill="#58A6FF"/><text fill="#C9D1D9" font-family="'Segoe UI, Inter, sans-serif'" font-size="14" lengthAdjust="spacing" textLength="43.0869" x="3162.736" y="1173.2104">Patient</text><line style="stroke:#A371F7;stroke-width:0.5;" x1="3068.5" x2="3254.8906" y1="1191.7241" y2="1191.7241"/><g data-visibility-modifier="PUBLIC_FIELD"><ellipse cx="3078.5" cy="1216.5346" fill="none" rx="3" ry="3" style="stroke:#038048;stroke-width:1;"/></g><text fill="#C9D1D9" font-family="'Segoe UI, Inter, sans-serif'" font-size="14" lengthAdjust="spacing" textLength="38.7324" x="3096.5" y="1220.8315">Id : int</text><g data-visibility-modifier="PUBLIC_FIELD"><ellipse cx="3078.5" cy="1255.1557" fill="none" rx="3" ry="3" style="stroke:#038048;stroke-width:1;"/></g><text fill="#C9D1D9" font-family="'Segoe UI, Inter, sans-serif'" font-size="14" lengthAdjust="spacing" textLength="104.3301" x="3096.5" y="1259.4526">FullName : string</text><g data-visibility-modifier="PUBLIC_FIELD"><ellipse cx="3078.5" cy="1293.7768" fill="none" rx="3" ry="3" style="stroke:#038048;stroke-width:1;"/></g><text fill="#C9D1D9" font-family="'Segoe UI, Inter, sans-serif'" font-size="14" lengthAdjust="spacing" textLength="78.8594" x="3096.5" y="1298.0737">Email : string</text><g data-visibility-modifier="PUBLIC_FIELD"><ellipse cx="3078.5" cy="1332.3979" fill="none" rx="3" ry="3" style="stroke:#038048;stroke-width:1;"/></g><text fill="#C9D1D9" font-family="'Segoe UI, Inter, sans-serif'" font-size="14" lengthAdjust="spacing" textLength="85.0254" x="3096.5" y="1336.6948">Phone : string</text><g data-visibility-modifier="PUBLIC_FIELD"><ellipse cx="3078.5" cy="1371.019" fill="none" rx="3" ry="3" style="stroke:#038048;stroke-width:1;"/></g><text fill="#C9D1D9" font-family="'Segoe UI, Inter, sans-serif'" font-size="14" lengthAdjust="spacing" textLength="141.2441" x="3096.5" y="1375.3159">DateOfBirth : DateOnly</text><g data-visibility-modifier="PUBLIC_FIELD"><ellipse cx="3078.5" cy="1409.6401" fill="none" rx="3" ry="3" style="stroke:#038048;stroke-width:1;"/></g><text fill="#C9D1D9" font-family="'Segoe UI, Inter, sans-serif'" font-size="14" lengthAdjust="spacing" textLength="101.2676" x="3096.5" y="1413.937">Gender : Gender</text><g data-visibility-modifier="PUBLIC_FIELD"><ellipse cx="3078.5" cy="1448.2612" fill="none" rx="3" ry="3" style="stroke:#038048;stroke-width:1;"/></g><text fill="#C9D1D9" font-family="'Segoe UI, Inter, sans-serif'" font-size="14" lengthAdjust="spacing" textLength="101.6777" x="3096.5" y="1452.558">Address : string?</text><g data-visibility-modifier="PUBLIC_FIELD"><ellipse cx="3078.5" cy="1486.8823" fill="none" rx="3" ry="3" style="stroke:#038048;stroke-width:1;"/></g><text fill="#C9D1D9" font-family="'Segoe UI, Inter, sans-serif'" font-size="14" lengthAdjust="spacing" textLength="131.8789" x="3096.5" y="1491.1791">CreatedAt : DateTime</text><g data-visibility-modifier="PUBLIC_FIELD"><ellipse cx="3078.5" cy="1525.5034" fill="none" rx="3" ry="3" style="stroke:#038048;stroke-width:1;"/></g><text fill="#C9D1D9" font-family="'Segoe UI, Inter, sans-serif'" font-size="14" lengthAdjust="spacing" textLength="143.3906" x="3096.5" y="1529.8002">UpdatedAt : DateTime?</text><g data-visibility-modifier="PUBLIC_FIELD"><ellipse cx="3078.5" cy="1606.7455" fill="none" rx="3" ry="3" style="stroke:#038048;stroke-width:1;"/></g><text fill="#C9D1D9" font-family="'Segoe UI, Inter, sans-serif'" font-size="14" lengthAdjust="spacing" textLength="91.8066" x="3096.5" y="1611.0424">UserId : string?</text><line style="stroke:#A371F7;stroke-width:1;" x1="3068.5" x2="3115.5195" y1="1566.6245" y2="1566.6245"/><text fill="#C9D1D9" font-family="'Segoe UI, Inter, sans-serif'" font-size="14" lengthAdjust="spacing" textLength="72.3516" x="3125.5195" y="1571.9213">Optional FK</text><line style="stroke:#A371F7;stroke-width:1;" x1="3207.8711" x2="3254.8906" y1="1566.6245" y2="1566.6245"/><g data-visibility-modifier="PUBLIC_FIELD"><ellipse cx="3078.5" cy="1687.9877" fill="none" rx="3" ry="3" style="stroke:#038048;stroke-width:1;"/></g><text fill="#C9D1D9" font-family="'Segoe UI, Inter, sans-serif'" font-size="14" lengthAdjust="spacing" textLength="96.5576" x="3096.5" y="1692.2846">IsDeleted : bool</text><g data-visibility-modifier="PUBLIC_FIELD"><ellipse cx="3078.5" cy="1726.6088" fill="none" rx="3" ry="3" style="stroke:#038048;stroke-width:1;"/></g><text fill="#C9D1D9" font-family="'Segoe UI, Inter, sans-serif'" font-size="14" lengthAdjust="spacing" textLength="138.0244" x="3096.5" y="1730.9057">DeletedAt : DateTime?</text><line style="stroke:#A371F7;stroke-width:1;" x1="3068.5" x2="3108.1196" y1="1647.8666" y2="1647.8666"/><text fill="#C9D1D9" font-family="'Segoe UI, Inter, sans-serif'" font-size="14" lengthAdjust="spacing" textLength="87.1514" x="3118.1196" y="1653.1635">ISoftDeletable</text><line style="stroke:#A371F7;stroke-width:1;" x1="3215.271" x2="3254.8906" y1="1647.8666" y2="1647.8666"/></g><!--class PaginationRequest--><g class="entity" data-qualified-name="ClinicManagementAPI.Core.DTOs.PaginationRequest" data-source-line="128" id="ent0018"><rect fill="#161B22" height="219.1055" rx="6" ry="6" style="stroke:#A371F7;stroke-width:0.5;" width="292.5498" x="1388" y="646.4819"/><ellipse cx="1462.3882" cy="690.103" fill="#58A6FF" rx="10" ry="10" style="stroke:#181818;stroke-width:1;"/><path d="M1463.7944,686.1655 Q1463.9194,685.9936 1464.0757,685.9155 Q1464.2319,685.8217 1464.4038,685.8217 Q1464.7163,685.8217 1464.9038,686.0405 Q1465.1069,686.2436 1465.1069,686.7436 L1465.1069,687.9311 Q1465.1069,688.4467 1464.9038,688.6655 Q1464.7163,688.8686 1464.4038,688.8686 Q1464.1226,688.8686 1463.9507,688.7123 Q1463.7788,688.5561 1463.7007,688.1342 Q1463.6538,687.8373 1463.5132,687.6811 Q1463.2319,687.3686 1462.7163,687.1967 Q1462.2163,687.0092 1461.7163,687.0092 Q1461.0913,687.0092 1460.5601,687.2905 Q1460.0288,687.5561 1459.6226,688.1811 Q1459.2319,688.7905 1459.2319,689.6342 L1459.2319,690.5405 Q1459.2319,691.5561 1459.9663,692.228 Q1460.7007,692.8998 1461.9976,692.8998 Q1462.7788,692.8998 1463.3257,692.6967 Q1463.6382,692.5717 1463.9976,692.2123 Q1464.2163,691.9936 1464.3257,691.9311 Q1464.4507,691.853 1464.6069,691.853 Q1464.8882,691.853 1465.1069,692.0717 Q1465.3257,692.2905 1465.3257,692.5717 Q1465.3257,692.853 1465.0288,693.1811 Q1464.6069,693.6655 1463.9507,693.9311 Q1463.0757,694.3061 1462.0132,694.3061 Q1460.7632,694.3061 1459.7632,693.7905 Q1458.9663,693.3842 1458.3882,692.5092 Q1457.8257,691.6186 1457.8257,690.5717 L1457.8257,689.6186 Q1457.8257,688.5248 1458.3257,687.5873 Q1458.8413,686.6342 1459.7476,686.1186 Q1460.6538,685.603 1461.6538,685.603 Q1462.2632,685.603 1462.7944,685.7436 Q1463.3257,685.8842 1463.7944,686.1655 Z " fill="#E6EDF3"/><text fill="#E6EDF3" font-family="Segoe UI, Inter, sans-serif" font-size="14" font-style="italic" lengthAdjust="spacing" textLength="42.2803" x="1528.1348" y="676.5893">&#171;DTO&#187;</text><text fill="#C9D1D9" font-family="'Segoe UI, Inter, sans-serif'" font-size="14" lengthAdjust="spacing" textLength="115.7734" x="1491.3882" y="715.2104">PaginationRequest</text><line style="stroke:#A371F7;stroke-width:0.5;" x1="1389" x2="1679.5498" y1="733.7241" y2="733.7241"/><g data-visibility-modifier="PUBLIC_FIELD"><ellipse cx="1399" cy="758.5346" fill="none" rx="3" ry="3" style="stroke:#038048;stroke-width:1;"/></g><text fill="#C9D1D9" font-family="'Segoe UI, Inter, sans-serif'" font-size="14" lengthAdjust="spacing" textLength="124.8105" x="1417" y="762.8315">SearchTerm : string?</text><line style="stroke:#A371F7;stroke-width:0.5;" x1="1389" x2="1679.5498" y1="780.3452" y2="780.3452"/><g data-visibility-modifier="PUBLIC_METHOD"><ellipse cx="1399" cy="805.1557" fill="#84BE84" rx="3" ry="3" style="stroke:#038048;stroke-width:1;"/></g><text fill="#C9D1D9" font-family="'Segoe UI, Inter, sans-serif'" font-size="14" lengthAdjust="spacing" textLength="211.8662" x="1417" y="809.4526">Page : int &#171;default=1, Range(1,&#8734;)&#187;</text><g data-visibility-modifier="PUBLIC_METHOD"><ellipse cx="1399" cy="843.7768" fill="#84BE84" rx="3" ry="3" style="stroke:#038048;stroke-width:1;"/></g><text fill="#C9D1D9" font-family="'Segoe UI, Inter, sans-serif'" font-size="14" lengthAdjust="spacing" textLength="247.5498" x="1417" y="848.0737">PageSize : int &#171;default=10, Range(1,50)&#187;</text></g><!--class PagedResponse<T>--><g class="entity" data-qualified-name="ClinicManagementAPI.Core.DTOs.PagedResponse.T." data-source-line="134" id="ent0019"><rect fill="#161B22" height="373.5898" rx="6" ry="6" style="stroke:#A371F7;stroke-width:0.5;" width="240.1182" x="681.5" y="568.9819"/><ellipse cx="725.3008" cy="612.603" fill="#58A6FF" rx="10" ry="10" style="stroke:#181818;stroke-width:1;"/><path d="M726.707,608.6655 Q726.832,608.4936 726.9883,608.4155 Q727.1445,608.3217 727.3164,608.3217 Q727.6289,608.3217 727.8164,608.5405 Q728.0195,608.7436 728.0195,609.2436 L728.0195,610.4311 Q728.0195,610.9467 727.8164,611.1655 Q727.6289,611.3686 727.3164,611.3686 Q727.0352,611.3686 726.8633,611.2123 Q726.6914,611.0561 726.6133,610.6342 Q726.5664,610.3373 726.4258,610.1811 Q726.1445,609.8686 725.6289,609.6967 Q725.1289,609.5092 724.6289,609.5092 Q724.0039,609.5092 723.4727,609.7905 Q722.9414,610.0561 722.5352,610.6811 Q722.1445,611.2905 722.1445,612.1342 L722.1445,613.0405 Q722.1445,614.0561 722.8789,614.728 Q723.6133,615.3998 724.9102,615.3998 Q725.6914,615.3998 726.2383,615.1967 Q726.5508,615.0717 726.9102,614.7123 Q727.1289,614.4936 727.2383,614.4311 Q727.3633,614.353 727.5195,614.353 Q727.8008,614.353 728.0195,614.5717 Q728.2383,614.7905 728.2383,615.0717 Q728.2383,615.353 727.9414,615.6811 Q727.5195,616.1655 726.8633,616.4311 Q725.9883,616.8061 724.9258,616.8061 Q723.6758,616.8061 722.6758,616.2905 Q721.8789,615.8842 721.3008,615.0092 Q720.7383,614.1186 720.7383,613.0717 L720.7383,612.1186 Q720.7383,611.0248 721.2383,610.0873 Q721.7539,609.1342 722.6602,608.6186 Q723.5664,608.103 724.5664,608.103 Q725.1758,608.103 725.707,608.2436 Q726.2383,608.3842 726.707,608.6655 Z " fill="#E6EDF3"/><text fill="#E6EDF3" font-family="Segoe UI, Inter, sans-serif" font-size="14" font-style="italic" lengthAdjust="spacing" textLength="42.2803" x="795.4189" y="599.0893">&#171;DTO&#187;</text><text fill="#C9D1D9" font-family="'Segoe UI, Inter, sans-serif'" font-size="14" lengthAdjust="spacing" textLength="124.5166" x="754.3008" y="637.7104">PagedResponse&lt;T&gt;</text><line style="stroke:#A371F7;stroke-width:0.5;" x1="682.5" x2="920.6182" y1="656.2241" y2="656.2241"/><g data-visibility-modifier="PUBLIC_FIELD"><ellipse cx="692.5" cy="681.0346" fill="none" rx="3" ry="3" style="stroke:#038048;stroke-width:1;"/></g><text fill="#C9D1D9" font-family="'Segoe UI, Inter, sans-serif'" font-size="14" lengthAdjust="spacing" textLength="147.9502" x="710.5" y="685.3315">Items : IEnumerable&lt;T&gt;</text><g data-visibility-modifier="PUBLIC_FIELD"><ellipse cx="692.5" cy="719.6557" fill="none" rx="3" ry="3" style="stroke:#038048;stroke-width:1;"/></g><text fill="#C9D1D9" font-family="'Segoe UI, Inter, sans-serif'" font-size="14" lengthAdjust="spacing" textLength="57.292" x="710.5" y="723.9526">Page : int</text><g data-visibility-modifier="PUBLIC_FIELD"><ellipse cx="692.5" cy="758.2768" fill="none" rx="3" ry="3" style="stroke:#038048;stroke-width:1;"/></g><text fill="#C9D1D9" font-family="'Segoe UI, Inter, sans-serif'" font-size="14" lengthAdjust="spacing" textLength="81.7715" x="710.5" y="762.5737">PageSize : int</text><g data-visibility-modifier="PUBLIC_FIELD"><ellipse cx="692.5" cy="796.8979" fill="none" rx="3" ry="3" style="stroke:#038048;stroke-width:1;"/></g><text fill="#C9D1D9" font-family="'Segoe UI, Inter, sans-serif'" font-size="14" lengthAdjust="spacing" textLength="95.0195" x="710.5" y="801.1948">TotalCount : int</text><g data-visibility-modifier="PUBLIC_FIELD"><ellipse cx="692.5" cy="835.519" fill="none" rx="3" ry="3" style="stroke:#038048;stroke-width:1;"/></g><text fill="#C9D1D9" font-family="'Segoe UI, Inter, sans-serif'" font-size="14" lengthAdjust="spacing" textLength="175.2188" x="710.5" y="839.8159">TotalPages : int &#171;computed&#187;</text><g data-visibility-modifier="PUBLIC_FIELD"><ellipse cx="692.5" cy="874.1401" fill="none" rx="3" ry="3" style="stroke:#038048;stroke-width:1;"/></g><text fill="#C9D1D9" font-family="'Segoe UI, Inter, sans-serif'" font-size="14" lengthAdjust="spacing" textLength="171.8896" x="710.5" y="878.437">HasNext : bool &#171;computed&#187;</text><g data-visibility-modifier="PUBLIC_FIELD"><ellipse cx="692.5" cy="912.7612" fill="none" rx="3" ry="3" style="stroke:#038048;stroke-width:1;"/></g><text fill="#C9D1D9" font-family="'Segoe UI, Inter, sans-serif'" font-size="14" lengthAdjust="spacing" textLength="195.1182" x="710.5" y="917.058">HasPrevious : bool &#171;computed&#187;</text><line style="stroke:#A371F7;stroke-width:0.5;" x1="682.5" x2="920.6182" y1="934.5717" y2="934.5717"/></g><!--class AssignRoleRequest--><g class="entity" data-qualified-name="ClinicManagementAPI.Core.DTOs.AssignRoleRequest" data-source-line="144" id="ent0020"><rect fill="#161B22" height="141.8633" rx="6" ry="6" style="stroke:#A371F7;stroke-width:0.5;" width="346.2871" x="981.5" y="684.9819"/><ellipse cx="1081.8306" cy="728.603" fill="#58A6FF" rx="10" ry="10" style="stroke:#181818;stroke-width:1;"/><path d="M1083.2368,724.6655 Q1083.3618,724.4936 1083.5181,724.4155 Q1083.6743,724.3217 1083.8462,724.3217 Q1084.1587,724.3217 1084.3462,724.5405 Q1084.5493,724.7436 1084.5493,725.2436 L1084.5493,726.4311 Q1084.5493,726.9467 1084.3462,727.1655 Q1084.1587,727.3686 1083.8462,727.3686 Q1083.5649,727.3686 1083.3931,727.2123 Q1083.2212,727.0561 1083.1431,726.6342 Q1083.0962,726.3373 1082.9556,726.1811 Q1082.6743,725.8686 1082.1587,725.6967 Q1081.6587,725.5092 1081.1587,725.5092 Q1080.5337,725.5092 1080.0024,725.7905 Q1079.4712,726.0561 1079.0649,726.6811 Q1078.6743,727.2905 1078.6743,728.1342 L1078.6743,729.0405 Q1078.6743,730.0561 1079.4087,730.728 Q1080.1431,731.3998 1081.4399,731.3998 Q1082.2212,731.3998 1082.7681,731.1967 Q1083.0806,731.0717 1083.4399,730.7123 Q1083.6587,730.4936 1083.7681,730.4311 Q1083.8931,730.353 1084.0493,730.353 Q1084.3306,730.353 1084.5493,730.5717 Q1084.7681,730.7905 1084.7681,731.0717 Q1084.7681,731.353 1084.4712,731.6811 Q1084.0493,732.1655 1083.3931,732.4311 Q1082.5181,732.8061 1081.4556,732.8061 Q1080.2056,732.8061 1079.2056,732.2905 Q1078.4087,731.8842 1077.8306,731.0092 Q1077.2681,730.1186 1077.2681,729.0717 L1077.2681,728.1186 Q1077.2681,727.0248 1077.7681,726.0873 Q1078.2837,725.1342 1079.1899,724.6186 Q1080.0962,724.103 1081.0962,724.103 Q1081.7056,724.103 1082.2368,724.2436 Q1082.7681,724.3842 1083.2368,724.6655 Z " fill="#E6EDF3"/><text fill="#E6EDF3" font-family="Segoe UI, Inter, sans-serif" font-size="14" font-style="italic" lengthAdjust="spacing" textLength="42.2803" x="1148.5034" y="715.0893">&#171;DTO&#187;</text><text fill="#C9D1D9" font-family="'Segoe UI, Inter, sans-serif'" font-size="14" lengthAdjust="spacing" textLength="117.626" x="1110.8306" y="753.7104">AssignRoleRequest</text><line style="stroke:#A371F7;stroke-width:0.5;" x1="982.5" x2="1326.7871" y1="772.2241" y2="772.2241"/><line style="stroke:#A371F7;stroke-width:0.5;" x1="982.5" x2="1326.7871" y1="780.2241" y2="780.2241"/><g data-visibility-modifier="PUBLIC_METHOD"><ellipse cx="992.5" cy="805.0346" fill="#84BE84" rx="3" ry="3" style="stroke:#038048;stroke-width:1;"/></g><text fill="#C9D1D9" font-family="'Segoe UI, Inter, sans-serif'" font-size="14" lengthAdjust="spacing" textLength="301.2871" x="1010.5" y="809.3315">Role : string &#171;Required, MinLen(2), MaxLen(100)&#187;</text></g><!--class CreatePatientRequest--><g class="entity" data-qualified-name="ClinicManagementAPI.Core.DTOs.Patients.CreatePatientRequest" data-source-line="95" id="ent0014"><rect fill="#161B22" height="334.9688" rx="6" ry="6" style="stroke:#A371F7;stroke-width:0.5;" width="377.5137" x="2371.5" y="588.4819"/><ellipse cx="2479.7568" cy="632.103" fill="#58A6FF" rx="10" ry="10" style="stroke:#181818;stroke-width:1;"/><path d="M2481.1631,628.1655 Q2481.2881,627.9936 2481.4443,627.9155 Q2481.6006,627.8217 2481.7725,627.8217 Q2482.085,627.8217 2482.2725,628.0405 Q2482.4756,628.2436 2482.4756,628.7436 L2482.4756,629.9311 Q2482.4756,630.4467 2482.2725,630.6655 Q2482.085,630.8686 2481.7725,630.8686 Q2481.4912,630.8686 2481.3193,630.7123 Q2481.1475,630.5561 2481.0693,630.1342 Q2481.0225,629.8373 2480.8818,629.6811 Q2480.6006,629.3686 2480.085,629.1967 Q2479.585,629.0092 2479.085,629.0092 Q2478.46,629.0092 2477.9287,629.2905 Q2477.3975,629.5561 2476.9912,630.1811 Q2476.6006,630.7905 2476.6006,631.6342 L2476.6006,632.5405 Q2476.6006,633.5561 2477.335,634.228 Q2478.0693,634.8998 2479.3662,634.8998 Q2480.1475,634.8998 2480.6943,634.6967 Q2481.0068,634.5717 2481.3662,634.2123 Q2481.585,633.9936 2481.6943,633.9311 Q2481.8193,633.853 2481.9756,633.853 Q2482.2568,633.853 2482.4756,634.0717 Q2482.6943,634.2905 2482.6943,634.5717 Q2482.6943,634.853 2482.3975,635.1811 Q2481.9756,635.6655 2481.3193,635.9311 Q2480.4443,636.3061 2479.3818,636.3061 Q2478.1318,636.3061 2477.1318,635.7905 Q2476.335,635.3842 2475.7568,634.5092 Q2475.1943,633.6186 2475.1943,632.5717 L2475.1943,631.6186 Q2475.1943,630.5248 2475.6943,629.5873 Q2476.21,628.6342 2477.1162,628.1186 Q2478.0225,627.603 2479.0225,627.603 Q2479.6318,627.603 2480.1631,627.7436 Q2480.6943,627.8842 2481.1631,628.1655 Z " fill="#E6EDF3"/><text fill="#E6EDF3" font-family="Segoe UI, Inter, sans-serif" font-size="14" font-style="italic" lengthAdjust="spacing" textLength="42.2803" x="2554.1167" y="618.5893">&#171;DTO&#187;</text><text fill="#C9D1D9" font-family="'Segoe UI, Inter, sans-serif'" font-size="14" lengthAdjust="spacing" textLength="133" x="2508.7568" y="657.2104">CreatePatientRequest</text><line style="stroke:#A371F7;stroke-width:0.5;" x1="2372.5" x2="2748.0137" y1="675.7241" y2="675.7241"/><g data-visibility-modifier="PUBLIC_FIELD"><ellipse cx="2382.5" cy="700.5346" fill="none" rx="3" ry="3" style="stroke:#038048;stroke-width:1;"/></g><text fill="#C9D1D9" font-family="'Segoe UI, Inter, sans-serif'" font-size="14" lengthAdjust="spacing" textLength="242.0469" x="2400.5" y="704.8315">Email : string &#171;Required, EmailAddress&#187;</text><g data-visibility-modifier="PUBLIC_FIELD"><ellipse cx="2382.5" cy="739.1557" fill="none" rx="3" ry="3" style="stroke:#038048;stroke-width:1;"/></g><text fill="#C9D1D9" font-family="'Segoe UI, Inter, sans-serif'" font-size="14" lengthAdjust="spacing" textLength="204.791" x="2400.5" y="743.4526">Phone : string &#171;Required, Phone&#187;</text><g data-visibility-modifier="PUBLIC_FIELD"><ellipse cx="2382.5" cy="777.7768" fill="none" rx="3" ry="3" style="stroke:#038048;stroke-width:1;"/></g><text fill="#C9D1D9" font-family="'Segoe UI, Inter, sans-serif'" font-size="14" lengthAdjust="spacing" textLength="174.9521" x="2400.5" y="782.0737">Gender : Gender &#171;Required&#187;</text><g data-visibility-modifier="PUBLIC_FIELD"><ellipse cx="2382.5" cy="816.3979" fill="none" rx="3" ry="3" style="stroke:#038048;stroke-width:1;"/></g><text fill="#C9D1D9" font-family="'Segoe UI, Inter, sans-serif'" font-size="14" lengthAdjust="spacing" textLength="214.9287" x="2400.5" y="820.6948">DateOfBirth : DateOnly &#171;Required&#187;</text><line style="stroke:#A371F7;stroke-width:0.5;" x1="2372.5" x2="2748.0137" y1="838.2084" y2="838.2084"/><g data-visibility-modifier="PUBLIC_METHOD"><ellipse cx="2382.5" cy="863.019" fill="#84BE84" rx="3" ry="3" style="stroke:#038048;stroke-width:1;"/></g><text fill="#C9D1D9" font-family="'Segoe UI, Inter, sans-serif'" font-size="14" lengthAdjust="spacing" textLength="332.5137" x="2400.5" y="867.3159">FullName : string &#171;Required, MinLen(2), MaxLen(100)&#187;</text><g data-visibility-modifier="PUBLIC_METHOD"><ellipse cx="2382.5" cy="901.6401" fill="#84BE84" rx="3" ry="3" style="stroke:#038048;stroke-width:1;"/></g><text fill="#C9D1D9" font-family="'Segoe UI, Inter, sans-serif'" font-size="14" lengthAdjust="spacing" textLength="198.7207" x="2400.5" y="905.937">Address : string? &#171;MaxLen(250)&#187;</text></g><!--class UpdatePatientRequest--><g class="entity" data-qualified-name="ClinicManagementAPI.Core.DTOs.Patients.UpdatePatientRequest" data-source-line="104" id="ent0016"><rect fill="#161B22" height="334.9688" rx="6" ry="6" style="stroke:#A371F7;stroke-width:0.5;" width="321.2334" x="1990" y="588.4819"/><ellipse cx="2067.4985" cy="632.103" fill="#58A6FF" rx="10" ry="10" style="stroke:#181818;stroke-width:1;"/><path d="M2068.9048,628.1655 Q2069.0298,627.9936 2069.186,627.9155 Q2069.3423,627.8217 2069.5142,627.8217 Q2069.8267,627.8217 2070.0142,628.0405 Q2070.2173,628.2436 2070.2173,628.7436 L2070.2173,629.9311 Q2070.2173,630.4467 2070.0142,630.6655 Q2069.8267,630.8686 2069.5142,630.8686 Q2069.2329,630.8686 2069.061,630.7123 Q2068.8892,630.5561 2068.811,630.1342 Q2068.7642,629.8373 2068.6235,629.6811 Q2068.3423,629.3686 2067.8267,629.1967 Q2067.3267,629.0092 2066.8267,629.0092 Q2066.2017,629.0092 2065.6704,629.2905 Q2065.1392,629.5561 2064.7329,630.1811 Q2064.3423,630.7905 2064.3423,631.6342 L2064.3423,632.5405 Q2064.3423,633.5561 2065.0767,634.228 Q2065.811,634.8998 2067.1079,634.8998 Q2067.8892,634.8998 2068.436,634.6967 Q2068.7485,634.5717 2069.1079,634.2123 Q2069.3267,633.9936 2069.436,633.9311 Q2069.561,633.853 2069.7173,633.853 Q2069.9985,633.853 2070.2173,634.0717 Q2070.436,634.2905 2070.436,634.5717 Q2070.436,634.853 2070.1392,635.1811 Q2069.7173,635.6655 2069.061,635.9311 Q2068.186,636.3061 2067.1235,636.3061 Q2065.8735,636.3061 2064.8735,635.7905 Q2064.0767,635.3842 2063.4985,634.5092 Q2062.936,633.6186 2062.936,632.5717 L2062.936,631.6186 Q2062.936,630.5248 2063.436,629.5873 Q2063.9517,628.6342 2064.8579,628.1186 Q2065.7642,627.603 2066.7642,627.603 Q2067.3735,627.603 2067.9048,627.7436 Q2068.436,627.8842 2068.9048,628.1655 Z " fill="#E6EDF3"/><text fill="#E6EDF3" font-family="Segoe UI, Inter, sans-serif" font-size="14" font-style="italic" lengthAdjust="spacing" textLength="42.2803" x="2144.4766" y="618.5893">&#171;DTO&#187;</text><text fill="#C9D1D9" font-family="'Segoe UI, Inter, sans-serif'" font-size="14" lengthAdjust="spacing" textLength="138.2363" x="2096.4985" y="657.2104">UpdatePatientRequest</text><line style="stroke:#A371F7;stroke-width:0.5;" x1="1991" x2="2310.2334" y1="675.7241" y2="675.7241"/><g data-visibility-modifier="PUBLIC_FIELD"><ellipse cx="2001" cy="700.5346" fill="none" rx="3" ry="3" style="stroke:#038048;stroke-width:1;"/></g><text fill="#C9D1D9" font-family="'Segoe UI, Inter, sans-serif'" font-size="14" lengthAdjust="spacing" textLength="185.7666" x="2019" y="704.8315">Email : string? &#171;EmailAddress&#187;</text><g data-visibility-modifier="PUBLIC_FIELD"><ellipse cx="2001" cy="739.1557" fill="none" rx="3" ry="3" style="stroke:#038048;stroke-width:1;"/></g><text fill="#C9D1D9" font-family="'Segoe UI, Inter, sans-serif'" font-size="14" lengthAdjust="spacing" textLength="148.5107" x="2019" y="743.4526">Phone : string? &#171;Phone&#187;</text><g data-visibility-modifier="PUBLIC_FIELD"><ellipse cx="2001" cy="777.7768" fill="none" rx="3" ry="3" style="stroke:#038048;stroke-width:1;"/></g><text fill="#C9D1D9" font-family="'Segoe UI, Inter, sans-serif'" font-size="14" lengthAdjust="spacing" textLength="107.543" x="2019" y="782.0737">Gender : Gender?</text><g data-visibility-modifier="PUBLIC_FIELD"><ellipse cx="2001" cy="816.3979" fill="none" rx="3" ry="3" style="stroke:#038048;stroke-width:1;"/></g><text fill="#C9D1D9" font-family="'Segoe UI, Inter, sans-serif'" font-size="14" lengthAdjust="spacing" textLength="147.5195" x="2019" y="820.6948">DateOfBirth : DateOnly?</text><line style="stroke:#A371F7;stroke-width:0.5;" x1="1991" x2="2310.2334" y1="838.2084" y2="838.2084"/><g data-visibility-modifier="PUBLIC_METHOD"><ellipse cx="2001" cy="863.019" fill="#84BE84" rx="3" ry="3" style="stroke:#038048;stroke-width:1;"/></g><text fill="#C9D1D9" font-family="'Segoe UI, Inter, sans-serif'" font-size="14" lengthAdjust="spacing" textLength="276.2334" x="2019" y="867.3159">FullName : string? &#171;MinLen(2), MaxLen(100)&#187;</text><g data-visibility-modifier="PUBLIC_METHOD"><ellipse cx="2001" cy="901.6401" fill="#84BE84" rx="3" ry="3" style="stroke:#038048;stroke-width:1;"/></g><text fill="#C9D1D9" font-family="'Segoe UI, Inter, sans-serif'" font-size="14" lengthAdjust="spacing" textLength="198.7207" x="2019" y="905.937">Address : string? &#171;MaxLen(250)&#187;</text></g><!--class PatientResponse--><g class="entity" data-qualified-name="ClinicManagementAPI.Core.DTOs.Patients.PatientResponse" data-source-line="113" id="ent0017"><rect fill="#161B22" height="450.832" rx="6" ry="6" style="stroke:#A371F7;stroke-width:0.5;" width="188.3906" x="1741.5" y="530.4819"/><ellipse cx="1771.7224" cy="574.103" fill="#58A6FF" rx="10" ry="10" style="stroke:#181818;stroke-width:1;"/><path d="M1773.1287,570.1655 Q1773.2537,569.9936 1773.4099,569.9155 Q1773.5662,569.8217 1773.738,569.8217 Q1774.0505,569.8217 1774.238,570.0405 Q1774.4412,570.2436 1774.4412,570.7436 L1774.4412,571.9311 Q1774.4412,572.4467 1774.238,572.6655 Q1774.0505,572.8686 1773.738,572.8686 Q1773.4568,572.8686 1773.2849,572.7123 Q1773.113,572.5561 1773.0349,572.1342 Q1772.988,571.8373 1772.8474,571.6811 Q1772.5662,571.3686 1772.0505,571.1967 Q1771.5505,571.0092 1771.0505,571.0092 Q1770.4255,571.0092 1769.8943,571.2905 Q1769.363,571.5561 1768.9568,572.1811 Q1768.5662,572.7905 1768.5662,573.6342 L1768.5662,574.5405 Q1768.5662,575.5561 1769.3005,576.228 Q1770.0349,576.8998 1771.3318,576.8998 Q1772.113,576.8998 1772.6599,576.6967 Q1772.9724,576.5717 1773.3318,576.2123 Q1773.5505,575.9936 1773.6599,575.9311 Q1773.7849,575.853 1773.9412,575.853 Q1774.2224,575.853 1774.4412,576.0717 Q1774.6599,576.2905 1774.6599,576.5717 Q1774.6599,576.853 1774.363,577.1811 Q1773.9412,577.6655 1773.2849,577.9311 Q1772.4099,578.3061 1771.3474,578.3061 Q1770.0974,578.3061 1769.0974,577.7905 Q1768.3005,577.3842 1767.7224,576.5092 Q1767.1599,575.6186 1767.1599,574.5717 L1767.1599,573.6186 Q1767.1599,572.5248 1767.6599,571.5873 Q1768.1755,570.6342 1769.0818,570.1186 Q1769.988,569.603 1770.988,569.603 Q1771.5974,569.603 1772.1287,569.7436 Q1772.6599,569.8842 1773.1287,570.1655 Z " fill="#E6EDF3"/><text fill="#E6EDF3" font-family="Segoe UI, Inter, sans-serif" font-size="14" font-style="italic" lengthAdjust="spacing" textLength="42.2803" x="1828.3577" y="560.5893">&#171;DTO&#187;</text><text fill="#C9D1D9" font-family="'Segoe UI, Inter, sans-serif'" font-size="14" lengthAdjust="spacing" textLength="102.3408" x="1798.3274" y="599.2104">PatientResponse</text><line style="stroke:#A371F7;stroke-width:0.5;" x1="1742.5" x2="1928.8906" y1="617.7241" y2="617.7241"/><g data-visibility-modifier="PUBLIC_FIELD"><ellipse cx="1752.5" cy="642.5346" fill="none" rx="3" ry="3" style="stroke:#038048;stroke-width:1;"/></g><text fill="#C9D1D9" font-family="'Segoe UI, Inter, sans-serif'" font-size="14" lengthAdjust="spacing" textLength="38.7324" x="1770.5" y="646.8315">Id : int</text><g data-visibility-modifier="PUBLIC_FIELD"><ellipse cx="1752.5" cy="681.1557" fill="none" rx="3" ry="3" style="stroke:#038048;stroke-width:1;"/></g><text fill="#C9D1D9" font-family="'Segoe UI, Inter, sans-serif'" font-size="14" lengthAdjust="spacing" textLength="104.3301" x="1770.5" y="685.4526">FullName : string</text><g data-visibility-modifier="PUBLIC_FIELD"><ellipse cx="1752.5" cy="719.7768" fill="none" rx="3" ry="3" style="stroke:#038048;stroke-width:1;"/></g><text fill="#C9D1D9" font-family="'Segoe UI, Inter, sans-serif'" font-size="14" lengthAdjust="spacing" textLength="78.8594" x="1770.5" y="724.0737">Email : string</text><g data-visibility-modifier="PUBLIC_FIELD"><ellipse cx="1752.5" cy="758.3979" fill="none" rx="3" ry="3" style="stroke:#038048;stroke-width:1;"/></g><text fill="#C9D1D9" font-family="'Segoe UI, Inter, sans-serif'" font-size="14" lengthAdjust="spacing" textLength="85.0254" x="1770.5" y="762.6948">Phone : string</text><g data-visibility-modifier="PUBLIC_FIELD"><ellipse cx="1752.5" cy="797.019" fill="none" rx="3" ry="3" style="stroke:#038048;stroke-width:1;"/></g><text fill="#C9D1D9" font-family="'Segoe UI, Inter, sans-serif'" font-size="14" lengthAdjust="spacing" textLength="91.0957" x="1770.5" y="801.3159">Gender : string</text><g data-visibility-modifier="PUBLIC_FIELD"><ellipse cx="1752.5" cy="835.6401" fill="none" rx="3" ry="3" style="stroke:#038048;stroke-width:1;"/></g><text fill="#C9D1D9" font-family="'Segoe UI, Inter, sans-serif'" font-size="14" lengthAdjust="spacing" textLength="141.2441" x="1770.5" y="839.937">DateOfBirth : DateOnly</text><g data-visibility-modifier="PUBLIC_FIELD"><ellipse cx="1752.5" cy="874.2612" fill="none" rx="3" ry="3" style="stroke:#038048;stroke-width:1;"/></g><text fill="#C9D1D9" font-family="'Segoe UI, Inter, sans-serif'" font-size="14" lengthAdjust="spacing" textLength="101.6777" x="1770.5" y="878.558">Address : string?</text><g data-visibility-modifier="PUBLIC_FIELD"><ellipse cx="1752.5" cy="912.8823" fill="none" rx="3" ry="3" style="stroke:#038048;stroke-width:1;"/></g><text fill="#C9D1D9" font-family="'Segoe UI, Inter, sans-serif'" font-size="14" lengthAdjust="spacing" textLength="131.8789" x="1770.5" y="917.1791">CreatedAt : DateTime</text><g data-visibility-modifier="PUBLIC_FIELD"><ellipse cx="1752.5" cy="951.5034" fill="none" rx="3" ry="3" style="stroke:#038048;stroke-width:1;"/></g><text fill="#C9D1D9" font-family="'Segoe UI, Inter, sans-serif'" font-size="14" lengthAdjust="spacing" textLength="143.3906" x="1770.5" y="955.8002">UpdatedAt : DateTime?</text><line style="stroke:#A371F7;stroke-width:0.5;" x1="1742.5" x2="1928.8906" y1="973.3139" y2="973.3139"/></g><!--class PatientService--><g class="entity" data-qualified-name="ClinicManagementAPI.Core.Services.PatientService" data-source-line="161" id="ent0029"><rect fill="#161B22" height="64.6211" rx="6" ry="6" style="stroke:#A371F7;stroke-width:0.5;" width="136.5977" x="4452" y="1393.9819"/><ellipse cx="4466" cy="1418.2924" fill="#58A6FF" rx="10" ry="10" style="stroke:#181818;stroke-width:1;"/><path d="M4467.4063,1414.3549 Q4467.5313,1414.183 4467.6875,1414.1049 Q4467.8438,1414.0112 4468.0156,1414.0112 Q4468.3281,1414.0112 4468.5156,1414.2299 Q4468.7188,1414.433 4468.7188,1414.933 L4468.7188,1416.1205 Q4468.7188,1416.6362 4468.5156,1416.8549 Q4468.3281,1417.058 4468.0156,1417.058 Q4467.7344,1417.058 4467.5625,1416.9018 Q4467.3906,1416.7455 4467.3125,1416.3237 Q4467.2656,1416.0268 4467.125,1415.8705 Q4466.8438,1415.558 4466.3281,1415.3862 Q4465.8281,1415.1987 4465.3281,1415.1987 Q4464.7031,1415.1987 4464.1719,1415.4799 Q4463.6406,1415.7455 4463.2344,1416.3705 Q4462.8438,1416.9799 4462.8438,1417.8237 L4462.8438,1418.7299 Q4462.8438,1419.7455 4463.5781,1420.4174 Q4464.3125,1421.0893 4465.6094,1421.0893 Q4466.3906,1421.0893 4466.9375,1420.8862 Q4467.25,1420.7612 4467.6094,1420.4018 Q4467.8281,1420.183 4467.9375,1420.1205 Q4468.0625,1420.0424 4468.2188,1420.0424 Q4468.5,1420.0424 4468.7188,1420.2612 Q4468.9375,1420.4799 4468.9375,1420.7612 Q4468.9375,1421.0424 4468.6406,1421.3705 Q4468.2188,1421.8549 4467.5625,1422.1205 Q4466.6875,1422.4955 4465.625,1422.4955 Q4464.375,1422.4955 4463.375,1421.9799 Q4462.5781,1421.5737 4462,1420.6987 Q4461.4375,1419.808 4461.4375,1418.7612 L4461.4375,1417.808 Q4461.4375,1416.7143 4461.9375,1415.7768 Q4462.4531,1414.8237 4463.3594,1414.308 Q4464.2656,1413.7924 4465.2656,1413.7924 Q4465.875,1413.7924 4466.4063,1413.933 Q4466.9375,1414.0737 4467.4063,1414.3549 Z " fill="#E6EDF3"/><text fill="#C9D1D9" font-family="'Segoe UI, Inter, sans-serif'" font-size="14" lengthAdjust="spacing" textLength="86.5977" x="4489" y="1424.0893">PatientService</text><line style="stroke:#A371F7;stroke-width:0.5;" x1="4453" x2="4587.5977" y1="1442.603" y2="1442.603"/><line style="stroke:#A371F7;stroke-width:0.5;" x1="4453" x2="4587.5977" y1="1450.603" y2="1450.603"/></g><!--class Patient--><g class="entity" data-qualified-name="Patient" data-source-line="152" id="ent0021"><rect fill="#161B22" height="64.6211" rx="6" ry="6" style="stroke:#A371F7;stroke-width:0.5;" width="93.0869" x="283" y="1393.9819"/><ellipse cx="297" cy="1418.2924" fill="#58A6FF" rx="10" ry="10" style="stroke:#181818;stroke-width:1;"/><path d="M298.4063,1414.3549 Q298.5313,1414.183 298.6875,1414.1049 Q298.8438,1414.0112 299.0156,1414.0112 Q299.3281,1414.0112 299.5156,1414.2299 Q299.7188,1414.433 299.7188,1414.933 L299.7188,1416.1205 Q299.7188,1416.6362 299.5156,1416.8549 Q299.3281,1417.058 299.0156,1417.058 Q298.7344,1417.058 298.5625,1416.9018 Q298.3906,1416.7455 298.3125,1416.3237 Q298.2656,1416.0268 298.125,1415.8705 Q297.8438,1415.558 297.3281,1415.3862 Q296.8281,1415.1987 296.3281,1415.1987 Q295.7031,1415.1987 295.1719,1415.4799 Q294.6406,1415.7455 294.2344,1416.3705 Q293.8438,1416.9799 293.8438,1417.8237 L293.8438,1418.7299 Q293.8438,1419.7455 294.5781,1420.4174 Q295.3125,1421.0893 296.6094,1421.0893 Q297.3906,1421.0893 297.9375,1420.8862 Q298.25,1420.7612 298.6094,1420.4018 Q298.8281,1420.183 298.9375,1420.1205 Q299.0625,1420.0424 299.2188,1420.0424 Q299.5,1420.0424 299.7188,1420.2612 Q299.9375,1420.4799 299.9375,1420.7612 Q299.9375,1421.0424 299.6406,1421.3705 Q299.2188,1421.8549 298.5625,1422.1205 Q297.6875,1422.4955 296.625,1422.4955 Q295.375,1422.4955 294.375,1421.9799 Q293.5781,1421.5737 293,1420.6987 Q292.4375,1419.808 292.4375,1418.7612 L292.4375,1417.808 Q292.4375,1416.7143 292.9375,1415.7768 Q293.4531,1414.8237 294.3594,1414.308 Q295.2656,1413.7924 296.2656,1413.7924 Q296.875,1413.7924 297.4063,1413.933 Q297.9375,1414.0737 298.4063,1414.3549 Z " fill="#E6EDF3"/><text fill="#C9D1D9" font-family="'Segoe UI, Inter, sans-serif'" font-size="14" lengthAdjust="spacing" textLength="43.0869" x="320" y="1424.0893">Patient</text><line style="stroke:#A371F7;stroke-width:0.5;" x1="284" x2="375.0869" y1="1442.603" y2="1442.603"/><line style="stroke:#A371F7;stroke-width:0.5;" x1="284" x2="375.0869" y1="1450.603" y2="1450.603"/></g><!--class ISoftDeletable--><g class="entity" data-qualified-name="ISoftDeletable" data-source-line="152" id="ent0022"><rect fill="#161B22" height="64.6211" rx="6" ry="6" style="stroke:#A371F7;stroke-width:0.5;" width="137.1514" x="43" y="723.4819"/><ellipse cx="57" cy="747.7924" fill="#58A6FF" rx="10" ry="10" style="stroke:#181818;stroke-width:1;"/><path d="M58.4063,743.8549 Q58.5313,743.683 58.6875,743.6049 Q58.8438,743.5112 59.0156,743.5112 Q59.3281,743.5112 59.5156,743.7299 Q59.7188,743.933 59.7188,744.433 L59.7188,745.6205 Q59.7188,746.1362 59.5156,746.3549 Q59.3281,746.558 59.0156,746.558 Q58.7344,746.558 58.5625,746.4018 Q58.3906,746.2455 58.3125,745.8237 Q58.2656,745.5268 58.125,745.3705 Q57.8438,745.058 57.3281,744.8862 Q56.8281,744.6987 56.3281,744.6987 Q55.7031,744.6987 55.1719,744.9799 Q54.6406,745.2455 54.2344,745.8705 Q53.8438,746.4799 53.8438,747.3237 L53.8438,748.2299 Q53.8438,749.2455 54.5781,749.9174 Q55.3125,750.5893 56.6094,750.5893 Q57.3906,750.5893 57.9375,750.3862 Q58.25,750.2612 58.6094,749.9018 Q58.8281,749.683 58.9375,749.6205 Q59.0625,749.5424 59.2188,749.5424 Q59.5,749.5424 59.7188,749.7612 Q59.9375,749.9799 59.9375,750.2612 Q59.9375,750.5424 59.6406,750.8705 Q59.2188,751.3549 58.5625,751.6205 Q57.6875,751.9955 56.625,751.9955 Q55.375,751.9955 54.375,751.4799 Q53.5781,751.0737 53,750.1987 Q52.4375,749.308 52.4375,748.2612 L52.4375,747.308 Q52.4375,746.2143 52.9375,745.2768 Q53.4531,744.3237 54.3594,743.808 Q55.2656,743.2924 56.2656,743.2924 Q56.875,743.2924 57.4063,743.433 Q57.9375,743.5737 58.4063,743.8549 Z " fill="#E6EDF3"/><text fill="#C9D1D9" font-family="'Segoe UI, Inter, sans-serif'" font-size="14" lengthAdjust="spacing" textLength="87.1514" x="80" y="753.5893">ISoftDeletable</text><line style="stroke:#A371F7;stroke-width:0.5;" x1="44" x2="179.1514" y1="772.103" y2="772.103"/><line style="stroke:#A371F7;stroke-width:0.5;" x1="44" x2="179.1514" y1="780.103" y2="780.103"/></g><!--class Gender--><g class="entity" data-qualified-name="Gender" data-source-line="155" id="ent0025"><rect fill="#161B22" height="64.6211" rx="6" ry="6" style="stroke:#A371F7;stroke-width:0.5;" width="95.2813" x="506" y="1393.9819"/><ellipse cx="520" cy="1418.2924" fill="#58A6FF" rx="10" ry="10" style="stroke:#181818;stroke-width:1;"/><path d="M521.4063,1414.3549 Q521.5313,1414.183 521.6875,1414.1049 Q521.8438,1414.0112 522.0156,1414.0112 Q522.3281,1414.0112 522.5156,1414.2299 Q522.7188,1414.433 522.7188,1414.933 L522.7188,1416.1205 Q522.7188,1416.6362 522.5156,1416.8549 Q522.3281,1417.058 522.0156,1417.058 Q521.7344,1417.058 521.5625,1416.9018 Q521.3906,1416.7455 521.3125,1416.3237 Q521.2656,1416.0268 521.125,1415.8705 Q520.8438,1415.558 520.3281,1415.3862 Q519.8281,1415.1987 519.3281,1415.1987 Q518.7031,1415.1987 518.1719,1415.4799 Q517.6406,1415.7455 517.2344,1416.3705 Q516.8438,1416.9799 516.8438,1417.8237 L516.8438,1418.7299 Q516.8438,1419.7455 517.5781,1420.4174 Q518.3125,1421.0893 519.6094,1421.0893 Q520.3906,1421.0893 520.9375,1420.8862 Q521.25,1420.7612 521.6094,1420.4018 Q521.8281,1420.183 521.9375,1420.1205 Q522.0625,1420.0424 522.2188,1420.0424 Q522.5,1420.0424 522.7188,1420.2612 Q522.9375,1420.4799 522.9375,1420.7612 Q522.9375,1421.0424 522.6406,1421.3705 Q522.2188,1421.8549 521.5625,1422.1205 Q520.6875,1422.4955 519.625,1422.4955 Q518.375,1422.4955 517.375,1421.9799 Q516.5781,1421.5737 516,1420.6987 Q515.4375,1419.808 515.4375,1418.7612 L515.4375,1417.808 Q515.4375,1416.7143 515.9375,1415.7768 Q516.4531,1414.8237 517.3594,1414.308 Q518.2656,1413.7924 519.2656,1413.7924 Q519.875,1413.7924 520.4063,1413.933 Q520.9375,1414.0737 521.4063,1414.3549 Z " fill="#E6EDF3"/><text fill="#C9D1D9" font-family="'Segoe UI, Inter, sans-serif'" font-size="14" lengthAdjust="spacing" textLength="45.2813" x="543" y="1424.0893">Gender</text><line style="stroke:#A371F7;stroke-width:0.5;" x1="507" x2="600.2813" y1="1442.603" y2="1442.603"/><line style="stroke:#A371F7;stroke-width:0.5;" x1="507" x2="600.2813" y1="1450.603" y2="1450.603"/></g><!--class ApplicationUser--><g class="entity" data-qualified-name="ApplicationUser" data-source-line="158" id="ent0027"><rect fill="#161B22" height="64.6211" rx="6" ry="6" style="stroke:#A371F7;stroke-width:0.5;" width="147.8701" x="255.5" y="1895.4819"/><ellipse cx="269.5" cy="1919.7924" fill="#58A6FF" rx="10" ry="10" style="stroke:#181818;stroke-width:1;"/><path d="M270.9063,1915.8549 Q271.0313,1915.683 271.1875,1915.6049 Q271.3438,1915.5112 271.5156,1915.5112 Q271.8281,1915.5112 272.0156,1915.7299 Q272.2188,1915.933 272.2188,1916.433 L272.2188,1917.6205 Q272.2188,1918.1362 272.0156,1918.3549 Q271.8281,1918.558 271.5156,1918.558 Q271.2344,1918.558 271.0625,1918.4018 Q270.8906,1918.2455 270.8125,1917.8237 Q270.7656,1917.5268 270.625,1917.3705 Q270.3438,1917.058 269.8281,1916.8862 Q269.3281,1916.6987 268.8281,1916.6987 Q268.2031,1916.6987 267.6719,1916.9799 Q267.1406,1917.2455 266.7344,1917.8705 Q266.3438,1918.4799 266.3438,1919.3237 L266.3438,1920.2299 Q266.3438,1921.2455 267.0781,1921.9174 Q267.8125,1922.5893 269.1094,1922.5893 Q269.8906,1922.5893 270.4375,1922.3862 Q270.75,1922.2612 271.1094,1921.9018 Q271.3281,1921.683 271.4375,1921.6205 Q271.5625,1921.5424 271.7188,1921.5424 Q272,1921.5424 272.2188,1921.7612 Q272.4375,1921.9799 272.4375,1922.2612 Q272.4375,1922.5424 272.1406,1922.8705 Q271.7188,1923.3549 271.0625,1923.6205 Q270.1875,1923.9955 269.125,1923.9955 Q267.875,1923.9955 266.875,1923.4799 Q266.0781,1923.0737 265.5,1922.1987 Q264.9375,1921.308 264.9375,1920.2612 L264.9375,1919.308 Q264.9375,1918.2143 265.4375,1917.2768 Q265.9531,1916.3237 266.8594,1915.808 Q267.7656,1915.2924 268.7656,1915.2924 Q269.375,1915.2924 269.9063,1915.433 Q270.4375,1915.5737 270.9063,1915.8549 Z " fill="#E6EDF3"/><text fill="#C9D1D9" font-family="'Segoe UI, Inter, sans-serif'" font-size="14" lengthAdjust="spacing" textLength="97.8701" x="292.5" y="1925.5893">ApplicationUser</text><line style="stroke:#A371F7;stroke-width:0.5;" x1="256.5" x2="402.3701" y1="1944.103" y2="1944.103"/><line style="stroke:#A371F7;stroke-width:0.5;" x1="256.5" x2="402.3701" y1="1952.103" y2="1952.103"/></g><!--class Result<T>--><g class="entity" data-qualified-name="Result.T." data-source-line="164" id="ent0033"><rect fill="#161B22" height="64.6211" rx="6" ry="6" style="stroke:#A371F7;stroke-width:0.5;" width="114.1826" x="4984.5" y="723.4819"/><ellipse cx="4998.5" cy="747.7924" fill="#58A6FF" rx="10" ry="10" style="stroke:#181818;stroke-width:1;"/><path d="M4999.9063,743.8549 Q5000.0313,743.683 5000.1875,743.6049 Q5000.3438,743.5112 5000.5156,743.5112 Q5000.8281,743.5112 5001.0156,743.7299 Q5001.2188,743.933 5001.2188,744.433 L5001.2188,745.6205 Q5001.2188,746.1362 5001.0156,746.3549 Q5000.8281,746.558 5000.5156,746.558 Q5000.2344,746.558 5000.0625,746.4018 Q4999.8906,746.2455 4999.8125,745.8237 Q4999.7656,745.5268 4999.625,745.3705 Q4999.3438,745.058 4998.8281,744.8862 Q4998.3281,744.6987 4997.8281,744.6987 Q4997.2031,744.6987 4996.6719,744.9799 Q4996.1406,745.2455 4995.7344,745.8705 Q4995.3438,746.4799 4995.3438,747.3237 L4995.3438,748.2299 Q4995.3438,749.2455 4996.0781,749.9174 Q4996.8125,750.5893 4998.1094,750.5893 Q4998.8906,750.5893 4999.4375,750.3862 Q4999.75,750.2612 5000.1094,749.9018 Q5000.3281,749.683 5000.4375,749.6205 Q5000.5625,749.5424 5000.7188,749.5424 Q5001,749.5424 5001.2188,749.7612 Q5001.4375,749.9799 5001.4375,750.2612 Q5001.4375,750.5424 5001.1406,750.8705 Q5000.7188,751.3549 5000.0625,751.6205 Q4999.1875,751.9955 4998.125,751.9955 Q4996.875,751.9955 4995.875,751.4799 Q4995.0781,751.0737 4994.5,750.1987 Q4993.9375,749.308 4993.9375,748.2612 L4993.9375,747.308 Q4993.9375,746.2143 4994.4375,745.2768 Q4994.9531,744.3237 4995.8594,743.808 Q4996.7656,743.2924 4997.7656,743.2924 Q4998.375,743.2924 4998.9063,743.433 Q4999.4375,743.5737 4999.9063,743.8549 Z " fill="#E6EDF3"/><text fill="#C9D1D9" font-family="'Segoe UI, Inter, sans-serif'" font-size="14" lengthAdjust="spacing" textLength="64.1826" x="5021.5" y="753.5893">Result&lt;T&gt;</text><line style="stroke:#A371F7;stroke-width:0.5;" x1="4985.5" x2="5097.6826" y1="772.103" y2="772.103"/><line style="stroke:#A371F7;stroke-width:0.5;" x1="4985.5" x2="5097.6826" y1="780.103" y2="780.103"/></g><g class="entity" data-qualified-name="GMN41" data-source-line="181" id="ent0042"><path d="M244,717.4819 L244,794.0053 A6,6 0 0 0 250,800.0053 L340.46,800.0053 L330.26,1393.6519 L348.46,800.0053 L440.9063,800.0053 A6,6 0 0 0 446.9063,794.0053 L446.9063,721.4819 L436.9063,711.4819 L250,711.4819 A6,6 0 0 0 244,717.4819" fill="#21262D" style="stroke:#F85149;stroke-width:0.5;"/><path d="M436.9063,711.4819 L436.9063,718.4819 A3,3 0 0 0 439.9063,721.4819 L446.9063,721.4819 L436.9063,711.4819" fill="#21262D" style="stroke:#F85149;stroke-width:0.5;"/><text fill="#C9D1D9" font-family="'Segoe UI, Inter, sans-serif'" font-size="11" lengthAdjust="spacing" textLength="45.4663" x="260" y="738.352">Email has</text><text fill="#C9D1D9" font-family="'Segoe UI, Inter, sans-serif'" font-size="11" font-weight="bold" lengthAdjust="spacing" textLength="111.5415" x="308.4795" y="738.352">Filtered Unique Index</text><text fill="#C9D1D9" font-family="'Segoe UI, Inter, sans-serif'" font-size="11" lengthAdjust="spacing" textLength="158.2861" x="260" y="752.9829">(IsDeleted = 0) at database level.</text><text fill="#C9D1D9" font-family="'Segoe UI, Inter, sans-serif'" font-size="11" lengthAdjust="spacing" textLength="161.9063" x="260" y="767.6137">Global Query Filter auto-excludes</text><text fill="#C9D1D9" font-family="'Segoe UI, Inter, sans-serif'" font-size="11" lengthAdjust="spacing" textLength="145.4063" x="260" y="782.2446">deleted patients from queries.</text></g><g class="entity" data-qualified-name="GMN44" data-source-line="188" id="ent0045"><path d="M6,1395.4819 L6,1457.3745 A6,6 0 0 0 12,1463.3745 L200.9727,1463.3745 A6,6 0 0 0 206.9727,1457.3745 L206.9727,1399.4819 L196.9727,1389.4819 L110.77,1389.4819 L111.26,788.7719 L102.77,1389.4819 L12,1389.4819 A6,6 0 0 0 6,1395.4819" fill="#21262D" style="stroke:#F85149;stroke-width:0.5;"/><path d="M196.9727,1389.4819 L196.9727,1396.4819 A3,3 0 0 0 199.9727,1399.4819 L206.9727,1399.4819 L196.9727,1389.4819" fill="#21262D" style="stroke:#F85149;stroke-width:0.5;"/><text fill="#C9D1D9" font-family="'Segoe UI, Inter, sans-serif'" font-size="11" lengthAdjust="spacing" textLength="159.9727" x="22" y="1416.352">Reusable contract for soft delete.</text><text fill="#C9D1D9" font-family="'Segoe UI, Inter, sans-serif'" font-size="11" lengthAdjust="spacing" textLength="144.7832" x="22" y="1430.9829">Used by Patient (Sprint 3) and</text><text fill="#C9D1D9" font-family="'Segoe UI, Inter, sans-serif'" font-size="11" lengthAdjust="spacing" textLength="82.9673" x="22" y="1445.6137">Doctor (Sprint 4).</text></g><g class="entity" data-qualified-name="GMN47" data-source-line="194" id="ent0048"><path d="M5158.5,724.9819 L5158.5,786.8745 A6,6 0 0 0 5164.5,792.8745 L5318.0718,792.8745 A6,6 0 0 0 5324.0718,786.8745 L5324.0718,728.9819 L5314.0718,718.9819 L5164.5,718.9819 A6,6 0 0 0 5158.5,724.9819" fill="#21262D" style="stroke:#F85149;stroke-width:0.5;"/><path d="M5314.0718,718.9819 L5314.0718,725.9819 A3,3 0 0 0 5317.0718,728.9819 L5324.0718,728.9819 L5314.0718,718.9819" fill="#21262D" style="stroke:#F85149;stroke-width:1;"/><text fill="#C9D1D9" font-family="'Segoe UI, Inter, sans-serif'" font-size="11" lengthAdjust="spacing" textLength="101.0786" x="5174.5" y="745.852">All fields optional for</text><text fill="#C9D1D9" font-family="'Segoe UI, Inter, sans-serif'" font-size="11" font-weight="bold" lengthAdjust="spacing" textLength="73.0415" x="5174.5" y="760.4829">partial update</text><text fill="#C9D1D9" font-family="'Segoe UI, Inter, sans-serif'" font-size="11" lengthAdjust="spacing" textLength="39.585" x="5247.5415" y="760.4829">. Service</text><text fill="#C9D1D9" font-family="'Segoe UI, Inter, sans-serif'" font-size="11" lengthAdjust="spacing" textLength="124.5718" x="5174.5" y="775.1137">rejects if all fields are null.</text></g><!--reverse link ISoftDeletable to Patient--><g class="link" data-entity-1="ent0022" data-entity-2="ent0021" data-link-type="extension" data-source-line="152" id="lnk24"><path codeLine="152" d="M123.2779,806.1888 C137.6779,864.6088 167.9,974.8119 216.5,1074.4819 C223.52,1088.8819 229.75,1089.9519 236.5,1104.4819 C283.32,1205.2419 312.13,1334.8819 323.68,1393.8119" fill="none" id="ISoftDeletable-backto-Patient" style="stroke:#8B949E;stroke-width:1.5;stroke-dasharray:7,7;"/><polygon fill="none" points="118.97,788.7119,117.4523,807.6247,129.1035,804.7528,118.97,788.7119" style="stroke:#8B949E;stroke-width:1.5;"/><text fill="#C9D1D9" font-family="'Segoe UI, Inter, sans-serif'" font-size="12" lengthAdjust="spacing" textLength="79.3242" x="230.7871" y="1061.4311">(1) Implements</text></g><!--link Patient to Gender--><g class="link" data-entity-1="ent0021" data-entity-2="ent0025" data-link-type="dependency" data-source-line="155" id="lnk26"><path codeLine="155" d="M376.19,1426.4819 C414.14,1426.4819 461.47,1426.4819 499.72,1426.4819" fill="none" id="Patient-to-Gender" style="stroke:#58A6FF;stroke-width:1.5;"/><polygon fill="#58A6FF" points="505.72,1426.4819,496.72,1422.4819,500.72,1426.4819,496.72,1430.4819,505.72,1426.4819" style="stroke:#58A6FF;stroke-width:1.5;"/><text fill="#C9D1D9" font-family="'Segoe UI, Inter, sans-serif'" font-size="12" lengthAdjust="spacing" textLength="41.7012" x="420.2871" y="1410.4311">(2) Uses</text></g><!--link Patient to ApplicationUser--><g class="link" data-entity-1="ent0021" data-entity-2="ent0027" data-link-type="aggregation" data-source-line="158" id="lnk28"><path codeLine="158" d="M329.5,1459.1019 C329.5,1548.9619 329.5,1793.0919 329.5,1883.1719" fill="none" id="Patient-to-ApplicationUser" style="stroke:#8B949E;stroke-width:1.5;"/><polygon fill="none" points="329.5,1895.1719,333.5,1889.1719,329.5,1883.1719,325.5,1889.1719,329.5,1895.1719" style="stroke:#8B949E;stroke-width:1.5;"/><text fill="#C9D1D9" font-family="'Segoe UI, Inter, sans-serif'" font-size="12" lengthAdjust="spacing" textLength="123.5859" x="343.7871" y="1852.4311">(3) Optional FK (UserId)</text><text fill="#C9D1D9" font-family="'Segoe UI, Inter, sans-serif'" font-size="12" lengthAdjust="spacing" textLength="16.6758" x="300.8995" y="1489.5109">0..*</text><text fill="#C9D1D9" font-family="'Segoe UI, Inter, sans-serif'" font-size="12" lengthAdjust="spacing" textLength="18.1406" x="298.2576" y="1874.5892">0..1</text></g><!--reverse link IPatientService to PatientService--><g class="link" data-entity-1="ent0006" data-entity-2="ent0029" data-link-type="extension" data-source-line="161" id="lnk32"><path codeLine="161" d="M4520.5,922.1019 C4520.5,1081.8319 4520.5,1307.6819 4520.5,1393.9219" fill="none" id="IPatientService-backto-PatientService" style="stroke:#8B949E;stroke-width:1.5;stroke-dasharray:7,7;"/><polygon fill="none" points="4520.5,904.1019,4514.5,922.1019,4526.5,922.1019,4520.5,904.1019" style="stroke:#8B949E;stroke-width:1.5;"/><text fill="#C9D1D9" font-family="'Segoe UI, Inter, sans-serif'" font-size="12" lengthAdjust="spacing" textLength="59.1621" x="4534.7871" y="1061.4311">(4) Realizes</text></g><!--link IPatientService to Result<T>--><g class="link" data-entity-1="ent0006" data-entity-2="ent0033" data-link-type="dependency" data-source-line="164" id="lnk34"><path codeLine="164" d="M4845.65,755.9819 C4899,755.9819 4942.49,755.9819 4978.38,755.9819" fill="none" id="IPatientService-to-Result&lt;T&gt;" style="stroke:#3FB950;stroke-width:1.5;"/><polygon fill="#3FB950" points="4984.38,755.9819,4975.38,751.9819,4979.38,755.9819,4975.38,759.9819,4984.38,755.9819" style="stroke:#3FB950;stroke-width:1.5;"/><text fill="#C9D1D9" font-family="'Segoe UI, Inter, sans-serif'" font-size="12" lengthAdjust="spacing" textLength="50.6309" x="4889.7871" y="739.9311">(5) Wraps</text></g><!--link CreatePatientRequest to IPatientService--><g class="link" data-entity-1="ent0014" data-entity-2="ent0006" data-link-type="dependency" data-source-line="167" id="lnk35"><path codeLine="167" d="M2605.49,588.3119 C2641.99,488.0619 2704.53,368.7919 2806.5,308.4819 C3066.44,154.7519 3893.58,177.1019 4165.5,308.4819 C4293.3,370.2319 4386.1929,497.5969 4445.8829,602.5069" fill="none" id="CreatePatientRequest-to-IPatientService" style="stroke:#58A6FF;stroke-width:1.5;"/><polygon fill="#58A6FF" points="4448.85,607.7219,4447.8759,597.9213,4446.3774,603.3761,4440.9226,601.8775,4448.85,607.7219" style="stroke:#58A6FF;stroke-width:1.5;"/><text fill="#C9D1D9" font-family="'Segoe UI, Inter, sans-serif'" font-size="12" lengthAdjust="spacing" textLength="44.8945" x="4112.2871" y="193.4311">(6) Input</text></g><!--link UpdatePatientRequest to IPatientService--><g class="link" data-entity-1="ent0016" data-entity-2="ent0006" data-link-type="dependency" data-source-line="168" id="lnk36"><path codeLine="168" d="M2175.48,588.2119 C2199.86,488.7619 2247.75,370.4019 2341.5,308.4819 C2510.61,196.7919 3983.02,220.3119 4165.5,308.4819 C4293.3,370.2319 4386.1929,497.5969 4445.8829,602.5069" fill="none" id="UpdatePatientRequest-to-IPatientService" style="stroke:#58A6FF;stroke-width:1.5;"/><polygon fill="#58A6FF" points="4448.85,607.7219,4447.8759,597.9213,4446.3774,603.3761,4440.9226,601.8775,4448.85,607.7219" style="stroke:#58A6FF;stroke-width:1.5;"/><text fill="#C9D1D9" font-family="'Segoe UI, Inter, sans-serif'" font-size="12" lengthAdjust="spacing" textLength="44.8945" x="2350.2871" y="193.4311">(6) Input</text></g><!--link IPatientService to PatientResponse--><g class="link" data-entity-1="ent0006" data-entity-2="ent0017" data-link-type="dependency" data-source-line="169" id="lnk37"><path codeLine="169" d="M4448.85,607.7219 C4389.16,502.8119 4293.3,370.2319 4165.5,308.4819 C3944.9,201.9019 2155.66,160.3619 1960.5,308.4819 C1891.83,360.6019 1859.7945,441.3007 1844.5045,524.5007" fill="none" id="IPatientService-to-PatientResponse" style="stroke:#58A6FF;stroke-width:1.5;"/><polygon fill="#58A6FF" points="1843.42,530.4019,1848.9808,522.2731,1844.3237,525.4842,1841.1126,520.8271,1843.42,530.4019" style="stroke:#58A6FF;stroke-width:1.5;"/><text fill="#C9D1D9" font-family="'Segoe UI, Inter, sans-serif'" font-size="12" lengthAdjust="spacing" textLength="54.8145" x="3473.2871" y="193.4311">(6) Output</text></g><!--link PaginationRequest to IPatientService--><g class="link" data-entity-1="ent0018" data-entity-2="ent0006" data-link-type="dependency" data-source-line="172" id="lnk38"><path codeLine="172" d="M1545.53,646.4519 C1562.75,539.8819 1606.67,383.4119 1718.5,308.4819 C1944.37,157.1319 3920.69,190.2019 4165.5,308.4819 C4293.3,370.2319 4386.1929,497.5969 4445.8829,602.5069" fill="none" id="PaginationRequest-to-IPatientService" style="stroke:#58A6FF;stroke-width:1.5;"/><polygon fill="#58A6FF" points="4448.85,607.7219,4447.8759,597.9213,4446.3774,603.3761,4440.9226,601.8775,4448.85,607.7219" style="stroke:#58A6FF;stroke-width:1.5;"/><text fill="#C9D1D9" font-family="'Segoe UI, Inter, sans-serif'" font-size="12" lengthAdjust="spacing" textLength="44.8945" x="3984.2871" y="193.4311">(7) Input</text></g><!--link IPatientService to PagedResponse<T>--><g class="link" data-entity-1="ent0006" data-entity-2="ent0019" data-link-type="dependency" data-source-line="173" id="lnk39"><path codeLine="173" d="M4448.85,607.7219 C4389.16,502.8119 4293.3,370.2319 4165.5,308.4819 C3843.95,153.1219 1241.38,99.9219 951.5,308.4819 C869.11,367.7619 832.3971,468.5475 815.3471,562.8875" fill="none" id="IPatientService-to-PagedResponse&lt;T&gt;" style="stroke:#58A6FF;stroke-width:1.5;"/><polygon fill="#58A6FF" points="814.28,568.7919,819.8169,560.6467,815.1692,563.8716,811.9444,559.224,814.28,568.7919" style="stroke:#58A6FF;stroke-width:1.5;"/><text fill="#C9D1D9" font-family="'Segoe UI, Inter, sans-serif'" font-size="12" lengthAdjust="spacing" textLength="91.7344" x="3759.7871" y="193.4311">(7) Wraps Output</text></g><!--link AssignRoleRequest to IAuthService--><g class="link" data-entity-1="ent0020" data-entity-2="ent0007" data-link-type="dependency" data-source-line="176" id="lnk40"><path codeLine="176" d="M1163.3,684.7819 C1180.36,581.1619 1228.52,392.0819 1358.5,308.4819 C1565.59,175.2919 3357.71,191.7419 3574.5,308.4819 C3691.45,371.4619 3767.2646,497.8684 3813.6146,602.2284" fill="none" id="AssignRoleRequest-to-IAuthService" style="stroke:#58A6FF;stroke-width:1.5;"/><polygon fill="#58A6FF" points="3816.05,607.7119,3816.0525,597.863,3814.0205,603.1423,3808.7412,601.1102,3816.05,607.7119" style="stroke:#58A6FF;stroke-width:1.5;"/><text fill="#C9D1D9" font-family="'Segoe UI, Inter, sans-serif'" font-size="12" lengthAdjust="spacing" textLength="44.8945" x="2999.2871" y="193.4311">(8) Input</text></g><!--link UpdatePatientRequest to GMN47--><g class="link" data-entity-1="ent0016" data-entity-2="ent0048" data-link-type="association" data-source-line="194" id="lnk49"><path d="M2152.76,588.2119 C2165.37,438.4319 2212.4,237.0419 2371.5,199.4819 C2445.22,182.0819 5024.78,182.0819 5098.5,199.4819 C5305.53,248.3519 5266.87,601.9619 5248.19,718.7019" fill="none" id="UpdatePatientRequest-GMN47" style="stroke:#8B949E;stroke-width:1.5;stroke-dasharray:7,7;"/></g><g class="footer" data-source-line="18"><text fill="#E6EDF3" font-family="'Segoe UI, Inter, sans-serif'" font-size="10" lengthAdjust="spacing" textLength="145.9766" x="2585.5476" y="1986.894">Patient Module Structural Design</text></g><?plantuml-src jLZDSXit4hxpAH2woYPfaIOfIx9P4bsqADgiM9QMFxk7L2e5pJH9H20m0J2ocCHLEUO1zhmli8-mjpnAdcGRc1_Ea4ERKYey3QUxlsvqDpuqvXcfF-vNUaO6Z4E7U9ngtGZ29STNZmUx3bKWDH12EkJSGf8-etD5b-JFt_vDhgbX80pfooLbWZmbOr1tp0FIKzw26V1Cg01HFj0LA48SIbzwcbIcbn-gAEY5PY5L9BYK2xe4d_GuGycv0chmdvMqc-tZUlEmtdg9Wd6W6BfqWiDi59gSZwPzyfoC98Vw3TKMo-6pdr53Yh-GYD8tFioO038TN_nmFXrFhYv_cBo_kBmeVSE4nqCVIAFnmfDYnkOlj5bnY59VCinm-7hcilaYbNY9XzKIXdnsTaRU0_L1lHX8QJ2F-AQqS6yGc0dcaKigw1oM5d2yqWQMf9uWNqeVU6aMMIPUyMM8OOsD2grBoaaVD9kBn1_MIuQ81SOmCTVEexvb8g0s_hcIOJ0K2r3CK87LRcU40lrf2CXnC_DIKN4RlumzN5Fl5aEEe4j1z8-Ke_MibzEx7ZREfOB6K63yC-g1BfCdhUFMstQR_58gsJPWYOYKJpt9fUeywHsUj0OdtTEdUi60-ztJ5qxG9SEnd9a-S33qXaEPd9wI59bqkmX9ujzpCjHE4RkeGswav1bHBEWPsy_OfXEsX3TE_dahfc6Sz7XhVDddEp0zpdjw9RnAGETCkCRjOBgIvn7y588sLVGyeVhsT0GwvEOK5S37vq0A3QUno-H_jzlD-tYx6lgH4-PtRB3RS1i06VjePqRcAegc4xzCpNR4k1jq6lWfQ1pJ0KdH8-dZqQDwVN75jiAnJK4DBO_iLS0Hp1bkG9McfvE-sX6tXIuC-eF4ccTmtF-7WenWfa0l9l8MOYnZ7pj46-IO-GDmxj1kNvXCCYFpdhRqOeaviWurgA6VcBjATp9AErQPgz7dVMZ3iP-bZ6Q_rMgT99G18boksUBeLUzuC42su5YdDLUy0u4KwyfzOVLpbRwa7D8_0rWcV-FUSQVlsiFXuEtheoPwk97tQmVngYPTvwCoFeZrgYan5t3IEFIG1FKs9_sJyX1imZBlBfJ2qpL9SqOmDjI4-XopGznkI4M_Q9GmxxFLYJnLxYmmujfgf24N6GmeunXp1QpNTMqzz99kkJn0SROkZY_wWqFCLW1AIx5EM2y8EFCS3KvrN9hAnS6JVllrwtQxYcN2utQrcRD1oFb7d2oAyX1F6JaYJyNrEXdw465UAudH8CDeV9tDC1wol0ZP1hZjjNZ1QGFY-8FhutLFIQtNwuwfRS_r3lsDcduv1JjNSBsGej329kfgzfOfiuZJTYNuAdV2s9s3ikWXomE-hwBkZL3Vx5kBv8GeEdFZMbq5jZ5mbXbycw_Hr95DWKzRuDn0aBTxv02m5p7r9rUwaGokMoDDt1z5Xwfh0hJ-QfUJF_vhJPW2_u1SCl41HALTnKTwRnzRpMRrZ__jx8ESjHF5fSlPv5iaP-D4EUMDhiXevzIAkskNzbP3eMAymlPHkiByjYkQ9lPEgtFmq6nQepsJQ5M_chitvAi9U_CNaxGnJktApzzEDkdA7qv3VmlPF61_xzhMMyFyhkJQeJvABnOCBw0KZywprW4PKJ67IklWpz__a-ywQp1cFnSODTTMHnkjEWQAjyy9gEL6fZOR8dl3Y8UMeex0wwVD-T0EJQ0ihMRdXUogTaQU4KoaeVnSXi8KYwxTBJ9PhoUNGMWsEE8zrH_XtiGi_WMjQmLtJ8PwfsO-8rlpwgwKM9L7yB9hjUYwF0Bk6WRliq5yPtv6AgrgUgDdou2x3jGRHrefqMY4GUFNpHimHbLsECErVTbXjzVOEAphP1_QoJc5h7yNZoxVApPVc7ftlLlB3c5gBIEympNUWceYCuUraPkJNUgXt6mqQcKybgLxR9KtDIDN29uz_IlHYL-DNRzCNIUVfxBPoejAkxTqh94Us-bzCCdiXXCN6VeU0UNOsKaYZgfRcWfmrXSwCnnlQc2cexj1ckbovlRWF27klnGD4ZV7rVHZd8TzWrjHszRKfQAXeg2IXQj1qA703O4-YWxHHy0KB3H6yEKdKKzdtuHuKe2hq4G8Th4drSmN4ZBZybDfYsJt3Uxa0S4La6A24TKY5-MhQkQAIp3Gp5U5qXQP5CMRCOWSlLe76pF5HscIhse27t5p1KJEaZGwNeaEORiBQxK1umQGYiXKC7IBQ3xSrsfEhx8UWCy8tagf8LXpQh-i4Wvtm1jExHsNDxZl_X62Mf48Zz3Go3hSko-ZscdvCLAGVAoTARaaw5BXdQfHGjuWDjuuwXjf38eny0qsir0Z2BKZBsniewXdo0nlkHhrOYzHN5Fx0VXcbTBE-hCgeS9tAdtf6JHD92-hMu6urDiuYlhTOVGu9pFxbJ53QXYFazLg0SLB8xu9dNcjraXsfPCh-14yp0MR4Rg6eNZl5pX4POBvFm00?></g></svg>