<?plantuml 1.2026.2?><svg xmlns="http://www.w3.org/2000/svg" xmlns:xlink="http://www.w3.org/1999/xlink" contentStyleType="text/css" data-diagram-type="DESCRIPTION" height="1417px" preserveAspectRatio="none" style="width:2127px;height:1417px;background:#0D1117;" version="1.1" viewBox="0 0 2127 1417" width="2127px" zoomAndPan="magnify"><title>Component &#8212; Patient CRUD &amp; Role Authorization Architecture (Sprint 3)</title><defs/><g><rect fill="#0D1117" height="1417" style="stroke:none;stroke-width:1;" width="2127" x="0" y="0"/><g class="header" data-source-line="17"><text fill="#E6EDF3" font-family="'Segoe UI, Inter, sans-serif'" font-size="10" lengthAdjust="spacing" textLength="226.2012" x="1877.2515" y="20.791">Clinic Management System - Architecture Overview</text></g><g class="title" data-source-line="14"><text fill="#E6EDF3" font-family="'Segoe UI, Inter, sans-serif'" font-size="14" font-weight="bold" lengthAdjust="spacing" textLength="483.3281" x="815.0623" y="69.4082">Component &#8212; Patient CRUD &amp; Role Authorization Architecture (Sprint 3)</text></g><!--cluster GITHUB--><g class="cluster" data-qualified-name="GITHUB" data-source-line="26" id="ent0002"><path d="M27.8853,970.0314 C32.5516,957.9315 40.5276,958.0878 48.3328,966.9729 C54.3656,957.8301 61.0672,956.1199 68.1975,965.8156 C72.2692,955.8327 80.8473,951.7049 89.3092,961.0105 C95.6524,949.7 103.3934,948.7662 111.5095,959.2005 C119.8069,951.2734 130.0119,953.2194 134.1966,964.1488 C141.7278,955.3234 151.2247,954.7533 156.6977,966.41 C161.763,957.0854 171.1847,958.5616 176.0727,966.6078 C188.7867,955.8571 197.321,960.8095 202.9527,974.4219 C204.153,974.4615 204.4529,975.3742 203.8573,976.2855 C213.8286,979.6964 214.5524,986.7443 207.8375,993.9211 C217.0721,1000.15 217.2627,1008.8365 207.8982,1015.1187 C216.667,1019.2128 216.6223,1025.3127 208.9832,1030.5597 C218.4982,1036.0268 218.6761,1045.5907 208.9492,1051.0258 C219.5228,1055.0572 221.3546,1064.1686 211.4737,1070.8101 C220.9998,1074.9319 222.4104,1082.7534 213.6507,1089.0568 C221.2132,1094.3654 220.3818,1100.2457 213.3759,1105.3079 C222.6284,1111.5324 222.9651,1119.3062 214.6664,1126.5947 C223.061,1133.4214 222.24,1138.8885 213.3784,1144.4718 C219.7434,1151.745 220.0531,1159.2488 209.01,1162.2428 C216.4605,1166.7008 218.35,1175.133 208.9955,1179.577 C217.2664,1185.5833 216.0267,1193.9273 207.0049,1198.0725 C215.0621,1203.7469 217.1556,1214.067 205.7784,1218.5791 C212.443,1230.5872 208.6465,1237.7408 195.9527,1241.4219 C196.3484,1240.8215 196.9408,1240.6784 197.3342,1241.4243 C191.5369,1251.2841 185.4007,1253.2034 176.5465,1244.9283 C169.6331,1255.8891 161.6049,1254.2838 155.5768,1244.0523 C150.8757,1255.4602 140.5015,1254.5177 134.1311,1245.8341 C126.8808,1254.8636 120.1418,1257.1026 112.5698,1246.1819 C106.3323,1259.2866 97.4532,1259.2286 89.5152,1247.7785 C81.6266,1256.2211 74.342,1254.7162 69.9113,1244.2025 C62.3844,1256.8472 54.3397,1256.106 46.8623,1244.156 C33.7142,1253.1761 22.0899,1252.1636 17.9527,1234.4219 C18.9398,1234.5316 19.3113,1235.0693 18.7192,1235.964 C10.9702,1230.7729 11.0433,1222.3366 19.6531,1217.9958 C9.5034,1213.4362 8.4863,1206.2654 17.5323,1199.5043 C8.0914,1192.6831 9.0903,1186.8752 17.6192,1180.1346 C9.3778,1174.8204 9.5256,1168.7444 16.9069,1162.7887 C6.6136,1157.2839 9.3028,1148.3752 17.3209,1143.2585 C9.6166,1138.9528 6.5766,1131.3377 15.4708,1125.3201 C6,1120.1846 6.7734,1112.2553 15.7496,1107.407 C6.381,1100.5468 8.1403,1093.7316 17.4313,1088.5341 C8.5637,1084.2969 7.1717,1075.1994 16.377,1069.9377 C8.2432,1063.7434 8.447,1054.1154 18.1572,1049.4734 C11.0431,1044.2372 10.977,1038.4025 17.6631,1032.7585 C7.9076,1027.3094 8.5533,1018.5786 18.2463,1013.7255 C8.8477,1007.611 11.5272,998.7433 20.1286,994.3801 C10.3483,984.779 9.9536,972.5889 24.9527,967.4219 C26.9993,966.6771 28.206,968.1158 27.8853,970.0314" fill="#161B22" style="stroke:#30363D;stroke-width:1;"/><path d="M49.3314,989.3763 C47.9197,989.3763 46.6831,990.3796 46.4147,991.7096 C45.1314,991.7096 44.0814,992.7596 44.0814,994.043 C44.0814,995.3263 45.1314,996.3763 46.4147,996.3763 L51.6647,996.3763 C52.6331,996.3763 53.4147,995.5946 53.4147,994.6263 C53.4147,993.868 52.9247,993.1213 52.2481,992.8763 L52.2481,992.293 C52.2481,990.683 50.9414,989.3763 49.3314,989.3763" fill="#E6EDF3"/><text fill="#E6EDF3" font-family="'Segoe UI, Inter, sans-serif'" font-size="14" font-weight="bold" lengthAdjust="spacing" textLength="119.5469" x="58.277" y="997.5293">GitHub Ecosystem</text></g><!--cluster ClinicManagementAPI System--><g class="cluster" data-qualified-name="ClinicManagementAPI System" data-source-line="32" id="ent0007"><path d="M370.9527,215.4219 L610.648,215.4219 A9,9 0 0 1 616.648,221.4219 L623.648,262.7031 L1711.4527,262.7031 A6,6 0 0 1 1717.4527,268.7031 L1717.4527,1364.4219 A6,6 0 0 1 1711.4527,1370.4219 L370.9527,1370.4219 A6,6 0 0 1 364.9527,1364.4219 L364.9527,221.4219 A6,6 0 0 1 370.9527,215.4219" fill="#0D1117" style="stroke:#30363D;stroke-width:1.5;"/><line style="stroke:#30363D;stroke-width:1.5;" x1="364.9527" x2="623.648" y1="262.7031" y2="262.7031"/><text fill="#58A6FF" font-family="'Segoe UI, Inter, sans-serif'" font-size="16" font-weight="bold" lengthAdjust="spacing" textLength="225.6953" x="378.9527" y="244.6875">ClinicManagementAPI System</text></g><!--cluster API--><g class="cluster" data-qualified-name="ClinicManagementAPI System.API" data-source-line="34" id="ent0008"><path d="M402.9527,291.4219 L591.1662,291.4219 A9,9 0 0 1 597.1662,297.4219 L604.1662,338.7031 L976.9527,338.7031 A6,6 0 0 1 982.9527,344.7031 L982.9527,1031.4219 A6,6 0 0 1 976.9527,1037.4219 L402.9527,1037.4219 A6,6 0 0 1 396.9527,1031.4219 L396.9527,297.4219 A6,6 0 0 1 402.9527,291.4219" fill="#161B22" style="stroke:#30363D;stroke-width:1.5;"/><line style="stroke:#30363D;stroke-width:1.5;" x1="396.9527" x2="604.1662" y1="338.7031" y2="338.7031"/><path d="M411.9527,310.0365 L411.9527,311.3698 L422.6193,311.3698 L422.6193,310.0365 L411.9527,310.0365 M411.9527,312.7031 L411.9527,320.5831 C411.9527,320.6498 412.006,320.7031 412.0727,320.7031 L422.486,320.7031 C422.5527,320.7031 422.606,320.6498 422.606,320.5831 L422.606,312.7031 L418.646,312.7031 L418.646,314.0765 L415.9393,314.0765 L415.9393,312.7031 L411.9393,312.7031" fill="#58A6FF"/><text fill="#58A6FF" font-family="'Segoe UI, Inter, sans-serif'" font-size="16" font-weight="bold" lengthAdjust="spacing" textLength="157.1328" x="428.0334" y="320.6875">Api Project (.NET 10)</text><text fill="#58A6FF" font-family="'Segoe UI, Inter, sans-serif'" font-size="16" font-weight="bold" lengthAdjust="spacing" textLength="59.0156" x="664.4449" y="367.9688">&#171;Layer&#187;</text></g><!--cluster CORE--><g class="cluster" data-qualified-name="ClinicManagementAPI System.CORE" data-source-line="42" id="ent0014"><path d="M1121.9527,283.4219 L1319.2365,283.4219 A9,9 0 0 1 1325.2365,289.4219 L1332.2365,330.7031 L1687.4527,330.7031 A6,6 0 0 1 1693.4527,336.7031 L1693.4527,868.4219 A6,6 0 0 1 1687.4527,874.4219 L1121.9527,874.4219 A6,6 0 0 1 1115.9527,868.4219 L1115.9527,289.4219 A6,6 0 0 1 1121.9527,283.4219" fill="#161B22" style="stroke:#30363D;stroke-width:1.5;"/><line style="stroke:#30363D;stroke-width:1.5;" x1="1115.9527" x2="1332.2365" y1="330.7031" y2="330.7031"/><path d="M1130.9527,302.0365 L1130.9527,303.3698 L1141.6193,303.3698 L1141.6193,302.0365 L1130.9527,302.0365 M1130.9527,304.7031 L1130.9527,312.5831 C1130.9527,312.6498 1131.006,312.7031 1131.0727,312.7031 L1141.486,312.7031 C1141.5527,312.7031 1141.606,312.6498 1141.606,312.5831 L1141.606,304.7031 L1137.646,304.7031 L1137.646,306.0765 L1134.9393,306.0765 L1134.9393,304.7031 L1130.9393,304.7031" fill="#58A6FF"/><text fill="#58A6FF" font-family="'Segoe UI, Inter, sans-serif'" font-size="16" font-weight="bold" lengthAdjust="spacing" textLength="166.2031" x="1147.0334" y="312.6875">Core Project (.NET 10)</text><text fill="#58A6FF" font-family="'Segoe UI, Inter, sans-serif'" font-size="16" font-weight="bold" lengthAdjust="spacing" textLength="59.0156" x="1379.1949" y="359.9688">&#171;Layer&#187;</text></g><!--cluster DATA_FOLDER--><g class="cluster" data-qualified-name="ClinicManagementAPI System.CORE.DATA_FOLDER" data-source-line="48" id="ent0019"><path d="M1476.4527,392.4219 L1521.2896,392.4219 A9,9 0 0 1 1527.2896,398.4219 L1534.2896,437.043 L1663.4527,437.043 A6,6 0 0 1 1669.4527,443.043 L1669.4527,805.4219 A6,6 0 0 1 1663.4527,811.4219 L1476.4527,811.4219 A6,6 0 0 1 1470.4527,805.4219 L1470.4527,398.4219 A6,6 0 0 1 1476.4527,392.4219" fill="#161B22" style="stroke:#30363D;stroke-width:1.5;"/><line style="stroke:#30363D;stroke-width:1.5;" x1="1470.4527" x2="1534.2896" y1="437.043" y2="437.043"/><text fill="#E6EDF3" font-family="'Segoe UI, Inter, sans-serif'" font-size="14" font-weight="bold" lengthAdjust="spacing" textLength="30.8369" x="1484.4527" y="419.5293">Data</text></g><!--cluster TESTS--><g class="cluster" data-qualified-name="ClinicManagementAPI System.TESTS" data-source-line="55" id="ent0023"><path d="M1487.9527,906.4219 L1597.7886,906.4219 A9,9 0 0 1 1603.7886,912.4219 L1610.7886,953.7031 L1651.9527,953.7031 A6,6 0 0 1 1657.9527,959.7031 L1657.9527,1332.4219 A6,6 0 0 1 1651.9527,1338.4219 L1487.9527,1338.4219 A6,6 0 0 1 1481.9527,1332.4219 L1481.9527,912.4219 A6,6 0 0 1 1487.9527,906.4219" fill="#161B22" style="stroke:#30363D;stroke-width:1.5;"/><line style="stroke:#30363D;stroke-width:1.5;" x1="1481.9527" x2="1610.7886" y1="953.7031" y2="953.7031"/><text fill="#58A6FF" font-family="'Segoe UI, Inter, sans-serif'" font-size="16" font-weight="bold" lengthAdjust="spacing" textLength="95.8359" x="1495.9527" y="935.6875">Tests Project</text><text fill="#58A6FF" font-family="'Segoe UI, Inter, sans-serif'" font-size="16" font-weight="bold" lengthAdjust="spacing" textLength="59.0156" x="1544.4449" y="982.9688">&#171;Layer&#187;</text></g><!--cluster External Infrastructure--><g class="cluster" data-qualified-name="External Infrastructure" data-source-line="62" id="ent0026"><polygon fill="#161B22" points="1866.4527,552.4219,1876.4527,542.4219,2110.4527,542.4219,2110.4527,892.4219,2100.4527,902.4219,1866.4527,902.4219,1866.4527,552.4219" style="stroke:#30363D;stroke-width:1;"/><line style="stroke:#30363D;stroke-width:1;" x1="2100.4527" x2="2110.4527" y1="552.4219" y2="542.4219"/><line style="stroke:#30363D;stroke-width:1;" x1="1866.4527" x2="2100.4527" y1="552.4219" y2="552.4219"/><line style="stroke:#30363D;stroke-width:1;" x1="2100.4527" x2="2100.4527" y1="552.4219" y2="902.4219"/><text fill="#E6EDF3" font-family="'Segoe UI, Inter, sans-serif'" font-size="14" font-weight="bold" lengthAdjust="spacing" textLength="148.4287" x="1910.2383" y="580.5293">External Infrastructure</text></g><!--entity CI--><g class="entity" data-qualified-name="GITHUB.CI" data-source-line="27" id="ent0003"><rect fill="#0D1117" height="107.2422" rx="6" ry="6" style="stroke:#58A6FF;stroke-width:1.5;" width="168.5335" x="25.9527" y="1125.9219"/><rect fill="#0D1117" height="10" style="stroke:#58A6FF;stroke-width:1.5;" width="15" x="174.4862" y="1130.9219"/><rect fill="#0D1117" height="2" style="stroke:#58A6FF;stroke-width:1.5;" width="4" x="172.4862" y="1132.9219"/><rect fill="#0D1117" height="2" style="stroke:#58A6FF;stroke-width:1.5;" width="4" x="172.4862" y="1136.9219"/><text fill="#E6EDF3" font-family="'Segoe UI, Inter, sans-serif'" font-size="14" font-style="italic" lengthAdjust="spacing" textLength="51.5293" x="79.4548" y="1171.0293">&#171;CI/CD&#187;</text><path d="M56.036,1200.3307 L55.4527,1201.7191 C55.336,1201.7541 55.231,1201.8124 55.126,1201.8707 L53.7377,1201.2874 L52.8977,1202.1274 L53.481,1203.5157 C53.4227,1203.6324 53.376,1203.7257 53.3293,1203.8424 L51.941,1204.4257 L51.941,1205.5924 L53.3293,1206.1757 C53.376,1206.2924 53.4227,1206.3857 53.481,1206.5024 L52.8977,1207.8907 L53.7377,1208.7307 L55.126,1208.1474 C55.231,1208.1941 55.336,1208.2524 55.4527,1208.2991 L56.036,1209.6874 L57.2027,1209.6874 L57.786,1208.2991 C57.891,1208.2524 58.0077,1208.2057 58.1127,1208.1474 L59.501,1208.7307 L60.341,1207.8907 L59.7577,1206.5024 C59.8043,1206.3974 59.8627,1206.2807 59.9093,1206.1757 L61.2977,1205.5924 L61.2977,1204.4257 L59.9093,1203.8424 C59.8743,1203.7374 59.816,1203.6207 59.7577,1203.5157 L60.341,1202.1274 L59.501,1201.2874 L58.1127,1201.8707 C58.0077,1201.8241 57.891,1201.7657 57.786,1201.7191 L57.2027,1200.3307 L56.036,1200.3307 M56.6193,1203.2474 C57.5877,1203.2474 58.3693,1204.0291 58.3693,1204.9974 C58.3693,1205.9657 57.5877,1206.7474 56.6193,1206.7474 C55.651,1206.7474 54.8693,1205.9657 54.8693,1204.9974 C54.8693,1204.0291 55.651,1203.2474 56.6193,1203.2474" fill="#58A6FF"/><text fill="#E6EDF3" font-family="'Segoe UI, Inter, sans-serif'" font-size="14" lengthAdjust="spacing" textLength="93.3652" x="66.121" y="1209.6504">GitHub Actions</text></g><g class="entity" data-qualified-name="GITHUB.GMN4" data-source-line="28" id="ent0005"><path d="M45.4527,1022.9219 L45.4527,1070.1836 A6,6 0 0 0 51.4527,1076.1836 L106.4527,1076.1836 L110.4527,1125.9119 L114.4527,1076.1836 L169.1187,1076.1836 A6,6 0 0 0 175.1187,1070.1836 L175.1187,1026.9219 L165.1187,1016.9219 L51.4527,1016.9219 A6,6 0 0 0 45.4527,1022.9219" fill="#21262D" style="stroke:#F85149;stroke-width:0.5;"/><path d="M165.1187,1016.9219 L165.1187,1023.9219 A3,3 0 0 0 168.1187,1026.9219 L175.1187,1026.9219 L165.1187,1016.9219" fill="#21262D" style="stroke:#F85149;stroke-width:0.5;"/><text fill="#C9D1D9" font-family="'Segoe UI, Inter, sans-serif'" font-size="11" lengthAdjust="spacing" textLength="72.8374" x="61.4527" y="1043.792">Build, Lint, Test</text><text fill="#C9D1D9" font-family="'Segoe UI, Inter, sans-serif'" font-size="11" lengthAdjust="spacing" textLength="88.666" x="61.4527" y="1058.4229">(dotnet build/test)</text></g><!--entity AUTH_ENDP--><g class="entity" data-qualified-name="ClinicManagementAPI System.API.AUTH_ENDP" data-source-line="35" id="ent0009"><rect fill="#0D1117" height="107.2422" rx="6" ry="6" style="stroke:#58A6FF;stroke-width:1.5;" width="166.4691" x="421.9527" y="557.9219"/><rect fill="#0D1117" height="10" style="stroke:#58A6FF;stroke-width:1.5;" width="15" x="568.4217" y="562.9219"/><rect fill="#0D1117" height="2" style="stroke:#58A6FF;stroke-width:1.5;" width="4" x="566.4217" y="564.9219"/><rect fill="#0D1117" height="2" style="stroke:#58A6FF;stroke-width:1.5;" width="4" x="566.4217" y="568.9219"/><text fill="#E6EDF3" font-family="'Segoe UI, Inter, sans-serif'" font-size="14" font-style="italic" lengthAdjust="spacing" textLength="74.7236" x="462.8254" y="603.0293">&#171;Controller&#187;</text><path d="M452.6193,632.3307 L452.3977,632.4357 L448.3143,634.1507 L447.9527,634.3024 L447.9527,634.6641 C447.9527,636.6007 448.7343,638.3041 449.6677,639.5524 C450.1343,640.1707 450.636,640.6841 451.126,641.0457 C451.616,641.4074 452.0943,641.6641 452.6193,641.6641 C453.156,641.6641 453.6227,641.4074 454.1127,641.0457 C454.6027,640.6841 455.1043,640.1707 455.571,639.5524 C456.5043,638.3041 457.286,636.6007 457.286,634.6641 L457.286,634.3024 L456.9243,634.1507 L452.841,632.4357 L452.6193,632.3307 M452.6193,633.6024 L452.6193,640.4974 C452.5727,640.4974 452.2343,640.4157 451.8493,640.1357 C451.4643,639.8557 451.021,639.4007 450.6127,638.8641 C449.866,637.8724 449.2827,636.4957 449.1893,635.0374 L452.6193,633.6141" fill="#F85149"/><text fill="#E6EDF3" font-family="'Segoe UI, Inter, sans-serif'" font-size="14" lengthAdjust="spacing" textLength="91.3008" x="462.121" y="641.6504">AuthEndpoints</text></g><!--entity PAT_ENDP--><g class="entity" data-qualified-name="ClinicManagementAPI System.API.PAT_ENDP" data-source-line="36" id="ent0010"><rect fill="#0D1117" height="107.2422" rx="6" ry="6" style="stroke:#58A6FF;stroke-width:1.5;" width="179.9359" x="778.9527" y="713.9219"/><rect fill="#0D1117" height="10" style="stroke:#58A6FF;stroke-width:1.5;" width="15" x="938.8885" y="718.9219"/><rect fill="#0D1117" height="2" style="stroke:#58A6FF;stroke-width:1.5;" width="4" x="936.8885" y="720.9219"/><rect fill="#0D1117" height="2" style="stroke:#58A6FF;stroke-width:1.5;" width="4" x="936.8885" y="724.9219"/><text fill="#E6EDF3" font-family="'Segoe UI, Inter, sans-serif'" font-size="14" font-style="italic" lengthAdjust="spacing" textLength="74.7236" x="826.5588" y="759.0293">&#171;Controller&#187;</text><path d="M809.6193,788.3307 L809.3977,788.4357 L805.3143,790.1507 L804.9527,790.3024 L804.9527,790.6641 C804.9527,792.6007 805.7343,794.3041 806.6677,795.5524 C807.1343,796.1707 807.636,796.6841 808.126,797.0457 C808.616,797.4074 809.0943,797.6641 809.6193,797.6641 C810.156,797.6641 810.6227,797.4074 811.1127,797.0457 C811.6027,796.6841 812.1043,796.1707 812.571,795.5524 C813.5043,794.3041 814.286,792.6007 814.286,790.6641 L814.286,790.3024 L813.9243,790.1507 L809.841,788.4357 L809.6193,788.3307 M809.6193,789.6024 L809.6193,796.4974 C809.5727,796.4974 809.2343,796.4157 808.8493,796.1357 C808.4643,795.8557 808.021,795.4007 807.6127,794.8641 C806.866,793.8724 806.2827,792.4957 806.1893,791.0374 L809.6193,789.6141" fill="#F85149"/><text fill="#E6EDF3" font-family="'Segoe UI, Inter, sans-serif'" font-size="14" lengthAdjust="spacing" textLength="104.7676" x="819.121" y="797.6504">PatientEndpoints</text></g><!--entity USR_ENDP--><g class="entity" data-qualified-name="ClinicManagementAPI System.API.USR_ENDP" data-source-line="37" id="ent0011"><rect fill="#0D1117" height="107.2422" rx="6" ry="6" style="stroke:#58A6FF;stroke-width:1.5;" width="164.596" x="422.4527" y="871.9219"/><rect fill="#0D1117" height="10" style="stroke:#58A6FF;stroke-width:1.5;" width="15" x="567.0487" y="876.9219"/><rect fill="#0D1117" height="2" style="stroke:#58A6FF;stroke-width:1.5;" width="4" x="565.0487" y="878.9219"/><rect fill="#0D1117" height="2" style="stroke:#58A6FF;stroke-width:1.5;" width="4" x="565.0487" y="882.9219"/><text fill="#E6EDF3" font-family="'Segoe UI, Inter, sans-serif'" font-size="14" font-style="italic" lengthAdjust="spacing" textLength="74.7236" x="462.3889" y="917.0293">&#171;Controller&#187;</text><path d="M453.1193,946.3307 L452.8977,946.4357 L448.8143,948.1507 L448.4527,948.3024 L448.4527,948.6641 C448.4527,950.6007 449.2343,952.3041 450.1677,953.5524 C450.6343,954.1707 451.136,954.6841 451.626,955.0457 C452.116,955.4074 452.5943,955.6641 453.1193,955.6641 C453.656,955.6641 454.1227,955.4074 454.6127,955.0457 C455.1027,954.6841 455.6043,954.1707 456.071,953.5524 C457.0043,952.3041 457.786,950.6007 457.786,948.6641 L457.786,948.3024 L457.4243,948.1507 L453.341,946.4357 L453.1193,946.3307 M453.1193,947.6024 L453.1193,954.4974 C453.0727,954.4974 452.7343,954.4157 452.3493,954.1357 C451.9643,953.8557 451.521,953.4007 451.1127,952.8641 C450.366,951.8724 449.7827,950.4957 449.6893,949.0374 L453.1193,947.6141" fill="#F85149"/><text fill="#E6EDF3" font-family="'Segoe UI, Inter, sans-serif'" font-size="14" lengthAdjust="spacing" textLength="89.4277" x="462.621" y="955.6504">UserEndpoints</text></g><!--entity MW--><g class="entity" data-qualified-name="ClinicManagementAPI System.API.MW" data-source-line="38" id="ent0012"><rect fill="#0D1117" height="107.2422" rx="6" ry="6" style="stroke:#58A6FF;stroke-width:1.5;" width="167.6175" x="420.9527" y="714.9219"/><rect fill="#0D1117" height="10" style="stroke:#58A6FF;stroke-width:1.5;" width="15" x="568.5702" y="719.9219"/><rect fill="#0D1117" height="2" style="stroke:#58A6FF;stroke-width:1.5;" width="4" x="566.5702" y="721.9219"/><rect fill="#0D1117" height="2" style="stroke:#58A6FF;stroke-width:1.5;" width="4" x="566.5702" y="725.9219"/><text fill="#E6EDF3" font-family="'Segoe UI, Inter, sans-serif'" font-size="14" font-style="italic" lengthAdjust="spacing" textLength="84.54" x="457.4914" y="760.0293">&#171;Middleware&#187;</text><path d="M451.6193,789.3307 L451.3977,789.4357 L447.3143,791.1507 L446.9527,791.3024 L446.9527,791.6641 C446.9527,793.6007 447.7343,795.3041 448.6677,796.5524 C449.1343,797.1707 449.636,797.6841 450.126,798.0457 C450.616,798.4074 451.0943,798.6641 451.6193,798.6641 C452.156,798.6641 452.6227,798.4074 453.1127,798.0457 C453.6027,797.6841 454.1043,797.1707 454.571,796.5524 C455.5043,795.3041 456.286,793.6007 456.286,791.6641 L456.286,791.3024 L455.9243,791.1507 L451.841,789.4357 L451.6193,789.3307 M451.6193,790.6024 L451.6193,797.4974 C451.5727,797.4974 451.2343,797.4157 450.8493,797.1357 C450.4643,796.8557 450.021,796.4007 449.6127,795.8641 C448.866,794.8724 448.2827,793.4957 448.1893,792.0374 L451.6193,790.6141" fill="#F85149"/><text fill="#E6EDF3" font-family="'Segoe UI, Inter, sans-serif'" font-size="14" lengthAdjust="spacing" textLength="92.4492" x="461.121" y="798.6504">JwtMiddleware</text></g><!--entity FILT--><g class="entity" data-qualified-name="ClinicManagementAPI System.API.FILT" data-source-line="39" id="ent0013"><rect fill="#0D1117" height="107.2422" rx="6" ry="6" style="stroke:#58A6FF;stroke-width:1.5;" width="152.7773" x="428.4527" y="400.9219"/><rect fill="#0D1117" height="10" style="stroke:#58A6FF;stroke-width:1.5;" width="15" x="561.23" y="405.9219"/><rect fill="#0D1117" height="2" style="stroke:#58A6FF;stroke-width:1.5;" width="4" x="559.23" y="407.9219"/><rect fill="#0D1117" height="2" style="stroke:#58A6FF;stroke-width:1.5;" width="4" x="559.23" y="411.9219"/><text fill="#E6EDF3" font-family="'Segoe UI, Inter, sans-serif'" font-size="14" font-style="italic" lengthAdjust="spacing" textLength="83.2549" x="458.2139" y="446.0293">&#171;ActionFilter&#187;</text><text fill="#E6EDF3" font-family="'Segoe UI, Inter, sans-serif'" font-size="14" lengthAdjust="spacing" textLength="92.7773" x="453.4527" y="484.6504">ValidationFilter</text></g><!--entity AUTH_SVC--><g class="entity" data-qualified-name="ClinicManagementAPI System.CORE.AUTH_SVC" data-source-line="43" id="ent0015"><rect fill="#0D1117" height="107.2422" rx="6" ry="6" style="stroke:#58A6FF;stroke-width:1.5;" width="148.2992" x="1138.9527" y="646.9219"/><rect fill="#0D1117" height="10" style="stroke:#58A6FF;stroke-width:1.5;" width="15" x="1267.2518" y="651.9219"/><rect fill="#0D1117" height="2" style="stroke:#58A6FF;stroke-width:1.5;" width="4" x="1265.2518" y="653.9219"/><rect fill="#0D1117" height="2" style="stroke:#58A6FF;stroke-width:1.5;" width="4" x="1265.2518" y="657.9219"/><text fill="#E6EDF3" font-family="'Segoe UI, Inter, sans-serif'" font-size="14" font-style="italic" lengthAdjust="spacing" textLength="56.3076" x="1179.9484" y="692.0293">&#171;Service&#187;</text><path d="M1169.036,721.3307 L1168.4527,722.7191 C1168.336,722.7541 1168.231,722.8124 1168.126,722.8707 L1166.7377,722.2874 L1165.8977,723.1274 L1166.481,724.5157 C1166.4227,724.6324 1166.376,724.7257 1166.3293,724.8424 L1164.941,725.4257 L1164.941,726.5924 L1166.3293,727.1757 C1166.376,727.2924 1166.4227,727.3857 1166.481,727.5024 L1165.8977,728.8907 L1166.7377,729.7307 L1168.126,729.1474 C1168.231,729.1941 1168.336,729.2524 1168.4527,729.2991 L1169.036,730.6874 L1170.2027,730.6874 L1170.786,729.2991 C1170.891,729.2524 1171.0077,729.2057 1171.1127,729.1474 L1172.501,729.7307 L1173.341,728.8907 L1172.7577,727.5024 C1172.8043,727.3974 1172.8627,727.2807 1172.9093,727.1757 L1174.2977,726.5924 L1174.2977,725.4257 L1172.9093,724.8424 C1172.8743,724.7374 1172.816,724.6207 1172.7577,724.5157 L1173.341,723.1274 L1172.501,722.2874 L1171.1127,722.8707 C1171.0077,722.8241 1170.891,722.7657 1170.786,722.7191 L1170.2027,721.3307 L1169.036,721.3307 M1169.6193,724.2474 C1170.5877,724.2474 1171.3693,725.0291 1171.3693,725.9974 C1171.3693,726.9657 1170.5877,727.7474 1169.6193,727.7474 C1168.651,727.7474 1167.8693,726.9657 1167.8693,725.9974 C1167.8693,725.0291 1168.651,724.2474 1169.6193,724.2474" fill="#3FB950"/><text fill="#E6EDF3" font-family="'Segoe UI, Inter, sans-serif'" font-size="14" lengthAdjust="spacing" textLength="73.1309" x="1179.121" y="730.6504">AuthService</text></g><!--entity PAT_SVC--><g class="entity" data-qualified-name="ClinicManagementAPI System.CORE.PAT_SVC" data-source-line="44" id="ent0016"><rect fill="#0D1117" height="107.2422" rx="6" ry="6" style="stroke:#58A6FF;stroke-width:1.5;" width="161.766" x="1131.9527" y="384.9219"/><rect fill="#0D1117" height="10" style="stroke:#58A6FF;stroke-width:1.5;" width="15" x="1273.7186" y="389.9219"/><rect fill="#0D1117" height="2" style="stroke:#58A6FF;stroke-width:1.5;" width="4" x="1271.7186" y="391.9219"/><rect fill="#0D1117" height="2" style="stroke:#58A6FF;stroke-width:1.5;" width="4" x="1271.7186" y="395.9219"/><text fill="#E6EDF3" font-family="'Segoe UI, Inter, sans-serif'" font-size="14" font-style="italic" lengthAdjust="spacing" textLength="56.3076" x="1179.6818" y="430.0293">&#171;Service&#187;</text><path d="M1162.036,459.3307 L1161.4527,460.7191 C1161.336,460.7541 1161.231,460.8124 1161.126,460.8707 L1159.7377,460.2874 L1158.8977,461.1274 L1159.481,462.5157 C1159.4227,462.6324 1159.376,462.7257 1159.3293,462.8424 L1157.941,463.4257 L1157.941,464.5924 L1159.3293,465.1757 C1159.376,465.2924 1159.4227,465.3857 1159.481,465.5024 L1158.8977,466.8907 L1159.7377,467.7307 L1161.126,467.1474 C1161.231,467.1941 1161.336,467.2524 1161.4527,467.2991 L1162.036,468.6874 L1163.2027,468.6874 L1163.786,467.2991 C1163.891,467.2524 1164.0077,467.2057 1164.1127,467.1474 L1165.501,467.7307 L1166.341,466.8907 L1165.7577,465.5024 C1165.8043,465.3974 1165.8627,465.2807 1165.9093,465.1757 L1167.2977,464.5924 L1167.2977,463.4257 L1165.9093,462.8424 C1165.8743,462.7374 1165.816,462.6207 1165.7577,462.5157 L1166.341,461.1274 L1165.501,460.2874 L1164.1127,460.8707 C1164.0077,460.8241 1163.891,460.7657 1163.786,460.7191 L1163.2027,459.3307 L1162.036,459.3307 M1162.6193,462.2474 C1163.5877,462.2474 1164.3693,463.0291 1164.3693,463.9974 C1164.3693,464.9657 1163.5877,465.7474 1162.6193,465.7474 C1161.651,465.7474 1160.8693,464.9657 1160.8693,463.9974 C1160.8693,463.0291 1161.651,462.2474 1162.6193,462.2474" fill="#3FB950"/><text fill="#E6EDF3" font-family="'Segoe UI, Inter, sans-serif'" font-size="14" lengthAdjust="spacing" textLength="86.5977" x="1172.121" y="468.6504">PatientService</text></g><!--entity AUTH_INTF--><g class="entity" data-qualified-name="ClinicManagementAPI System.CORE.AUTH_INTF" data-source-line="45" id="ent0017"><ellipse cx="1212.9527" cy="849.4219" fill="#161B22" rx="8" ry="8" style="stroke:#A371F7;stroke-width:0.5;"/><text fill="#E6EDF3" font-family="'Segoe UI, Inter, sans-serif'" font-size="14" lengthAdjust="spacing" textLength="76.8564" x="1174.5244" y="891.5293">IAuthService</text><text fill="#E6EDF3" font-family="'Segoe UI, Inter, sans-serif'" font-size="14" font-style="italic" lengthAdjust="spacing" textLength="66.9375" x="1179.4839" y="818.9082">&#171;Interface&#187;</text></g><!--entity PAT_INTF--><g class="entity" data-qualified-name="ClinicManagementAPI System.CORE.PAT_INTF" data-source-line="46" id="ent0018"><ellipse cx="1212.9527" cy="587.4219" fill="#161B22" rx="8" ry="8" style="stroke:#A371F7;stroke-width:0.5;"/><text fill="#E6EDF3" font-family="'Segoe UI, Inter, sans-serif'" font-size="14" lengthAdjust="spacing" textLength="90.3232" x="1167.791" y="629.5293">IPatientService</text><text fill="#E6EDF3" font-family="'Segoe UI, Inter, sans-serif'" font-size="14" font-style="italic" lengthAdjust="spacing" textLength="66.9375" x="1179.4839" y="556.9082">&#171;Interface&#187;</text></g><!--entity DATA--><g class="entity" data-qualified-name="ClinicManagementAPI System.CORE.DATA_FOLDER.DATA" data-source-line="49" id="ent0020"><rect fill="#0D1117" height="107.2422" rx="6" ry="6" style="stroke:#58A6FF;stroke-width:1.5;" width="166.7357" x="1486.4527" y="687.9219"/><rect fill="#0D1117" height="10" style="stroke:#58A6FF;stroke-width:1.5;" width="15" x="1633.1883" y="692.9219"/><rect fill="#0D1117" height="2" style="stroke:#58A6FF;stroke-width:1.5;" width="4" x="1631.1883" y="694.9219"/><rect fill="#0D1117" height="2" style="stroke:#58A6FF;stroke-width:1.5;" width="4" x="1631.1883" y="698.9219"/><text fill="#E6EDF3" font-family="'Segoe UI, Inter, sans-serif'" font-size="14" font-style="italic" lengthAdjust="spacing" textLength="81.0469" x="1524.2971" y="733.0293">&#171;Persistence&#187;</text><path d="M1512.6743,762.3307 C1512.546,762.3307 1512.4527,762.4241 1512.4527,762.5524 L1512.4527,766.4141 C1512.4527,766.7407 1512.7093,766.9974 1513.036,766.9974 L1520.036,766.9974 C1520.3627,766.9974 1520.6193,766.7407 1520.6193,766.4141 L1520.6193,762.5524 C1520.6193,762.4241 1520.526,762.3307 1520.3977,762.3307 L1512.6627,762.3307 M1512.4527,768.0591 L1512.4527,771.4541 C1512.4527,771.5824 1512.546,771.6757 1512.6743,771.6757 L1520.4093,771.6757 C1520.5377,771.6757 1520.631,771.5824 1520.631,771.4541 L1520.631,768.0591 C1520.4443,768.1291 1520.2577,768.1641 1520.0477,768.1641 L1513.0477,768.1641 C1512.8377,768.1641 1512.651,768.1174 1512.4643,768.0591 M1518.8693,769.3307 C1519.196,769.3307 1519.4527,769.5874 1519.4527,769.9141 C1519.4527,770.2407 1519.196,770.4974 1518.8693,770.4974 C1518.5427,770.4974 1518.286,770.2407 1518.286,769.9141 C1518.286,769.5874 1518.5427,769.3307 1518.8693,769.3307" fill="#D29922"/><text fill="#E6EDF3" font-family="'Segoe UI, Inter, sans-serif'" font-size="14" lengthAdjust="spacing" textLength="91.5674" x="1526.621" y="771.6504">AppDbContext</text></g><!--entity DTO--><g class="entity" data-qualified-name="ClinicManagementAPI System.CORE.DATA_FOLDER.DTO" data-source-line="50" id="ent0021"><rect fill="#0D1117" height="68.6211" rx="6" ry="6" style="stroke:#58A6FF;stroke-width:1.5;" width="93.6465" x="1522.9527" y="449.9219"/><rect fill="#0D1117" height="10" style="stroke:#58A6FF;stroke-width:1.5;" width="15" x="1596.5991" y="454.9219"/><rect fill="#0D1117" height="2" style="stroke:#58A6FF;stroke-width:1.5;" width="4" x="1594.5991" y="456.9219"/><rect fill="#0D1117" height="2" style="stroke:#58A6FF;stroke-width:1.5;" width="4" x="1594.5991" y="460.9219"/><text fill="#E6EDF3" font-family="'Segoe UI, Inter, sans-serif'" font-size="14" lengthAdjust="spacing" textLength="33.6465" x="1547.9527" y="495.0293">DTOs</text></g><!--entity MOD--><g class="entity" data-qualified-name="ClinicManagementAPI System.CORE.DATA_FOLDER.MOD" data-source-line="51" id="ent0022"><rect fill="#0D1117" height="68.6211" rx="6" ry="6" style="stroke:#58A6FF;stroke-width:1.5;" width="105.6709" x="1516.9527" y="568.9219"/><rect fill="#0D1117" height="10" style="stroke:#58A6FF;stroke-width:1.5;" width="15" x="1602.6236" y="573.9219"/><rect fill="#0D1117" height="2" style="stroke:#58A6FF;stroke-width:1.5;" width="4" x="1600.6236" y="575.9219"/><rect fill="#0D1117" height="2" style="stroke:#58A6FF;stroke-width:1.5;" width="4" x="1600.6236" y="579.9219"/><text fill="#E6EDF3" font-family="'Segoe UI, Inter, sans-serif'" font-size="14" lengthAdjust="spacing" textLength="45.6709" x="1541.9527" y="614.0293">Models</text></g><!--entity UT--><g class="entity" data-qualified-name="ClinicManagementAPI System.TESTS.UT" data-source-line="56" id="ent0024"><rect fill="#0D1117" height="107.2422" rx="6" ry="6" style="stroke:#58A6FF;stroke-width:1.5;" width="120.792" x="1509.4527" y="1015.9219"/><rect fill="#0D1117" height="10" style="stroke:#58A6FF;stroke-width:1.5;" width="15" x="1610.2447" y="1020.9219"/><rect fill="#0D1117" height="2" style="stroke:#58A6FF;stroke-width:1.5;" width="4" x="1608.2447" y="1022.9219"/><rect fill="#0D1117" height="2" style="stroke:#58A6FF;stroke-width:1.5;" width="4" x="1608.2447" y="1026.9219"/><text fill="#E6EDF3" font-family="'Segoe UI, Inter, sans-serif'" font-size="14" font-style="italic" lengthAdjust="spacing" textLength="46.4297" x="1541.6338" y="1061.0293">&#171;xUnit&#187;</text><text fill="#E6EDF3" font-family="'Segoe UI, Inter, sans-serif'" font-size="14" lengthAdjust="spacing" textLength="60.792" x="1534.4527" y="1099.6504">Unit Tests</text></g><!--entity IT--><g class="entity" data-qualified-name="ClinicManagementAPI System.TESTS.IT" data-source-line="57" id="ent0025"><rect fill="#0D1117" height="107.2422" rx="6" ry="6" style="stroke:#58A6FF;stroke-width:1.5;" width="128.209" x="1505.9527" y="1172.9219"/><rect fill="#0D1117" height="10" style="stroke:#58A6FF;stroke-width:1.5;" width="15" x="1614.1616" y="1177.9219"/><rect fill="#0D1117" height="2" style="stroke:#58A6FF;stroke-width:1.5;" width="4" x="1612.1616" y="1179.9219"/><rect fill="#0D1117" height="2" style="stroke:#58A6FF;stroke-width:1.5;" width="4" x="1612.1616" y="1183.9219"/><text fill="#E6EDF3" font-family="'Segoe UI, Inter, sans-serif'" font-size="14" font-style="italic" lengthAdjust="spacing" textLength="46.4297" x="1541.8423" y="1218.0293">&#171;xUnit&#187;</text><text fill="#E6EDF3" font-family="'Segoe UI, Inter, sans-serif'" font-size="14" lengthAdjust="spacing" textLength="68.209" x="1530.9527" y="1256.6504">Integration</text></g><!--entity DB--><g class="entity" data-qualified-name="External Infrastructure.DB" data-source-line="63" id="ent0027"><path d="M1927.4527,790.4219 C1927.4527,780.4219 1988.5056,780.4219 1988.5056,780.4219 C1988.5056,780.4219 2049.5585,780.4219 2049.5585,790.4219 L2049.5585,876.6641 C2049.5585,886.6641 1988.5056,886.6641 1988.5056,886.6641 C1988.5056,886.6641 1927.4527,886.6641 1927.4527,876.6641 L1927.4527,790.4219" fill="#0D1117" style="stroke:#D29922;stroke-width:0.5;"/><path d="M1927.4527,790.4219 C1927.4527,800.4219 1988.5056,800.4219 1988.5056,800.4219 C1988.5056,800.4219 2049.5585,800.4219 2049.5585,790.4219" fill="none" style="stroke:#D29922;stroke-width:0.5;"/><text fill="#E6EDF3" font-family="'Segoe UI, Inter, sans-serif'" font-size="14" font-style="italic" lengthAdjust="spacing" textLength="71.5859" x="1952.7126" y="829.5293">&#171;Database&#187;</text><path d="M1948.6743,858.8307 C1948.546,858.8307 1948.4527,858.9241 1948.4527,859.0524 L1948.4527,862.9141 C1948.4527,863.2407 1948.7093,863.4974 1949.036,863.4974 L1956.036,863.4974 C1956.3627,863.4974 1956.6193,863.2407 1956.6193,862.9141 L1956.6193,859.0524 C1956.6193,858.9241 1956.526,858.8307 1956.3977,858.8307 L1948.6627,858.8307 M1948.4527,864.5591 L1948.4527,867.9541 C1948.4527,868.0824 1948.546,868.1757 1948.6743,868.1757 L1956.4093,868.1757 C1956.5377,868.1757 1956.631,868.0824 1956.631,867.9541 L1956.631,864.5591 C1956.4443,864.6291 1956.2577,864.6641 1956.0477,864.6641 L1949.0477,864.6641 C1948.8377,864.6641 1948.651,864.6174 1948.4643,864.5591 M1954.8693,865.8307 C1955.196,865.8307 1955.4527,866.0874 1955.4527,866.4141 C1955.4527,866.7407 1955.196,866.9974 1954.8693,866.9974 C1954.5427,866.9974 1954.286,866.7407 1954.286,866.4141 C1954.286,866.0874 1954.5427,865.8307 1954.8693,865.8307" fill="#D29922"/><text fill="#E6EDF3" font-family="'Segoe UI, Inter, sans-serif'" font-size="14" lengthAdjust="spacing" textLength="66.9375" x="1962.621" y="868.1504">SQL Server</text></g><!--entity IDENTITY--><g class="entity" data-qualified-name="External Infrastructure.IDENTITY" data-source-line="64" id="ent0028"><rect fill="#0D1117" height="125.8633" rx="6" ry="6" style="stroke:#58A6FF;stroke-width:1.5;" width="160.2962" x="1908.4527" y="604.4219"/><rect fill="#0D1117" height="10" style="stroke:#58A6FF;stroke-width:1.5;" width="15" x="2048.7489" y="609.4219"/><rect fill="#0D1117" height="2" style="stroke:#58A6FF;stroke-width:1.5;" width="4" x="2046.7489" y="611.4219"/><rect fill="#0D1117" height="2" style="stroke:#58A6FF;stroke-width:1.5;" width="4" x="2046.7489" y="615.4219"/><text fill="#E6EDF3" font-family="'Segoe UI, Inter, sans-serif'" font-size="14" font-style="italic" lengthAdjust="spacing" textLength="64.9961" x="1951.1027" y="649.5293">&#171;Package&#187;</text><path d="M1939.1193,678.8307 L1938.8977,678.9357 L1934.8143,680.6507 L1934.4527,680.8024 L1934.4527,681.1641 C1934.4527,683.1007 1935.2343,684.8041 1936.1677,686.0524 C1936.6343,686.6707 1937.136,687.1841 1937.626,687.5457 C1938.116,687.9074 1938.5943,688.1641 1939.1193,688.1641 C1939.656,688.1641 1940.1227,687.9074 1940.6127,687.5457 C1941.1027,687.1841 1941.6043,686.6707 1942.071,686.0524 C1943.0043,684.8041 1943.786,683.1007 1943.786,681.1641 L1943.786,680.8024 L1943.4243,680.6507 L1939.341,678.9357 L1939.1193,678.8307 M1939.1193,680.1024 L1939.1193,686.9974 C1939.0727,686.9974 1938.7343,686.9157 1938.3493,686.6357 C1937.9643,686.3557 1937.521,685.9007 1937.1127,685.3641 C1936.366,684.3724 1935.7827,682.9957 1935.6893,681.5374 L1939.1193,680.1141" fill="#A371F7"/><text fill="#E6EDF3" font-family="'Segoe UI, Inter, sans-serif'" font-size="14" lengthAdjust="spacing" textLength="85.1279" x="1948.621" y="688.1504">ASP.NET Core</text><text fill="#E6EDF3" font-family="'Segoe UI, Inter, sans-serif'" font-size="14" lengthAdjust="spacing" textLength="46.8672" x="1933.4527" y="706.7715">Identity</text></g><!--entity CLIENT--><g class="entity" data-qualified-name="CLIENT" data-source-line="68" id="ent0029"><ellipse cx="505.1846" cy="115.9219" fill="#3FB950" rx="16" ry="16" style="stroke:#3FB950;stroke-width:0.5;"/><path d="M505.1846,135.9219 C509.1846,135.9219 512.1846,135.9219 516.1846,131.9219 C524.1846,131.9219 532.1846,139.9219 532.1846,147.9219 L532.1846,151.9219 C532.1846,155.9219 528.1846,159.9219 524.1846,159.9219 L486.1846,159.9219 C482.1846,159.9219 478.1846,155.9219 478.1846,151.9219 L478.1846,147.9219 C478.1846,139.9219 486.1846,131.9219 494.1846,131.9219 C498.1846,135.9219 501.1846,135.9219 505.1846,135.9219" fill="#3FB950"/><text fill="#0D1117" font-family="'Segoe UI, Inter, sans-serif'" font-size="14" lengthAdjust="spacing" textLength="116.4639" x="446.9527" y="185.5293">Web/Mobile Client</text></g><!--link CI to API--><g class="link" data-entity-1="ent0003" data-entity-2="ent0008" data-link-type="dependency" data-source-line="73" id="lnk30"><path d="M195.1727,1147.4319 C251.9077,1125.7469 327.5952,1096.8194 389.8352,1073.0319 C420.9552,1061.1381 448.7133,1050.5294 469.0595,1042.7534 C474.1461,1040.8095 473.1648,1041.1845 477.2616,1039.6188" fill="none" id="CI-to-API" style="stroke:#39C5CF;stroke-width:1.5;"/><polygon fill="#39C5CF" points="482.8662,1037.4768,473.0313,1036.9533,478.1957,1039.2618,475.8872,1044.4262,482.8662,1037.4768" style="stroke:#39C5CF;stroke-width:1.5;"/><text fill="#C9D1D9" font-family="'Segoe UI, Inter, sans-serif'" font-size="12" lengthAdjust="spacing" textLength="73.9629" x="251.2398" y="1076.3711">(1) Deploys to</text></g><!--link CI to TESTS--><g class="link" data-entity-1="ent0003" data-entity-2="ent0023" data-link-type="dependency" data-source-line="74" id="lnk31"><path d="M194.9927,1212.1919 C273.4827,1240.0019 394.8727,1275.4219 503.9527,1275.4219 C503.9527,1275.4219 503.9527,1275.4219 1213.9527,1275.4219 C1292.5377,1275.4219 1379.7627,1288.7444 1448.0864,1302.2756 C1456.6269,1303.967 1464.872,1305.6617 1472.768,1307.334 C1474.742,1307.7521 1476.6942,1308.1688 1478.6237,1308.5837 C1479.5885,1308.7911 1474.6836,1307.7279 1475.6369,1307.9344" fill="none" id="CI-to-TESTS" style="stroke:#3FB950;stroke-width:1.5;"/><polygon fill="#3FB950" points="1481.5009,1309.2046,1473.5517,1303.39,1476.6142,1308.1461,1471.8581,1311.2087,1481.5009,1309.2046" style="stroke:#3FB950;stroke-width:1.5;"/><text fill="#C9D1D9" font-family="'Segoe UI, Inter, sans-serif'" font-size="12" lengthAdjust="spacing" textLength="62.6191" x="837.7398" y="1262.3711">(2) Executes</text></g><!--link CLIENT to PAT_ENDP--><g class="link" data-entity-1="ent0029" data-entity-2="ent0010" data-link-type="dependency" data-source-line="77" id="lnk32"><path d="M526.2827,199.4919 C566.7127,296.1219 663.3627,513.0119 778.9527,674.4219 C788.5827,687.8719 795.9923,696.9222 807.4723,709.2422" fill="none" id="CLIENT-to-PAT_ENDP" style="stroke:#58A6FF;stroke-width:1.5;"/><polygon fill="#58A6FF" points="811.5627,713.6319,808.3536,704.3205,808.154,709.9738,802.5007,709.7743,811.5627,713.6319" style="stroke:#58A6FF;stroke-width:1.5;"/><text fill="#C9D1D9" font-family="'Segoe UI, Inter, sans-serif'" font-size="12" lengthAdjust="spacing" textLength="88.4824" x="639.7398" y="384.3711">(3) Patient CRUD</text></g><!--link CLIENT to AUTH_ENDP--><g class="link" data-entity-1="ent0029" data-entity-2="ent0009" data-link-type="dependency" data-source-line="78" id="lnk33"><path d="M436.7727,194.0519 C380.9227,235.0619 305.9327,301.4319 272.9527,380.9219 C237.4327,466.5319 336.1839,534.0331 416.2939,573.6331" fill="none" id="CLIENT-to-AUTH_ENDP" style="stroke:#58A6FF;stroke-width:1.5;"/><polygon fill="#58A6FF" points="421.6727,576.2919,415.3771,568.7178,417.1904,574.0762,411.832,575.8895,421.6727,576.2919" style="stroke:#58A6FF;stroke-width:1.5;"/><text fill="#C9D1D9" font-family="'Segoe UI, Inter, sans-serif'" font-size="12" lengthAdjust="spacing" textLength="93.5098" x="241.2398" y="404.8711">(4) Auth Requests</text></g><!--link CLIENT to USR_ENDP--><g class="link" data-entity-1="ent0029" data-entity-2="ent0011" data-link-type="dependency" data-source-line="79" id="lnk34"><path d="M436.9027,165.4119 C384.1327,181.7819 314.5127,212.9819 280.9527,268.9219 C214.3627,379.9219 282.7927,740.3319 356.9527,846.4219 C372.8927,869.2219 392.1457,883.3598 416.7757,895.4398" fill="none" id="CLIENT-to-USR_ENDP" style="stroke:#58A6FF;stroke-width:1.5;"/><polygon fill="#58A6FF" points="422.1627,898.0819,415.8436,890.5274,417.6735,895.8801,412.3208,897.7101,422.1627,898.0819" style="stroke:#58A6FF;stroke-width:1.5;"/><text fill="#C9D1D9" font-family="'Segoe UI, Inter, sans-serif'" font-size="12" lengthAdjust="spacing" textLength="78.3633" x="249.2398" y="292.8711">(5) Assign Role</text></g><!--link MW to PAT_ENDP--><g class="link" data-entity-1="ent0012" data-entity-2="ent0010" data-link-type="dependency" data-source-line="82" id="lnk35"><path d="M589.0027,768.1919 C645.6727,768.0319 714.6827,767.8484 772.6427,767.6884" fill="none" id="MW-to-PAT_ENDP" style="stroke:#58A6FF;stroke-width:1.5;"/><polygon fill="#58A6FF" points="778.6427,767.6719,769.6317,763.6967,773.6427,767.6857,769.6537,771.6967,778.6427,767.6719" style="stroke:#58A6FF;stroke-width:1.5;"/><text fill="#C9D1D9" font-family="'Segoe UI, Inter, sans-serif'" font-size="12" lengthAdjust="spacing" textLength="112.2422" x="628.2398" y="755.3711">(6) JWT + Role Check</text></g><!--link FILT to DTO--><g class="link" data-entity-1="ent0013" data-entity-2="ent0021" data-link-type="dependency" data-source-line="83" id="lnk36"><path d="M581.7027,423.5219 C747.5727,360.8119 1152.2227,235.0619 1454.4527,364.4219 C1494.8227,381.7019 1524.3207,416.0465 1544.3207,444.9765" fill="none" id="FILT-to-DTO" style="stroke:#58A6FF;stroke-width:1.5;"/><polygon fill="#58A6FF" points="1547.7327,449.9119,1545.905,440.2341,1544.8893,445.799,1539.3244,444.7834,1547.7327,449.9119" style="stroke:#58A6FF;stroke-width:1.5;"/><text fill="#C9D1D9" font-family="'Segoe UI, Inter, sans-serif'" font-size="12" lengthAdjust="spacing" textLength="64.9746" x="1021.2398" y="296.3711">(7) Validates</text></g><!--link PAT_ENDP to PAT_INTF--><g class="link" data-entity-1="ent0010" data-entity-2="ent0018" data-link-type="dependency" data-source-line="86" id="lnk37"><path d="M946.9827,713.7719 C992.3627,683.8219 1051.7427,647.4119 1107.9527,621.4219 C1142.2627,605.5519 1180.2508,595.2632 1198.0608,590.8232" fill="none" id="PAT_ENDP-to-PAT_INTF" style="stroke:#58A6FF;stroke-width:1.5;"/><polygon fill="#58A6FF" points="1203.8827,589.3719,1194.1824,587.6677,1199.0312,590.5813,1196.1175,595.4301,1203.8827,589.3719" style="stroke:#58A6FF;stroke-width:1.5;"/><text fill="#C9D1D9" font-family="'Segoe UI, Inter, sans-serif'" font-size="12" lengthAdjust="spacing" textLength="50.8652" x="1028.2398" y="615.3711">(8) Injects</text></g><!--reverse link PAT_INTF to PAT_SVC--><g class="link" data-entity-1="ent0018" data-entity-2="ent0016" data-link-type="extension" data-source-line="87" id="lnk39"><path d="M1212.9527,560.1019 C1212.9527,543.0919 1212.9527,523.8319 1212.9527,492.0819" fill="none" id="PAT_INTF-backto-PAT_SVC" style="stroke:#3FB950;stroke-width:1.5;stroke-dasharray:7,7;"/><polygon fill="none" points="1212.9527,578.1019,1218.9527,560.1019,1206.9527,560.1019,1212.9527,578.1019" style="stroke:#3FB950;stroke-width:1.5;"/><text fill="#C9D1D9" font-family="'Segoe UI, Inter, sans-serif'" font-size="12" lengthAdjust="spacing" textLength="79.3242" x="1152.2398" y="540.6211">(9) Implements</text></g><!--link AUTH_ENDP to AUTH_INTF--><g class="link" data-entity-1="ent0009" data-entity-2="ent0017" data-link-type="dependency" data-source-line="90" id="lnk40"><path d="M588.0127,581.3719 C716.1327,540.3519 963.1427,485.9219 1099.9527,617.4219 C1112.8627,629.8319 1099.2027,762.7919 1107.9527,778.4219 C1129.8627,817.5219 1177.7141,837.5368 1198.1641,844.7468" fill="none" id="AUTH_ENDP-to-AUTH_INTF" style="stroke:#58A6FF;stroke-width:1.5;"/><polygon fill="#58A6FF" points="1203.8227,846.7419,1196.6648,839.9769,1199.1072,845.0793,1194.0047,847.5217,1203.8227,846.7419" style="stroke:#58A6FF;stroke-width:1.5;"/><text fill="#C9D1D9" font-family="'Segoe UI, Inter, sans-serif'" font-size="12" lengthAdjust="spacing" textLength="57.334" x="840.7398" y="522.3711">(10) Injects</text></g><!--link USR_ENDP to AUTH_INTF--><g class="link" data-entity-1="ent0011" data-entity-2="ent0017" data-link-type="dependency" data-source-line="91" id="lnk41"><path d="M587.6927,919.9719 C685.6227,913.0519 854.5927,899.8819 998.9527,882.4219 C1079.1927,872.7219 1169.7556,856.9438 1197.9456,851.9238" fill="none" id="USR_ENDP-to-AUTH_INTF" style="stroke:#58A6FF;stroke-width:1.5;"/><polygon fill="#58A6FF" points="1203.8527,850.8719,1194.2908,848.5117,1198.9301,851.7485,1195.6933,856.3878,1203.8527,850.8719" style="stroke:#58A6FF;stroke-width:1.5;"/><text fill="#C9D1D9" font-family="'Segoe UI, Inter, sans-serif'" font-size="12" lengthAdjust="spacing" textLength="57.334" x="840.7398" y="869.3711">(11) Injects</text></g><!--reverse link AUTH_INTF to AUTH_SVC--><g class="link" data-entity-1="ent0017" data-entity-2="ent0015" data-link-type="extension" data-source-line="92" id="lnk43"><path d="M1212.9527,822.1019 C1212.9527,805.0919 1212.9527,785.8319 1212.9527,754.0819" fill="none" id="AUTH_INTF-backto-AUTH_SVC" style="stroke:#3FB950;stroke-width:1.5;stroke-dasharray:7,7;"/><polygon fill="none" points="1212.9527,840.1019,1218.9527,822.1019,1206.9527,822.1019,1212.9527,840.1019" style="stroke:#3FB950;stroke-width:1.5;"/><text fill="#C9D1D9" font-family="'Segoe UI, Inter, sans-serif'" font-size="12" lengthAdjust="spacing" textLength="85.793" x="1148.7398" y="802.6211">(12) Implements</text></g><!--link PAT_SVC to DATA--><g class="link" data-entity-1="ent0016" data-entity-2="ent0020" data-link-type="dependency" data-source-line="95" id="lnk44"><path d="M1256.7827,491.9419 C1271.2727,510.9219 1287.1427,532.7219 1300.4527,553.4219 C1313.0327,572.9919 1309.2527,582.7219 1325.4527,599.4219 C1370.9527,646.3119 1429.7941,680.3352 1480.8741,704.6252" fill="none" id="PAT_SVC-to-DATA" style="stroke:#3FB950;stroke-width:1.5;"/><polygon fill="#3FB950" points="1486.2927,707.2019,1479.8826,699.7245,1481.7772,705.0546,1476.447,706.9492,1486.2927,707.2019" style="stroke:#3FB950;stroke-width:1.5;"/><text fill="#C9D1D9" font-family="'Segoe UI, Inter, sans-serif'" font-size="12" lengthAdjust="spacing" textLength="80.9297" x="1349.7398" y="586.3711">(13) Persists via</text></g><!--link PAT_SVC to MOD--><g class="link" data-entity-1="ent0016" data-entity-2="ent0022" data-link-type="dependency" data-source-line="96" id="lnk45"><path d="M1294.0627,475.6519 C1362.2627,507.3519 1452.8015,549.4434 1511.4415,576.6934" fill="none" id="PAT_SVC-to-MOD" style="stroke:#3FB950;stroke-width:1.5;"/><polygon fill="#3FB950" points="1516.8827,579.2219,1510.4066,571.8016,1512.3483,577.1148,1507.0352,579.0566,1516.8827,579.2219" style="stroke:#3FB950;stroke-width:1.5;"/><text fill="#C9D1D9" font-family="'Segoe UI, Inter, sans-serif'" font-size="12" lengthAdjust="spacing" textLength="88.3359" x="1346.2398" y="479.3711">(14) Manipulates</text></g><!--link DATA to DB--><g class="link" data-entity-1="ent0020" data-entity-2="ent0027" data-link-type="dependency" data-source-line="97" id="lnk46"><path d="M1653.7327,759.7119 C1734.5127,777.5519 1849.5838,802.9681 1921.5438,818.8581" fill="none" id="DATA-to-DB" style="stroke:#A371F7;stroke-width:1.5;"/><polygon fill="#A371F7" points="1927.4027,820.1519,1919.4769,814.3054,1922.5203,819.0738,1917.7519,822.1172,1927.4027,820.1519" style="stroke:#A371F7;stroke-width:1.5;"/><text fill="#C9D1D9" font-family="'Segoe UI, Inter, sans-serif'" font-size="12" lengthAdjust="spacing" textLength="79.8164" x="1752.2398" y="766.3711">(15) EF Core 10</text></g><!--link DATA to IDENTITY--><g class="link" data-entity-1="ent0020" data-entity-2="ent0028" data-link-type="dependency" data-source-line="98" id="lnk47"><path d="M1653.7327,726.7119 C1727.7527,713.5619 1829.5752,695.4717 1902.4452,682.5217" fill="none" id="DATA-to-IDENTITY" style="stroke:#A371F7;stroke-width:1.5;"/><polygon fill="#A371F7" points="1908.3527,681.4719,1898.7916,679.1083,1903.4298,682.3467,1900.1914,686.9849,1908.3527,681.4719" style="stroke:#A371F7;stroke-width:1.5;"/><text fill="#C9D1D9" font-family="'Segoe UI, Inter, sans-serif'" font-size="12" lengthAdjust="spacing" textLength="88.6406" x="1747.7398" y="681.3711">(16) Stores Users</text></g><!--reverse link PAT_SVC to UT--><g class="link" data-entity-1="ent0016" data-entity-2="ent0024" data-link-type="dependency" data-source-line="101" id="lnk49"><path d="M1266.9894,496.9356 C1281.1794,515.1556 1291.5227,531.7019 1300.4527,553.4219 C1331.8227,629.7519 1294.5427,660.9019 1325.4527,737.4219 C1349.6527,797.3219 1461.0627,938.1419 1524.4727,1015.7519" fill="none" id="PAT_SVC-backto-UT" style="stroke:#F85149;stroke-width:1.5;stroke-dasharray:7,7;"/><polygon fill="#F85149" points="1263.3027,492.2019,1265.6769,501.7603,1266.3749,496.1467,1271.9885,496.8447,1263.3027,492.2019" style="stroke:#F85149;stroke-width:1.5;"/><text fill="#C9D1D9" font-family="'Segoe UI, Inter, sans-serif'" font-size="12" lengthAdjust="spacing" textLength="100.8633" x="1339.7398" y="724.3711">(17) Mocks &amp; Tests</text></g><!--reverse link PAT_ENDP to IT--><g class="link" data-entity-1="ent0010" data-entity-2="ent0025" data-link-type="dependency" data-source-line="102" id="lnk51"><path d="M964.4896,813.3788 C978.0196,820.6388 986.3727,825.5519 998.9527,833.4219 C1050.3527,865.5719 1058.5827,880.2319 1107.9527,915.4219 C1247.8927,1015.1619 1416.1027,1126.5619 1505.6127,1185.1819" fill="none" id="PAT_ENDP-backto-IT" style="stroke:#F85149;stroke-width:1.5;stroke-dasharray:7,7;"/><polygon fill="#F85149" points="959.2027,810.5419,965.2418,818.3219,963.6085,812.906,969.0244,811.2726,959.2027,810.5419" style="stroke:#F85149;stroke-width:1.5;"/><text fill="#C9D1D9" font-family="'Segoe UI, Inter, sans-serif'" font-size="12" lengthAdjust="spacing" textLength="146.6953" x="1139.7398" y="902.3711">(18) WebApplicationFactory</text></g><g class="footer" data-source-line="18"><text fill="#E6EDF3" font-family="'Segoe UI, Inter, sans-serif'" font-size="10" lengthAdjust="spacing" textLength="177.0166" x="968.218" y="1397.2129">Sprint 3 &#8212; Patients CRUD + Assign Role</text></g><?plantuml-src hLTjRzf84FxEhvWIgGsw6Z0K4g8KYM3JK452WsbrQb5ax0MsCLwVlKx2tKMwJ_S3JlSB-qjkTjSsxzTUh_tGLkkTPsQUUNPcU07Qz_t9lO0EzSWPE6mHC9_ul1Z42m-Flnzm48S1YmW0d44xXOKlV_mDey2rEN6X5Jfpoed3uv300-Lp6DYSYbljcv41ps4KaH3wjc_Fo0AF4RHdB_489AZ1d0YEH_rU0J-qOZvdeVhGPtDx8V0zYb_Q8P7Un9TAkLBNobLDVuKVXa58qPVyK9M19UuZvVydk64UqIPs9B0aFlqLRp3_V_2IU-QIAVK9Z8RcRNiqjAxxjzQbsJTppwZlUB5Be5WiESoVqbafuakFg4haEEKUsI9oYouHxcQWcnGV9nbN2pdCuFNhrt19R9U4fGvZ76d5aznSda3RepvrrhY7uJBYP07Q9kJrFGdlANd8JHL4wc4ldQqeeZDVXfa6WFLaCO8Jpga_YsG87fbou0n2EfjpS6c8lWJfqHtr0pkq5-0pbqGaW5fvxJ2q_RlaC04t7p4at_PAxMuY707lU2ns8N_kC8-5PqTctJGwrURvStdUF2_9yoQyeVmode3fi4XcdWSxWZTTwt9q0KTwNR-eLE2td51FzcPMeBNJLhtJ4Q1ijWFPakb44X0ZEp_7lqjj0vfDE2eRkgwVI5WV2OK9uvmjW4tnpXbSnDHpNq8FANu95edu9__OPTmd72RYKudZMI7tb1BG2WAFEae9IVq40u7jt65P8Q-gl2foQz1DxkNJK3176KrcivFYX3skKcm550OX-umbW-FYbMc1NYx8J0KsfghgWAagxWxmrpcjwQyQ21xDAV7MgYBKRVfkm902nM1hP5tUcbV6G1B9V1uopvCklij1ejbD7uEMzGDTYAwsYJyQtln0_BSFl4zTroCFTaWaVl-3G5uT7a1-RtlKbMh1OO1FHzfskZrBM2lLgW-f_TD_qaQReUVzucXVtvZVhevgvw9HAs-_BY6DeUX63ba9O_Y-BN2JywymkXytKSGwjD33OMGiAmcdDXxcktk3wbvP7M7RpIuUi3xWUgzz1Z1bdkZWUSFcjZGnMbRhjdFTCyoRDLuFS61K6erA1JcOsw6hkI6z9-klEp0cGg3aaMVG8f812IEAVSFVp6NBXs5TAxtZVmxTwMDhzzIj_hMHtNhQgpVH0gDKKjB6CeVMyEjA6lcKomQQl3-fy4TvkbyYWkfPAD-6jEZkMZoj-cxNduPsnCDO3SdLx1632_BfNDgwbz-QA_WKRR5yV6DnXkzwKet9kpKkH8H6Yf44kQVYhUg9tZdPrsk70_b8nRlzv7TTjA9ygT8tp2khQ_qiQvzK0pra10n2dCy-LvD7fN-SPbsGJDWEntKj_u5CIdqseMAryOJMLJleTH4_1RiXdWJ2-0Ar8U27ZxfM6OlnEVNOGmx_rJuULHljMhipTjc3hpNbm3c3F1ph1J18uB5b9BQAV7fPFlRqijADl5ufuE90d1XdALuMhgfQROnH_1AZOC34zhp4PMlLB7CgN06g6jzORYw8ciqD2LmjR2vi-SE6gw4cBLyLP7TBOuZ-pJIR9TAoLbZVkf9ywjh9U7qQF0VLrgCS3eeLOaBDPXBr0hpzO2MxCRJdnBb3L3aaTYpncIkZaq9ALyRfgTOOPtHaqn2-_FbNsb9pcUEz8SacAD5F2_YGH0SGs6bhBcOL5kjayVTjemOQBG9FhZrfJ7fPq_MnfBeaVthiZsjLd9t0LkrTAQ-y7bfMcQ-QwUjcsHpRJMdRhh8lAVorKn_BHe25NclK6LKxZq5sTOKeDAjC8hYdzXh1ErROhXCZb2lkb3I8lQJW4X0DLAl9t5mazr6aPaUj1tfvztggxApfA2jKuX1x23eGjShIFT7qqp6yYr5lV2d47-CF0ymMUpmIg9QcSHmKczaKLt2eqJvpxY8aoKhUM7UloUejwAWyR61hMtP7jhKbslu3?></g></svg>