<?plantuml 1.2026.2?><svg xmlns="http://www.w3.org/2000/svg" xmlns:xlink="http://www.w3.org/1999/xlink" contentStyleType="text/css" data-diagram-type="CLASS" height="1993px" preserveAspectRatio="none" style="width:1207px;height:1993px;background:#0D1117;" version="1.1" viewBox="0 0 1207 1993" width="1207px" zoomAndPan="magnify"><title>ERD &#8212; Database Schema (Sprint 3)</title><defs/><g><rect fill="#0D1117" height="1993" style="stroke:none;stroke-width:1;" width="1207" x="0" y="0"/><g class="header" data-source-line="17"><text fill="#E6EDF3" font-family="'Segoe UI, Inter, sans-serif'" font-size="10" lengthAdjust="spacing" textLength="203.3496" x="980.6118" y="20.791">Clinic Management System - Database Design</text></g><g class="title" data-source-line="14"><text fill="#E6EDF3" font-family="'Segoe UI, Inter, sans-serif'" font-size="14" font-weight="bold" lengthAdjust="spacing" textLength="230.3232" x="481.8191" y="69.4082">ERD &#8212; Database Schema (Sprint 3)</text></g><!--cluster Patient Management--><g class="cluster" data-qualified-name="Patient Management" data-source-line="26" id="ent0002"><path d="M12,99.9219 L184.1797,99.9219 A9,9 0 0 1 190.1797,105.9219 L197.1797,147.2031 L376,147.2031 A6,6 0 0 1 382,153.2031 L382,752.9219 A6,6 0 0 1 376,758.9219 L12,758.9219 A6,6 0 0 1 6,752.9219 L6,105.9219 A6,6 0 0 1 12,99.9219" fill="#0D1117" style="stroke:#30363D;stroke-width:1.5;"/><line style="stroke:#30363D;stroke-width:1.5;" x1="6" x2="197.1797" y1="147.2031" y2="147.2031"/><text fill="#58A6FF" font-family="'Segoe UI, Inter, sans-serif'" font-size="16" font-weight="bold" lengthAdjust="spacing" textLength="158.1797" x="20" y="129.1875">Patient Management</text></g><!--cluster ASP--><g class="cluster" data-qualified-name="ASP" data-source-line="49" id="ent0006"><path d="M26,843.9219 L70.0469,843.9219 A9,9 0 0 1 76.0469,849.9219 L83.0469,891.2031 L702,891.2031 A6,6 0 0 1 708,897.2031 L708,1939.9219 A6,6 0 0 1 702,1945.9219 L26,1945.9219 A6,6 0 0 1 20,1939.9219 L20,849.9219 A6,6 0 0 1 26,843.9219" fill="#161B22" style="stroke:#30363D;stroke-width:1.5;"/><line style="stroke:#30363D;stroke-width:1.5;" x1="20" x2="83.0469" y1="891.2031" y2="891.2031"/><text fill="#58A6FF" font-family="'Segoe UI, Inter, sans-serif'" font-size="16" font-weight="bold" lengthAdjust="spacing" textLength="30.0469" x="34" y="873.1875">ASP</text></g><!--cluster NET Core Identity--><g class="cluster" data-qualified-name="ASP.NET Core Identity" data-source-line="47" id="ent0004"><path d="M50,911.9219 L197.0703,911.9219 A9,9 0 0 1 203.0703,917.9219 L210.0703,959.2031 L678,959.2031 A6,6 0 0 1 684,965.2031 L684,1915.9219 A6,6 0 0 1 678,1921.9219 L50,1921.9219 A6,6 0 0 1 44,1915.9219 L44,917.9219 A6,6 0 0 1 50,911.9219" fill="#161B22" style="stroke:#30363D;stroke-width:1.5;"/><line style="stroke:#30363D;stroke-width:1.5;" x1="44" x2="210.0703" y1="959.2031" y2="959.2031"/><text fill="#58A6FF" font-family="'Segoe UI, Inter, sans-serif'" font-size="16" font-weight="bold" lengthAdjust="spacing" textLength="133.0703" x="58" y="941.1875">NET Core Identity</text></g><!--class PATIENTS--><g class="entity" data-qualified-name="Patient Management.PATIENTS" data-source-line="28" id="ent0003"><rect fill="#161B22" height="582.6953" rx="6" ry="6" style="stroke:#A371F7;stroke-width:0.5;" width="343.3818" x="22.5" y="159.9219"/><ellipse cx="148.0931" cy="203.543" fill="#ADD1B2" rx="10" ry="10" style="stroke:#181818;stroke-width:1;"/><path d="M147.3587,204.0898 L147.3587,206.1367 L150.9368,206.1367 L150.9368,205.3867 Q150.9368,204.8711 151.1243,204.668 Q151.3275,204.4492 151.64,204.4492 Q151.9368,204.4492 152.1243,204.668 Q152.3275,204.8711 152.3275,205.3867 L152.3275,207.543 L145.7337,207.543 Q145.2337,207.543 145.015,207.3555 Q144.7962,207.1523 144.7962,206.8398 Q144.7962,206.5273 145.015,206.3398 Q145.2337,206.1367 145.7337,206.1367 L145.9525,206.1367 L145.9525,200.6523 L145.7337,200.6523 Q145.2337,200.6523 145.015,200.4648 Q144.7962,200.2617 144.7962,199.9492 Q144.7962,199.6367 145.015,199.4492 Q145.2337,199.2461 145.7337,199.2461 L152.0306,199.2617 L152.0306,201.3867 Q152.0306,201.8867 151.8275,202.1055 Q151.64,202.3242 151.3275,202.3242 Q151.015,202.3242 150.8118,202.1211 Q150.6243,201.9023 150.6243,201.3867 L150.6243,200.6523 L147.3587,200.6523 L147.3587,202.6836 L148.5931,202.6836 Q148.5931,202.1367 148.6868,201.9805 Q148.9056,201.6367 149.2962,201.6367 Q149.5931,201.6367 149.7806,201.8555 Q149.9837,202.0742 149.9837,202.5742 L149.9837,204.1992 Q149.9837,204.6523 149.8743,204.8086 Q149.6556,205.1367 149.2962,205.1367 Q148.9056,205.1367 148.6868,204.793 Q148.5931,204.6367 148.5931,204.0898 L147.3587,204.0898 Z " fill="#E6EDF3"/><text fill="#E6EDF3" font-family="Segoe UI, Inter, sans-serif" font-size="14" font-style="italic" lengthAdjust="spacing" textLength="47.373" x="185.5044" y="190.0293">&#171;Table&#187;</text><path d="M180.4264,219.3307 L180.4264,221.6641 L178.0931,221.6641 L178.0931,226.3307 L180.4264,226.3307 L180.4264,228.6641 L185.0931,228.6641 L185.0931,226.3307 L187.4264,226.3307 L187.4264,221.6641 L185.0931,221.6641 L185.0931,219.3307 L180.4264,219.3307" fill="#58A6FF"/><text fill="#C9D1D9" font-family="'Segoe UI, Inter, sans-serif'" font-size="14" lengthAdjust="spacing" textLength="49.0273" x="192.2614" y="228.6504">Patients</text><line style="stroke:#A371F7;stroke-width:0.5;" x1="23.5" x2="364.8818" y1="247.1641" y2="247.1641"/><g data-visibility-modifier="IE_MANDATORY"><ellipse cx="33.5" cy="271.9746" fill="#000000" rx="3" ry="3" style="stroke:#000000;stroke-width:1;"/></g><text fill="#C9D1D9" font-family="'Segoe UI, Inter, sans-serif'" font-size="14" font-weight="bold" lengthAdjust="spacing" textLength="13.1045" x="51.5" y="276.2715">Id</text><text fill="#C9D1D9" font-family="'Segoe UI, Inter, sans-serif'" font-size="14" lengthAdjust="spacing" textLength="110.626" x="68.4395" y="276.2715">: int &#171;PK, Identity&#187;</text><line style="stroke:#A371F7;stroke-width:1;" x1="23.5" x2="364.8818" y1="293.7852" y2="293.7852"/><g data-visibility-modifier="IE_MANDATORY"><ellipse cx="33.5" cy="318.5957" fill="#000000" rx="3" ry="3" style="stroke:#000000;stroke-width:1;"/></g><text fill="#C9D1D9" font-family="'Segoe UI, Inter, sans-serif'" font-size="14" lengthAdjust="spacing" textLength="153.3096" x="51.5" y="322.8926">FullName : nvarchar(100)</text><g data-visibility-modifier="IE_MANDATORY"><ellipse cx="33.5" cy="357.2168" fill="#000000" rx="3" ry="3" style="stroke:#000000;stroke-width:1;"/></g><text fill="#C9D1D9" font-family="'Segoe UI, Inter, sans-serif'" font-size="14" lengthAdjust="spacing" textLength="298.3818" x="51.5" y="361.5137">Email : nvarchar(450) &#171;UK, Filtered: IsDeleted=0&#187;</text><g data-visibility-modifier="IE_MANDATORY"><ellipse cx="33.5" cy="395.8379" fill="#000000" rx="3" ry="3" style="stroke:#000000;stroke-width:1;"/></g><text fill="#C9D1D9" font-family="'Segoe UI, Inter, sans-serif'" font-size="14" lengthAdjust="spacing" textLength="136.9717" x="51.5" y="400.1348">Phone : nvarchar(max)</text><g data-visibility-modifier="IE_MANDATORY"><ellipse cx="33.5" cy="434.459" fill="#000000" rx="3" ry="3" style="stroke:#000000;stroke-width:1;"/></g><text fill="#C9D1D9" font-family="'Segoe UI, Inter, sans-serif'" font-size="14" lengthAdjust="spacing" textLength="111.0293" x="51.5" y="438.7559">DateOfBirth : date</text><g data-visibility-modifier="IE_MANDATORY"><ellipse cx="33.5" cy="473.0801" fill="#000000" rx="3" ry="3" style="stroke:#000000;stroke-width:1;"/></g><text fill="#C9D1D9" font-family="'Segoe UI, Inter, sans-serif'" font-size="14" lengthAdjust="spacing" textLength="125.2686" x="51.5" y="477.377">Gender : int &#171;enum&#187;</text><text fill="#C9D1D9" font-family="'Segoe UI, Inter, sans-serif'" font-size="14" lengthAdjust="spacing" textLength="211.0732" x="51.5" y="515.998">Address : nvarchar(250) &#171;nullable&#187;</text><g data-visibility-modifier="IE_MANDATORY"><ellipse cx="33.5" cy="550.3223" fill="#000000" rx="3" ry="3" style="stroke:#000000;stroke-width:1;"/></g><text fill="#C9D1D9" font-family="'Segoe UI, Inter, sans-serif'" font-size="14" lengthAdjust="spacing" textLength="135.2627" x="51.5" y="554.6191">CreatedAt : datetime2</text><text fill="#C9D1D9" font-family="'Segoe UI, Inter, sans-serif'" font-size="14" lengthAdjust="spacing" textLength="207.1904" x="51.5" y="593.2402">UpdatedAt : datetime2 &#171;nullable&#187;</text><line style="stroke:#A371F7;stroke-width:1;" x1="23.5" x2="364.8818" y1="610.7539" y2="610.7539"/><text fill="#C9D1D9" font-family="'Segoe UI, Inter, sans-serif'" font-size="14" lengthAdjust="spacing" textLength="223.0293" x="38.5" y="639.8613">UserId : nvarchar(450) &#171;FK, nullable&#187;</text><line style="stroke:#A371F7;stroke-width:1;" x1="23.5" x2="364.8818" y1="657.375" y2="657.375"/><g data-visibility-modifier="IE_MANDATORY"><ellipse cx="33.5" cy="682.1855" fill="#000000" rx="3" ry="3" style="stroke:#000000;stroke-width:1;"/></g><text fill="#C9D1D9" font-family="'Segoe UI, Inter, sans-serif'" font-size="14" lengthAdjust="spacing" textLength="160.4395" x="51.5" y="686.4824">IsDeleted : bit &#171;default: 0&#187;</text><text fill="#C9D1D9" font-family="'Segoe UI, Inter, sans-serif'" font-size="14" lengthAdjust="spacing" textLength="201.8242" x="51.5" y="725.1035">DeletedAt : datetime2 &#171;nullable&#187;</text></g><!--class USERS--><g class="entity" data-qualified-name="ASP.NET Core Identity.USERS" data-source-line="49" id="ent0005"><rect fill="#161B22" height="478.1426" rx="6" ry="6" style="stroke:#A371F7;stroke-width:0.5;" width="266.9355" x="60.5" y="971.9219"/><ellipse cx="132.6702" cy="1015.543" fill="#ADD1B2" rx="10" ry="10" style="stroke:#181818;stroke-width:1;"/><path d="M131.9359,1016.0898 L131.9359,1018.1367 L135.514,1018.1367 L135.514,1017.3867 Q135.514,1016.8711 135.7015,1016.668 Q135.9046,1016.4492 136.2171,1016.4492 Q136.514,1016.4492 136.7015,1016.668 Q136.9046,1016.8711 136.9046,1017.3867 L136.9046,1019.543 L130.3109,1019.543 Q129.8109,1019.543 129.5921,1019.3555 Q129.3734,1019.1523 129.3734,1018.8398 Q129.3734,1018.5273 129.5921,1018.3398 Q129.8109,1018.1367 130.3109,1018.1367 L130.5296,1018.1367 L130.5296,1012.6523 L130.3109,1012.6523 Q129.8109,1012.6523 129.5921,1012.4648 Q129.3734,1012.2617 129.3734,1011.9492 Q129.3734,1011.6367 129.5921,1011.4492 Q129.8109,1011.2461 130.3109,1011.2461 L136.6077,1011.2617 L136.6077,1013.3867 Q136.6077,1013.8867 136.4046,1014.1055 Q136.2171,1014.3242 135.9046,1014.3242 Q135.5921,1014.3242 135.389,1014.1211 Q135.2015,1013.9023 135.2015,1013.3867 L135.2015,1012.6523 L131.9359,1012.6523 L131.9359,1014.6836 L133.1702,1014.6836 Q133.1702,1014.1367 133.264,1013.9805 Q133.4827,1013.6367 133.8734,1013.6367 Q134.1702,1013.6367 134.3577,1013.8555 Q134.5609,1014.0742 134.5609,1014.5742 L134.5609,1016.1992 Q134.5609,1016.6523 134.4515,1016.8086 Q134.2327,1017.1367 133.8734,1017.1367 Q133.4827,1017.1367 133.264,1016.793 Q133.1702,1016.6367 133.1702,1016.0898 L131.9359,1016.0898 Z " fill="#E6EDF3"/><text fill="#E6EDF3" font-family="Segoe UI, Inter, sans-serif" font-size="14" font-style="italic" lengthAdjust="spacing" textLength="47.373" x="185.2813" y="1002.0293">&#171;Table&#187;</text><path d="M167.3369,1031.3307 C166.0536,1031.3307 165.0036,1032.6374 165.0036,1034.2474 C165.0036,1035.8574 166.0536,1037.1641 167.3369,1037.1641 C168.6202,1037.1641 169.6702,1035.8574 169.6702,1034.2474 C169.6702,1032.6374 168.6202,1031.3307 167.3369,1031.3307 M164.8986,1037.1641 C163.6619,1037.2224 162.6702,1038.2374 162.6702,1039.4974 L162.6702,1040.6641 L172.0036,1040.6641 L172.0036,1039.4974 C172.0036,1038.2374 171.0236,1037.2224 169.7752,1037.1641 C169.1452,1037.8757 168.2819,1038.3307 167.3369,1038.3307 C166.3919,1038.3307 165.5286,1037.8757 164.8986,1037.1641" fill="#3FB950"/><text fill="#C9D1D9" font-family="'Segoe UI, Inter, sans-serif'" font-size="14" lengthAdjust="spacing" textLength="79.4268" x="176.8385" y="1040.6504">AspNetUsers</text><line style="stroke:#A371F7;stroke-width:0.5;" x1="61.5" x2="326.4355" y1="1059.1641" y2="1059.1641"/><g data-visibility-modifier="IE_MANDATORY"><ellipse cx="71.5" cy="1083.9746" fill="#000000" rx="3" ry="3" style="stroke:#000000;stroke-width:1;"/></g><text fill="#C9D1D9" font-family="'Segoe UI, Inter, sans-serif'" font-size="14" font-weight="bold" lengthAdjust="spacing" textLength="13.1045" x="89.5" y="1088.2715">Id</text><text fill="#C9D1D9" font-family="'Segoe UI, Inter, sans-serif'" font-size="14" lengthAdjust="spacing" textLength="124.9199" x="106.4395" y="1088.2715">: nvarchar(450) &#171;PK&#187;</text><line style="stroke:#A371F7;stroke-width:1;" x1="61.5" x2="326.4355" y1="1105.7852" y2="1105.7852"/><g data-visibility-modifier="IE_MANDATORY"><ellipse cx="71.5" cy="1130.5957" fill="#000000" rx="3" ry="3" style="stroke:#000000;stroke-width:1;"/></g><text fill="#C9D1D9" font-family="'Segoe UI, Inter, sans-serif'" font-size="14" lengthAdjust="spacing" textLength="156.2764" x="89.5" y="1134.8926">FullName : nvarchar(max)</text><g data-visibility-modifier="IE_MANDATORY"><ellipse cx="71.5" cy="1169.2168" fill="#000000" rx="3" ry="3" style="stroke:#000000;stroke-width:1;"/></g><text fill="#C9D1D9" font-family="'Segoe UI, Inter, sans-serif'" font-size="14" lengthAdjust="spacing" textLength="190.2578" x="89.5" y="1173.5137">Email : nvarchar(256) &#171;Unique&#187;</text><g data-visibility-modifier="IE_MANDATORY"><ellipse cx="71.5" cy="1207.8379" fill="#000000" rx="3" ry="3" style="stroke:#000000;stroke-width:1;"/></g><text fill="#C9D1D9" font-family="'Segoe UI, Inter, sans-serif'" font-size="14" lengthAdjust="spacing" textLength="221.9355" x="89.5" y="1212.1348">UserName : nvarchar(256) &#171;Unique&#187;</text><g data-visibility-modifier="IE_MANDATORY"><ellipse cx="71.5" cy="1246.459" fill="#000000" rx="3" ry="3" style="stroke:#000000;stroke-width:1;"/></g><text fill="#C9D1D9" font-family="'Segoe UI, Inter, sans-serif'" font-size="14" lengthAdjust="spacing" textLength="186.9629" x="89.5" y="1250.7559">PasswordHash : nvarchar(max)</text><g data-visibility-modifier="IE_MANDATORY"><ellipse cx="71.5" cy="1285.0801" fill="#000000" rx="3" ry="3" style="stroke:#000000;stroke-width:1;"/></g><text fill="#C9D1D9" font-family="'Segoe UI, Inter, sans-serif'" font-size="14" lengthAdjust="spacing" textLength="135.2627" x="89.5" y="1289.377">CreatedAt : datetime2</text><text fill="#C9D1D9" font-family="'Segoe UI, Inter, sans-serif'" font-size="14" lengthAdjust="spacing" textLength="186.2793" x="89.5" y="1327.998">SecurityStamp : nvarchar(max)</text><text fill="#C9D1D9" font-family="'Segoe UI, Inter, sans-serif'" font-size="14" lengthAdjust="spacing" textLength="214.7578" x="89.5" y="1366.6191">ConcurrencyStamp : nvarchar(max)</text><line style="stroke:#A371F7;stroke-width:1;" x1="61.5" x2="326.4355" y1="1384.1328" y2="1384.1328"/><line style="stroke:#A371F7;stroke-width:1;stroke-dasharray:1,2;" x1="61.5" x2="107.3472" y1="1411.4434" y2="1411.4434"/><text fill="#C9D1D9" font-family="'Segoe UI, Inter, sans-serif'" font-size="14" lengthAdjust="spacing" textLength="153.2412" x="117.3472" y="1416.7402">. other Identity columns .</text><line style="stroke:#A371F7;stroke-width:1;stroke-dasharray:1,2;" x1="280.5884" x2="326.4355" y1="1411.4434" y2="1411.4434"/></g><!--class ROLES--><g class="entity" data-qualified-name="ASP.NET Core Identity.ROLES" data-source-line="63" id="ent0007"><rect fill="#161B22" height="257.7266" rx="6" ry="6" style="stroke:#A371F7;stroke-width:0.5;" width="259.7578" x="408" y="1081.9219"/><ellipse cx="476.8104" cy="1125.543" fill="#ADD1B2" rx="10" ry="10" style="stroke:#181818;stroke-width:1;"/><path d="M476.076,1126.0898 L476.076,1128.1367 L479.6541,1128.1367 L479.6541,1127.3867 Q479.6541,1126.8711 479.8416,1126.668 Q480.0448,1126.4492 480.3573,1126.4492 Q480.6541,1126.4492 480.8416,1126.668 Q481.0448,1126.8711 481.0448,1127.3867 L481.0448,1129.543 L474.451,1129.543 Q473.951,1129.543 473.7323,1129.3555 Q473.5135,1129.1523 473.5135,1128.8398 Q473.5135,1128.5273 473.7323,1128.3398 Q473.951,1128.1367 474.451,1128.1367 L474.6698,1128.1367 L474.6698,1122.6523 L474.451,1122.6523 Q473.951,1122.6523 473.7323,1122.4648 Q473.5135,1122.2617 473.5135,1121.9492 Q473.5135,1121.6367 473.7323,1121.4492 Q473.951,1121.2461 474.451,1121.2461 L480.7479,1121.2617 L480.7479,1123.3867 Q480.7479,1123.8867 480.5448,1124.1055 Q480.3573,1124.3242 480.0448,1124.3242 Q479.7323,1124.3242 479.5291,1124.1211 Q479.3416,1123.9023 479.3416,1123.3867 L479.3416,1122.6523 L476.076,1122.6523 L476.076,1124.6836 L477.3104,1124.6836 Q477.3104,1124.1367 477.4041,1123.9805 Q477.6229,1123.6367 478.0135,1123.6367 Q478.3104,1123.6367 478.4979,1123.8555 Q478.701,1124.0742 478.701,1124.5742 L478.701,1126.1992 Q478.701,1126.6523 478.5916,1126.8086 Q478.3729,1127.1367 478.0135,1127.1367 Q477.6229,1127.1367 477.4041,1126.793 Q477.3104,1126.6367 477.3104,1126.0898 L476.076,1126.0898 Z " fill="#E6EDF3"/><text fill="#E6EDF3" font-family="Segoe UI, Inter, sans-serif" font-size="14" font-style="italic" lengthAdjust="spacing" textLength="47.373" x="529.1924" y="1112.0293">&#171;Table&#187;</text><path d="M511.4771,1141.3307 L511.2554,1141.4357 L507.1721,1143.1507 L506.8104,1143.3024 L506.8104,1143.6641 C506.8104,1145.6007 507.5921,1147.3041 508.5254,1148.5524 C508.9921,1149.1707 509.4937,1149.6841 509.9837,1150.0457 C510.4737,1150.4074 510.9521,1150.6641 511.4771,1150.6641 C512.0137,1150.6641 512.4804,1150.4074 512.9704,1150.0457 C513.4604,1149.6841 513.9621,1149.1707 514.4287,1148.5524 C515.3621,1147.3041 516.1437,1145.6007 516.1437,1143.6641 L516.1437,1143.3024 L515.7821,1143.1507 L511.6987,1141.4357 L511.4771,1141.3307 M511.4771,1142.6024 L511.4771,1149.4974 C511.4304,1149.4974 511.0921,1149.4157 510.7071,1149.1357 C510.3221,1148.8557 509.8787,1148.4007 509.4704,1147.8641 C508.7237,1146.8724 508.1404,1145.4957 508.0471,1144.0374 L511.4771,1142.6141" fill="#A371F7"/><text fill="#C9D1D9" font-family="'Segoe UI, Inter, sans-serif'" font-size="14" lengthAdjust="spacing" textLength="78.9688" x="520.9787" y="1150.6504">AspNetRoles</text><line style="stroke:#A371F7;stroke-width:0.5;" x1="409" x2="666.7578" y1="1169.1641" y2="1169.1641"/><g data-visibility-modifier="IE_MANDATORY"><ellipse cx="419" cy="1193.9746" fill="#000000" rx="3" ry="3" style="stroke:#000000;stroke-width:1;"/></g><text fill="#C9D1D9" font-family="'Segoe UI, Inter, sans-serif'" font-size="14" font-weight="bold" lengthAdjust="spacing" textLength="13.1045" x="437" y="1198.2715">Id</text><text fill="#C9D1D9" font-family="'Segoe UI, Inter, sans-serif'" font-size="14" lengthAdjust="spacing" textLength="124.9199" x="453.9395" y="1198.2715">: nvarchar(450) &#171;PK&#187;</text><line style="stroke:#A371F7;stroke-width:1;" x1="409" x2="666.7578" y1="1215.7852" y2="1215.7852"/><g data-visibility-modifier="IE_MANDATORY"><ellipse cx="419" cy="1240.5957" fill="#000000" rx="3" ry="3" style="stroke:#000000;stroke-width:1;"/></g><text fill="#C9D1D9" font-family="'Segoe UI, Inter, sans-serif'" font-size="14" lengthAdjust="spacing" textLength="194.1885" x="437" y="1244.8926">Name : nvarchar(256) &#171;Unique&#187;</text><text fill="#C9D1D9" font-family="'Segoe UI, Inter, sans-serif'" font-size="14" lengthAdjust="spacing" textLength="203.1709" x="437" y="1283.5137">NormalizedName : nvarchar(256)</text><text fill="#C9D1D9" font-family="'Segoe UI, Inter, sans-serif'" font-size="14" lengthAdjust="spacing" textLength="214.7578" x="437" y="1322.1348">ConcurrencyStamp : nvarchar(max)</text></g><!--class USER_ROLES--><g class="entity" data-qualified-name="ASP.NET Core Identity.USER_ROLES" data-source-line="71" id="ent0008"><rect fill="#161B22" height="180.4844" rx="6" ry="6" style="stroke:#A371F7;stroke-width:0.5;" width="238.1152" x="406" y="1644.4219"/><ellipse cx="450.1156" cy="1688.043" fill="#ADD1B2" rx="10" ry="10" style="stroke:#181818;stroke-width:1;"/><path d="M449.3812,1688.5898 L449.3812,1690.6367 L452.9593,1690.6367 L452.9593,1689.8867 Q452.9593,1689.3711 453.1468,1689.168 Q453.3499,1688.9492 453.6624,1688.9492 Q453.9593,1688.9492 454.1468,1689.168 Q454.3499,1689.3711 454.3499,1689.8867 L454.3499,1692.043 L447.7562,1692.043 Q447.2562,1692.043 447.0374,1691.8555 Q446.8187,1691.6523 446.8187,1691.3398 Q446.8187,1691.0273 447.0374,1690.8398 Q447.2562,1690.6367 447.7562,1690.6367 L447.9749,1690.6367 L447.9749,1685.1523 L447.7562,1685.1523 Q447.2562,1685.1523 447.0374,1684.9648 Q446.8187,1684.7617 446.8187,1684.4492 Q446.8187,1684.1367 447.0374,1683.9492 Q447.2562,1683.7461 447.7562,1683.7461 L454.0531,1683.7617 L454.0531,1685.8867 Q454.0531,1686.3867 453.8499,1686.6055 Q453.6624,1686.8242 453.3499,1686.8242 Q453.0374,1686.8242 452.8343,1686.6211 Q452.6468,1686.4023 452.6468,1685.8867 L452.6468,1685.1523 L449.3812,1685.1523 L449.3812,1687.1836 L450.6156,1687.1836 Q450.6156,1686.6367 450.7093,1686.4805 Q450.9281,1686.1367 451.3187,1686.1367 Q451.6156,1686.1367 451.8031,1686.3555 Q452.0062,1686.5742 452.0062,1687.0742 L452.0062,1688.6992 Q452.0062,1689.1523 451.8968,1689.3086 Q451.6781,1689.6367 451.3187,1689.6367 Q450.9281,1689.6367 450.7093,1689.293 Q450.6156,1689.1367 450.6156,1688.5898 L449.3812,1688.5898 Z " fill="#E6EDF3"/><text fill="#E6EDF3" font-family="Segoe UI, Inter, sans-serif" font-size="14" font-style="italic" lengthAdjust="spacing" textLength="64.5381" x="507.7886" y="1674.5293">&#171;Junction&#187;</text><path d="M486.9756,1703.8657 C486.7656,1703.8774 486.5556,1703.9007 486.3572,1703.9707 C486.0422,1704.0874 485.7389,1704.2624 485.4822,1704.5191 A0.5833,0.5833 0 1 0 486.2872,1705.3241 C486.4156,1705.1957 486.5672,1705.1257 486.7306,1705.0674 C487.1389,1704.9274 487.6406,1704.9857 487.9672,1705.3241 C488.4222,1705.7791 488.4222,1706.5374 487.9672,1707.0041 L486.2172,1708.7541 C485.7039,1709.2674 485.2839,1709.3141 484.9806,1709.3024 C484.6772,1709.2907 484.5022,1709.1507 484.5022,1709.1507 A0.5833,0.5833 0 1 0 483.9189,1710.1774 C484.3156,1710.4341 484.3156,1710.4341 484.8989,1710.4691 C485.4822,1710.5041 486.2989,1710.2824 487.0106,1709.5591 L488.7606,1707.8091 C489.6706,1706.8991 489.6706,1705.4291 488.7606,1704.5307 C488.4339,1704.2041 488.0489,1704.0057 487.6289,1703.9124 C487.4189,1703.8657 487.1856,1703.8657 486.9756,1703.8774 M484.6422,1706.5607 C484.0589,1706.5374 483.2539,1706.7357 482.5656,1707.4357 L480.8156,1709.1857 C479.9056,1710.0957 479.9056,1711.5657 480.8156,1712.4641 C481.4689,1713.1174 482.4022,1713.3041 483.2189,1713.0124 C483.5339,1712.8957 483.8372,1712.7207 484.0939,1712.4641 A0.5833,0.5833 0 1 0 483.2889,1711.6591 C483.1606,1711.7874 483.0089,1711.8574 482.8456,1711.9157 C482.4372,1712.0557 481.9356,1711.9974 481.6089,1711.6591 C481.1539,1711.2041 481.1539,1710.4457 481.6089,1709.9791 L483.3589,1708.2291 C483.8256,1707.7624 484.2339,1707.7041 484.5606,1707.7157 C484.8872,1707.7274 485.1089,1707.8207 485.1089,1707.8207 A0.5833,0.5833 0 1 0 485.6222,1706.7941 C485.2256,1706.5607 485.2256,1706.5607 484.6422,1706.5374" fill="#D29922"/><text fill="#C9D1D9" font-family="'Segoe UI, Inter, sans-serif'" font-size="14" lengthAdjust="spacing" textLength="106.7158" x="494.2839" y="1713.1504">AspNetUserRoles</text><line style="stroke:#A371F7;stroke-width:0.5;" x1="407" x2="643.1152" y1="1731.6641" y2="1731.6641"/><line style="stroke:#A371F7;stroke-width:0.5;" x1="407" x2="643.1152" y1="1739.6641" y2="1739.6641"/><g data-visibility-modifier="IE_MANDATORY"><ellipse cx="417" cy="1764.4746" fill="#000000" rx="3" ry="3" style="stroke:#000000;stroke-width:1;"/></g><text fill="#C9D1D9" font-family="'Segoe UI, Inter, sans-serif'" font-size="14" font-weight="bold" lengthAdjust="spacing" textLength="42.5332" x="435" y="1768.7715">UserId</text><text fill="#C9D1D9" font-family="'Segoe UI, Inter, sans-serif'" font-size="14" lengthAdjust="spacing" textLength="146.7471" x="481.3682" y="1768.7715">: nvarchar(450) &#171;PK, FK&#187;</text><g data-visibility-modifier="IE_MANDATORY"><ellipse cx="417" cy="1803.0957" fill="#000000" rx="3" ry="3" style="stroke:#000000;stroke-width:1;"/></g><text fill="#C9D1D9" font-family="'Segoe UI, Inter, sans-serif'" font-size="14" font-weight="bold" lengthAdjust="spacing" textLength="42.3555" x="435" y="1807.3926">RoleId</text><text fill="#C9D1D9" font-family="'Segoe UI, Inter, sans-serif'" font-size="14" lengthAdjust="spacing" textLength="146.7471" x="481.1904" y="1807.3926">: nvarchar(450) &#171;PK, FK&#187;</text></g><!--class TOKENS--><g class="entity" data-qualified-name="ASP.NET Core Identity.TOKENS" data-source-line="76" id="ent0009"><rect fill="#161B22" height="342.9688" rx="6" ry="6" style="stroke:#A371F7;stroke-width:0.5;" width="212.4668" x="76" y="1562.9219"/><ellipse cx="115.8696" cy="1606.543" fill="#ADD1B2" rx="10" ry="10" style="stroke:#181818;stroke-width:1;"/><path d="M115.1352,1607.0898 L115.1352,1609.1367 L118.7133,1609.1367 L118.7133,1608.3867 Q118.7133,1607.8711 118.9008,1607.668 Q119.104,1607.4492 119.4165,1607.4492 Q119.7133,1607.4492 119.9008,1607.668 Q120.104,1607.8711 120.104,1608.3867 L120.104,1610.543 L113.5102,1610.543 Q113.0102,1610.543 112.7915,1610.3555 Q112.5727,1610.1523 112.5727,1609.8398 Q112.5727,1609.5273 112.7915,1609.3398 Q113.0102,1609.1367 113.5102,1609.1367 L113.729,1609.1367 L113.729,1603.6523 L113.5102,1603.6523 Q113.0102,1603.6523 112.7915,1603.4648 Q112.5727,1603.2617 112.5727,1602.9492 Q112.5727,1602.6367 112.7915,1602.4492 Q113.0102,1602.2461 113.5102,1602.2461 L119.8071,1602.2617 L119.8071,1604.3867 Q119.8071,1604.8867 119.604,1605.1055 Q119.4165,1605.3242 119.104,1605.3242 Q118.7915,1605.3242 118.5883,1605.1211 Q118.4008,1604.9023 118.4008,1604.3867 L118.4008,1603.6523 L115.1352,1603.6523 L115.1352,1605.6836 L116.3696,1605.6836 Q116.3696,1605.1367 116.4633,1604.9805 Q116.6821,1604.6367 117.0727,1604.6367 Q117.3696,1604.6367 117.5571,1604.8555 Q117.7602,1605.0742 117.7602,1605.5742 L117.7602,1607.1992 Q117.7602,1607.6523 117.6508,1607.8086 Q117.4321,1608.1367 117.0727,1608.1367 Q116.6821,1608.1367 116.4633,1607.793 Q116.3696,1607.6367 116.3696,1607.0898 L115.1352,1607.0898 Z " fill="#E6EDF3"/><text fill="#E6EDF3" font-family="Segoe UI, Inter, sans-serif" font-size="14" font-style="italic" lengthAdjust="spacing" textLength="47.373" x="173.4213" y="1593.0293">&#171;Table&#187;</text><path d="M152.035,1622.3307 C150.425,1622.3307 149.1184,1623.6374 149.1184,1625.2474 C149.1184,1625.4341 149.1184,1625.6207 149.1534,1625.7957 L145.6184,1629.3307 L145.6184,1631.6641 L149.1184,1631.6641 L149.1184,1629.3307 L151.4517,1629.3307 L151.4517,1628.1641 L151.4867,1628.1291 C151.6617,1628.1641 151.8484,1628.1641 152.035,1628.1641 C153.645,1628.1641 154.9517,1626.8574 154.9517,1625.2474 C154.9517,1623.6374 153.645,1622.3307 152.035,1622.3307 M152.6184,1623.4974 C153.26,1623.4974 153.785,1624.0224 153.785,1624.6641 C153.785,1625.3057 153.26,1625.8307 152.6184,1625.8307 C151.9767,1625.8307 151.4517,1625.3057 151.4517,1624.6641 C151.4517,1624.0224 151.9767,1623.4974 152.6184,1623.4974" fill="#D29922"/><text fill="#C9D1D9" font-family="'Segoe UI, Inter, sans-serif'" font-size="14" lengthAdjust="spacing" textLength="89.8105" x="159.7867" y="1631.6504">RefreshTokens</text><line style="stroke:#A371F7;stroke-width:0.5;" x1="77" x2="287.4668" y1="1650.1641" y2="1650.1641"/><g data-visibility-modifier="IE_MANDATORY"><ellipse cx="87" cy="1674.9746" fill="#000000" rx="3" ry="3" style="stroke:#000000;stroke-width:1;"/></g><text fill="#C9D1D9" font-family="'Segoe UI, Inter, sans-serif'" font-size="14" font-weight="bold" lengthAdjust="spacing" textLength="13.1045" x="105" y="1679.2715">Id</text><text fill="#C9D1D9" font-family="'Segoe UI, Inter, sans-serif'" font-size="14" lengthAdjust="spacing" textLength="110.626" x="121.9395" y="1679.2715">: int &#171;PK, Identity&#187;</text><line style="stroke:#A371F7;stroke-width:1;" x1="77" x2="287.4668" y1="1696.7852" y2="1696.7852"/><g data-visibility-modifier="IE_MANDATORY"><ellipse cx="87" cy="1721.5957" fill="#000000" rx="3" ry="3" style="stroke:#000000;stroke-width:1;"/></g><text fill="#C9D1D9" font-family="'Segoe UI, Inter, sans-serif'" font-size="14" lengthAdjust="spacing" textLength="135.502" x="105" y="1725.8926">Token : nvarchar(max)</text><g data-visibility-modifier="IE_MANDATORY"><ellipse cx="87" cy="1760.2168" fill="#000000" rx="3" ry="3" style="stroke:#000000;stroke-width:1;"/></g><text fill="#C9D1D9" font-family="'Segoe UI, Inter, sans-serif'" font-size="14" lengthAdjust="spacing" textLength="130.2314" x="105" y="1764.5137">ExpiresAt : datetime2</text><g data-visibility-modifier="IE_MANDATORY"><ellipse cx="87" cy="1798.8379" fill="#000000" rx="3" ry="3" style="stroke:#000000;stroke-width:1;"/></g><text fill="#C9D1D9" font-family="'Segoe UI, Inter, sans-serif'" font-size="14" lengthAdjust="spacing" textLength="135.2627" x="105" y="1803.1348">CreatedAt : datetime2</text><g data-visibility-modifier="IE_MANDATORY"><ellipse cx="87" cy="1837.459" fill="#000000" rx="3" ry="3" style="stroke:#000000;stroke-width:1;"/></g><text fill="#C9D1D9" font-family="'Segoe UI, Inter, sans-serif'" font-size="14" lengthAdjust="spacing" textLength="89.8652" x="105" y="1841.7559">IsRevoked : bit</text><line style="stroke:#A371F7;stroke-width:1;" x1="77" x2="287.4668" y1="1859.2695" y2="1859.2695"/><g data-visibility-modifier="IE_MANDATORY"><ellipse cx="87" cy="1884.0801" fill="#000000" rx="3" ry="3" style="stroke:#000000;stroke-width:1;"/></g><text fill="#C9D1D9" font-family="'Segoe UI, Inter, sans-serif'" font-size="14" lengthAdjust="spacing" textLength="167.4668" x="105" y="1888.377">UserId : nvarchar(450) &#171;FK&#187;</text></g><g class="entity" data-qualified-name="GMN14" data-source-line="103" id="ent0015"><path d="M445.5,334.4219 L445.5,447.4219 L365.52,451.4219 L445.5,455.4219 L445.5,568.8242 A6,6 0 0 0 451.5,574.8242 L698.3354,574.8242 A6,6 0 0 0 704.3354,568.8242 L704.3354,338.4219 L694.3354,328.4219 L451.5,328.4219 A6,6 0 0 0 445.5,334.4219" fill="#21262D" style="stroke:#F85149;stroke-width:0.5;"/><path d="M694.3354,328.4219 L694.3354,335.4219 A3,3 0 0 0 697.3354,338.4219 L704.3354,338.4219 L694.3354,328.4219" fill="#21262D" style="stroke:#F85149;stroke-width:0.5;"/><text fill="#C9D1D9" font-family="'Segoe UI, Inter, sans-serif'" font-size="11" font-weight="bold" lengthAdjust="spacing" textLength="111.5415" x="461.5" y="355.292">Filtered Unique Index</text><text fill="#C9D1D9" font-family="'Segoe UI, Inter, sans-serif'" font-size="11" lengthAdjust="spacing" textLength="44.0322" x="576.0547" y="355.292">on Email:</text><text fill="#C9D1D9" font-family="monospace" font-size="11" lengthAdjust="spacing" textLength="171.6279" x="461.5" y="369.1118">HasFilter("IsDeleted&#160;=&#160;0")</text><line style="stroke:#F85149;stroke-width:1;" x1="446.5" x2="703.3354" y1="382.415" y2="382.415"/><text fill="#C9D1D9" font-family="'Segoe UI, Inter, sans-serif'" font-size="11" lengthAdjust="spacing" textLength="144.7295" x="461.5" y="408.2852">Active emails must be unique.</text><text fill="#C9D1D9" font-family="'Segoe UI, Inter, sans-serif'" font-size="11" lengthAdjust="spacing" textLength="163.0288" x="461.5" y="422.916">Deleted patient's email does NOT</text><text fill="#C9D1D9" font-family="'Segoe UI, Inter, sans-serif'" font-size="11" lengthAdjust="spacing" textLength="142.9624" x="461.5" y="437.5469">block new registrations in the</text><text fill="#C9D1D9" font-family="'Segoe UI, Inter, sans-serif'" font-size="11" lengthAdjust="spacing" textLength="96.0459" x="461.5" y="452.1777">database &#8212; but the</text><text fill="#C9D1D9" font-family="'Segoe UI, Inter, sans-serif'" font-size="11" font-weight="bold" lengthAdjust="spacing" textLength="35.4868" x="560.5591" y="452.1777">service</text><text fill="#C9D1D9" font-family="'Segoe UI, Inter, sans-serif'" font-size="11" lengthAdjust="spacing" textLength="111.1226" x="461.5" y="466.8086">checks ALL patients via</text><text fill="#C9D1D9" font-family="monospace" font-size="11" lengthAdjust="spacing" textLength="132.0215" x="461.5" y="480.897">IgnoreQueryFilters()</text><text fill="#C9D1D9" font-family="'Segoe UI, Inter, sans-serif'" font-size="11" lengthAdjust="spacing" textLength="2.3848" x="593.5215" y="481.4395">.</text><line style="stroke:#F85149;stroke-width:1;" x1="446.5" x2="703.3354" y1="498.2002" y2="498.2002"/><text fill="#C9D1D9" font-family="'Segoe UI, Inter, sans-serif'" font-size="11" font-weight="bold" lengthAdjust="spacing" textLength="97.4316" x="461.5" y="524.0703">Global Query Filter</text><text fill="#C9D1D9" font-family="'Segoe UI, Inter, sans-serif'" font-size="11" lengthAdjust="spacing" textLength="2.3848" x="558.9316" y="524.0703">:</text><text fill="#C9D1D9" font-family="monospace" font-size="11" lengthAdjust="spacing" textLength="217.8354" x="461.5" y="537.8901">HasQueryFilter(p&#160;=&gt;&#160;!p.IsDeleted)</text><text fill="#C9D1D9" font-family="'Segoe UI, Inter, sans-serif'" font-size="11" lengthAdjust="spacing" textLength="153.4038" x="461.5" y="553.0635">Auto-excludes deleted patients.</text></g><g class="entity" data-qualified-name="GMN17" data-source-line="119" id="ent0018"><path d="M724.5,1667.4219 L724.5,1801.207 A6,6 0 0 0 730.5,1807.207 L913.7524,1807.207 A6,6 0 0 0 919.7524,1801.207 L919.7524,1671.4219 L909.7524,1661.4219 L786.64,1661.4219 L607.84,1340.1619 L778.64,1661.4219 L730.5,1661.4219 A6,6 0 0 0 724.5,1667.4219" fill="#21262D" style="stroke:#F85149;stroke-width:0.5;"/><path d="M909.7524,1661.4219 L909.7524,1668.4219 A3,3 0 0 0 912.7524,1671.4219 L919.7524,1671.4219 L909.7524,1661.4219" fill="#21262D" style="stroke:#F85149;stroke-width:0.5;"/><text fill="#C9D1D9" font-family="'Segoe UI, Inter, sans-serif'" font-size="11" lengthAdjust="spacing" textLength="67.563" x="740.5" y="1688.292">Seeded Roles:</text><text fill="#C9D1D9" font-family="'Segoe UI, Inter, sans-serif'" font-size="11" lengthAdjust="spacing" textLength="4.4688" x="740.5" y="1702.9229">&#8226;</text><text fill="#C9D1D9" font-family="'Segoe UI, Inter, sans-serif'" font-size="11" font-weight="bold" lengthAdjust="spacing" textLength="34.4019" x="747.9819" y="1702.9229">Admin</text><text fill="#C9D1D9" font-family="'Segoe UI, Inter, sans-serif'" font-size="11" lengthAdjust="spacing" textLength="64.7969" x="785.397" y="1702.9229">&#8212; Full access</text><text fill="#C9D1D9" font-family="'Segoe UI, Inter, sans-serif'" font-size="11" lengthAdjust="spacing" textLength="4.4688" x="740.5" y="1717.5537">&#8226;</text><text fill="#C9D1D9" font-family="'Segoe UI, Inter, sans-serif'" font-size="11" font-weight="bold" lengthAdjust="spacing" textLength="64.2168" x="747.9819" y="1717.5537">Receptionist</text><text fill="#C9D1D9" font-family="'Segoe UI, Inter, sans-serif'" font-size="11" lengthAdjust="spacing" textLength="79.5405" x="815.2119" y="1717.5537">&#8212; Patient CRUD</text><text fill="#C9D1D9" font-family="'Segoe UI, Inter, sans-serif'" font-size="11" lengthAdjust="spacing" textLength="4.4688" x="740.5" y="1732.1846">&#8226;</text><text fill="#C9D1D9" font-family="'Segoe UI, Inter, sans-serif'" font-size="11" font-weight="bold" lengthAdjust="spacing" textLength="36.9692" x="747.9819" y="1732.1846">Patient</text><text fill="#C9D1D9" font-family="'Segoe UI, Inter, sans-serif'" font-size="11" lengthAdjust="spacing" textLength="70.834" x="787.9644" y="1732.1846">&#8212; Default role</text><line style="stroke:#F85149;stroke-width:1;" x1="725.5" x2="918.7524" y1="1744.9453" y2="1744.9453"/><text fill="#C9D1D9" font-family="'Segoe UI, Inter, sans-serif'" font-size="11" lengthAdjust="spacing" textLength="101.6587" x="740.5" y="1770.8154">Each user has exactly</text><text fill="#C9D1D9" font-family="'Segoe UI, Inter, sans-serif'" font-size="11" font-weight="bold" lengthAdjust="spacing" textLength="42.5444" x="740.5" y="1785.4463">one role</text><text fill="#C9D1D9" font-family="'Segoe UI, Inter, sans-serif'" font-size="11" lengthAdjust="spacing" textLength="44.9507" x="786.0576" y="1785.4463">at a time.</text></g><g class="entity" data-qualified-name="GMN20" data-source-line="129" id="ent0021"><path d="M999.5,1695.9219 L999.5,1772.4453 A6,6 0 0 0 1005.5,1778.4453 L1194.9614,1778.4453 A6,6 0 0 0 1200.9614,1772.4453 L1200.9614,1699.9219 L1190.9614,1689.9219 L1005.5,1689.9219 A6,6 0 0 0 999.5,1695.9219" fill="#21262D" style="stroke:#F85149;stroke-width:0.5;"/><path d="M1190.9614,1689.9219 L1190.9614,1696.9219 A3,3 0 0 0 1193.9614,1699.9219 L1200.9614,1699.9219 L1190.9614,1689.9219" fill="#21262D" style="stroke:#F85149;stroke-width:1;"/><text fill="#C9D1D9" font-family="'Segoe UI, Inter, sans-serif'" font-size="11" lengthAdjust="spacing" textLength="103.9253" x="1015.5" y="1716.792">Identity manages this</text><text fill="#C9D1D9" font-family="'Segoe UI, Inter, sans-serif'" font-size="11" lengthAdjust="spacing" textLength="128.1274" x="1015.5" y="1731.4229">junction table. Assign Role</text><text fill="#C9D1D9" font-family="'Segoe UI, Inter, sans-serif'" font-size="11" lengthAdjust="spacing" textLength="139.7935" x="1015.5" y="1746.0537">endpoint removes all current</text><text fill="#C9D1D9" font-family="'Segoe UI, Inter, sans-serif'" font-size="11" lengthAdjust="spacing" textLength="160.4614" x="1015.5" y="1760.6846">roles before adding the new one.</text></g><!--link PATIENTS to USERS--><g class="link" data-entity-1="ent0003" data-entity-2="ent0005" data-link-type="crowfoot" data-source-line="91" id="lnk10"><path codeLine="91" d="M194,761.1219 C194,836.7419 194,891.3219 194,963.8719" fill="none" id="PATIENTS-USERS" style="stroke:#8B949E;stroke-width:1.5;stroke-dasharray:7,7;"/><line style="stroke:#8B949E;stroke-width:1.5;" x1="194" x2="188" y1="751.1219" y2="743.1219"/><line style="stroke:#8B949E;stroke-width:1.5;" x1="194" x2="200" y1="751.1219" y2="743.1219"/><line style="stroke:#8B949E;stroke-width:1.5;" x1="194" x2="194" y1="751.1219" y2="743.1219"/><ellipse cx="194" cy="757.1219" fill="none" rx="4" ry="4" style="stroke:#8B949E;stroke-width:1.5;"/><line style="stroke:#8B949E;stroke-width:1.5;" x1="198" x2="190" y1="967.8719" y2="967.8719"/><line style="stroke:#8B949E;stroke-width:1.5;" x1="198" x2="190" y1="964.8719" y2="964.8719"/><line style="stroke:#8B949E;stroke-width:1.5;" x1="194" x2="194" y1="963.8719" y2="971.8719"/><text fill="#C9D1D9" font-family="'Segoe UI, Inter, sans-serif'" font-size="12" lengthAdjust="spacing" textLength="79.0137" x="208.2871" y="798.8711">(1) Optional FK</text><text fill="#C9D1D9" font-family="'Segoe UI, Inter, sans-serif'" font-size="12" lengthAdjust="spacing" textLength="68.4727" x="210.2705" y="814.832">(UserId &#8594; Id)</text></g><!--link USERS to TOKENS--><g class="link" data-entity-1="ent0005" data-entity-2="ent0009" data-link-type="crowfoot" data-source-line="94" id="lnk11"><path codeLine="94" d="M167.1687,1458.1646 C165.9787,1486.0346 166,1506.0919 167,1532.9219 C167.36,1542.6919 166.8699,1534.7475 167.4099,1544.8575" fill="none" id="USERS-TOKENS" style="stroke:#8B949E;stroke-width:1.5;"/><line style="stroke:#8B949E;stroke-width:1.5;" x1="163.343" x2="171.3357" y1="1453.9976" y2="1454.3389"/><line style="stroke:#8B949E;stroke-width:1.5;" x1="163.215" x2="171.2077" y1="1456.9949" y2="1457.3361"/><line style="stroke:#8B949E;stroke-width:1.5;" x1="167.1687" x2="167.51" y1="1458.1646" y2="1450.1719"/><line style="stroke:#8B949E;stroke-width:1.5;" x1="167.9433" x2="174.3615" y1="1554.8433" y2="1562.5119"/><line style="stroke:#8B949E;stroke-width:1.5;" x1="167.9433" x2="162.3785" y1="1554.8433" y2="1563.1519"/><line style="stroke:#8B949E;stroke-width:1.5;" x1="167.9433" x2="168.37" y1="1554.8433" y2="1562.8319"/><ellipse cx="167.6233" cy="1548.8518" fill="none" rx="4" ry="4" style="stroke:#8B949E;stroke-width:1.5;"/><text fill="#C9D1D9" font-family="'Segoe UI, Inter, sans-serif'" font-size="12" lengthAdjust="spacing" textLength="46.5996" x="192.2236" y="1503.8711">(2) Owns</text><text fill="#C9D1D9" font-family="'Segoe UI, Inter, sans-serif'" font-size="12" lengthAdjust="spacing" textLength="68.4727" x="178" y="1519.832">(UserId &#8594; Id)</text></g><!--link USERS to USER_ROLES--><g class="link" data-entity-1="ent0005" data-entity-2="ent0008" data-link-type="crowfoot" data-source-line="97" id="lnk12"><path codeLine="97" d="M331.9667,1429.2864 C381.0367,1506.6064 420.0551,1568.074 458.7351,1629.024" fill="none" id="USERS-USER_ROLES" style="stroke:#8B949E;stroke-width:1.5;"/><line style="stroke:#8B949E;stroke-width:1.5;" x1="326.4461" x2="333.2006" y1="1428.0525" y2="1423.7658"/><line style="stroke:#8B949E;stroke-width:1.5;" x1="328.0536" x2="334.8081" y1="1430.5855" y2="1426.2988"/><line style="stroke:#8B949E;stroke-width:1.5;" x1="331.9667" x2="327.68" y1="1429.2864" y2="1422.5319"/><line style="stroke:#8B949E;stroke-width:1.5;" x1="464.0934" x2="473.446" y1="1637.4672" y2="1641.0069"/><line style="stroke:#8B949E;stroke-width:1.5;" x1="464.0934" x2="463.314" y1="1637.4672" y2="1647.4368"/><line style="stroke:#8B949E;stroke-width:1.5;" x1="464.0934" x2="468.38" y1="1637.4672" y2="1644.2219"/><ellipse cx="460.8784" cy="1632.4013" fill="none" rx="4" ry="4" style="stroke:#8B949E;stroke-width:1.5;"/><text fill="#C9D1D9" font-family="'Segoe UI, Inter, sans-serif'" font-size="12" lengthAdjust="spacing" textLength="65.0273" x="404.2871" y="1511.8711">(3) Assigned</text></g><!--link ROLES to USER_ROLES--><g class="link" data-entity-1="ent0007" data-entity-2="ent0008" data-link-type="crowfoot" data-source-line="98" id="lnk13"><path codeLine="98" d="M534.6009,1348.1594 C532.2509,1442.5594 529.7574,1542.5174 527.6774,1626.1674" fill="none" id="ROLES-USER_ROLES" style="stroke:#8B949E;stroke-width:1.5;"/><line style="stroke:#8B949E;stroke-width:1.5;" x1="530.7017" x2="538.6992" y1="1344.0611" y2="1344.2602"/><line style="stroke:#8B949E;stroke-width:1.5;" x1="530.627" x2="538.6246" y1="1347.0602" y2="1347.2593"/><line style="stroke:#8B949E;stroke-width:1.5;" x1="534.6009" x2="534.8" y1="1348.1594" y2="1340.1619"/><line style="stroke:#8B949E;stroke-width:1.5;" x1="527.4289" x2="533.2281" y1="1636.1643" y2="1644.311"/><line style="stroke:#8B949E;stroke-width:1.5;" x1="527.4289" x2="521.2319" y1="1636.1643" y2="1644.0127"/><line style="stroke:#8B949E;stroke-width:1.5;" x1="527.4289" x2="527.23" y1="1636.1643" y2="1644.1619"/><ellipse cx="527.578" cy="1630.1662" fill="none" rx="4" ry="4" style="stroke:#8B949E;stroke-width:1.5;"/><text fill="#C9D1D9" font-family="'Segoe UI, Inter, sans-serif'" font-size="12" lengthAdjust="spacing" textLength="63.2109" x="546.2871" y="1511.8711">(3) Contains</text></g><!--link GMN20 to USER_ROLES--><g class="link" data-entity-1="ent0021" data-entity-2="ent0008" data-link-type="association" data-source-line="129" id="lnk22"><path d="M1080.03,1689.5819 C1052.8,1634.6919 998.29,1544.3619 920,1506.4219 C842.01,1468.6319 803.94,1470.6619 725,1506.4219 C662.41,1534.7719 611.66,1593.4719 576.94,1644.2019" fill="none" id="GMN20-USER_ROLES" style="stroke:#8B949E;stroke-width:1.5;stroke-dasharray:7,7;"/></g><g class="footer" data-source-line="18"><text fill="#E6EDF3" font-family="'Segoe UI, Inter, sans-serif'" font-size="10" lengthAdjust="spacing" textLength="158.3203" x="517.8206" y="1972.7129">Sprint 3 &#8212; Patient &amp; Identity Tables</text></g><?plantuml-src hLVlSjf64F-kfzYGcHhKWW77Ji9WPeY1XDe6ofzldSaSqe6kbkvKdMIRn9d9fpv0fq_GHykJTEzE0c63dQJX4zpkxP_V_dPlEO3oztsi0-WndpQ0HcubJ08V3xxVr2Y9GY4f03IWE-x0by__G8V4P4xmSE9uD21mms8FHYHcbCSm9NEVma_GT_4NYrVcGAAf2xAY4O0srH6EXEBiygA4WdOIUo8oWalXaO2wqFOPIiuYIcByfIJrQlsaN3qgrrwWO19639rfmP4EAlKluMmywy3FC1O-BQietTG--u0QWlyFDAndBbqmJc4swRu_cqscmyltqtVTowxrZ777JrmAbSgX8_Y2BGzblFAfmTz2712JVV0LqsIEIXO6Ttfw2kyeSMbqs1CYHiJmnFBq2PpvZ3C7BWadIneek2Sh6TC0oXkh7IhPabiBSpcpdSTeHtLInrWYaQ1H6iUCBwLsBQyO3qb40k32fPA6yAgQEum8lrA79zNCY36fxreXSQumL2XahZUX5-1vjLEhrLx2HyjIbKmZAZGTuOkeyVpuLVkarsirVq8-C8VuPISIKhQQXrhUMbUy04J2g3tjTmVJ2JIRAGLRBJGCwSS6s-wxjerqKN0qcwFpNzOWj5fhFQpovaelyVq1iX4lyMiIEHw9YhLgjPHJwGQ4-NdvY-Dg2StFq3ns8LQ0kWteomxrAHBvj9hpPSF84tpBUa1kyzQnfdIuUCCYxAy6kFWh9tnBkQ94bX3bIP0ptdRTY4gPDruteN7CIW6q5KdQQEquzHEpWDRNybdeFfJkDfK3S2Pfr7TtWDD3S1w_QcyWm_jpfXB4tYE97pSWZs6gz5HadwnFEIws9wFAe3k5Cn7HDGcGZhMJsfjwVHyTZtflNXzNaOuXZQJW6nwsPJYWiShMK16dm_WhU7WVbT7vj_3m7bCUyB1-VA9voDcVoNQfLQ3thUtN7X4fRqJalYFIUyJ_u_oPK2U94Cn9J89mhvKpmL4jejnvGZ47JgLI0H5xs0VhYOPLIG8kbIYj_SvojezUrdeliPpIOzHtxvTJFH-cdEFXHVU7blDhmH-8A20--q3TNJU-3ROz87Jghr_NwmW2lYjNPHman8bt4Nk3XYBt-pKaloRSKO_gGrHCy-z11cVZ-HRBR5jv-1hzfnAvegjD0cEwm27eJSKLvIRywV2yE_YXZuGs_bXdteOCWzZJ6KzrZXg4OtgDFj91k3k8HqPjVWAQztbCVRq98V73z9a-W6Ajj5uFHAZ4nFTNe7WX8HP0j0zh_Sn-4fNAtLqwwnfGq0Q6wKKir--yc0RrvQ-_4SGI5BIRUaaR0W-B4H2-ocfaS9IMCNXtLowBZrcrj7cyEBpXSf_T8sEth7W4VsIqB2eNvLYKjQjhHjRbB6rxoj5QUqDpRQdsACIzO1d1VbLimPWmd3c53EC1BbyfjXo_GiIM7WAxMEyfkYYsdUq8OBeV-lYcto83CNOzqXjQhr30yMjKYuNDotWArKAfKB0C7L92j37pQmfKtKQ84nd3d4AYpPk1c5qFJRaFf546Ls38W-5KAyrzuLm1fpSGqIMJSMGeWuq1E6wrYfjjd6grdEFQY09C2QjmpHngsre9Lrm76TI-kCZyILM7DAt-akCR_5j2evL9JnOneSfsHhRzrXTpP9NMIzSgsyv1apDG3E6q1S_2oXgc327y5o3Az5RlwHBSRH1anS9r2bIjqehDHHoBG9LCrzeoxnXryOwUXiRzby__OdnjDs0SgwQ0K8yr4CV1vIkdCQOErSs1KAQAMRUf_oivpVGuLUgOfGSYTBcDIfSu7YHPAz5RdDp-AiLBRPNg1XeXCRQkcYaF4lJfGZDomsTzU_sE1dfJn-RtcCbatLMn6fsLj44q6kbCTaEX1cT40t6DDt62W7cQpDXI8KbauqBjNSHryI-6venY6OQSY_0_?></g></svg>