<?plantuml 1.2026.2?><svg xmlns="http://www.w3.org/2000/svg" xmlns:xlink="http://www.w3.org/1999/xlink" contentStyleType="text/css" data-diagram-type="CLASS" height="1993px" preserveAspectRatio="none" style="width:1197px;height:1993px;background:#0D1117;" version="1.1" viewBox="0 0 1197 1993" width="1197px" zoomAndPan="magnify"><title>ERD &#8212; Database Schema (Sprint 3)</title><defs/><g><rect fill="#0D1117" height="1993" style="stroke:none;stroke-width:1;" width="1197" x="0" y="0"/><g class="header" data-source-line="17"><text fill="#E6EDF3" font-family="'Segoe UI, Inter, sans-serif'" font-size="10" lengthAdjust="spacing" textLength="203.3496" x="970.6118" y="20.791">Clinic Management System - Database Design</text></g><g class="title" data-source-line="14"><text fill="#E6EDF3" font-family="'Segoe UI, Inter, sans-serif'" font-size="14" font-weight="bold" lengthAdjust="spacing" textLength="230.3232" x="476.8191" y="69.4082">ERD &#8212; Database Schema (Sprint 3)</text></g><!--cluster Patient Management--><g class="cluster" data-qualified-name="Patient Management" data-source-line="26" id="ent0002"><path d="M12,99.9219 L184.1797,99.9219 A9,9 0 0 1 190.1797,105.9219 L197.1797,147.2031 L356,147.2031 A6,6 0 0 1 362,153.2031 L362,752.9219 A6,6 0 0 1 356,758.9219 L12,758.9219 A6,6 0 0 1 6,752.9219 L6,105.9219 A6,6 0 0 1 12,99.9219" fill="#0D1117" style="stroke:#30363D;stroke-width:1.5;"/><line style="stroke:#30363D;stroke-width:1.5;" x1="6" x2="197.1797" y1="147.2031" y2="147.2031"/><text fill="#58A6FF" font-family="'Segoe UI, Inter, sans-serif'" font-size="16" font-weight="bold" lengthAdjust="spacing" textLength="158.1797" x="20" y="129.1875">Patient Management</text></g><!--cluster ASP--><g class="cluster" data-qualified-name="ASP" data-source-line="49" id="ent0006"><path d="M16,843.9219 L60.0469,843.9219 A9,9 0 0 1 66.0469,849.9219 L73.0469,891.2031 L692,891.2031 A6,6 0 0 1 698,897.2031 L698,1939.9219 A6,6 0 0 1 692,1945.9219 L16,1945.9219 A6,6 0 0 1 10,1939.9219 L10,849.9219 A6,6 0 0 1 16,843.9219" fill="#161B22" style="stroke:#30363D;stroke-width:1.5;"/><line style="stroke:#30363D;stroke-width:1.5;" x1="10" x2="73.0469" y1="891.2031" y2="891.2031"/><text fill="#58A6FF" font-family="'Segoe UI, Inter, sans-serif'" font-size="16" font-weight="bold" lengthAdjust="spacing" textLength="30.0469" x="24" y="873.1875">ASP</text></g><!--cluster NET Core Identity--><g class="cluster" data-qualified-name="ASP.NET Core Identity" data-source-line="47" id="ent0004"><path d="M40,911.9219 L187.0703,911.9219 A9,9 0 0 1 193.0703,917.9219 L200.0703,959.2031 L668,959.2031 A6,6 0 0 1 674,965.2031 L674,1915.9219 A6,6 0 0 1 668,1921.9219 L40,1921.9219 A6,6 0 0 1 34,1915.9219 L34,917.9219 A6,6 0 0 1 40,911.9219" fill="#161B22" style="stroke:#30363D;stroke-width:1.5;"/><line style="stroke:#30363D;stroke-width:1.5;" x1="34" x2="200.0703" y1="959.2031" y2="959.2031"/><text fill="#58A6FF" font-family="'Segoe UI, Inter, sans-serif'" font-size="16" font-weight="bold" lengthAdjust="spacing" textLength="133.0703" x="48" y="941.1875">NET Core Identity</text></g><!--class PATIENTS--><g class="entity" data-qualified-name="Patient Management.PATIENTS" data-source-line="28" id="ent0003"><rect fill="#161B22" height="582.6953" rx="6" ry="6" style="stroke:#A371F7;stroke-width:0.5;" width="322.6826" x="22.5" y="159.9219"/><ellipse cx="137.7435" cy="203.543" fill="#ADD1B2" rx="10" ry="10" style="stroke:#181818;stroke-width:1;"/><path d="M137.0091,204.0898 L137.0091,206.1367 L140.5872,206.1367 L140.5872,205.3867 Q140.5872,204.8711 140.7747,204.668 Q140.9779,204.4492 141.2904,204.4492 Q141.5872,204.4492 141.7747,204.668 Q141.9779,204.8711 141.9779,205.3867 L141.9779,207.543 L135.3841,207.543 Q134.8841,207.543 134.6654,207.3555 Q134.4466,207.1523 134.4466,206.8398 Q134.4466,206.5273 134.6654,206.3398 Q134.8841,206.1367 135.3841,206.1367 L135.6029,206.1367 L135.6029,200.6523 L135.3841,200.6523 Q134.8841,200.6523 134.6654,200.4648 Q134.4466,200.2617 134.4466,199.9492 Q134.4466,199.6367 134.6654,199.4492 Q134.8841,199.2461 135.3841,199.2461 L141.681,199.2617 L141.681,201.3867 Q141.681,201.8867 141.4779,202.1055 Q141.2904,202.3242 140.9779,202.3242 Q140.6654,202.3242 140.4622,202.1211 Q140.2747,201.9023 140.2747,201.3867 L140.2747,200.6523 L137.0091,200.6523 L137.0091,202.6836 L138.2435,202.6836 Q138.2435,202.1367 138.3372,201.9805 Q138.556,201.6367 138.9466,201.6367 Q139.2435,201.6367 139.431,201.8555 Q139.6341,202.0742 139.6341,202.5742 L139.6341,204.1992 Q139.6341,204.6523 139.5247,204.8086 Q139.306,205.1367 138.9466,205.1367 Q138.556,205.1367 138.3372,204.793 Q138.2435,204.6367 138.2435,204.0898 L137.0091,204.0898 Z " fill="#E6EDF3"/><text fill="#E6EDF3" font-family="Segoe UI, Inter, sans-serif" font-size="14" font-style="italic" lengthAdjust="spacing" textLength="47.373" x="175.1548" y="190.0293">&#171;Table&#187;</text><path d="M170.0768,219.3307 L170.0768,221.6641 L167.7435,221.6641 L167.7435,226.3307 L170.0768,226.3307 L170.0768,228.6641 L174.7435,228.6641 L174.7435,226.3307 L177.0768,226.3307 L177.0768,221.6641 L174.7435,221.6641 L174.7435,219.3307 L170.0768,219.3307" fill="#58A6FF"/><text fill="#C9D1D9" font-family="'Segoe UI, Inter, sans-serif'" font-size="14" lengthAdjust="spacing" textLength="49.0273" x="181.9118" y="228.6504">Patients</text><line style="stroke:#A371F7;stroke-width:0.5;" x1="23.5" x2="344.1826" y1="247.1641" y2="247.1641"/><g data-visibility-modifier="IE_MANDATORY"><ellipse cx="33.5" cy="271.9746" fill="#000000" rx="3" ry="3" style="stroke:#000000;stroke-width:1;"/></g><text fill="#C9D1D9" font-family="'Segoe UI, Inter, sans-serif'" font-size="14" font-weight="bold" lengthAdjust="spacing" textLength="13.1045" x="51.5" y="276.2715">Id</text><text fill="#C9D1D9" font-family="'Segoe UI, Inter, sans-serif'" font-size="14" lengthAdjust="spacing" textLength="110.626" x="68.4395" y="276.2715">: int &#171;PK, Identity&#187;</text><line style="stroke:#A371F7;stroke-width:1;" x1="23.5" x2="344.1826" y1="293.7852" y2="293.7852"/><g data-visibility-modifier="IE_MANDATORY"><ellipse cx="33.5" cy="318.5957" fill="#000000" rx="3" ry="3" style="stroke:#000000;stroke-width:1;"/></g><text fill="#C9D1D9" font-family="'Segoe UI, Inter, sans-serif'" font-size="14" lengthAdjust="spacing" textLength="153.3096" x="51.5" y="322.8926">FullName : nvarchar(100)</text><g data-visibility-modifier="IE_MANDATORY"><ellipse cx="33.5" cy="357.2168" fill="#000000" rx="3" ry="3" style="stroke:#000000;stroke-width:1;"/></g><text fill="#C9D1D9" font-family="'Segoe UI, Inter, sans-serif'" font-size="14" lengthAdjust="spacing" textLength="277.6826" x="51.5" y="361.5137">Email : nvarchar(450) &#171;Filtered Unique Index&#187;</text><g data-visibility-modifier="IE_MANDATORY"><ellipse cx="33.5" cy="395.8379" fill="#000000" rx="3" ry="3" style="stroke:#000000;stroke-width:1;"/></g><text fill="#C9D1D9" font-family="'Segoe UI, Inter, sans-serif'" font-size="14" lengthAdjust="spacing" textLength="136.9717" x="51.5" y="400.1348">Phone : nvarchar(max)</text><g data-visibility-modifier="IE_MANDATORY"><ellipse cx="33.5" cy="434.459" fill="#000000" rx="3" ry="3" style="stroke:#000000;stroke-width:1;"/></g><text fill="#C9D1D9" font-family="'Segoe UI, Inter, sans-serif'" font-size="14" lengthAdjust="spacing" textLength="111.0293" x="51.5" y="438.7559">DateOfBirth : date</text><g data-visibility-modifier="IE_MANDATORY"><ellipse cx="33.5" cy="473.0801" fill="#000000" rx="3" ry="3" style="stroke:#000000;stroke-width:1;"/></g><text fill="#C9D1D9" font-family="'Segoe UI, Inter, sans-serif'" font-size="14" lengthAdjust="spacing" textLength="125.2686" x="51.5" y="477.377">Gender : int &#171;enum&#187;</text><text fill="#C9D1D9" font-family="'Segoe UI, Inter, sans-serif'" font-size="14" lengthAdjust="spacing" textLength="211.0732" x="51.5" y="515.998">Address : nvarchar(250) &#171;nullable&#187;</text><g data-visibility-modifier="IE_MANDATORY"><ellipse cx="33.5" cy="550.3223" fill="#000000" rx="3" ry="3" style="stroke:#000000;stroke-width:1;"/></g><text fill="#C9D1D9" font-family="'Segoe UI, Inter, sans-serif'" font-size="14" lengthAdjust="spacing" textLength="135.2627" x="51.5" y="554.6191">CreatedAt : datetime2</text><text fill="#C9D1D9" font-family="'Segoe UI, Inter, sans-serif'" font-size="14" lengthAdjust="spacing" textLength="207.1904" x="51.5" y="593.2402">UpdatedAt : datetime2 &#171;nullable&#187;</text><line style="stroke:#A371F7;stroke-width:1;" x1="23.5" x2="344.1826" y1="610.7539" y2="610.7539"/><text fill="#C9D1D9" font-family="'Segoe UI, Inter, sans-serif'" font-size="14" lengthAdjust="spacing" textLength="223.0293" x="38.5" y="639.8613">UserId : nvarchar(450) &#171;FK, nullable&#187;</text><line style="stroke:#A371F7;stroke-width:1;" x1="23.5" x2="344.1826" y1="657.375" y2="657.375"/><g data-visibility-modifier="IE_MANDATORY"><ellipse cx="33.5" cy="682.1855" fill="#000000" rx="3" ry="3" style="stroke:#000000;stroke-width:1;"/></g><text fill="#C9D1D9" font-family="'Segoe UI, Inter, sans-serif'" font-size="14" lengthAdjust="spacing" textLength="160.4395" x="51.5" y="686.4824">IsDeleted : bit &#171;default: 0&#187;</text><text fill="#C9D1D9" font-family="'Segoe UI, Inter, sans-serif'" font-size="14" lengthAdjust="spacing" textLength="201.8242" x="51.5" y="725.1035">DeletedAt : datetime2 &#171;nullable&#187;</text></g><!--class USERS--><g class="entity" data-qualified-name="ASP.NET Core Identity.USERS" data-source-line="49" id="ent0005"><rect fill="#161B22" height="478.1426" rx="6" ry="6" style="stroke:#A371F7;stroke-width:0.5;" width="266.9355" x="50.5" y="971.9219"/><ellipse cx="122.6702" cy="1015.543" fill="#ADD1B2" rx="10" ry="10" style="stroke:#181818;stroke-width:1;"/><path d="M121.9359,1016.0898 L121.9359,1018.1367 L125.514,1018.1367 L125.514,1017.3867 Q125.514,1016.8711 125.7015,1016.668 Q125.9046,1016.4492 126.2171,1016.4492 Q126.514,1016.4492 126.7015,1016.668 Q126.9046,1016.8711 126.9046,1017.3867 L126.9046,1019.543 L120.3109,1019.543 Q119.8109,1019.543 119.5921,1019.3555 Q119.3734,1019.1523 119.3734,1018.8398 Q119.3734,1018.5273 119.5921,1018.3398 Q119.8109,1018.1367 120.3109,1018.1367 L120.5296,1018.1367 L120.5296,1012.6523 L120.3109,1012.6523 Q119.8109,1012.6523 119.5921,1012.4648 Q119.3734,1012.2617 119.3734,1011.9492 Q119.3734,1011.6367 119.5921,1011.4492 Q119.8109,1011.2461 120.3109,1011.2461 L126.6077,1011.2617 L126.6077,1013.3867 Q126.6077,1013.8867 126.4046,1014.1055 Q126.2171,1014.3242 125.9046,1014.3242 Q125.5921,1014.3242 125.389,1014.1211 Q125.2015,1013.9023 125.2015,1013.3867 L125.2015,1012.6523 L121.9359,1012.6523 L121.9359,1014.6836 L123.1702,1014.6836 Q123.1702,1014.1367 123.264,1013.9805 Q123.4827,1013.6367 123.8734,1013.6367 Q124.1702,1013.6367 124.3577,1013.8555 Q124.5609,1014.0742 124.5609,1014.5742 L124.5609,1016.1992 Q124.5609,1016.6523 124.4515,1016.8086 Q124.2327,1017.1367 123.8734,1017.1367 Q123.4827,1017.1367 123.264,1016.793 Q123.1702,1016.6367 123.1702,1016.0898 L121.9359,1016.0898 Z " fill="#E6EDF3"/><text fill="#E6EDF3" font-family="Segoe UI, Inter, sans-serif" font-size="14" font-style="italic" lengthAdjust="spacing" textLength="47.373" x="175.2813" y="1002.0293">&#171;Table&#187;</text><path d="M157.3369,1031.3307 C156.0536,1031.3307 155.0036,1032.6374 155.0036,1034.2474 C155.0036,1035.8574 156.0536,1037.1641 157.3369,1037.1641 C158.6202,1037.1641 159.6702,1035.8574 159.6702,1034.2474 C159.6702,1032.6374 158.6202,1031.3307 157.3369,1031.3307 M154.8986,1037.1641 C153.6619,1037.2224 152.6702,1038.2374 152.6702,1039.4974 L152.6702,1040.6641 L162.0036,1040.6641 L162.0036,1039.4974 C162.0036,1038.2374 161.0236,1037.2224 159.7752,1037.1641 C159.1452,1037.8757 158.2819,1038.3307 157.3369,1038.3307 C156.3919,1038.3307 155.5286,1037.8757 154.8986,1037.1641" fill="#3FB950"/><text fill="#C9D1D9" font-family="'Segoe UI, Inter, sans-serif'" font-size="14" lengthAdjust="spacing" textLength="79.4268" x="166.8385" y="1040.6504">AspNetUsers</text><line style="stroke:#A371F7;stroke-width:0.5;" x1="51.5" x2="316.4355" y1="1059.1641" y2="1059.1641"/><g data-visibility-modifier="IE_MANDATORY"><ellipse cx="61.5" cy="1083.9746" fill="#000000" rx="3" ry="3" style="stroke:#000000;stroke-width:1;"/></g><text fill="#C9D1D9" font-family="'Segoe UI, Inter, sans-serif'" font-size="14" font-weight="bold" lengthAdjust="spacing" textLength="13.1045" x="79.5" y="1088.2715">Id</text><text fill="#C9D1D9" font-family="'Segoe UI, Inter, sans-serif'" font-size="14" lengthAdjust="spacing" textLength="124.9199" x="96.4395" y="1088.2715">: nvarchar(450) &#171;PK&#187;</text><line style="stroke:#A371F7;stroke-width:1;" x1="51.5" x2="316.4355" y1="1105.7852" y2="1105.7852"/><g data-visibility-modifier="IE_MANDATORY"><ellipse cx="61.5" cy="1130.5957" fill="#000000" rx="3" ry="3" style="stroke:#000000;stroke-width:1;"/></g><text fill="#C9D1D9" font-family="'Segoe UI, Inter, sans-serif'" font-size="14" lengthAdjust="spacing" textLength="156.2764" x="79.5" y="1134.8926">FullName : nvarchar(max)</text><g data-visibility-modifier="IE_MANDATORY"><ellipse cx="61.5" cy="1169.2168" fill="#000000" rx="3" ry="3" style="stroke:#000000;stroke-width:1;"/></g><text fill="#C9D1D9" font-family="'Segoe UI, Inter, sans-serif'" font-size="14" lengthAdjust="spacing" textLength="190.2578" x="79.5" y="1173.5137">Email : nvarchar(256) &#171;Unique&#187;</text><g data-visibility-modifier="IE_MANDATORY"><ellipse cx="61.5" cy="1207.8379" fill="#000000" rx="3" ry="3" style="stroke:#000000;stroke-width:1;"/></g><text fill="#C9D1D9" font-family="'Segoe UI, Inter, sans-serif'" font-size="14" lengthAdjust="spacing" textLength="221.9355" x="79.5" y="1212.1348">UserName : nvarchar(256) &#171;Unique&#187;</text><g data-visibility-modifier="IE_MANDATORY"><ellipse cx="61.5" cy="1246.459" fill="#000000" rx="3" ry="3" style="stroke:#000000;stroke-width:1;"/></g><text fill="#C9D1D9" font-family="'Segoe UI, Inter, sans-serif'" font-size="14" lengthAdjust="spacing" textLength="186.9629" x="79.5" y="1250.7559">PasswordHash : nvarchar(max)</text><g data-visibility-modifier="IE_MANDATORY"><ellipse cx="61.5" cy="1285.0801" fill="#000000" rx="3" ry="3" style="stroke:#000000;stroke-width:1;"/></g><text fill="#C9D1D9" font-family="'Segoe UI, Inter, sans-serif'" font-size="14" lengthAdjust="spacing" textLength="135.2627" x="79.5" y="1289.377">CreatedAt : datetime2</text><text fill="#C9D1D9" font-family="'Segoe UI, Inter, sans-serif'" font-size="14" lengthAdjust="spacing" textLength="186.2793" x="79.5" y="1327.998">SecurityStamp : nvarchar(max)</text><text fill="#C9D1D9" font-family="'Segoe UI, Inter, sans-serif'" font-size="14" lengthAdjust="spacing" textLength="214.7578" x="79.5" y="1366.6191">ConcurrencyStamp : nvarchar(max)</text><line style="stroke:#A371F7;stroke-width:1;" x1="51.5" x2="316.4355" y1="1384.1328" y2="1384.1328"/><line style="stroke:#A371F7;stroke-width:1;stroke-dasharray:1,2;" x1="51.5" x2="97.3472" y1="1411.4434" y2="1411.4434"/><text fill="#C9D1D9" font-family="'Segoe UI, Inter, sans-serif'" font-size="14" lengthAdjust="spacing" textLength="153.2412" x="107.3472" y="1416.7402">. other Identity columns .</text><line style="stroke:#A371F7;stroke-width:1;stroke-dasharray:1,2;" x1="270.5884" x2="316.4355" y1="1411.4434" y2="1411.4434"/></g><!--class ROLES--><g class="entity" data-qualified-name="ASP.NET Core Identity.ROLES" data-source-line="63" id="ent0007"><rect fill="#161B22" height="257.7266" rx="6" ry="6" style="stroke:#A371F7;stroke-width:0.5;" width="259.7578" x="398" y="1081.9219"/><ellipse cx="466.8104" cy="1125.543" fill="#ADD1B2" rx="10" ry="10" style="stroke:#181818;stroke-width:1;"/><path d="M466.076,1126.0898 L466.076,1128.1367 L469.6541,1128.1367 L469.6541,1127.3867 Q469.6541,1126.8711 469.8416,1126.668 Q470.0448,1126.4492 470.3573,1126.4492 Q470.6541,1126.4492 470.8416,1126.668 Q471.0448,1126.8711 471.0448,1127.3867 L471.0448,1129.543 L464.451,1129.543 Q463.951,1129.543 463.7323,1129.3555 Q463.5135,1129.1523 463.5135,1128.8398 Q463.5135,1128.5273 463.7323,1128.3398 Q463.951,1128.1367 464.451,1128.1367 L464.6698,1128.1367 L464.6698,1122.6523 L464.451,1122.6523 Q463.951,1122.6523 463.7323,1122.4648 Q463.5135,1122.2617 463.5135,1121.9492 Q463.5135,1121.6367 463.7323,1121.4492 Q463.951,1121.2461 464.451,1121.2461 L470.7479,1121.2617 L470.7479,1123.3867 Q470.7479,1123.8867 470.5448,1124.1055 Q470.3573,1124.3242 470.0448,1124.3242 Q469.7323,1124.3242 469.5291,1124.1211 Q469.3416,1123.9023 469.3416,1123.3867 L469.3416,1122.6523 L466.076,1122.6523 L466.076,1124.6836 L467.3104,1124.6836 Q467.3104,1124.1367 467.4041,1123.9805 Q467.6229,1123.6367 468.0135,1123.6367 Q468.3104,1123.6367 468.4979,1123.8555 Q468.701,1124.0742 468.701,1124.5742 L468.701,1126.1992 Q468.701,1126.6523 468.5916,1126.8086 Q468.3729,1127.1367 468.0135,1127.1367 Q467.6229,1127.1367 467.4041,1126.793 Q467.3104,1126.6367 467.3104,1126.0898 L466.076,1126.0898 Z " fill="#E6EDF3"/><text fill="#E6EDF3" font-family="Segoe UI, Inter, sans-serif" font-size="14" font-style="italic" lengthAdjust="spacing" textLength="47.373" x="519.1924" y="1112.0293">&#171;Table&#187;</text><path d="M501.4771,1141.3307 L501.2554,1141.4357 L497.1721,1143.1507 L496.8104,1143.3024 L496.8104,1143.6641 C496.8104,1145.6007 497.5921,1147.3041 498.5254,1148.5524 C498.9921,1149.1707 499.4937,1149.6841 499.9837,1150.0457 C500.4737,1150.4074 500.9521,1150.6641 501.4771,1150.6641 C502.0137,1150.6641 502.4804,1150.4074 502.9704,1150.0457 C503.4604,1149.6841 503.9621,1149.1707 504.4287,1148.5524 C505.3621,1147.3041 506.1437,1145.6007 506.1437,1143.6641 L506.1437,1143.3024 L505.7821,1143.1507 L501.6987,1141.4357 L501.4771,1141.3307 M501.4771,1142.6024 L501.4771,1149.4974 C501.4304,1149.4974 501.0921,1149.4157 500.7071,1149.1357 C500.3221,1148.8557 499.8787,1148.4007 499.4704,1147.8641 C498.7237,1146.8724 498.1404,1145.4957 498.0471,1144.0374 L501.4771,1142.6141" fill="#A371F7"/><text fill="#C9D1D9" font-family="'Segoe UI, Inter, sans-serif'" font-size="14" lengthAdjust="spacing" textLength="78.9688" x="510.9787" y="1150.6504">AspNetRoles</text><line style="stroke:#A371F7;stroke-width:0.5;" x1="399" x2="656.7578" y1="1169.1641" y2="1169.1641"/><g data-visibility-modifier="IE_MANDATORY"><ellipse cx="409" cy="1193.9746" fill="#000000" rx="3" ry="3" style="stroke:#000000;stroke-width:1;"/></g><text fill="#C9D1D9" font-family="'Segoe UI, Inter, sans-serif'" font-size="14" font-weight="bold" lengthAdjust="spacing" textLength="13.1045" x="427" y="1198.2715">Id</text><text fill="#C9D1D9" font-family="'Segoe UI, Inter, sans-serif'" font-size="14" lengthAdjust="spacing" textLength="124.9199" x="443.9395" y="1198.2715">: nvarchar(450) &#171;PK&#187;</text><line style="stroke:#A371F7;stroke-width:1;" x1="399" x2="656.7578" y1="1215.7852" y2="1215.7852"/><g data-visibility-modifier="IE_MANDATORY"><ellipse cx="409" cy="1240.5957" fill="#000000" rx="3" ry="3" style="stroke:#000000;stroke-width:1;"/></g><text fill="#C9D1D9" font-family="'Segoe UI, Inter, sans-serif'" font-size="14" lengthAdjust="spacing" textLength="194.1885" x="427" y="1244.8926">Name : nvarchar(256) &#171;Unique&#187;</text><text fill="#C9D1D9" font-family="'Segoe UI, Inter, sans-serif'" font-size="14" lengthAdjust="spacing" textLength="203.1709" x="427" y="1283.5137">NormalizedName : nvarchar(256)</text><text fill="#C9D1D9" font-family="'Segoe UI, Inter, sans-serif'" font-size="14" lengthAdjust="spacing" textLength="214.7578" x="427" y="1322.1348">ConcurrencyStamp : nvarchar(max)</text></g><!--class USER_ROLES--><g class="entity" data-qualified-name="ASP.NET Core Identity.USER_ROLES" data-source-line="71" id="ent0008"><rect fill="#161B22" height="180.4844" rx="6" ry="6" style="stroke:#A371F7;stroke-width:0.5;" width="238.1152" x="396" y="1644.4219"/><ellipse cx="440.1156" cy="1688.043" fill="#ADD1B2" rx="10" ry="10" style="stroke:#181818;stroke-width:1;"/><path d="M439.3812,1688.5898 L439.3812,1690.6367 L442.9593,1690.6367 L442.9593,1689.8867 Q442.9593,1689.3711 443.1468,1689.168 Q443.3499,1688.9492 443.6624,1688.9492 Q443.9593,1688.9492 444.1468,1689.168 Q444.3499,1689.3711 444.3499,1689.8867 L444.3499,1692.043 L437.7562,1692.043 Q437.2562,1692.043 437.0374,1691.8555 Q436.8187,1691.6523 436.8187,1691.3398 Q436.8187,1691.0273 437.0374,1690.8398 Q437.2562,1690.6367 437.7562,1690.6367 L437.9749,1690.6367 L437.9749,1685.1523 L437.7562,1685.1523 Q437.2562,1685.1523 437.0374,1684.9648 Q436.8187,1684.7617 436.8187,1684.4492 Q436.8187,1684.1367 437.0374,1683.9492 Q437.2562,1683.7461 437.7562,1683.7461 L444.0531,1683.7617 L444.0531,1685.8867 Q444.0531,1686.3867 443.8499,1686.6055 Q443.6624,1686.8242 443.3499,1686.8242 Q443.0374,1686.8242 442.8343,1686.6211 Q442.6468,1686.4023 442.6468,1685.8867 L442.6468,1685.1523 L439.3812,1685.1523 L439.3812,1687.1836 L440.6156,1687.1836 Q440.6156,1686.6367 440.7093,1686.4805 Q440.9281,1686.1367 441.3187,1686.1367 Q441.6156,1686.1367 441.8031,1686.3555 Q442.0062,1686.5742 442.0062,1687.0742 L442.0062,1688.6992 Q442.0062,1689.1523 441.8968,1689.3086 Q441.6781,1689.6367 441.3187,1689.6367 Q440.9281,1689.6367 440.7093,1689.293 Q440.6156,1689.1367 440.6156,1688.5898 L439.3812,1688.5898 Z " fill="#E6EDF3"/><text fill="#E6EDF3" font-family="Segoe UI, Inter, sans-serif" font-size="14" font-style="italic" lengthAdjust="spacing" textLength="64.5381" x="497.7886" y="1674.5293">&#171;Junction&#187;</text><path d="M476.9756,1703.8657 C476.7656,1703.8774 476.5556,1703.9007 476.3572,1703.9707 C476.0422,1704.0874 475.7389,1704.2624 475.4822,1704.5191 A0.5833,0.5833 0 1 0 476.2872,1705.3241 C476.4156,1705.1957 476.5672,1705.1257 476.7306,1705.0674 C477.1389,1704.9274 477.6406,1704.9857 477.9672,1705.3241 C478.4222,1705.7791 478.4222,1706.5374 477.9672,1707.0041 L476.2172,1708.7541 C475.7039,1709.2674 475.2839,1709.3141 474.9806,1709.3024 C474.6772,1709.2907 474.5022,1709.1507 474.5022,1709.1507 A0.5833,0.5833 0 1 0 473.9189,1710.1774 C474.3156,1710.4341 474.3156,1710.4341 474.8989,1710.4691 C475.4822,1710.5041 476.2989,1710.2824 477.0106,1709.5591 L478.7606,1707.8091 C479.6706,1706.8991 479.6706,1705.4291 478.7606,1704.5307 C478.4339,1704.2041 478.0489,1704.0057 477.6289,1703.9124 C477.4189,1703.8657 477.1856,1703.8657 476.9756,1703.8774 M474.6422,1706.5607 C474.0589,1706.5374 473.2539,1706.7357 472.5656,1707.4357 L470.8156,1709.1857 C469.9056,1710.0957 469.9056,1711.5657 470.8156,1712.4641 C471.4689,1713.1174 472.4022,1713.3041 473.2189,1713.0124 C473.5339,1712.8957 473.8372,1712.7207 474.0939,1712.4641 A0.5833,0.5833 0 1 0 473.2889,1711.6591 C473.1606,1711.7874 473.0089,1711.8574 472.8456,1711.9157 C472.4372,1712.0557 471.9356,1711.9974 471.6089,1711.6591 C471.1539,1711.2041 471.1539,1710.4457 471.6089,1709.9791 L473.3589,1708.2291 C473.8256,1707.7624 474.2339,1707.7041 474.5606,1707.7157 C474.8872,1707.7274 475.1089,1707.8207 475.1089,1707.8207 A0.5833,0.5833 0 1 0 475.6222,1706.7941 C475.2256,1706.5607 475.2256,1706.5607 474.6422,1706.5374" fill="#D29922"/><text fill="#C9D1D9" font-family="'Segoe UI, Inter, sans-serif'" font-size="14" lengthAdjust="spacing" textLength="106.7158" x="484.2839" y="1713.1504">AspNetUserRoles</text><line style="stroke:#A371F7;stroke-width:0.5;" x1="397" x2="633.1152" y1="1731.6641" y2="1731.6641"/><line style="stroke:#A371F7;stroke-width:0.5;" x1="397" x2="633.1152" y1="1739.6641" y2="1739.6641"/><g data-visibility-modifier="IE_MANDATORY"><ellipse cx="407" cy="1764.4746" fill="#000000" rx="3" ry="3" style="stroke:#000000;stroke-width:1;"/></g><text fill="#C9D1D9" font-family="'Segoe UI, Inter, sans-serif'" font-size="14" font-weight="bold" lengthAdjust="spacing" textLength="42.5332" x="425" y="1768.7715">UserId</text><text fill="#C9D1D9" font-family="'Segoe UI, Inter, sans-serif'" font-size="14" lengthAdjust="spacing" textLength="146.7471" x="471.3682" y="1768.7715">: nvarchar(450) &#171;PK, FK&#187;</text><g data-visibility-modifier="IE_MANDATORY"><ellipse cx="407" cy="1803.0957" fill="#000000" rx="3" ry="3" style="stroke:#000000;stroke-width:1;"/></g><text fill="#C9D1D9" font-family="'Segoe UI, Inter, sans-serif'" font-size="14" font-weight="bold" lengthAdjust="spacing" textLength="42.3555" x="425" y="1807.3926">RoleId</text><text fill="#C9D1D9" font-family="'Segoe UI, Inter, sans-serif'" font-size="14" lengthAdjust="spacing" textLength="146.7471" x="471.1904" y="1807.3926">: nvarchar(450) &#171;PK, FK&#187;</text></g><!--class TOKENS--><g class="entity" data-qualified-name="ASP.NET Core Identity.TOKENS" data-source-line="76" id="ent0009"><rect fill="#161B22" height="342.9688" rx="6" ry="6" style="stroke:#A371F7;stroke-width:0.5;" width="212.4668" x="66" y="1562.9219"/><ellipse cx="105.8696" cy="1606.543" fill="#ADD1B2" rx="10" ry="10" style="stroke:#181818;stroke-width:1;"/><path d="M105.1352,1607.0898 L105.1352,1609.1367 L108.7133,1609.1367 L108.7133,1608.3867 Q108.7133,1607.8711 108.9008,1607.668 Q109.104,1607.4492 109.4165,1607.4492 Q109.7133,1607.4492 109.9008,1607.668 Q110.104,1607.8711 110.104,1608.3867 L110.104,1610.543 L103.5102,1610.543 Q103.0102,1610.543 102.7915,1610.3555 Q102.5727,1610.1523 102.5727,1609.8398 Q102.5727,1609.5273 102.7915,1609.3398 Q103.0102,1609.1367 103.5102,1609.1367 L103.729,1609.1367 L103.729,1603.6523 L103.5102,1603.6523 Q103.0102,1603.6523 102.7915,1603.4648 Q102.5727,1603.2617 102.5727,1602.9492 Q102.5727,1602.6367 102.7915,1602.4492 Q103.0102,1602.2461 103.5102,1602.2461 L109.8071,1602.2617 L109.8071,1604.3867 Q109.8071,1604.8867 109.604,1605.1055 Q109.4165,1605.3242 109.104,1605.3242 Q108.7915,1605.3242 108.5883,1605.1211 Q108.4008,1604.9023 108.4008,1604.3867 L108.4008,1603.6523 L105.1352,1603.6523 L105.1352,1605.6836 L106.3696,1605.6836 Q106.3696,1605.1367 106.4633,1604.9805 Q106.6821,1604.6367 107.0727,1604.6367 Q107.3696,1604.6367 107.5571,1604.8555 Q107.7602,1605.0742 107.7602,1605.5742 L107.7602,1607.1992 Q107.7602,1607.6523 107.6508,1607.8086 Q107.4321,1608.1367 107.0727,1608.1367 Q106.6821,1608.1367 106.4633,1607.793 Q106.3696,1607.6367 106.3696,1607.0898 L105.1352,1607.0898 Z " fill="#E6EDF3"/><text fill="#E6EDF3" font-family="Segoe UI, Inter, sans-serif" font-size="14" font-style="italic" lengthAdjust="spacing" textLength="47.373" x="163.4213" y="1593.0293">&#171;Table&#187;</text><path d="M142.035,1622.3307 C140.425,1622.3307 139.1184,1623.6374 139.1184,1625.2474 C139.1184,1625.4341 139.1184,1625.6207 139.1534,1625.7957 L135.6184,1629.3307 L135.6184,1631.6641 L139.1184,1631.6641 L139.1184,1629.3307 L141.4517,1629.3307 L141.4517,1628.1641 L141.4867,1628.1291 C141.6617,1628.1641 141.8484,1628.1641 142.035,1628.1641 C143.645,1628.1641 144.9517,1626.8574 144.9517,1625.2474 C144.9517,1623.6374 143.645,1622.3307 142.035,1622.3307 M142.6184,1623.4974 C143.26,1623.4974 143.785,1624.0224 143.785,1624.6641 C143.785,1625.3057 143.26,1625.8307 142.6184,1625.8307 C141.9767,1625.8307 141.4517,1625.3057 141.4517,1624.6641 C141.4517,1624.0224 141.9767,1623.4974 142.6184,1623.4974" fill="#D29922"/><text fill="#C9D1D9" font-family="'Segoe UI, Inter, sans-serif'" font-size="14" lengthAdjust="spacing" textLength="89.8105" x="149.7867" y="1631.6504">RefreshTokens</text><line style="stroke:#A371F7;stroke-width:0.5;" x1="67" x2="277.4668" y1="1650.1641" y2="1650.1641"/><g data-visibility-modifier="IE_MANDATORY"><ellipse cx="77" cy="1674.9746" fill="#000000" rx="3" ry="3" style="stroke:#000000;stroke-width:1;"/></g><text fill="#C9D1D9" font-family="'Segoe UI, Inter, sans-serif'" font-size="14" font-weight="bold" lengthAdjust="spacing" textLength="13.1045" x="95" y="1679.2715">Id</text><text fill="#C9D1D9" font-family="'Segoe UI, Inter, sans-serif'" font-size="14" lengthAdjust="spacing" textLength="110.626" x="111.9395" y="1679.2715">: int &#171;PK, Identity&#187;</text><line style="stroke:#A371F7;stroke-width:1;" x1="67" x2="277.4668" y1="1696.7852" y2="1696.7852"/><g data-visibility-modifier="IE_MANDATORY"><ellipse cx="77" cy="1721.5957" fill="#000000" rx="3" ry="3" style="stroke:#000000;stroke-width:1;"/></g><text fill="#C9D1D9" font-family="'Segoe UI, Inter, sans-serif'" font-size="14" lengthAdjust="spacing" textLength="135.502" x="95" y="1725.8926">Token : nvarchar(max)</text><g data-visibility-modifier="IE_MANDATORY"><ellipse cx="77" cy="1760.2168" fill="#000000" rx="3" ry="3" style="stroke:#000000;stroke-width:1;"/></g><text fill="#C9D1D9" font-family="'Segoe UI, Inter, sans-serif'" font-size="14" lengthAdjust="spacing" textLength="130.2314" x="95" y="1764.5137">ExpiresAt : datetime2</text><g data-visibility-modifier="IE_MANDATORY"><ellipse cx="77" cy="1798.8379" fill="#000000" rx="3" ry="3" style="stroke:#000000;stroke-width:1;"/></g><text fill="#C9D1D9" font-family="'Segoe UI, Inter, sans-serif'" font-size="14" lengthAdjust="spacing" textLength="135.2627" x="95" y="1803.1348">CreatedAt : datetime2</text><g data-visibility-modifier="IE_MANDATORY"><ellipse cx="77" cy="1837.459" fill="#000000" rx="3" ry="3" style="stroke:#000000;stroke-width:1;"/></g><text fill="#C9D1D9" font-family="'Segoe UI, Inter, sans-serif'" font-size="14" lengthAdjust="spacing" textLength="89.8652" x="95" y="1841.7559">IsRevoked : bit</text><line style="stroke:#A371F7;stroke-width:1;" x1="67" x2="277.4668" y1="1859.2695" y2="1859.2695"/><g data-visibility-modifier="IE_MANDATORY"><ellipse cx="77" cy="1884.0801" fill="#000000" rx="3" ry="3" style="stroke:#000000;stroke-width:1;"/></g><text fill="#C9D1D9" font-family="'Segoe UI, Inter, sans-serif'" font-size="14" lengthAdjust="spacing" textLength="167.4668" x="95" y="1888.377">UserId : nvarchar(450) &#171;FK&#187;</text></g><g class="entity" data-qualified-name="GMN14" data-source-line="103" id="ent0015"><path d="M425.5,334.4219 L425.5,447.4219 L345.59,451.4219 L425.5,455.4219 L425.5,568.8242 A6,6 0 0 0 431.5,574.8242 L678.3354,574.8242 A6,6 0 0 0 684.3354,568.8242 L684.3354,338.4219 L674.3354,328.4219 L431.5,328.4219 A6,6 0 0 0 425.5,334.4219" fill="#21262D" style="stroke:#F85149;stroke-width:0.5;"/><path d="M674.3354,328.4219 L674.3354,335.4219 A3,3 0 0 0 677.3354,338.4219 L684.3354,338.4219 L674.3354,328.4219" fill="#21262D" style="stroke:#F85149;stroke-width:0.5;"/><text fill="#C9D1D9" font-family="'Segoe UI, Inter, sans-serif'" font-size="11" font-weight="bold" lengthAdjust="spacing" textLength="111.5415" x="441.5" y="355.292">Filtered Unique Index</text><text fill="#C9D1D9" font-family="'Segoe UI, Inter, sans-serif'" font-size="11" lengthAdjust="spacing" textLength="44.0322" x="556.0547" y="355.292">on Email:</text><text fill="#C9D1D9" font-family="monospace" font-size="11" lengthAdjust="spacing" textLength="171.6279" x="441.5" y="369.1118">HasFilter("IsDeleted&#160;=&#160;0")</text><line style="stroke:#F85149;stroke-width:1;" x1="426.5" x2="683.3354" y1="382.415" y2="382.415"/><text fill="#C9D1D9" font-family="'Segoe UI, Inter, sans-serif'" font-size="11" lengthAdjust="spacing" textLength="144.7295" x="441.5" y="408.2852">Active emails must be unique.</text><text fill="#C9D1D9" font-family="'Segoe UI, Inter, sans-serif'" font-size="11" lengthAdjust="spacing" textLength="163.0288" x="441.5" y="422.916">Deleted patient's email does NOT</text><text fill="#C9D1D9" font-family="'Segoe UI, Inter, sans-serif'" font-size="11" lengthAdjust="spacing" textLength="142.9624" x="441.5" y="437.5469">block new registrations in the</text><text fill="#C9D1D9" font-family="'Segoe UI, Inter, sans-serif'" font-size="11" lengthAdjust="spacing" textLength="96.0459" x="441.5" y="452.1777">database &#8212; but the</text><text fill="#C9D1D9" font-family="'Segoe UI, Inter, sans-serif'" font-size="11" font-weight="bold" lengthAdjust="spacing" textLength="35.4868" x="540.5591" y="452.1777">service</text><text fill="#C9D1D9" font-family="'Segoe UI, Inter, sans-serif'" font-size="11" lengthAdjust="spacing" textLength="111.1226" x="441.5" y="466.8086">checks ALL patients via</text><text fill="#C9D1D9" font-family="monospace" font-size="11" lengthAdjust="spacing" textLength="132.0215" x="441.5" y="480.897">IgnoreQueryFilters()</text><text fill="#C9D1D9" font-family="'Segoe UI, Inter, sans-serif'" font-size="11" lengthAdjust="spacing" textLength="2.3848" x="573.5215" y="481.4395">.</text><line style="stroke:#F85149;stroke-width:1;" x1="426.5" x2="683.3354" y1="498.2002" y2="498.2002"/><text fill="#C9D1D9" font-family="'Segoe UI, Inter, sans-serif'" font-size="11" font-weight="bold" lengthAdjust="spacing" textLength="97.4316" x="441.5" y="524.0703">Global Query Filter</text><text fill="#C9D1D9" font-family="'Segoe UI, Inter, sans-serif'" font-size="11" lengthAdjust="spacing" textLength="2.3848" x="538.9316" y="524.0703">:</text><text fill="#C9D1D9" font-family="monospace" font-size="11" lengthAdjust="spacing" textLength="217.8354" x="441.5" y="537.8901">HasQueryFilter(p&#160;=&gt;&#160;!p.IsDeleted)</text><text fill="#C9D1D9" font-family="'Segoe UI, Inter, sans-serif'" font-size="11" lengthAdjust="spacing" textLength="153.4038" x="441.5" y="553.0635">Auto-excludes deleted patients.</text></g><g class="entity" data-qualified-name="GMN17" data-source-line="119" id="ent0018"><path d="M714.5,1667.4219 L714.5,1801.207 A6,6 0 0 0 720.5,1807.207 L903.7524,1807.207 A6,6 0 0 0 909.7524,1801.207 L909.7524,1671.4219 L899.7524,1661.4219 L776.64,1661.4219 L597.84,1340.1619 L768.64,1661.4219 L720.5,1661.4219 A6,6 0 0 0 714.5,1667.4219" fill="#21262D" style="stroke:#F85149;stroke-width:0.5;"/><path d="M899.7524,1661.4219 L899.7524,1668.4219 A3,3 0 0 0 902.7524,1671.4219 L909.7524,1671.4219 L899.7524,1661.4219" fill="#21262D" style="stroke:#F85149;stroke-width:0.5;"/><text fill="#C9D1D9" font-family="'Segoe UI, Inter, sans-serif'" font-size="11" lengthAdjust="spacing" textLength="67.563" x="730.5" y="1688.292">Seeded Roles:</text><text fill="#C9D1D9" font-family="'Segoe UI, Inter, sans-serif'" font-size="11" lengthAdjust="spacing" textLength="4.4688" x="730.5" y="1702.9229">&#8226;</text><text fill="#C9D1D9" font-family="'Segoe UI, Inter, sans-serif'" font-size="11" font-weight="bold" lengthAdjust="spacing" textLength="34.4019" x="737.9819" y="1702.9229">Admin</text><text fill="#C9D1D9" font-family="'Segoe UI, Inter, sans-serif'" font-size="11" lengthAdjust="spacing" textLength="64.7969" x="775.397" y="1702.9229">&#8212; Full access</text><text fill="#C9D1D9" font-family="'Segoe UI, Inter, sans-serif'" font-size="11" lengthAdjust="spacing" textLength="4.4688" x="730.5" y="1717.5537">&#8226;</text><text fill="#C9D1D9" font-family="'Segoe UI, Inter, sans-serif'" font-size="11" font-weight="bold" lengthAdjust="spacing" textLength="64.2168" x="737.9819" y="1717.5537">Receptionist</text><text fill="#C9D1D9" font-family="'Segoe UI, Inter, sans-serif'" font-size="11" lengthAdjust="spacing" textLength="79.5405" x="805.2119" y="1717.5537">&#8212; Patient CRUD</text><text fill="#C9D1D9" font-family="'Segoe UI, Inter, sans-serif'" font-size="11" lengthAdjust="spacing" textLength="4.4688" x="730.5" y="1732.1846">&#8226;</text><text fill="#C9D1D9" font-family="'Segoe UI, Inter, sans-serif'" font-size="11" font-weight="bold" lengthAdjust="spacing" textLength="36.9692" x="737.9819" y="1732.1846">Patient</text><text fill="#C9D1D9" font-family="'Segoe UI, Inter, sans-serif'" font-size="11" lengthAdjust="spacing" textLength="70.834" x="777.9644" y="1732.1846">&#8212; Default role</text><line style="stroke:#F85149;stroke-width:1;" x1="715.5" x2="908.7524" y1="1744.9453" y2="1744.9453"/><text fill="#C9D1D9" font-family="'Segoe UI, Inter, sans-serif'" font-size="11" lengthAdjust="spacing" textLength="101.6587" x="730.5" y="1770.8154">Each user has exactly</text><text fill="#C9D1D9" font-family="'Segoe UI, Inter, sans-serif'" font-size="11" font-weight="bold" lengthAdjust="spacing" textLength="42.5444" x="730.5" y="1785.4463">one role</text><text fill="#C9D1D9" font-family="'Segoe UI, Inter, sans-serif'" font-size="11" lengthAdjust="spacing" textLength="44.9507" x="776.0576" y="1785.4463">at a time.</text></g><g class="entity" data-qualified-name="GMN20" data-source-line="129" id="ent0021"><path d="M989.5,1695.9219 L989.5,1772.4453 A6,6 0 0 0 995.5,1778.4453 L1184.9614,1778.4453 A6,6 0 0 0 1190.9614,1772.4453 L1190.9614,1699.9219 L1180.9614,1689.9219 L995.5,1689.9219 A6,6 0 0 0 989.5,1695.9219" fill="#21262D" style="stroke:#F85149;stroke-width:0.5;"/><path d="M1180.9614,1689.9219 L1180.9614,1696.9219 A3,3 0 0 0 1183.9614,1699.9219 L1190.9614,1699.9219 L1180.9614,1689.9219" fill="#21262D" style="stroke:#F85149;stroke-width:1;"/><text fill="#C9D1D9" font-family="'Segoe UI, Inter, sans-serif'" font-size="11" lengthAdjust="spacing" textLength="103.9253" x="1005.5" y="1716.792">Identity manages this</text><text fill="#C9D1D9" font-family="'Segoe UI, Inter, sans-serif'" font-size="11" lengthAdjust="spacing" textLength="128.1274" x="1005.5" y="1731.4229">junction table. Assign Role</text><text fill="#C9D1D9" font-family="'Segoe UI, Inter, sans-serif'" font-size="11" lengthAdjust="spacing" textLength="139.7935" x="1005.5" y="1746.0537">endpoint removes all current</text><text fill="#C9D1D9" font-family="'Segoe UI, Inter, sans-serif'" font-size="11" lengthAdjust="spacing" textLength="160.4614" x="1005.5" y="1760.6846">roles before adding the new one.</text></g><!--link PATIENTS to USERS--><g class="link" data-entity-1="ent0003" data-entity-2="ent0005" data-link-type="crowfoot" data-source-line="91" id="lnk10"><path codeLine="91" d="M184,761.1219 C184,836.7419 184,891.3219 184,963.8719" fill="none" id="PATIENTS-USERS" style="stroke:#8B949E;stroke-width:1.5;stroke-dasharray:7,7;"/><line style="stroke:#8B949E;stroke-width:1.5;" x1="184" x2="178" y1="751.1219" y2="743.1219"/><line style="stroke:#8B949E;stroke-width:1.5;" x1="184" x2="190" y1="751.1219" y2="743.1219"/><line style="stroke:#8B949E;stroke-width:1.5;" x1="184" x2="184" y1="751.1219" y2="743.1219"/><ellipse cx="184" cy="757.1219" fill="none" rx="4" ry="4" style="stroke:#8B949E;stroke-width:1.5;"/><line style="stroke:#8B949E;stroke-width:1.5;" x1="188" x2="180" y1="967.8719" y2="967.8719"/><line style="stroke:#8B949E;stroke-width:1.5;" x1="188" x2="180" y1="964.8719" y2="964.8719"/><line style="stroke:#8B949E;stroke-width:1.5;" x1="184" x2="184" y1="963.8719" y2="971.8719"/><text fill="#C9D1D9" font-family="'Segoe UI, Inter, sans-serif'" font-size="12" lengthAdjust="spacing" textLength="79.0137" x="198.2871" y="798.8711">(1) Optional FK</text><text fill="#C9D1D9" font-family="'Segoe UI, Inter, sans-serif'" font-size="12" lengthAdjust="spacing" textLength="68.4727" x="200.2705" y="814.832">(UserId &#8594; Id)</text></g><!--link USERS to TOKENS--><g class="link" data-entity-1="ent0005" data-entity-2="ent0009" data-link-type="crowfoot" data-source-line="94" id="lnk11"><path codeLine="94" d="M157.1687,1458.1646 C155.9787,1486.0346 156,1506.0919 157,1532.9219 C157.36,1542.6919 156.8699,1534.7475 157.4099,1544.8575" fill="none" id="USERS-TOKENS" style="stroke:#8B949E;stroke-width:1.5;"/><line style="stroke:#8B949E;stroke-width:1.5;" x1="153.343" x2="161.3357" y1="1453.9976" y2="1454.3389"/><line style="stroke:#8B949E;stroke-width:1.5;" x1="153.215" x2="161.2077" y1="1456.9949" y2="1457.3361"/><line style="stroke:#8B949E;stroke-width:1.5;" x1="157.1687" x2="157.51" y1="1458.1646" y2="1450.1719"/><line style="stroke:#8B949E;stroke-width:1.5;" x1="157.9433" x2="164.3615" y1="1554.8433" y2="1562.5119"/><line style="stroke:#8B949E;stroke-width:1.5;" x1="157.9433" x2="152.3785" y1="1554.8433" y2="1563.1519"/><line style="stroke:#8B949E;stroke-width:1.5;" x1="157.9433" x2="158.37" y1="1554.8433" y2="1562.8319"/><ellipse cx="157.6233" cy="1548.8518" fill="none" rx="4" ry="4" style="stroke:#8B949E;stroke-width:1.5;"/><text fill="#C9D1D9" font-family="'Segoe UI, Inter, sans-serif'" font-size="12" lengthAdjust="spacing" textLength="46.5996" x="182.2236" y="1503.8711">(2) Owns</text><text fill="#C9D1D9" font-family="'Segoe UI, Inter, sans-serif'" font-size="12" lengthAdjust="spacing" textLength="68.4727" x="168" y="1519.832">(UserId &#8594; Id)</text></g><!--link USERS to USER_ROLES--><g class="link" data-entity-1="ent0005" data-entity-2="ent0008" data-link-type="crowfoot" data-source-line="97" id="lnk12"><path codeLine="97" d="M321.9667,1429.2864 C371.0367,1506.6064 410.0551,1568.074 448.7351,1629.024" fill="none" id="USERS-USER_ROLES" style="stroke:#8B949E;stroke-width:1.5;"/><line style="stroke:#8B949E;stroke-width:1.5;" x1="316.4461" x2="323.2006" y1="1428.0525" y2="1423.7658"/><line style="stroke:#8B949E;stroke-width:1.5;" x1="318.0536" x2="324.8081" y1="1430.5855" y2="1426.2988"/><line style="stroke:#8B949E;stroke-width:1.5;" x1="321.9667" x2="317.68" y1="1429.2864" y2="1422.5319"/><line style="stroke:#8B949E;stroke-width:1.5;" x1="454.0934" x2="463.446" y1="1637.4672" y2="1641.0069"/><line style="stroke:#8B949E;stroke-width:1.5;" x1="454.0934" x2="453.314" y1="1637.4672" y2="1647.4368"/><line style="stroke:#8B949E;stroke-width:1.5;" x1="454.0934" x2="458.38" y1="1637.4672" y2="1644.2219"/><ellipse cx="450.8784" cy="1632.4013" fill="none" rx="4" ry="4" style="stroke:#8B949E;stroke-width:1.5;"/><text fill="#C9D1D9" font-family="'Segoe UI, Inter, sans-serif'" font-size="12" lengthAdjust="spacing" textLength="65.0273" x="394.2871" y="1511.8711">(3) Assigned</text></g><!--link ROLES to USER_ROLES--><g class="link" data-entity-1="ent0007" data-entity-2="ent0008" data-link-type="crowfoot" data-source-line="98" id="lnk13"><path codeLine="98" d="M524.6009,1348.1594 C522.2509,1442.5594 519.7574,1542.5174 517.6774,1626.1674" fill="none" id="ROLES-USER_ROLES" style="stroke:#8B949E;stroke-width:1.5;"/><line style="stroke:#8B949E;stroke-width:1.5;" x1="520.7017" x2="528.6992" y1="1344.0611" y2="1344.2602"/><line style="stroke:#8B949E;stroke-width:1.5;" x1="520.627" x2="528.6246" y1="1347.0602" y2="1347.2593"/><line style="stroke:#8B949E;stroke-width:1.5;" x1="524.6009" x2="524.8" y1="1348.1594" y2="1340.1619"/><line style="stroke:#8B949E;stroke-width:1.5;" x1="517.4289" x2="523.2281" y1="1636.1643" y2="1644.311"/><line style="stroke:#8B949E;stroke-width:1.5;" x1="517.4289" x2="511.2319" y1="1636.1643" y2="1644.0127"/><line style="stroke:#8B949E;stroke-width:1.5;" x1="517.4289" x2="517.23" y1="1636.1643" y2="1644.1619"/><ellipse cx="517.578" cy="1630.1662" fill="none" rx="4" ry="4" style="stroke:#8B949E;stroke-width:1.5;"/><text fill="#C9D1D9" font-family="'Segoe UI, Inter, sans-serif'" font-size="12" lengthAdjust="spacing" textLength="63.2109" x="536.2871" y="1511.8711">(3) Contains</text></g><!--link GMN20 to USER_ROLES--><g class="link" data-entity-1="ent0021" data-entity-2="ent0008" data-link-type="association" data-source-line="129" id="lnk22"><path d="M1070.03,1689.5819 C1042.8,1634.6919 988.29,1544.3619 910,1506.4219 C832.01,1468.6319 793.94,1470.6619 715,1506.4219 C652.41,1534.7719 601.66,1593.4719 566.94,1644.2019" fill="none" id="GMN20-USER_ROLES" style="stroke:#8B949E;stroke-width:1.5;stroke-dasharray:7,7;"/></g><g class="footer" data-source-line="18"><text fill="#E6EDF3" font-family="'Segoe UI, Inter, sans-serif'" font-size="10" lengthAdjust="spacing" textLength="158.3203" x="512.8206" y="1972.7129">Sprint 3 &#8212; Patient &amp; Identity Tables</text></g><?plantuml-src hLVlKXf94F--Jz4XLH7s0W96ar1A5H58F1Kvm6zNbHfs6vbpTsPlPrSbCLNvT0zmTKzmZvOdkPwP1HO5DRdm2QPx-i-lVztJR47vnpxE5dHvW0t0sAz4QHZGmO-RwgTn91K2G0CwWpPy-_eFj5d2nemEXzuKGmRNF9b2doKSHG8ZDWuGNi2HJxzuChC7YaoTi1d60CPKMteAYkUd9oKIjD9aAcChE9LJ5g8FhO2Jv316bj0lBQbNwtlbwawvzee4moZcvCm8TanGcNy5XuFpDlm20nbWMKVfP_Rv9zAGud-WuJppSS85mlcmy_7mV3WwE_qu-j0vxJZFkF22r4UeLBOzAIRyObibim0j_WxXG9XiWg-O9RDJSYYuWuC3-83CntYxAsL2YD69CpKdS1XmmJquPO9TOAZX7ivKWY6KbrRRgFY5S2Rsyjns7gCrrSaSKubaIaOnIRYuKCQrkkGYOZ4BGKWV5KRmffexZ9cur8TxrRaHQzBSTIBcNLAeK9YxNePUWEVLTgrMUmsV7KTNCekeiE_9GCQDvxjlMdlTRdF_1V61UomeUx5Kghc_RUJDHSKBm1JqMwEZJcyqXFtzZ8BD9Xc6xEE2wnxvhajqqN3ix_UFNov0Q3ONUbJbvPLk6WGzOYDT4bSizgOiBjQgrL9EfHCo7kJbhtQh9J9F7KZe4_VE1VypHJWIFjxa_BZGdqgnOZbaDtdBL4yycxpZCVLM0tpwbHE-Hw7fC4y6HHhcZBTyFqQbyiRhDYn16MbmLYB9cgoLP7uI7c9z8J-F_FlIzQPou9qhZ8_yTS0GxWzVTU58jJ50tVSD67ET8FKTIuEa0TNSdKpfiSY-E5zoF6mD-vLUPmI7CiO50OYAjRtQktfz4nLtkk_UxbQ9YX76Ieeb1rigwc6YixKqfCamU087xwBIF_uU3jvXoZqErdVtj55BlPLIwq3lMjkitMTANSlO_y3Kz07_3_DdY5uQ4vZ3X8NHHYk7Kf1QZC9xH347JgLI0PbCgGyMquogaeP2QL5M-xNbREsyhdLVKpdLb6FWtosdVZfiEGTd9vsVMiwdWj-JSSW2_WdzTJU-3xOD8BJhRz_MwmG2lIcNPHeap4lM4Nk9XYRtnmKalwR2qm_gVLHiysz0vYLqZrTOvhhQmrFq7qla4cVB10OueI4u7SbB53RyqTbnf_TJ7mXZ_A7El8au1R6XCnxh73q81tX5Fh91k3w81qPjVWBQjtc0WTc2YFXHzaHlGR5MMgm6Cj9Y5WGpqBnGa4XWneUpU6A_o4hbzZQRTGqe60DdsKKgr--Yc0NrxQ-_2SGI58oRUiaOWYaL8sHYDg-HnL4vrk3jRRaiFy-hPSpJnRDheJRPtR5sovf7yCUSbaNjefp8id5rnTcYdALLJpbQ6szahgNq3aMu5nmhsAnABPWmJZEdCCUuHujNXgsWhn3pYoa1ErdiAAOehhjsHo06Kkncf3UCNg50uzUg5WlBb_40geLIeU1OEcI4Q57cLmYeRnF4gKfWZ90QytOWpgz7jjnRoYg3Bodatjd8A8q3wLs2m6k8yOAh9BQKeSO06hT6nPzlctgj7DFAI09AYQfmnJrqNQD4wwr736gTdCpzALs7BAsZ2q5ly6yfnZERdYfIGfNLZ5ptVI37n2gZ1rRHTNFGv0mK8pXemhEeie1fZX3z0v1bl34xkW9_5GHLSMYT0bshh69ZcIGor2KpjNRiEuO-tJ7JqBh_zlLVYg_bXrnGrJGG-h46vdcqVEKq1kYXQGw2CbESTvl-hvBJp8upfRPTUY0cbwkeT9WtXNJUIdX3apkOPNZfhLBV82CieTRLC-LUWW5E32ENV3Qt5-zeQBPqQlufjvaikYhHexEIDOX18vl9VYJru8mnb5TqaoO8sAV9ZYqTaY8sJlJUnNoV_buOpcYMKSYv2Fy3?></g></svg>